%TF.GenerationSoftware,KiCad,Pcbnew,(6.0.1-0)*%
%TF.CreationDate,2022-02-08T22:41:07+01:00*%
%TF.ProjectId,muVox_programmer,6d75566f-785f-4707-926f-6772616d6d65,rev?*%
%TF.SameCoordinates,Original*%
%TF.FileFunction,Legend,Top*%
%TF.FilePolarity,Positive*%
%FSLAX46Y46*%
G04 Gerber Fmt 4.6, Leading zero omitted, Abs format (unit mm)*
G04 Created by KiCad (PCBNEW (6.0.1-0)) date 2022-02-08 22:41:07*
%MOMM*%
%LPD*%
G01*
G04 APERTURE LIST*
%ADD10C,0.150000*%
%ADD11C,0.175000*%
%ADD12C,0.100000*%
%ADD13C,0.120000*%
G04 APERTURE END LIST*
D10*
X143514000Y-58444000D02*
X143480666Y-58410666D01*
X143447333Y-58310666D01*
X143447333Y-58244000D01*
X143480666Y-58144000D01*
X143547333Y-58077333D01*
X143614000Y-58044000D01*
X143747333Y-58010666D01*
X143847333Y-58010666D01*
X143980666Y-58044000D01*
X144047333Y-58077333D01*
X144114000Y-58144000D01*
X144147333Y-58244000D01*
X144147333Y-58310666D01*
X144114000Y-58410666D01*
X144080666Y-58444000D01*
X143447333Y-58744000D02*
X144147333Y-58744000D01*
X143814000Y-58744000D02*
X143814000Y-59144000D01*
X143447333Y-59144000D02*
X144147333Y-59144000D01*
X144147333Y-59410666D02*
X144147333Y-59844000D01*
X143880666Y-59610666D01*
X143880666Y-59710666D01*
X143847333Y-59777333D01*
X143814000Y-59810666D01*
X143747333Y-59844000D01*
X143580666Y-59844000D01*
X143514000Y-59810666D01*
X143480666Y-59777333D01*
X143447333Y-59710666D01*
X143447333Y-59510666D01*
X143480666Y-59444000D01*
X143514000Y-59410666D01*
X143914000Y-60444000D02*
X143447333Y-60444000D01*
X144180666Y-60277333D02*
X143680666Y-60110666D01*
X143680666Y-60544000D01*
X144147333Y-60944000D02*
X144147333Y-61010666D01*
X144114000Y-61077333D01*
X144080666Y-61110666D01*
X144014000Y-61144000D01*
X143880666Y-61177333D01*
X143714000Y-61177333D01*
X143580666Y-61144000D01*
X143514000Y-61110666D01*
X143480666Y-61077333D01*
X143447333Y-61010666D01*
X143447333Y-60944000D01*
X143480666Y-60877333D01*
X143514000Y-60844000D01*
X143580666Y-60810666D01*
X143714000Y-60777333D01*
X143880666Y-60777333D01*
X144014000Y-60810666D01*
X144080666Y-60844000D01*
X144114000Y-60877333D01*
X144147333Y-60944000D01*
X143514000Y-61877333D02*
X143480666Y-61844000D01*
X143447333Y-61744000D01*
X143447333Y-61677333D01*
X143480666Y-61577333D01*
X143547333Y-61510666D01*
X143614000Y-61477333D01*
X143747333Y-61444000D01*
X143847333Y-61444000D01*
X143980666Y-61477333D01*
X144047333Y-61510666D01*
X144114000Y-61577333D01*
X144147333Y-61677333D01*
X144147333Y-61744000D01*
X144114000Y-61844000D01*
X144080666Y-61877333D01*
D11*
X131001333Y-59371333D02*
X131701333Y-59371333D01*
X131701333Y-59638000D01*
X131668000Y-59704666D01*
X131634666Y-59738000D01*
X131568000Y-59771333D01*
X131468000Y-59771333D01*
X131401333Y-59738000D01*
X131368000Y-59704666D01*
X131334666Y-59638000D01*
X131334666Y-59371333D01*
X131001333Y-60471333D02*
X131334666Y-60238000D01*
X131001333Y-60071333D02*
X131701333Y-60071333D01*
X131701333Y-60338000D01*
X131668000Y-60404666D01*
X131634666Y-60438000D01*
X131568000Y-60471333D01*
X131468000Y-60471333D01*
X131401333Y-60438000D01*
X131368000Y-60404666D01*
X131334666Y-60338000D01*
X131334666Y-60071333D01*
X131701333Y-60904666D02*
X131701333Y-61038000D01*
X131668000Y-61104666D01*
X131601333Y-61171333D01*
X131468000Y-61204666D01*
X131234666Y-61204666D01*
X131101333Y-61171333D01*
X131034666Y-61104666D01*
X131001333Y-61038000D01*
X131001333Y-60904666D01*
X131034666Y-60838000D01*
X131101333Y-60771333D01*
X131234666Y-60738000D01*
X131468000Y-60738000D01*
X131601333Y-60771333D01*
X131668000Y-60838000D01*
X131701333Y-60904666D01*
X131668000Y-61871333D02*
X131701333Y-61804666D01*
X131701333Y-61704666D01*
X131668000Y-61604666D01*
X131601333Y-61538000D01*
X131534666Y-61504666D01*
X131401333Y-61471333D01*
X131301333Y-61471333D01*
X131168000Y-61504666D01*
X131101333Y-61538000D01*
X131034666Y-61604666D01*
X131001333Y-61704666D01*
X131001333Y-61771333D01*
X131034666Y-61871333D01*
X131068000Y-61904666D01*
X131301333Y-61904666D01*
X131301333Y-61771333D01*
X131001333Y-62604666D02*
X131334666Y-62371333D01*
X131001333Y-62204666D02*
X131701333Y-62204666D01*
X131701333Y-62471333D01*
X131668000Y-62538000D01*
X131634666Y-62571333D01*
X131568000Y-62604666D01*
X131468000Y-62604666D01*
X131401333Y-62571333D01*
X131368000Y-62538000D01*
X131334666Y-62471333D01*
X131334666Y-62204666D01*
X131201333Y-62871333D02*
X131201333Y-63204666D01*
X131001333Y-62804666D02*
X131701333Y-63038000D01*
X131001333Y-63271333D01*
X131001333Y-63504666D02*
X131701333Y-63504666D01*
X131201333Y-63738000D01*
X131701333Y-63971333D01*
X131001333Y-63971333D01*
X131001333Y-64304666D02*
X131701333Y-64304666D01*
X131201333Y-64538000D01*
X131701333Y-64771333D01*
X131001333Y-64771333D01*
X131368000Y-65104666D02*
X131368000Y-65338000D01*
X131001333Y-65438000D02*
X131001333Y-65104666D01*
X131701333Y-65104666D01*
X131701333Y-65438000D01*
X131001333Y-66138000D02*
X131334666Y-65904666D01*
X131001333Y-65738000D02*
X131701333Y-65738000D01*
X131701333Y-66004666D01*
X131668000Y-66071333D01*
X131634666Y-66104666D01*
X131568000Y-66138000D01*
X131468000Y-66138000D01*
X131401333Y-66104666D01*
X131368000Y-66071333D01*
X131334666Y-66004666D01*
X131334666Y-65738000D01*
D12*
%TO.C,U1*%
X131038666Y-58036666D02*
X131038666Y-58603333D01*
X131072000Y-58670000D01*
X131105333Y-58703333D01*
X131172000Y-58736666D01*
X131305333Y-58736666D01*
X131372000Y-58703333D01*
X131405333Y-58670000D01*
X131438666Y-58603333D01*
X131438666Y-58036666D01*
X132138666Y-58736666D02*
X131738666Y-58736666D01*
X131938666Y-58736666D02*
X131938666Y-58036666D01*
X131872000Y-58136666D01*
X131805333Y-58203333D01*
X131738666Y-58236666D01*
%TO.C,Q1*%
X143824333Y-70614333D02*
X143757666Y-70581000D01*
X143691000Y-70514333D01*
X143591000Y-70414333D01*
X143524333Y-70381000D01*
X143457666Y-70381000D01*
X143491000Y-70547666D02*
X143424333Y-70514333D01*
X143357666Y-70447666D01*
X143324333Y-70314333D01*
X143324333Y-70081000D01*
X143357666Y-69947666D01*
X143424333Y-69881000D01*
X143491000Y-69847666D01*
X143624333Y-69847666D01*
X143691000Y-69881000D01*
X143757666Y-69947666D01*
X143791000Y-70081000D01*
X143791000Y-70314333D01*
X143757666Y-70447666D01*
X143691000Y-70514333D01*
X143624333Y-70547666D01*
X143491000Y-70547666D01*
X144457666Y-70547666D02*
X144057666Y-70547666D01*
X144257666Y-70547666D02*
X144257666Y-69847666D01*
X144191000Y-69947666D01*
X144124333Y-70014333D01*
X144057666Y-70047666D01*
%TO.C,C2*%
X143748933Y-63089600D02*
X143715600Y-63122933D01*
X143615600Y-63156266D01*
X143548933Y-63156266D01*
X143448933Y-63122933D01*
X143382266Y-63056266D01*
X143348933Y-62989600D01*
X143315600Y-62856266D01*
X143315600Y-62756266D01*
X143348933Y-62622933D01*
X143382266Y-62556266D01*
X143448933Y-62489600D01*
X143548933Y-62456266D01*
X143615600Y-62456266D01*
X143715600Y-62489600D01*
X143748933Y-62522933D01*
X144015600Y-62522933D02*
X144048933Y-62489600D01*
X144115600Y-62456266D01*
X144282266Y-62456266D01*
X144348933Y-62489600D01*
X144382266Y-62522933D01*
X144415600Y-62589600D01*
X144415600Y-62656266D01*
X144382266Y-62756266D01*
X143982266Y-63156266D01*
X144415600Y-63156266D01*
%TO.C,R1*%
X131556933Y-54520266D02*
X131323600Y-54186933D01*
X131156933Y-54520266D02*
X131156933Y-53820266D01*
X131423600Y-53820266D01*
X131490266Y-53853600D01*
X131523600Y-53886933D01*
X131556933Y-53953600D01*
X131556933Y-54053600D01*
X131523600Y-54120266D01*
X131490266Y-54153600D01*
X131423600Y-54186933D01*
X131156933Y-54186933D01*
X132223600Y-54520266D02*
X131823600Y-54520266D01*
X132023600Y-54520266D02*
X132023600Y-53820266D01*
X131956933Y-53920266D01*
X131890266Y-53986933D01*
X131823600Y-54020266D01*
%TO.C,C1*%
X143647333Y-54352000D02*
X143614000Y-54385333D01*
X143514000Y-54418666D01*
X143447333Y-54418666D01*
X143347333Y-54385333D01*
X143280666Y-54318666D01*
X143247333Y-54252000D01*
X143214000Y-54118666D01*
X143214000Y-54018666D01*
X143247333Y-53885333D01*
X143280666Y-53818666D01*
X143347333Y-53752000D01*
X143447333Y-53718666D01*
X143514000Y-53718666D01*
X143614000Y-53752000D01*
X143647333Y-53785333D01*
X144314000Y-54418666D02*
X143914000Y-54418666D01*
X144114000Y-54418666D02*
X144114000Y-53718666D01*
X144047333Y-53818666D01*
X143980666Y-53885333D01*
X143914000Y-53918666D01*
%TO.C,R2*%
X143774333Y-68236266D02*
X143541000Y-67902933D01*
X143374333Y-68236266D02*
X143374333Y-67536266D01*
X143641000Y-67536266D01*
X143707666Y-67569600D01*
X143741000Y-67602933D01*
X143774333Y-67669600D01*
X143774333Y-67769600D01*
X143741000Y-67836266D01*
X143707666Y-67869600D01*
X143641000Y-67902933D01*
X143374333Y-67902933D01*
X144041000Y-67602933D02*
X144074333Y-67569600D01*
X144141000Y-67536266D01*
X144307666Y-67536266D01*
X144374333Y-67569600D01*
X144407666Y-67602933D01*
X144441000Y-67669600D01*
X144441000Y-67736266D01*
X144407666Y-67836266D01*
X144007666Y-68236266D01*
X144441000Y-68236266D01*
%TO.C,R3*%
X143774333Y-72833666D02*
X143541000Y-72500333D01*
X143374333Y-72833666D02*
X143374333Y-72133666D01*
X143641000Y-72133666D01*
X143707666Y-72167000D01*
X143741000Y-72200333D01*
X143774333Y-72267000D01*
X143774333Y-72367000D01*
X143741000Y-72433666D01*
X143707666Y-72467000D01*
X143641000Y-72500333D01*
X143374333Y-72500333D01*
X144007666Y-72133666D02*
X144441000Y-72133666D01*
X144207666Y-72400333D01*
X144307666Y-72400333D01*
X144374333Y-72433666D01*
X144407666Y-72467000D01*
X144441000Y-72533666D01*
X144441000Y-72700333D01*
X144407666Y-72767000D01*
X144374333Y-72800333D01*
X144307666Y-72833666D01*
X144107666Y-72833666D01*
X144041000Y-72800333D01*
X144007666Y-72767000D01*
D13*
%TO.C,U1*%
X132408000Y-64361000D02*
X132663000Y-64361000D01*
X142673000Y-59591000D02*
X142673000Y-57926000D01*
X132408000Y-61976000D02*
X132408000Y-64361000D01*
X132408000Y-61976000D02*
X132408000Y-59591000D01*
X132408000Y-59591000D02*
X132663000Y-59591000D01*
X142928000Y-59591000D02*
X142673000Y-59591000D01*
X142928000Y-64361000D02*
X142673000Y-64361000D01*
X142928000Y-61976000D02*
X142928000Y-64361000D01*
X142928000Y-61976000D02*
X142928000Y-59591000D01*
%TO.C,J1*%
X142177000Y-57283000D02*
X133227000Y-57283000D01*
X142297000Y-50603000D02*
X142297000Y-47873000D01*
X142297000Y-54203000D02*
X142297000Y-53303000D01*
X133107000Y-54203000D02*
X133107000Y-53303000D01*
X142297000Y-47873000D02*
X133107000Y-47873000D01*
X133107000Y-50603000D02*
X133107000Y-47873000D01*
%TO.C,Q1*%
X140842000Y-71314800D02*
X142742000Y-71314800D01*
X142242000Y-68994800D02*
X140842000Y-68994800D01*
%TO.C,J2*%
X133949000Y-78460000D02*
X127949000Y-78460000D01*
X127949000Y-68960000D02*
X127949000Y-68200000D01*
X127949000Y-70740000D02*
X133949000Y-70740000D01*
X133949000Y-78580000D02*
X127949000Y-78580000D01*
X133949000Y-80070000D02*
X136609000Y-80070000D01*
X133949000Y-74040000D02*
X127949000Y-74040000D01*
X137006071Y-76580000D02*
X136609000Y-76580000D01*
X133949000Y-67250000D02*
X133949000Y-80070000D01*
X127949000Y-71500000D02*
X127949000Y-70740000D01*
X136609000Y-80070000D02*
X136609000Y-67250000D01*
X137006071Y-71500000D02*
X136609000Y-71500000D01*
X133949000Y-78820000D02*
X127949000Y-78820000D01*
X137006071Y-74040000D02*
X136609000Y-74040000D01*
X133949000Y-79120000D02*
X127949000Y-79120000D01*
X139319000Y-78740000D02*
X139319000Y-80010000D01*
X137006071Y-73280000D02*
X136609000Y-73280000D01*
X137006071Y-70740000D02*
X136609000Y-70740000D01*
X136609000Y-74930000D02*
X133949000Y-74930000D01*
X127949000Y-73280000D02*
X133949000Y-73280000D01*
X127949000Y-79120000D02*
X127949000Y-78360000D01*
X133949000Y-71500000D02*
X127949000Y-71500000D01*
X137006071Y-68200000D02*
X136609000Y-68200000D01*
X137006071Y-75820000D02*
X136609000Y-75820000D01*
X136609000Y-69850000D02*
X133949000Y-69850000D01*
X127949000Y-75820000D02*
X133949000Y-75820000D01*
X137006071Y-68960000D02*
X136609000Y-68960000D01*
X136609000Y-67250000D02*
X133949000Y-67250000D01*
X136939000Y-78360000D02*
X136609000Y-78360000D01*
X136609000Y-77470000D02*
X133949000Y-77470000D01*
X133949000Y-78940000D02*
X127949000Y-78940000D01*
X127949000Y-74040000D02*
X127949000Y-73280000D01*
X133949000Y-76580000D02*
X127949000Y-76580000D01*
X127949000Y-78360000D02*
X133949000Y-78360000D01*
X133949000Y-68960000D02*
X127949000Y-68960000D01*
X139319000Y-80010000D02*
X138049000Y-80010000D01*
X127949000Y-68200000D02*
X133949000Y-68200000D01*
X133949000Y-78700000D02*
X127949000Y-78700000D01*
X133949000Y-79060000D02*
X127949000Y-79060000D01*
X136939000Y-79120000D02*
X136609000Y-79120000D01*
X127949000Y-76580000D02*
X127949000Y-75820000D01*
X136609000Y-72390000D02*
X133949000Y-72390000D01*
%TO.C,C2*%
X143355600Y-64961380D02*
X143355600Y-64680220D01*
X144375600Y-64961380D02*
X144375600Y-64680220D01*
%TO.C,R1*%
X131151100Y-56422058D02*
X131151100Y-55947542D01*
X132196100Y-56422058D02*
X132196100Y-55947542D01*
%TO.C,C1*%
X144274000Y-56261580D02*
X144274000Y-55980420D01*
X143254000Y-56261580D02*
X143254000Y-55980420D01*
%TO.C,R2*%
X141830058Y-67447900D02*
X141355542Y-67447900D01*
X141830058Y-68492900D02*
X141355542Y-68492900D01*
%TO.C,R3*%
X141304742Y-71867500D02*
X141779258Y-71867500D01*
X141304742Y-72912500D02*
X141779258Y-72912500D01*
%TD*%
M02*
