M48
; DRILL file {KiCad (6.0.1-0)} date Tuesday, 08 February 2022 at 22:41:09
; FORMAT={-:-/ absolute / inch / decimal}
; #@! TF.CreationDate,2022-02-08T22:41:09+01:00
; #@! TF.GenerationSoftware,Kicad,Pcbnew,(6.0.1-0)
; #@! TF.FileFunction,Plated,1,2,PTH
FMAT,2
INCH
; #@! TA.AperFunction,Plated,PTH,ViaDrill
T1C0.0157
; #@! TA.AperFunction,Plated,PTH,ComponentDrill
T2C0.0157
; #@! TA.AperFunction,Plated,PTH,ComponentDrill
T3C0.0236
; #@! TA.AperFunction,Plated,PTH,ComponentDrill
T4C0.0394
%
G90
G05
T1
X5.185Y-2.065
X5.24Y-2.445
X5.245Y-2.9
X5.292Y-2.118
X5.295Y-2.445
X5.3212Y-2.263
X5.355Y-2.445
X5.41Y-2.445
X5.495Y-2.485
X5.5098Y-2.815
X5.545Y-2.485
X5.595Y-2.285
X5.595Y-2.39
X5.625Y-2.445
X5.6545Y-2.714
X5.655Y-2.055
T2
X5.3042Y-2.1753
X5.3042Y-2.2285
X5.3377Y-2.1753
X5.3377Y-2.2285
X5.3711Y-2.1753
X5.3711Y-2.2285
X5.4046Y-2.1753
X5.4046Y-2.2285
X5.4381Y-2.1753
X5.4381Y-2.2285
X5.4715Y-2.1753
X5.4715Y-2.2285
X5.505Y-2.1753
X5.505Y-2.2285
X5.5385Y-2.1753
X5.5385Y-2.2285
T4
X5.435Y-2.7
X5.435Y-2.8
X5.435Y-2.9
X5.435Y-3.0
X5.435Y-3.1
T3
G00X5.2511Y-2.0726
M15
G01X5.2511Y-2.0411
M16
G05
G00X5.2511Y-2.2194
M15
G01X5.2511Y-2.1604
M16
G05
G00X5.5916Y-2.0726
M15
G01X5.5916Y-2.0411
M16
G05
G00X5.5916Y-2.2194
M15
G01X5.5916Y-2.1604
M16
G05
T0
M30
