%TF.GenerationSoftware,KiCad,Pcbnew,(6.0.1-0)*%
%TF.CreationDate,2022-02-08T22:41:07+01:00*%
%TF.ProjectId,muVox_programmer,6d75566f-785f-4707-926f-6772616d6d65,rev?*%
%TF.SameCoordinates,Original*%
%TF.FileFunction,Soldermask,Top*%
%TF.FilePolarity,Negative*%
%FSLAX46Y46*%
G04 Gerber Fmt 4.6, Leading zero omitted, Abs format (unit mm)*
G04 Created by KiCad (PCBNEW (6.0.1-0)) date 2022-02-08 22:41:07*
%MOMM*%
%LPD*%
G01*
G04 APERTURE LIST*
G04 Aperture macros list*
%AMRoundRect*
0 Rectangle with rounded corners*
0 $1 Rounding radius*
0 $2 $3 $4 $5 $6 $7 $8 $9 X,Y pos of 4 corners*
0 Add a 4 corners polygon primitive as box body*
4,1,4,$2,$3,$4,$5,$6,$7,$8,$9,$2,$3,0*
0 Add four circle primitives for the rounded corners*
1,1,$1+$1,$2,$3*
1,1,$1+$1,$4,$5*
1,1,$1+$1,$6,$7*
1,1,$1+$1,$8,$9*
0 Add four rect primitives between the rounded corners*
20,1,$1+$1,$2,$3,$4,$5,0*
20,1,$1+$1,$4,$5,$6,$7,0*
20,1,$1+$1,$6,$7,$8,$9,0*
20,1,$1+$1,$8,$9,$2,$3,0*%
G04 Aperture macros list end*
%ADD10C,0.400000*%
%ADD11RoundRect,0.150000X-0.150000X0.650000X-0.150000X-0.650000X0.150000X-0.650000X0.150000X0.650000X0*%
%ADD12C,0.700000*%
%ADD13O,0.900000X2.400000*%
%ADD14O,0.900000X1.700000*%
%ADD15R,0.650000X0.400000*%
%ADD16R,1.700000X1.700000*%
%ADD17O,1.700000X1.700000*%
%ADD18RoundRect,0.225000X0.250000X-0.225000X0.250000X0.225000X-0.250000X0.225000X-0.250000X-0.225000X0*%
%ADD19RoundRect,0.200000X0.275000X-0.200000X0.275000X0.200000X-0.275000X0.200000X-0.275000X-0.200000X0*%
%ADD20RoundRect,0.200000X0.200000X0.275000X-0.200000X0.275000X-0.200000X-0.275000X0.200000X-0.275000X0*%
%ADD21RoundRect,0.200000X-0.200000X-0.275000X0.200000X-0.275000X0.200000X0.275000X-0.200000X0.275000X0*%
G04 APERTURE END LIST*
D10*
X142520142Y-74163571D02*
X140620142Y-74163571D01*
X141524904Y-74973095D02*
X141343952Y-75054047D01*
X141253476Y-75215952D01*
X141524904Y-74163571D02*
X141343952Y-74244523D01*
X141253476Y-74406428D01*
X141253476Y-74730238D01*
X141343952Y-74892142D01*
X141524904Y-74973095D01*
X142520142Y-74973095D01*
X143153476Y-75701666D02*
X141253476Y-76268333D01*
X143153476Y-76835000D01*
X141253476Y-77644523D02*
X141343952Y-77482619D01*
X141434428Y-77401666D01*
X141615380Y-77320714D01*
X142158238Y-77320714D01*
X142339190Y-77401666D01*
X142429666Y-77482619D01*
X142520142Y-77644523D01*
X142520142Y-77887380D01*
X142429666Y-78049285D01*
X142339190Y-78130238D01*
X142158238Y-78211190D01*
X141615380Y-78211190D01*
X141434428Y-78130238D01*
X141343952Y-78049285D01*
X141253476Y-77887380D01*
X141253476Y-77644523D01*
X141253476Y-78777857D02*
X142520142Y-79668333D01*
X142520142Y-78777857D02*
X141253476Y-79668333D01*
D11*
%TO.C,U1*%
X142113000Y-58726000D03*
X140843000Y-58726000D03*
X139573000Y-58726000D03*
X138303000Y-58726000D03*
X137033000Y-58726000D03*
X135763000Y-58726000D03*
X134493000Y-58726000D03*
X133223000Y-58726000D03*
X133223000Y-65226000D03*
X134493000Y-65226000D03*
X135763000Y-65226000D03*
X137033000Y-65226000D03*
X138303000Y-65226000D03*
X139573000Y-65226000D03*
X140843000Y-65226000D03*
X142113000Y-65226000D03*
%TD*%
D12*
%TO.C,J1*%
X140677000Y-56603000D03*
X139827000Y-56603000D03*
X138977000Y-56603000D03*
X138127000Y-56603000D03*
X137277000Y-56603000D03*
X136427000Y-56603000D03*
X135577000Y-56603000D03*
X134727000Y-56603000D03*
X134727000Y-55253000D03*
X135577000Y-55253000D03*
X136427000Y-55253000D03*
X137277000Y-55253000D03*
X138127000Y-55253000D03*
X138977000Y-55253000D03*
X139827000Y-55253000D03*
X140677000Y-55253000D03*
D13*
X142027000Y-55623000D03*
D14*
X142027000Y-52243000D03*
X133377000Y-52243000D03*
D13*
X133377000Y-55623000D03*
%TD*%
D15*
%TO.C,Q1*%
X142492000Y-70804800D03*
X142492000Y-70154800D03*
X142492000Y-69504800D03*
X140592000Y-69504800D03*
X140592000Y-70154800D03*
X140592000Y-70804800D03*
%TD*%
D16*
%TO.C,J2*%
X138049000Y-78740000D03*
D17*
X138049000Y-76200000D03*
X138049000Y-73660000D03*
X138049000Y-71120000D03*
X138049000Y-68580000D03*
%TD*%
D18*
%TO.C,C2*%
X143865600Y-65595800D03*
X143865600Y-64045800D03*
%TD*%
D19*
%TO.C,R1*%
X131673600Y-57009800D03*
X131673600Y-55359800D03*
%TD*%
D18*
%TO.C,C1*%
X143764000Y-56896000D03*
X143764000Y-55346000D03*
%TD*%
D20*
%TO.C,R2*%
X142417800Y-67970400D03*
X140767800Y-67970400D03*
%TD*%
D21*
%TO.C,R3*%
X140717000Y-72390000D03*
X142367000Y-72390000D03*
%TD*%
M02*
