%TF.GenerationSoftware,KiCad,Pcbnew,(6.0.1-0)*%
%TF.CreationDate,2022-02-08T22:41:06+01:00*%
%TF.ProjectId,muVox_programmer,6d75566f-785f-4707-926f-6772616d6d65,rev?*%
%TF.SameCoordinates,Original*%
%TF.FileFunction,Copper,L1,Top*%
%TF.FilePolarity,Positive*%
%FSLAX46Y46*%
G04 Gerber Fmt 4.6, Leading zero omitted, Abs format (unit mm)*
G04 Created by KiCad (PCBNEW (6.0.1-0)) date 2022-02-08 22:41:06*
%MOMM*%
%LPD*%
G01*
G04 APERTURE LIST*
G04 Aperture macros list*
%AMRoundRect*
0 Rectangle with rounded corners*
0 $1 Rounding radius*
0 $2 $3 $4 $5 $6 $7 $8 $9 X,Y pos of 4 corners*
0 Add a 4 corners polygon primitive as box body*
4,1,4,$2,$3,$4,$5,$6,$7,$8,$9,$2,$3,0*
0 Add four circle primitives for the rounded corners*
1,1,$1+$1,$2,$3*
1,1,$1+$1,$4,$5*
1,1,$1+$1,$6,$7*
1,1,$1+$1,$8,$9*
0 Add four rect primitives between the rounded corners*
20,1,$1+$1,$2,$3,$4,$5,0*
20,1,$1+$1,$4,$5,$6,$7,0*
20,1,$1+$1,$6,$7,$8,$9,0*
20,1,$1+$1,$8,$9,$2,$3,0*%
G04 Aperture macros list end*
%TA.AperFunction,SMDPad,CuDef*%
%ADD10RoundRect,0.150000X-0.150000X0.650000X-0.150000X-0.650000X0.150000X-0.650000X0.150000X0.650000X0*%
%TD*%
%TA.AperFunction,ComponentPad*%
%ADD11C,0.700000*%
%TD*%
%TA.AperFunction,ComponentPad*%
%ADD12O,0.900000X2.400000*%
%TD*%
%TA.AperFunction,ComponentPad*%
%ADD13O,0.900000X1.700000*%
%TD*%
%TA.AperFunction,SMDPad,CuDef*%
%ADD14R,0.650000X0.400000*%
%TD*%
%TA.AperFunction,ComponentPad*%
%ADD15R,1.700000X1.700000*%
%TD*%
%TA.AperFunction,ComponentPad*%
%ADD16O,1.700000X1.700000*%
%TD*%
%TA.AperFunction,SMDPad,CuDef*%
%ADD17RoundRect,0.225000X0.250000X-0.225000X0.250000X0.225000X-0.250000X0.225000X-0.250000X-0.225000X0*%
%TD*%
%TA.AperFunction,SMDPad,CuDef*%
%ADD18RoundRect,0.200000X0.275000X-0.200000X0.275000X0.200000X-0.275000X0.200000X-0.275000X-0.200000X0*%
%TD*%
%TA.AperFunction,SMDPad,CuDef*%
%ADD19RoundRect,0.200000X0.200000X0.275000X-0.200000X0.275000X-0.200000X-0.275000X0.200000X-0.275000X0*%
%TD*%
%TA.AperFunction,SMDPad,CuDef*%
%ADD20RoundRect,0.200000X-0.200000X-0.275000X0.200000X-0.275000X0.200000X0.275000X-0.200000X0.275000X0*%
%TD*%
%TA.AperFunction,ViaPad*%
%ADD21C,0.800000*%
%TD*%
%TA.AperFunction,Conductor*%
%ADD22C,0.250000*%
%TD*%
%TA.AperFunction,Conductor*%
%ADD23C,0.400000*%
%TD*%
%TA.AperFunction,Conductor*%
%ADD24C,0.200000*%
%TD*%
G04 APERTURE END LIST*
D10*
%TO.P,U1,1,GND*%
%TO.N,GND*%
X142113000Y-58726000D03*
%TO.P,U1,2,TXD*%
%TO.N,TXD*%
X140843000Y-58726000D03*
%TO.P,U1,3,RXD*%
%TO.N,RXD*%
X139573000Y-58726000D03*
%TO.P,U1,4,V3*%
%TO.N,Net-(C1-Pad1)*%
X138303000Y-58726000D03*
%TO.P,U1,5,UD+*%
%TO.N,USB_D+*%
X137033000Y-58726000D03*
%TO.P,U1,6,UD-*%
%TO.N,USB_D-*%
X135763000Y-58726000D03*
%TO.P,U1,7,NC.*%
%TO.N,unconnected-(U1-Pad7)*%
X134493000Y-58726000D03*
%TO.P,U1,8,OUT#*%
%TO.N,unconnected-(U1-Pad8)*%
X133223000Y-58726000D03*
%TO.P,U1,9,CTS*%
%TO.N,unconnected-(U1-Pad9)*%
X133223000Y-65226000D03*
%TO.P,U1,10,DSR*%
%TO.N,unconnected-(U1-Pad10)*%
X134493000Y-65226000D03*
%TO.P,U1,11,RI*%
%TO.N,unconnected-(U1-Pad11)*%
X135763000Y-65226000D03*
%TO.P,U1,12,DCD*%
%TO.N,unconnected-(U1-Pad12)*%
X137033000Y-65226000D03*
%TO.P,U1,13,DTR*%
%TO.N,DTR*%
X138303000Y-65226000D03*
%TO.P,U1,14,RTS*%
%TO.N,RTS*%
X139573000Y-65226000D03*
%TO.P,U1,15,R232*%
%TO.N,unconnected-(U1-Pad15)*%
X140843000Y-65226000D03*
%TO.P,U1,16,VCC*%
%TO.N,USB_VBUS*%
X142113000Y-65226000D03*
%TD*%
D11*
%TO.P,J1,A1,GND*%
%TO.N,GND*%
X140677000Y-56603000D03*
%TO.P,J1,A4,VBUS*%
%TO.N,USB_VBUS*%
X139827000Y-56603000D03*
%TO.P,J1,A5,CC1*%
%TO.N,Net-(J1-PadA5)*%
X138977000Y-56603000D03*
%TO.P,J1,A6,D+*%
%TO.N,USB_D+*%
X138127000Y-56603000D03*
%TO.P,J1,A7,D-*%
%TO.N,USB_D-*%
X137277000Y-56603000D03*
%TO.P,J1,A8,SBU1*%
%TO.N,unconnected-(J1-PadA8)*%
X136427000Y-56603000D03*
%TO.P,J1,A9,VBUS*%
%TO.N,USB_VBUS*%
X135577000Y-56603000D03*
%TO.P,J1,A12,GND*%
%TO.N,GND*%
X134727000Y-56603000D03*
%TO.P,J1,B1,GND*%
X134727000Y-55253000D03*
%TO.P,J1,B4,VBUS*%
%TO.N,USB_VBUS*%
X135577000Y-55253000D03*
%TO.P,J1,B5,CC2*%
%TO.N,Net-(J1-PadA5)*%
X136427000Y-55253000D03*
%TO.P,J1,B6,D+*%
%TO.N,USB_D+*%
X137277000Y-55253000D03*
%TO.P,J1,B7,D-*%
%TO.N,USB_D-*%
X138127000Y-55253000D03*
%TO.P,J1,B8,SBU2*%
%TO.N,unconnected-(J1-PadB8)*%
X138977000Y-55253000D03*
%TO.P,J1,B9,VBUS*%
%TO.N,USB_VBUS*%
X139827000Y-55253000D03*
%TO.P,J1,B12,GND*%
%TO.N,GND*%
X140677000Y-55253000D03*
D12*
%TO.P,J1,S1,SHIELD*%
X142027000Y-55623000D03*
D13*
X142027000Y-52243000D03*
X133377000Y-52243000D03*
D12*
X133377000Y-55623000D03*
%TD*%
D14*
%TO.P,Q1,1,E1*%
%TO.N,RTS*%
X142492000Y-70804800D03*
%TO.P,Q1,2,B1*%
%TO.N,Net-(Q1-Pad2)*%
X142492000Y-70154800D03*
%TO.P,Q1,3,C2*%
%TO.N,GPIO0*%
X142492000Y-69504800D03*
%TO.P,Q1,4,E2*%
%TO.N,DTR*%
X140592000Y-69504800D03*
%TO.P,Q1,5,B2*%
%TO.N,Net-(Q1-Pad5)*%
X140592000Y-70154800D03*
%TO.P,Q1,6,C1*%
%TO.N,CHIP_PU*%
X140592000Y-70804800D03*
%TD*%
D15*
%TO.P,J2,1,Pin_1*%
%TO.N,GND*%
X138049000Y-78740000D03*
D16*
%TO.P,J2,2,Pin_2*%
%TO.N,CHIP_PU*%
X138049000Y-76200000D03*
%TO.P,J2,3,Pin_3*%
%TO.N,GPIO0*%
X138049000Y-73660000D03*
%TO.P,J2,4,Pin_4*%
%TO.N,RXD*%
X138049000Y-71120000D03*
%TO.P,J2,5,Pin_5*%
%TO.N,TXD*%
X138049000Y-68580000D03*
%TD*%
D17*
%TO.P,C2,1,1*%
%TO.N,USB_VBUS*%
X143865600Y-65595800D03*
%TO.P,C2,2,2*%
%TO.N,GND*%
X143865600Y-64045800D03*
%TD*%
D18*
%TO.P,R1,1*%
%TO.N,GND*%
X131673600Y-57009800D03*
%TO.P,R1,2*%
%TO.N,Net-(J1-PadA5)*%
X131673600Y-55359800D03*
%TD*%
D17*
%TO.P,C1,1,1*%
%TO.N,Net-(C1-Pad1)*%
X143764000Y-56896000D03*
%TO.P,C1,2,2*%
%TO.N,GND*%
X143764000Y-55346000D03*
%TD*%
D19*
%TO.P,R2,1*%
%TO.N,Net-(Q1-Pad2)*%
X142417800Y-67970400D03*
%TO.P,R2,2*%
%TO.N,DTR*%
X140767800Y-67970400D03*
%TD*%
D20*
%TO.P,R3,1*%
%TO.N,Net-(Q1-Pad5)*%
X140717000Y-72390000D03*
%TO.P,R3,2*%
%TO.N,RTS*%
X142367000Y-72390000D03*
%TD*%
D21*
%TO.N,GND*%
X142113000Y-58039000D03*
X142875000Y-62103000D03*
X133096000Y-62103000D03*
X136017000Y-62103000D03*
X137414000Y-62103000D03*
X143637000Y-52197000D03*
X131699000Y-52451000D03*
X134493000Y-62103000D03*
%TO.N,USB_VBUS*%
X142113000Y-60706000D03*
%TO.N,Net-(J1-PadA5)*%
X134416800Y-53797200D03*
X135159029Y-57479627D03*
%TO.N,TXD*%
X140843000Y-63119000D03*
%TO.N,RXD*%
X139573000Y-63119000D03*
%TO.N,GPIO0*%
X133223000Y-73660000D03*
X143624800Y-68935600D03*
%TO.N,CHIP_PU*%
X139948011Y-71501000D03*
%TD*%
D22*
%TO.N,GND*%
X134727000Y-55253000D02*
X133747000Y-55253000D01*
X140677000Y-55253000D02*
X141657000Y-55253000D01*
X141657000Y-55253000D02*
X142027000Y-55623000D01*
X140677000Y-56603000D02*
X140677000Y-55253000D01*
X133747000Y-55253000D02*
X133377000Y-55623000D01*
X140677000Y-55253000D02*
X140677000Y-53633000D01*
X134727000Y-56603000D02*
X134727000Y-55253000D01*
%TO.N,USB_VBUS*%
X135577000Y-54195000D02*
X136178000Y-53594000D01*
X135577000Y-55253000D02*
X135577000Y-54195000D01*
X139827000Y-55253000D02*
X139827000Y-56603000D01*
X142113000Y-60706000D02*
X142113000Y-65226000D01*
D23*
X142482800Y-65595800D02*
X142113000Y-65226000D01*
D22*
X135577000Y-55253000D02*
X135577000Y-56603000D01*
X139827000Y-54068000D02*
X139827000Y-55253000D01*
X139353000Y-53594000D02*
X139827000Y-54068000D01*
D23*
X143865600Y-65595800D02*
X142482800Y-65595800D01*
D22*
X136178000Y-53594000D02*
X139353000Y-53594000D01*
%TO.N,Net-(J1-PadA5)*%
X135159029Y-57479627D02*
X133360210Y-57479627D01*
X133236200Y-53797200D02*
X134416800Y-53797200D01*
X131673600Y-55793017D02*
X131673600Y-55359800D01*
X131673600Y-55359800D02*
X133236200Y-53797200D01*
X133360210Y-57479627D02*
X131673600Y-55793017D01*
D24*
%TO.N,USB_D+*%
X138127000Y-56603000D02*
X138127000Y-57097974D01*
X137033000Y-58166000D02*
X138127000Y-57072000D01*
X137033000Y-58726000D02*
X137033000Y-58166000D01*
X138127000Y-57072000D02*
X138127000Y-56603000D01*
%TO.N,USB_D-*%
X135763000Y-58726000D02*
X135763000Y-58039000D01*
D22*
X137277000Y-56603000D02*
X137277000Y-56813000D01*
D24*
X135763000Y-58039000D02*
X136271000Y-57531000D01*
X136843974Y-57531000D02*
X137277000Y-57097974D01*
X136271000Y-57531000D02*
X136843974Y-57531000D01*
D22*
X138127000Y-55253000D02*
X138127000Y-55649096D01*
D24*
X137277000Y-57097974D02*
X137277000Y-56603000D01*
D22*
X138127000Y-55649096D02*
X137277000Y-56499096D01*
X137277000Y-56499096D02*
X137277000Y-56603000D01*
%TO.N,TXD*%
X140843000Y-58726000D02*
X140843000Y-63119000D01*
%TO.N,RXD*%
X139573000Y-58726000D02*
X139573000Y-63119000D01*
%TO.N,GPIO0*%
X142492000Y-69504800D02*
X143055600Y-69504800D01*
X143055600Y-69504800D02*
X143624800Y-68935600D01*
X138049000Y-73660000D02*
X133223000Y-73660000D01*
%TO.N,CHIP_PU*%
X140592000Y-70804800D02*
X140015200Y-70804800D01*
X139700000Y-71252989D02*
X139948011Y-71501000D01*
X139700000Y-71120000D02*
X139700000Y-71252989D01*
X140015200Y-70804800D02*
X139700000Y-71120000D01*
%TO.N,RTS*%
X143269200Y-72186800D02*
X143066000Y-72390000D01*
X139573000Y-65226000D02*
X139573000Y-65709800D01*
X143055600Y-70804800D02*
X143269200Y-71018400D01*
X143066000Y-72390000D02*
X142367000Y-72390000D01*
X141643600Y-70307200D02*
X142141200Y-70804800D01*
X139573000Y-65427072D02*
X141643600Y-67497672D01*
X142141200Y-70804800D02*
X142492000Y-70804800D01*
X143269200Y-71018400D02*
X143269200Y-72186800D01*
X142492000Y-70804800D02*
X143055600Y-70804800D01*
X141643600Y-67497672D02*
X141643600Y-70307200D01*
X139573000Y-65226000D02*
X139573000Y-65427072D01*
%TO.N,Net-(Q1-Pad2)*%
X142492000Y-70154800D02*
X143675600Y-70154800D01*
X144488400Y-69342000D02*
X144488400Y-68529200D01*
X143929600Y-67970400D02*
X142417800Y-67970400D01*
X143675600Y-70154800D02*
X144488400Y-69342000D01*
X144488400Y-68529200D02*
X143929600Y-67970400D01*
%TO.N,DTR*%
X138303000Y-65226000D02*
X138303000Y-65505600D01*
X138303000Y-65505600D02*
X140767800Y-67970400D01*
X140767800Y-69329000D02*
X140592000Y-69504800D01*
X138303000Y-65226000D02*
X138303000Y-65772800D01*
X140767800Y-67970400D02*
X140767800Y-69329000D01*
%TO.N,Net-(Q1-Pad5)*%
X139700000Y-72390000D02*
X140717000Y-72390000D01*
X140592000Y-70154800D02*
X139903200Y-70154800D01*
X139223511Y-71913511D02*
X139700000Y-72390000D01*
X139223511Y-70834489D02*
X139223511Y-71913511D01*
X139903200Y-70154800D02*
X139223511Y-70834489D01*
%TO.N,Net-(C1-Pad1)*%
X138303000Y-58039000D02*
X139064489Y-57277511D01*
X139064489Y-57277511D02*
X143382489Y-57277511D01*
X143382489Y-57277511D02*
X143764000Y-56896000D01*
X138303000Y-58726000D02*
X138303000Y-58039000D01*
%TD*%
%TA.AperFunction,Conductor*%
%TO.N,GND*%
G36*
X131756409Y-56775802D02*
G01*
X131777384Y-56792705D01*
X131890696Y-56906018D01*
X131924721Y-56968330D01*
X131927600Y-56995113D01*
X131927600Y-57899684D01*
X131932075Y-57914923D01*
X131933465Y-57916128D01*
X131941148Y-57917799D01*
X132002305Y-57917799D01*
X132008054Y-57917536D01*
X132071915Y-57911668D01*
X132084951Y-57909057D01*
X132234840Y-57862086D01*
X132238972Y-57860220D01*
X132309289Y-57850419D01*
X132373743Y-57880190D01*
X132411869Y-57940080D01*
X132416432Y-57984947D01*
X132414694Y-58007024D01*
X132414693Y-58007042D01*
X132414500Y-58009498D01*
X132414500Y-59442502D01*
X132414693Y-59444950D01*
X132414693Y-59444958D01*
X132416927Y-59473333D01*
X132417438Y-59479831D01*
X132419233Y-59486008D01*
X132461586Y-59631790D01*
X132463855Y-59639601D01*
X132467892Y-59646427D01*
X132544509Y-59775980D01*
X132544511Y-59775983D01*
X132548547Y-59782807D01*
X132666193Y-59900453D01*
X132673017Y-59904489D01*
X132673020Y-59904491D01*
X132747116Y-59948311D01*
X132809399Y-59985145D01*
X132817010Y-59987356D01*
X132817012Y-59987357D01*
X132869231Y-60002528D01*
X132969169Y-60031562D01*
X132975574Y-60032066D01*
X132975579Y-60032067D01*
X133004042Y-60034307D01*
X133004050Y-60034307D01*
X133006498Y-60034500D01*
X133439502Y-60034500D01*
X133441950Y-60034307D01*
X133441958Y-60034307D01*
X133470421Y-60032067D01*
X133470426Y-60032066D01*
X133476831Y-60031562D01*
X133576769Y-60002528D01*
X133628988Y-59987357D01*
X133628990Y-59987356D01*
X133636601Y-59985145D01*
X133779807Y-59900453D01*
X133782489Y-59897771D01*
X133846861Y-59872498D01*
X133916484Y-59886400D01*
X133932312Y-59896572D01*
X133936193Y-59900453D01*
X134079399Y-59985145D01*
X134087010Y-59987356D01*
X134087012Y-59987357D01*
X134139231Y-60002528D01*
X134239169Y-60031562D01*
X134245574Y-60032066D01*
X134245579Y-60032067D01*
X134274042Y-60034307D01*
X134274050Y-60034307D01*
X134276498Y-60034500D01*
X134709502Y-60034500D01*
X134711950Y-60034307D01*
X134711958Y-60034307D01*
X134740421Y-60032067D01*
X134740426Y-60032066D01*
X134746831Y-60031562D01*
X134846769Y-60002528D01*
X134898988Y-59987357D01*
X134898990Y-59987356D01*
X134906601Y-59985145D01*
X135049807Y-59900453D01*
X135052489Y-59897771D01*
X135116861Y-59872498D01*
X135186484Y-59886400D01*
X135202312Y-59896572D01*
X135206193Y-59900453D01*
X135349399Y-59985145D01*
X135357010Y-59987356D01*
X135357012Y-59987357D01*
X135409231Y-60002528D01*
X135509169Y-60031562D01*
X135515574Y-60032066D01*
X135515579Y-60032067D01*
X135544042Y-60034307D01*
X135544050Y-60034307D01*
X135546498Y-60034500D01*
X135979502Y-60034500D01*
X135981950Y-60034307D01*
X135981958Y-60034307D01*
X136010421Y-60032067D01*
X136010426Y-60032066D01*
X136016831Y-60031562D01*
X136116769Y-60002528D01*
X136168988Y-59987357D01*
X136168990Y-59987356D01*
X136176601Y-59985145D01*
X136319807Y-59900453D01*
X136322489Y-59897771D01*
X136386861Y-59872498D01*
X136456484Y-59886400D01*
X136472312Y-59896572D01*
X136476193Y-59900453D01*
X136619399Y-59985145D01*
X136627010Y-59987356D01*
X136627012Y-59987357D01*
X136679231Y-60002528D01*
X136779169Y-60031562D01*
X136785574Y-60032066D01*
X136785579Y-60032067D01*
X136814042Y-60034307D01*
X136814050Y-60034307D01*
X136816498Y-60034500D01*
X137249502Y-60034500D01*
X137251950Y-60034307D01*
X137251958Y-60034307D01*
X137280421Y-60032067D01*
X137280426Y-60032066D01*
X137286831Y-60031562D01*
X137386769Y-60002528D01*
X137438988Y-59987357D01*
X137438990Y-59987356D01*
X137446601Y-59985145D01*
X137589807Y-59900453D01*
X137592489Y-59897771D01*
X137656861Y-59872498D01*
X137726484Y-59886400D01*
X137742312Y-59896572D01*
X137746193Y-59900453D01*
X137889399Y-59985145D01*
X137897010Y-59987356D01*
X137897012Y-59987357D01*
X137949231Y-60002528D01*
X138049169Y-60031562D01*
X138055574Y-60032066D01*
X138055579Y-60032067D01*
X138084042Y-60034307D01*
X138084050Y-60034307D01*
X138086498Y-60034500D01*
X138519502Y-60034500D01*
X138521950Y-60034307D01*
X138521958Y-60034307D01*
X138550421Y-60032067D01*
X138550426Y-60032066D01*
X138556831Y-60031562D01*
X138656769Y-60002528D01*
X138708988Y-59987357D01*
X138708990Y-59987356D01*
X138716601Y-59985145D01*
X138749363Y-59965769D01*
X138818178Y-59948311D01*
X138885509Y-59970828D01*
X138929978Y-60026173D01*
X138939500Y-60074224D01*
X138939500Y-62416476D01*
X138919498Y-62484597D01*
X138907142Y-62500779D01*
X138833960Y-62582056D01*
X138738473Y-62747444D01*
X138679458Y-62929072D01*
X138659496Y-63119000D01*
X138679458Y-63308928D01*
X138738473Y-63490556D01*
X138833960Y-63655944D01*
X138961747Y-63797866D01*
X138979223Y-63810563D01*
X139023802Y-63842952D01*
X139067156Y-63899175D01*
X139073231Y-63969911D01*
X139040099Y-64032703D01*
X139026966Y-64044449D01*
X139023021Y-64047509D01*
X139016193Y-64051547D01*
X139013511Y-64054229D01*
X138949139Y-64079502D01*
X138879517Y-64065600D01*
X138863688Y-64055428D01*
X138859807Y-64051547D01*
X138716601Y-63966855D01*
X138708990Y-63964644D01*
X138708988Y-63964643D01*
X138656769Y-63949472D01*
X138556831Y-63920438D01*
X138550426Y-63919934D01*
X138550421Y-63919933D01*
X138521958Y-63917693D01*
X138521950Y-63917693D01*
X138519502Y-63917500D01*
X138086498Y-63917500D01*
X138084050Y-63917693D01*
X138084042Y-63917693D01*
X138055579Y-63919933D01*
X138055574Y-63919934D01*
X138049169Y-63920438D01*
X137949231Y-63949472D01*
X137897012Y-63964643D01*
X137897010Y-63964644D01*
X137889399Y-63966855D01*
X137746193Y-64051547D01*
X137743511Y-64054229D01*
X137679139Y-64079502D01*
X137609516Y-64065600D01*
X137593688Y-64055428D01*
X137589807Y-64051547D01*
X137446601Y-63966855D01*
X137438990Y-63964644D01*
X137438988Y-63964643D01*
X137386769Y-63949472D01*
X137286831Y-63920438D01*
X137280426Y-63919934D01*
X137280421Y-63919933D01*
X137251958Y-63917693D01*
X137251950Y-63917693D01*
X137249502Y-63917500D01*
X136816498Y-63917500D01*
X136814050Y-63917693D01*
X136814042Y-63917693D01*
X136785579Y-63919933D01*
X136785574Y-63919934D01*
X136779169Y-63920438D01*
X136679231Y-63949472D01*
X136627012Y-63964643D01*
X136627010Y-63964644D01*
X136619399Y-63966855D01*
X136476193Y-64051547D01*
X136473511Y-64054229D01*
X136409139Y-64079502D01*
X136339516Y-64065600D01*
X136323688Y-64055428D01*
X136319807Y-64051547D01*
X136176601Y-63966855D01*
X136168990Y-63964644D01*
X136168988Y-63964643D01*
X136116769Y-63949472D01*
X136016831Y-63920438D01*
X136010426Y-63919934D01*
X136010421Y-63919933D01*
X135981958Y-63917693D01*
X135981950Y-63917693D01*
X135979502Y-63917500D01*
X135546498Y-63917500D01*
X135544050Y-63917693D01*
X135544042Y-63917693D01*
X135515579Y-63919933D01*
X135515574Y-63919934D01*
X135509169Y-63920438D01*
X135409231Y-63949472D01*
X135357012Y-63964643D01*
X135357010Y-63964644D01*
X135349399Y-63966855D01*
X135206193Y-64051547D01*
X135203511Y-64054229D01*
X135139139Y-64079502D01*
X135069516Y-64065600D01*
X135053688Y-64055428D01*
X135049807Y-64051547D01*
X134906601Y-63966855D01*
X134898990Y-63964644D01*
X134898988Y-63964643D01*
X134846769Y-63949472D01*
X134746831Y-63920438D01*
X134740426Y-63919934D01*
X134740421Y-63919933D01*
X134711958Y-63917693D01*
X134711950Y-63917693D01*
X134709502Y-63917500D01*
X134276498Y-63917500D01*
X134274050Y-63917693D01*
X134274042Y-63917693D01*
X134245579Y-63919933D01*
X134245574Y-63919934D01*
X134239169Y-63920438D01*
X134139231Y-63949472D01*
X134087012Y-63964643D01*
X134087010Y-63964644D01*
X134079399Y-63966855D01*
X133936193Y-64051547D01*
X133933511Y-64054229D01*
X133869139Y-64079502D01*
X133799516Y-64065600D01*
X133783688Y-64055428D01*
X133779807Y-64051547D01*
X133636601Y-63966855D01*
X133628990Y-63964644D01*
X133628988Y-63964643D01*
X133576769Y-63949472D01*
X133476831Y-63920438D01*
X133470426Y-63919934D01*
X133470421Y-63919933D01*
X133441958Y-63917693D01*
X133441950Y-63917693D01*
X133439502Y-63917500D01*
X133006498Y-63917500D01*
X133004050Y-63917693D01*
X133004042Y-63917693D01*
X132975579Y-63919933D01*
X132975574Y-63919934D01*
X132969169Y-63920438D01*
X132869231Y-63949472D01*
X132817012Y-63964643D01*
X132817010Y-63964644D01*
X132809399Y-63966855D01*
X132802572Y-63970892D01*
X132802573Y-63970892D01*
X132673020Y-64047509D01*
X132673017Y-64047511D01*
X132666193Y-64051547D01*
X132548547Y-64169193D01*
X132544511Y-64176017D01*
X132544509Y-64176020D01*
X132483135Y-64279798D01*
X132463855Y-64312399D01*
X132417438Y-64472169D01*
X132414500Y-64509498D01*
X132414500Y-65942502D01*
X132417438Y-65979831D01*
X132463855Y-66139601D01*
X132467892Y-66146427D01*
X132544509Y-66275980D01*
X132544511Y-66275983D01*
X132548547Y-66282807D01*
X132666193Y-66400453D01*
X132673017Y-66404489D01*
X132673020Y-66404491D01*
X132780589Y-66468107D01*
X132809399Y-66485145D01*
X132817010Y-66487356D01*
X132817012Y-66487357D01*
X132869231Y-66502528D01*
X132969169Y-66531562D01*
X132975574Y-66532066D01*
X132975579Y-66532067D01*
X133004042Y-66534307D01*
X133004050Y-66534307D01*
X133006498Y-66534500D01*
X133439502Y-66534500D01*
X133441950Y-66534307D01*
X133441958Y-66534307D01*
X133470421Y-66532067D01*
X133470426Y-66532066D01*
X133476831Y-66531562D01*
X133576769Y-66502528D01*
X133628988Y-66487357D01*
X133628990Y-66487356D01*
X133636601Y-66485145D01*
X133779807Y-66400453D01*
X133782489Y-66397771D01*
X133846861Y-66372498D01*
X133916484Y-66386400D01*
X133932312Y-66396572D01*
X133936193Y-66400453D01*
X134079399Y-66485145D01*
X134087010Y-66487356D01*
X134087012Y-66487357D01*
X134139231Y-66502528D01*
X134239169Y-66531562D01*
X134245574Y-66532066D01*
X134245579Y-66532067D01*
X134274042Y-66534307D01*
X134274050Y-66534307D01*
X134276498Y-66534500D01*
X134709502Y-66534500D01*
X134711950Y-66534307D01*
X134711958Y-66534307D01*
X134740421Y-66532067D01*
X134740426Y-66532066D01*
X134746831Y-66531562D01*
X134846769Y-66502528D01*
X134898988Y-66487357D01*
X134898990Y-66487356D01*
X134906601Y-66485145D01*
X135049807Y-66400453D01*
X135052489Y-66397771D01*
X135116861Y-66372498D01*
X135186484Y-66386400D01*
X135202312Y-66396572D01*
X135206193Y-66400453D01*
X135349399Y-66485145D01*
X135357010Y-66487356D01*
X135357012Y-66487357D01*
X135409231Y-66502528D01*
X135509169Y-66531562D01*
X135515574Y-66532066D01*
X135515579Y-66532067D01*
X135544042Y-66534307D01*
X135544050Y-66534307D01*
X135546498Y-66534500D01*
X135979502Y-66534500D01*
X135981950Y-66534307D01*
X135981958Y-66534307D01*
X136010421Y-66532067D01*
X136010426Y-66532066D01*
X136016831Y-66531562D01*
X136116769Y-66502528D01*
X136168988Y-66487357D01*
X136168990Y-66487356D01*
X136176601Y-66485145D01*
X136319807Y-66400453D01*
X136322489Y-66397771D01*
X136386861Y-66372498D01*
X136456484Y-66386400D01*
X136472312Y-66396572D01*
X136476193Y-66400453D01*
X136619399Y-66485145D01*
X136627010Y-66487356D01*
X136627012Y-66487357D01*
X136679231Y-66502528D01*
X136779169Y-66531562D01*
X136785574Y-66532066D01*
X136785579Y-66532067D01*
X136814042Y-66534307D01*
X136814050Y-66534307D01*
X136816498Y-66534500D01*
X137249502Y-66534500D01*
X137251950Y-66534307D01*
X137251958Y-66534307D01*
X137280421Y-66532067D01*
X137280426Y-66532066D01*
X137286831Y-66531562D01*
X137386769Y-66502528D01*
X137438988Y-66487357D01*
X137438990Y-66487356D01*
X137446601Y-66485145D01*
X137589807Y-66400453D01*
X137592489Y-66397771D01*
X137656861Y-66372498D01*
X137726484Y-66386400D01*
X137742312Y-66396572D01*
X137746193Y-66400453D01*
X137889399Y-66485145D01*
X137897010Y-66487356D01*
X137897012Y-66487357D01*
X137949231Y-66502528D01*
X138049169Y-66531562D01*
X138055574Y-66532066D01*
X138055579Y-66532067D01*
X138084042Y-66534307D01*
X138084050Y-66534307D01*
X138086498Y-66534500D01*
X138383806Y-66534500D01*
X138451927Y-66554502D01*
X138472901Y-66571405D01*
X139822395Y-67920899D01*
X139856421Y-67983211D01*
X139859300Y-68009994D01*
X139859301Y-68284014D01*
X139859301Y-68302034D01*
X139859564Y-68304892D01*
X139859564Y-68304901D01*
X139861371Y-68324570D01*
X139866047Y-68375462D01*
X139917328Y-68539099D01*
X140006161Y-68685781D01*
X140011537Y-68691157D01*
X140015831Y-68696633D01*
X140042125Y-68762581D01*
X140028591Y-68832276D01*
X139992244Y-68875208D01*
X139903739Y-68941539D01*
X139816385Y-69058095D01*
X139765255Y-69194484D01*
X139758500Y-69256666D01*
X139758500Y-69442542D01*
X139738498Y-69510663D01*
X139684842Y-69557156D01*
X139667657Y-69563538D01*
X139649606Y-69568782D01*
X139642787Y-69572815D01*
X139642782Y-69572817D01*
X139632171Y-69579093D01*
X139614421Y-69587790D01*
X139595583Y-69595248D01*
X139589167Y-69599909D01*
X139589166Y-69599910D01*
X139559825Y-69621228D01*
X139549901Y-69627747D01*
X139518660Y-69646222D01*
X139518655Y-69646226D01*
X139511837Y-69650258D01*
X139497513Y-69664582D01*
X139482481Y-69677421D01*
X139466093Y-69689328D01*
X139437912Y-69723393D01*
X139429922Y-69732173D01*
X139091645Y-70070450D01*
X139029333Y-70104476D01*
X138958518Y-70099411D01*
X138924462Y-70080240D01*
X138803359Y-69984598D01*
X138762053Y-69961796D01*
X138712084Y-69911364D01*
X138697312Y-69841921D01*
X138722428Y-69775516D01*
X138749780Y-69748909D01*
X138793603Y-69717650D01*
X138928860Y-69621173D01*
X138950198Y-69599910D01*
X139083435Y-69467137D01*
X139087096Y-69463489D01*
X139146594Y-69380689D01*
X139214435Y-69286277D01*
X139217453Y-69282077D01*
X139316430Y-69081811D01*
X139381370Y-68868069D01*
X139410529Y-68646590D01*
X139412156Y-68580000D01*
X139393852Y-68357361D01*
X139339431Y-68140702D01*
X139250354Y-67935840D01*
X139129014Y-67748277D01*
X138978670Y-67583051D01*
X138974619Y-67579852D01*
X138974615Y-67579848D01*
X138807414Y-67447800D01*
X138807410Y-67447798D01*
X138803359Y-67444598D01*
X138784616Y-67434251D01*
X138724140Y-67400867D01*
X138607789Y-67336638D01*
X138602920Y-67334914D01*
X138602916Y-67334912D01*
X138402087Y-67263795D01*
X138402083Y-67263794D01*
X138397212Y-67262069D01*
X138392119Y-67261162D01*
X138392116Y-67261161D01*
X138182373Y-67223800D01*
X138182367Y-67223799D01*
X138177284Y-67222894D01*
X138103452Y-67221992D01*
X137959081Y-67220228D01*
X137959079Y-67220228D01*
X137953911Y-67220165D01*
X137733091Y-67253955D01*
X137520756Y-67323357D01*
X137322607Y-67426507D01*
X137318474Y-67429610D01*
X137318471Y-67429612D01*
X137294247Y-67447800D01*
X137143965Y-67560635D01*
X136989629Y-67722138D01*
X136863743Y-67906680D01*
X136769688Y-68109305D01*
X136709989Y-68324570D01*
X136686251Y-68546695D01*
X136686548Y-68551848D01*
X136686548Y-68551851D01*
X136692011Y-68646590D01*
X136699110Y-68769715D01*
X136700247Y-68774761D01*
X136700248Y-68774767D01*
X136713209Y-68832276D01*
X136748222Y-68987639D01*
X136832266Y-69194616D01*
X136948987Y-69385088D01*
X137095250Y-69553938D01*
X137267126Y-69696632D01*
X137312922Y-69723393D01*
X137340445Y-69739476D01*
X137389169Y-69791114D01*
X137402240Y-69860897D01*
X137375509Y-69926669D01*
X137335055Y-69960027D01*
X137322607Y-69966507D01*
X137318474Y-69969610D01*
X137318471Y-69969612D01*
X137148100Y-70097530D01*
X137143965Y-70100635D01*
X136989629Y-70262138D01*
X136863743Y-70446680D01*
X136861564Y-70451375D01*
X136783165Y-70620272D01*
X136769688Y-70649305D01*
X136709989Y-70864570D01*
X136686251Y-71086695D01*
X136686548Y-71091848D01*
X136686548Y-71091851D01*
X136697593Y-71283412D01*
X136699110Y-71309715D01*
X136700247Y-71314761D01*
X136700248Y-71314767D01*
X136705594Y-71338486D01*
X136748222Y-71527639D01*
X136832266Y-71734616D01*
X136948987Y-71925088D01*
X137095250Y-72093938D01*
X137267126Y-72236632D01*
X137305235Y-72258901D01*
X137340445Y-72279476D01*
X137389169Y-72331114D01*
X137402240Y-72400897D01*
X137375509Y-72466669D01*
X137335055Y-72500027D01*
X137322607Y-72506507D01*
X137318474Y-72509610D01*
X137318471Y-72509612D01*
X137189335Y-72606570D01*
X137143965Y-72640635D01*
X137140393Y-72644373D01*
X137002667Y-72788495D01*
X136989629Y-72802138D01*
X136986715Y-72806410D01*
X136986714Y-72806411D01*
X136874095Y-72971504D01*
X136819184Y-73016507D01*
X136770007Y-73026500D01*
X133931200Y-73026500D01*
X133863079Y-73006498D01*
X133843853Y-72990157D01*
X133843580Y-72990460D01*
X133838668Y-72986037D01*
X133834253Y-72981134D01*
X133784368Y-72944890D01*
X133685094Y-72872763D01*
X133685093Y-72872762D01*
X133679752Y-72868882D01*
X133673724Y-72866198D01*
X133673722Y-72866197D01*
X133511319Y-72793891D01*
X133511318Y-72793891D01*
X133505288Y-72791206D01*
X133411887Y-72771353D01*
X133324944Y-72752872D01*
X133324939Y-72752872D01*
X133318487Y-72751500D01*
X133127513Y-72751500D01*
X133121061Y-72752872D01*
X133121056Y-72752872D01*
X133034113Y-72771353D01*
X132940712Y-72791206D01*
X132934682Y-72793891D01*
X132934681Y-72793891D01*
X132772278Y-72866197D01*
X132772276Y-72866198D01*
X132766248Y-72868882D01*
X132611747Y-72981134D01*
X132607326Y-72986044D01*
X132607325Y-72986045D01*
X132499875Y-73105381D01*
X132483960Y-73123056D01*
X132388473Y-73288444D01*
X132329458Y-73470072D01*
X132309496Y-73660000D01*
X132310186Y-73666565D01*
X132316844Y-73729908D01*
X132329458Y-73849928D01*
X132388473Y-74031556D01*
X132483960Y-74196944D01*
X132611747Y-74338866D01*
X132766248Y-74451118D01*
X132772276Y-74453802D01*
X132772278Y-74453803D01*
X132797625Y-74465088D01*
X132940712Y-74528794D01*
X133027009Y-74547137D01*
X133121056Y-74567128D01*
X133121061Y-74567128D01*
X133127513Y-74568500D01*
X133318487Y-74568500D01*
X133324939Y-74567128D01*
X133324944Y-74567128D01*
X133418991Y-74547137D01*
X133505288Y-74528794D01*
X133648375Y-74465088D01*
X133673722Y-74453803D01*
X133673724Y-74453802D01*
X133679752Y-74451118D01*
X133834253Y-74338866D01*
X133838668Y-74333963D01*
X133843580Y-74329540D01*
X133844705Y-74330789D01*
X133898014Y-74297949D01*
X133931200Y-74293500D01*
X136773274Y-74293500D01*
X136841395Y-74313502D01*
X136880707Y-74353665D01*
X136948987Y-74465088D01*
X137095250Y-74633938D01*
X137267126Y-74776632D01*
X137337595Y-74817811D01*
X137340445Y-74819476D01*
X137389169Y-74871114D01*
X137402240Y-74940897D01*
X137375509Y-75006669D01*
X137335055Y-75040027D01*
X137322607Y-75046507D01*
X137318474Y-75049610D01*
X137318471Y-75049612D01*
X137294247Y-75067800D01*
X137143965Y-75180635D01*
X136989629Y-75342138D01*
X136863743Y-75526680D01*
X136769688Y-75729305D01*
X136709989Y-75944570D01*
X136686251Y-76166695D01*
X136686548Y-76171848D01*
X136686548Y-76171851D01*
X136692011Y-76266590D01*
X136699110Y-76389715D01*
X136700247Y-76394761D01*
X136700248Y-76394767D01*
X136720119Y-76482939D01*
X136748222Y-76607639D01*
X136832266Y-76814616D01*
X136948987Y-77005088D01*
X137095250Y-77173938D01*
X137099225Y-77177238D01*
X137099231Y-77177244D01*
X137104425Y-77181556D01*
X137144059Y-77240460D01*
X137145555Y-77311441D01*
X137108439Y-77371962D01*
X137068168Y-77396480D01*
X136960946Y-77436676D01*
X136945351Y-77445214D01*
X136843276Y-77521715D01*
X136830715Y-77534276D01*
X136754214Y-77636351D01*
X136745676Y-77651946D01*
X136700522Y-77772394D01*
X136696895Y-77787649D01*
X136691369Y-77838514D01*
X136691000Y-77845328D01*
X136691000Y-78467885D01*
X136695475Y-78483124D01*
X136696865Y-78484329D01*
X136704548Y-78486000D01*
X139388884Y-78486000D01*
X139404123Y-78481525D01*
X139405328Y-78480135D01*
X139406999Y-78472452D01*
X139406999Y-77845331D01*
X139406629Y-77838510D01*
X139401105Y-77787648D01*
X139397479Y-77772396D01*
X139352324Y-77651946D01*
X139343786Y-77636351D01*
X139267285Y-77534276D01*
X139254724Y-77521715D01*
X139152649Y-77445214D01*
X139137054Y-77436676D01*
X139026813Y-77395348D01*
X138970049Y-77352706D01*
X138945349Y-77286145D01*
X138960557Y-77216796D01*
X138982104Y-77188115D01*
X139083430Y-77087144D01*
X139083440Y-77087132D01*
X139087096Y-77083489D01*
X139146594Y-77000689D01*
X139214435Y-76906277D01*
X139217453Y-76902077D01*
X139316430Y-76701811D01*
X139381370Y-76488069D01*
X139410529Y-76266590D01*
X139412156Y-76200000D01*
X139393852Y-75977361D01*
X139339431Y-75760702D01*
X139250354Y-75555840D01*
X139129014Y-75368277D01*
X138978670Y-75203051D01*
X138974619Y-75199852D01*
X138974615Y-75199848D01*
X138807414Y-75067800D01*
X138807410Y-75067798D01*
X138803359Y-75064598D01*
X138762053Y-75041796D01*
X138712084Y-74991364D01*
X138697312Y-74921921D01*
X138722428Y-74855516D01*
X138749780Y-74828909D01*
X138793603Y-74797650D01*
X138928860Y-74701173D01*
X139087096Y-74543489D01*
X139096670Y-74530166D01*
X139214435Y-74366277D01*
X139217453Y-74362077D01*
X139221611Y-74353665D01*
X139314136Y-74166453D01*
X139314137Y-74166451D01*
X139316430Y-74161811D01*
X139381370Y-73948069D01*
X139410529Y-73726590D01*
X139412156Y-73660000D01*
X139393852Y-73437361D01*
X139339431Y-73220702D01*
X139309881Y-73152742D01*
X139301060Y-73082297D01*
X139331726Y-73018265D01*
X139392143Y-72980977D01*
X139462323Y-72982256D01*
X139464940Y-72983695D01*
X139472612Y-72985665D01*
X139472615Y-72985666D01*
X139484558Y-72988732D01*
X139503266Y-72995137D01*
X139521855Y-73003181D01*
X139529683Y-73004421D01*
X139529690Y-73004423D01*
X139565524Y-73010099D01*
X139577144Y-73012505D01*
X139612289Y-73021528D01*
X139619970Y-73023500D01*
X139640224Y-73023500D01*
X139659934Y-73025051D01*
X139679943Y-73028220D01*
X139687835Y-73027474D01*
X139723961Y-73024059D01*
X139735819Y-73023500D01*
X139834775Y-73023500D01*
X139902896Y-73043502D01*
X139942551Y-73084229D01*
X139955361Y-73105381D01*
X140076619Y-73226639D01*
X140223301Y-73315472D01*
X140230548Y-73317743D01*
X140230550Y-73317744D01*
X140296836Y-73338517D01*
X140386938Y-73366753D01*
X140460365Y-73373500D01*
X140463263Y-73373500D01*
X140717665Y-73373499D01*
X140973634Y-73373499D01*
X140976492Y-73373236D01*
X140976501Y-73373236D01*
X141012004Y-73369974D01*
X141047062Y-73366753D01*
X141053447Y-73364752D01*
X141203450Y-73317744D01*
X141203452Y-73317743D01*
X141210699Y-73315472D01*
X141357381Y-73226639D01*
X141452905Y-73131115D01*
X141515217Y-73097089D01*
X141586032Y-73102154D01*
X141631095Y-73131115D01*
X141726619Y-73226639D01*
X141873301Y-73315472D01*
X141880548Y-73317743D01*
X141880550Y-73317744D01*
X141946836Y-73338517D01*
X142036938Y-73366753D01*
X142110365Y-73373500D01*
X142113263Y-73373500D01*
X142367665Y-73373499D01*
X142623634Y-73373499D01*
X142626492Y-73373236D01*
X142626501Y-73373236D01*
X142662004Y-73369974D01*
X142697062Y-73366753D01*
X142703447Y-73364752D01*
X142853450Y-73317744D01*
X142853452Y-73317743D01*
X142860699Y-73315472D01*
X143007381Y-73226639D01*
X143128639Y-73105381D01*
X143132574Y-73098883D01*
X143132579Y-73098877D01*
X143154527Y-73062635D01*
X143206924Y-73014728D01*
X143223415Y-73008649D01*
X143224797Y-73008474D01*
X143232172Y-73005554D01*
X143265912Y-72992196D01*
X143277142Y-72988351D01*
X143311983Y-72978229D01*
X143311984Y-72978229D01*
X143319593Y-72976018D01*
X143326412Y-72971985D01*
X143326417Y-72971983D01*
X143337028Y-72965707D01*
X143354776Y-72957012D01*
X143373617Y-72949552D01*
X143409387Y-72923564D01*
X143419307Y-72917048D01*
X143450535Y-72898580D01*
X143450538Y-72898578D01*
X143457362Y-72894542D01*
X143471683Y-72880221D01*
X143486717Y-72867380D01*
X143496694Y-72860131D01*
X143503107Y-72855472D01*
X143531298Y-72821395D01*
X143539288Y-72812616D01*
X143661447Y-72690457D01*
X143669737Y-72682913D01*
X143676218Y-72678800D01*
X143722859Y-72629132D01*
X143725613Y-72626291D01*
X143745334Y-72606570D01*
X143747812Y-72603375D01*
X143755518Y-72594353D01*
X143780358Y-72567901D01*
X143785786Y-72562121D01*
X143795546Y-72544368D01*
X143806399Y-72527845D01*
X143813953Y-72518106D01*
X143818813Y-72511841D01*
X143836376Y-72471257D01*
X143841583Y-72460627D01*
X143862895Y-72421860D01*
X143864866Y-72414183D01*
X143864868Y-72414178D01*
X143867932Y-72402242D01*
X143874338Y-72383530D01*
X143879233Y-72372219D01*
X143882381Y-72364945D01*
X143883621Y-72357117D01*
X143883623Y-72357110D01*
X143889299Y-72321276D01*
X143891705Y-72309656D01*
X143900728Y-72274511D01*
X143900728Y-72274510D01*
X143902700Y-72266830D01*
X143902700Y-72246576D01*
X143904251Y-72226865D01*
X143906180Y-72214686D01*
X143907420Y-72206857D01*
X143903259Y-72162838D01*
X143902700Y-72150981D01*
X143902700Y-71097167D01*
X143903227Y-71085984D01*
X143904902Y-71078491D01*
X143902762Y-71010414D01*
X143902700Y-71006455D01*
X143902700Y-70978544D01*
X143902195Y-70974544D01*
X143901262Y-70962701D01*
X143900122Y-70926430D01*
X143899873Y-70918511D01*
X143894221Y-70899057D01*
X143890213Y-70879700D01*
X143887674Y-70859602D01*
X143889699Y-70859346D01*
X143891763Y-70799102D01*
X143932170Y-70740726D01*
X143964988Y-70721569D01*
X143983217Y-70714352D01*
X144018987Y-70688364D01*
X144028907Y-70681848D01*
X144060135Y-70663380D01*
X144060138Y-70663378D01*
X144066962Y-70659342D01*
X144070175Y-70656129D01*
X144134854Y-70630732D01*
X144204477Y-70644630D01*
X144255534Y-70693962D01*
X144272000Y-70756238D01*
X144272000Y-78690672D01*
X144270500Y-78710056D01*
X144266814Y-78733730D01*
X144268941Y-78749999D01*
X144269734Y-78774567D01*
X144255156Y-78996985D01*
X144253005Y-79013326D01*
X144204371Y-79257824D01*
X144200105Y-79273743D01*
X144119978Y-79509790D01*
X144113671Y-79525017D01*
X144003416Y-79748592D01*
X143995175Y-79762865D01*
X143856684Y-79970133D01*
X143846654Y-79983206D01*
X143745983Y-80098000D01*
X143682286Y-80170632D01*
X143670632Y-80182286D01*
X143483210Y-80346651D01*
X143470133Y-80356684D01*
X143262865Y-80495175D01*
X143248592Y-80503416D01*
X143025017Y-80613671D01*
X143009790Y-80619978D01*
X142773743Y-80700105D01*
X142757824Y-80704371D01*
X142513327Y-80753005D01*
X142496986Y-80755156D01*
X142281732Y-80769264D01*
X142258696Y-80768239D01*
X142255146Y-80768196D01*
X142246270Y-80766814D01*
X142217762Y-80770542D01*
X142214749Y-80770936D01*
X142198411Y-80772000D01*
X133145328Y-80772000D01*
X133125943Y-80770500D01*
X133111142Y-80768195D01*
X133111139Y-80768195D01*
X133102270Y-80766814D01*
X133086001Y-80768941D01*
X133061433Y-80769734D01*
X132839015Y-80755156D01*
X132822674Y-80753005D01*
X132578176Y-80704371D01*
X132562257Y-80700105D01*
X132326210Y-80619978D01*
X132310983Y-80613671D01*
X132087408Y-80503416D01*
X132073135Y-80495175D01*
X131865867Y-80356684D01*
X131852790Y-80346651D01*
X131665368Y-80182286D01*
X131653714Y-80170632D01*
X131590017Y-80098000D01*
X131489346Y-79983206D01*
X131479316Y-79970133D01*
X131340825Y-79762865D01*
X131332584Y-79748592D01*
X131276403Y-79634669D01*
X136691001Y-79634669D01*
X136691371Y-79641490D01*
X136696895Y-79692352D01*
X136700521Y-79707604D01*
X136745676Y-79828054D01*
X136754214Y-79843649D01*
X136830715Y-79945724D01*
X136843276Y-79958285D01*
X136945351Y-80034786D01*
X136960946Y-80043324D01*
X137081394Y-80088478D01*
X137096649Y-80092105D01*
X137147514Y-80097631D01*
X137154328Y-80098000D01*
X137776885Y-80098000D01*
X137792124Y-80093525D01*
X137793329Y-80092135D01*
X137795000Y-80084452D01*
X137795000Y-80079884D01*
X138303000Y-80079884D01*
X138307475Y-80095123D01*
X138308865Y-80096328D01*
X138316548Y-80097999D01*
X138943669Y-80097999D01*
X138950490Y-80097629D01*
X139001352Y-80092105D01*
X139016604Y-80088479D01*
X139137054Y-80043324D01*
X139152649Y-80034786D01*
X139254724Y-79958285D01*
X139267285Y-79945724D01*
X139343786Y-79843649D01*
X139352324Y-79828054D01*
X139397478Y-79707606D01*
X139401105Y-79692351D01*
X139406631Y-79641486D01*
X139407000Y-79634672D01*
X139407000Y-79012115D01*
X139402525Y-78996876D01*
X139401135Y-78995671D01*
X139393452Y-78994000D01*
X138321115Y-78994000D01*
X138305876Y-78998475D01*
X138304671Y-78999865D01*
X138303000Y-79007548D01*
X138303000Y-80079884D01*
X137795000Y-80079884D01*
X137795000Y-79012115D01*
X137790525Y-78996876D01*
X137789135Y-78995671D01*
X137781452Y-78994000D01*
X136709116Y-78994000D01*
X136693877Y-78998475D01*
X136692672Y-78999865D01*
X136691001Y-79007548D01*
X136691001Y-79634669D01*
X131276403Y-79634669D01*
X131222329Y-79525017D01*
X131216022Y-79509790D01*
X131135895Y-79273743D01*
X131131629Y-79257824D01*
X131082995Y-79013327D01*
X131080844Y-78996986D01*
X131066736Y-78781732D01*
X131067761Y-78758696D01*
X131067804Y-78755146D01*
X131069186Y-78746270D01*
X131065064Y-78714748D01*
X131064000Y-78698411D01*
X131064000Y-58018458D01*
X131084002Y-57950337D01*
X131137658Y-57903844D01*
X131207932Y-57893740D01*
X131227678Y-57898223D01*
X131262250Y-57909057D01*
X131275294Y-57911669D01*
X131339121Y-57917534D01*
X131344909Y-57917800D01*
X131401485Y-57917800D01*
X131416724Y-57913325D01*
X131417929Y-57911935D01*
X131419600Y-57904252D01*
X131419600Y-56881800D01*
X131439602Y-56813679D01*
X131493258Y-56767186D01*
X131545600Y-56755800D01*
X131688288Y-56755800D01*
X131756409Y-56775802D01*
G37*
%TD.AperFunction*%
%TA.AperFunction,Conductor*%
G36*
X144202818Y-57860075D02*
G01*
X144254600Y-57908646D01*
X144272000Y-57972537D01*
X144272000Y-62961800D01*
X144251998Y-63029921D01*
X144198342Y-63076414D01*
X144146000Y-63087800D01*
X144137715Y-63087800D01*
X144122476Y-63092275D01*
X144121271Y-63093665D01*
X144119600Y-63101348D01*
X144119600Y-64173800D01*
X144099598Y-64241921D01*
X144045942Y-64288414D01*
X143993600Y-64299800D01*
X143737600Y-64299800D01*
X143669479Y-64279798D01*
X143622986Y-64226142D01*
X143611600Y-64173800D01*
X143611600Y-63105915D01*
X143607125Y-63090676D01*
X143605735Y-63089471D01*
X143598052Y-63087800D01*
X143570162Y-63087800D01*
X143563647Y-63088137D01*
X143471543Y-63097694D01*
X143458144Y-63100588D01*
X143309493Y-63150181D01*
X143296314Y-63156355D01*
X143163427Y-63238588D01*
X143152026Y-63247624D01*
X143041614Y-63358229D01*
X143032602Y-63369640D01*
X142979760Y-63455366D01*
X142926988Y-63502859D01*
X142856916Y-63514283D01*
X142791792Y-63486009D01*
X142752293Y-63427015D01*
X142746500Y-63389250D01*
X142746500Y-61408524D01*
X142766502Y-61340403D01*
X142778858Y-61324221D01*
X142852040Y-61242944D01*
X142947527Y-61077556D01*
X143006542Y-60895928D01*
X143026504Y-60706000D01*
X143006542Y-60516072D01*
X142947527Y-60334444D01*
X142852040Y-60169056D01*
X142766653Y-60074224D01*
X142728678Y-60032048D01*
X142728676Y-60032046D01*
X142724253Y-60027134D01*
X142724601Y-60026821D01*
X142689515Y-59969872D01*
X142690865Y-59898888D01*
X142721969Y-59847584D01*
X142781449Y-59788104D01*
X142791089Y-59775678D01*
X142867648Y-59646221D01*
X142873893Y-59631790D01*
X142916269Y-59485935D01*
X142918570Y-59473333D01*
X142920807Y-59444916D01*
X142921000Y-59439986D01*
X142921000Y-58998115D01*
X142916525Y-58982876D01*
X142915135Y-58981671D01*
X142907452Y-58980000D01*
X141985000Y-58980000D01*
X141916879Y-58959998D01*
X141870386Y-58906342D01*
X141859000Y-58854000D01*
X141859000Y-58598000D01*
X141879002Y-58529879D01*
X141932658Y-58483386D01*
X141985000Y-58472000D01*
X142902884Y-58472000D01*
X142918123Y-58467525D01*
X142919328Y-58466135D01*
X142920999Y-58458452D01*
X142920999Y-58037011D01*
X142941001Y-57968890D01*
X142994657Y-57922397D01*
X143046999Y-57911011D01*
X143303722Y-57911011D01*
X143314905Y-57911538D01*
X143322398Y-57913213D01*
X143330324Y-57912964D01*
X143330325Y-57912964D01*
X143390475Y-57911073D01*
X143394434Y-57911011D01*
X143422345Y-57911011D01*
X143426280Y-57910514D01*
X143426345Y-57910506D01*
X143438182Y-57909573D01*
X143470440Y-57908559D01*
X143474459Y-57908433D01*
X143482378Y-57908184D01*
X143501832Y-57902532D01*
X143521189Y-57898524D01*
X143533419Y-57896979D01*
X143533420Y-57896979D01*
X143541286Y-57895985D01*
X143548657Y-57893066D01*
X143548659Y-57893066D01*
X143582401Y-57879707D01*
X143593631Y-57875862D01*
X143628468Y-57865741D01*
X143633956Y-57864147D01*
X143633959Y-57864146D01*
X143635507Y-57863696D01*
X143636081Y-57863529D01*
X143636130Y-57863696D01*
X143680538Y-57854500D01*
X144062732Y-57854500D01*
X144065976Y-57854163D01*
X144065984Y-57854163D01*
X144132997Y-57847210D01*
X144202818Y-57860075D01*
G37*
%TD.AperFunction*%
%TA.AperFunction,Conductor*%
G36*
X134317121Y-55389002D02*
G01*
X134363614Y-55442658D01*
X134375000Y-55495000D01*
X134375000Y-55751000D01*
X134354998Y-55819121D01*
X134301342Y-55865614D01*
X134249000Y-55877000D01*
X133249000Y-55877000D01*
X133180879Y-55856998D01*
X133134386Y-55803342D01*
X133123000Y-55751000D01*
X133123000Y-55495000D01*
X133143002Y-55426879D01*
X133196658Y-55380386D01*
X133249000Y-55369000D01*
X134249000Y-55369000D01*
X134317121Y-55389002D01*
G37*
%TD.AperFunction*%
%TA.AperFunction,Conductor*%
G36*
X141020088Y-51582002D02*
G01*
X141066581Y-51635658D01*
X141076685Y-51705932D01*
X141075305Y-51713765D01*
X141070324Y-51737607D01*
X141069085Y-51747152D01*
X141069000Y-51750384D01*
X141069000Y-51970885D01*
X141073475Y-51986124D01*
X141074865Y-51987329D01*
X141082548Y-51989000D01*
X142966885Y-51989000D01*
X142982124Y-51984525D01*
X142983329Y-51983135D01*
X142985000Y-51975452D01*
X142985000Y-51903219D01*
X143005002Y-51835098D01*
X143058658Y-51788605D01*
X143128932Y-51778501D01*
X143166727Y-51790212D01*
X143248596Y-51830586D01*
X143262865Y-51838825D01*
X143470133Y-51977316D01*
X143483206Y-51987346D01*
X143575071Y-52067909D01*
X143670632Y-52151714D01*
X143682286Y-52163368D01*
X143846651Y-52350790D01*
X143856684Y-52363867D01*
X143995175Y-52571135D01*
X144003416Y-52585408D01*
X144113671Y-52808983D01*
X144119978Y-52824210D01*
X144200105Y-53060257D01*
X144204371Y-53076176D01*
X144253005Y-53320673D01*
X144255156Y-53337014D01*
X144269264Y-53552268D01*
X144268239Y-53575304D01*
X144268196Y-53578854D01*
X144266814Y-53587730D01*
X144269274Y-53606539D01*
X144270936Y-53619251D01*
X144272000Y-53635589D01*
X144272000Y-54269874D01*
X144251998Y-54337995D01*
X144198342Y-54384488D01*
X144133159Y-54395218D01*
X144065906Y-54388328D01*
X144059486Y-54388000D01*
X144036115Y-54388000D01*
X144020876Y-54392475D01*
X144019671Y-54393865D01*
X144018000Y-54401548D01*
X144018000Y-55474000D01*
X143997998Y-55542121D01*
X143944342Y-55588614D01*
X143892000Y-55600000D01*
X143636000Y-55600000D01*
X143567879Y-55579998D01*
X143521386Y-55526342D01*
X143510000Y-55474000D01*
X143510000Y-54406115D01*
X143505525Y-54390876D01*
X143504135Y-54389671D01*
X143496452Y-54388000D01*
X143468562Y-54388000D01*
X143462047Y-54388337D01*
X143369943Y-54397894D01*
X143356544Y-54400788D01*
X143207893Y-54450381D01*
X143194715Y-54456555D01*
X143081363Y-54526699D01*
X143012911Y-54545537D01*
X142945142Y-54524376D01*
X142904858Y-54480641D01*
X142820813Y-54329021D01*
X142813562Y-54318588D01*
X142695215Y-54180509D01*
X142686024Y-54171756D01*
X142542320Y-54060289D01*
X142531560Y-54053565D01*
X142368375Y-53973268D01*
X142356481Y-53968845D01*
X142298530Y-53953749D01*
X142284436Y-53954183D01*
X142281000Y-53962364D01*
X142281000Y-55751000D01*
X142260998Y-55819121D01*
X142207342Y-55865614D01*
X142155000Y-55877000D01*
X141155000Y-55877000D01*
X141086879Y-55856998D01*
X141040386Y-55803342D01*
X141029000Y-55751000D01*
X141029000Y-55495000D01*
X141049002Y-55426879D01*
X141102658Y-55380386D01*
X141155000Y-55369000D01*
X141754885Y-55369000D01*
X141770124Y-55364525D01*
X141771329Y-55363135D01*
X141773000Y-55355452D01*
X141773000Y-53963771D01*
X141769027Y-53950240D01*
X141762925Y-53949363D01*
X141610864Y-54005310D01*
X141599451Y-54010877D01*
X141444892Y-54106708D01*
X141434826Y-54114460D01*
X141302697Y-54239408D01*
X141294395Y-54249026D01*
X141190087Y-54397994D01*
X141181659Y-54413073D01*
X141130964Y-54462777D01*
X141061444Y-54477182D01*
X141020426Y-54466705D01*
X140949633Y-54435186D01*
X140937137Y-54431126D01*
X140773636Y-54396372D01*
X140760576Y-54395000D01*
X140586821Y-54395000D01*
X140586821Y-54391975D01*
X140529923Y-54381617D01*
X140478037Y-54333157D01*
X140460500Y-54269034D01*
X140460500Y-54146767D01*
X140461027Y-54135584D01*
X140462702Y-54128091D01*
X140460562Y-54060014D01*
X140460500Y-54056055D01*
X140460500Y-54028144D01*
X140459995Y-54024144D01*
X140459062Y-54012301D01*
X140459018Y-54010877D01*
X140457673Y-53968110D01*
X140452022Y-53948658D01*
X140448014Y-53929306D01*
X140446467Y-53917063D01*
X140445474Y-53909203D01*
X140442556Y-53901832D01*
X140429200Y-53868097D01*
X140425355Y-53856870D01*
X140424721Y-53854687D01*
X140413018Y-53814407D01*
X140408984Y-53807585D01*
X140408981Y-53807579D01*
X140402706Y-53796968D01*
X140394010Y-53779218D01*
X140389472Y-53767756D01*
X140389469Y-53767751D01*
X140386552Y-53760383D01*
X140360573Y-53724625D01*
X140354057Y-53714707D01*
X140335575Y-53683457D01*
X140331542Y-53676637D01*
X140317218Y-53662313D01*
X140304376Y-53647278D01*
X140292472Y-53630893D01*
X140258406Y-53602711D01*
X140249627Y-53594722D01*
X139856652Y-53201747D01*
X139849112Y-53193461D01*
X139845000Y-53186982D01*
X139823218Y-53166527D01*
X139795349Y-53140357D01*
X139792507Y-53137602D01*
X139772770Y-53117865D01*
X139769573Y-53115385D01*
X139760551Y-53107680D01*
X139747116Y-53095064D01*
X139728321Y-53077414D01*
X139721375Y-53073595D01*
X139721372Y-53073593D01*
X139710566Y-53067652D01*
X139694047Y-53056801D01*
X139693583Y-53056441D01*
X139678041Y-53044386D01*
X139670772Y-53041241D01*
X139670768Y-53041238D01*
X139637463Y-53026826D01*
X139626813Y-53021609D01*
X139588060Y-53000305D01*
X139568437Y-52995267D01*
X139549734Y-52988863D01*
X139538420Y-52983967D01*
X139538419Y-52983967D01*
X139531145Y-52980819D01*
X139523322Y-52979580D01*
X139523312Y-52979577D01*
X139487476Y-52973901D01*
X139475856Y-52971495D01*
X139440711Y-52962472D01*
X139440710Y-52962472D01*
X139433030Y-52960500D01*
X139412776Y-52960500D01*
X139393065Y-52958949D01*
X139390534Y-52958548D01*
X139373057Y-52955780D01*
X139365165Y-52956526D01*
X139329039Y-52959941D01*
X139317181Y-52960500D01*
X136256763Y-52960500D01*
X136245579Y-52959973D01*
X136238091Y-52958299D01*
X136230168Y-52958548D01*
X136170033Y-52960438D01*
X136166075Y-52960500D01*
X136138144Y-52960500D01*
X136134229Y-52960995D01*
X136134225Y-52960995D01*
X136134167Y-52961003D01*
X136134138Y-52961006D01*
X136122296Y-52961939D01*
X136078110Y-52963327D01*
X136060744Y-52968372D01*
X136058658Y-52968978D01*
X136039306Y-52972986D01*
X136032235Y-52973880D01*
X136019203Y-52975526D01*
X136011834Y-52978443D01*
X136011832Y-52978444D01*
X135978097Y-52991800D01*
X135966869Y-52995645D01*
X135924407Y-53007982D01*
X135917585Y-53012016D01*
X135917579Y-53012019D01*
X135906968Y-53018294D01*
X135889218Y-53026990D01*
X135877756Y-53031528D01*
X135877751Y-53031531D01*
X135870383Y-53034448D01*
X135852970Y-53047099D01*
X135834625Y-53060427D01*
X135824707Y-53066943D01*
X135822785Y-53068080D01*
X135786637Y-53089458D01*
X135772313Y-53103782D01*
X135757281Y-53116621D01*
X135740893Y-53128528D01*
X135713618Y-53161498D01*
X135712712Y-53162593D01*
X135704722Y-53171373D01*
X135440323Y-53435772D01*
X135378011Y-53469798D01*
X135307196Y-53464733D01*
X135250360Y-53422186D01*
X135242109Y-53409677D01*
X135159142Y-53265974D01*
X135159139Y-53265969D01*
X135155840Y-53260256D01*
X135075810Y-53171373D01*
X135032475Y-53123245D01*
X135032474Y-53123244D01*
X135028053Y-53118334D01*
X134894916Y-53021604D01*
X134878894Y-53009963D01*
X134878893Y-53009962D01*
X134873552Y-53006082D01*
X134867524Y-53003398D01*
X134867522Y-53003397D01*
X134705119Y-52931091D01*
X134705118Y-52931091D01*
X134699088Y-52928406D01*
X134605688Y-52908553D01*
X134518744Y-52890072D01*
X134518739Y-52890072D01*
X134512287Y-52888700D01*
X134458876Y-52888700D01*
X134390755Y-52868698D01*
X134344262Y-52815042D01*
X134333925Y-52746473D01*
X134334915Y-52738848D01*
X134335000Y-52735616D01*
X134335000Y-52688447D01*
X141069000Y-52688447D01*
X141069323Y-52694822D01*
X141083082Y-52830277D01*
X141085636Y-52842717D01*
X141140016Y-53016244D01*
X141145025Y-53027932D01*
X141233187Y-53186979D01*
X141240438Y-53197412D01*
X141358785Y-53335491D01*
X141367976Y-53344244D01*
X141511680Y-53455711D01*
X141522440Y-53462435D01*
X141685625Y-53542732D01*
X141697519Y-53547155D01*
X141755470Y-53562251D01*
X141769564Y-53561817D01*
X141773000Y-53553636D01*
X141773000Y-53552229D01*
X142281000Y-53552229D01*
X142284973Y-53565760D01*
X142291075Y-53566637D01*
X142443136Y-53510690D01*
X142454549Y-53505123D01*
X142609108Y-53409292D01*
X142619174Y-53401540D01*
X142751303Y-53276592D01*
X142759605Y-53266974D01*
X142863908Y-53118013D01*
X142870108Y-53106919D01*
X142942332Y-52940020D01*
X142946171Y-52927917D01*
X142983675Y-52748400D01*
X142984915Y-52738848D01*
X142985000Y-52735616D01*
X142985000Y-52515115D01*
X142980525Y-52499876D01*
X142979135Y-52498671D01*
X142971452Y-52497000D01*
X142299115Y-52497000D01*
X142283876Y-52501475D01*
X142282671Y-52502865D01*
X142281000Y-52510548D01*
X142281000Y-53552229D01*
X141773000Y-53552229D01*
X141773000Y-52515115D01*
X141768525Y-52499876D01*
X141767135Y-52498671D01*
X141759452Y-52497000D01*
X141087115Y-52497000D01*
X141071876Y-52501475D01*
X141070671Y-52502865D01*
X141069000Y-52510548D01*
X141069000Y-52688447D01*
X134335000Y-52688447D01*
X134335000Y-52515115D01*
X134330525Y-52499876D01*
X134329135Y-52498671D01*
X134321452Y-52497000D01*
X132437115Y-52497000D01*
X132421876Y-52501475D01*
X132420671Y-52502865D01*
X132419000Y-52510548D01*
X132419000Y-52688447D01*
X132419323Y-52694822D01*
X132433082Y-52830277D01*
X132435636Y-52842717D01*
X132490016Y-53016244D01*
X132495025Y-53027932D01*
X132583187Y-53186979D01*
X132590438Y-53197412D01*
X132675879Y-53297098D01*
X132705023Y-53361837D01*
X132694540Y-53432055D01*
X132669309Y-53468187D01*
X131723098Y-54414397D01*
X131660788Y-54448421D01*
X131634005Y-54451300D01*
X131359986Y-54451301D01*
X131341966Y-54451301D01*
X131339108Y-54451564D01*
X131339099Y-54451564D01*
X131303596Y-54454826D01*
X131268538Y-54458047D01*
X131227677Y-54470852D01*
X131156696Y-54472137D01*
X131096285Y-54434840D01*
X131065627Y-54370804D01*
X131064000Y-54350618D01*
X131064000Y-53643328D01*
X131065500Y-53623943D01*
X131067805Y-53609142D01*
X131067805Y-53609139D01*
X131069186Y-53600270D01*
X131067059Y-53584001D01*
X131066266Y-53559433D01*
X131080844Y-53337015D01*
X131082995Y-53320674D01*
X131131629Y-53076176D01*
X131135895Y-53060257D01*
X131216022Y-52824210D01*
X131222329Y-52808983D01*
X131332584Y-52585408D01*
X131340825Y-52571135D01*
X131479316Y-52363867D01*
X131489349Y-52350790D01*
X131653714Y-52163368D01*
X131665368Y-52151714D01*
X131760929Y-52067909D01*
X131852794Y-51987346D01*
X131865867Y-51977316D01*
X132073135Y-51838825D01*
X132087404Y-51830586D01*
X132237273Y-51756679D01*
X132307214Y-51744489D01*
X132372643Y-51772048D01*
X132412787Y-51830606D01*
X132419000Y-51869685D01*
X132419000Y-51970885D01*
X132423475Y-51986124D01*
X132424865Y-51987329D01*
X132432548Y-51989000D01*
X134316885Y-51989000D01*
X134332124Y-51984525D01*
X134333329Y-51983135D01*
X134335000Y-51975452D01*
X134335000Y-51797553D01*
X134334677Y-51791178D01*
X134325490Y-51700733D01*
X134338506Y-51630940D01*
X134387188Y-51579263D01*
X134450845Y-51562000D01*
X140951967Y-51562000D01*
X141020088Y-51582002D01*
G37*
%TD.AperFunction*%
%TD*%
M02*
