G04 #@! TF.GenerationSoftware,KiCad,Pcbnew,(6.0.5-0)*
G04 #@! TF.CreationDate,2022-10-24T02:35:27+02:00*
G04 #@! TF.ProjectId,muVox,6d75566f-782e-46b6-9963-61645f706362,rc1*
G04 #@! TF.SameCoordinates,Original*
G04 #@! TF.FileFunction,Legend,Bot*
G04 #@! TF.FilePolarity,Positive*
%FSLAX46Y46*%
G04 Gerber Fmt 4.6, Leading zero omitted, Abs format (unit mm)*
G04 Created by KiCad (PCBNEW (6.0.5-0)) date 2022-10-24 02:35:27*
%MOMM*%
%LPD*%
G01*
G04 APERTURE LIST*
%ADD10C,0.100000*%
%ADD11C,0.010000*%
%ADD12C,0.120000*%
G04 APERTURE END LIST*
D10*
X98490100Y-112329300D02*
X98490100Y-112562633D01*
X98856766Y-112662633D02*
X98856766Y-112329300D01*
X98156766Y-112329300D01*
X98156766Y-112662633D01*
X98823433Y-112929300D02*
X98856766Y-113029300D01*
X98856766Y-113195966D01*
X98823433Y-113262633D01*
X98790100Y-113295966D01*
X98723433Y-113329300D01*
X98656766Y-113329300D01*
X98590100Y-113295966D01*
X98556766Y-113262633D01*
X98523433Y-113195966D01*
X98490100Y-113062633D01*
X98456766Y-112995966D01*
X98423433Y-112962633D01*
X98356766Y-112929300D01*
X98290100Y-112929300D01*
X98223433Y-112962633D01*
X98190100Y-112995966D01*
X98156766Y-113062633D01*
X98156766Y-113229300D01*
X98190100Y-113329300D01*
X98856766Y-113629300D02*
X98156766Y-113629300D01*
X98156766Y-113895966D01*
X98190100Y-113962633D01*
X98223433Y-113995966D01*
X98290100Y-114029300D01*
X98390100Y-114029300D01*
X98456766Y-113995966D01*
X98490100Y-113962633D01*
X98523433Y-113895966D01*
X98523433Y-113629300D01*
X98923433Y-114162633D02*
X98923433Y-114695966D01*
X98856766Y-115262633D02*
X98523433Y-115029300D01*
X98856766Y-114862633D02*
X98156766Y-114862633D01*
X98156766Y-115129300D01*
X98190100Y-115195966D01*
X98223433Y-115229300D01*
X98290100Y-115262633D01*
X98390100Y-115262633D01*
X98456766Y-115229300D01*
X98490100Y-115195966D01*
X98523433Y-115129300D01*
X98523433Y-114862633D01*
X98823433Y-115529300D02*
X98856766Y-115629300D01*
X98856766Y-115795966D01*
X98823433Y-115862633D01*
X98790100Y-115895966D01*
X98723433Y-115929300D01*
X98656766Y-115929300D01*
X98590100Y-115895966D01*
X98556766Y-115862633D01*
X98523433Y-115795966D01*
X98490100Y-115662633D01*
X98456766Y-115595966D01*
X98423433Y-115562633D01*
X98356766Y-115529300D01*
X98290100Y-115529300D01*
X98223433Y-115562633D01*
X98190100Y-115595966D01*
X98156766Y-115662633D01*
X98156766Y-115829300D01*
X98190100Y-115929300D01*
X98156766Y-116129300D02*
X98156766Y-116529300D01*
X98856766Y-116329300D02*
X98156766Y-116329300D01*
X90456766Y-112245966D02*
X90456766Y-112645966D01*
X91156766Y-112445966D02*
X90456766Y-112445966D01*
X90456766Y-112812633D02*
X91156766Y-113279300D01*
X90456766Y-113279300D02*
X91156766Y-112812633D01*
X100690100Y-112745966D02*
X100656766Y-112679300D01*
X100656766Y-112579300D01*
X100690100Y-112479300D01*
X100756766Y-112412633D01*
X100823433Y-112379300D01*
X100956766Y-112345966D01*
X101056766Y-112345966D01*
X101190100Y-112379300D01*
X101256766Y-112412633D01*
X101323433Y-112479300D01*
X101356766Y-112579300D01*
X101356766Y-112645966D01*
X101323433Y-112745966D01*
X101290100Y-112779300D01*
X101056766Y-112779300D01*
X101056766Y-112645966D01*
X101356766Y-113079300D02*
X100656766Y-113079300D01*
X101356766Y-113479300D01*
X100656766Y-113479300D01*
X101356766Y-113812633D02*
X100656766Y-113812633D01*
X100656766Y-113979300D01*
X100690100Y-114079300D01*
X100756766Y-114145966D01*
X100823433Y-114179300D01*
X100956766Y-114212633D01*
X101056766Y-114212633D01*
X101190100Y-114179300D01*
X101256766Y-114145966D01*
X101323433Y-114079300D01*
X101356766Y-113979300D01*
X101356766Y-113812633D01*
X96279966Y-112535300D02*
X95579966Y-112535300D01*
X95579966Y-113001966D02*
X95579966Y-113135300D01*
X95613300Y-113201966D01*
X95679966Y-113268633D01*
X95813300Y-113301966D01*
X96046633Y-113301966D01*
X96179966Y-113268633D01*
X96246633Y-113201966D01*
X96279966Y-113135300D01*
X96279966Y-113001966D01*
X96246633Y-112935300D01*
X96179966Y-112868633D01*
X96046633Y-112835300D01*
X95813300Y-112835300D01*
X95679966Y-112868633D01*
X95613300Y-112935300D01*
X95579966Y-113001966D01*
X95579966Y-113735300D02*
X95579966Y-113801966D01*
X95613300Y-113868633D01*
X95646633Y-113901966D01*
X95713300Y-113935300D01*
X95846633Y-113968633D01*
X96013300Y-113968633D01*
X96146633Y-113935300D01*
X96213300Y-113901966D01*
X96246633Y-113868633D01*
X96279966Y-113801966D01*
X96279966Y-113735300D01*
X96246633Y-113668633D01*
X96213300Y-113635300D01*
X96146633Y-113601966D01*
X96013300Y-113568633D01*
X95846633Y-113568633D01*
X95713300Y-113601966D01*
X95646633Y-113635300D01*
X95613300Y-113668633D01*
X95579966Y-113735300D01*
X93656766Y-112762633D02*
X93323433Y-112529300D01*
X93656766Y-112362633D02*
X92956766Y-112362633D01*
X92956766Y-112629300D01*
X92990100Y-112695966D01*
X93023433Y-112729300D01*
X93090100Y-112762633D01*
X93190100Y-112762633D01*
X93256766Y-112729300D01*
X93290100Y-112695966D01*
X93323433Y-112629300D01*
X93323433Y-112362633D01*
X92956766Y-112995966D02*
X93656766Y-113462633D01*
X92956766Y-113462633D02*
X93656766Y-112995966D01*
X87906766Y-112545966D02*
X87906766Y-112212633D01*
X88240100Y-112179300D01*
X88206766Y-112212633D01*
X88173433Y-112279300D01*
X88173433Y-112445966D01*
X88206766Y-112512633D01*
X88240100Y-112545966D01*
X88306766Y-112579300D01*
X88473433Y-112579300D01*
X88540100Y-112545966D01*
X88573433Y-112512633D01*
X88606766Y-112445966D01*
X88606766Y-112279300D01*
X88573433Y-112212633D01*
X88540100Y-112179300D01*
X88140100Y-112812633D02*
X88606766Y-112979300D01*
X88140100Y-113145966D01*
X88340100Y-113412633D02*
X88340100Y-113945966D01*
X88606766Y-113679300D02*
X88073433Y-113679300D01*
G36*
X96488250Y-141087891D02*
G01*
X96602025Y-141097973D01*
X96706205Y-141106598D01*
X96790756Y-141112978D01*
X96845641Y-141116324D01*
X96853375Y-141116590D01*
X96922167Y-141118166D01*
X96922167Y-142294504D01*
X96838970Y-142297822D01*
X96723045Y-142322416D01*
X96617618Y-142381692D01*
X96531952Y-142468014D01*
X96475311Y-142573749D01*
X96466077Y-142605125D01*
X96449437Y-142645455D01*
X96416516Y-142661290D01*
X96379198Y-142663333D01*
X96355350Y-142660951D01*
X96328795Y-142651738D01*
X96295687Y-142632593D01*
X96252179Y-142600415D01*
X96194425Y-142552105D01*
X96118576Y-142484562D01*
X96020787Y-142394685D01*
X95897211Y-142279374D01*
X95862910Y-142247215D01*
X95749295Y-142140206D01*
X95646438Y-142042504D01*
X95558212Y-141957857D01*
X95488492Y-141890012D01*
X95441151Y-141842713D01*
X95420064Y-141819708D01*
X95419333Y-141818285D01*
X95433764Y-141800235D01*
X95473721Y-141757807D01*
X95534206Y-141695952D01*
X95610217Y-141619620D01*
X95696755Y-141533763D01*
X95788818Y-141443331D01*
X95881408Y-141353275D01*
X95969522Y-141268546D01*
X96048162Y-141194094D01*
X96075500Y-141168619D01*
X96191917Y-141060769D01*
X96488250Y-141087891D01*
G37*
D11*
X96488250Y-141087891D02*
X96602025Y-141097973D01*
X96706205Y-141106598D01*
X96790756Y-141112978D01*
X96845641Y-141116324D01*
X96853375Y-141116590D01*
X96922167Y-141118166D01*
X96922167Y-142294504D01*
X96838970Y-142297822D01*
X96723045Y-142322416D01*
X96617618Y-142381692D01*
X96531952Y-142468014D01*
X96475311Y-142573749D01*
X96466077Y-142605125D01*
X96449437Y-142645455D01*
X96416516Y-142661290D01*
X96379198Y-142663333D01*
X96355350Y-142660951D01*
X96328795Y-142651738D01*
X96295687Y-142632593D01*
X96252179Y-142600415D01*
X96194425Y-142552105D01*
X96118576Y-142484562D01*
X96020787Y-142394685D01*
X95897211Y-142279374D01*
X95862910Y-142247215D01*
X95749295Y-142140206D01*
X95646438Y-142042504D01*
X95558212Y-141957857D01*
X95488492Y-141890012D01*
X95441151Y-141842713D01*
X95420064Y-141819708D01*
X95419333Y-141818285D01*
X95433764Y-141800235D01*
X95473721Y-141757807D01*
X95534206Y-141695952D01*
X95610217Y-141619620D01*
X95696755Y-141533763D01*
X95788818Y-141443331D01*
X95881408Y-141353275D01*
X95969522Y-141268546D01*
X96048162Y-141194094D01*
X96075500Y-141168619D01*
X96191917Y-141060769D01*
X96488250Y-141087891D01*
G36*
X93554392Y-140879764D02*
G01*
X93556667Y-140917083D01*
X93553390Y-140966736D01*
X93534903Y-140987099D01*
X93488222Y-140991157D01*
X93482583Y-140991166D01*
X93429094Y-140986481D01*
X93412090Y-140969037D01*
X93430348Y-140933758D01*
X93460406Y-140899007D01*
X93508953Y-140854819D01*
X93539544Y-140848266D01*
X93554392Y-140879764D01*
G37*
X93554392Y-140879764D02*
X93556667Y-140917083D01*
X93553390Y-140966736D01*
X93534903Y-140987099D01*
X93488222Y-140991157D01*
X93482583Y-140991166D01*
X93429094Y-140986481D01*
X93412090Y-140969037D01*
X93430348Y-140933758D01*
X93460406Y-140899007D01*
X93508953Y-140854819D01*
X93539544Y-140848266D01*
X93554392Y-140879764D01*
G36*
X93556667Y-142060083D02*
G01*
X93556436Y-142276201D01*
X93555667Y-142453438D01*
X93554245Y-142595245D01*
X93552053Y-142705073D01*
X93548975Y-142786372D01*
X93544895Y-142842593D01*
X93539699Y-142877186D01*
X93533270Y-142893603D01*
X93528606Y-142896166D01*
X93481787Y-142876176D01*
X93432588Y-142820239D01*
X93383955Y-142734405D01*
X93338838Y-142624723D01*
X93300183Y-142497243D01*
X93273354Y-142372291D01*
X93268178Y-142326185D01*
X93282074Y-142307307D01*
X93325911Y-142303517D01*
X93334946Y-142303500D01*
X93408500Y-142303500D01*
X93408500Y-141626166D01*
X93334417Y-141626166D01*
X93284697Y-141622727D01*
X93264304Y-141604622D01*
X93260334Y-141560174D01*
X93260333Y-141559109D01*
X93264024Y-141501839D01*
X93273579Y-141422628D01*
X93283673Y-141358025D01*
X93307012Y-141224000D01*
X93556667Y-141224000D01*
X93556667Y-142060083D01*
G37*
X93556667Y-142060083D02*
X93556436Y-142276201D01*
X93555667Y-142453438D01*
X93554245Y-142595245D01*
X93552053Y-142705073D01*
X93548975Y-142786372D01*
X93544895Y-142842593D01*
X93539699Y-142877186D01*
X93533270Y-142893603D01*
X93528606Y-142896166D01*
X93481787Y-142876176D01*
X93432588Y-142820239D01*
X93383955Y-142734405D01*
X93338838Y-142624723D01*
X93300183Y-142497243D01*
X93273354Y-142372291D01*
X93268178Y-142326185D01*
X93282074Y-142307307D01*
X93325911Y-142303517D01*
X93334946Y-142303500D01*
X93408500Y-142303500D01*
X93408500Y-141626166D01*
X93334417Y-141626166D01*
X93284697Y-141622727D01*
X93264304Y-141604622D01*
X93260334Y-141560174D01*
X93260333Y-141559109D01*
X93264024Y-141501839D01*
X93273579Y-141422628D01*
X93283673Y-141358025D01*
X93307012Y-141224000D01*
X93556667Y-141224000D01*
X93556667Y-142060083D01*
G36*
X105635548Y-130496992D02*
G01*
X105726960Y-130515885D01*
X105795192Y-130550448D01*
X105801746Y-130556153D01*
X105841073Y-130615874D01*
X105855478Y-130687726D01*
X105843910Y-130755711D01*
X105817419Y-130794663D01*
X105740211Y-130842842D01*
X105647928Y-130868101D01*
X105550628Y-130871572D01*
X105458374Y-130854387D01*
X105381224Y-130817678D01*
X105329238Y-130762577D01*
X105318651Y-130738547D01*
X105313050Y-130659235D01*
X105343496Y-130586355D01*
X105403947Y-130530871D01*
X105442786Y-130513324D01*
X105535857Y-130495545D01*
X105635548Y-130496992D01*
G37*
X105635548Y-130496992D02*
X105726960Y-130515885D01*
X105795192Y-130550448D01*
X105801746Y-130556153D01*
X105841073Y-130615874D01*
X105855478Y-130687726D01*
X105843910Y-130755711D01*
X105817419Y-130794663D01*
X105740211Y-130842842D01*
X105647928Y-130868101D01*
X105550628Y-130871572D01*
X105458374Y-130854387D01*
X105381224Y-130817678D01*
X105329238Y-130762577D01*
X105318651Y-130738547D01*
X105313050Y-130659235D01*
X105343496Y-130586355D01*
X105403947Y-130530871D01*
X105442786Y-130513324D01*
X105535857Y-130495545D01*
X105635548Y-130496992D01*
G36*
X93731292Y-140849774D02*
G01*
X93771891Y-140855927D01*
X93843356Y-140863446D01*
X93934288Y-140871223D01*
X94001167Y-140876073D01*
X94099085Y-140884063D01*
X94185497Y-140893672D01*
X94248891Y-140903484D01*
X94272828Y-140909492D01*
X94297946Y-140927158D01*
X94348314Y-140969108D01*
X94419316Y-141031071D01*
X94506335Y-141108772D01*
X94604756Y-141197937D01*
X94709962Y-141294293D01*
X94817337Y-141393566D01*
X94922265Y-141491483D01*
X95020130Y-141583769D01*
X95106315Y-141666152D01*
X95176205Y-141734357D01*
X95225183Y-141784112D01*
X95248633Y-141811141D01*
X95250000Y-141814160D01*
X95235725Y-141832783D01*
X95196071Y-141876148D01*
X95135796Y-141939269D01*
X95059659Y-142017157D01*
X94979095Y-142098164D01*
X94891959Y-142183552D01*
X94814816Y-142256206D01*
X94752642Y-142311676D01*
X94710412Y-142345515D01*
X94693345Y-142353623D01*
X94688497Y-142328567D01*
X94684312Y-142268358D01*
X94681070Y-142180173D01*
X94679050Y-142071191D01*
X94678500Y-141971889D01*
X94678500Y-141605000D01*
X94424500Y-141605000D01*
X94424500Y-142451666D01*
X94498583Y-142451666D01*
X94547566Y-142455774D01*
X94572032Y-142465874D01*
X94572667Y-142468009D01*
X94558500Y-142488524D01*
X94519982Y-142532078D01*
X94463088Y-142592168D01*
X94397599Y-142658509D01*
X94222532Y-142832666D01*
X94069516Y-142832666D01*
X93986191Y-142834679D01*
X93938061Y-142841622D01*
X93918138Y-142854857D01*
X93916500Y-142862458D01*
X93901053Y-142882292D01*
X93851480Y-142894733D01*
X93800054Y-142899499D01*
X93683609Y-142906750D01*
X93683638Y-141872580D01*
X93683667Y-140838411D01*
X93731292Y-140849774D01*
G37*
X93731292Y-140849774D02*
X93771891Y-140855927D01*
X93843356Y-140863446D01*
X93934288Y-140871223D01*
X94001167Y-140876073D01*
X94099085Y-140884063D01*
X94185497Y-140893672D01*
X94248891Y-140903484D01*
X94272828Y-140909492D01*
X94297946Y-140927158D01*
X94348314Y-140969108D01*
X94419316Y-141031071D01*
X94506335Y-141108772D01*
X94604756Y-141197937D01*
X94709962Y-141294293D01*
X94817337Y-141393566D01*
X94922265Y-141491483D01*
X95020130Y-141583769D01*
X95106315Y-141666152D01*
X95176205Y-141734357D01*
X95225183Y-141784112D01*
X95248633Y-141811141D01*
X95250000Y-141814160D01*
X95235725Y-141832783D01*
X95196071Y-141876148D01*
X95135796Y-141939269D01*
X95059659Y-142017157D01*
X94979095Y-142098164D01*
X94891959Y-142183552D01*
X94814816Y-142256206D01*
X94752642Y-142311676D01*
X94710412Y-142345515D01*
X94693345Y-142353623D01*
X94688497Y-142328567D01*
X94684312Y-142268358D01*
X94681070Y-142180173D01*
X94679050Y-142071191D01*
X94678500Y-141971889D01*
X94678500Y-141605000D01*
X94424500Y-141605000D01*
X94424500Y-142451666D01*
X94498583Y-142451666D01*
X94547566Y-142455774D01*
X94572032Y-142465874D01*
X94572667Y-142468009D01*
X94558500Y-142488524D01*
X94519982Y-142532078D01*
X94463088Y-142592168D01*
X94397599Y-142658509D01*
X94222532Y-142832666D01*
X94069516Y-142832666D01*
X93986191Y-142834679D01*
X93938061Y-142841622D01*
X93918138Y-142854857D01*
X93916500Y-142862458D01*
X93901053Y-142882292D01*
X93851480Y-142894733D01*
X93800054Y-142899499D01*
X93683609Y-142906750D01*
X93683638Y-141872580D01*
X93683667Y-140838411D01*
X93731292Y-140849774D01*
G36*
X105715821Y-133287196D02*
G01*
X105789925Y-133327201D01*
X105804241Y-133340150D01*
X105842212Y-133404697D01*
X105854216Y-133485810D01*
X105840333Y-133556820D01*
X105804372Y-133595286D01*
X105738135Y-133624897D01*
X105653121Y-133643668D01*
X105560825Y-133649616D01*
X105472747Y-133640754D01*
X105428011Y-133628003D01*
X105363768Y-133585991D01*
X105318637Y-133523547D01*
X105304167Y-133464561D01*
X105323208Y-133396665D01*
X105374249Y-133341076D01*
X105448159Y-133300063D01*
X105535810Y-133275898D01*
X105628073Y-133270852D01*
X105715821Y-133287196D01*
G37*
X105715821Y-133287196D02*
X105789925Y-133327201D01*
X105804241Y-133340150D01*
X105842212Y-133404697D01*
X105854216Y-133485810D01*
X105840333Y-133556820D01*
X105804372Y-133595286D01*
X105738135Y-133624897D01*
X105653121Y-133643668D01*
X105560825Y-133649616D01*
X105472747Y-133640754D01*
X105428011Y-133628003D01*
X105363768Y-133585991D01*
X105318637Y-133523547D01*
X105304167Y-133464561D01*
X105323208Y-133396665D01*
X105374249Y-133341076D01*
X105448159Y-133300063D01*
X105535810Y-133275898D01*
X105628073Y-133270852D01*
X105715821Y-133287196D01*
G36*
X93258052Y-141755953D02*
G01*
X93270300Y-141769303D01*
X93277337Y-141800700D01*
X93280588Y-141857629D01*
X93281479Y-141947574D01*
X93281500Y-141975416D01*
X93280969Y-142074565D01*
X93278426Y-142138869D01*
X93272446Y-142175813D01*
X93261602Y-142192880D01*
X93244470Y-142197556D01*
X93239167Y-142197666D01*
X93220281Y-142194880D01*
X93208033Y-142181530D01*
X93200996Y-142150133D01*
X93197745Y-142093204D01*
X93196854Y-142003259D01*
X93196833Y-141975416D01*
X93197364Y-141876268D01*
X93199907Y-141811964D01*
X93205887Y-141775020D01*
X93216731Y-141757953D01*
X93233863Y-141753277D01*
X93239167Y-141753166D01*
X93258052Y-141755953D01*
G37*
X93258052Y-141755953D02*
X93270300Y-141769303D01*
X93277337Y-141800700D01*
X93280588Y-141857629D01*
X93281479Y-141947574D01*
X93281500Y-141975416D01*
X93280969Y-142074565D01*
X93278426Y-142138869D01*
X93272446Y-142175813D01*
X93261602Y-142192880D01*
X93244470Y-142197556D01*
X93239167Y-142197666D01*
X93220281Y-142194880D01*
X93208033Y-142181530D01*
X93200996Y-142150133D01*
X93197745Y-142093204D01*
X93196854Y-142003259D01*
X93196833Y-141975416D01*
X93197364Y-141876268D01*
X93199907Y-141811964D01*
X93205887Y-141775020D01*
X93216731Y-141757953D01*
X93233863Y-141753277D01*
X93239167Y-141753166D01*
X93258052Y-141755953D01*
G36*
X98330348Y-130134256D02*
G01*
X98460250Y-130144133D01*
X98563966Y-130159207D01*
X98577634Y-130162183D01*
X98767617Y-130222649D01*
X98925124Y-130307891D01*
X99049030Y-130417101D01*
X99138208Y-130549470D01*
X99148943Y-130572216D01*
X99179985Y-130672795D01*
X99198766Y-130798895D01*
X99204824Y-130935380D01*
X99197699Y-131067118D01*
X99176930Y-131178972D01*
X99168241Y-131205657D01*
X99093900Y-131352710D01*
X98989178Y-131473421D01*
X98853252Y-131568200D01*
X98685298Y-131637455D01*
X98484491Y-131681597D01*
X98250008Y-131701035D01*
X98169718Y-131702108D01*
X97929098Y-131688643D01*
X97719548Y-131649179D01*
X97541777Y-131584095D01*
X97396498Y-131493771D01*
X97284419Y-131378585D01*
X97206250Y-131238918D01*
X97184466Y-131175692D01*
X97161280Y-131053617D01*
X97154554Y-130915045D01*
X97163399Y-130774192D01*
X97186925Y-130645274D01*
X97224087Y-130542806D01*
X97316398Y-130409429D01*
X97442869Y-130300059D01*
X97602235Y-130215527D01*
X97793231Y-130156664D01*
X97821038Y-130150796D01*
X97919604Y-130137844D01*
X98046417Y-130130906D01*
X98187867Y-130129778D01*
X98330348Y-130134256D01*
G37*
X98330348Y-130134256D02*
X98460250Y-130144133D01*
X98563966Y-130159207D01*
X98577634Y-130162183D01*
X98767617Y-130222649D01*
X98925124Y-130307891D01*
X99049030Y-130417101D01*
X99138208Y-130549470D01*
X99148943Y-130572216D01*
X99179985Y-130672795D01*
X99198766Y-130798895D01*
X99204824Y-130935380D01*
X99197699Y-131067118D01*
X99176930Y-131178972D01*
X99168241Y-131205657D01*
X99093900Y-131352710D01*
X98989178Y-131473421D01*
X98853252Y-131568200D01*
X98685298Y-131637455D01*
X98484491Y-131681597D01*
X98250008Y-131701035D01*
X98169718Y-131702108D01*
X97929098Y-131688643D01*
X97719548Y-131649179D01*
X97541777Y-131584095D01*
X97396498Y-131493771D01*
X97284419Y-131378585D01*
X97206250Y-131238918D01*
X97184466Y-131175692D01*
X97161280Y-131053617D01*
X97154554Y-130915045D01*
X97163399Y-130774192D01*
X97186925Y-130645274D01*
X97224087Y-130542806D01*
X97316398Y-130409429D01*
X97442869Y-130300059D01*
X97602235Y-130215527D01*
X97793231Y-130156664D01*
X97821038Y-130150796D01*
X97919604Y-130137844D01*
X98046417Y-130130906D01*
X98187867Y-130129778D01*
X98330348Y-130134256D01*
G36*
X95747298Y-142263753D02*
G01*
X95856855Y-142366968D01*
X95955485Y-142461065D01*
X96039159Y-142542106D01*
X96103850Y-142606150D01*
X96145528Y-142649258D01*
X96160167Y-142667457D01*
X96144144Y-142684199D01*
X96140460Y-142684500D01*
X96115633Y-142686374D01*
X96053362Y-142691717D01*
X95958354Y-142700105D01*
X95835320Y-142711117D01*
X95688969Y-142724332D01*
X95524009Y-142739327D01*
X95345151Y-142755680D01*
X95313500Y-142758583D01*
X95090375Y-142778983D01*
X94905784Y-142795622D01*
X94756116Y-142808725D01*
X94637760Y-142818520D01*
X94547105Y-142825231D01*
X94480539Y-142829084D01*
X94434453Y-142830304D01*
X94405234Y-142829118D01*
X94389271Y-142825752D01*
X94382954Y-142820430D01*
X94382283Y-142816791D01*
X94396950Y-142798685D01*
X94438455Y-142754881D01*
X94503145Y-142689046D01*
X94587364Y-142604847D01*
X94687459Y-142505951D01*
X94799776Y-142396024D01*
X94858415Y-142339003D01*
X95334430Y-141877090D01*
X95747298Y-142263753D01*
G37*
X95747298Y-142263753D02*
X95856855Y-142366968D01*
X95955485Y-142461065D01*
X96039159Y-142542106D01*
X96103850Y-142606150D01*
X96145528Y-142649258D01*
X96160167Y-142667457D01*
X96144144Y-142684199D01*
X96140460Y-142684500D01*
X96115633Y-142686374D01*
X96053362Y-142691717D01*
X95958354Y-142700105D01*
X95835320Y-142711117D01*
X95688969Y-142724332D01*
X95524009Y-142739327D01*
X95345151Y-142755680D01*
X95313500Y-142758583D01*
X95090375Y-142778983D01*
X94905784Y-142795622D01*
X94756116Y-142808725D01*
X94637760Y-142818520D01*
X94547105Y-142825231D01*
X94480539Y-142829084D01*
X94434453Y-142830304D01*
X94405234Y-142829118D01*
X94389271Y-142825752D01*
X94382954Y-142820430D01*
X94382283Y-142816791D01*
X94396950Y-142798685D01*
X94438455Y-142754881D01*
X94503145Y-142689046D01*
X94587364Y-142604847D01*
X94687459Y-142505951D01*
X94799776Y-142396024D01*
X94858415Y-142339003D01*
X95334430Y-141877090D01*
X95747298Y-142263753D01*
G36*
X101157949Y-130398892D02*
G01*
X101170615Y-130436330D01*
X101175698Y-130504442D01*
X101176663Y-130608614D01*
X101176667Y-130629554D01*
X101176667Y-130872441D01*
X101107875Y-130859808D01*
X101007008Y-130825118D01*
X100939413Y-130764520D01*
X100905592Y-130678575D01*
X100901500Y-130627654D01*
X100920358Y-130541695D01*
X100970212Y-130466108D01*
X101039809Y-130416749D01*
X101096011Y-130394489D01*
X101134236Y-130386741D01*
X101157949Y-130398892D01*
G37*
X101157949Y-130398892D02*
X101170615Y-130436330D01*
X101175698Y-130504442D01*
X101176663Y-130608614D01*
X101176667Y-130629554D01*
X101176667Y-130872441D01*
X101107875Y-130859808D01*
X101007008Y-130825118D01*
X100939413Y-130764520D01*
X100905592Y-130678575D01*
X100901500Y-130627654D01*
X100920358Y-130541695D01*
X100970212Y-130466108D01*
X101039809Y-130416749D01*
X101096011Y-130394489D01*
X101134236Y-130386741D01*
X101157949Y-130398892D01*
G36*
X94278586Y-142985297D02*
G01*
X94292512Y-143005794D01*
X94297170Y-143052985D01*
X94297500Y-143086666D01*
X94297500Y-143192500D01*
X94159917Y-143192500D01*
X94089849Y-143190148D01*
X94040295Y-143183994D01*
X94022333Y-143175740D01*
X94038211Y-143145658D01*
X94078380Y-143102053D01*
X94131642Y-143054483D01*
X94186800Y-143012508D01*
X94232657Y-142985683D01*
X94250676Y-142980833D01*
X94278586Y-142985297D01*
G37*
X94278586Y-142985297D02*
X94292512Y-143005794D01*
X94297170Y-143052985D01*
X94297500Y-143086666D01*
X94297500Y-143192500D01*
X94159917Y-143192500D01*
X94089849Y-143190148D01*
X94040295Y-143183994D01*
X94022333Y-143175740D01*
X94038211Y-143145658D01*
X94078380Y-143102053D01*
X94131642Y-143054483D01*
X94186800Y-143012508D01*
X94232657Y-142985683D01*
X94250676Y-142980833D01*
X94278586Y-142985297D01*
G36*
X100921346Y-147464237D02*
G01*
X100323188Y-147463782D01*
X99684387Y-147463282D01*
X99525667Y-147463157D01*
X98806000Y-147462589D01*
X92716085Y-147457781D01*
X92466583Y-147457583D01*
X92345077Y-147408513D01*
X92172091Y-147316832D01*
X92016678Y-147191549D01*
X91886255Y-147040079D01*
X91788238Y-146869835D01*
X91775008Y-146838759D01*
X91725750Y-146716750D01*
X91725750Y-145171583D01*
X101039083Y-145171583D01*
X101764401Y-145183145D01*
X101773814Y-144902197D01*
X101779508Y-144773543D01*
X101787947Y-144674611D01*
X101801010Y-144592803D01*
X101820578Y-144515516D01*
X101841002Y-144451916D01*
X101917305Y-144263451D01*
X102013466Y-144093768D01*
X102136713Y-143931655D01*
X102264608Y-143794969D01*
X102365185Y-143698926D01*
X102451976Y-143626250D01*
X102537730Y-143567327D01*
X102635200Y-143512542D01*
X102647750Y-143506065D01*
X102731259Y-143466113D01*
X102827171Y-143424620D01*
X102925480Y-143385400D01*
X103016182Y-143352271D01*
X103089271Y-143329050D01*
X103134742Y-143319552D01*
X103136813Y-143319500D01*
X103138827Y-143339838D01*
X103140666Y-143397538D01*
X103142270Y-143487631D01*
X103143579Y-143605143D01*
X103144532Y-143745106D01*
X103145069Y-143902548D01*
X103145167Y-144007416D01*
X103145167Y-144695333D01*
X103886000Y-144695333D01*
X103886000Y-144005990D01*
X103886118Y-143816900D01*
X103886626Y-143665966D01*
X103887750Y-143549011D01*
X103889720Y-143461859D01*
X103892762Y-143400330D01*
X103897106Y-143360250D01*
X103902980Y-143337441D01*
X103910611Y-143327725D01*
X103920227Y-143326926D01*
X103923042Y-143327652D01*
X103970721Y-143340533D01*
X104023583Y-143353543D01*
X104073388Y-143368834D01*
X104147519Y-143395781D01*
X104231515Y-143429076D01*
X104247580Y-143435759D01*
X104484944Y-143557645D01*
X104696943Y-143712243D01*
X104880908Y-143896526D01*
X105034168Y-144107470D01*
X105154054Y-144342048D01*
X105223103Y-144540997D01*
X105248959Y-144651807D01*
X105264106Y-144768101D01*
X105270471Y-144906128D01*
X105270905Y-144943971D01*
X105272417Y-145182025D01*
X105637542Y-145182096D01*
X106002667Y-145182166D01*
X106002667Y-144951671D01*
X105999418Y-144833666D01*
X105990709Y-144709298D01*
X105978095Y-144597961D01*
X105970663Y-144552466D01*
X105893185Y-144254365D01*
X105778454Y-143972853D01*
X105629122Y-143710389D01*
X105447841Y-143469433D01*
X105237265Y-143252445D01*
X105000045Y-143061886D01*
X104738835Y-142900216D01*
X104456287Y-142769894D01*
X104155054Y-142673382D01*
X103886814Y-142619842D01*
X103728317Y-142604828D01*
X103545621Y-142600770D01*
X103352715Y-142606969D01*
X103163590Y-142622725D01*
X102992236Y-142647340D01*
X102889605Y-142669662D01*
X102577740Y-142771171D01*
X102287579Y-142906265D01*
X102021406Y-143072644D01*
X101781505Y-143268011D01*
X101769333Y-143280799D01*
X101570160Y-143490066D01*
X101389655Y-143736511D01*
X101242273Y-144005047D01*
X101130299Y-144293376D01*
X101076714Y-144494250D01*
X101062368Y-144582515D01*
X101050876Y-144698091D01*
X101043515Y-144825984D01*
X101041565Y-144907000D01*
X101039083Y-145171583D01*
X91725750Y-145171583D01*
X91725750Y-139379048D01*
X92678250Y-139379048D01*
X92731167Y-139435462D01*
X92757587Y-139461619D01*
X92811492Y-139513341D01*
X92889391Y-139587337D01*
X92987798Y-139680314D01*
X93103221Y-139788979D01*
X93232174Y-139910039D01*
X93371166Y-140040203D01*
X93455315Y-140118859D01*
X93595885Y-140250480D01*
X93726132Y-140373050D01*
X93842947Y-140483597D01*
X93943222Y-140579152D01*
X94023848Y-140656743D01*
X94081715Y-140713400D01*
X94113716Y-140746152D01*
X94119167Y-140753222D01*
X94096307Y-140754949D01*
X94040523Y-140753729D01*
X93961099Y-140749871D01*
X93897727Y-140745858D01*
X93683667Y-140731115D01*
X93683667Y-140638891D01*
X93681662Y-140581522D01*
X93670293Y-140554802D01*
X93641529Y-140547064D01*
X93620167Y-140546666D01*
X93576774Y-140551125D01*
X93559541Y-140573218D01*
X93556667Y-140617204D01*
X93549693Y-140668004D01*
X93521961Y-140706378D01*
X93477644Y-140738912D01*
X93419126Y-140786241D01*
X93356249Y-140851079D01*
X93324225Y-140890625D01*
X93266714Y-140957606D01*
X93219021Y-140988264D01*
X93200544Y-140991166D01*
X93175861Y-140993301D01*
X93161572Y-141005543D01*
X93155322Y-141036646D01*
X93154755Y-141095367D01*
X93156402Y-141155208D01*
X93157081Y-141274833D01*
X93152174Y-141387860D01*
X93142593Y-141486857D01*
X93129251Y-141564395D01*
X93113061Y-141613042D01*
X93098544Y-141626166D01*
X93087427Y-141634086D01*
X93079452Y-141661348D01*
X93074172Y-141713212D01*
X93071143Y-141794936D01*
X93069918Y-141911777D01*
X93069833Y-141964833D01*
X93070375Y-142093920D01*
X93072352Y-142186358D01*
X93076288Y-142247825D01*
X93082709Y-142283996D01*
X93092141Y-142300546D01*
X93101180Y-142303500D01*
X93129365Y-142321489D01*
X93142301Y-142351125D01*
X93177696Y-142511192D01*
X93212056Y-142637249D01*
X93248330Y-142737432D01*
X93289469Y-142819877D01*
X93338424Y-142892718D01*
X93338965Y-142893427D01*
X93372168Y-142940334D01*
X93381344Y-142971838D01*
X93369131Y-143005415D01*
X93358625Y-143023717D01*
X93327658Y-143100649D01*
X93335274Y-143167942D01*
X93371458Y-143223092D01*
X93441499Y-143277657D01*
X93516738Y-143291041D01*
X93592924Y-143262855D01*
X93616314Y-143245410D01*
X93662923Y-143196822D01*
X93681562Y-143144491D01*
X93683667Y-143105952D01*
X93685880Y-143052586D01*
X93700752Y-143029152D01*
X93740628Y-143023327D01*
X93766602Y-143023166D01*
X93829307Y-143019992D01*
X93877332Y-143012169D01*
X93883019Y-143010319D01*
X93907092Y-143010567D01*
X93916010Y-143042053D01*
X93916500Y-143060726D01*
X93913405Y-143079515D01*
X93902355Y-143103210D01*
X93880701Y-143134648D01*
X93845797Y-143176664D01*
X93794993Y-143232094D01*
X93725642Y-143303773D01*
X93635097Y-143394536D01*
X93520708Y-143507219D01*
X93379829Y-143644657D01*
X93286791Y-143735032D01*
X93131918Y-143885516D01*
X93005159Y-144009295D01*
X92904096Y-144108988D01*
X92826310Y-144187212D01*
X92769382Y-144246587D01*
X92730894Y-144289730D01*
X92708427Y-144319260D01*
X92699561Y-144337794D01*
X92701879Y-144347951D01*
X92712961Y-144352348D01*
X92716085Y-144352775D01*
X92734664Y-144351679D01*
X92758067Y-144342670D01*
X92789443Y-144323020D01*
X92831940Y-144290005D01*
X92888705Y-144240897D01*
X92962888Y-144172972D01*
X93057637Y-144083502D01*
X93176100Y-143969763D01*
X93321425Y-143829028D01*
X93325103Y-143825457D01*
X93875120Y-143291447D01*
X94139227Y-143296400D01*
X94403333Y-143301354D01*
X94403333Y-143130510D01*
X94404704Y-143043760D01*
X94409814Y-142991536D01*
X94420156Y-142966091D01*
X94436283Y-142959666D01*
X94463722Y-142957764D01*
X94528834Y-142952322D01*
X94627142Y-142943742D01*
X94754169Y-142932426D01*
X94905438Y-142918772D01*
X95076473Y-142903183D01*
X95262796Y-142886059D01*
X95389180Y-142874370D01*
X96309128Y-142789073D01*
X96988449Y-143425316D01*
X97156661Y-143582451D01*
X97296804Y-143712361D01*
X97411325Y-143817156D01*
X97502673Y-143898952D01*
X97573294Y-143959860D01*
X97625637Y-144001995D01*
X97662149Y-144027470D01*
X97685278Y-144038398D01*
X97697135Y-144037187D01*
X97722266Y-144009548D01*
X97726500Y-143998812D01*
X97711573Y-143981437D01*
X97669332Y-143939017D01*
X97603586Y-143875204D01*
X97518142Y-143793649D01*
X97416809Y-143698004D01*
X97303396Y-143591920D01*
X97260833Y-143552333D01*
X97144005Y-143443300D01*
X97037909Y-143343260D01*
X96946357Y-143255889D01*
X96873162Y-143184865D01*
X96822136Y-143133862D01*
X96797089Y-143106557D01*
X96795167Y-143103262D01*
X96814042Y-143093178D01*
X96861574Y-143087290D01*
X96886272Y-143086666D01*
X96987627Y-143067830D01*
X97087424Y-143017094D01*
X97171982Y-142943121D01*
X97217512Y-142876936D01*
X97253910Y-142763822D01*
X97255736Y-142645056D01*
X97225275Y-142531343D01*
X97164810Y-142433384D01*
X97112495Y-142384693D01*
X97049167Y-142337872D01*
X97049167Y-141308666D01*
X97260833Y-141308666D01*
X97260833Y-141075833D01*
X97156052Y-141075833D01*
X97078763Y-141069552D01*
X97037862Y-141049980D01*
X97033149Y-141043454D01*
X97015615Y-141029730D01*
X96976136Y-141017405D01*
X96909693Y-141005598D01*
X96811263Y-140993425D01*
X96675825Y-140980003D01*
X96668074Y-140979291D01*
X96551910Y-140968340D01*
X96451549Y-140958289D01*
X96374108Y-140949899D01*
X96326707Y-140943929D01*
X96315201Y-140941590D01*
X96328745Y-140926177D01*
X96369863Y-140884306D01*
X96435613Y-140818863D01*
X96523057Y-140732734D01*
X96629253Y-140628804D01*
X96751261Y-140509960D01*
X96886142Y-140379086D01*
X97029618Y-140240360D01*
X97197649Y-140077936D01*
X97337396Y-139942208D01*
X97451228Y-139830678D01*
X97497473Y-139784666D01*
X98806000Y-139784666D01*
X98806000Y-143891000D01*
X99800833Y-143891000D01*
X99800833Y-141023595D01*
X101031583Y-141023595D01*
X101032598Y-141075833D01*
X101039083Y-141255750D01*
X101404208Y-141261541D01*
X101769333Y-141267333D01*
X101769646Y-141039291D01*
X101778667Y-140838221D01*
X101807104Y-140660493D01*
X101857917Y-140490444D01*
X101887568Y-140415346D01*
X102003516Y-140193067D01*
X102154394Y-139989152D01*
X102335181Y-139807974D01*
X102540854Y-139653906D01*
X102766389Y-139531321D01*
X103000627Y-139446286D01*
X103269950Y-139391276D01*
X103536400Y-139374903D01*
X103796509Y-139395328D01*
X104046812Y-139450712D01*
X104283843Y-139539217D01*
X104504135Y-139659004D01*
X104704224Y-139808235D01*
X104880642Y-139985071D01*
X105029924Y-140187674D01*
X105148604Y-140414205D01*
X105223103Y-140625163D01*
X105248959Y-140735974D01*
X105264106Y-140852268D01*
X105270471Y-140990295D01*
X105270905Y-141028137D01*
X105272417Y-141266191D01*
X106002667Y-141266333D01*
X106002667Y-141046856D01*
X105999203Y-140927610D01*
X105989962Y-140798696D01*
X105976670Y-140681946D01*
X105970913Y-140645288D01*
X105898922Y-140354496D01*
X105787068Y-140074481D01*
X105637173Y-139808631D01*
X105549768Y-139692025D01*
X105451056Y-139560334D01*
X105301953Y-139400507D01*
X105156000Y-139274595D01*
X105088507Y-139216369D01*
X105061007Y-139192644D01*
X104903152Y-139088533D01*
X104798348Y-139019411D01*
X104517533Y-138881474D01*
X104222122Y-138779500D01*
X103915672Y-138714155D01*
X103601742Y-138686106D01*
X103283889Y-138696020D01*
X102965673Y-138744563D01*
X102650652Y-138832402D01*
X102523325Y-138879896D01*
X102307307Y-138979807D01*
X102106769Y-139101618D01*
X101912185Y-139251798D01*
X101736609Y-139414250D01*
X101610741Y-139543195D01*
X101600000Y-139555365D01*
X101510333Y-139656970D01*
X101427341Y-139766281D01*
X101353720Y-139881835D01*
X101281428Y-140014338D01*
X101272286Y-140032228D01*
X101170700Y-140267965D01*
X101094806Y-140520114D01*
X101047475Y-140776162D01*
X101031583Y-141023595D01*
X99800833Y-141023595D01*
X99800833Y-139784666D01*
X98806000Y-139784666D01*
X97497473Y-139784666D01*
X97541514Y-139740846D01*
X97610624Y-139670212D01*
X97660927Y-139616277D01*
X97694793Y-139576541D01*
X97714591Y-139548504D01*
X97722690Y-139529667D01*
X97721460Y-139517531D01*
X97718506Y-139513601D01*
X97702754Y-139503847D01*
X97681613Y-139506735D01*
X97649731Y-139525962D01*
X97601751Y-139565223D01*
X97532319Y-139628215D01*
X97475908Y-139681035D01*
X97409272Y-139744278D01*
X97317708Y-139831880D01*
X97206601Y-139938653D01*
X97081338Y-140059406D01*
X96947304Y-140188951D01*
X96809886Y-140322098D01*
X96721053Y-140408357D01*
X96177349Y-140936797D01*
X95964375Y-140919239D01*
X95327383Y-140866724D01*
X95137895Y-140850960D01*
X94958189Y-140835741D01*
X94793426Y-140821522D01*
X94648768Y-140808761D01*
X94529376Y-140797915D01*
X94440414Y-140789440D01*
X94387042Y-140783794D01*
X94379191Y-140782784D01*
X94355278Y-140778464D01*
X94331055Y-140770839D01*
X94303582Y-140757435D01*
X94269916Y-140735777D01*
X94227119Y-140703390D01*
X94172249Y-140657800D01*
X94102365Y-140596533D01*
X94014526Y-140517114D01*
X93905793Y-140417068D01*
X93773223Y-140293920D01*
X93613877Y-140145197D01*
X93545199Y-140081000D01*
X93368034Y-139915756D01*
X93218901Y-139777635D01*
X93095283Y-139664453D01*
X92994663Y-139574027D01*
X92914522Y-139504174D01*
X92852343Y-139452710D01*
X92805609Y-139417453D01*
X92771802Y-139396219D01*
X92748405Y-139386825D01*
X92743841Y-139386066D01*
X92678250Y-139379048D01*
X91725750Y-139379048D01*
X91725750Y-134583023D01*
X96837500Y-134583023D01*
X96838574Y-134687222D01*
X96842231Y-134754407D01*
X96849124Y-134789855D01*
X96859902Y-134798842D01*
X96863958Y-134797187D01*
X96886945Y-134781638D01*
X96940355Y-134744569D01*
X97020038Y-134688888D01*
X97121844Y-134617506D01*
X97241622Y-134533331D01*
X97375224Y-134439273D01*
X97493667Y-134355763D01*
X97635615Y-134255684D01*
X97767203Y-134163046D01*
X97884276Y-134080761D01*
X97982682Y-134011745D01*
X98058266Y-133958910D01*
X98106874Y-133925170D01*
X98123753Y-133913758D01*
X98148737Y-133921380D01*
X98206450Y-133953931D01*
X98295895Y-134010752D01*
X98416072Y-134091188D01*
X98565986Y-134194579D01*
X98744639Y-134320269D01*
X98799475Y-134359225D01*
X98946606Y-134463870D01*
X99083527Y-134561102D01*
X99206258Y-134648106D01*
X99310817Y-134722066D01*
X99393224Y-134780166D01*
X99449497Y-134819592D01*
X99475657Y-134837527D01*
X99476430Y-134838010D01*
X99488992Y-134838023D01*
X99497314Y-134816207D01*
X99502147Y-134766791D01*
X99504242Y-134684007D01*
X99504500Y-134622341D01*
X99504500Y-134389746D01*
X99385364Y-134308339D01*
X100502376Y-134308339D01*
X100515294Y-134432335D01*
X100545414Y-134512600D01*
X100612911Y-134605358D01*
X100698744Y-134660076D01*
X100804317Y-134677516D01*
X100845460Y-134675034D01*
X100917899Y-134661431D01*
X100988380Y-134634406D01*
X101062847Y-134589927D01*
X101147247Y-134523959D01*
X101247526Y-134432469D01*
X101345622Y-134335725D01*
X101424441Y-134257293D01*
X101493165Y-134190873D01*
X101546176Y-134141744D01*
X101577855Y-134115185D01*
X101583747Y-134112000D01*
X101589493Y-134131925D01*
X101594347Y-134186739D01*
X101597915Y-134269001D01*
X101599803Y-134371270D01*
X101600000Y-134418916D01*
X101600000Y-134725833D01*
X101705833Y-134725833D01*
X101705833Y-134334250D01*
X101705696Y-134196773D01*
X101704839Y-134095947D01*
X101702600Y-134026092D01*
X101698312Y-133981526D01*
X101691310Y-133956567D01*
X101680929Y-133945534D01*
X101666505Y-133942746D01*
X101659998Y-133942666D01*
X101628880Y-133956172D01*
X101623531Y-133958494D01*
X101561135Y-134005075D01*
X101474472Y-134081054D01*
X101379540Y-134171077D01*
X101263530Y-134282774D01*
X101171485Y-134367960D01*
X101098122Y-134430727D01*
X101038160Y-134475169D01*
X100986316Y-134505381D01*
X100937307Y-134525455D01*
X100912751Y-134532825D01*
X100807076Y-134544914D01*
X100720075Y-134522822D01*
X100655087Y-134471829D01*
X100615447Y-134397210D01*
X100604493Y-134304243D01*
X100625562Y-134198207D01*
X100656503Y-134127587D01*
X100685690Y-134070183D01*
X100695629Y-134036821D01*
X100687547Y-134014490D01*
X100668926Y-133995818D01*
X100644973Y-133978029D01*
X100625409Y-133981164D01*
X100601379Y-134010977D01*
X100572751Y-134058310D01*
X100521773Y-134179605D01*
X100502376Y-134308339D01*
X99385364Y-134308339D01*
X98981986Y-134032707D01*
X98850330Y-133942232D01*
X98730451Y-133858866D01*
X98626713Y-133785722D01*
X98543482Y-133725914D01*
X98485121Y-133682557D01*
X98455996Y-133658764D01*
X98453536Y-133655709D01*
X98468863Y-133639249D01*
X98515097Y-133602254D01*
X98588010Y-133547804D01*
X98643991Y-133507400D01*
X100801305Y-133507400D01*
X100805429Y-133641474D01*
X100823046Y-133718146D01*
X100846164Y-133758322D01*
X100879282Y-133767829D01*
X100899510Y-133763381D01*
X100928708Y-133748332D01*
X100936665Y-133719928D01*
X100929503Y-133671158D01*
X100915777Y-133541370D01*
X100933240Y-133439524D01*
X100982884Y-133364478D01*
X101065699Y-133315091D01*
X101182677Y-133290222D01*
X101263495Y-133286579D01*
X101395283Y-133297509D01*
X101494809Y-133331725D01*
X101566356Y-133391147D01*
X101595350Y-133435302D01*
X101609064Y-133488484D01*
X101612869Y-133565664D01*
X101607222Y-133649794D01*
X101592580Y-133723827D01*
X101587179Y-133739782D01*
X101587875Y-133765065D01*
X101621834Y-133773243D01*
X101628880Y-133773333D01*
X101670557Y-133764059D01*
X101695361Y-133728561D01*
X101703319Y-133704541D01*
X101723684Y-133577054D01*
X101719329Y-133520668D01*
X105157179Y-133520668D01*
X105182443Y-133633084D01*
X105229241Y-133721194D01*
X105316196Y-133802219D01*
X105426142Y-133854936D01*
X105549768Y-133878401D01*
X105677766Y-133871672D01*
X105800827Y-133833807D01*
X105880576Y-133787154D01*
X105951513Y-133710722D01*
X105999325Y-133608757D01*
X106021447Y-133492730D01*
X106015315Y-133374115D01*
X105991276Y-133291886D01*
X105928714Y-133186018D01*
X105841565Y-133112087D01*
X105727297Y-133068617D01*
X105583782Y-133054131D01*
X105443595Y-133069650D01*
X105328055Y-133118262D01*
X105233661Y-133201441D01*
X105233588Y-133201528D01*
X105182863Y-133291576D01*
X105157356Y-133402394D01*
X105157179Y-133520668D01*
X101719329Y-133520668D01*
X101714072Y-133452616D01*
X101702953Y-133411367D01*
X101671009Y-133345059D01*
X101626336Y-133282370D01*
X101623578Y-133279318D01*
X101555990Y-133216862D01*
X101484131Y-133177486D01*
X101395886Y-133156743D01*
X101279144Y-133150182D01*
X101271917Y-133150145D01*
X101176859Y-133152218D01*
X101108594Y-133161189D01*
X101051754Y-133180090D01*
X101008152Y-133202175D01*
X100904795Y-133282053D01*
X100864364Y-133342015D01*
X100835091Y-133385429D01*
X100801305Y-133507400D01*
X98643991Y-133507400D01*
X98683374Y-133478976D01*
X98796962Y-133398850D01*
X98924544Y-133310505D01*
X98975087Y-133275916D01*
X99469112Y-132938909D01*
X100796037Y-132938909D01*
X100800282Y-132991635D01*
X100825828Y-133023651D01*
X100864364Y-133028693D01*
X100895652Y-133016721D01*
X100913417Y-132984581D01*
X100923638Y-132926666D01*
X100941663Y-132835705D01*
X100974121Y-132766427D01*
X100985088Y-132755797D01*
X104796167Y-132755797D01*
X104812949Y-132802461D01*
X104853506Y-132842630D01*
X104903152Y-132865830D01*
X104945689Y-132862441D01*
X105003231Y-132814316D01*
X105023879Y-132756128D01*
X105005858Y-132696107D01*
X104986667Y-132672666D01*
X104958416Y-132651500D01*
X105156000Y-132651500D01*
X105156000Y-132863166D01*
X106002667Y-132863166D01*
X106002667Y-132651500D01*
X105156000Y-132651500D01*
X104958416Y-132651500D01*
X104944761Y-132641270D01*
X104912583Y-132630333D01*
X104868500Y-132647656D01*
X104825625Y-132688855D01*
X104798946Y-132737781D01*
X104796167Y-132755797D01*
X100985088Y-132755797D01*
X101025954Y-132716185D01*
X101102104Y-132682327D01*
X101207514Y-132662204D01*
X101347126Y-132653166D01*
X101435958Y-132651965D01*
X101705833Y-132651500D01*
X101705833Y-132524500D01*
X100816833Y-132524500D01*
X100816833Y-132577416D01*
X100825701Y-132617825D01*
X100859994Y-132630166D01*
X100868019Y-132630333D01*
X100932739Y-132634832D01*
X100959015Y-132651150D01*
X100948161Y-132683520D01*
X100901492Y-132736174D01*
X100901044Y-132736622D01*
X100847425Y-132803387D01*
X100812087Y-132873487D01*
X100796037Y-132938909D01*
X99469112Y-132938909D01*
X99502573Y-132916083D01*
X99503537Y-132688541D01*
X99502894Y-132596137D01*
X99500410Y-132521780D01*
X99496500Y-132474113D01*
X99492575Y-132461000D01*
X99473188Y-132472811D01*
X99423167Y-132506449D01*
X99346388Y-132559222D01*
X99246726Y-132628437D01*
X99128057Y-132711402D01*
X98994256Y-132805424D01*
X98849198Y-132907812D01*
X98836757Y-132916613D01*
X98690057Y-133020167D01*
X98553515Y-133116071D01*
X98431148Y-133201540D01*
X98326971Y-133273790D01*
X98244999Y-133330037D01*
X98189250Y-133367496D01*
X98163738Y-133383382D01*
X98163242Y-133383594D01*
X98139217Y-133374411D01*
X98112406Y-133358890D01*
X98084346Y-133342645D01*
X98002059Y-133290554D01*
X97895786Y-133220400D01*
X97768960Y-133134440D01*
X97625010Y-133034934D01*
X97490851Y-132940756D01*
X96848083Y-132486551D01*
X96842008Y-132699886D01*
X96840333Y-132792492D01*
X96840714Y-132870130D01*
X96843001Y-132922457D01*
X96845408Y-132937911D01*
X96864768Y-132955841D01*
X96914679Y-132994111D01*
X96990565Y-133049437D01*
X97087850Y-133118535D01*
X97201955Y-133198122D01*
X97328306Y-133284913D01*
X97343004Y-133294928D01*
X97470478Y-133382092D01*
X97586363Y-133462052D01*
X97686066Y-133531582D01*
X97764995Y-133587454D01*
X97818556Y-133626442D01*
X97842158Y-133645318D01*
X97842740Y-133646047D01*
X97828889Y-133662208D01*
X97784052Y-133698704D01*
X97712487Y-133752424D01*
X97618455Y-133820255D01*
X97506216Y-133899085D01*
X97380030Y-133985804D01*
X97345927Y-134008944D01*
X96837500Y-134353048D01*
X96837500Y-134583023D01*
X91725750Y-134583023D01*
X91725750Y-132307055D01*
X105774878Y-132307055D01*
X105800319Y-132366791D01*
X105849593Y-132409126D01*
X105910641Y-132418764D01*
X105968433Y-132395371D01*
X105991511Y-132371041D01*
X106017992Y-132307124D01*
X106002804Y-132248269D01*
X106002667Y-132248130D01*
X105955042Y-132199699D01*
X105896833Y-132156401D01*
X105838625Y-132199819D01*
X105786512Y-132252688D01*
X105774878Y-132307055D01*
X91725750Y-132307055D01*
X91725750Y-130983690D01*
X96805369Y-130983690D01*
X96818315Y-131143029D01*
X96845508Y-131281407D01*
X96856892Y-131318000D01*
X96949489Y-131524021D01*
X97074164Y-131702642D01*
X97230169Y-131853194D01*
X97416757Y-131975008D01*
X97633179Y-132067416D01*
X97726500Y-132095608D01*
X97829508Y-132114978D01*
X97962183Y-132127604D01*
X98112406Y-132133515D01*
X98268056Y-132132741D01*
X98417012Y-132125311D01*
X98547155Y-132111255D01*
X98636667Y-132093382D01*
X98860622Y-132013670D01*
X99056931Y-131905534D01*
X99223432Y-131770955D01*
X99357964Y-131611917D01*
X99458364Y-131430401D01*
X99505714Y-131296299D01*
X99534566Y-131148382D01*
X100816833Y-131148382D01*
X100817249Y-131171719D01*
X100821687Y-131190924D01*
X100834933Y-131208411D01*
X100861772Y-131226593D01*
X100906990Y-131247885D01*
X100975373Y-131274698D01*
X101071705Y-131309448D01*
X101200774Y-131354547D01*
X101280496Y-131382223D01*
X101407237Y-131427294D01*
X101496147Y-131461564D01*
X101549980Y-131486277D01*
X101571488Y-131502674D01*
X101566246Y-131511066D01*
X101533653Y-131523056D01*
X101468555Y-131546501D01*
X101378357Y-131578751D01*
X101270469Y-131617154D01*
X101176667Y-131650432D01*
X100827417Y-131774155D01*
X100820570Y-131845272D01*
X100819009Y-131892150D01*
X100830539Y-131906624D01*
X100852320Y-131901195D01*
X100884083Y-131888898D01*
X100948125Y-131864260D01*
X101037189Y-131830069D01*
X101144015Y-131789111D01*
X101240167Y-131752281D01*
X101358097Y-131707102D01*
X101466087Y-131665684D01*
X101556327Y-131631024D01*
X101621008Y-131606122D01*
X101648905Y-131595318D01*
X101688230Y-131574288D01*
X101702769Y-131542857D01*
X101701821Y-131493248D01*
X101697117Y-131436821D01*
X105156000Y-131436821D01*
X105304167Y-131508500D01*
X105374149Y-131544245D01*
X105426310Y-131574489D01*
X105451376Y-131593752D01*
X105452333Y-131596015D01*
X105435052Y-131612830D01*
X105389175Y-131643368D01*
X105323654Y-131681796D01*
X105304308Y-131692468D01*
X105156283Y-131773083D01*
X105156141Y-131886643D01*
X105156859Y-131951593D01*
X105162156Y-131981890D01*
X105176432Y-131985212D01*
X105203625Y-131969536D01*
X105282050Y-131920888D01*
X105366581Y-131871419D01*
X105448194Y-131826051D01*
X105517866Y-131789707D01*
X105566575Y-131767308D01*
X105583026Y-131762554D01*
X105605567Y-131768543D01*
X105646675Y-131787994D01*
X105710531Y-131823222D01*
X105801316Y-131876541D01*
X105923209Y-131950266D01*
X105933875Y-131956776D01*
X106002667Y-131998786D01*
X106002525Y-131885935D01*
X106002383Y-131773083D01*
X105854358Y-131692468D01*
X105785306Y-131653896D01*
X105733447Y-131623089D01*
X105707669Y-131605386D01*
X105706333Y-131603545D01*
X105723397Y-131590031D01*
X105768535Y-131561851D01*
X105832663Y-131524627D01*
X105845652Y-131517327D01*
X105914279Y-131476334D01*
X105967107Y-131439889D01*
X105994018Y-131415059D01*
X105995154Y-131412879D01*
X106000117Y-131375945D01*
X105999799Y-131317128D01*
X105998710Y-131299912D01*
X105992083Y-131213481D01*
X105591591Y-131449107D01*
X105589917Y-131448260D01*
X105506087Y-131405822D01*
X105442279Y-131372137D01*
X105360830Y-131327299D01*
X105288292Y-131286126D01*
X105156000Y-131209715D01*
X105156000Y-131436821D01*
X101697117Y-131436821D01*
X101695250Y-131414421D01*
X101282500Y-131257794D01*
X101261419Y-131249794D01*
X101134798Y-131201834D01*
X101022253Y-131159374D01*
X100929531Y-131124571D01*
X100862383Y-131099579D01*
X100826559Y-131086552D01*
X100822210Y-131085166D01*
X100818425Y-131103597D01*
X100816833Y-131147960D01*
X100816833Y-131148382D01*
X99534566Y-131148382D01*
X99535687Y-131142633D01*
X99548700Y-130966892D01*
X99544756Y-130785784D01*
X99523861Y-130616018D01*
X99515599Y-130579485D01*
X100805006Y-130579485D01*
X100806133Y-130703368D01*
X100806777Y-130707285D01*
X100843921Y-130807212D01*
X100914330Y-130892373D01*
X101009806Y-130956546D01*
X101122152Y-130993510D01*
X101192542Y-131000035D01*
X101282500Y-131000500D01*
X101282500Y-130386666D01*
X101351292Y-130386746D01*
X101446725Y-130406396D01*
X101527256Y-130460294D01*
X101586437Y-130541207D01*
X101617822Y-130641903D01*
X101621167Y-130689539D01*
X101614803Y-130754734D01*
X101598842Y-130832885D01*
X101591488Y-130859552D01*
X101574735Y-130918465D01*
X101572486Y-130947480D01*
X101586878Y-130957186D01*
X101611406Y-130958166D01*
X101653592Y-130950625D01*
X101681319Y-130921741D01*
X101702426Y-130862123D01*
X101707044Y-130843597D01*
X101723678Y-130709099D01*
X101721849Y-130683000D01*
X105156000Y-130683000D01*
X105171160Y-130816186D01*
X105218083Y-130923164D01*
X105298936Y-131007995D01*
X105346272Y-131039617D01*
X105408618Y-131071501D01*
X105469037Y-131088373D01*
X105545464Y-131094265D01*
X105589917Y-131094409D01*
X105712609Y-131084707D01*
X105807195Y-131055369D01*
X105884971Y-131002233D01*
X105911569Y-130975901D01*
X105979695Y-130873618D01*
X106016213Y-130753188D01*
X106019001Y-130626841D01*
X105990960Y-130518278D01*
X105925914Y-130409243D01*
X105833685Y-130331770D01*
X105730165Y-130288204D01*
X105588320Y-130264823D01*
X105458806Y-130277632D01*
X105346380Y-130323361D01*
X105255799Y-130398738D01*
X105191821Y-130500491D01*
X105162559Y-130612506D01*
X105159204Y-130625350D01*
X105156000Y-130683000D01*
X101721849Y-130683000D01*
X101714098Y-130572404D01*
X101703374Y-130524250D01*
X101654721Y-130423685D01*
X101573237Y-130339908D01*
X101467346Y-130280210D01*
X101397270Y-130259325D01*
X101250290Y-130244831D01*
X101116472Y-130262141D01*
X101000427Y-130307757D01*
X100906762Y-130378184D01*
X100864364Y-130436520D01*
X100840085Y-130469926D01*
X100805006Y-130579485D01*
X99515599Y-130579485D01*
X99505501Y-130534833D01*
X99435798Y-130357649D01*
X99329220Y-130192247D01*
X99190579Y-130043038D01*
X99185468Y-130039076D01*
X100796037Y-130039076D01*
X100800282Y-130091802D01*
X100825828Y-130123818D01*
X100864364Y-130128859D01*
X100895652Y-130116888D01*
X100913417Y-130084748D01*
X100918035Y-130058583D01*
X105156000Y-130058583D01*
X105157079Y-130122357D01*
X105159862Y-130164643D01*
X105162559Y-130175000D01*
X105182874Y-130168374D01*
X105235856Y-130150190D01*
X105314259Y-130122989D01*
X105410832Y-130089312D01*
X105518328Y-130051700D01*
X105629497Y-130012694D01*
X105737092Y-129974835D01*
X105833865Y-129940665D01*
X105912565Y-129912723D01*
X105965946Y-129893552D01*
X105977225Y-129889413D01*
X105993426Y-129866840D01*
X105999649Y-129811628D01*
X105998392Y-129748922D01*
X105992083Y-129618629D01*
X105611083Y-129484087D01*
X105489604Y-129441243D01*
X105380157Y-129402741D01*
X105289671Y-129371014D01*
X105225081Y-129348491D01*
X105193317Y-129337602D01*
X105193042Y-129337513D01*
X105171832Y-129335824D01*
X105160642Y-129354233D01*
X105156436Y-129401414D01*
X105156000Y-129443323D01*
X105156866Y-129507541D01*
X105159102Y-129550342D01*
X105161325Y-129561166D01*
X105186693Y-129566862D01*
X105243069Y-129582203D01*
X105321630Y-129604575D01*
X105413556Y-129631360D01*
X105510025Y-129659942D01*
X105602215Y-129687706D01*
X105681305Y-129712033D01*
X105738473Y-129730309D01*
X105764898Y-129739917D01*
X105765613Y-129740391D01*
X105765983Y-129762560D01*
X105765613Y-129762942D01*
X105743811Y-129771237D01*
X105690124Y-129788539D01*
X105613373Y-129812231D01*
X105522381Y-129839697D01*
X105425969Y-129868321D01*
X105332958Y-129895486D01*
X105252171Y-129918576D01*
X105192428Y-129934974D01*
X105162551Y-129942065D01*
X105161325Y-129942166D01*
X105158408Y-129961318D01*
X105156474Y-130010719D01*
X105156000Y-130058583D01*
X100918035Y-130058583D01*
X100923638Y-130026833D01*
X100941663Y-129935871D01*
X100974121Y-129866594D01*
X101025954Y-129816352D01*
X101102104Y-129782494D01*
X101207514Y-129762371D01*
X101347126Y-129753332D01*
X101435958Y-129752131D01*
X101705833Y-129751666D01*
X101705833Y-129624666D01*
X100816833Y-129624666D01*
X100816833Y-129677583D01*
X100825701Y-129717991D01*
X100859994Y-129730333D01*
X100868019Y-129730500D01*
X100932739Y-129734999D01*
X100959015Y-129751317D01*
X100948161Y-129783687D01*
X100901492Y-129836341D01*
X100901044Y-129836789D01*
X100847425Y-129903553D01*
X100812087Y-129973654D01*
X100796037Y-130039076D01*
X99185468Y-130039076D01*
X99024685Y-129914433D01*
X98836350Y-129810841D01*
X98636667Y-129738399D01*
X98536210Y-129718940D01*
X98405637Y-129705746D01*
X98256704Y-129698843D01*
X98101164Y-129698254D01*
X97950773Y-129704004D01*
X97817286Y-129716117D01*
X97712456Y-129734618D01*
X97705333Y-129736462D01*
X97480940Y-129815249D01*
X97286888Y-129923283D01*
X97123547Y-130060226D01*
X96991284Y-130225737D01*
X96890466Y-130419477D01*
X96852769Y-130524250D01*
X96822522Y-130659865D01*
X96806747Y-130817824D01*
X96805369Y-130983690D01*
X91725750Y-130983690D01*
X91725750Y-129256193D01*
X95948500Y-129256193D01*
X95949920Y-129347018D01*
X95953757Y-129419678D01*
X95959379Y-129465381D01*
X95964375Y-129476679D01*
X95986226Y-129469745D01*
X96045065Y-129449568D01*
X96138021Y-129417163D01*
X96262222Y-129373545D01*
X96414799Y-129319731D01*
X96592879Y-129256735D01*
X96793590Y-129185573D01*
X96808812Y-129180166D01*
X105156000Y-129180166D01*
X106002667Y-129180166D01*
X106002667Y-128968500D01*
X105928583Y-128968500D01*
X105872455Y-128963032D01*
X105857214Y-128946614D01*
X105882850Y-128919226D01*
X105897511Y-128909489D01*
X105951918Y-128857541D01*
X105997061Y-128783879D01*
X106021897Y-128708056D01*
X106023754Y-128685949D01*
X106014488Y-128625276D01*
X105991811Y-128558341D01*
X105989170Y-128552601D01*
X105957153Y-128498607D01*
X105915368Y-128458303D01*
X105857735Y-128429849D01*
X105778174Y-128411409D01*
X105683074Y-128402335D01*
X105670603Y-128401144D01*
X105528943Y-128397218D01*
X105474343Y-128397000D01*
X105156000Y-128397000D01*
X105156000Y-128605467D01*
X105454252Y-128612358D01*
X105572619Y-128615460D01*
X105656100Y-128619209D01*
X105712136Y-128624853D01*
X105748171Y-128633642D01*
X105771646Y-128646826D01*
X105790004Y-128665655D01*
X105792919Y-128669220D01*
X105828284Y-128743507D01*
X105824697Y-128823874D01*
X105789464Y-128891562D01*
X105770880Y-128913656D01*
X105750847Y-128928975D01*
X105721830Y-128938760D01*
X105676299Y-128944251D01*
X105606720Y-128946689D01*
X105505562Y-128947313D01*
X105450797Y-128947333D01*
X105156000Y-128947333D01*
X105156000Y-129180166D01*
X96808812Y-129180166D01*
X97014063Y-129107261D01*
X97251425Y-129022814D01*
X97502806Y-128933249D01*
X97743043Y-128847539D01*
X99505836Y-128218220D01*
X99499876Y-127998636D01*
X99493917Y-127779052D01*
X99208167Y-127677039D01*
X97726500Y-127148078D01*
X97133851Y-126936500D01*
X105156000Y-126936500D01*
X105156000Y-127148166D01*
X105230083Y-127148166D01*
X105279050Y-127153483D01*
X105303527Y-127166555D01*
X105304167Y-127169333D01*
X105287925Y-127189725D01*
X105281989Y-127190500D01*
X105254015Y-127204770D01*
X105214290Y-127239791D01*
X105207906Y-127246507D01*
X105173333Y-127295699D01*
X105158216Y-127355752D01*
X105156000Y-127408050D01*
X105159953Y-127477275D01*
X105177544Y-127524879D01*
X105217366Y-127571271D01*
X105229725Y-127583117D01*
X105303451Y-127652649D01*
X105229725Y-127726374D01*
X105182915Y-127779843D01*
X105161339Y-127829399D01*
X105156003Y-127896040D01*
X105156000Y-127898518D01*
X105162786Y-127973076D01*
X105179753Y-128040242D01*
X105186817Y-128056530D01*
X105216785Y-128101769D01*
X105257392Y-128135399D01*
X105314690Y-128158991D01*
X105394732Y-128174117D01*
X105503570Y-128182347D01*
X105647257Y-128185253D01*
X105683074Y-128185333D01*
X106002667Y-128185333D01*
X106002667Y-127952500D01*
X105702708Y-127952500D01*
X105579416Y-127951729D01*
X105491383Y-127948930D01*
X105431556Y-127943372D01*
X105392880Y-127934328D01*
X105368302Y-127921066D01*
X105364042Y-127917469D01*
X105331552Y-127862141D01*
X105330032Y-127793028D01*
X105359381Y-127725100D01*
X105365386Y-127717227D01*
X105383626Y-127697577D01*
X105406150Y-127683660D01*
X105440390Y-127674210D01*
X105493773Y-127667963D01*
X105573730Y-127663653D01*
X105687690Y-127660016D01*
X105704052Y-127659563D01*
X106002667Y-127651362D01*
X106002667Y-127444500D01*
X105702708Y-127444500D01*
X105579416Y-127443729D01*
X105491383Y-127440930D01*
X105431556Y-127435372D01*
X105392880Y-127426328D01*
X105368302Y-127413066D01*
X105364042Y-127409469D01*
X105331523Y-127354103D01*
X105330098Y-127284940D01*
X105359639Y-127216772D01*
X105365775Y-127208720D01*
X105384043Y-127188880D01*
X105406298Y-127174870D01*
X105439986Y-127165429D01*
X105492549Y-127159299D01*
X105571431Y-127155220D01*
X105684076Y-127151933D01*
X105704442Y-127151428D01*
X106002667Y-127144107D01*
X106002667Y-126936500D01*
X105156000Y-126936500D01*
X97133851Y-126936500D01*
X95959083Y-126517103D01*
X95953013Y-126730256D01*
X95952015Y-126821394D01*
X95954190Y-126896177D01*
X95959087Y-126944860D01*
X95963596Y-126957966D01*
X95988812Y-126969597D01*
X96050136Y-126993381D01*
X96143569Y-127027936D01*
X96265108Y-127071881D01*
X96410751Y-127123832D01*
X96576497Y-127182408D01*
X96758345Y-127246227D01*
X96952292Y-127313906D01*
X97154337Y-127384064D01*
X97360478Y-127455317D01*
X97566714Y-127526285D01*
X97769043Y-127595585D01*
X97963463Y-127661835D01*
X98145974Y-127723652D01*
X98312572Y-127779654D01*
X98459257Y-127828460D01*
X98582026Y-127868687D01*
X98676879Y-127898953D01*
X98739814Y-127917876D01*
X98753083Y-127921443D01*
X98847697Y-127946330D01*
X98927210Y-127969014D01*
X98982563Y-127986795D01*
X99004054Y-127996211D01*
X98995149Y-128008301D01*
X98953851Y-128023964D01*
X98898221Y-128037773D01*
X98840339Y-128051016D01*
X98770252Y-128069499D01*
X98685109Y-128094162D01*
X98582061Y-128125945D01*
X98458261Y-128165789D01*
X98310859Y-128214635D01*
X98137006Y-128273423D01*
X97933853Y-128343093D01*
X97698552Y-128424587D01*
X97428253Y-128518844D01*
X97218500Y-128592288D01*
X97015270Y-128663528D01*
X96820635Y-128731723D01*
X96638939Y-128795355D01*
X96474524Y-128852903D01*
X96331732Y-128902849D01*
X96214906Y-128943673D01*
X96128389Y-128973856D01*
X96076523Y-128991878D01*
X96070208Y-128994056D01*
X95948500Y-129035886D01*
X95948500Y-129256193D01*
X91725750Y-129256193D01*
X91725750Y-126026333D01*
X96837500Y-126026333D01*
X97928263Y-126026333D01*
X98184336Y-126026444D01*
X98401469Y-126026961D01*
X98583055Y-126028162D01*
X98732489Y-126030323D01*
X98853163Y-126033721D01*
X98948471Y-126038635D01*
X99021807Y-126045340D01*
X99076562Y-126054115D01*
X99116132Y-126065235D01*
X99143910Y-126078978D01*
X99163288Y-126095622D01*
X99177660Y-126115443D01*
X99185296Y-126128983D01*
X99198788Y-126174979D01*
X99207002Y-126243055D01*
X99208167Y-126278942D01*
X99208167Y-126386166D01*
X99501217Y-126386166D01*
X99525861Y-126311493D01*
X99539025Y-126249290D01*
X99547541Y-126165773D01*
X99549460Y-126100532D01*
X99546797Y-126079191D01*
X105111584Y-126079191D01*
X105131037Y-126100432D01*
X105188373Y-126110845D01*
X105198333Y-126111000D01*
X105283000Y-126111000D01*
X105283000Y-126216833D01*
X105286399Y-126283388D01*
X105298167Y-126315894D01*
X105314750Y-126322666D01*
X105334716Y-126311337D01*
X105344468Y-126272110D01*
X105346500Y-126216833D01*
X105346500Y-126111000D01*
X105595790Y-126111000D01*
X105724756Y-126113022D01*
X105817303Y-126120768D01*
X105879224Y-126136759D01*
X105916313Y-126163514D01*
X105934363Y-126203553D01*
X105939166Y-126259397D01*
X105939167Y-126260367D01*
X105945185Y-126320239D01*
X105964174Y-126343292D01*
X105969153Y-126343833D01*
X106000933Y-126325377D01*
X106019229Y-126277508D01*
X106022336Y-126211474D01*
X106008547Y-126138524D01*
X106002801Y-126121937D01*
X105973960Y-126076211D01*
X105923969Y-126043121D01*
X105847708Y-126021217D01*
X105740062Y-126009050D01*
X105595914Y-126005170D01*
X105590596Y-126005166D01*
X105346500Y-126005166D01*
X105346500Y-125952250D01*
X105338995Y-125908971D01*
X105320511Y-125903653D01*
X105297094Y-125935497D01*
X105287127Y-125960092D01*
X105283000Y-125967083D01*
X105259740Y-126006488D01*
X105210243Y-126030650D01*
X105189807Y-126035134D01*
X105130885Y-126054849D01*
X105111584Y-126079191D01*
X99546797Y-126079191D01*
X99531417Y-125955923D01*
X99479859Y-125837076D01*
X99395015Y-125744309D01*
X99327105Y-125706082D01*
X105010891Y-125706082D01*
X105031056Y-125738877D01*
X105039583Y-125743512D01*
X105088507Y-125748102D01*
X105122184Y-125728057D01*
X105133455Y-125695007D01*
X105115164Y-125660580D01*
X105097792Y-125648938D01*
X105084293Y-125645333D01*
X105283000Y-125645333D01*
X105283000Y-125751166D01*
X106002667Y-125751166D01*
X106002667Y-125645333D01*
X105283000Y-125645333D01*
X105084293Y-125645333D01*
X105054085Y-125637266D01*
X105052739Y-125637409D01*
X105034292Y-125639374D01*
X105011605Y-125665740D01*
X105010891Y-125706082D01*
X99327105Y-125706082D01*
X99277114Y-125677942D01*
X99234625Y-125663007D01*
X99180467Y-125642997D01*
X99148412Y-125625039D01*
X99144667Y-125619429D01*
X99158790Y-125598908D01*
X99196915Y-125555858D01*
X99252679Y-125497245D01*
X99299532Y-125449958D01*
X99374051Y-125373465D01*
X99424804Y-125313035D01*
X99459795Y-125256749D01*
X99487024Y-125192686D01*
X99500729Y-125152283D01*
X105267207Y-125152283D01*
X105268787Y-125261936D01*
X105271596Y-125280641D01*
X105289353Y-125357226D01*
X105312179Y-125396457D01*
X105343520Y-125403281D01*
X105354700Y-125399902D01*
X105380266Y-125374122D01*
X105376903Y-125351560D01*
X105360058Y-125287979D01*
X105351971Y-125209528D01*
X105353305Y-125134131D01*
X105364726Y-125079713D01*
X105366676Y-125075683D01*
X105397416Y-125041831D01*
X105447396Y-125034674D01*
X105458489Y-125035555D01*
X105493866Y-125042300D01*
X105520533Y-125060007D01*
X105545543Y-125097212D01*
X105575950Y-125162452D01*
X105589374Y-125193969D01*
X105636761Y-125298373D01*
X105678520Y-125368287D01*
X105720564Y-125409950D01*
X105768803Y-125429601D01*
X105816458Y-125433666D01*
X105898245Y-125414715D01*
X105965395Y-125364401D01*
X106005728Y-125292536D01*
X106009124Y-125278458D01*
X106019850Y-125180204D01*
X106017320Y-125079447D01*
X106002156Y-124996994D01*
X106000596Y-124992325D01*
X105969737Y-124939414D01*
X105934831Y-124925666D01*
X105904567Y-124933966D01*
X105907715Y-124962708D01*
X105923390Y-125022846D01*
X105933687Y-125104081D01*
X105936982Y-125186169D01*
X105931651Y-125248866D01*
X105930916Y-125251991D01*
X105904541Y-125302051D01*
X105874617Y-125328395D01*
X105827222Y-125343948D01*
X105784999Y-125332883D01*
X105743408Y-125291294D01*
X105697911Y-125215271D01*
X105665294Y-125148141D01*
X105624449Y-125067160D01*
X105584301Y-125000121D01*
X105551280Y-124957308D01*
X105540665Y-124948795D01*
X105462634Y-124926041D01*
X105392020Y-124940257D01*
X105333076Y-124986199D01*
X105290054Y-125058623D01*
X105283000Y-125087540D01*
X105267207Y-125152283D01*
X99500729Y-125152283D01*
X99502128Y-125148158D01*
X99535192Y-125015648D01*
X99548970Y-124874401D01*
X99549857Y-124819976D01*
X99539768Y-124658547D01*
X105011332Y-124658547D01*
X105018664Y-124701763D01*
X105052739Y-124721144D01*
X105097928Y-124711095D01*
X105128821Y-124678493D01*
X105125219Y-124643552D01*
X105091366Y-124621004D01*
X105071333Y-124618750D01*
X105024993Y-124632990D01*
X105011332Y-124658547D01*
X99539768Y-124658547D01*
X99539504Y-124654325D01*
X99528507Y-124608166D01*
X105283000Y-124608166D01*
X105283000Y-124714000D01*
X106002667Y-124714000D01*
X106002667Y-124608166D01*
X105283000Y-124608166D01*
X99528507Y-124608166D01*
X99506102Y-124514123D01*
X99446137Y-124387263D01*
X99406961Y-124327659D01*
X99368506Y-124272960D01*
X99342449Y-124234327D01*
X99335163Y-124221826D01*
X99355498Y-124220783D01*
X99413194Y-124220254D01*
X99503279Y-124220224D01*
X99620784Y-124220677D01*
X99760737Y-124221596D01*
X99918170Y-124222966D01*
X100023079Y-124224042D01*
X100711000Y-124231502D01*
X100711000Y-123803833D01*
X96837500Y-123803833D01*
X96837500Y-124227166D01*
X97757208Y-124227166D01*
X97996250Y-124227713D01*
X98209339Y-124229310D01*
X98393650Y-124231897D01*
X98546359Y-124235411D01*
X98664642Y-124239790D01*
X98745674Y-124244973D01*
X98781709Y-124249640D01*
X98923725Y-124299078D01*
X99040692Y-124379558D01*
X99128028Y-124487781D01*
X99138501Y-124506605D01*
X99164277Y-124558547D01*
X99181165Y-124604738D01*
X99190957Y-124656201D01*
X99195441Y-124723961D01*
X99196409Y-124819040D01*
X99196241Y-124862166D01*
X99193506Y-124986899D01*
X99186217Y-125078192D01*
X99173358Y-125144794D01*
X99158718Y-125185430D01*
X99098281Y-125285199D01*
X99014091Y-125381075D01*
X98920478Y-125457789D01*
X98881527Y-125480761D01*
X98830265Y-125506220D01*
X98782099Y-125527365D01*
X98732559Y-125544643D01*
X98677175Y-125558498D01*
X98611476Y-125569376D01*
X98530991Y-125577724D01*
X98431251Y-125583986D01*
X98307784Y-125588608D01*
X98156121Y-125592036D01*
X97971790Y-125594716D01*
X97750322Y-125597093D01*
X97710625Y-125597480D01*
X96837500Y-125605929D01*
X96837500Y-126026333D01*
X91725750Y-126026333D01*
X91725750Y-123787276D01*
X105283000Y-123787276D01*
X105283000Y-123843395D01*
X105285347Y-123866815D01*
X105296584Y-123886259D01*
X105322999Y-123905208D01*
X105370884Y-123927143D01*
X105446530Y-123955544D01*
X105552875Y-123992736D01*
X105657489Y-124028963D01*
X105751680Y-124061748D01*
X105826115Y-124087831D01*
X105871465Y-124103952D01*
X105875667Y-124105489D01*
X105892627Y-124111598D01*
X105903041Y-124117243D01*
X105902784Y-124124278D01*
X105887732Y-124134561D01*
X105853760Y-124149948D01*
X105796744Y-124172294D01*
X105712559Y-124203456D01*
X105597082Y-124245291D01*
X105446187Y-124299654D01*
X105436458Y-124303160D01*
X105357805Y-124333114D01*
X105311476Y-124356508D01*
X105289289Y-124379090D01*
X105283063Y-124406609D01*
X105283000Y-124410995D01*
X105289607Y-124447806D01*
X105302686Y-124456472D01*
X105328156Y-124447053D01*
X105386363Y-124425388D01*
X105470391Y-124394054D01*
X105573326Y-124355629D01*
X105662233Y-124322416D01*
X106002094Y-124195416D01*
X106002380Y-124128475D01*
X106000089Y-124093799D01*
X105987351Y-124069002D01*
X105955909Y-124047358D01*
X105897506Y-124022136D01*
X105849208Y-124003664D01*
X105758786Y-123969413D01*
X105647564Y-123927064D01*
X105534243Y-123883744D01*
X105489375Y-123866535D01*
X105283000Y-123787276D01*
X91725750Y-123787276D01*
X91725750Y-122523250D01*
X91775008Y-122401241D01*
X91866610Y-122228481D01*
X91991914Y-122073201D01*
X92143501Y-121942816D01*
X92313954Y-121844738D01*
X92345077Y-121831487D01*
X92466583Y-121782416D01*
X106669417Y-121782416D01*
X106791426Y-121831675D01*
X106964186Y-121923277D01*
X107119465Y-122048580D01*
X107249850Y-122200168D01*
X107347928Y-122370621D01*
X107361180Y-122401743D01*
X107410250Y-122523250D01*
X107414442Y-134588250D01*
X107414735Y-135443333D01*
X107415006Y-136257116D01*
X107415251Y-137030629D01*
X107415468Y-137764906D01*
X107415652Y-138460979D01*
X107415803Y-139119880D01*
X107415915Y-139742641D01*
X107415987Y-140330294D01*
X107416016Y-140883873D01*
X107415998Y-141404408D01*
X107415932Y-141892933D01*
X107415813Y-142350479D01*
X107415639Y-142778079D01*
X107415407Y-143176765D01*
X107415115Y-143547570D01*
X107414758Y-143891525D01*
X107414335Y-144209663D01*
X107413843Y-144503017D01*
X107413277Y-144772617D01*
X107412637Y-145019498D01*
X107411918Y-145244690D01*
X107411117Y-145449227D01*
X107410233Y-145634140D01*
X107409261Y-145800462D01*
X107408200Y-145949225D01*
X107407045Y-146081461D01*
X107405795Y-146198203D01*
X107404445Y-146300482D01*
X107402994Y-146389332D01*
X107401439Y-146465784D01*
X107399776Y-146530871D01*
X107398002Y-146585624D01*
X107396115Y-146631077D01*
X107394112Y-146668261D01*
X107391990Y-146698208D01*
X107389745Y-146721952D01*
X107387376Y-146740524D01*
X107384878Y-146754956D01*
X107382250Y-146766281D01*
X107380003Y-146773949D01*
X107298298Y-146963546D01*
X107184019Y-147128052D01*
X107040338Y-147264317D01*
X106870427Y-147369193D01*
X106722333Y-147426995D01*
X106709202Y-147430830D01*
X106695003Y-147434421D01*
X106678370Y-147437775D01*
X106657939Y-147440899D01*
X106632346Y-147443800D01*
X106600226Y-147446484D01*
X106560214Y-147448958D01*
X106510946Y-147451229D01*
X106451057Y-147453305D01*
X106379182Y-147455192D01*
X106293958Y-147456896D01*
X106194018Y-147458425D01*
X106077999Y-147459786D01*
X105944535Y-147460985D01*
X105792263Y-147462029D01*
X105619818Y-147462925D01*
X105425835Y-147463680D01*
X105208949Y-147464301D01*
X104967795Y-147464795D01*
X104701010Y-147465168D01*
X104407229Y-147465428D01*
X104085086Y-147465581D01*
X103733217Y-147465634D01*
X103350259Y-147465593D01*
X102934845Y-147465467D01*
X102485611Y-147465261D01*
X102001193Y-147464983D01*
X101764401Y-147464827D01*
X101480227Y-147464639D01*
X100921346Y-147464237D01*
G37*
X100921346Y-147464237D02*
X100323188Y-147463782D01*
X99684387Y-147463282D01*
X99525667Y-147463157D01*
X98806000Y-147462589D01*
X92716085Y-147457781D01*
X92466583Y-147457583D01*
X92345077Y-147408513D01*
X92172091Y-147316832D01*
X92016678Y-147191549D01*
X91886255Y-147040079D01*
X91788238Y-146869835D01*
X91775008Y-146838759D01*
X91725750Y-146716750D01*
X91725750Y-145171583D01*
X101039083Y-145171583D01*
X101764401Y-145183145D01*
X101773814Y-144902197D01*
X101779508Y-144773543D01*
X101787947Y-144674611D01*
X101801010Y-144592803D01*
X101820578Y-144515516D01*
X101841002Y-144451916D01*
X101917305Y-144263451D01*
X102013466Y-144093768D01*
X102136713Y-143931655D01*
X102264608Y-143794969D01*
X102365185Y-143698926D01*
X102451976Y-143626250D01*
X102537730Y-143567327D01*
X102635200Y-143512542D01*
X102647750Y-143506065D01*
X102731259Y-143466113D01*
X102827171Y-143424620D01*
X102925480Y-143385400D01*
X103016182Y-143352271D01*
X103089271Y-143329050D01*
X103134742Y-143319552D01*
X103136813Y-143319500D01*
X103138827Y-143339838D01*
X103140666Y-143397538D01*
X103142270Y-143487631D01*
X103143579Y-143605143D01*
X103144532Y-143745106D01*
X103145069Y-143902548D01*
X103145167Y-144007416D01*
X103145167Y-144695333D01*
X103886000Y-144695333D01*
X103886000Y-144005990D01*
X103886118Y-143816900D01*
X103886626Y-143665966D01*
X103887750Y-143549011D01*
X103889720Y-143461859D01*
X103892762Y-143400330D01*
X103897106Y-143360250D01*
X103902980Y-143337441D01*
X103910611Y-143327725D01*
X103920227Y-143326926D01*
X103923042Y-143327652D01*
X103970721Y-143340533D01*
X104023583Y-143353543D01*
X104073388Y-143368834D01*
X104147519Y-143395781D01*
X104231515Y-143429076D01*
X104247580Y-143435759D01*
X104484944Y-143557645D01*
X104696943Y-143712243D01*
X104880908Y-143896526D01*
X105034168Y-144107470D01*
X105154054Y-144342048D01*
X105223103Y-144540997D01*
X105248959Y-144651807D01*
X105264106Y-144768101D01*
X105270471Y-144906128D01*
X105270905Y-144943971D01*
X105272417Y-145182025D01*
X105637542Y-145182096D01*
X106002667Y-145182166D01*
X106002667Y-144951671D01*
X105999418Y-144833666D01*
X105990709Y-144709298D01*
X105978095Y-144597961D01*
X105970663Y-144552466D01*
X105893185Y-144254365D01*
X105778454Y-143972853D01*
X105629122Y-143710389D01*
X105447841Y-143469433D01*
X105237265Y-143252445D01*
X105000045Y-143061886D01*
X104738835Y-142900216D01*
X104456287Y-142769894D01*
X104155054Y-142673382D01*
X103886814Y-142619842D01*
X103728317Y-142604828D01*
X103545621Y-142600770D01*
X103352715Y-142606969D01*
X103163590Y-142622725D01*
X102992236Y-142647340D01*
X102889605Y-142669662D01*
X102577740Y-142771171D01*
X102287579Y-142906265D01*
X102021406Y-143072644D01*
X101781505Y-143268011D01*
X101769333Y-143280799D01*
X101570160Y-143490066D01*
X101389655Y-143736511D01*
X101242273Y-144005047D01*
X101130299Y-144293376D01*
X101076714Y-144494250D01*
X101062368Y-144582515D01*
X101050876Y-144698091D01*
X101043515Y-144825984D01*
X101041565Y-144907000D01*
X101039083Y-145171583D01*
X91725750Y-145171583D01*
X91725750Y-139379048D01*
X92678250Y-139379048D01*
X92731167Y-139435462D01*
X92757587Y-139461619D01*
X92811492Y-139513341D01*
X92889391Y-139587337D01*
X92987798Y-139680314D01*
X93103221Y-139788979D01*
X93232174Y-139910039D01*
X93371166Y-140040203D01*
X93455315Y-140118859D01*
X93595885Y-140250480D01*
X93726132Y-140373050D01*
X93842947Y-140483597D01*
X93943222Y-140579152D01*
X94023848Y-140656743D01*
X94081715Y-140713400D01*
X94113716Y-140746152D01*
X94119167Y-140753222D01*
X94096307Y-140754949D01*
X94040523Y-140753729D01*
X93961099Y-140749871D01*
X93897727Y-140745858D01*
X93683667Y-140731115D01*
X93683667Y-140638891D01*
X93681662Y-140581522D01*
X93670293Y-140554802D01*
X93641529Y-140547064D01*
X93620167Y-140546666D01*
X93576774Y-140551125D01*
X93559541Y-140573218D01*
X93556667Y-140617204D01*
X93549693Y-140668004D01*
X93521961Y-140706378D01*
X93477644Y-140738912D01*
X93419126Y-140786241D01*
X93356249Y-140851079D01*
X93324225Y-140890625D01*
X93266714Y-140957606D01*
X93219021Y-140988264D01*
X93200544Y-140991166D01*
X93175861Y-140993301D01*
X93161572Y-141005543D01*
X93155322Y-141036646D01*
X93154755Y-141095367D01*
X93156402Y-141155208D01*
X93157081Y-141274833D01*
X93152174Y-141387860D01*
X93142593Y-141486857D01*
X93129251Y-141564395D01*
X93113061Y-141613042D01*
X93098544Y-141626166D01*
X93087427Y-141634086D01*
X93079452Y-141661348D01*
X93074172Y-141713212D01*
X93071143Y-141794936D01*
X93069918Y-141911777D01*
X93069833Y-141964833D01*
X93070375Y-142093920D01*
X93072352Y-142186358D01*
X93076288Y-142247825D01*
X93082709Y-142283996D01*
X93092141Y-142300546D01*
X93101180Y-142303500D01*
X93129365Y-142321489D01*
X93142301Y-142351125D01*
X93177696Y-142511192D01*
X93212056Y-142637249D01*
X93248330Y-142737432D01*
X93289469Y-142819877D01*
X93338424Y-142892718D01*
X93338965Y-142893427D01*
X93372168Y-142940334D01*
X93381344Y-142971838D01*
X93369131Y-143005415D01*
X93358625Y-143023717D01*
X93327658Y-143100649D01*
X93335274Y-143167942D01*
X93371458Y-143223092D01*
X93441499Y-143277657D01*
X93516738Y-143291041D01*
X93592924Y-143262855D01*
X93616314Y-143245410D01*
X93662923Y-143196822D01*
X93681562Y-143144491D01*
X93683667Y-143105952D01*
X93685880Y-143052586D01*
X93700752Y-143029152D01*
X93740628Y-143023327D01*
X93766602Y-143023166D01*
X93829307Y-143019992D01*
X93877332Y-143012169D01*
X93883019Y-143010319D01*
X93907092Y-143010567D01*
X93916010Y-143042053D01*
X93916500Y-143060726D01*
X93913405Y-143079515D01*
X93902355Y-143103210D01*
X93880701Y-143134648D01*
X93845797Y-143176664D01*
X93794993Y-143232094D01*
X93725642Y-143303773D01*
X93635097Y-143394536D01*
X93520708Y-143507219D01*
X93379829Y-143644657D01*
X93286791Y-143735032D01*
X93131918Y-143885516D01*
X93005159Y-144009295D01*
X92904096Y-144108988D01*
X92826310Y-144187212D01*
X92769382Y-144246587D01*
X92730894Y-144289730D01*
X92708427Y-144319260D01*
X92699561Y-144337794D01*
X92701879Y-144347951D01*
X92712961Y-144352348D01*
X92716085Y-144352775D01*
X92734664Y-144351679D01*
X92758067Y-144342670D01*
X92789443Y-144323020D01*
X92831940Y-144290005D01*
X92888705Y-144240897D01*
X92962888Y-144172972D01*
X93057637Y-144083502D01*
X93176100Y-143969763D01*
X93321425Y-143829028D01*
X93325103Y-143825457D01*
X93875120Y-143291447D01*
X94139227Y-143296400D01*
X94403333Y-143301354D01*
X94403333Y-143130510D01*
X94404704Y-143043760D01*
X94409814Y-142991536D01*
X94420156Y-142966091D01*
X94436283Y-142959666D01*
X94463722Y-142957764D01*
X94528834Y-142952322D01*
X94627142Y-142943742D01*
X94754169Y-142932426D01*
X94905438Y-142918772D01*
X95076473Y-142903183D01*
X95262796Y-142886059D01*
X95389180Y-142874370D01*
X96309128Y-142789073D01*
X96988449Y-143425316D01*
X97156661Y-143582451D01*
X97296804Y-143712361D01*
X97411325Y-143817156D01*
X97502673Y-143898952D01*
X97573294Y-143959860D01*
X97625637Y-144001995D01*
X97662149Y-144027470D01*
X97685278Y-144038398D01*
X97697135Y-144037187D01*
X97722266Y-144009548D01*
X97726500Y-143998812D01*
X97711573Y-143981437D01*
X97669332Y-143939017D01*
X97603586Y-143875204D01*
X97518142Y-143793649D01*
X97416809Y-143698004D01*
X97303396Y-143591920D01*
X97260833Y-143552333D01*
X97144005Y-143443300D01*
X97037909Y-143343260D01*
X96946357Y-143255889D01*
X96873162Y-143184865D01*
X96822136Y-143133862D01*
X96797089Y-143106557D01*
X96795167Y-143103262D01*
X96814042Y-143093178D01*
X96861574Y-143087290D01*
X96886272Y-143086666D01*
X96987627Y-143067830D01*
X97087424Y-143017094D01*
X97171982Y-142943121D01*
X97217512Y-142876936D01*
X97253910Y-142763822D01*
X97255736Y-142645056D01*
X97225275Y-142531343D01*
X97164810Y-142433384D01*
X97112495Y-142384693D01*
X97049167Y-142337872D01*
X97049167Y-141308666D01*
X97260833Y-141308666D01*
X97260833Y-141075833D01*
X97156052Y-141075833D01*
X97078763Y-141069552D01*
X97037862Y-141049980D01*
X97033149Y-141043454D01*
X97015615Y-141029730D01*
X96976136Y-141017405D01*
X96909693Y-141005598D01*
X96811263Y-140993425D01*
X96675825Y-140980003D01*
X96668074Y-140979291D01*
X96551910Y-140968340D01*
X96451549Y-140958289D01*
X96374108Y-140949899D01*
X96326707Y-140943929D01*
X96315201Y-140941590D01*
X96328745Y-140926177D01*
X96369863Y-140884306D01*
X96435613Y-140818863D01*
X96523057Y-140732734D01*
X96629253Y-140628804D01*
X96751261Y-140509960D01*
X96886142Y-140379086D01*
X97029618Y-140240360D01*
X97197649Y-140077936D01*
X97337396Y-139942208D01*
X97451228Y-139830678D01*
X97497473Y-139784666D01*
X98806000Y-139784666D01*
X98806000Y-143891000D01*
X99800833Y-143891000D01*
X99800833Y-141023595D01*
X101031583Y-141023595D01*
X101032598Y-141075833D01*
X101039083Y-141255750D01*
X101404208Y-141261541D01*
X101769333Y-141267333D01*
X101769646Y-141039291D01*
X101778667Y-140838221D01*
X101807104Y-140660493D01*
X101857917Y-140490444D01*
X101887568Y-140415346D01*
X102003516Y-140193067D01*
X102154394Y-139989152D01*
X102335181Y-139807974D01*
X102540854Y-139653906D01*
X102766389Y-139531321D01*
X103000627Y-139446286D01*
X103269950Y-139391276D01*
X103536400Y-139374903D01*
X103796509Y-139395328D01*
X104046812Y-139450712D01*
X104283843Y-139539217D01*
X104504135Y-139659004D01*
X104704224Y-139808235D01*
X104880642Y-139985071D01*
X105029924Y-140187674D01*
X105148604Y-140414205D01*
X105223103Y-140625163D01*
X105248959Y-140735974D01*
X105264106Y-140852268D01*
X105270471Y-140990295D01*
X105270905Y-141028137D01*
X105272417Y-141266191D01*
X106002667Y-141266333D01*
X106002667Y-141046856D01*
X105999203Y-140927610D01*
X105989962Y-140798696D01*
X105976670Y-140681946D01*
X105970913Y-140645288D01*
X105898922Y-140354496D01*
X105787068Y-140074481D01*
X105637173Y-139808631D01*
X105549768Y-139692025D01*
X105451056Y-139560334D01*
X105301953Y-139400507D01*
X105156000Y-139274595D01*
X105088507Y-139216369D01*
X105061007Y-139192644D01*
X104903152Y-139088533D01*
X104798348Y-139019411D01*
X104517533Y-138881474D01*
X104222122Y-138779500D01*
X103915672Y-138714155D01*
X103601742Y-138686106D01*
X103283889Y-138696020D01*
X102965673Y-138744563D01*
X102650652Y-138832402D01*
X102523325Y-138879896D01*
X102307307Y-138979807D01*
X102106769Y-139101618D01*
X101912185Y-139251798D01*
X101736609Y-139414250D01*
X101610741Y-139543195D01*
X101600000Y-139555365D01*
X101510333Y-139656970D01*
X101427341Y-139766281D01*
X101353720Y-139881835D01*
X101281428Y-140014338D01*
X101272286Y-140032228D01*
X101170700Y-140267965D01*
X101094806Y-140520114D01*
X101047475Y-140776162D01*
X101031583Y-141023595D01*
X99800833Y-141023595D01*
X99800833Y-139784666D01*
X98806000Y-139784666D01*
X97497473Y-139784666D01*
X97541514Y-139740846D01*
X97610624Y-139670212D01*
X97660927Y-139616277D01*
X97694793Y-139576541D01*
X97714591Y-139548504D01*
X97722690Y-139529667D01*
X97721460Y-139517531D01*
X97718506Y-139513601D01*
X97702754Y-139503847D01*
X97681613Y-139506735D01*
X97649731Y-139525962D01*
X97601751Y-139565223D01*
X97532319Y-139628215D01*
X97475908Y-139681035D01*
X97409272Y-139744278D01*
X97317708Y-139831880D01*
X97206601Y-139938653D01*
X97081338Y-140059406D01*
X96947304Y-140188951D01*
X96809886Y-140322098D01*
X96721053Y-140408357D01*
X96177349Y-140936797D01*
X95964375Y-140919239D01*
X95327383Y-140866724D01*
X95137895Y-140850960D01*
X94958189Y-140835741D01*
X94793426Y-140821522D01*
X94648768Y-140808761D01*
X94529376Y-140797915D01*
X94440414Y-140789440D01*
X94387042Y-140783794D01*
X94379191Y-140782784D01*
X94355278Y-140778464D01*
X94331055Y-140770839D01*
X94303582Y-140757435D01*
X94269916Y-140735777D01*
X94227119Y-140703390D01*
X94172249Y-140657800D01*
X94102365Y-140596533D01*
X94014526Y-140517114D01*
X93905793Y-140417068D01*
X93773223Y-140293920D01*
X93613877Y-140145197D01*
X93545199Y-140081000D01*
X93368034Y-139915756D01*
X93218901Y-139777635D01*
X93095283Y-139664453D01*
X92994663Y-139574027D01*
X92914522Y-139504174D01*
X92852343Y-139452710D01*
X92805609Y-139417453D01*
X92771802Y-139396219D01*
X92748405Y-139386825D01*
X92743841Y-139386066D01*
X92678250Y-139379048D01*
X91725750Y-139379048D01*
X91725750Y-134583023D01*
X96837500Y-134583023D01*
X96838574Y-134687222D01*
X96842231Y-134754407D01*
X96849124Y-134789855D01*
X96859902Y-134798842D01*
X96863958Y-134797187D01*
X96886945Y-134781638D01*
X96940355Y-134744569D01*
X97020038Y-134688888D01*
X97121844Y-134617506D01*
X97241622Y-134533331D01*
X97375224Y-134439273D01*
X97493667Y-134355763D01*
X97635615Y-134255684D01*
X97767203Y-134163046D01*
X97884276Y-134080761D01*
X97982682Y-134011745D01*
X98058266Y-133958910D01*
X98106874Y-133925170D01*
X98123753Y-133913758D01*
X98148737Y-133921380D01*
X98206450Y-133953931D01*
X98295895Y-134010752D01*
X98416072Y-134091188D01*
X98565986Y-134194579D01*
X98744639Y-134320269D01*
X98799475Y-134359225D01*
X98946606Y-134463870D01*
X99083527Y-134561102D01*
X99206258Y-134648106D01*
X99310817Y-134722066D01*
X99393224Y-134780166D01*
X99449497Y-134819592D01*
X99475657Y-134837527D01*
X99476430Y-134838010D01*
X99488992Y-134838023D01*
X99497314Y-134816207D01*
X99502147Y-134766791D01*
X99504242Y-134684007D01*
X99504500Y-134622341D01*
X99504500Y-134389746D01*
X99385364Y-134308339D01*
X100502376Y-134308339D01*
X100515294Y-134432335D01*
X100545414Y-134512600D01*
X100612911Y-134605358D01*
X100698744Y-134660076D01*
X100804317Y-134677516D01*
X100845460Y-134675034D01*
X100917899Y-134661431D01*
X100988380Y-134634406D01*
X101062847Y-134589927D01*
X101147247Y-134523959D01*
X101247526Y-134432469D01*
X101345622Y-134335725D01*
X101424441Y-134257293D01*
X101493165Y-134190873D01*
X101546176Y-134141744D01*
X101577855Y-134115185D01*
X101583747Y-134112000D01*
X101589493Y-134131925D01*
X101594347Y-134186739D01*
X101597915Y-134269001D01*
X101599803Y-134371270D01*
X101600000Y-134418916D01*
X101600000Y-134725833D01*
X101705833Y-134725833D01*
X101705833Y-134334250D01*
X101705696Y-134196773D01*
X101704839Y-134095947D01*
X101702600Y-134026092D01*
X101698312Y-133981526D01*
X101691310Y-133956567D01*
X101680929Y-133945534D01*
X101666505Y-133942746D01*
X101659998Y-133942666D01*
X101628880Y-133956172D01*
X101623531Y-133958494D01*
X101561135Y-134005075D01*
X101474472Y-134081054D01*
X101379540Y-134171077D01*
X101263530Y-134282774D01*
X101171485Y-134367960D01*
X101098122Y-134430727D01*
X101038160Y-134475169D01*
X100986316Y-134505381D01*
X100937307Y-134525455D01*
X100912751Y-134532825D01*
X100807076Y-134544914D01*
X100720075Y-134522822D01*
X100655087Y-134471829D01*
X100615447Y-134397210D01*
X100604493Y-134304243D01*
X100625562Y-134198207D01*
X100656503Y-134127587D01*
X100685690Y-134070183D01*
X100695629Y-134036821D01*
X100687547Y-134014490D01*
X100668926Y-133995818D01*
X100644973Y-133978029D01*
X100625409Y-133981164D01*
X100601379Y-134010977D01*
X100572751Y-134058310D01*
X100521773Y-134179605D01*
X100502376Y-134308339D01*
X99385364Y-134308339D01*
X98981986Y-134032707D01*
X98850330Y-133942232D01*
X98730451Y-133858866D01*
X98626713Y-133785722D01*
X98543482Y-133725914D01*
X98485121Y-133682557D01*
X98455996Y-133658764D01*
X98453536Y-133655709D01*
X98468863Y-133639249D01*
X98515097Y-133602254D01*
X98588010Y-133547804D01*
X98643991Y-133507400D01*
X100801305Y-133507400D01*
X100805429Y-133641474D01*
X100823046Y-133718146D01*
X100846164Y-133758322D01*
X100879282Y-133767829D01*
X100899510Y-133763381D01*
X100928708Y-133748332D01*
X100936665Y-133719928D01*
X100929503Y-133671158D01*
X100915777Y-133541370D01*
X100933240Y-133439524D01*
X100982884Y-133364478D01*
X101065699Y-133315091D01*
X101182677Y-133290222D01*
X101263495Y-133286579D01*
X101395283Y-133297509D01*
X101494809Y-133331725D01*
X101566356Y-133391147D01*
X101595350Y-133435302D01*
X101609064Y-133488484D01*
X101612869Y-133565664D01*
X101607222Y-133649794D01*
X101592580Y-133723827D01*
X101587179Y-133739782D01*
X101587875Y-133765065D01*
X101621834Y-133773243D01*
X101628880Y-133773333D01*
X101670557Y-133764059D01*
X101695361Y-133728561D01*
X101703319Y-133704541D01*
X101723684Y-133577054D01*
X101719329Y-133520668D01*
X105157179Y-133520668D01*
X105182443Y-133633084D01*
X105229241Y-133721194D01*
X105316196Y-133802219D01*
X105426142Y-133854936D01*
X105549768Y-133878401D01*
X105677766Y-133871672D01*
X105800827Y-133833807D01*
X105880576Y-133787154D01*
X105951513Y-133710722D01*
X105999325Y-133608757D01*
X106021447Y-133492730D01*
X106015315Y-133374115D01*
X105991276Y-133291886D01*
X105928714Y-133186018D01*
X105841565Y-133112087D01*
X105727297Y-133068617D01*
X105583782Y-133054131D01*
X105443595Y-133069650D01*
X105328055Y-133118262D01*
X105233661Y-133201441D01*
X105233588Y-133201528D01*
X105182863Y-133291576D01*
X105157356Y-133402394D01*
X105157179Y-133520668D01*
X101719329Y-133520668D01*
X101714072Y-133452616D01*
X101702953Y-133411367D01*
X101671009Y-133345059D01*
X101626336Y-133282370D01*
X101623578Y-133279318D01*
X101555990Y-133216862D01*
X101484131Y-133177486D01*
X101395886Y-133156743D01*
X101279144Y-133150182D01*
X101271917Y-133150145D01*
X101176859Y-133152218D01*
X101108594Y-133161189D01*
X101051754Y-133180090D01*
X101008152Y-133202175D01*
X100904795Y-133282053D01*
X100864364Y-133342015D01*
X100835091Y-133385429D01*
X100801305Y-133507400D01*
X98643991Y-133507400D01*
X98683374Y-133478976D01*
X98796962Y-133398850D01*
X98924544Y-133310505D01*
X98975087Y-133275916D01*
X99469112Y-132938909D01*
X100796037Y-132938909D01*
X100800282Y-132991635D01*
X100825828Y-133023651D01*
X100864364Y-133028693D01*
X100895652Y-133016721D01*
X100913417Y-132984581D01*
X100923638Y-132926666D01*
X100941663Y-132835705D01*
X100974121Y-132766427D01*
X100985088Y-132755797D01*
X104796167Y-132755797D01*
X104812949Y-132802461D01*
X104853506Y-132842630D01*
X104903152Y-132865830D01*
X104945689Y-132862441D01*
X105003231Y-132814316D01*
X105023879Y-132756128D01*
X105005858Y-132696107D01*
X104986667Y-132672666D01*
X104958416Y-132651500D01*
X105156000Y-132651500D01*
X105156000Y-132863166D01*
X106002667Y-132863166D01*
X106002667Y-132651500D01*
X105156000Y-132651500D01*
X104958416Y-132651500D01*
X104944761Y-132641270D01*
X104912583Y-132630333D01*
X104868500Y-132647656D01*
X104825625Y-132688855D01*
X104798946Y-132737781D01*
X104796167Y-132755797D01*
X100985088Y-132755797D01*
X101025954Y-132716185D01*
X101102104Y-132682327D01*
X101207514Y-132662204D01*
X101347126Y-132653166D01*
X101435958Y-132651965D01*
X101705833Y-132651500D01*
X101705833Y-132524500D01*
X100816833Y-132524500D01*
X100816833Y-132577416D01*
X100825701Y-132617825D01*
X100859994Y-132630166D01*
X100868019Y-132630333D01*
X100932739Y-132634832D01*
X100959015Y-132651150D01*
X100948161Y-132683520D01*
X100901492Y-132736174D01*
X100901044Y-132736622D01*
X100847425Y-132803387D01*
X100812087Y-132873487D01*
X100796037Y-132938909D01*
X99469112Y-132938909D01*
X99502573Y-132916083D01*
X99503537Y-132688541D01*
X99502894Y-132596137D01*
X99500410Y-132521780D01*
X99496500Y-132474113D01*
X99492575Y-132461000D01*
X99473188Y-132472811D01*
X99423167Y-132506449D01*
X99346388Y-132559222D01*
X99246726Y-132628437D01*
X99128057Y-132711402D01*
X98994256Y-132805424D01*
X98849198Y-132907812D01*
X98836757Y-132916613D01*
X98690057Y-133020167D01*
X98553515Y-133116071D01*
X98431148Y-133201540D01*
X98326971Y-133273790D01*
X98244999Y-133330037D01*
X98189250Y-133367496D01*
X98163738Y-133383382D01*
X98163242Y-133383594D01*
X98139217Y-133374411D01*
X98112406Y-133358890D01*
X98084346Y-133342645D01*
X98002059Y-133290554D01*
X97895786Y-133220400D01*
X97768960Y-133134440D01*
X97625010Y-133034934D01*
X97490851Y-132940756D01*
X96848083Y-132486551D01*
X96842008Y-132699886D01*
X96840333Y-132792492D01*
X96840714Y-132870130D01*
X96843001Y-132922457D01*
X96845408Y-132937911D01*
X96864768Y-132955841D01*
X96914679Y-132994111D01*
X96990565Y-133049437D01*
X97087850Y-133118535D01*
X97201955Y-133198122D01*
X97328306Y-133284913D01*
X97343004Y-133294928D01*
X97470478Y-133382092D01*
X97586363Y-133462052D01*
X97686066Y-133531582D01*
X97764995Y-133587454D01*
X97818556Y-133626442D01*
X97842158Y-133645318D01*
X97842740Y-133646047D01*
X97828889Y-133662208D01*
X97784052Y-133698704D01*
X97712487Y-133752424D01*
X97618455Y-133820255D01*
X97506216Y-133899085D01*
X97380030Y-133985804D01*
X97345927Y-134008944D01*
X96837500Y-134353048D01*
X96837500Y-134583023D01*
X91725750Y-134583023D01*
X91725750Y-132307055D01*
X105774878Y-132307055D01*
X105800319Y-132366791D01*
X105849593Y-132409126D01*
X105910641Y-132418764D01*
X105968433Y-132395371D01*
X105991511Y-132371041D01*
X106017992Y-132307124D01*
X106002804Y-132248269D01*
X106002667Y-132248130D01*
X105955042Y-132199699D01*
X105896833Y-132156401D01*
X105838625Y-132199819D01*
X105786512Y-132252688D01*
X105774878Y-132307055D01*
X91725750Y-132307055D01*
X91725750Y-130983690D01*
X96805369Y-130983690D01*
X96818315Y-131143029D01*
X96845508Y-131281407D01*
X96856892Y-131318000D01*
X96949489Y-131524021D01*
X97074164Y-131702642D01*
X97230169Y-131853194D01*
X97416757Y-131975008D01*
X97633179Y-132067416D01*
X97726500Y-132095608D01*
X97829508Y-132114978D01*
X97962183Y-132127604D01*
X98112406Y-132133515D01*
X98268056Y-132132741D01*
X98417012Y-132125311D01*
X98547155Y-132111255D01*
X98636667Y-132093382D01*
X98860622Y-132013670D01*
X99056931Y-131905534D01*
X99223432Y-131770955D01*
X99357964Y-131611917D01*
X99458364Y-131430401D01*
X99505714Y-131296299D01*
X99534566Y-131148382D01*
X100816833Y-131148382D01*
X100817249Y-131171719D01*
X100821687Y-131190924D01*
X100834933Y-131208411D01*
X100861772Y-131226593D01*
X100906990Y-131247885D01*
X100975373Y-131274698D01*
X101071705Y-131309448D01*
X101200774Y-131354547D01*
X101280496Y-131382223D01*
X101407237Y-131427294D01*
X101496147Y-131461564D01*
X101549980Y-131486277D01*
X101571488Y-131502674D01*
X101566246Y-131511066D01*
X101533653Y-131523056D01*
X101468555Y-131546501D01*
X101378357Y-131578751D01*
X101270469Y-131617154D01*
X101176667Y-131650432D01*
X100827417Y-131774155D01*
X100820570Y-131845272D01*
X100819009Y-131892150D01*
X100830539Y-131906624D01*
X100852320Y-131901195D01*
X100884083Y-131888898D01*
X100948125Y-131864260D01*
X101037189Y-131830069D01*
X101144015Y-131789111D01*
X101240167Y-131752281D01*
X101358097Y-131707102D01*
X101466087Y-131665684D01*
X101556327Y-131631024D01*
X101621008Y-131606122D01*
X101648905Y-131595318D01*
X101688230Y-131574288D01*
X101702769Y-131542857D01*
X101701821Y-131493248D01*
X101697117Y-131436821D01*
X105156000Y-131436821D01*
X105304167Y-131508500D01*
X105374149Y-131544245D01*
X105426310Y-131574489D01*
X105451376Y-131593752D01*
X105452333Y-131596015D01*
X105435052Y-131612830D01*
X105389175Y-131643368D01*
X105323654Y-131681796D01*
X105304308Y-131692468D01*
X105156283Y-131773083D01*
X105156141Y-131886643D01*
X105156859Y-131951593D01*
X105162156Y-131981890D01*
X105176432Y-131985212D01*
X105203625Y-131969536D01*
X105282050Y-131920888D01*
X105366581Y-131871419D01*
X105448194Y-131826051D01*
X105517866Y-131789707D01*
X105566575Y-131767308D01*
X105583026Y-131762554D01*
X105605567Y-131768543D01*
X105646675Y-131787994D01*
X105710531Y-131823222D01*
X105801316Y-131876541D01*
X105923209Y-131950266D01*
X105933875Y-131956776D01*
X106002667Y-131998786D01*
X106002525Y-131885935D01*
X106002383Y-131773083D01*
X105854358Y-131692468D01*
X105785306Y-131653896D01*
X105733447Y-131623089D01*
X105707669Y-131605386D01*
X105706333Y-131603545D01*
X105723397Y-131590031D01*
X105768535Y-131561851D01*
X105832663Y-131524627D01*
X105845652Y-131517327D01*
X105914279Y-131476334D01*
X105967107Y-131439889D01*
X105994018Y-131415059D01*
X105995154Y-131412879D01*
X106000117Y-131375945D01*
X105999799Y-131317128D01*
X105998710Y-131299912D01*
X105992083Y-131213481D01*
X105591591Y-131449107D01*
X105589917Y-131448260D01*
X105506087Y-131405822D01*
X105442279Y-131372137D01*
X105360830Y-131327299D01*
X105288292Y-131286126D01*
X105156000Y-131209715D01*
X105156000Y-131436821D01*
X101697117Y-131436821D01*
X101695250Y-131414421D01*
X101282500Y-131257794D01*
X101261419Y-131249794D01*
X101134798Y-131201834D01*
X101022253Y-131159374D01*
X100929531Y-131124571D01*
X100862383Y-131099579D01*
X100826559Y-131086552D01*
X100822210Y-131085166D01*
X100818425Y-131103597D01*
X100816833Y-131147960D01*
X100816833Y-131148382D01*
X99534566Y-131148382D01*
X99535687Y-131142633D01*
X99548700Y-130966892D01*
X99544756Y-130785784D01*
X99523861Y-130616018D01*
X99515599Y-130579485D01*
X100805006Y-130579485D01*
X100806133Y-130703368D01*
X100806777Y-130707285D01*
X100843921Y-130807212D01*
X100914330Y-130892373D01*
X101009806Y-130956546D01*
X101122152Y-130993510D01*
X101192542Y-131000035D01*
X101282500Y-131000500D01*
X101282500Y-130386666D01*
X101351292Y-130386746D01*
X101446725Y-130406396D01*
X101527256Y-130460294D01*
X101586437Y-130541207D01*
X101617822Y-130641903D01*
X101621167Y-130689539D01*
X101614803Y-130754734D01*
X101598842Y-130832885D01*
X101591488Y-130859552D01*
X101574735Y-130918465D01*
X101572486Y-130947480D01*
X101586878Y-130957186D01*
X101611406Y-130958166D01*
X101653592Y-130950625D01*
X101681319Y-130921741D01*
X101702426Y-130862123D01*
X101707044Y-130843597D01*
X101723678Y-130709099D01*
X101721849Y-130683000D01*
X105156000Y-130683000D01*
X105171160Y-130816186D01*
X105218083Y-130923164D01*
X105298936Y-131007995D01*
X105346272Y-131039617D01*
X105408618Y-131071501D01*
X105469037Y-131088373D01*
X105545464Y-131094265D01*
X105589917Y-131094409D01*
X105712609Y-131084707D01*
X105807195Y-131055369D01*
X105884971Y-131002233D01*
X105911569Y-130975901D01*
X105979695Y-130873618D01*
X106016213Y-130753188D01*
X106019001Y-130626841D01*
X105990960Y-130518278D01*
X105925914Y-130409243D01*
X105833685Y-130331770D01*
X105730165Y-130288204D01*
X105588320Y-130264823D01*
X105458806Y-130277632D01*
X105346380Y-130323361D01*
X105255799Y-130398738D01*
X105191821Y-130500491D01*
X105162559Y-130612506D01*
X105159204Y-130625350D01*
X105156000Y-130683000D01*
X101721849Y-130683000D01*
X101714098Y-130572404D01*
X101703374Y-130524250D01*
X101654721Y-130423685D01*
X101573237Y-130339908D01*
X101467346Y-130280210D01*
X101397270Y-130259325D01*
X101250290Y-130244831D01*
X101116472Y-130262141D01*
X101000427Y-130307757D01*
X100906762Y-130378184D01*
X100864364Y-130436520D01*
X100840085Y-130469926D01*
X100805006Y-130579485D01*
X99515599Y-130579485D01*
X99505501Y-130534833D01*
X99435798Y-130357649D01*
X99329220Y-130192247D01*
X99190579Y-130043038D01*
X99185468Y-130039076D01*
X100796037Y-130039076D01*
X100800282Y-130091802D01*
X100825828Y-130123818D01*
X100864364Y-130128859D01*
X100895652Y-130116888D01*
X100913417Y-130084748D01*
X100918035Y-130058583D01*
X105156000Y-130058583D01*
X105157079Y-130122357D01*
X105159862Y-130164643D01*
X105162559Y-130175000D01*
X105182874Y-130168374D01*
X105235856Y-130150190D01*
X105314259Y-130122989D01*
X105410832Y-130089312D01*
X105518328Y-130051700D01*
X105629497Y-130012694D01*
X105737092Y-129974835D01*
X105833865Y-129940665D01*
X105912565Y-129912723D01*
X105965946Y-129893552D01*
X105977225Y-129889413D01*
X105993426Y-129866840D01*
X105999649Y-129811628D01*
X105998392Y-129748922D01*
X105992083Y-129618629D01*
X105611083Y-129484087D01*
X105489604Y-129441243D01*
X105380157Y-129402741D01*
X105289671Y-129371014D01*
X105225081Y-129348491D01*
X105193317Y-129337602D01*
X105193042Y-129337513D01*
X105171832Y-129335824D01*
X105160642Y-129354233D01*
X105156436Y-129401414D01*
X105156000Y-129443323D01*
X105156866Y-129507541D01*
X105159102Y-129550342D01*
X105161325Y-129561166D01*
X105186693Y-129566862D01*
X105243069Y-129582203D01*
X105321630Y-129604575D01*
X105413556Y-129631360D01*
X105510025Y-129659942D01*
X105602215Y-129687706D01*
X105681305Y-129712033D01*
X105738473Y-129730309D01*
X105764898Y-129739917D01*
X105765613Y-129740391D01*
X105765983Y-129762560D01*
X105765613Y-129762942D01*
X105743811Y-129771237D01*
X105690124Y-129788539D01*
X105613373Y-129812231D01*
X105522381Y-129839697D01*
X105425969Y-129868321D01*
X105332958Y-129895486D01*
X105252171Y-129918576D01*
X105192428Y-129934974D01*
X105162551Y-129942065D01*
X105161325Y-129942166D01*
X105158408Y-129961318D01*
X105156474Y-130010719D01*
X105156000Y-130058583D01*
X100918035Y-130058583D01*
X100923638Y-130026833D01*
X100941663Y-129935871D01*
X100974121Y-129866594D01*
X101025954Y-129816352D01*
X101102104Y-129782494D01*
X101207514Y-129762371D01*
X101347126Y-129753332D01*
X101435958Y-129752131D01*
X101705833Y-129751666D01*
X101705833Y-129624666D01*
X100816833Y-129624666D01*
X100816833Y-129677583D01*
X100825701Y-129717991D01*
X100859994Y-129730333D01*
X100868019Y-129730500D01*
X100932739Y-129734999D01*
X100959015Y-129751317D01*
X100948161Y-129783687D01*
X100901492Y-129836341D01*
X100901044Y-129836789D01*
X100847425Y-129903553D01*
X100812087Y-129973654D01*
X100796037Y-130039076D01*
X99185468Y-130039076D01*
X99024685Y-129914433D01*
X98836350Y-129810841D01*
X98636667Y-129738399D01*
X98536210Y-129718940D01*
X98405637Y-129705746D01*
X98256704Y-129698843D01*
X98101164Y-129698254D01*
X97950773Y-129704004D01*
X97817286Y-129716117D01*
X97712456Y-129734618D01*
X97705333Y-129736462D01*
X97480940Y-129815249D01*
X97286888Y-129923283D01*
X97123547Y-130060226D01*
X96991284Y-130225737D01*
X96890466Y-130419477D01*
X96852769Y-130524250D01*
X96822522Y-130659865D01*
X96806747Y-130817824D01*
X96805369Y-130983690D01*
X91725750Y-130983690D01*
X91725750Y-129256193D01*
X95948500Y-129256193D01*
X95949920Y-129347018D01*
X95953757Y-129419678D01*
X95959379Y-129465381D01*
X95964375Y-129476679D01*
X95986226Y-129469745D01*
X96045065Y-129449568D01*
X96138021Y-129417163D01*
X96262222Y-129373545D01*
X96414799Y-129319731D01*
X96592879Y-129256735D01*
X96793590Y-129185573D01*
X96808812Y-129180166D01*
X105156000Y-129180166D01*
X106002667Y-129180166D01*
X106002667Y-128968500D01*
X105928583Y-128968500D01*
X105872455Y-128963032D01*
X105857214Y-128946614D01*
X105882850Y-128919226D01*
X105897511Y-128909489D01*
X105951918Y-128857541D01*
X105997061Y-128783879D01*
X106021897Y-128708056D01*
X106023754Y-128685949D01*
X106014488Y-128625276D01*
X105991811Y-128558341D01*
X105989170Y-128552601D01*
X105957153Y-128498607D01*
X105915368Y-128458303D01*
X105857735Y-128429849D01*
X105778174Y-128411409D01*
X105683074Y-128402335D01*
X105670603Y-128401144D01*
X105528943Y-128397218D01*
X105474343Y-128397000D01*
X105156000Y-128397000D01*
X105156000Y-128605467D01*
X105454252Y-128612358D01*
X105572619Y-128615460D01*
X105656100Y-128619209D01*
X105712136Y-128624853D01*
X105748171Y-128633642D01*
X105771646Y-128646826D01*
X105790004Y-128665655D01*
X105792919Y-128669220D01*
X105828284Y-128743507D01*
X105824697Y-128823874D01*
X105789464Y-128891562D01*
X105770880Y-128913656D01*
X105750847Y-128928975D01*
X105721830Y-128938760D01*
X105676299Y-128944251D01*
X105606720Y-128946689D01*
X105505562Y-128947313D01*
X105450797Y-128947333D01*
X105156000Y-128947333D01*
X105156000Y-129180166D01*
X96808812Y-129180166D01*
X97014063Y-129107261D01*
X97251425Y-129022814D01*
X97502806Y-128933249D01*
X97743043Y-128847539D01*
X99505836Y-128218220D01*
X99499876Y-127998636D01*
X99493917Y-127779052D01*
X99208167Y-127677039D01*
X97726500Y-127148078D01*
X97133851Y-126936500D01*
X105156000Y-126936500D01*
X105156000Y-127148166D01*
X105230083Y-127148166D01*
X105279050Y-127153483D01*
X105303527Y-127166555D01*
X105304167Y-127169333D01*
X105287925Y-127189725D01*
X105281989Y-127190500D01*
X105254015Y-127204770D01*
X105214290Y-127239791D01*
X105207906Y-127246507D01*
X105173333Y-127295699D01*
X105158216Y-127355752D01*
X105156000Y-127408050D01*
X105159953Y-127477275D01*
X105177544Y-127524879D01*
X105217366Y-127571271D01*
X105229725Y-127583117D01*
X105303451Y-127652649D01*
X105229725Y-127726374D01*
X105182915Y-127779843D01*
X105161339Y-127829399D01*
X105156003Y-127896040D01*
X105156000Y-127898518D01*
X105162786Y-127973076D01*
X105179753Y-128040242D01*
X105186817Y-128056530D01*
X105216785Y-128101769D01*
X105257392Y-128135399D01*
X105314690Y-128158991D01*
X105394732Y-128174117D01*
X105503570Y-128182347D01*
X105647257Y-128185253D01*
X105683074Y-128185333D01*
X106002667Y-128185333D01*
X106002667Y-127952500D01*
X105702708Y-127952500D01*
X105579416Y-127951729D01*
X105491383Y-127948930D01*
X105431556Y-127943372D01*
X105392880Y-127934328D01*
X105368302Y-127921066D01*
X105364042Y-127917469D01*
X105331552Y-127862141D01*
X105330032Y-127793028D01*
X105359381Y-127725100D01*
X105365386Y-127717227D01*
X105383626Y-127697577D01*
X105406150Y-127683660D01*
X105440390Y-127674210D01*
X105493773Y-127667963D01*
X105573730Y-127663653D01*
X105687690Y-127660016D01*
X105704052Y-127659563D01*
X106002667Y-127651362D01*
X106002667Y-127444500D01*
X105702708Y-127444500D01*
X105579416Y-127443729D01*
X105491383Y-127440930D01*
X105431556Y-127435372D01*
X105392880Y-127426328D01*
X105368302Y-127413066D01*
X105364042Y-127409469D01*
X105331523Y-127354103D01*
X105330098Y-127284940D01*
X105359639Y-127216772D01*
X105365775Y-127208720D01*
X105384043Y-127188880D01*
X105406298Y-127174870D01*
X105439986Y-127165429D01*
X105492549Y-127159299D01*
X105571431Y-127155220D01*
X105684076Y-127151933D01*
X105704442Y-127151428D01*
X106002667Y-127144107D01*
X106002667Y-126936500D01*
X105156000Y-126936500D01*
X97133851Y-126936500D01*
X95959083Y-126517103D01*
X95953013Y-126730256D01*
X95952015Y-126821394D01*
X95954190Y-126896177D01*
X95959087Y-126944860D01*
X95963596Y-126957966D01*
X95988812Y-126969597D01*
X96050136Y-126993381D01*
X96143569Y-127027936D01*
X96265108Y-127071881D01*
X96410751Y-127123832D01*
X96576497Y-127182408D01*
X96758345Y-127246227D01*
X96952292Y-127313906D01*
X97154337Y-127384064D01*
X97360478Y-127455317D01*
X97566714Y-127526285D01*
X97769043Y-127595585D01*
X97963463Y-127661835D01*
X98145974Y-127723652D01*
X98312572Y-127779654D01*
X98459257Y-127828460D01*
X98582026Y-127868687D01*
X98676879Y-127898953D01*
X98739814Y-127917876D01*
X98753083Y-127921443D01*
X98847697Y-127946330D01*
X98927210Y-127969014D01*
X98982563Y-127986795D01*
X99004054Y-127996211D01*
X98995149Y-128008301D01*
X98953851Y-128023964D01*
X98898221Y-128037773D01*
X98840339Y-128051016D01*
X98770252Y-128069499D01*
X98685109Y-128094162D01*
X98582061Y-128125945D01*
X98458261Y-128165789D01*
X98310859Y-128214635D01*
X98137006Y-128273423D01*
X97933853Y-128343093D01*
X97698552Y-128424587D01*
X97428253Y-128518844D01*
X97218500Y-128592288D01*
X97015270Y-128663528D01*
X96820635Y-128731723D01*
X96638939Y-128795355D01*
X96474524Y-128852903D01*
X96331732Y-128902849D01*
X96214906Y-128943673D01*
X96128389Y-128973856D01*
X96076523Y-128991878D01*
X96070208Y-128994056D01*
X95948500Y-129035886D01*
X95948500Y-129256193D01*
X91725750Y-129256193D01*
X91725750Y-126026333D01*
X96837500Y-126026333D01*
X97928263Y-126026333D01*
X98184336Y-126026444D01*
X98401469Y-126026961D01*
X98583055Y-126028162D01*
X98732489Y-126030323D01*
X98853163Y-126033721D01*
X98948471Y-126038635D01*
X99021807Y-126045340D01*
X99076562Y-126054115D01*
X99116132Y-126065235D01*
X99143910Y-126078978D01*
X99163288Y-126095622D01*
X99177660Y-126115443D01*
X99185296Y-126128983D01*
X99198788Y-126174979D01*
X99207002Y-126243055D01*
X99208167Y-126278942D01*
X99208167Y-126386166D01*
X99501217Y-126386166D01*
X99525861Y-126311493D01*
X99539025Y-126249290D01*
X99547541Y-126165773D01*
X99549460Y-126100532D01*
X99546797Y-126079191D01*
X105111584Y-126079191D01*
X105131037Y-126100432D01*
X105188373Y-126110845D01*
X105198333Y-126111000D01*
X105283000Y-126111000D01*
X105283000Y-126216833D01*
X105286399Y-126283388D01*
X105298167Y-126315894D01*
X105314750Y-126322666D01*
X105334716Y-126311337D01*
X105344468Y-126272110D01*
X105346500Y-126216833D01*
X105346500Y-126111000D01*
X105595790Y-126111000D01*
X105724756Y-126113022D01*
X105817303Y-126120768D01*
X105879224Y-126136759D01*
X105916313Y-126163514D01*
X105934363Y-126203553D01*
X105939166Y-126259397D01*
X105939167Y-126260367D01*
X105945185Y-126320239D01*
X105964174Y-126343292D01*
X105969153Y-126343833D01*
X106000933Y-126325377D01*
X106019229Y-126277508D01*
X106022336Y-126211474D01*
X106008547Y-126138524D01*
X106002801Y-126121937D01*
X105973960Y-126076211D01*
X105923969Y-126043121D01*
X105847708Y-126021217D01*
X105740062Y-126009050D01*
X105595914Y-126005170D01*
X105590596Y-126005166D01*
X105346500Y-126005166D01*
X105346500Y-125952250D01*
X105338995Y-125908971D01*
X105320511Y-125903653D01*
X105297094Y-125935497D01*
X105287127Y-125960092D01*
X105283000Y-125967083D01*
X105259740Y-126006488D01*
X105210243Y-126030650D01*
X105189807Y-126035134D01*
X105130885Y-126054849D01*
X105111584Y-126079191D01*
X99546797Y-126079191D01*
X99531417Y-125955923D01*
X99479859Y-125837076D01*
X99395015Y-125744309D01*
X99327105Y-125706082D01*
X105010891Y-125706082D01*
X105031056Y-125738877D01*
X105039583Y-125743512D01*
X105088507Y-125748102D01*
X105122184Y-125728057D01*
X105133455Y-125695007D01*
X105115164Y-125660580D01*
X105097792Y-125648938D01*
X105084293Y-125645333D01*
X105283000Y-125645333D01*
X105283000Y-125751166D01*
X106002667Y-125751166D01*
X106002667Y-125645333D01*
X105283000Y-125645333D01*
X105084293Y-125645333D01*
X105054085Y-125637266D01*
X105052739Y-125637409D01*
X105034292Y-125639374D01*
X105011605Y-125665740D01*
X105010891Y-125706082D01*
X99327105Y-125706082D01*
X99277114Y-125677942D01*
X99234625Y-125663007D01*
X99180467Y-125642997D01*
X99148412Y-125625039D01*
X99144667Y-125619429D01*
X99158790Y-125598908D01*
X99196915Y-125555858D01*
X99252679Y-125497245D01*
X99299532Y-125449958D01*
X99374051Y-125373465D01*
X99424804Y-125313035D01*
X99459795Y-125256749D01*
X99487024Y-125192686D01*
X99500729Y-125152283D01*
X105267207Y-125152283D01*
X105268787Y-125261936D01*
X105271596Y-125280641D01*
X105289353Y-125357226D01*
X105312179Y-125396457D01*
X105343520Y-125403281D01*
X105354700Y-125399902D01*
X105380266Y-125374122D01*
X105376903Y-125351560D01*
X105360058Y-125287979D01*
X105351971Y-125209528D01*
X105353305Y-125134131D01*
X105364726Y-125079713D01*
X105366676Y-125075683D01*
X105397416Y-125041831D01*
X105447396Y-125034674D01*
X105458489Y-125035555D01*
X105493866Y-125042300D01*
X105520533Y-125060007D01*
X105545543Y-125097212D01*
X105575950Y-125162452D01*
X105589374Y-125193969D01*
X105636761Y-125298373D01*
X105678520Y-125368287D01*
X105720564Y-125409950D01*
X105768803Y-125429601D01*
X105816458Y-125433666D01*
X105898245Y-125414715D01*
X105965395Y-125364401D01*
X106005728Y-125292536D01*
X106009124Y-125278458D01*
X106019850Y-125180204D01*
X106017320Y-125079447D01*
X106002156Y-124996994D01*
X106000596Y-124992325D01*
X105969737Y-124939414D01*
X105934831Y-124925666D01*
X105904567Y-124933966D01*
X105907715Y-124962708D01*
X105923390Y-125022846D01*
X105933687Y-125104081D01*
X105936982Y-125186169D01*
X105931651Y-125248866D01*
X105930916Y-125251991D01*
X105904541Y-125302051D01*
X105874617Y-125328395D01*
X105827222Y-125343948D01*
X105784999Y-125332883D01*
X105743408Y-125291294D01*
X105697911Y-125215271D01*
X105665294Y-125148141D01*
X105624449Y-125067160D01*
X105584301Y-125000121D01*
X105551280Y-124957308D01*
X105540665Y-124948795D01*
X105462634Y-124926041D01*
X105392020Y-124940257D01*
X105333076Y-124986199D01*
X105290054Y-125058623D01*
X105283000Y-125087540D01*
X105267207Y-125152283D01*
X99500729Y-125152283D01*
X99502128Y-125148158D01*
X99535192Y-125015648D01*
X99548970Y-124874401D01*
X99549857Y-124819976D01*
X99539768Y-124658547D01*
X105011332Y-124658547D01*
X105018664Y-124701763D01*
X105052739Y-124721144D01*
X105097928Y-124711095D01*
X105128821Y-124678493D01*
X105125219Y-124643552D01*
X105091366Y-124621004D01*
X105071333Y-124618750D01*
X105024993Y-124632990D01*
X105011332Y-124658547D01*
X99539768Y-124658547D01*
X99539504Y-124654325D01*
X99528507Y-124608166D01*
X105283000Y-124608166D01*
X105283000Y-124714000D01*
X106002667Y-124714000D01*
X106002667Y-124608166D01*
X105283000Y-124608166D01*
X99528507Y-124608166D01*
X99506102Y-124514123D01*
X99446137Y-124387263D01*
X99406961Y-124327659D01*
X99368506Y-124272960D01*
X99342449Y-124234327D01*
X99335163Y-124221826D01*
X99355498Y-124220783D01*
X99413194Y-124220254D01*
X99503279Y-124220224D01*
X99620784Y-124220677D01*
X99760737Y-124221596D01*
X99918170Y-124222966D01*
X100023079Y-124224042D01*
X100711000Y-124231502D01*
X100711000Y-123803833D01*
X96837500Y-123803833D01*
X96837500Y-124227166D01*
X97757208Y-124227166D01*
X97996250Y-124227713D01*
X98209339Y-124229310D01*
X98393650Y-124231897D01*
X98546359Y-124235411D01*
X98664642Y-124239790D01*
X98745674Y-124244973D01*
X98781709Y-124249640D01*
X98923725Y-124299078D01*
X99040692Y-124379558D01*
X99128028Y-124487781D01*
X99138501Y-124506605D01*
X99164277Y-124558547D01*
X99181165Y-124604738D01*
X99190957Y-124656201D01*
X99195441Y-124723961D01*
X99196409Y-124819040D01*
X99196241Y-124862166D01*
X99193506Y-124986899D01*
X99186217Y-125078192D01*
X99173358Y-125144794D01*
X99158718Y-125185430D01*
X99098281Y-125285199D01*
X99014091Y-125381075D01*
X98920478Y-125457789D01*
X98881527Y-125480761D01*
X98830265Y-125506220D01*
X98782099Y-125527365D01*
X98732559Y-125544643D01*
X98677175Y-125558498D01*
X98611476Y-125569376D01*
X98530991Y-125577724D01*
X98431251Y-125583986D01*
X98307784Y-125588608D01*
X98156121Y-125592036D01*
X97971790Y-125594716D01*
X97750322Y-125597093D01*
X97710625Y-125597480D01*
X96837500Y-125605929D01*
X96837500Y-126026333D01*
X91725750Y-126026333D01*
X91725750Y-123787276D01*
X105283000Y-123787276D01*
X105283000Y-123843395D01*
X105285347Y-123866815D01*
X105296584Y-123886259D01*
X105322999Y-123905208D01*
X105370884Y-123927143D01*
X105446530Y-123955544D01*
X105552875Y-123992736D01*
X105657489Y-124028963D01*
X105751680Y-124061748D01*
X105826115Y-124087831D01*
X105871465Y-124103952D01*
X105875667Y-124105489D01*
X105892627Y-124111598D01*
X105903041Y-124117243D01*
X105902784Y-124124278D01*
X105887732Y-124134561D01*
X105853760Y-124149948D01*
X105796744Y-124172294D01*
X105712559Y-124203456D01*
X105597082Y-124245291D01*
X105446187Y-124299654D01*
X105436458Y-124303160D01*
X105357805Y-124333114D01*
X105311476Y-124356508D01*
X105289289Y-124379090D01*
X105283063Y-124406609D01*
X105283000Y-124410995D01*
X105289607Y-124447806D01*
X105302686Y-124456472D01*
X105328156Y-124447053D01*
X105386363Y-124425388D01*
X105470391Y-124394054D01*
X105573326Y-124355629D01*
X105662233Y-124322416D01*
X106002094Y-124195416D01*
X106002380Y-124128475D01*
X106000089Y-124093799D01*
X105987351Y-124069002D01*
X105955909Y-124047358D01*
X105897506Y-124022136D01*
X105849208Y-124003664D01*
X105758786Y-123969413D01*
X105647564Y-123927064D01*
X105534243Y-123883744D01*
X105489375Y-123866535D01*
X105283000Y-123787276D01*
X91725750Y-123787276D01*
X91725750Y-122523250D01*
X91775008Y-122401241D01*
X91866610Y-122228481D01*
X91991914Y-122073201D01*
X92143501Y-121942816D01*
X92313954Y-121844738D01*
X92345077Y-121831487D01*
X92466583Y-121782416D01*
X106669417Y-121782416D01*
X106791426Y-121831675D01*
X106964186Y-121923277D01*
X107119465Y-122048580D01*
X107249850Y-122200168D01*
X107347928Y-122370621D01*
X107361180Y-122401743D01*
X107410250Y-122523250D01*
X107414442Y-134588250D01*
X107414735Y-135443333D01*
X107415006Y-136257116D01*
X107415251Y-137030629D01*
X107415468Y-137764906D01*
X107415652Y-138460979D01*
X107415803Y-139119880D01*
X107415915Y-139742641D01*
X107415987Y-140330294D01*
X107416016Y-140883873D01*
X107415998Y-141404408D01*
X107415932Y-141892933D01*
X107415813Y-142350479D01*
X107415639Y-142778079D01*
X107415407Y-143176765D01*
X107415115Y-143547570D01*
X107414758Y-143891525D01*
X107414335Y-144209663D01*
X107413843Y-144503017D01*
X107413277Y-144772617D01*
X107412637Y-145019498D01*
X107411918Y-145244690D01*
X107411117Y-145449227D01*
X107410233Y-145634140D01*
X107409261Y-145800462D01*
X107408200Y-145949225D01*
X107407045Y-146081461D01*
X107405795Y-146198203D01*
X107404445Y-146300482D01*
X107402994Y-146389332D01*
X107401439Y-146465784D01*
X107399776Y-146530871D01*
X107398002Y-146585624D01*
X107396115Y-146631077D01*
X107394112Y-146668261D01*
X107391990Y-146698208D01*
X107389745Y-146721952D01*
X107387376Y-146740524D01*
X107384878Y-146754956D01*
X107382250Y-146766281D01*
X107380003Y-146773949D01*
X107298298Y-146963546D01*
X107184019Y-147128052D01*
X107040338Y-147264317D01*
X106870427Y-147369193D01*
X106722333Y-147426995D01*
X106709202Y-147430830D01*
X106695003Y-147434421D01*
X106678370Y-147437775D01*
X106657939Y-147440899D01*
X106632346Y-147443800D01*
X106600226Y-147446484D01*
X106560214Y-147448958D01*
X106510946Y-147451229D01*
X106451057Y-147453305D01*
X106379182Y-147455192D01*
X106293958Y-147456896D01*
X106194018Y-147458425D01*
X106077999Y-147459786D01*
X105944535Y-147460985D01*
X105792263Y-147462029D01*
X105619818Y-147462925D01*
X105425835Y-147463680D01*
X105208949Y-147464301D01*
X104967795Y-147464795D01*
X104701010Y-147465168D01*
X104407229Y-147465428D01*
X104085086Y-147465581D01*
X103733217Y-147465634D01*
X103350259Y-147465593D01*
X102934845Y-147465467D01*
X102485611Y-147465261D01*
X102001193Y-147464983D01*
X101764401Y-147464827D01*
X101480227Y-147464639D01*
X100921346Y-147464237D01*
G36*
X94543585Y-140929752D02*
G01*
X94631023Y-140934959D01*
X94743613Y-140942655D01*
X94875688Y-140952372D01*
X95021580Y-140963641D01*
X95175622Y-140975994D01*
X95332146Y-140988963D01*
X95485486Y-141002081D01*
X95629973Y-141014878D01*
X95759940Y-141026888D01*
X95869721Y-141037641D01*
X95953648Y-141046670D01*
X96006052Y-141053507D01*
X96021462Y-141057073D01*
X96010316Y-141074470D01*
X95972900Y-141117131D01*
X95913269Y-141180778D01*
X95835476Y-141261136D01*
X95743573Y-141353926D01*
X95684455Y-141412692D01*
X95336138Y-141757001D01*
X94901485Y-141349126D01*
X94789076Y-141243212D01*
X94687460Y-141146645D01*
X94600553Y-141063210D01*
X94532267Y-140996692D01*
X94486513Y-140950876D01*
X94467207Y-140929547D01*
X94466833Y-140928674D01*
X94486966Y-140927500D01*
X94543585Y-140929752D01*
G37*
X94543585Y-140929752D02*
X94631023Y-140934959D01*
X94743613Y-140942655D01*
X94875688Y-140952372D01*
X95021580Y-140963641D01*
X95175622Y-140975994D01*
X95332146Y-140988963D01*
X95485486Y-141002081D01*
X95629973Y-141014878D01*
X95759940Y-141026888D01*
X95869721Y-141037641D01*
X95953648Y-141046670D01*
X96006052Y-141053507D01*
X96021462Y-141057073D01*
X96010316Y-141074470D01*
X95972900Y-141117131D01*
X95913269Y-141180778D01*
X95835476Y-141261136D01*
X95743573Y-141353926D01*
X95684455Y-141412692D01*
X95336138Y-141757001D01*
X94901485Y-141349126D01*
X94789076Y-141243212D01*
X94687460Y-141146645D01*
X94600553Y-141063210D01*
X94532267Y-140996692D01*
X94486513Y-140950876D01*
X94467207Y-140929547D01*
X94466833Y-140928674D01*
X94486966Y-140927500D01*
X94543585Y-140929752D01*
G36*
X96710757Y-142854983D02*
G01*
X96658022Y-142783714D01*
X96654873Y-142776529D01*
X96642297Y-142715454D01*
X96736892Y-142715454D01*
X96760475Y-142768403D01*
X96811627Y-142803527D01*
X96860435Y-142811500D01*
X96926642Y-142794381D01*
X96970562Y-142750686D01*
X96986371Y-142691911D01*
X96968243Y-142629549D01*
X96959208Y-142616599D01*
X96904219Y-142574689D01*
X96840684Y-142572978D01*
X96787909Y-142600999D01*
X96744747Y-142655910D01*
X96736892Y-142715454D01*
X96642297Y-142715454D01*
X96636656Y-142688060D01*
X96653187Y-142608336D01*
X96697031Y-142542534D01*
X96760753Y-142495836D01*
X96836920Y-142473422D01*
X96918095Y-142480470D01*
X96996843Y-142522161D01*
X97007234Y-142531041D01*
X97059862Y-142601685D01*
X97084587Y-142685585D01*
X97077291Y-142767052D01*
X97072475Y-142779750D01*
X97020986Y-142852602D01*
X96948892Y-142896473D01*
X96866370Y-142911441D01*
X96860435Y-142910448D01*
X96783599Y-142897585D01*
X96710757Y-142854983D01*
G37*
X96710757Y-142854983D02*
X96658022Y-142783714D01*
X96654873Y-142776529D01*
X96642297Y-142715454D01*
X96736892Y-142715454D01*
X96760475Y-142768403D01*
X96811627Y-142803527D01*
X96860435Y-142811500D01*
X96926642Y-142794381D01*
X96970562Y-142750686D01*
X96986371Y-142691911D01*
X96968243Y-142629549D01*
X96959208Y-142616599D01*
X96904219Y-142574689D01*
X96840684Y-142572978D01*
X96787909Y-142600999D01*
X96744747Y-142655910D01*
X96736892Y-142715454D01*
X96642297Y-142715454D01*
X96636656Y-142688060D01*
X96653187Y-142608336D01*
X96697031Y-142542534D01*
X96760753Y-142495836D01*
X96836920Y-142473422D01*
X96918095Y-142480470D01*
X96996843Y-142522161D01*
X97007234Y-142531041D01*
X97059862Y-142601685D01*
X97084587Y-142685585D01*
X97077291Y-142767052D01*
X97072475Y-142779750D01*
X97020986Y-142852602D01*
X96948892Y-142896473D01*
X96866370Y-142911441D01*
X96860435Y-142910448D01*
X96783599Y-142897585D01*
X96710757Y-142854983D01*
D12*
X114996000Y-147066000D02*
G75*
G03*
X114996000Y-147066000I-950000J0D01*
G01*
X144550000Y-110500000D02*
G75*
G03*
X144550000Y-110500000I-950000J0D01*
G01*
X105846200Y-156027400D02*
X105846200Y-155427400D01*
X103046200Y-155427400D02*
X103046200Y-156027400D01*
X105146200Y-154727400D02*
X103746200Y-154727400D01*
X103746200Y-156727400D02*
X105146200Y-156727400D01*
X105146200Y-156727400D02*
G75*
G03*
X105846200Y-156027400I0J700000D01*
G01*
X105846200Y-155427400D02*
G75*
G03*
X105146200Y-154727400I-700000J0D01*
G01*
X103046200Y-156027400D02*
G75*
G03*
X103746200Y-156727400I699999J-1D01*
G01*
X103746200Y-154727400D02*
G75*
G03*
X103046200Y-155427400I-1J-699999D01*
G01*
X90398000Y-151638000D02*
G75*
G03*
X90398000Y-151638000I-950000J0D01*
G01*
X92898000Y-151638000D02*
G75*
G03*
X92898000Y-151638000I-950000J0D01*
G01*
X87648000Y-151638000D02*
G75*
G03*
X87648000Y-151638000I-950000J0D01*
G01*
X91690100Y-115679300D02*
G75*
G03*
X91690100Y-115679300I-950000J0D01*
G01*
X96890100Y-115679300D02*
G75*
G03*
X96890100Y-115679300I-950000J0D01*
G01*
G36*
X159447000Y-161980719D02*
G01*
X131117598Y-161980719D01*
X130707299Y-161648244D01*
X130643688Y-161598695D01*
X130323433Y-161376384D01*
X129917110Y-161121650D01*
X129497000Y-160880354D01*
X128804909Y-160486693D01*
X128128798Y-160050957D01*
X127581537Y-159628262D01*
X127129032Y-159194335D01*
X126834159Y-158830053D01*
X126589125Y-158366385D01*
X126488467Y-157890087D01*
X126536792Y-157394319D01*
X126738708Y-156872242D01*
X127098824Y-156317013D01*
X127621746Y-155721795D01*
X128312083Y-155079745D01*
X129174443Y-154384024D01*
X130213433Y-153627792D01*
X131433662Y-152804209D01*
X131889482Y-152501291D01*
X132734110Y-151907432D01*
X133414323Y-151374002D01*
X133942828Y-150887095D01*
X134332328Y-150432806D01*
X134595528Y-149997229D01*
X134745135Y-149566460D01*
X134793852Y-149126592D01*
X134783259Y-148904484D01*
X134669287Y-148423254D01*
X134420899Y-147954708D01*
X134026287Y-147486126D01*
X133473639Y-147004790D01*
X132751147Y-146497981D01*
X131847000Y-145952980D01*
X131722157Y-145881542D01*
X130822924Y-145335287D01*
X130100048Y-144828111D01*
X129539729Y-144344390D01*
X129128164Y-143868500D01*
X128851551Y-143384816D01*
X128696090Y-142877715D01*
X128647976Y-142331572D01*
X128716591Y-141760089D01*
X128948618Y-141144284D01*
X129351074Y-140525906D01*
X129930558Y-139896686D01*
X130693667Y-139248352D01*
X131647000Y-138572636D01*
X131949149Y-138371768D01*
X132705166Y-137846741D01*
X133305175Y-137388376D01*
X133766559Y-136980312D01*
X134106702Y-136606189D01*
X134342988Y-136249646D01*
X134492798Y-135894323D01*
X134495805Y-135884543D01*
X134539800Y-135474843D01*
X134417449Y-135062502D01*
X134121567Y-134637123D01*
X133644969Y-134188306D01*
X132980469Y-133705654D01*
X132757209Y-133552422D01*
X132208561Y-133101323D01*
X131851067Y-132663321D01*
X131679541Y-132227218D01*
X131688796Y-131781815D01*
X131873645Y-131315914D01*
X132031929Y-131084590D01*
X132279539Y-130816488D01*
X132631896Y-130504225D01*
X133111282Y-130128135D01*
X133739974Y-129668552D01*
X133982527Y-129481930D01*
X134448691Y-129032251D01*
X134794138Y-128563588D01*
X134984771Y-128118402D01*
X134995069Y-127783322D01*
X134849266Y-127365417D01*
X134553768Y-126958608D01*
X134130601Y-126601994D01*
X133912832Y-126465168D01*
X133440353Y-126215103D01*
X132888815Y-125983568D01*
X132234228Y-125762870D01*
X131452600Y-125545315D01*
X130519942Y-125323211D01*
X129412263Y-125088862D01*
X129301043Y-125066092D01*
X128187607Y-124804497D01*
X127128672Y-124496423D01*
X126153295Y-124153007D01*
X125290536Y-123785384D01*
X124569450Y-123404689D01*
X124019097Y-123022059D01*
X123840200Y-122853574D01*
X123535654Y-122462408D01*
X123325416Y-122046963D01*
X123246999Y-121672799D01*
X123250823Y-121576118D01*
X123386895Y-121070763D01*
X123712518Y-120547663D01*
X124220355Y-120013618D01*
X124903067Y-119475428D01*
X125753318Y-118939893D01*
X126763770Y-118413812D01*
X126915168Y-118342465D01*
X127413088Y-118120769D01*
X127949275Y-117903482D01*
X128554744Y-117679449D01*
X129260510Y-117437514D01*
X130097590Y-117166524D01*
X131097000Y-116855323D01*
X131596676Y-116694701D01*
X132550686Y-116340123D01*
X133352307Y-115971810D01*
X133992143Y-115595715D01*
X134460800Y-115217786D01*
X134748884Y-114843974D01*
X134847000Y-114480229D01*
X134846747Y-114461440D01*
X134750228Y-114120326D01*
X134475692Y-113787950D01*
X134017674Y-113460359D01*
X133370709Y-113133601D01*
X132529333Y-112803721D01*
X132161124Y-112669608D01*
X131515515Y-112405780D01*
X131016315Y-112151275D01*
X130629497Y-111887482D01*
X130321034Y-111595789D01*
X130078945Y-111275675D01*
X129846042Y-110724106D01*
X129804964Y-110133139D01*
X129954677Y-109509784D01*
X130294149Y-108861054D01*
X130822345Y-108193960D01*
X131216277Y-107767281D01*
X159447000Y-107767281D01*
X159447000Y-161980719D01*
G37*
X103919500Y-149098000D02*
G75*
G03*
X103919500Y-149098000I-950000J0D01*
G01*
X124140000Y-149098000D02*
G75*
G03*
X124140000Y-149098000I-950000J0D01*
G01*
X94290100Y-115679300D02*
G75*
G03*
X94290100Y-115679300I-950000J0D01*
G01*
X144550000Y-151600000D02*
G75*
G03*
X144550000Y-151600000I-950000J0D01*
G01*
X153497600Y-140379300D02*
X152897600Y-140379300D01*
X154197600Y-143829300D02*
X154197600Y-141029300D01*
X152897600Y-144479300D02*
X153497600Y-144479300D01*
X154697600Y-140929300D02*
X154697600Y-141529300D01*
X154397600Y-141229300D02*
X154697600Y-141529300D01*
X152197600Y-141029300D02*
X152197600Y-143829300D01*
X154397600Y-141229300D02*
X154697600Y-140929300D01*
X153497600Y-144479300D02*
G75*
G03*
X154197600Y-143779300I0J700000D01*
G01*
X152897600Y-140379300D02*
G75*
G03*
X152197600Y-141079300I-1J-699999D01*
G01*
X152197600Y-143779300D02*
G75*
G03*
X152897600Y-144479300I700000J0D01*
G01*
X154197600Y-141079300D02*
G75*
G03*
X153497600Y-140379300I-699999J1D01*
G01*
X106090100Y-115679300D02*
G75*
G03*
X106090100Y-115679300I-950000J0D01*
G01*
X157282600Y-140379300D02*
X156682600Y-140379300D01*
X156682600Y-144479300D02*
X157282600Y-144479300D01*
X155782600Y-143629300D02*
X155482600Y-143329300D01*
X155482600Y-143929300D02*
X155482600Y-143329300D01*
X157982600Y-143829300D02*
X157982600Y-141029300D01*
X155982600Y-141029300D02*
X155982600Y-143829300D01*
X155782600Y-143629300D02*
X155482600Y-143929300D01*
X155982600Y-143779300D02*
G75*
G03*
X156682600Y-144479300I699999J-1D01*
G01*
X156682600Y-140379300D02*
G75*
G03*
X155982600Y-141079300I0J-700000D01*
G01*
X157982600Y-141079300D02*
G75*
G03*
X157282600Y-140379300I-700000J0D01*
G01*
X157282600Y-144479300D02*
G75*
G03*
X157982600Y-143779300I1J699999D01*
G01*
X106396200Y-155427400D02*
X106396200Y-156027400D01*
X109196200Y-156027400D02*
X109196200Y-155427400D01*
X107096200Y-156727400D02*
X108496200Y-156727400D01*
X108496200Y-154727400D02*
X107096200Y-154727400D01*
X109196200Y-155427400D02*
G75*
G03*
X108496200Y-154727400I-699999J1D01*
G01*
X108496200Y-156727400D02*
G75*
G03*
X109196200Y-156027400I1J699999D01*
G01*
X106396200Y-156027400D02*
G75*
G03*
X107096200Y-156727400I700000J0D01*
G01*
X107096200Y-154727400D02*
G75*
G03*
X106396200Y-155427400I0J-700000D01*
G01*
X107376000Y-149098000D02*
G75*
G03*
X107376000Y-149098000I-950000J0D01*
G01*
X84898000Y-151638000D02*
G75*
G03*
X84898000Y-151638000I-950000J0D01*
G01*
X144550000Y-158800000D02*
G75*
G03*
X144550000Y-158800000I-950000J0D01*
G01*
X110678000Y-147320000D02*
G75*
G03*
X110678000Y-147320000I-950000J0D01*
G01*
X144550000Y-117700000D02*
G75*
G03*
X144550000Y-117700000I-950000J0D01*
G01*
M02*
