G04 #@! TF.GenerationSoftware,KiCad,Pcbnew,(6.0.4-0)*
G04 #@! TF.CreationDate,2022-11-14T15:10:56+01:00*
G04 #@! TF.ProjectId,muVox,6d75566f-782e-46b6-9963-61645f706362,rc1*
G04 #@! TF.SameCoordinates,Original*
G04 #@! TF.FileFunction,Paste,Top*
G04 #@! TF.FilePolarity,Positive*
%FSLAX46Y46*%
G04 Gerber Fmt 4.6, Leading zero omitted, Abs format (unit mm)*
G04 Created by KiCad (PCBNEW (6.0.4-0)) date 2022-11-14 15:10:56*
%MOMM*%
%LPD*%
G01*
G04 APERTURE LIST*
G04 Aperture macros list*
%AMRoundRect*
0 Rectangle with rounded corners*
0 $1 Rounding radius*
0 $2 $3 $4 $5 $6 $7 $8 $9 X,Y pos of 4 corners*
0 Add a 4 corners polygon primitive as box body*
4,1,4,$2,$3,$4,$5,$6,$7,$8,$9,$2,$3,0*
0 Add four circle primitives for the rounded corners*
1,1,$1+$1,$2,$3*
1,1,$1+$1,$4,$5*
1,1,$1+$1,$6,$7*
1,1,$1+$1,$8,$9*
0 Add four rect primitives between the rounded corners*
20,1,$1+$1,$2,$3,$4,$5,0*
20,1,$1+$1,$4,$5,$6,$7,0*
20,1,$1+$1,$6,$7,$8,$9,0*
20,1,$1+$1,$8,$9,$2,$3,0*%
G04 Aperture macros list end*
%ADD10RoundRect,0.250000X-0.475000X0.250000X-0.475000X-0.250000X0.475000X-0.250000X0.475000X0.250000X0*%
%ADD11RoundRect,0.150000X0.150000X-0.725000X0.150000X0.725000X-0.150000X0.725000X-0.150000X-0.725000X0*%
%ADD12RoundRect,0.150000X0.512500X0.150000X-0.512500X0.150000X-0.512500X-0.150000X0.512500X-0.150000X0*%
%ADD13RoundRect,0.225000X0.250000X-0.225000X0.250000X0.225000X-0.250000X0.225000X-0.250000X-0.225000X0*%
%ADD14RoundRect,0.150000X-0.150000X0.512500X-0.150000X-0.512500X0.150000X-0.512500X0.150000X0.512500X0*%
%ADD15RoundRect,0.250000X1.137500X0.550000X-1.137500X0.550000X-1.137500X-0.550000X1.137500X-0.550000X0*%
%ADD16RoundRect,0.150000X-0.587500X-0.150000X0.587500X-0.150000X0.587500X0.150000X-0.587500X0.150000X0*%
%ADD17R,0.450000X0.600000*%
%ADD18RoundRect,0.250000X0.250000X0.475000X-0.250000X0.475000X-0.250000X-0.475000X0.250000X-0.475000X0*%
%ADD19RoundRect,0.200000X0.275000X-0.200000X0.275000X0.200000X-0.275000X0.200000X-0.275000X-0.200000X0*%
%ADD20RoundRect,0.250000X1.000000X-1.500000X1.000000X1.500000X-1.000000X1.500000X-1.000000X-1.500000X0*%
%ADD21RoundRect,0.200000X0.200000X0.275000X-0.200000X0.275000X-0.200000X-0.275000X0.200000X-0.275000X0*%
%ADD22RoundRect,0.225000X-0.225000X-0.250000X0.225000X-0.250000X0.225000X0.250000X-0.225000X0.250000X0*%
%ADD23R,0.600000X0.450000*%
%ADD24RoundRect,0.225000X0.225000X0.250000X-0.225000X0.250000X-0.225000X-0.250000X0.225000X-0.250000X0*%
%ADD25RoundRect,0.200000X-0.200000X-0.275000X0.200000X-0.275000X0.200000X0.275000X-0.200000X0.275000X0*%
%ADD26RoundRect,0.250000X-1.000000X1.500000X-1.000000X-1.500000X1.000000X-1.500000X1.000000X1.500000X0*%
%ADD27RoundRect,0.250000X-0.325000X-0.650000X0.325000X-0.650000X0.325000X0.650000X-0.325000X0.650000X0*%
%ADD28RoundRect,0.200000X-0.275000X0.200000X-0.275000X-0.200000X0.275000X-0.200000X0.275000X0.200000X0*%
%ADD29RoundRect,0.250000X-0.277694X0.277694X-0.277694X-0.277694X0.277694X-0.277694X0.277694X0.277694X0*%
%ADD30RoundRect,0.075000X-0.075000X0.362500X-0.075000X-0.362500X0.075000X-0.362500X0.075000X0.362500X0*%
%ADD31RoundRect,0.075000X-0.362500X0.075000X-0.362500X-0.075000X0.362500X-0.075000X0.362500X0.075000X0*%
%ADD32R,3.600000X2.700000*%
%ADD33R,0.700000X0.600000*%
%ADD34RoundRect,0.250000X0.475000X-0.250000X0.475000X0.250000X-0.475000X0.250000X-0.475000X-0.250000X0*%
%ADD35R,1.550000X0.600000*%
%ADD36R,2.600000X3.100000*%
%ADD37RoundRect,0.250000X-0.250000X-0.475000X0.250000X-0.475000X0.250000X0.475000X-0.250000X0.475000X0*%
%ADD38R,1.500000X1.000000*%
%ADD39RoundRect,0.150000X-0.150000X-0.625000X0.150000X-0.625000X0.150000X0.625000X-0.150000X0.625000X0*%
%ADD40RoundRect,0.250000X-0.350000X-0.650000X0.350000X-0.650000X0.350000X0.650000X-0.350000X0.650000X0*%
%ADD41RoundRect,0.225000X-0.250000X0.225000X-0.250000X-0.225000X0.250000X-0.225000X0.250000X0.225000X0*%
%ADD42R,1.800000X3.500000*%
%ADD43O,0.900000X3.000000*%
%ADD44R,5.000000X5.000000*%
%ADD45R,1.100000X1.100000*%
G04 APERTURE END LIST*
D10*
X101859100Y-114146800D03*
X101859100Y-116046800D03*
X95709100Y-114129900D03*
X95709100Y-116029900D03*
D11*
X126314200Y-153068100D03*
X127584200Y-153068100D03*
X128854200Y-153068100D03*
X130124200Y-153068100D03*
X130124200Y-147918100D03*
X128854200Y-147918100D03*
X127584200Y-147918100D03*
X126314200Y-147918100D03*
D12*
X99927600Y-116029300D03*
X99927600Y-115079300D03*
X99927600Y-114129300D03*
X97652600Y-114129300D03*
X97652600Y-116029300D03*
D13*
X140960100Y-128694300D03*
X140960100Y-127144300D03*
D14*
X104763400Y-150647700D03*
X103813400Y-150647700D03*
X102863400Y-150647700D03*
X102863400Y-152922700D03*
X104763400Y-152922700D03*
D15*
X100902600Y-119829300D03*
X96777600Y-119829300D03*
D16*
X132887500Y-157200000D03*
X132887500Y-159100000D03*
X134762500Y-158150000D03*
D17*
X128450000Y-154825000D03*
X128450000Y-156925000D03*
D18*
X152140100Y-127229300D03*
X150240100Y-127229300D03*
D19*
X95199200Y-152031200D03*
X95199200Y-150381200D03*
D20*
X135760480Y-142894790D03*
X135760480Y-136394790D03*
D13*
X148400100Y-126734300D03*
X148400100Y-125184300D03*
D21*
X85215900Y-148675000D03*
X83565900Y-148675000D03*
D22*
X133275000Y-147800000D03*
X134825000Y-147800000D03*
D18*
X152140100Y-141679300D03*
X150240100Y-141679300D03*
D21*
X131150000Y-160350000D03*
X129500000Y-160350000D03*
D23*
X108184200Y-151206200D03*
X110284200Y-151206200D03*
D24*
X147215100Y-152049300D03*
X145665100Y-152049300D03*
D25*
X107884200Y-152956200D03*
X109534200Y-152956200D03*
D18*
X152140100Y-143679300D03*
X150240100Y-143679300D03*
D26*
X126915100Y-125804300D03*
X126915100Y-132304300D03*
D21*
X85225000Y-151725000D03*
X83575000Y-151725000D03*
D24*
X88225000Y-146175000D03*
X86675000Y-146175000D03*
X147210100Y-158289300D03*
X145660100Y-158289300D03*
X147260100Y-117219300D03*
X145710100Y-117219300D03*
D27*
X144140100Y-153979300D03*
X147090100Y-153979300D03*
D18*
X146540100Y-123189300D03*
X144640100Y-123189300D03*
D21*
X109534200Y-149456200D03*
X107884200Y-149456200D03*
D13*
X155905200Y-141719600D03*
X155905200Y-140169600D03*
D27*
X144135100Y-156339300D03*
X147085100Y-156339300D03*
D21*
X89740100Y-122779300D03*
X88090100Y-122779300D03*
X85225000Y-153275000D03*
X83575000Y-153275000D03*
D24*
X85200000Y-146175000D03*
X83650000Y-146175000D03*
D10*
X117365100Y-111079300D03*
X117365100Y-112979300D03*
D27*
X144185100Y-115279300D03*
X147135100Y-115279300D03*
D13*
X118015100Y-130279300D03*
X118015100Y-128729300D03*
D24*
X157775100Y-133939300D03*
X156225100Y-133939300D03*
D28*
X101299400Y-150381200D03*
X101299400Y-152031200D03*
D18*
X146540100Y-127229300D03*
X144640100Y-127229300D03*
D19*
X115265100Y-114604300D03*
X115265100Y-112954300D03*
D27*
X144185100Y-112904300D03*
X147135100Y-112904300D03*
D19*
X115265100Y-117654300D03*
X115265100Y-116004300D03*
D29*
X149777600Y-132554300D03*
X149777600Y-136266800D03*
X146065100Y-132554300D03*
X149777600Y-133791800D03*
X146065100Y-135029300D03*
X146065100Y-133791800D03*
X149777600Y-135029300D03*
X147302600Y-135029300D03*
X148540100Y-135029300D03*
X147302600Y-133791800D03*
X147302600Y-136266800D03*
X148540100Y-132554300D03*
X148540100Y-133791800D03*
X147302600Y-132554300D03*
X146065100Y-136266800D03*
X148540100Y-136266800D03*
D30*
X151671350Y-129973050D03*
X151171350Y-129973050D03*
X150671350Y-129973050D03*
X150171350Y-129973050D03*
X149671350Y-129973050D03*
X149171350Y-129973050D03*
X148671350Y-129973050D03*
X148171350Y-129973050D03*
X147671350Y-129973050D03*
X147171350Y-129973050D03*
X146671350Y-129973050D03*
X146171350Y-129973050D03*
X145671350Y-129973050D03*
X145171350Y-129973050D03*
X144671350Y-129973050D03*
X144171350Y-129973050D03*
D31*
X143483850Y-130660550D03*
X143483850Y-131160550D03*
X143483850Y-131660550D03*
X143483850Y-132160550D03*
X143483850Y-132660550D03*
X143483850Y-133160550D03*
X143483850Y-133660550D03*
X143483850Y-134160550D03*
X143483850Y-134660550D03*
X143483850Y-135160550D03*
X143483850Y-135660550D03*
X143483850Y-136160550D03*
X143483850Y-136660550D03*
X143483850Y-137160550D03*
X143483850Y-137660550D03*
X143483850Y-138160550D03*
D30*
X144171350Y-138848050D03*
X144671350Y-138848050D03*
X145171350Y-138848050D03*
X145671350Y-138848050D03*
X146171350Y-138848050D03*
X146671350Y-138848050D03*
X147171350Y-138848050D03*
X147671350Y-138848050D03*
X148171350Y-138848050D03*
X148671350Y-138848050D03*
X149171350Y-138848050D03*
X149671350Y-138848050D03*
X150171350Y-138848050D03*
X150671350Y-138848050D03*
X151171350Y-138848050D03*
X151671350Y-138848050D03*
D31*
X152358850Y-138160550D03*
X152358850Y-137660550D03*
X152358850Y-137160550D03*
X152358850Y-136660550D03*
X152358850Y-136160550D03*
X152358850Y-135660550D03*
X152358850Y-135160550D03*
X152358850Y-134660550D03*
X152358850Y-134160550D03*
X152358850Y-133660550D03*
X152358850Y-133160550D03*
X152358850Y-132660550D03*
X152358850Y-132160550D03*
X152358850Y-131660550D03*
X152358850Y-131160550D03*
X152358850Y-130660550D03*
D32*
X108968100Y-109593300D03*
X108968100Y-117893300D03*
D28*
X131100000Y-154925000D03*
X131100000Y-156575000D03*
D33*
X131750000Y-149275000D03*
X131750000Y-147875000D03*
D25*
X132575000Y-155650000D03*
X134225000Y-155650000D03*
X80575000Y-146175000D03*
X82225000Y-146175000D03*
D13*
X140960100Y-131734300D03*
X140960100Y-130184300D03*
D21*
X85215000Y-150198300D03*
X83565000Y-150198300D03*
D34*
X157930100Y-129219300D03*
X157930100Y-127319300D03*
D28*
X106324400Y-150381200D03*
X106324400Y-152031200D03*
D35*
X117422600Y-114856800D03*
X117422600Y-116126800D03*
X117422600Y-117396800D03*
X117422600Y-118666800D03*
X122822600Y-118666800D03*
X122822600Y-117396800D03*
X122822600Y-116126800D03*
X122822600Y-114856800D03*
D36*
X120122600Y-116761800D03*
D21*
X92765100Y-122779300D03*
X91115100Y-122779300D03*
D18*
X146540100Y-143629300D03*
X144640100Y-143629300D03*
D21*
X128100000Y-158825000D03*
X126450000Y-158825000D03*
D25*
X99682800Y-154762200D03*
X101332800Y-154762200D03*
D18*
X146540100Y-141579300D03*
X144640100Y-141579300D03*
D19*
X96723200Y-152031200D03*
X96723200Y-150381200D03*
D24*
X147260100Y-110959300D03*
X145710100Y-110959300D03*
D16*
X132000000Y-150675000D03*
X132000000Y-152575000D03*
X133875000Y-151625000D03*
D28*
X135650000Y-150075000D03*
X135650000Y-151725000D03*
D21*
X131150000Y-158825000D03*
X129500000Y-158825000D03*
D25*
X140805100Y-124339300D03*
X142455100Y-124339300D03*
D20*
X126890100Y-142904300D03*
X126890100Y-136404300D03*
D37*
X132879000Y-146002200D03*
X134779000Y-146002200D03*
D26*
X135760480Y-125837290D03*
X135760480Y-132337290D03*
D19*
X98247200Y-152019000D03*
X98247200Y-150369000D03*
D37*
X88422400Y-153619200D03*
X90322400Y-153619200D03*
D13*
X155940100Y-138689300D03*
X155940100Y-137139300D03*
D19*
X99771200Y-152019000D03*
X99771200Y-150369000D03*
D10*
X157680100Y-137149300D03*
X157680100Y-139049300D03*
D13*
X154600100Y-129224300D03*
X154600100Y-127674300D03*
D38*
X87150000Y-148150000D03*
X87150000Y-149750000D03*
X87150000Y-151350000D03*
X92050000Y-151350000D03*
X92050000Y-149750000D03*
X92050000Y-148150000D03*
D39*
X93496000Y-155988000D03*
X94496000Y-155988000D03*
X95496000Y-155988000D03*
X96496000Y-155988000D03*
D40*
X92196000Y-159863000D03*
X97796000Y-159863000D03*
D10*
X127742600Y-116827800D03*
X127742600Y-118727800D03*
D18*
X146540100Y-125229300D03*
X144640100Y-125229300D03*
D25*
X132575000Y-154125000D03*
X134225000Y-154125000D03*
D13*
X156140100Y-129239300D03*
X156140100Y-127689300D03*
D41*
X148430100Y-142114300D03*
X148430100Y-143664300D03*
D22*
X156280100Y-130729300D03*
X157830100Y-130729300D03*
D23*
X104065100Y-120579300D03*
X106165100Y-120579300D03*
D42*
X119840100Y-136579300D03*
X119840100Y-132179300D03*
D41*
X117965100Y-138504300D03*
X117965100Y-140054300D03*
D43*
X81230100Y-143410550D03*
X82500100Y-143410550D03*
X83770100Y-143410550D03*
X85040100Y-143410550D03*
X86310100Y-143410550D03*
X87580100Y-143410550D03*
X88850100Y-143410550D03*
X90120100Y-143410550D03*
X91390100Y-143410550D03*
X92660100Y-143410550D03*
X93930100Y-143410550D03*
X95200100Y-143410550D03*
X96470100Y-143410550D03*
X97740100Y-143410550D03*
X99040100Y-143410550D03*
X100310100Y-143410550D03*
X101580100Y-143410550D03*
X102850100Y-143410550D03*
X104120100Y-143410550D03*
X104120100Y-125410550D03*
X102850100Y-125410550D03*
X101580100Y-125410550D03*
X100310100Y-125410550D03*
X99040100Y-125410550D03*
X97740100Y-125380550D03*
X96470100Y-125380550D03*
X95200100Y-125380550D03*
X93930100Y-125380550D03*
X92660100Y-125380550D03*
X91390100Y-125380550D03*
X90120100Y-125380550D03*
X88850100Y-125380550D03*
X87580100Y-125380550D03*
X86310100Y-125380550D03*
X85040100Y-125380550D03*
X83770100Y-125380550D03*
X82500100Y-125380550D03*
X81230100Y-125380550D03*
D44*
X88150100Y-134810550D03*
D10*
X125456600Y-116827800D03*
X125456600Y-118727800D03*
D22*
X156215100Y-135459300D03*
X157765100Y-135459300D03*
D17*
X126450000Y-154825000D03*
X126450000Y-156925000D03*
D18*
X146540100Y-145639300D03*
X144640100Y-145639300D03*
D45*
X123515100Y-112029300D03*
X120715100Y-112029300D03*
D18*
X152140100Y-125229300D03*
X150240100Y-125229300D03*
D22*
X156240100Y-132419300D03*
X157790100Y-132419300D03*
M02*
