G04 #@! TF.GenerationSoftware,KiCad,Pcbnew,(6.0.4-0)*
G04 #@! TF.CreationDate,2022-11-14T15:10:57+01:00*
G04 #@! TF.ProjectId,muVox,6d75566f-782e-46b6-9963-61645f706362,rc1*
G04 #@! TF.SameCoordinates,Original*
G04 #@! TF.FileFunction,Soldermask,Bot*
G04 #@! TF.FilePolarity,Negative*
%FSLAX46Y46*%
G04 Gerber Fmt 4.6, Leading zero omitted, Abs format (unit mm)*
G04 Created by KiCad (PCBNEW (6.0.4-0)) date 2022-11-14 15:10:57*
%MOMM*%
%LPD*%
G01*
G04 APERTURE LIST*
G04 Aperture macros list*
%AMRoundRect*
0 Rectangle with rounded corners*
0 $1 Rounding radius*
0 $2 $3 $4 $5 $6 $7 $8 $9 X,Y pos of 4 corners*
0 Add a 4 corners polygon primitive as box body*
4,1,4,$2,$3,$4,$5,$6,$7,$8,$9,$2,$3,0*
0 Add four circle primitives for the rounded corners*
1,1,$1+$1,$2,$3*
1,1,$1+$1,$4,$5*
1,1,$1+$1,$6,$7*
1,1,$1+$1,$8,$9*
0 Add four rect primitives between the rounded corners*
20,1,$1+$1,$2,$3,$4,$5,0*
20,1,$1+$1,$4,$5,$6,$7,0*
20,1,$1+$1,$6,$7,$8,$9,0*
20,1,$1+$1,$8,$9,$2,$3,0*%
%AMFreePoly0*
4,1,22,0.500000,-0.750000,0.000000,-0.750000,0.000000,-0.745033,-0.079941,-0.743568,-0.215256,-0.701293,-0.333266,-0.622738,-0.424486,-0.514219,-0.481581,-0.384460,-0.499164,-0.250000,-0.500000,-0.250000,-0.500000,0.250000,-0.499164,0.250000,-0.499963,0.256109,-0.478152,0.396186,-0.417904,0.524511,-0.324060,0.630769,-0.204165,0.706417,-0.067858,0.745374,0.000000,0.744959,0.000000,0.750000,
0.500000,0.750000,0.500000,-0.750000,0.500000,-0.750000,$1*%
%AMFreePoly1*
4,1,20,0.000000,0.744959,0.073905,0.744508,0.209726,0.703889,0.328688,0.626782,0.421226,0.519385,0.479903,0.390333,0.500000,0.250000,0.500000,-0.250000,0.499851,-0.262216,0.476331,-0.402017,0.414519,-0.529596,0.319384,-0.634700,0.198574,-0.708877,0.061801,-0.746166,0.000000,-0.745033,0.000000,-0.750000,-0.500000,-0.750000,-0.500000,0.750000,0.000000,0.750000,0.000000,0.744959,
0.000000,0.744959,$1*%
%AMFreePoly2*
4,1,22,0.550000,-0.750000,0.000000,-0.750000,0.000000,-0.745033,-0.079941,-0.743568,-0.215256,-0.701293,-0.333266,-0.622738,-0.424486,-0.514219,-0.481581,-0.384460,-0.499164,-0.250000,-0.500000,-0.250000,-0.500000,0.250000,-0.499164,0.250000,-0.499963,0.256109,-0.478152,0.396186,-0.417904,0.524511,-0.324060,0.630769,-0.204165,0.706417,-0.067858,0.745374,0.000000,0.744959,0.000000,0.750000,
0.550000,0.750000,0.550000,-0.750000,0.550000,-0.750000,$1*%
%AMFreePoly3*
4,1,20,0.000000,0.744959,0.073905,0.744508,0.209726,0.703889,0.328688,0.626782,0.421226,0.519385,0.479903,0.390333,0.500000,0.250000,0.500000,-0.250000,0.499851,-0.262216,0.476331,-0.402017,0.414519,-0.529596,0.319384,-0.634700,0.198574,-0.708877,0.061801,-0.746166,0.000000,-0.745033,0.000000,-0.750000,-0.550000,-0.750000,-0.550000,0.750000,0.000000,0.750000,0.000000,0.744959,
0.000000,0.744959,$1*%
G04 Aperture macros list end*
%ADD10C,0.100000*%
%ADD11C,1.600000*%
%ADD12R,4.000000X2.000000*%
%ADD13O,3.300000X2.000000*%
%ADD14O,2.000000X3.500000*%
%ADD15RoundRect,0.250000X-0.600000X-0.600000X0.600000X-0.600000X0.600000X0.600000X-0.600000X0.600000X0*%
%ADD16C,1.700000*%
%ADD17C,6.400000*%
%ADD18C,2.500000*%
%ADD19RoundRect,0.250001X-1.099999X-1.099999X1.099999X-1.099999X1.099999X1.099999X-1.099999X1.099999X0*%
%ADD20C,2.700000*%
%ADD21R,1.700000X1.700000*%
%ADD22O,1.700000X1.700000*%
%ADD23C,1.400000*%
%ADD24C,1.200000*%
%ADD25O,1.208000X2.800000*%
%ADD26C,0.800000*%
%ADD27C,1.500000*%
%ADD28FreePoly0,0.000000*%
%ADD29FreePoly1,0.000000*%
%ADD30FreePoly2,270.000000*%
%ADD31R,1.500000X1.000000*%
%ADD32FreePoly3,270.000000*%
%ADD33FreePoly2,90.000000*%
%ADD34FreePoly3,90.000000*%
%ADD35FreePoly0,180.000000*%
%ADD36FreePoly1,180.000000*%
G04 APERTURE END LIST*
D10*
G36*
X129141300Y-156906500D02*
G01*
X128811100Y-157236700D01*
X128887300Y-157312900D01*
X128658700Y-157541500D01*
X128277700Y-157160500D01*
X128506300Y-156931900D01*
X128582500Y-157008100D01*
X128912700Y-156677900D01*
X129141300Y-156906500D01*
G37*
X129141300Y-156906500D02*
X128811100Y-157236700D01*
X128887300Y-157312900D01*
X128658700Y-157541500D01*
X128277700Y-157160500D01*
X128506300Y-156931900D01*
X128582500Y-157008100D01*
X128912700Y-156677900D01*
X129141300Y-156906500D01*
G36*
X131662578Y-125593863D02*
G01*
X132348110Y-125799515D01*
X133162688Y-126113043D01*
X133852192Y-126462629D01*
X134397946Y-126836909D01*
X134781273Y-127224524D01*
X134983496Y-127614110D01*
X135014985Y-127883944D01*
X134979028Y-128206410D01*
X134977151Y-128213130D01*
X134919077Y-128429915D01*
X134895015Y-128536996D01*
X134878718Y-128579862D01*
X134745838Y-128747935D01*
X134508905Y-128992238D01*
X134203831Y-129279574D01*
X133866526Y-129576751D01*
X133532902Y-129850574D01*
X133238869Y-130067849D01*
X132903697Y-130308434D01*
X132387983Y-130745109D01*
X132007536Y-131163667D01*
X131788316Y-131537805D01*
X131698582Y-132021927D01*
X131802903Y-132503175D01*
X132104558Y-132976621D01*
X132604424Y-133443636D01*
X133303379Y-133905590D01*
X133439259Y-133990894D01*
X133807407Y-134271345D01*
X134122728Y-134570626D01*
X134219956Y-134684778D01*
X134468946Y-135083843D01*
X134570085Y-135487667D01*
X134517756Y-135905673D01*
X134306340Y-136347286D01*
X133930218Y-136821932D01*
X133383772Y-137339036D01*
X132661384Y-137908022D01*
X131757434Y-138538315D01*
X131696133Y-138579331D01*
X131100540Y-138995064D01*
X130552492Y-139407046D01*
X130093708Y-139782774D01*
X129765911Y-140089748D01*
X129494659Y-140395413D01*
X129020901Y-141086581D01*
X128746259Y-141769711D01*
X128670162Y-142442685D01*
X128792038Y-143103387D01*
X129111317Y-143749700D01*
X129627427Y-144379509D01*
X130339797Y-144990696D01*
X131247856Y-145581145D01*
X132177593Y-146133002D01*
X132954368Y-146633259D01*
X133575320Y-147084648D01*
X134055487Y-147500204D01*
X134409907Y-147892965D01*
X134653616Y-148275969D01*
X134801651Y-148662253D01*
X134829201Y-148780225D01*
X134847073Y-149351671D01*
X134672972Y-149931543D01*
X134304696Y-150524977D01*
X133740039Y-151137115D01*
X133697209Y-151177020D01*
X133299897Y-151526241D01*
X132873353Y-151872413D01*
X132502840Y-152146007D01*
X131908297Y-152551349D01*
X131726656Y-152309196D01*
X131605523Y-152136357D01*
X131407174Y-151834563D01*
X131195015Y-151497322D01*
X130980217Y-151185934D01*
X130681500Y-150857907D01*
X130299051Y-150542819D01*
X129798385Y-150212790D01*
X129145015Y-149839939D01*
X128617358Y-149545619D01*
X127945042Y-149157808D01*
X127198045Y-148716916D01*
X126411908Y-148244643D01*
X125622171Y-147762691D01*
X124864373Y-147292759D01*
X124174055Y-146856550D01*
X123586757Y-146475762D01*
X123138019Y-146172096D01*
X121937525Y-145294272D01*
X120737217Y-144321335D01*
X119726459Y-143382508D01*
X118902193Y-142472823D01*
X118261357Y-141587316D01*
X117800892Y-140721018D01*
X117517738Y-139868963D01*
X117408834Y-139026184D01*
X117471120Y-138187715D01*
X117701536Y-137348589D01*
X117725258Y-137286311D01*
X118153324Y-136428072D01*
X118774711Y-135551459D01*
X119584497Y-134661391D01*
X120577758Y-133762787D01*
X121749572Y-132860568D01*
X123095015Y-131959650D01*
X123951541Y-131395480D01*
X125290576Y-130420596D01*
X126641041Y-129334672D01*
X127955145Y-128178534D01*
X129185100Y-126993006D01*
X130283117Y-125818916D01*
X130706057Y-125338268D01*
X131662578Y-125593863D01*
G37*
G36*
X130685251Y-161519463D02*
G01*
X130873953Y-161586828D01*
X131146079Y-161709397D01*
X131193946Y-161732799D01*
X131429162Y-161860639D01*
X131496591Y-161934759D01*
X131412722Y-161971362D01*
X131255282Y-161944850D01*
X131035671Y-161850554D01*
X130818176Y-161723744D01*
X130663951Y-161600209D01*
X130634153Y-161515738D01*
X130685251Y-161519463D01*
G37*
G36*
X130746291Y-108332564D02*
G01*
X130533761Y-108604485D01*
X130184687Y-109130605D01*
X129962992Y-109616888D01*
X129843095Y-110113782D01*
X129831654Y-110196540D01*
X129819842Y-110496481D01*
X129881902Y-110776163D01*
X130035678Y-111129708D01*
X130345307Y-111600514D01*
X130796256Y-112009197D01*
X131406228Y-112365713D01*
X132195015Y-112684310D01*
X132231292Y-112696818D01*
X133061229Y-113002399D01*
X133711053Y-113285650D01*
X134197457Y-113555790D01*
X134537135Y-113822039D01*
X134746780Y-114093615D01*
X134853900Y-114338165D01*
X134878383Y-114638144D01*
X134746870Y-114932955D01*
X134447494Y-115269221D01*
X134225589Y-115457719D01*
X133704744Y-115802430D01*
X133049419Y-116148735D01*
X132299535Y-116476405D01*
X131495015Y-116765213D01*
X130645015Y-117037943D01*
X129445015Y-116311844D01*
X129338732Y-116247350D01*
X128522418Y-115735530D01*
X127843358Y-115273311D01*
X127261544Y-114830456D01*
X126736966Y-114376730D01*
X126229613Y-113881895D01*
X125717511Y-113319085D01*
X125127198Y-112518752D01*
X124707265Y-111713692D01*
X124443221Y-110874218D01*
X124320577Y-109970644D01*
X124308821Y-109534658D01*
X124331430Y-108942873D01*
X124393058Y-108439617D01*
X124517661Y-107776639D01*
X131197316Y-107776639D01*
X130746291Y-108332564D01*
G37*
D11*
X119260100Y-157789300D03*
D12*
X119260100Y-148789300D03*
D13*
X119260100Y-154789300D03*
D14*
X114760100Y-155789300D03*
X123760100Y-155789300D03*
D15*
X110187600Y-128004300D03*
D16*
X112727600Y-128004300D03*
X110187600Y-130544300D03*
X112727600Y-130544300D03*
X110187600Y-133084300D03*
X112727600Y-133084300D03*
X110187600Y-135624300D03*
X112727600Y-135624300D03*
X110187600Y-138164300D03*
X112727600Y-138164300D03*
X110187600Y-140704300D03*
X112727600Y-140704300D03*
D17*
X78770100Y-155779300D03*
D18*
X154840100Y-157629300D03*
X154840100Y-152629300D03*
D19*
X117270100Y-151954300D03*
D20*
X121230100Y-151954300D03*
D17*
X78770100Y-112759300D03*
D21*
X88290100Y-110979300D03*
D22*
X90830100Y-110979300D03*
X93370100Y-110979300D03*
X95910100Y-110979300D03*
X98450100Y-110979300D03*
X100990100Y-110979300D03*
D23*
X103120400Y-158362800D03*
X106120400Y-158362800D03*
D24*
X109120400Y-158362800D03*
D25*
X99820400Y-158362800D03*
X112320400Y-158362800D03*
D17*
X139000000Y-112759300D03*
D26*
X87140100Y-134810550D03*
X86140100Y-132810550D03*
X86140100Y-135810550D03*
X89140100Y-133810550D03*
X87140100Y-133810550D03*
X88140100Y-135810550D03*
X89140100Y-136810550D03*
X87140100Y-132810550D03*
X86140100Y-134810550D03*
X90140100Y-136810550D03*
X89140100Y-134810550D03*
X86140100Y-133810550D03*
X88140100Y-133810550D03*
X89140100Y-132810550D03*
X90140100Y-133810550D03*
X88140100Y-134810550D03*
X90140100Y-132810550D03*
X88140100Y-136810550D03*
X89140100Y-135810550D03*
X87140100Y-135810550D03*
X86140100Y-136810550D03*
X87140100Y-136810550D03*
X90140100Y-134810550D03*
X90140100Y-135810550D03*
X88140100Y-132810550D03*
D18*
X154890100Y-111829300D03*
X154890100Y-116829300D03*
D17*
X139000000Y-155779300D03*
D27*
X114046000Y-147066000D03*
X143600000Y-110500000D03*
D28*
X103796200Y-155727400D03*
D29*
X105096200Y-155727400D03*
D27*
X89448000Y-151638000D03*
X91948000Y-151638000D03*
X86698000Y-151638000D03*
X90740100Y-115679300D03*
X95940100Y-115679300D03*
X102969500Y-149098000D03*
X123190000Y-149098000D03*
X93340100Y-115679300D03*
X143600000Y-151600000D03*
D30*
X153197600Y-141129300D03*
D31*
X153197600Y-142429300D03*
D32*
X153197600Y-143729300D03*
D27*
X105140100Y-115679300D03*
D33*
X156982600Y-143729300D03*
D31*
X156982600Y-142429300D03*
D34*
X156982600Y-141129300D03*
D35*
X108446200Y-155727400D03*
D36*
X107146200Y-155727400D03*
D27*
X106426000Y-149098000D03*
X83948000Y-151638000D03*
X143600000Y-158800000D03*
X109728000Y-147320000D03*
X143600000Y-117700000D03*
M02*
