M48
; DRILL file {KiCad (6.0.4-0)} date Monday, 14 November 2022 at 15.10.59
; FORMAT={-:-/ absolute / inch / decimal}
; #@! TF.CreationDate,2022-11-14T15:10:59+01:00
; #@! TF.GenerationSoftware,Kicad,Pcbnew,(6.0.4-0)
; #@! TF.FileFunction,Plated,1,4,PTH
FMAT,2
INCH
; #@! TA.AperFunction,Plated,PTH,ComponentDrill
T1C0.0118
; #@! TA.AperFunction,Plated,PTH,ViaDrill
T2C0.0157
; #@! TA.AperFunction,Plated,PTH,ComponentDrill
T3C0.0276
; #@! TA.AperFunction,Plated,PTH,ComponentDrill
T4C0.0315
; #@! TA.AperFunction,Plated,PTH,ComponentDrill
T5C0.0394
; #@! TA.AperFunction,Plated,PTH,ComponentDrill
T6C0.0512
; #@! TA.AperFunction,Plated,PTH,ComponentDrill
T7C0.0669
; #@! TA.AperFunction,Plated,PTH,ComponentDrill
T8C0.1654
%
G90
G05
T1
X3.3913Y-5.2288
X3.3913Y-5.2681
X3.3913Y-5.3075
X3.3913Y-5.3469
X3.3913Y-5.3862
X3.4307Y-5.2288
X3.4307Y-5.2681
X3.4307Y-5.3075
X3.4307Y-5.3469
X3.4307Y-5.3862
X3.4701Y-5.2288
X3.4701Y-5.2681
X3.4701Y-5.3075
X3.4701Y-5.3469
X3.4701Y-5.3862
X3.5095Y-5.2288
X3.5095Y-5.2681
X3.5095Y-5.3075
X3.5095Y-5.3469
X3.5095Y-5.3862
X3.5488Y-5.2288
X3.5488Y-5.2681
X3.5488Y-5.3075
X3.5488Y-5.3469
X3.5488Y-5.3862
X4.7056Y-4.5261
X4.7056Y-4.5733
X4.7056Y-4.6245
X4.7056Y-4.6678
X4.7529Y-4.5261
X4.7529Y-4.5733
X4.7529Y-4.6245
X4.7529Y-4.6678
X5.7277Y-5.1958
X5.7277Y-5.2418
X5.7277Y-5.2918
X5.7277Y-5.3418
X5.7277Y-5.3878
X5.7777Y-5.1958
X5.7777Y-5.2418
X5.7777Y-5.2918
X5.7777Y-5.3418
X5.7777Y-5.3878
X5.8237Y-5.1958
X5.8237Y-5.2418
X5.8237Y-5.2918
X5.8237Y-5.3418
X5.8237Y-5.3878
X5.8737Y-5.1958
X5.8737Y-5.2418
X5.8737Y-5.2918
X5.8737Y-5.3418
X5.8737Y-5.3878
X5.9197Y-5.1958
X5.9197Y-5.2418
X5.9197Y-5.2918
X5.9197Y-5.3418
X5.9197Y-5.3878
T2
X3.036Y-5.777
X3.084Y-5.776
X3.2156Y-5.9124
X3.2185Y-5.8533
X3.2476Y-5.5504
X3.248Y-5.4882
X3.272Y-5.804
X3.2988Y-5.5582
X3.3169Y-5.7195
X3.3185Y-4.4775
X3.348Y-4.8476
X3.3976Y-5.5659
X3.482Y-5.862
X3.5095Y-5.0405
X3.5095Y-5.1273
X3.515Y-5.837
X3.522Y-5.722
X3.5488Y-5.0189
X3.5488Y-5.1261
X3.5732Y-4.867
X3.6001Y-5.0381
X3.6091Y-5.7191
X3.6472Y-5.5641
X3.6492Y-5.009
X3.6661Y-5.0481
X3.6729Y-4.867
X3.696Y-5.89
X3.6965Y-5.5641
X3.7044Y-5.828
X3.7083Y-4.4893
X3.7095Y-5.9831
X3.717Y-4.7805
X3.721Y-6.05
X3.7455Y-5.1815
X3.7461Y-5.1021
X3.7461Y-5.1381
X3.7461Y-5.2221
X3.7481Y-5.0621
X3.753Y-4.7805
X3.8031Y-4.6142
X3.8058Y-4.7802
X3.8282Y-4.5297
X3.8356Y-5.8691
X3.8441Y-5.4581
X3.8441Y-5.5001
X3.851Y-4.6271
X3.851Y-4.6626
X3.8553Y-5.8337
X3.8687Y-5.3901
X3.8792Y-5.1452
X3.8864Y-4.6271
X3.8864Y-4.6626
X3.896Y-5.953
X3.8977Y-6.0123
X3.9219Y-4.627
X3.9219Y-4.6624
X3.93Y-5.846
X3.988Y-5.846
X4.013Y-6.023
X4.0606Y-4.5888
X4.0606Y-4.6271
X4.0915Y-5.8229
X4.1224Y-5.8624
X4.1431Y-6.0623
X4.1664Y-5.8223
X4.1691Y-6.0343
X4.179Y-6.177
X4.18Y-6.094
X4.2069Y-4.4288
X4.2069Y-4.4642
X4.2069Y-4.5002
X4.2069Y-4.5356
X4.2424Y-4.4286
X4.2424Y-4.4641
X4.2424Y-4.5001
X4.2424Y-4.5355
X4.2526Y-4.7468
X4.2778Y-4.4286
X4.2778Y-4.4641
X4.2778Y-4.5001
X4.2778Y-4.5355
X4.2956Y-5.952
X4.3132Y-4.4288
X4.3132Y-4.4642
X4.3132Y-4.5002
X4.3132Y-4.5356
X4.3313Y-4.7452
X4.3486Y-4.4286
X4.3486Y-4.4641
X4.3486Y-4.5001
X4.3486Y-4.5355
X4.364Y-5.8783
X4.3841Y-4.4286
X4.3841Y-4.4641
X4.3841Y-4.5001
X4.3841Y-4.5355
X4.4094Y-5.7825
X4.4803Y-5.8652
X4.4841Y-4.6401
X4.5177Y-5.8652
X4.52Y-5.65
X4.6Y-4.96
X4.8372Y-4.702
X4.9446Y-4.7181
X4.9781Y-4.7181
X4.9965Y-4.4192
X4.9966Y-4.4546
X4.9966Y-4.4901
X5.0146Y-4.7181
X5.0319Y-4.4192
X5.0321Y-4.4546
X5.0321Y-4.4901
X5.0501Y-4.7181
X5.0674Y-4.4196
X5.0676Y-4.455
X5.068Y-4.491
X5.0979Y-5.2192
X5.0979Y-5.3255
X5.0981Y-5.2546
X5.0981Y-5.2901
X5.0981Y-5.3609
X5.0981Y-5.3964
X5.1029Y-4.4196
X5.103Y-4.455
X5.103Y-4.491
X5.1334Y-5.2192
X5.1334Y-5.3255
X5.1335Y-5.2546
X5.1335Y-5.2901
X5.1335Y-5.3609
X5.1335Y-5.3964
X5.1688Y-5.2192
X5.1688Y-5.3255
X5.1689Y-5.2546
X5.1689Y-5.2901
X5.1689Y-5.3609
X5.1689Y-5.3964
X5.2041Y-5.2198
X5.2041Y-5.3261
X5.2042Y-5.2552
X5.2042Y-5.2906
X5.2042Y-5.3615
X5.2042Y-5.3969
X5.2395Y-5.2198
X5.2395Y-5.3261
X5.2396Y-5.2552
X5.2396Y-5.2906
X5.2396Y-5.3615
X5.2396Y-5.3969
X5.4644Y-5.4668
X5.4653Y-5.2476
X5.4653Y-5.2906
X5.4653Y-5.3416
X5.4663Y-5.2036
X5.468Y-5.547
X5.5063Y-5.2036
X5.5155Y-5.4775
X5.5311Y-5.3016
X5.5311Y-5.3706
X5.5473Y-4.9436
X5.6093Y-4.9436
X5.6287Y-4.4476
X5.629Y-4.54
X5.632Y-6.059
X5.6323Y-6.1543
X5.713Y-4.6769
X5.7138Y-6.1527
X5.7158Y-6.0598
X5.7181Y-4.8496
X5.7185Y-4.446
X5.7197Y-4.5378
X5.7833Y-5.0682
X5.7833Y-5.4236
X5.7843Y-5.1576
X5.7843Y-5.5146
X5.8272Y-4.802
X5.8423Y-5.1566
X5.8423Y-5.5146
X5.8423Y-5.5496
X5.8429Y-4.8846
X5.8433Y-5.0276
X5.8433Y-5.0666
X5.8433Y-5.4246
X5.8443Y-5.6962
X5.845Y-5.7946
X5.8476Y-5.7598
X5.8531Y-4.8279
X5.9013Y-5.0682
X5.9013Y-5.4236
X5.9023Y-5.1576
X5.9023Y-5.5146
X5.9543Y-4.8122
X5.9602Y-4.8693
X6.0035Y-4.8693
X6.0173Y-5.0681
X6.0472Y-4.8701
X6.1138Y-5.3338
X6.1153Y-5.6526
X6.116Y-5.6172
X6.1669Y-4.8713
X6.1709Y-4.4639
X6.1709Y-4.4993
X6.1709Y-4.5348
X6.1709Y-6.0781
X6.1709Y-6.1135
X6.1709Y-6.1489
X6.1804Y-5.6747
X6.1941Y-4.8965
X6.2063Y-4.4639
X6.2063Y-4.4993
X6.2063Y-4.5348
X6.2063Y-6.0781
X6.2063Y-6.1135
X6.2063Y-6.1489
X6.2213Y-4.8717
X6.2213Y-5.3946
X6.2417Y-4.4638
X6.2417Y-4.4992
X6.2417Y-4.5346
X6.2417Y-6.0779
X6.2417Y-6.1134
X6.2417Y-6.1488
X6.2476Y-5.2708
T4
X4.0599Y-6.2348
X4.178Y-6.2348
X4.2961Y-6.2348
T5
X3.476Y-4.3693
X3.576Y-4.3693
X3.676Y-4.3693
X3.776Y-4.3693
X3.876Y-4.3693
X3.976Y-4.3693
X4.3381Y-5.0395
X4.3381Y-5.1395
X4.3381Y-5.2395
X4.3381Y-5.3395
X4.3381Y-5.4395
X4.3381Y-5.5395
X4.4381Y-5.0395
X4.4381Y-5.1395
X4.4381Y-5.2395
X4.4381Y-5.3395
X4.4381Y-5.4395
X4.4381Y-5.5395
T6
X6.0961Y-6.009
X6.0961Y-6.2059
X6.098Y-4.4027
X6.098Y-4.5996
T7
X4.6169Y-5.9825
X4.7728Y-5.9825
T8
X3.1012Y-4.4393
X3.1012Y-6.133
X5.4724Y-4.4393
X5.4724Y-6.133
T3
G00X3.9299Y-6.2052
M15
G01X3.9299Y-6.2643
M16
G05
G00X4.4221Y-6.2052
M15
G01X4.4221Y-6.2643
M16
G05
T5
G00X4.5181Y-6.1039
M15
G01X4.5181Y-6.163
M16
G05
G00X4.6559Y-5.8578
M15
G01X4.7346Y-5.8578
M16
G05
G00X4.6697Y-6.0941
M15
G01X4.7209Y-6.0941
M16
G05
G00X4.8724Y-6.1039
M15
G01X4.8724Y-6.163
M16
G05
T0
M30
