  0
SECTION
  2
HEADER
  9
$ACADVER
  1
AC1009
  9
$FILLMODE
 70
 0
  9
$SPLFRAME
 70
 1
  9
$EXTMIN
 10
0
 20
0
 30
0.0
  9
$EXTMAX
 10
41.6667
 20
41.6667
 30
0.0
  0
ENDSEC
  0
SECTION
  2
TABLES
  0
TABLE
  2
LAYER
 70
1
  0
LAYER
  2
0
 70
     0
 62
     7
  6
CONTINUOUS
  0
ENDTAB
  0
ENDSEC
  0
SECTION
  2
ENTITIES
  0
POLYLINE
  8
0
 62
     142
 66
     1
 10
0
 20
0
 30
0.0
 70
     1
 40
0
 41
0
  0
VERTEX
  8
0
 10
1.58686
 20
1.28885
 30
0.0
 40
0
 41
0
  0
VERTEX
  8
0
 10
1.41558
 20
1.32069
 30
0.0
 40
0
 41
0
  0
VERTEX
  8
0
 10
1.4145
 20
1.32091
 30
0.0
 40
0
 41
0
  0
VERTEX
  8
0
 10
1.40576
 20
1.32845
 30
0.0
 40
0
 41
0
  0
VERTEX
  8
0
 10
1.40543
 20
1.32943
 30
0.0
 40
0
 41
0
  0
VERTEX
  8
0
 10
1.35297
 20
1.45188
 30
0.0
 40
0
 41
0
  0
VERTEX
  8
0
 10
1.35248
 20
1.45285
 30
0.0
 40
0
 41
0
  0
VERTEX
  8
0
 10
1.35319
 20
1.46425
 30
0.0
 40
0
 41
0
  0
VERTEX
  8
0
 10
1.35379
 20
1.46511
 30
0.0
 40
0
 41
0
  0
VERTEX
  8
0
 10
1.45356
 20
1.61051
 30
0.0
 40
0
 41
0
  0
VERTEX
  8
0
 10
1.45415
 20
1.61143
 30
0.0
 40
0
 41
0
  0
VERTEX
  8
0
 10
1.45324
 20
1.62164
 30
0.0
 40
0
 41
0
  0
VERTEX
  8
0
 10
1.45247
 20
1.62235
 30
0.0
 40
0
 41
0
  0
VERTEX
  8
0
 10
1.32785
 20
1.74696
 30
0.0
 40
0
 41
0
  0
VERTEX
  8
0
 10
1.32709
 20
1.74772
 30
0.0
 40
0
 41
0
  0
VERTEX
  8
0
 10
1.31689
 20
1.74869
 30
0.0
 40
0
 41
0
  0
VERTEX
  8
0
 10
1.31603
 20
1.74804
 30
0.0
 40
0
 41
0
  0
VERTEX
  8
0
 10
1.16808
 20
1.64654
 30
0.0
 40
0
 41
0
  0
VERTEX
  8
0
 10
1.16716
 20
1.64594
 30
0.0
 40
0
 41
0
  0
VERTEX
  8
0
 10
1.15571
 20
1.64512
 30
0.0
 40
0
 41
0
  0
VERTEX
  8
0
 10
1.15478
 20
1.64556
 30
0.0
 40
0
 41
0
  0
VERTEX
  8
0
 10
1.03608
 20
1.69417
 30
0.0
 40
0
 41
0
  0
VERTEX
  8
0
 10
1.03505
 20
1.6945
 30
0.0
 40
0
 41
0
  0
VERTEX
  8
0
 10
1.02745
 20
1.70313
 30
0.0
 40
0
 41
0
  0
VERTEX
  8
0
 10
1.02729
 20
1.70415
 30
0.0
 40
0
 41
0
  0
VERTEX
  8
0
 10
0.994358
 20
1.88129
 30
0.0
 40
0
 41
0
  0
VERTEX
  8
0
 10
0.99414
 20
1.88238
 30
0.0
 40
0
 41
0
  0
VERTEX
  8
0
 10
0.987414
 20
1.88889
 30
0.0
 40
0
 41
0
  0
VERTEX
  8
0
 10
0.985189
 20
1.88889
 30
0.0
 40
0
 41
0
  0
VERTEX
  8
0
 10
0.808974
 20
1.88889
 30
0.0
 40
0
 41
0
  0
VERTEX
  8
0
 10
0.806694
 20
1.88889
 30
0.0
 40
0
 41
0
  0
VERTEX
  8
0
 10
0.800022
 20
1.88238
 30
0.0
 40
0
 41
0
  0
VERTEX
  8
0
 10
0.799858
 20
1.88129
 30
0.0
 40
0
 41
0
  0
VERTEX
  8
0
 10
0.766872
 20
1.70415
 30
0.0
 40
0
 41
0
  0
VERTEX
  8
0
 10
0.766656
 20
1.70313
 30
0.0
 40
0
 41
0
  0
VERTEX
  8
0
 10
0.759115
 20
1.6945
 30
0.0
 40
0
 41
0
  0
VERTEX
  8
0
 10
0.758137
 20
1.69417
 30
0.0
 40
0
 41
0
  0
VERTEX
  8
0
 10
0.639432
 20
1.64556
 30
0.0
 40
0
 41
0
  0
VERTEX
  8
0
 10
0.638456
 20
1.64512
 30
0.0
 40
0
 41
0
  0
VERTEX
  8
0
 10
0.626953
 20
1.64594
 30
0.0
 40
0
 41
0
  0
VERTEX
  8
0
 10
0.626085
 20
1.64654
 30
0.0
 40
0
 41
0
  0
VERTEX
  8
0
 10
0.478136
 20
1.74804
 30
0.0
 40
0
 41
0
  0
VERTEX
  8
0
 10
0.477214
 20
1.74869
 30
0.0
 40
0
 41
0
  0
VERTEX
  8
0
 10
0.467014
 20
1.74772
 30
0.0
 40
0
 41
0
  0
VERTEX
  8
0
 10
0.466308
 20
1.74696
 30
0.0
 40
0
 41
0
  0
VERTEX
  8
0
 10
0.341689
 20
1.62235
 30
0.0
 40
0
 41
0
  0
VERTEX
  8
0
 10
0.340929
 20
1.62164
 30
0.0
 40
0
 41
0
  0
VERTEX
  8
0
 10
0.339953
 20
1.61143
 30
0.0
 40
0
 41
0
  0
VERTEX
  8
0
 10
0.340603
 20
1.61051
 30
0.0
 40
0
 41
0
  0
VERTEX
  8
0
 10
0.440375
 20
1.46511
 30
0.0
 40
0
 41
0
  0
VERTEX
  8
0
 10
0.440972
 20
1.46425
 30
0.0
 40
0
 41
0
  0
VERTEX
  8
0
 10
0.441678
 20
1.45285
 30
0.0
 40
0
 41
0
  0
VERTEX
  8
0
 10
0.441189
 20
1.45188
 30
0.0
 40
0
 41
0
  0
VERTEX
  8
0
 10
0.388672
 20
1.32943
 30
0.0
 40
0
 41
0
  0
VERTEX
  8
0
 10
0.388292
 20
1.32845
 30
0.0
 40
0
 41
0
  0
VERTEX
  8
0
 10
0.379611
 20
1.32091
 30
0.0
 40
0
 41
0
  0
VERTEX
  8
0
 10
0.378581
 20
1.32069
 30
0.0
 40
0
 41
0
  0
VERTEX
  8
0
 10
0.207357
 20
1.28885
 30
0.0
 40
0
 41
0
  0
VERTEX
  8
0
 10
0.206272
 20
1.28868
 30
0.0
 40
0
 41
0
  0
VERTEX
  8
0
 10
0.199761
 20
1.28196
 30
0.0
 40
0
 41
0
  0
VERTEX
  8
0
 10
0.199761
 20
1.27968
 30
0.0
 40
0
 41
0
  0
VERTEX
  8
0
 10
0.199761
 20
1.10346
 30
0.0
 40
0
 41
0
  0
VERTEX
  8
0
 10
0.199761
 20
1.10118
 30
0.0
 40
0
 41
0
  0
VERTEX
  8
0
 10
0.206272
 20
1.09451
 30
0.0
 40
0
 41
0
  0
VERTEX
  8
0
 10
0.207357
 20
1.09429
 30
0.0
 40
0
 41
0
  0
VERTEX
  8
0
 10
0.374349
 20
1.06326
 30
0.0
 40
0
 41
0
  0
VERTEX
  8
0
 10
0.375379
 20
1.0631
 30
0.0
 40
0
 41
0
  0
VERTEX
  8
0
 10
0.383951
 20
1.0555
 30
0.0
 40
0
 41
0
  0
VERTEX
  8
0
 10
0.384278
 20
1.05447
 30
0.0
 40
0
 41
0
  0
VERTEX
  8
0
 10
0.436415
 20
0.924208
 30
0.0
 40
0
 41
0
  0
VERTEX
  8
0
 10
0.436849
 20
0.923286
 30
0.0
 40
0
 41
0
  0
VERTEX
  8
0
 10
0.436035
 20
0.911783
 30
0.0
 40
0
 41
0
  0
VERTEX
  8
0
 10
0.435439
 20
0.910915
 30
0.0
 40
0
 41
0
  0
VERTEX
  8
0
 10
0.340549
 20
0.772624
 30
0.0
 40
0
 41
0
  0
VERTEX
  8
0
 10
0.339953
 20
0.771756
 30
0.0
 40
0
 41
0
  0
VERTEX
  8
0
 10
0.340929
 20
0.761556
 30
0.0
 40
0
 41
0
  0
VERTEX
  8
0
 10
0.341689
 20
0.760796
 30
0.0
 40
0
 41
0
  0
VERTEX
  8
0
 10
0.466308
 20
0.636176
 30
0.0
 40
0
 41
0
  0
VERTEX
  8
0
 10
0.467014
 20
0.635471
 30
0.0
 40
0
 41
0
  0
VERTEX
  8
0
 10
0.477214
 20
0.634494
 30
0.0
 40
0
 41
0
  0
VERTEX
  8
0
 10
0.478136
 20
0.635092
 30
0.0
 40
0
 41
0
  0
VERTEX
  8
0
 10
0.613932
 20
0.728299
 30
0.0
 40
0
 41
0
  0
VERTEX
  8
0
 10
0.6148
 20
0.728896
 30
0.0
 40
0
 41
0
  0
VERTEX
  8
0
 10
0.626031
 20
0.729275
 30
0.0
 40
0
 41
0
  0
VERTEX
  8
0
 10
0.626953
 20
0.728733
 30
0.0
 40
0
 41
0
  0
VERTEX
  8
0
 10
0.686849
 20
0.696778
 30
0.0
 40
0
 41
0
  0
VERTEX
  8
0
 10
0.687771
 20
0.696289
 30
0.0
 40
0
 41
0
  0
VERTEX
  8
0
 10
0.696289
 20
0.699436
 30
0.0
 40
0
 41
0
  0
VERTEX
  8
0
 10
0.696724
 20
0.700412
 30
0.0
 40
0
 41
0
  0
VERTEX
  8
0
 10
0.820204
 20
0.998807
 30
0.0
 40
0
 41
0
  0
VERTEX
  8
0
 10
0.820583
 20
0.999783
 30
0.0
 40
0
 41
0
  0
VERTEX
  8
0
 10
0.817437
 20
1.00939
 30
0.0
 40
0
 41
0
  0
VERTEX
  8
0
 10
0.816569
 20
1.00993
 30
0.0
 40
0
 41
0
  0
VERTEX
  8
0
 10
0.801594
 20
1.01915
 30
0.0
 40
0
 41
0
  0
VERTEX
  8
0
 10
0.80089
 20
1.01959
 30
0.0
 40
0
 41
0
  0
VERTEX
  8
0
 10
0.792806
 20
1.02572
 30
0.0
 40
0
 41
0
  0
VERTEX
  8
0
 10
0.792101
 20
1.02637
 30
0.0
 40
0
 41
0
  0
VERTEX
  8
0
 10
0.782064
 20
1.03282
 30
0.0
 40
0
 41
0
  0
VERTEX
  8
0
 10
0.755208
 20
1.05697
 30
0.0
 40
0
 41
0
  0
VERTEX
  8
0
 10
0.726833
 20
1.09565
 30
0.0
 40
0
 41
0
  0
VERTEX
  8
0
 10
0.708604
 20
1.14073
 30
0.0
 40
0
 41
0
  0
VERTEX
  8
0
 10
0.702149
 20
1.17817
 30
0.0
 40
0
 41
0
  0
VERTEX
  8
0
 10
0.702149
 20
1.19059
 30
0.0
 40
0
 41
0
  0
VERTEX
  8
0
 10
0.702149
 20
1.20041
 30
0.0
 40
0
 41
0
  0
VERTEX
  8
0
 10
0.706108
 20
1.22987
 30
0.0
 40
0
 41
0
  0
VERTEX
  8
0
 10
0.717449
 20
1.26649
 30
0.0
 40
0
 41
0
  0
VERTEX
  8
0
 10
0.735406
 20
1.29959
 30
0.0
 40
0
 41
0
  0
VERTEX
  8
0
 10
0.759224
 20
1.3284
 30
0.0
 40
0
 41
0
  0
VERTEX
  8
0
 10
0.788086
 20
1.35221
 30
0.0
 40
0
 41
0
  0
VERTEX
  8
0
 10
0.821181
 20
1.37017
 30
0.0
 40
0
 41
0
  0
VERTEX
  8
0
 10
0.857747
 20
1.38157
 30
0.0
 40
0
 41
0
  0
VERTEX
  8
0
 10
0.887207
 20
1.38547
 30
0.0
 40
0
 41
0
  0
VERTEX
  8
0
 10
0.897081
 20
1.38547
 30
0.0
 40
0
 41
0
  0
VERTEX
  8
0
 10
0.906847
 20
1.38547
 30
0.0
 40
0
 41
0
  0
VERTEX
  8
0
 10
0.936307
 20
1.38157
 30
0.0
 40
0
 41
0
  0
VERTEX
  8
0
 10
0.972928
 20
1.37017
 30
0.0
 40
0
 41
0
  0
VERTEX
  8
0
 10
1.00602
 20
1.35221
 30
0.0
 40
0
 41
0
  0
VERTEX
  8
0
 10
1.03488
 20
1.3284
 30
0.0
 40
0
 41
0
  0
VERTEX
  8
0
 10
1.05865
 20
1.29959
 30
0.0
 40
0
 41
0
  0
VERTEX
  8
0
 10
1.07661
 20
1.26649
 30
0.0
 40
0
 41
0
  0
VERTEX
  8
0
 10
1.088
 20
1.22987
 30
0.0
 40
0
 41
0
  0
VERTEX
  8
0
 10
1.09196
 20
1.20041
 30
0.0
 40
0
 41
0
  0
VERTEX
  8
0
 10
1.09196
 20
1.19059
 30
0.0
 40
0
 41
0
  0
VERTEX
  8
0
 10
1.09196
 20
1.17817
 30
0.0
 40
0
 41
0
  0
VERTEX
  8
0
 10
1.0855
 20
1.14073
 30
0.0
 40
0
 41
0
  0
VERTEX
  8
0
 10
1.06722
 20
1.09565
 30
0.0
 40
0
 41
0
  0
VERTEX
  8
0
 10
1.03885
 20
1.05697
 30
0.0
 40
0
 41
0
  0
VERTEX
  8
0
 10
1.01199
 20
1.03277
 30
0.0
 40
0
 41
0
  0
VERTEX
  8
0
 10
1.00201
 20
1.02637
 30
0.0
 40
0
 41
0
  0
VERTEX
  8
0
 10
1.00125
 20
1.02572
 30
0.0
 40
0
 41
0
  0
VERTEX
  8
0
 10
0.993218
 20
1.01959
 30
0.0
 40
0
 41
0
  0
VERTEX
  8
0
 10
0.992567
 20
1.01915
 30
0.0
 40
0
 41
0
  0
VERTEX
  8
0
 10
0.977593
 20
1.00993
 30
0.0
 40
0
 41
0
  0
VERTEX
  8
0
 10
0.976671
 20
1.00939
 30
0.0
 40
0
 41
0
  0
VERTEX
  8
0
 10
0.973525
 20
0.999783
 30
0.0
 40
0
 41
0
  0
VERTEX
  8
0
 10
0.973958
 20
0.998807
 30
0.0
 40
0
 41
0
  0
VERTEX
  8
0
 10
1.09744
 20
0.700358
 30
0.0
 40
0
 41
0
  0
VERTEX
  8
0
 10
1.09782
 20
0.699382
 30
0.0
 40
0
 41
0
  0
VERTEX
  8
0
 10
1.10628
 20
0.696289
 30
0.0
 40
0
 41
0
  0
VERTEX
  8
0
 10
1.10726
 20
0.696778
 30
0.0
 40
0
 41
0
  0
VERTEX
  8
0
 10
1.16716
 20
0.728733
 30
0.0
 40
0
 41
0
  0
VERTEX
  8
0
 10
1.16808
 20
0.729275
 30
0.0
 40
0
 41
0
  0
VERTEX
  8
0
 10
1.17931
 20
0.728896
 30
0.0
 40
0
 41
0
  0
VERTEX
  8
0
 10
1.18018
 20
0.728299
 30
0.0
 40
0
 41
0
  0
VERTEX
  8
0
 10
1.31603
 20
0.635092
 30
0.0
 40
0
 41
0
  0
VERTEX
  8
0
 10
1.31689
 20
0.634494
 30
0.0
 40
0
 41
0
  0
VERTEX
  8
0
 10
1.32709
 20
0.635471
 30
0.0
 40
0
 41
0
  0
VERTEX
  8
0
 10
1.32785
 20
0.636176
 30
0.0
 40
0
 41
0
  0
VERTEX
  8
0
 10
1.45247
 20
0.760796
 30
0.0
 40
0
 41
0
  0
VERTEX
  8
0
 10
1.45324
 20
0.761556
 30
0.0
 40
0
 41
0
  0
VERTEX
  8
0
 10
1.45415
 20
0.771756
 30
0.0
 40
0
 41
0
  0
VERTEX
  8
0
 10
1.45356
 20
0.772624
 30
0.0
 40
0
 41
0
  0
VERTEX
  8
0
 10
1.35867
 20
0.910861
 30
0.0
 40
0
 41
0
  0
VERTEX
  8
0
 10
1.35807
 20
0.911783
 30
0.0
 40
0
 41
0
  0
VERTEX
  8
0
 10
1.35721
 20
0.923232
 30
0.0
 40
0
 41
0
  0
VERTEX
  8
0
 10
1.35769
 20
0.924154
 30
0.0
 40
0
 41
0
  0
VERTEX
  8
0
 10
1.40983
 20
1.05442
 30
0.0
 40
0
 41
0
  0
VERTEX
  8
0
 10
1.41015
 20
1.05545
 30
0.0
 40
0
 41
0
  0
VERTEX
  8
0
 10
1.41868
 20
1.06304
 30
0.0
 40
0
 41
0
  0
VERTEX
  8
0
 10
1.41976
 20
1.06321
 30
0.0
 40
0
 41
0
  0
VERTEX
  8
0
 10
1.58681
 20
1.09429
 30
0.0
 40
0
 41
0
  0
VERTEX
  8
0
 10
1.58783
 20
1.09451
 30
0.0
 40
0
 41
0
  0
VERTEX
  8
0
 10
1.5944
 20
1.10124
 30
0.0
 40
0
 41
0
  0
VERTEX
  8
0
 10
1.5944
 20
1.10346
 30
0.0
 40
0
 41
0
  0
VERTEX
  8
0
 10
1.5944
 20
1.27968
 30
0.0
 40
0
 41
0
  0
VERTEX
  8
0
 10
1.5944
 20
1.28201
 30
0.0
 40
0
 41
0
  0
VERTEX
  8
0
 10
1.58789
 20
1.28868
 30
0.0
 40
0
 41
0
  0
VERTEX
  8
0
 10
1.58686
 20
1.28885
 30
0.0
 40
0
 41
0
  0
SEQEND
 8
0
  0
POLYLINE
  8
0
 62
     142
 66
     1
 10
0
 20
0
 30
0.0
 70
     1
 40
0
 41
0
  0
VERTEX
  8
0
 10
0.474989
 20
0.00575088
 30
0.0
 40
0
 41
0
  0
VERTEX
  8
0
 10
0.512587
 20
0.00575088
 30
0.0
 40
0
 41
0
  0
VERTEX
  8
0
 10
0.512587
 20
0.133409
 30
0.0
 40
0
 41
0
  0
VERTEX
  8
0
 10
0.512587
 20
0.140679
 30
0.0
 40
0
 41
0
  0
VERTEX
  8
0
 10
0.50689
 20
0.162489
 30
0.0
 40
0
 41
0
  0
VERTEX
  8
0
 10
0.49094
 20
0.181532
 30
0.0
 40
0
 41
0
  0
VERTEX
  8
0
 10
0.466362
 20
0.191894
 30
0.0
 40
0
 41
0
  0
VERTEX
  8
0
 10
0.442654
 20
0.194987
 30
0.0
 40
0
 41
0
  0
VERTEX
  8
0
 10
0.434788
 20
0.194987
 30
0.0
 40
0
 41
0
  0
VERTEX
  8
0
 10
0.425618
 20
0.194987
 30
0.0
 40
0
 41
0
  0
VERTEX
  8
0
 10
0.398113
 20
0.188857
 30
0.0
 40
0
 41
0
  0
VERTEX
  8
0
 10
0.375271
 20
0.172689
 30
0.0
 40
0
 41
0
  0
VERTEX
  8
0
 10
0.37169
 20
0.167697
 30
0.0
 40
0
 41
0
  0
VERTEX
  8
0
 10
0.401204
 20
0.145182
 30
0.0
 40
0
 41
0
  0
VERTEX
  8
0
 10
0.402832
 20
0.147894
 30
0.0
 40
0
 41
0
  0
VERTEX
  8
0
 10
0.414008
 20
0.156467
 30
0.0
 40
0
 41
0
  0
VERTEX
  8
0
 10
0.430935
 20
0.159614
 30
0.0
 40
0
 41
0
  0
VERTEX
  8
0
 10
0.436578
 20
0.159614
 30
0.0
 40
0
 41
0
  0
VERTEX
  8
0
 10
0.443901
 20
0.159614
 30
0.0
 40
0
 41
0
  0
VERTEX
  8
0
 10
0.465875
 20
0.154297
 30
0.0
 40
0
 41
0
  0
VERTEX
  8
0
 10
0.474989
 20
0.1403
 30
0.0
 40
0
 41
0
  0
VERTEX
  8
0
 10
0.474989
 20
0.135634
 30
0.0
 40
0
 41
0
  0
VERTEX
  8
0
 10
0.474989
 20
0.116048
 30
0.0
 40
0
 41
0
  0
VERTEX
  8
0
 10
0.42296
 20
0.116048
 30
0.0
 40
0
 41
0
  0
VERTEX
  8
0
 10
0.416342
 20
0.116048
 30
0.0
 40
0
 41
0
  0
VERTEX
  8
0
 10
0.396485
 20
0.111654
 30
0.0
 40
0
 41
0
  0
VERTEX
  8
0
 10
0.377442
 20
0.0996094
 30
0.0
 40
0
 41
0
  0
VERTEX
  8
0
 10
0.36594
 20
0.0819769
 30
0.0
 40
0
 41
0
  0
VERTEX
  8
0
 10
0.362087
 20
0.0660265
 30
0.0
 40
0
 41
0
  0
VERTEX
  8
0
 10
0.362087
 20
0.0607096
 30
0.0
 40
0
 41
0
  0
VERTEX
  8
0
 10
0.362087
 20
0.0550672
 30
0.0
 40
0
 41
0
  0
VERTEX
  8
0
 10
0.366536
 20
0.0381401
 30
0.0
 40
0
 41
0
  0
VERTEX
  8
0
 10
0.379449
 20
0.0199653
 30
0.0
 40
0
 41
0
  0
VERTEX
  8
0
 10
0.400174
 20
0.00792101
 30
0.0
 40
0
 41
0
  0
VERTEX
  8
0
 10
0.421115
 20
0.00352647
 30
0.0
 40
0
 41
0
  0
VERTEX
  8
0
 10
0.428114
 20
0.00352647
 30
0.0
 40
0
 41
0
  0
VERTEX
  8
0
 10
0.435493
 20
0.00352647
 30
0.0
 40
0
 41
0
  0
VERTEX
  8
0
 10
0.45779
 20
0.00813803
 30
0.0
 40
0
 41
0
  0
VERTEX
  8
0
 10
0.472276
 20
0.0191515
 30
0.0
 40
0
 41
0
  0
VERTEX
  8
0
 10
0.474229
 20
0.0223525
 30
0.0
 40
0
 41
0
  0
VERTEX
  8
0
 10
0.474989
 20
0.0223525
 30
0.0
 40
0
 41
0
  0
VERTEX
  8
0
 10
0.474989
 20
0.00575088
 30
0.0
 40
0
 41
0
  0
SEQEND
 8
0
  0
POLYLINE
  8
0
 62
     142
 66
     1
 10
0
 20
0
 30
0.0
 70
     1
 40
0
 41
0
  0
VERTEX
  8
0
 10
0.474989
 20
0.0714518
 30
0.0
 40
0
 41
0
  0
VERTEX
  8
0
 10
0.474989
 20
0.0671115
 30
0.0
 40
0
 41
0
  0
VERTEX
  8
0
 10
0.472819
 20
0.0540907
 30
0.0
 40
0
 41
0
  0
VERTEX
  8
0
 10
0.465657
 20
0.0442708
 30
0.0
 40
0
 41
0
  0
VERTEX
  8
0
 10
0.452692
 20
0.0399306
 30
0.0
 40
0
 41
0
  0
VERTEX
  8
0
 10
0.437879
 20
0.038954
 30
0.0
 40
0
 41
0
  0
VERTEX
  8
0
 10
0.432943
 20
0.038954
 30
0.0
 40
0
 41
0
  0
VERTEX
  8
0
 10
0.426107
 20
0.038954
 30
0.0
 40
0
 41
0
  0
VERTEX
  8
0
 10
0.405653
 20
0.0460613
 30
0.0
 40
0
 41
0
  0
VERTEX
  8
0
 10
0.397515
 20
0.058431
 30
0.0
 40
0
 41
0
  0
VERTEX
  8
0
 10
0.397515
 20
0.0625543
 30
0.0
 40
0
 41
0
  0
VERTEX
  8
0
 10
0.397515
 20
0.0666775
 30
0.0
 40
0
 41
0
  0
VERTEX
  8
0
 10
0.405436
 20
0.0789387
 30
0.0
 40
0
 41
0
  0
VERTEX
  8
0
 10
0.423828
 20
0.0850694
 30
0.0
 40
0
 41
0
  0
VERTEX
  8
0
 10
0.429958
 20
0.0850694
 30
0.0
 40
0
 41
0
  0
VERTEX
  8
0
 10
0.474989
 20
0.0850694
 30
0.0
 40
0
 41
0
  0
VERTEX
  8
0
 10
0.474989
 20
0.0714518
 30
0.0
 40
0
 41
0
  0
SEQEND
 8
0
  0
POLYLINE
  8
0
 62
     142
 66
     1
 10
0
 20
0
 30
0.0
 70
     1
 40
0
 41
0
  0
VERTEX
  8
0
 10
0.553928
 20
0.00575088
 30
0.0
 40
0
 41
0
  0
VERTEX
  8
0
 10
0.591581
 20
0.00575088
 30
0.0
 40
0
 41
0
  0
VERTEX
  8
0
 10
0.591581
 20
0.118273
 30
0.0
 40
0
 41
0
  0
VERTEX
  8
0
 10
0.591581
 20
0.12576
 30
0.0
 40
0
 41
0
  0
VERTEX
  8
0
 10
0.602919
 20
0.148112
 30
0.0
 40
0
 41
0
  0
VERTEX
  8
0
 10
0.621799
 20
0.157389
 30
0.0
 40
0
 41
0
  0
VERTEX
  8
0
 10
0.628093
 20
0.157389
 30
0.0
 40
0
 41
0
  0
VERTEX
  8
0
 10
0.634278
 20
0.157389
 30
0.0
 40
0
 41
0
  0
VERTEX
  8
0
 10
0.650608
 20
0.149849
 30
0.0
 40
0
 41
0
  0
VERTEX
  8
0
 10
0.652832
 20
0.148167
 30
0.0
 40
0
 41
0
  0
VERTEX
  8
0
 10
0.680122
 20
0.18061
 30
0.0
 40
0
 41
0
  0
VERTEX
  8
0
 10
0.677246
 20
0.182835
 30
0.0
 40
0
 41
0
  0
VERTEX
  8
0
 10
0.650065
 20
0.194987
 30
0.0
 40
0
 41
0
  0
VERTEX
  8
0
 10
0.641004
 20
0.194987
 30
0.0
 40
0
 41
0
  0
VERTEX
  8
0
 10
0.634115
 20
0.194987
 30
0.0
 40
0
 41
0
  0
VERTEX
  8
0
 10
0.613607
 20
0.189453
 30
0.0
 40
0
 41
0
  0
VERTEX
  8
0
 10
0.595215
 20
0.17654
 30
0.0
 40
0
 41
0
  0
VERTEX
  8
0
 10
0.592285
 20
0.172851
 30
0.0
 40
0
 41
0
  0
VERTEX
  8
0
 10
0.591581
 20
0.172851
 30
0.0
 40
0
 41
0
  0
VERTEX
  8
0
 10
0.591581
 20
0.192762
 30
0.0
 40
0
 41
0
  0
VERTEX
  8
0
 10
0.553928
 20
0.192762
 30
0.0
 40
0
 41
0
  0
VERTEX
  8
0
 10
0.553928
 20
0.00575088
 30
0.0
 40
0
 41
0
  0
SEQEND
 8
0
  0
POLYLINE
  8
0
 62
     142
 66
     1
 10
0
 20
0
 30
0.0
 70
     1
 40
0
 41
0
  0
VERTEX
  8
0
 10
0.792643
 20
0.00575088
 30
0.0
 40
0
 41
0
  0
VERTEX
  8
0
 10
0.830296
 20
0.00575088
 30
0.0
 40
0
 41
0
  0
VERTEX
  8
0
 10
0.830296
 20
0.268446
 30
0.0
 40
0
 41
0
  0
VERTEX
  8
0
 10
0.792643
 20
0.268446
 30
0.0
 40
0
 41
0
  0
VERTEX
  8
0
 10
0.792643
 20
0.172851
 30
0.0
 40
0
 41
0
  0
VERTEX
  8
0
 10
0.789117
 20
0.176215
 30
0.0
 40
0
 41
0
  0
VERTEX
  8
0
 10
0.7704
 20
0.188911
 30
0.0
 40
0
 41
0
  0
VERTEX
  8
0
 10
0.750814
 20
0.194987
 30
0.0
 40
0
 41
0
  0
VERTEX
  8
0
 10
0.744303
 20
0.194987
 30
0.0
 40
0
 41
0
  0
VERTEX
  8
0
 10
0.736871
 20
0.194987
 30
0.0
 40
0
 41
0
  0
VERTEX
  8
0
 10
0.714681
 20
0.188097
 30
0.0
 40
0
 41
0
  0
VERTEX
  8
0
 10
0.696832
 20
0.174154
 30
0.0
 40
0
 41
0
  0
VERTEX
  8
0
 10
0.694174
 20
0.170628
 30
0.0
 40
0
 41
0
  0
VERTEX
  8
0
 10
0.692329
 20
0.168294
 30
0.0
 40
0
 41
0
  0
VERTEX
  8
0
 10
0.687717
 20
0.160374
 30
0.0
 40
0
 41
0
  0
VERTEX
  8
0
 10
0.683594
 20
0.147244
 30
0.0
 40
0
 41
0
  0
VERTEX
  8
0
 10
0.681478
 20
0.128038
 30
0.0
 40
0
 41
0
  0
VERTEX
  8
0
 10
0.680881
 20
0.106608
 30
0.0
 40
0
 41
0
  0
VERTEX
  8
0
 10
0.680881
 20
0.0994467
 30
0.0
 40
0
 41
0
  0
VERTEX
  8
0
 10
0.680881
 20
0.0922851
 30
0.0
 40
0
 41
0
  0
VERTEX
  8
0
 10
0.681478
 20
0.0706922
 30
0.0
 40
0
 41
0
  0
VERTEX
  8
0
 10
0.683594
 20
0.0513781
 30
0.0
 40
0
 41
0
  0
VERTEX
  8
0
 10
0.687717
 20
0.0381944
 30
0.0
 40
0
 41
0
  0
VERTEX
  8
0
 10
0.692275
 20
0.0302735
 30
0.0
 40
0
 41
0
  0
VERTEX
  8
0
 10
0.694174
 20
0.0278863
 30
0.0
 40
0
 41
0
  0
VERTEX
  8
0
 10
0.696832
 20
0.024414
 30
0.0
 40
0
 41
0
  0
VERTEX
  8
0
 10
0.714681
 20
0.0104709
 30
0.0
 40
0
 41
0
  0
VERTEX
  8
0
 10
0.736871
 20
0.00352647
 30
0.0
 40
0
 41
0
  0
VERTEX
  8
0
 10
0.744303
 20
0.00352647
 30
0.0
 40
0
 41
0
  0
VERTEX
  8
0
 10
0.751031
 20
0.00352647
 30
0.0
 40
0
 41
0
  0
VERTEX
  8
0
 10
0.771213
 20
0.00960286
 30
0.0
 40
0
 41
0
  0
VERTEX
  8
0
 10
0.78966
 20
0.0220811
 30
0.0
 40
0
 41
0
  0
VERTEX
  8
0
 10
0.792643
 20
0.0252821
 30
0.0
 40
0
 41
0
  0
VERTEX
  8
0
 10
0.792643
 20
0.00575088
 30
0.0
 40
0
 41
0
  0
SEQEND
 8
0
  0
POLYLINE
  8
0
 62
     142
 66
     1
 10
0
 20
0
 30
0.0
 70
     1
 40
0
 41
0
  0
VERTEX
  8
0
 10
0.755751
 20
0.157389
 30
0.0
 40
0
 41
0
  0
VERTEX
  8
0
 10
0.760851
 20
0.157389
 30
0.0
 40
0
 41
0
  0
VERTEX
  8
0
 10
0.776258
 20
0.152126
 30
0.0
 40
0
 41
0
  0
VERTEX
  8
0
 10
0.787326
 20
0.138509
 30
0.0
 40
0
 41
0
  0
VERTEX
  8
0
 10
0.791775
 20
0.1199
 30
0.0
 40
0
 41
0
  0
VERTEX
  8
0
 10
0.792643
 20
0.104601
 30
0.0
 40
0
 41
0
  0
VERTEX
  8
0
 10
0.792643
 20
0.0994467
 30
0.0
 40
0
 41
0
  0
VERTEX
  8
0
 10
0.792643
 20
0.0942925
 30
0.0
 40
0
 41
0
  0
VERTEX
  8
0
 10
0.791775
 20
0.0788303
 30
0.0
 40
0
 41
0
  0
VERTEX
  8
0
 10
0.787326
 20
0.0601129
 30
0.0
 40
0
 41
0
  0
VERTEX
  8
0
 10
0.776258
 20
0.0464953
 30
0.0
 40
0
 41
0
  0
VERTEX
  8
0
 10
0.760851
 20
0.0411783
 30
0.0
 40
0
 41
0
  0
VERTEX
  8
0
 10
0.755751
 20
0.0411783
 30
0.0
 40
0
 41
0
  0
VERTEX
  8
0
 10
0.750543
 20
0.0411783
 30
0.0
 40
0
 41
0
  0
VERTEX
  8
0
 10
0.734972
 20
0.046224
 30
0.0
 40
0
 41
0
  0
VERTEX
  8
0
 10
0.723796
 20
0.0594075
 30
0.0
 40
0
 41
0
  0
VERTEX
  8
0
 10
0.719293
 20
0.0780707
 30
0.0
 40
0
 41
0
  0
VERTEX
  8
0
 10
0.718479
 20
0.0941297
 30
0.0
 40
0
 41
0
  0
VERTEX
  8
0
 10
0.718479
 20
0.0994467
 30
0.0
 40
0
 41
0
  0
VERTEX
  8
0
 10
0.718479
 20
0.104763
 30
0.0
 40
0
 41
0
  0
VERTEX
  8
0
 10
0.719293
 20
0.12066
 30
0.0
 40
0
 41
0
  0
VERTEX
  8
0
 10
0.723796
 20
0.139268
 30
0.0
 40
0
 41
0
  0
VERTEX
  8
0
 10
0.734972
 20
0.152399
 30
0.0
 40
0
 41
0
  0
VERTEX
  8
0
 10
0.750543
 20
0.157389
 30
0.0
 40
0
 41
0
  0
VERTEX
  8
0
 10
0.755751
 20
0.157389
 30
0.0
 40
0
 41
0
  0
SEQEND
 8
0
  0
POLYLINE
  8
0
 62
     142
 66
     1
 10
0
 20
0
 30
0.0
 70
     1
 40
0
 41
0
  0
VERTEX
  8
0
 10
1.0223
 20
0.00575088
 30
0.0
 40
0
 41
0
  0
VERTEX
  8
0
 10
1.05556
 20
0.00575088
 30
0.0
 40
0
 41
0
  0
VERTEX
  8
0
 10
1.11529
 20
0.192762
 30
0.0
 40
0
 41
0
  0
VERTEX
  8
0
 10
1.07541
 20
0.192762
 30
0.0
 40
0
 41
0
  0
VERTEX
  8
0
 10
1.03966
 20
0.061849
 30
0.0
 40
0
 41
0
  0
VERTEX
  8
0
 10
1.0389
 20
0.061849
 30
0.0
 40
0
 41
0
  0
VERTEX
  8
0
 10
0.996474
 20
0.192762
 30
0.0
 40
0
 41
0
  0
VERTEX
  8
0
 10
0.969185
 20
0.192762
 30
0.0
 40
0
 41
0
  0
VERTEX
  8
0
 10
0.926758
 20
0.061849
 30
0.0
 40
0
 41
0
  0
VERTEX
  8
0
 10
0.926053
 20
0.061849
 30
0.0
 40
0
 41
0
  0
VERTEX
  8
0
 10
0.890246
 20
0.192762
 30
0.0
 40
0
 41
0
  0
VERTEX
  8
0
 10
0.850424
 20
0.192762
 30
0.0
 40
0
 41
0
  0
VERTEX
  8
0
 10
0.910157
 20
0.00575088
 30
0.0
 40
0
 41
0
  0
VERTEX
  8
0
 10
0.94336
 20
0.00575088
 30
0.0
 40
0
 41
0
  0
VERTEX
  8
0
 10
0.982476
 20
0.136719
 30
0.0
 40
0
 41
0
  0
VERTEX
  8
0
 10
0.983236
 20
0.136719
 30
0.0
 40
0
 41
0
  0
VERTEX
  8
0
 10
1.0223
 20
0.00575088
 30
0.0
 40
0
 41
0
  0
SEQEND
 8
0
  0
POLYLINE
  8
0
 62
     142
 66
     1
 10
0
 20
0
 30
0.0
 70
     1
 40
0
 41
0
  0
VERTEX
  8
0
 10
1.23112
 20
0.00575088
 30
0.0
 40
0
 41
0
  0
VERTEX
  8
0
 10
1.26872
 20
0.00575088
 30
0.0
 40
0
 41
0
  0
VERTEX
  8
0
 10
1.26872
 20
0.133409
 30
0.0
 40
0
 41
0
  0
VERTEX
  8
0
 10
1.26872
 20
0.140679
 30
0.0
 40
0
 41
0
  0
VERTEX
  8
0
 10
1.26302
 20
0.162489
 30
0.0
 40
0
 41
0
  0
VERTEX
  8
0
 10
1.24707
 20
0.181532
 30
0.0
 40
0
 41
0
  0
VERTEX
  8
0
 10
1.22249
 20
0.191894
 30
0.0
 40
0
 41
0
  0
VERTEX
  8
0
 10
1.19878
 20
0.194987
 30
0.0
 40
0
 41
0
  0
VERTEX
  8
0
 10
1.19092
 20
0.194987
 30
0.0
 40
0
 41
0
  0
VERTEX
  8
0
 10
1.18175
 20
0.194987
 30
0.0
 40
0
 41
0
  0
VERTEX
  8
0
 10
1.15424
 20
0.188857
 30
0.0
 40
0
 41
0
  0
VERTEX
  8
0
 10
1.1314
 20
0.172689
 30
0.0
 40
0
 41
0
  0
VERTEX
  8
0
 10
1.12782
 20
0.167697
 30
0.0
 40
0
 41
0
  0
VERTEX
  8
0
 10
1.15733
 20
0.145182
 30
0.0
 40
0
 41
0
  0
VERTEX
  8
0
 10
1.15896
 20
0.147894
 30
0.0
 40
0
 41
0
  0
VERTEX
  8
0
 10
1.17014
 20
0.156467
 30
0.0
 40
0
 41
0
  0
VERTEX
  8
0
 10
1.18707
 20
0.159614
 30
0.0
 40
0
 41
0
  0
VERTEX
  8
0
 10
1.19271
 20
0.159614
 30
0.0
 40
0
 41
0
  0
VERTEX
  8
0
 10
1.20003
 20
0.159614
 30
0.0
 40
0
 41
0
  0
VERTEX
  8
0
 10
1.22201
 20
0.154297
 30
0.0
 40
0
 41
0
  0
VERTEX
  8
0
 10
1.23112
 20
0.1403
 30
0.0
 40
0
 41
0
  0
VERTEX
  8
0
 10
1.23112
 20
0.135634
 30
0.0
 40
0
 41
0
  0
VERTEX
  8
0
 10
1.23112
 20
0.116048
 30
0.0
 40
0
 41
0
  0
VERTEX
  8
0
 10
1.17909
 20
0.116048
 30
0.0
 40
0
 41
0
  0
VERTEX
  8
0
 10
1.17247
 20
0.116048
 30
0.0
 40
0
 41
0
  0
VERTEX
  8
0
 10
1.15262
 20
0.111654
 30
0.0
 40
0
 41
0
  0
VERTEX
  8
0
 10
1.13357
 20
0.0996094
 30
0.0
 40
0
 41
0
  0
VERTEX
  8
0
 10
1.12207
 20
0.0819769
 30
0.0
 40
0
 41
0
  0
VERTEX
  8
0
 10
1.11822
 20
0.0660265
 30
0.0
 40
0
 41
0
  0
VERTEX
  8
0
 10
1.11822
 20
0.0607096
 30
0.0
 40
0
 41
0
  0
VERTEX
  8
0
 10
1.11822
 20
0.0550672
 30
0.0
 40
0
 41
0
  0
VERTEX
  8
0
 10
1.12267
 20
0.0381401
 30
0.0
 40
0
 41
0
  0
VERTEX
  8
0
 10
1.13558
 20
0.0199653
 30
0.0
 40
0
 41
0
  0
VERTEX
  8
0
 10
1.1563
 20
0.00792101
 30
0.0
 40
0
 41
0
  0
VERTEX
  8
0
 10
1.17725
 20
0.00352647
 30
0.0
 40
0
 41
0
  0
VERTEX
  8
0
 10
1.18424
 20
0.00352647
 30
0.0
 40
0
 41
0
  0
VERTEX
  8
0
 10
1.19162
 20
0.00352647
 30
0.0
 40
0
 41
0
  0
VERTEX
  8
0
 10
1.21392
 20
0.00813803
 30
0.0
 40
0
 41
0
  0
VERTEX
  8
0
 10
1.22841
 20
0.0191515
 30
0.0
 40
0
 41
0
  0
VERTEX
  8
0
 10
1.23036
 20
0.0223525
 30
0.0
 40
0
 41
0
  0
VERTEX
  8
0
 10
1.23112
 20
0.0223525
 30
0.0
 40
0
 41
0
  0
VERTEX
  8
0
 10
1.23112
 20
0.00575088
 30
0.0
 40
0
 41
0
  0
SEQEND
 8
0
  0
POLYLINE
  8
0
 62
     142
 66
     1
 10
0
 20
0
 30
0.0
 70
     1
 40
0
 41
0
  0
VERTEX
  8
0
 10
1.23112
 20
0.0714518
 30
0.0
 40
0
 41
0
  0
VERTEX
  8
0
 10
1.23112
 20
0.0671115
 30
0.0
 40
0
 41
0
  0
VERTEX
  8
0
 10
1.22895
 20
0.0540907
 30
0.0
 40
0
 41
0
  0
VERTEX
  8
0
 10
1.22184
 20
0.0442708
 30
0.0
 40
0
 41
0
  0
VERTEX
  8
0
 10
1.20882
 20
0.0399306
 30
0.0
 40
0
 41
0
  0
VERTEX
  8
0
 10
1.19401
 20
0.038954
 30
0.0
 40
0
 41
0
  0
VERTEX
  8
0
 10
1.18907
 20
0.038954
 30
0.0
 40
0
 41
0
  0
VERTEX
  8
0
 10
1.18224
 20
0.038954
 30
0.0
 40
0
 41
0
  0
VERTEX
  8
0
 10
1.16178
 20
0.0460613
 30
0.0
 40
0
 41
0
  0
VERTEX
  8
0
 10
1.15365
 20
0.058431
 30
0.0
 40
0
 41
0
  0
VERTEX
  8
0
 10
1.15365
 20
0.0625543
 30
0.0
 40
0
 41
0
  0
VERTEX
  8
0
 10
1.15365
 20
0.0666775
 30
0.0
 40
0
 41
0
  0
VERTEX
  8
0
 10
1.16157
 20
0.0789387
 30
0.0
 40
0
 41
0
  0
VERTEX
  8
0
 10
1.17996
 20
0.0850694
 30
0.0
 40
0
 41
0
  0
VERTEX
  8
0
 10
1.18609
 20
0.0850694
 30
0.0
 40
0
 41
0
  0
VERTEX
  8
0
 10
1.23112
 20
0.0850694
 30
0.0
 40
0
 41
0
  0
VERTEX
  8
0
 10
1.23112
 20
0.0714518
 30
0.0
 40
0
 41
0
  0
SEQEND
 8
0
  0
POLYLINE
  8
0
 62
     142
 66
     1
 10
0
 20
0
 30
0.0
 70
     1
 40
0
 41
0
  0
VERTEX
  8
0
 10
1.31006
 20
0.00575088
 30
0.0
 40
0
 41
0
  0
VERTEX
  8
0
 10
1.34771
 20
0.00575088
 30
0.0
 40
0
 41
0
  0
VERTEX
  8
0
 10
1.34771
 20
0.118273
 30
0.0
 40
0
 41
0
  0
VERTEX
  8
0
 10
1.34771
 20
0.12576
 30
0.0
 40
0
 41
0
  0
VERTEX
  8
0
 10
1.35905
 20
0.148112
 30
0.0
 40
0
 41
0
  0
VERTEX
  8
0
 10
1.37793
 20
0.157389
 30
0.0
 40
0
 41
0
  0
VERTEX
  8
0
 10
1.38422
 20
0.157389
 30
0.0
 40
0
 41
0
  0
VERTEX
  8
0
 10
1.3904
 20
0.157389
 30
0.0
 40
0
 41
0
  0
VERTEX
  8
0
 10
1.40674
 20
0.149849
 30
0.0
 40
0
 41
0
  0
VERTEX
  8
0
 10
1.40896
 20
0.148167
 30
0.0
 40
0
 41
0
  0
VERTEX
  8
0
 10
1.43625
 20
0.18061
 30
0.0
 40
0
 41
0
  0
VERTEX
  8
0
 10
1.43338
 20
0.182835
 30
0.0
 40
0
 41
0
  0
VERTEX
  8
0
 10
1.40619
 20
0.194987
 30
0.0
 40
0
 41
0
  0
VERTEX
  8
0
 10
1.39714
 20
0.194987
 30
0.0
 40
0
 41
0
  0
VERTEX
  8
0
 10
1.39025
 20
0.194987
 30
0.0
 40
0
 41
0
  0
VERTEX
  8
0
 10
1.36974
 20
0.189453
 30
0.0
 40
0
 41
0
  0
VERTEX
  8
0
 10
1.3514
 20
0.17654
 30
0.0
 40
0
 41
0
  0
VERTEX
  8
0
 10
1.34847
 20
0.172851
 30
0.0
 40
0
 41
0
  0
VERTEX
  8
0
 10
1.34771
 20
0.172851
 30
0.0
 40
0
 41
0
  0
VERTEX
  8
0
 10
1.34771
 20
0.192762
 30
0.0
 40
0
 41
0
  0
VERTEX
  8
0
 10
1.31006
 20
0.192762
 30
0.0
 40
0
 41
0
  0
VERTEX
  8
0
 10
1.31006
 20
0.00575088
 30
0.0
 40
0
 41
0
  0
SEQEND
 8
0
  0
POLYLINE
  8
0
 62
     142
 66
     1
 10
0
 20
0
 30
0.0
 70
     1
 40
0
 41
0
  0
VERTEX
  8
0
 10
1.59115
 20
0.0850694
 30
0.0
 40
0
 41
0
  0
VERTEX
  8
0
 10
1.59115
 20
0.116102
 30
0.0
 40
0
 41
0
  0
VERTEX
  8
0
 10
1.59115
 20
0.124295
 30
0.0
 40
0
 41
0
  0
VERTEX
  8
0
 10
1.58485
 20
0.148817
 30
0.0
 40
0
 41
0
  0
VERTEX
  8
0
 10
1.56803
 20
0.173665
 30
0.0
 40
0
 41
0
  0
VERTEX
  8
0
 10
1.54351
 20
0.189453
 30
0.0
 40
0
 41
0
  0
VERTEX
  8
0
 10
1.52138
 20
0.194987
 30
0.0
 40
0
 41
0
  0
VERTEX
  8
0
 10
1.51406
 20
0.194987
 30
0.0
 40
0
 41
0
  0
VERTEX
  8
0
 10
1.50722
 20
0.194987
 30
0.0
 40
0
 41
0
  0
VERTEX
  8
0
 10
1.48671
 20
0.190213
 30
0.0
 40
0
 41
0
  0
VERTEX
  8
0
 10
1.46192
 20
0.174154
 30
0.0
 40
0
 41
0
  0
VERTEX
  8
0
 10
1.4439
 20
0.144476
 30
0.0
 40
0
 41
0
  0
VERTEX
  8
0
 10
1.43696
 20
0.110189
 30
0.0
 40
0
 41
0
  0
VERTEX
  8
0
 10
1.43696
 20
0.0987414
 30
0.0
 40
0
 41
0
  0
VERTEX
  8
0
 10
1.43696
 20
0.0869683
 30
0.0
 40
0
 41
0
  0
VERTEX
  8
0
 10
1.4445
 20
0.0515408
 30
0.0
 40
0
 41
0
  0
VERTEX
  8
0
 10
1.46403
 20
0.0224067
 30
0.0
 40
0
 41
0
  0
VERTEX
  8
0
 10
1.49078
 20
0.00764974
 30
0.0
 40
0
 41
0
  0
VERTEX
  8
0
 10
1.51264
 20
0.00352647
 30
0.0
 40
0
 41
0
  0
VERTEX
  8
0
 10
1.51997
 20
0.00352647
 30
0.0
 40
0
 41
0
  0
VERTEX
  8
0
 10
1.52897
 20
0.00352647
 30
0.0
 40
0
 41
0
  0
VERTEX
  8
0
 10
1.55615
 20
0.0106879
 30
0.0
 40
0
 41
0
  0
VERTEX
  8
0
 10
1.58285
 20
0.0284831
 30
0.0
 40
0
 41
0
  0
VERTEX
  8
0
 10
1.58746
 20
0.0337999
 30
0.0
 40
0
 41
0
  0
VERTEX
  8
0
 10
1.56017
 20
0.0570204
 30
0.0
 40
0
 41
0
  0
VERTEX
  8
0
 10
1.5574
 20
0.0541992
 30
0.0
 40
0
 41
0
  0
VERTEX
  8
0
 10
1.5409
 20
0.0437283
 30
0.0
 40
0
 41
0
  0
VERTEX
  8
0
 10
1.52463
 20
0.038954
 30
0.0
 40
0
 41
0
  0
VERTEX
  8
0
 10
1.51921
 20
0.038954
 30
0.0
 40
0
 41
0
  0
VERTEX
  8
0
 10
1.51118
 20
0.038954
 30
0.0
 40
0
 41
0
  0
VERTEX
  8
0
 10
1.48719
 20
0.0505643
 30
0.0
 40
0
 41
0
  0
VERTEX
  8
0
 10
1.47456
 20
0.0764432
 30
0.0
 40
0
 41
0
  0
VERTEX
  8
0
 10
1.47456
 20
0.0850694
 30
0.0
 40
0
 41
0
  0
VERTEX
  8
0
 10
1.59115
 20
0.0850694
 30
0.0
 40
0
 41
0
  0
SEQEND
 8
0
  0
POLYLINE
  8
0
 62
     142
 66
     1
 10
0
 20
0
 30
0.0
 70
     1
 40
0
 41
0
  0
VERTEX
  8
0
 10
1.47456
 20
0.116048
 30
0.0
 40
0
 41
0
  0
VERTEX
  8
0
 10
1.47472
 20
0.123155
 30
0.0
 40
0
 41
0
  0
VERTEX
  8
0
 10
1.48628
 20
0.148492
 30
0.0
 40
0
 41
0
  0
VERTEX
  8
0
 10
1.50711
 20
0.159614
 30
0.0
 40
0
 41
0
  0
VERTEX
  8
0
 10
1.51406
 20
0.159614
 30
0.0
 40
0
 41
0
  0
VERTEX
  8
0
 10
1.52094
 20
0.159614
 30
0.0
 40
0
 41
0
  0
VERTEX
  8
0
 10
1.54167
 20
0.148492
 30
0.0
 40
0
 41
0
  0
VERTEX
  8
0
 10
1.55322
 20
0.123155
 30
0.0
 40
0
 41
0
  0
VERTEX
  8
0
 10
1.5535
 20
0.116048
 30
0.0
 40
0
 41
0
  0
VERTEX
  8
0
 10
1.47456
 20
0.116048
 30
0.0
 40
0
 41
0
  0
SEQEND
 8
0
  0
POLYLINE
  8
0
 62
     142
 66
     1
 10
0
 20
0
 30
0.0
 70
     1
 40
0
 41
0
  0
VERTEX
  8
0
 10
0
 20
0.394857
 30
0.0
 40
0
 41
0
  0
VERTEX
  8
0
 10
0
 20
0.383572
 30
0.0
 40
0
 41
0
  0
VERTEX
  8
0
 10
0.00472006
 20
0.349664
 30
0.0
 40
0
 41
0
  0
VERTEX
  8
0
 10
0.0166558
 20
0.326932
 30
0.0
 40
0
 41
0
  0
VERTEX
  8
0
 10
0.0202908
 20
0.322917
 30
0.0
 40
0
 41
0
  0
VERTEX
  8
0
 10
0.0228407
 20
0.320096
 30
0.0
 40
0
 41
0
  0
VERTEX
  8
0
 10
0.0416124
 20
0.306694
 30
0.0
 40
0
 41
0
  0
VERTEX
  8
0
 10
0.0681967
 20
0.29899
 30
0.0
 40
0
 41
0
  0
VERTEX
  8
0
 10
0.0770942
 20
0.29899
 30
0.0
 40
0
 41
0
  0
VERTEX
  8
0
 10
0.0859375
 20
0.29899
 30
0.0
 40
0
 41
0
  0
VERTEX
  8
0
 10
0.112522
 20
0.306694
 30
0.0
 40
0
 41
0
  0
VERTEX
  8
0
 10
0.131293
 20
0.320096
 30
0.0
 40
0
 41
0
  0
VERTEX
  8
0
 10
0.133898
 20
0.322917
 30
0.0
 40
0
 41
0
  0
VERTEX
  8
0
 10
0.137478
 20
0.326932
 30
0.0
 40
0
 41
0
  0
VERTEX
  8
0
 10
0.149414
 20
0.349664
 30
0.0
 40
0
 41
0
  0
VERTEX
  8
0
 10
0.154189
 20
0.383572
 30
0.0
 40
0
 41
0
  0
VERTEX
  8
0
 10
0.154189
 20
0.394857
 30
0.0
 40
0
 41
0
  0
VERTEX
  8
0
 10
0.154189
 20
0.406142
 30
0.0
 40
0
 41
0
  0
VERTEX
  8
0
 10
0.149414
 20
0.439833
 30
0.0
 40
0
 41
0
  0
VERTEX
  8
0
 10
0.137478
 20
0.462511
 30
0.0
 40
0
 41
0
  0
VERTEX
  8
0
 10
0.133898
 20
0.466471
 30
0.0
 40
0
 41
0
  0
VERTEX
  8
0
 10
0.131293
 20
0.469347
 30
0.0
 40
0
 41
0
  0
VERTEX
  8
0
 10
0.112522
 20
0.482747
 30
0.0
 40
0
 41
0
  0
VERTEX
  8
0
 10
0.0859375
 20
0.490451
 30
0.0
 40
0
 41
0
  0
VERTEX
  8
0
 10
0.0770942
 20
0.490451
 30
0.0
 40
0
 41
0
  0
VERTEX
  8
0
 10
0.0681967
 20
0.490451
 30
0.0
 40
0
 41
0
  0
VERTEX
  8
0
 10
0.0416124
 20
0.482747
 30
0.0
 40
0
 41
0
  0
VERTEX
  8
0
 10
0.0228407
 20
0.469347
 30
0.0
 40
0
 41
0
  0
VERTEX
  8
0
 10
0.0202908
 20
0.466471
 30
0.0
 40
0
 41
0
  0
VERTEX
  8
0
 10
0.0166558
 20
0.462511
 30
0.0
 40
0
 41
0
  0
VERTEX
  8
0
 10
0.00472006
 20
0.439833
 30
0.0
 40
0
 41
0
  0
VERTEX
  8
0
 10
0
 20
0.406142
 30
0.0
 40
0
 41
0
  0
VERTEX
  8
0
 10
0
 20
0.394857
 30
0.0
 40
0
 41
0
  0
SEQEND
 8
0
  0
POLYLINE
  8
0
 62
     142
 66
     1
 10
0
 20
0
 30
0.0
 70
     1
 40
0
 41
0
  0
VERTEX
  8
0
 10
0.116591
 20
0.394532
 30
0.0
 40
0
 41
0
  0
VERTEX
  8
0
 10
0.116591
 20
0.387424
 30
0.0
 40
0
 41
0
  0
VERTEX
  8
0
 10
0.114583
 20
0.366049
 30
0.0
 40
0
 41
0
  0
VERTEX
  8
0
 10
0.109104
 20
0.352756
 30
0.0
 40
0
 41
0
  0
VERTEX
  8
0
 10
0.107368
 20
0.350261
 30
0.0
 40
0
 41
0
  0
VERTEX
  8
0
 10
0.105957
 20
0.348361
 30
0.0
 40
0
 41
0
  0
VERTEX
  8
0
 10
0.0949978
 20
0.340549
 30
0.0
 40
0
 41
0
  0
VERTEX
  8
0
 10
0.0815429
 20
0.336589
 30
0.0
 40
0
 41
0
  0
VERTEX
  8
0
 10
0.0770942
 20
0.336589
 30
0.0
 40
0
 41
0
  0
VERTEX
  8
0
 10
0.0725911
 20
0.336589
 30
0.0
 40
0
 41
0
  0
VERTEX
  8
0
 10
0.0591906
 20
0.340549
 30
0.0
 40
0
 41
0
  0
VERTEX
  8
0
 10
0.0482314
 20
0.348361
 30
0.0
 40
0
 41
0
  0
VERTEX
  8
0
 10
0.046875
 20
0.350261
 30
0.0
 40
0
 41
0
  0
VERTEX
  8
0
 10
0.0450846
 20
0.352756
 30
0.0
 40
0
 41
0
  0
VERTEX
  8
0
 10
0.039605
 20
0.366049
 30
0.0
 40
0
 41
0
  0
VERTEX
  8
0
 10
0.0376519
 20
0.387696
 30
0.0
 40
0
 41
0
  0
VERTEX
  8
0
 10
0.0376519
 20
0.394857
 30
0.0
 40
0
 41
0
  0
VERTEX
  8
0
 10
0.0376519
 20
0.402018
 30
0.0
 40
0
 41
0
  0
VERTEX
  8
0
 10
0.039605
 20
0.423394
 30
0.0
 40
0
 41
0
  0
VERTEX
  8
0
 10
0.0450846
 20
0.436686
 30
0.0
 40
0
 41
0
  0
VERTEX
  8
0
 10
0.046875
 20
0.439128
 30
0.0
 40
0
 41
0
  0
VERTEX
  8
0
 10
0.0482314
 20
0.441081
 30
0.0
 40
0
 41
0
  0
VERTEX
  8
0
 10
0.0591906
 20
0.448893
 30
0.0
 40
0
 41
0
  0
VERTEX
  8
0
 10
0.0725911
 20
0.4528
 30
0.0
 40
0
 41
0
  0
VERTEX
  8
0
 10
0.0770942
 20
0.4528
 30
0.0
 40
0
 41
0
  0
VERTEX
  8
0
 10
0.0815429
 20
0.4528
 30
0.0
 40
0
 41
0
  0
VERTEX
  8
0
 10
0.0949978
 20
0.448893
 30
0.0
 40
0
 41
0
  0
VERTEX
  8
0
 10
0.105957
 20
0.441081
 30
0.0
 40
0
 41
0
  0
VERTEX
  8
0
 10
0.107368
 20
0.439128
 30
0.0
 40
0
 41
0
  0
VERTEX
  8
0
 10
0.109104
 20
0.436686
 30
0.0
 40
0
 41
0
  0
VERTEX
  8
0
 10
0.114583
 20
0.42334
 30
0.0
 40
0
 41
0
  0
VERTEX
  8
0
 10
0.116591
 20
0.401747
 30
0.0
 40
0
 41
0
  0
VERTEX
  8
0
 10
0.116591
 20
0.394532
 30
0.0
 40
0
 41
0
  0
SEQEND
 8
0
  0
POLYLINE
  8
0
 62
     142
 66
     1
 10
0
 20
0
 30
0.0
 70
     1
 40
0
 41
0
  0
VERTEX
  8
0
 10
0.5153
 20
0.380479
 30
0.0
 40
0
 41
0
  0
VERTEX
  8
0
 10
0.5153
 20
0.411458
 30
0.0
 40
0
 41
0
  0
VERTEX
  8
0
 10
0.5153
 20
0.41965
 30
0.0
 40
0
 41
0
  0
VERTEX
  8
0
 10
0.50906
 20
0.444228
 30
0.0
 40
0
 41
0
  0
VERTEX
  8
0
 10
0.492242
 20
0.469129
 30
0.0
 40
0
 41
0
  0
VERTEX
  8
0
 10
0.467665
 20
0.484918
 30
0.0
 40
0
 41
0
  0
VERTEX
  8
0
 10
0.445529
 20
0.490451
 30
0.0
 40
0
 41
0
  0
VERTEX
  8
0
 10
0.438206
 20
0.490451
 30
0.0
 40
0
 41
0
  0
VERTEX
  8
0
 10
0.431369
 20
0.490451
 30
0.0
 40
0
 41
0
  0
VERTEX
  8
0
 10
0.410861
 20
0.485622
 30
0.0
 40
0
 41
0
  0
VERTEX
  8
0
 10
0.386068
 20
0.469564
 30
0.0
 40
0
 41
0
  0
VERTEX
  8
0
 10
0.368056
 20
0.439888
 30
0.0
 40
0
 41
0
  0
VERTEX
  8
0
 10
0.361111
 20
0.405599
 30
0.0
 40
0
 41
0
  0
VERTEX
  8
0
 10
0.361111
 20
0.394151
 30
0.0
 40
0
 41
0
  0
VERTEX
  8
0
 10
0.361111
 20
0.382379
 30
0.0
 40
0
 41
0
  0
VERTEX
  8
0
 10
0.368653
 20
0.346951
 30
0.0
 40
0
 41
0
  0
VERTEX
  8
0
 10
0.388183
 20
0.317817
 30
0.0
 40
0
 41
0
  0
VERTEX
  8
0
 10
0.414931
 20
0.303114
 30
0.0
 40
0
 41
0
  0
VERTEX
  8
0
 10
0.436794
 20
0.29899
 30
0.0
 40
0
 41
0
  0
VERTEX
  8
0
 10
0.444119
 20
0.29899
 30
0.0
 40
0
 41
0
  0
VERTEX
  8
0
 10
0.453125
 20
0.29899
 30
0.0
 40
0
 41
0
  0
VERTEX
  8
0
 10
0.480306
 20
0.306099
 30
0.0
 40
0
 41
0
  0
VERTEX
  8
0
 10
0.506999
 20
0.323893
 30
0.0
 40
0
 41
0
  0
VERTEX
  8
0
 10
0.51161
 20
0.32921
 30
0.0
 40
0
 41
0
  0
VERTEX
  8
0
 10
0.484321
 20
0.352431
 30
0.0
 40
0
 41
0
  0
VERTEX
  8
0
 10
0.481554
 20
0.34961
 30
0.0
 40
0
 41
0
  0
VERTEX
  8
0
 10
0.465061
 20
0.339139
 30
0.0
 40
0
 41
0
  0
VERTEX
  8
0
 10
0.448785
 20
0.334364
 30
0.0
 40
0
 41
0
  0
VERTEX
  8
0
 10
0.44336
 20
0.334364
 30
0.0
 40
0
 41
0
  0
VERTEX
  8
0
 10
0.435331
 20
0.334364
 30
0.0
 40
0
 41
0
  0
VERTEX
  8
0
 10
0.41135
 20
0.345975
 30
0.0
 40
0
 41
0
  0
VERTEX
  8
0
 10
0.398708
 20
0.371853
 30
0.0
 40
0
 41
0
  0
VERTEX
  8
0
 10
0.398708
 20
0.380479
 30
0.0
 40
0
 41
0
  0
VERTEX
  8
0
 10
0.5153
 20
0.380479
 30
0.0
 40
0
 41
0
  0
SEQEND
 8
0
  0
POLYLINE
  8
0
 62
     142
 66
     1
 10
0
 20
0
 30
0.0
 70
     1
 40
0
 41
0
  0
VERTEX
  8
0
 10
0.398708
 20
0.411458
 30
0.0
 40
0
 41
0
  0
VERTEX
  8
0
 10
0.398872
 20
0.418565
 30
0.0
 40
0
 41
0
  0
VERTEX
  8
0
 10
0.410428
 20
0.443901
 30
0.0
 40
0
 41
0
  0
VERTEX
  8
0
 10
0.431261
 20
0.455024
 30
0.0
 40
0
 41
0
  0
VERTEX
  8
0
 10
0.438206
 20
0.455024
 30
0.0
 40
0
 41
0
  0
VERTEX
  8
0
 10
0.445096
 20
0.455024
 30
0.0
 40
0
 41
0
  0
VERTEX
  8
0
 10
0.465821
 20
0.443901
 30
0.0
 40
0
 41
0
  0
VERTEX
  8
0
 10
0.477376
 20
0.418565
 30
0.0
 40
0
 41
0
  0
VERTEX
  8
0
 10
0.477701
 20
0.411458
 30
0.0
 40
0
 41
0
  0
VERTEX
  8
0
 10
0.398708
 20
0.411458
 30
0.0
 40
0
 41
0
  0
SEQEND
 8
0
  0
POLYLINE
  8
0
 62
     142
 66
     1
 10
0
 20
0
 30
0.0
 70
     1
 40
0
 41
0
  0
VERTEX
  8
0
 10
0.547418
 20
0.301215
 30
0.0
 40
0
 41
0
  0
VERTEX
  8
0
 10
0.585015
 20
0.301215
 30
0.0
 40
0
 41
0
  0
VERTEX
  8
0
 10
0.585015
 20
0.412597
 30
0.0
 40
0
 41
0
  0
VERTEX
  8
0
 10
0.585015
 20
0.420031
 30
0.0
 40
0
 41
0
  0
VERTEX
  8
0
 10
0.595594
 20
0.442275
 30
0.0
 40
0
 41
0
  0
VERTEX
  8
0
 10
0.615614
 20
0.4528
 30
0.0
 40
0
 41
0
  0
VERTEX
  8
0
 10
0.622287
 20
0.4528
 30
0.0
 40
0
 41
0
  0
VERTEX
  8
0
 10
0.628851
 20
0.4528
 30
0.0
 40
0
 41
0
  0
VERTEX
  8
0
 10
0.6486
 20
0.442275
 30
0.0
 40
0
 41
0
  0
VERTEX
  8
0
 10
0.659179
 20
0.420031
 30
0.0
 40
0
 41
0
  0
VERTEX
  8
0
 10
0.659179
 20
0.412597
 30
0.0
 40
0
 41
0
  0
VERTEX
  8
0
 10
0.659179
 20
0.301215
 30
0.0
 40
0
 41
0
  0
VERTEX
  8
0
 10
0.696832
 20
0.301215
 30
0.0
 40
0
 41
0
  0
VERTEX
  8
0
 10
0.696832
 20
0.42551
 30
0.0
 40
0
 41
0
  0
VERTEX
  8
0
 10
0.696832
 20
0.432563
 30
0.0
 40
0
 41
0
  0
VERTEX
  8
0
 10
0.691135
 20
0.45356
 30
0.0
 40
0
 41
0
  0
VERTEX
  8
0
 10
0.67654
 20
0.473904
 30
0.0
 40
0
 41
0
  0
VERTEX
  8
0
 10
0.656521
 20
0.486274
 30
0.0
 40
0
 41
0
  0
VERTEX
  8
0
 10
0.639974
 20
0.490451
 30
0.0
 40
0
 41
0
  0
VERTEX
  8
0
 10
0.634494
 20
0.490451
 30
0.0
 40
0
 41
0
  0
VERTEX
  8
0
 10
0.627604
 20
0.490451
 30
0.0
 40
0
 41
0
  0
VERTEX
  8
0
 10
0.607096
 20
0.484918
 30
0.0
 40
0
 41
0
  0
VERTEX
  8
0
 10
0.588704
 20
0.472006
 30
0.0
 40
0
 41
0
  0
VERTEX
  8
0
 10
0.585775
 20
0.468317
 30
0.0
 40
0
 41
0
  0
VERTEX
  8
0
 10
0.585015
 20
0.468317
 30
0.0
 40
0
 41
0
  0
VERTEX
  8
0
 10
0.585015
 20
0.488226
 30
0.0
 40
0
 41
0
  0
VERTEX
  8
0
 10
0.547418
 20
0.488226
 30
0.0
 40
0
 41
0
  0
VERTEX
  8
0
 10
0.547418
 20
0.301215
 30
0.0
 40
0
 41
0
  0
SEQEND
 8
0
  0
POLYLINE
  8
0
 62
     142
 66
     1
 10
0
 20
0
 30
0.0
 70
     1
 40
0
 41
0
  0
VERTEX
  8
0
 10
0.798557
 20
0.332519
 30
0.0
 40
0
 41
0
  0
VERTEX
  8
0
 10
0.804525
 20
0.326932
 30
0.0
 40
0
 41
0
  0
VERTEX
  8
0
 10
0.837349
 20
0.307346
 30
0.0
 40
0
 41
0
  0
VERTEX
  8
0
 10
0.869954
 20
0.298936
 30
0.0
 40
0
 41
0
  0
VERTEX
  8
0
 10
0.88086
 20
0.298936
 30
0.0
 40
0
 41
0
  0
VERTEX
  8
0
 10
0.888456
 20
0.298936
 30
0.0
 40
0
 41
0
  0
VERTEX
  8
0
 10
0.911296
 20
0.302843
 30
0.0
 40
0
 41
0
  0
VERTEX
  8
0
 10
0.935872
 20
0.314074
 30
0.0
 40
0
 41
0
  0
VERTEX
  8
0
 10
0.952257
 20
0.33214
 30
0.0
 40
0
 41
0
  0
VERTEX
  8
0
 10
0.958279
 20
0.350424
 30
0.0
 40
0
 41
0
  0
VERTEX
  8
0
 10
0.958279
 20
0.3565
 30
0.0
 40
0
 41
0
  0
VERTEX
  8
0
 10
0.958279
 20
0.361762
 30
0.0
 40
0
 41
0
  0
VERTEX
  8
0
 10
0.95524
 20
0.37755
 30
0.0
 40
0
 41
0
  0
VERTEX
  8
0
 10
0.945692
 20
0.394803
 30
0.0
 40
0
 41
0
  0
VERTEX
  8
0
 10
0.928874
 20
0.406956
 30
0.0
 40
0
 41
0
  0
VERTEX
  8
0
 10
0.910319
 20
0.412218
 30
0.0
 40
0
 41
0
  0
VERTEX
  8
0
 10
0.904081
 20
0.412597
 30
0.0
 40
0
 41
0
  0
VERTEX
  8
0
 10
0.873101
 20
0.414768
 30
0.0
 40
0
 41
0
  0
VERTEX
  8
0
 10
0.868381
 20
0.415147
 30
0.0
 40
0
 41
0
  0
VERTEX
  8
0
 10
0.853624
 20
0.421169
 30
0.0
 40
0
 41
0
  0
VERTEX
  8
0
 10
0.848361
 20
0.429688
 30
0.0
 40
0
 41
0
  0
VERTEX
  8
0
 10
0.848361
 20
0.432508
 30
0.0
 40
0
 41
0
  0
VERTEX
  8
0
 10
0.848361
 20
0.436578
 30
0.0
 40
0
 41
0
  0
VERTEX
  8
0
 10
0.855414
 20
0.448622
 30
0.0
 40
0
 41
0
  0
VERTEX
  8
0
 10
0.874186
 20
0.455024
 30
0.0
 40
0
 41
0
  0
VERTEX
  8
0
 10
0.880479
 20
0.455024
 30
0.0
 40
0
 41
0
  0
VERTEX
  8
0
 10
0.887261
 20
0.455024
 30
0.0
 40
0
 41
0
  0
VERTEX
  8
0
 10
0.907607
 20
0.45025
 30
0.0
 40
0
 41
0
  0
VERTEX
  8
0
 10
0.926975
 20
0.440267
 30
0.0
 40
0
 41
0
  0
VERTEX
  8
0
 10
0.930664
 20
0.437662
 30
0.0
 40
0
 41
0
  0
VERTEX
  8
0
 10
0.953885
 20
0.464953
 30
0.0
 40
0
 41
0
  0
VERTEX
  8
0
 10
0.949274
 20
0.468858
 30
0.0
 40
0
 41
0
  0
VERTEX
  8
0
 10
0.922526
 20
0.483507
 30
0.0
 40
0
 41
0
  0
VERTEX
  8
0
 10
0.89095
 20
0.490397
 30
0.0
 40
0
 41
0
  0
VERTEX
  8
0
 10
0.880425
 20
0.490397
 30
0.0
 40
0
 41
0
  0
VERTEX
  8
0
 10
0.873535
 20
0.490397
 30
0.0
 40
0
 41
0
  0
VERTEX
  8
0
 10
0.852865
 20
0.486763
 30
0.0
 40
0
 41
0
  0
VERTEX
  8
0
 10
0.830729
 20
0.475911
 30
0.0
 40
0
 41
0
  0
VERTEX
  8
0
 10
0.816026
 20
0.4579
 30
0.0
 40
0
 41
0
  0
VERTEX
  8
0
 10
0.81071
 20
0.439182
 30
0.0
 40
0
 41
0
  0
VERTEX
  8
0
 10
0.81071
 20
0.432889
 30
0.0
 40
0
 41
0
  0
VERTEX
  8
0
 10
0.81071
 20
0.427518
 30
0.0
 40
0
 41
0
  0
VERTEX
  8
0
 10
0.814725
 20
0.411404
 30
0.0
 40
0
 41
0
  0
VERTEX
  8
0
 10
0.82601
 20
0.395236
 30
0.0
 40
0
 41
0
  0
VERTEX
  8
0
 10
0.843044
 20
0.384657
 30
0.0
 40
0
 41
0
  0
VERTEX
  8
0
 10
0.859104
 20
0.380208
 30
0.0
 40
0
 41
0
  0
VERTEX
  8
0
 10
0.864583
 20
0.379719
 30
0.0
 40
0
 41
0
  0
VERTEX
  8
0
 10
0.897786
 20
0.37679
 30
0.0
 40
0
 41
0
  0
VERTEX
  8
0
 10
0.900988
 20
0.376519
 30
0.0
 40
0
 41
0
  0
VERTEX
  8
0
 10
0.914063
 20
0.372179
 30
0.0
 40
0
 41
0
  0
VERTEX
  8
0
 10
0.920682
 20
0.361817
 30
0.0
 40
0
 41
0
  0
VERTEX
  8
0
 10
0.920682
 20
0.358344
 30
0.0
 40
0
 41
0
  0
VERTEX
  8
0
 10
0.920682
 20
0.353896
 30
0.0
 40
0
 41
0
  0
VERTEX
  8
0
 10
0.910211
 20
0.34044
 30
0.0
 40
0
 41
0
  0
VERTEX
  8
0
 10
0.890354
 20
0.334364
 30
0.0
 40
0
 41
0
  0
VERTEX
  8
0
 10
0.883789
 20
0.334364
 30
0.0
 40
0
 41
0
  0
VERTEX
  8
0
 10
0.875543
 20
0.334364
 30
0.0
 40
0
 41
0
  0
VERTEX
  8
0
 10
0.850911
 20
0.34044
 30
0.0
 40
0
 41
0
  0
VERTEX
  8
0
 10
0.828776
 20
0.354383
 30
0.0
 40
0
 41
0
  0
VERTEX
  8
0
 10
0.824761
 20
0.358344
 30
0.0
 40
0
 41
0
  0
VERTEX
  8
0
 10
0.798557
 20
0.332519
 30
0.0
 40
0
 41
0
  0
SEQEND
 8
0
  0
POLYLINE
  8
0
 62
     142
 66
     1
 10
0
 20
0
 30
0.0
 70
     1
 40
0
 41
0
  0
VERTEX
  8
0
 10
0.97971
 20
0.394857
 30
0.0
 40
0
 41
0
  0
VERTEX
  8
0
 10
0.97971
 20
0.383572
 30
0.0
 40
0
 41
0
  0
VERTEX
  8
0
 10
0.984429
 20
0.349664
 30
0.0
 40
0
 41
0
  0
VERTEX
  8
0
 10
0.996365
 20
0.326932
 30
0.0
 40
0
 41
0
  0
VERTEX
  8
0
 10
1
 20
0.322917
 30
0.0
 40
0
 41
0
  0
VERTEX
  8
0
 10
1.00255
 20
0.320096
 30
0.0
 40
0
 41
0
  0
VERTEX
  8
0
 10
1.02132
 20
0.306694
 30
0.0
 40
0
 41
0
  0
VERTEX
  8
0
 10
1.04791
 20
0.29899
 30
0.0
 40
0
 41
0
  0
VERTEX
  8
0
 10
1.0568
 20
0.29899
 30
0.0
 40
0
 41
0
  0
VERTEX
  8
0
 10
1.06565
 20
0.29899
 30
0.0
 40
0
 41
0
  0
VERTEX
  8
0
 10
1.09223
 20
0.306694
 30
0.0
 40
0
 41
0
  0
VERTEX
  8
0
 10
1.111
 20
0.320096
 30
0.0
 40
0
 41
0
  0
VERTEX
  8
0
 10
1.11361
 20
0.322917
 30
0.0
 40
0
 41
0
  0
VERTEX
  8
0
 10
1.11719
 20
0.326932
 30
0.0
 40
0
 41
0
  0
VERTEX
  8
0
 10
1.12912
 20
0.349664
 30
0.0
 40
0
 41
0
  0
VERTEX
  8
0
 10
1.1339
 20
0.383572
 30
0.0
 40
0
 41
0
  0
VERTEX
  8
0
 10
1.1339
 20
0.394857
 30
0.0
 40
0
 41
0
  0
VERTEX
  8
0
 10
1.1339
 20
0.406142
 30
0.0
 40
0
 41
0
  0
VERTEX
  8
0
 10
1.12912
 20
0.439833
 30
0.0
 40
0
 41
0
  0
VERTEX
  8
0
 10
1.11719
 20
0.462511
 30
0.0
 40
0
 41
0
  0
VERTEX
  8
0
 10
1.11361
 20
0.466471
 30
0.0
 40
0
 41
0
  0
VERTEX
  8
0
 10
1.111
 20
0.469347
 30
0.0
 40
0
 41
0
  0
VERTEX
  8
0
 10
1.09223
 20
0.482747
 30
0.0
 40
0
 41
0
  0
VERTEX
  8
0
 10
1.06565
 20
0.490451
 30
0.0
 40
0
 41
0
  0
VERTEX
  8
0
 10
1.0568
 20
0.490451
 30
0.0
 40
0
 41
0
  0
VERTEX
  8
0
 10
1.04791
 20
0.490451
 30
0.0
 40
0
 41
0
  0
VERTEX
  8
0
 10
1.02132
 20
0.482747
 30
0.0
 40
0
 41
0
  0
VERTEX
  8
0
 10
1.00255
 20
0.469347
 30
0.0
 40
0
 41
0
  0
VERTEX
  8
0
 10
1
 20
0.466471
 30
0.0
 40
0
 41
0
  0
VERTEX
  8
0
 10
0.996365
 20
0.462511
 30
0.0
 40
0
 41
0
  0
VERTEX
  8
0
 10
0.984429
 20
0.439833
 30
0.0
 40
0
 41
0
  0
VERTEX
  8
0
 10
0.97971
 20
0.406142
 30
0.0
 40
0
 41
0
  0
VERTEX
  8
0
 10
0.97971
 20
0.394857
 30
0.0
 40
0
 41
0
  0
SEQEND
 8
0
  0
POLYLINE
  8
0
 62
     142
 66
     1
 10
0
 20
0
 30
0.0
 70
     1
 40
0
 41
0
  0
VERTEX
  8
0
 10
1.09625
 20
0.394532
 30
0.0
 40
0
 41
0
  0
VERTEX
  8
0
 10
1.09625
 20
0.387424
 30
0.0
 40
0
 41
0
  0
VERTEX
  8
0
 10
1.09424
 20
0.366049
 30
0.0
 40
0
 41
0
  0
VERTEX
  8
0
 10
1.08881
 20
0.352756
 30
0.0
 40
0
 41
0
  0
VERTEX
  8
0
 10
1.08708
 20
0.350261
 30
0.0
 40
0
 41
0
  0
VERTEX
  8
0
 10
1.08567
 20
0.348361
 30
0.0
 40
0
 41
0
  0
VERTEX
  8
0
 10
1.07471
 20
0.340549
 30
0.0
 40
0
 41
0
  0
VERTEX
  8
0
 10
1.06125
 20
0.336589
 30
0.0
 40
0
 41
0
  0
VERTEX
  8
0
 10
1.0568
 20
0.336589
 30
0.0
 40
0
 41
0
  0
VERTEX
  8
0
 10
1.0523
 20
0.336589
 30
0.0
 40
0
 41
0
  0
VERTEX
  8
0
 10
1.0389
 20
0.340549
 30
0.0
 40
0
 41
0
  0
VERTEX
  8
0
 10
1.02794
 20
0.348361
 30
0.0
 40
0
 41
0
  0
VERTEX
  8
0
 10
1.02658
 20
0.350261
 30
0.0
 40
0
 41
0
  0
VERTEX
  8
0
 10
1.02479
 20
0.352756
 30
0.0
 40
0
 41
0
  0
VERTEX
  8
0
 10
1.01926
 20
0.366049
 30
0.0
 40
0
 41
0
  0
VERTEX
  8
0
 10
1.01731
 20
0.387696
 30
0.0
 40
0
 41
0
  0
VERTEX
  8
0
 10
1.01731
 20
0.394857
 30
0.0
 40
0
 41
0
  0
VERTEX
  8
0
 10
1.01731
 20
0.402018
 30
0.0
 40
0
 41
0
  0
VERTEX
  8
0
 10
1.01926
 20
0.423394
 30
0.0
 40
0
 41
0
  0
VERTEX
  8
0
 10
1.02479
 20
0.436686
 30
0.0
 40
0
 41
0
  0
VERTEX
  8
0
 10
1.02658
 20
0.439128
 30
0.0
 40
0
 41
0
  0
VERTEX
  8
0
 10
1.02794
 20
0.441081
 30
0.0
 40
0
 41
0
  0
VERTEX
  8
0
 10
1.0389
 20
0.448893
 30
0.0
 40
0
 41
0
  0
VERTEX
  8
0
 10
1.0523
 20
0.4528
 30
0.0
 40
0
 41
0
  0
VERTEX
  8
0
 10
1.0568
 20
0.4528
 30
0.0
 40
0
 41
0
  0
VERTEX
  8
0
 10
1.06125
 20
0.4528
 30
0.0
 40
0
 41
0
  0
VERTEX
  8
0
 10
1.07471
 20
0.448893
 30
0.0
 40
0
 41
0
  0
VERTEX
  8
0
 10
1.08567
 20
0.441081
 30
0.0
 40
0
 41
0
  0
VERTEX
  8
0
 10
1.08708
 20
0.439128
 30
0.0
 40
0
 41
0
  0
VERTEX
  8
0
 10
1.08881
 20
0.436686
 30
0.0
 40
0
 41
0
  0
VERTEX
  8
0
 10
1.09424
 20
0.42334
 30
0.0
 40
0
 41
0
  0
VERTEX
  8
0
 10
1.09625
 20
0.401747
 30
0.0
 40
0
 41
0
  0
VERTEX
  8
0
 10
1.09625
 20
0.394532
 30
0.0
 40
0
 41
0
  0
SEQEND
 8
0
  0
POLYLINE
  8
0
 62
     142
 66
     1
 10
0
 20
0
 30
0.0
 70
     1
 40
0
 41
0
  0
VERTEX
  8
0
 10
1.16602
 20
0.363878
 30
0.0
 40
0
 41
0
  0
VERTEX
  8
0
 10
1.16602
 20
0.356879
 30
0.0
 40
0
 41
0
  0
VERTEX
  8
0
 10
1.17166
 20
0.335883
 30
0.0
 40
0
 41
0
  0
VERTEX
  8
0
 10
1.18631
 20
0.315539
 30
0.0
 40
0
 41
0
  0
VERTEX
  8
0
 10
1.20643
 20
0.303168
 30
0.0
 40
0
 41
0
  0
VERTEX
  8
0
 10
1.22314
 20
0.29899
 30
0.0
 40
0
 41
0
  0
VERTEX
  8
0
 10
1.22873
 20
0.29899
 30
0.0
 40
0
 41
0
  0
VERTEX
  8
0
 10
1.23546
 20
0.29899
 30
0.0
 40
0
 41
0
  0
VERTEX
  8
0
 10
1.25575
 20
0.304525
 30
0.0
 40
0
 41
0
  0
VERTEX
  8
0
 10
1.27409
 20
0.317437
 30
0.0
 40
0
 41
0
  0
VERTEX
  8
0
 10
1.27707
 20
0.321126
 30
0.0
 40
0
 41
0
  0
VERTEX
  8
0
 10
1.27778
 20
0.321126
 30
0.0
 40
0
 41
0
  0
VERTEX
  8
0
 10
1.27778
 20
0.301161
 30
0.0
 40
0
 41
0
  0
VERTEX
  8
0
 10
1.31543
 20
0.301161
 30
0.0
 40
0
 41
0
  0
VERTEX
  8
0
 10
1.31543
 20
0.488226
 30
0.0
 40
0
 41
0
  0
VERTEX
  8
0
 10
1.27778
 20
0.488226
 30
0.0
 40
0
 41
0
  0
VERTEX
  8
0
 10
1.27778
 20
0.37679
 30
0.0
 40
0
 41
0
  0
VERTEX
  8
0
 10
1.27778
 20
0.369413
 30
0.0
 40
0
 41
0
  0
VERTEX
  8
0
 10
1.2672
 20
0.347168
 30
0.0
 40
0
 41
0
  0
VERTEX
  8
0
 10
1.24745
 20
0.336589
 30
0.0
 40
0
 41
0
  0
VERTEX
  8
0
 10
1.24089
 20
0.336589
 30
0.0
 40
0
 41
0
  0
VERTEX
  8
0
 10
1.23421
 20
0.336589
 30
0.0
 40
0
 41
0
  0
VERTEX
  8
0
 10
1.21425
 20
0.347168
 30
0.0
 40
0
 41
0
  0
VERTEX
  8
0
 10
1.20367
 20
0.369413
 30
0.0
 40
0
 41
0
  0
VERTEX
  8
0
 10
1.20367
 20
0.37679
 30
0.0
 40
0
 41
0
  0
VERTEX
  8
0
 10
1.20367
 20
0.488226
 30
0.0
 40
0
 41
0
  0
VERTEX
  8
0
 10
1.16602
 20
0.488226
 30
0.0
 40
0
 41
0
  0
VERTEX
  8
0
 10
1.16602
 20
0.363878
 30
0.0
 40
0
 41
0
  0
SEQEND
 8
0
  0
POLYLINE
  8
0
 62
     142
 66
     1
 10
0
 20
0
 30
0.0
 70
     1
 40
0
 41
0
  0
VERTEX
  8
0
 10
1.35666
 20
0.301215
 30
0.0
 40
0
 41
0
  0
VERTEX
  8
0
 10
1.39432
 20
0.301215
 30
0.0
 40
0
 41
0
  0
VERTEX
  8
0
 10
1.39432
 20
0.413683
 30
0.0
 40
0
 41
0
  0
VERTEX
  8
0
 10
1.39432
 20
0.421169
 30
0.0
 40
0
 41
0
  0
VERTEX
  8
0
 10
1.40565
 20
0.443522
 30
0.0
 40
0
 41
0
  0
VERTEX
  8
0
 10
1.42453
 20
0.4528
 30
0.0
 40
0
 41
0
  0
VERTEX
  8
0
 10
1.43083
 20
0.4528
 30
0.0
 40
0
 41
0
  0
VERTEX
  8
0
 10
1.43701
 20
0.4528
 30
0.0
 40
0
 41
0
  0
VERTEX
  8
0
 10
1.45335
 20
0.445258
 30
0.0
 40
0
 41
0
  0
VERTEX
  8
0
 10
1.45557
 20
0.443576
 30
0.0
 40
0
 41
0
  0
VERTEX
  8
0
 10
1.48286
 20
0.476074
 30
0.0
 40
0
 41
0
  0
VERTEX
  8
0
 10
1.47999
 20
0.478299
 30
0.0
 40
0
 41
0
  0
VERTEX
  8
0
 10
1.45281
 20
0.490451
 30
0.0
 40
0
 41
0
  0
VERTEX
  8
0
 10
1.44374
 20
0.490451
 30
0.0
 40
0
 41
0
  0
VERTEX
  8
0
 10
1.43685
 20
0.490451
 30
0.0
 40
0
 41
0
  0
VERTEX
  8
0
 10
1.41635
 20
0.484918
 30
0.0
 40
0
 41
0
  0
VERTEX
  8
0
 10
1.398
 20
0.472006
 30
0.0
 40
0
 41
0
  0
VERTEX
  8
0
 10
1.39507
 20
0.468317
 30
0.0
 40
0
 41
0
  0
VERTEX
  8
0
 10
1.39432
 20
0.468317
 30
0.0
 40
0
 41
0
  0
VERTEX
  8
0
 10
1.39432
 20
0.488226
 30
0.0
 40
0
 41
0
  0
VERTEX
  8
0
 10
1.35666
 20
0.488226
 30
0.0
 40
0
 41
0
  0
VERTEX
  8
0
 10
1.35666
 20
0.301215
 30
0.0
 40
0
 41
0
  0
SEQEND
 8
0
  0
POLYLINE
  8
0
 62
     142
 66
     1
 10
0
 20
0
 30
0.0
 70
     1
 40
0
 41
0
  0
VERTEX
  8
0
 10
1.60271
 20
0.356119
 30
0.0
 40
0
 41
0
  0
VERTEX
  8
0
 10
1.60037
 20
0.353299
 30
0.0
 40
0
 41
0
  0
VERTEX
  8
0
 10
1.58604
 20
0.342122
 30
0.0
 40
0
 41
0
  0
VERTEX
  8
0
 10
1.57004
 20
0.336589
 30
0.0
 40
0
 41
0
  0
VERTEX
  8
0
 10
1.56472
 20
0.336589
 30
0.0
 40
0
 41
0
  0
VERTEX
  8
0
 10
1.55957
 20
0.336589
 30
0.0
 40
0
 41
0
  0
VERTEX
  8
0
 10
1.54417
 20
0.339953
 30
0.0
 40
0
 41
0
  0
VERTEX
  8
0
 10
1.52886
 20
0.350369
 30
0.0
 40
0
 41
0
  0
VERTEX
  8
0
 10
1.51932
 20
0.368381
 30
0.0
 40
0
 41
0
  0
VERTEX
  8
0
 10
1.516
 20
0.388021
 30
0.0
 40
0
 41
0
  0
VERTEX
  8
0
 10
1.516
 20
0.394532
 30
0.0
 40
0
 41
0
  0
VERTEX
  8
0
 10
1.516
 20
0.40115
 30
0.0
 40
0
 41
0
  0
VERTEX
  8
0
 10
1.51926
 20
0.420953
 30
0.0
 40
0
 41
0
  0
VERTEX
  8
0
 10
1.52886
 20
0.439074
 30
0.0
 40
0
 41
0
  0
VERTEX
  8
0
 10
1.54417
 20
0.44949
 30
0.0
 40
0
 41
0
  0
VERTEX
  8
0
 10
1.55957
 20
0.4528
 30
0.0
 40
0
 41
0
  0
VERTEX
  8
0
 10
1.56472
 20
0.4528
 30
0.0
 40
0
 41
0
  0
VERTEX
  8
0
 10
1.57004
 20
0.4528
 30
0.0
 40
0
 41
0
  0
VERTEX
  8
0
 10
1.58604
 20
0.447374
 30
0.0
 40
0
 41
0
  0
VERTEX
  8
0
 10
1.60037
 20
0.436143
 30
0.0
 40
0
 41
0
  0
VERTEX
  8
0
 10
1.60271
 20
0.433268
 30
0.0
 40
0
 41
0
  0
VERTEX
  8
0
 10
1.63038
 20
0.457954
 30
0.0
 40
0
 41
0
  0
VERTEX
  8
0
 10
1.62631
 20
0.462674
 30
0.0
 40
0
 41
0
  0
VERTEX
  8
0
 10
1.60135
 20
0.481282
 30
0.0
 40
0
 41
0
  0
VERTEX
  8
0
 10
1.57269
 20
0.490451
 30
0.0
 40
0
 41
0
  0
VERTEX
  8
0
 10
1.56321
 20
0.490451
 30
0.0
 40
0
 41
0
  0
VERTEX
  8
0
 10
1.55533
 20
0.490451
 30
0.0
 40
0
 41
0
  0
VERTEX
  8
0
 10
1.53174
 20
0.485135
 30
0.0
 40
0
 41
0
  0
VERTEX
  8
0
 10
1.50461
 20
0.468261
 30
0.0
 40
0
 41
0
  0
VERTEX
  8
0
 10
1.48557
 20
0.438476
 30
0.0
 40
0
 41
0
  0
VERTEX
  8
0
 10
1.4784
 20
0.405544
 30
0.0
 40
0
 41
0
  0
VERTEX
  8
0
 10
1.4784
 20
0.394532
 30
0.0
 40
0
 41
0
  0
VERTEX
  8
0
 10
1.4784
 20
0.383626
 30
0.0
 40
0
 41
0
  0
VERTEX
  8
0
 10
1.48557
 20
0.350857
 30
0.0
 40
0
 41
0
  0
VERTEX
  8
0
 10
1.50461
 20
0.321181
 30
0.0
 40
0
 41
0
  0
VERTEX
  8
0
 10
1.53174
 20
0.304363
 30
0.0
 40
0
 41
0
  0
VERTEX
  8
0
 10
1.55533
 20
0.29899
 30
0.0
 40
0
 41
0
  0
VERTEX
  8
0
 10
1.56321
 20
0.29899
 30
0.0
 40
0
 41
0
  0
VERTEX
  8
0
 10
1.57269
 20
0.29899
 30
0.0
 40
0
 41
0
  0
VERTEX
  8
0
 10
1.60135
 20
0.30816
 30
0.0
 40
0
 41
0
  0
VERTEX
  8
0
 10
1.62631
 20
0.326768
 30
0.0
 40
0
 41
0
  0
VERTEX
  8
0
 10
1.63038
 20
0.331435
 30
0.0
 40
0
 41
0
  0
VERTEX
  8
0
 10
1.60271
 20
0.356119
 30
0.0
 40
0
 41
0
  0
SEQEND
 8
0
  0
POLYLINE
  8
0
 62
     142
 66
     1
 10
0
 20
0
 30
0.0
 70
     1
 40
0
 41
0
  0
VERTEX
  8
0
 10
1.79417
 20
0.380479
 30
0.0
 40
0
 41
0
  0
VERTEX
  8
0
 10
1.79417
 20
0.411458
 30
0.0
 40
0
 41
0
  0
VERTEX
  8
0
 10
1.79417
 20
0.41965
 30
0.0
 40
0
 41
0
  0
VERTEX
  8
0
 10
1.78788
 20
0.444228
 30
0.0
 40
0
 41
0
  0
VERTEX
  8
0
 10
1.77106
 20
0.469129
 30
0.0
 40
0
 41
0
  0
VERTEX
  8
0
 10
1.74653
 20
0.484918
 30
0.0
 40
0
 41
0
  0
VERTEX
  8
0
 10
1.72439
 20
0.490451
 30
0.0
 40
0
 41
0
  0
VERTEX
  8
0
 10
1.71707
 20
0.490451
 30
0.0
 40
0
 41
0
  0
VERTEX
  8
0
 10
1.71024
 20
0.490451
 30
0.0
 40
0
 41
0
  0
VERTEX
  8
0
 10
1.68972
 20
0.485622
 30
0.0
 40
0
 41
0
  0
VERTEX
  8
0
 10
1.66488
 20
0.469564
 30
0.0
 40
0
 41
0
  0
VERTEX
  8
0
 10
1.64686
 20
0.439888
 30
0.0
 40
0
 41
0
  0
VERTEX
  8
0
 10
1.63992
 20
0.405599
 30
0.0
 40
0
 41
0
  0
VERTEX
  8
0
 10
1.63992
 20
0.394151
 30
0.0
 40
0
 41
0
  0
VERTEX
  8
0
 10
1.63992
 20
0.382379
 30
0.0
 40
0
 41
0
  0
VERTEX
  8
0
 10
1.64746
 20
0.346951
 30
0.0
 40
0
 41
0
  0
VERTEX
  8
0
 10
1.66699
 20
0.317817
 30
0.0
 40
0
 41
0
  0
VERTEX
  8
0
 10
1.69374
 20
0.303114
 30
0.0
 40
0
 41
0
  0
VERTEX
  8
0
 10
1.7156
 20
0.29899
 30
0.0
 40
0
 41
0
  0
VERTEX
  8
0
 10
1.72293
 20
0.29899
 30
0.0
 40
0
 41
0
  0
VERTEX
  8
0
 10
1.73199
 20
0.29899
 30
0.0
 40
0
 41
0
  0
VERTEX
  8
0
 10
1.75917
 20
0.306099
 30
0.0
 40
0
 41
0
  0
VERTEX
  8
0
 10
1.78586
 20
0.323893
 30
0.0
 40
0
 41
0
  0
VERTEX
  8
0
 10
1.79047
 20
0.32921
 30
0.0
 40
0
 41
0
  0
VERTEX
  8
0
 10
1.76313
 20
0.352431
 30
0.0
 40
0
 41
0
  0
VERTEX
  8
0
 10
1.76036
 20
0.34961
 30
0.0
 40
0
 41
0
  0
VERTEX
  8
0
 10
1.74387
 20
0.339139
 30
0.0
 40
0
 41
0
  0
VERTEX
  8
0
 10
1.7276
 20
0.334364
 30
0.0
 40
0
 41
0
  0
VERTEX
  8
0
 10
1.72222
 20
0.334364
 30
0.0
 40
0
 41
0
  0
VERTEX
  8
0
 10
1.71419
 20
0.334364
 30
0.0
 40
0
 41
0
  0
VERTEX
  8
0
 10
1.69021
 20
0.345975
 30
0.0
 40
0
 41
0
  0
VERTEX
  8
0
 10
1.67757
 20
0.371853
 30
0.0
 40
0
 41
0
  0
VERTEX
  8
0
 10
1.67757
 20
0.380479
 30
0.0
 40
0
 41
0
  0
VERTEX
  8
0
 10
1.79417
 20
0.380479
 30
0.0
 40
0
 41
0
  0
SEQEND
 8
0
  0
POLYLINE
  8
0
 62
     142
 66
     1
 10
0
 20
0
 30
0.0
 70
     1
 40
0
 41
0
  0
VERTEX
  8
0
 10
1.67757
 20
0.411458
 30
0.0
 40
0
 41
0
  0
VERTEX
  8
0
 10
1.67774
 20
0.418565
 30
0.0
 40
0
 41
0
  0
VERTEX
  8
0
 10
1.68924
 20
0.443901
 30
0.0
 40
0
 41
0
  0
VERTEX
  8
0
 10
1.71007
 20
0.455024
 30
0.0
 40
0
 41
0
  0
VERTEX
  8
0
 10
1.71707
 20
0.455024
 30
0.0
 40
0
 41
0
  0
VERTEX
  8
0
 10
1.72396
 20
0.455024
 30
0.0
 40
0
 41
0
  0
VERTEX
  8
0
 10
1.74462
 20
0.443901
 30
0.0
 40
0
 41
0
  0
VERTEX
  8
0
 10
1.75618
 20
0.418565
 30
0.0
 40
0
 41
0
  0
VERTEX
  8
0
 10
1.75651
 20
0.411458
 30
0.0
 40
0
 41
0
  0
VERTEX
  8
0
 10
1.67757
 20
0.411458
 30
0.0
 40
0
 41
0
  0
SEQEND
 8
0
  0
POLYLINE
  8
0
 62
     142
 66
     1
 10
0
 20
0
 30
0.0
 70
     1
 40
0
 41
0
  0
VERTEX
  8
0
 10
0.260851
 20
0.336589
 30
0.0
 40
0
 41
0
  0
VERTEX
  8
0
 10
0.266004
 20
0.336589
 30
0.0
 40
0
 41
0
  0
VERTEX
  8
0
 10
0.281575
 20
0.341635
 30
0.0
 40
0
 41
0
  0
VERTEX
  8
0
 10
0.292751
 20
0.354764
 30
0.0
 40
0
 41
0
  0
VERTEX
  8
0
 10
0.297254
 20
0.373372
 30
0.0
 40
0
 41
0
  0
VERTEX
  8
0
 10
0.298122
 20
0.389268
 30
0.0
 40
0
 41
0
  0
VERTEX
  8
0
 10
0.298122
 20
0.394532
 30
0.0
 40
0
 41
0
  0
VERTEX
  8
0
 10
0.298122
 20
0.399903
 30
0.0
 40
0
 41
0
  0
VERTEX
  8
0
 10
0.297254
 20
0.415961
 30
0.0
 40
0
 41
0
  0
VERTEX
  8
0
 10
0.292751
 20
0.434625
 30
0.0
 40
0
 41
0
  0
VERTEX
  8
0
 10
0.281575
 20
0.447808
 30
0.0
 40
0
 41
0
  0
VERTEX
  8
0
 10
0.266004
 20
0.4528
 30
0.0
 40
0
 41
0
  0
VERTEX
  8
0
 10
0.260851
 20
0.4528
 30
0.0
 40
0
 41
0
  0
VERTEX
  8
0
 10
0.255697
 20
0.4528
 30
0.0
 40
0
 41
0
  0
VERTEX
  8
0
 10
0.240289
 20
0.447537
 30
0.0
 40
0
 41
0
  0
VERTEX
  8
0
 10
0.229221
 20
0.433919
 30
0.0
 40
0
 41
0
  0
VERTEX
  8
0
 10
0.224772
 20
0.415201
 30
0.0
 40
0
 41
0
  0
VERTEX
  8
0
 10
0.223958
 20
0.39974
 30
0.0
 40
0
 41
0
  0
VERTEX
  8
0
 10
0.223958
 20
0.394532
 30
0.0
 40
0
 41
0
  0
VERTEX
  8
0
 10
0.223958
 20
0.389432
 30
0.0
 40
0
 41
0
  0
VERTEX
  8
0
 10
0.224772
 20
0.374132
 30
0.0
 40
0
 41
0
  0
VERTEX
  8
0
 10
0.229221
 20
0.355469
 30
0.0
 40
0
 41
0
  0
VERTEX
  8
0
 10
0.240289
 20
0.341851
 30
0.0
 40
0
 41
0
  0
VERTEX
  8
0
 10
0.255697
 20
0.336589
 30
0.0
 40
0
 41
0
  0
VERTEX
  8
0
 10
0.260851
 20
0.336589
 30
0.0
 40
0
 41
0
  0
SEQEND
 8
0
  0
POLYLINE
  8
0
 62
     142
 66
     1
 10
0
 20
0
 30
0.0
 70
     1
 40
0
 41
0
  0
VERTEX
  8
0
 10
0.186199
 20
0.00575088
 30
0.0
 40
0
 41
0
  0
VERTEX
  8
0
 10
0.186199
 20
0.488226
 30
0.0
 40
0
 41
0
  0
VERTEX
  8
0
 10
0.223958
 20
0.488226
 30
0.0
 40
0
 41
0
  0
VERTEX
  8
0
 10
0.223958
 20
0.468642
 30
0.0
 40
0
 41
0
  0
VERTEX
  8
0
 10
0.226887
 20
0.471897
 30
0.0
 40
0
 41
0
  0
VERTEX
  8
0
 10
0.245335
 20
0.484429
 30
0.0
 40
0
 41
0
  0
VERTEX
  8
0
 10
0.265517
 20
0.490451
 30
0.0
 40
0
 41
0
  0
VERTEX
  8
0
 10
0.272299
 20
0.490451
 30
0.0
 40
0
 41
0
  0
VERTEX
  8
0
 10
0.279676
 20
0.490451
 30
0.0
 40
0
 41
0
  0
VERTEX
  8
0
 10
0.301921
 20
0.483561
 30
0.0
 40
0
 41
0
  0
VERTEX
  8
0
 10
0.319769
 20
0.469618
 30
0.0
 40
0
 41
0
  0
VERTEX
  8
0
 10
0.322483
 20
0.466092
 30
0.0
 40
0
 41
0
  0
VERTEX
  8
0
 10
0.324274
 20
0.463758
 30
0.0
 40
0
 41
0
  0
VERTEX
  8
0
 10
0.328885
 20
0.455838
 30
0.0
 40
0
 41
0
  0
VERTEX
  8
0
 10
0.332954
 20
0.442654
 30
0.0
 40
0
 41
0
  0
VERTEX
  8
0
 10
0.335069
 20
0.423286
 30
0.0
 40
0
 41
0
  0
VERTEX
  8
0
 10
0.335721
 20
0.401693
 30
0.0
 40
0
 41
0
  0
VERTEX
  8
0
 10
0.335721
 20
0.394476
 30
0.0
 40
0
 41
0
  0
VERTEX
  8
0
 10
0.335721
 20
0.387369
 30
0.0
 40
0
 41
0
  0
VERTEX
  8
0
 10
0.335069
 20
0.36594
 30
0.0
 40
0
 41
0
  0
VERTEX
  8
0
 10
0.332954
 20
0.346733
 30
0.0
 40
0
 41
0
  0
VERTEX
  8
0
 10
0.328885
 20
0.333604
 30
0.0
 40
0
 41
0
  0
VERTEX
  8
0
 10
0.324328
 20
0.325683
 30
0.0
 40
0
 41
0
  0
VERTEX
  8
0
 10
0.322483
 20
0.323296
 30
0.0
 40
0
 41
0
  0
VERTEX
  8
0
 10
0.319769
 20
0.319824
 30
0.0
 40
0
 41
0
  0
VERTEX
  8
0
 10
0.301921
 20
0.305881
 30
0.0
 40
0
 41
0
  0
VERTEX
  8
0
 10
0.279676
 20
0.298936
 30
0.0
 40
0
 41
0
  0
VERTEX
  8
0
 10
0.272299
 20
0.298936
 30
0.0
 40
0
 41
0
  0
VERTEX
  8
0
 10
0.265733
 20
0.298936
 30
0.0
 40
0
 41
0
  0
VERTEX
  8
0
 10
0.246149
 20
0.305067
 30
0.0
 40
0
 41
0
  0
VERTEX
  8
0
 10
0.227431
 20
0.317763
 30
0.0
 40
0
 41
0
  0
VERTEX
  8
0
 10
0.223958
 20
0.321072
 30
0.0
 40
0
 41
0
  0
VERTEX
  8
0
 10
0.223796
 20
0.172851
 30
0.0
 40
0
 41
0
  0
VERTEX
  8
0
 10
0.226887
 20
0.17654
 30
0.0
 40
0
 41
0
  0
VERTEX
  8
0
 10
0.245714
 20
0.189453
 30
0.0
 40
0
 41
0
  0
VERTEX
  8
0
 10
0.266331
 20
0.194987
 30
0.0
 40
0
 41
0
  0
VERTEX
  8
0
 10
0.273221
 20
0.194987
 30
0.0
 40
0
 41
0
  0
VERTEX
  8
0
 10
0.2787
 20
0.194987
 30
0.0
 40
0
 41
0
  0
VERTEX
  8
0
 10
0.295247
 20
0.190864
 30
0.0
 40
0
 41
0
  0
VERTEX
  8
0
 10
0.315321
 20
0.178494
 30
0.0
 40
0
 41
0
  0
VERTEX
  8
0
 10
0.329915
 20
0.158149
 30
0.0
 40
0
 41
0
  0
VERTEX
  8
0
 10
0.335558
 20
0.137153
 30
0.0
 40
0
 41
0
  0
VERTEX
  8
0
 10
0.335558
 20
0.1301
 30
0.0
 40
0
 41
0
  0
VERTEX
  8
0
 10
0.335558
 20
0.00575088
 30
0.0
 40
0
 41
0
  0
VERTEX
  8
0
 10
0.29796
 20
0.00575088
 30
0.0
 40
0
 41
0
  0
VERTEX
  8
0
 10
0.29796
 20
0.117133
 30
0.0
 40
0
 41
0
  0
VERTEX
  8
0
 10
0.29796
 20
0.124566
 30
0.0
 40
0
 41
0
  0
VERTEX
  8
0
 10
0.287381
 20
0.146864
 30
0.0
 40
0
 41
0
  0
VERTEX
  8
0
 10
0.267632
 20
0.157389
 30
0.0
 40
0
 41
0
  0
VERTEX
  8
0
 10
0.261068
 20
0.157389
 30
0.0
 40
0
 41
0
  0
VERTEX
  8
0
 10
0.254394
 20
0.157389
 30
0.0
 40
0
 41
0
  0
VERTEX
  8
0
 10
0.234375
 20
0.146864
 30
0.0
 40
0
 41
0
  0
VERTEX
  8
0
 10
0.223796
 20
0.124566
 30
0.0
 40
0
 41
0
  0
VERTEX
  8
0
 10
0.223796
 20
0.117133
 30
0.0
 40
0
 41
0
  0
VERTEX
  8
0
 10
0.223796
 20
0.00575088
 30
0.0
 40
0
 41
0
  0
VERTEX
  8
0
 10
0.186199
 20
0.00575088
 30
0.0
 40
0
 41
0
  0
SEQEND
 8
0
  0
ENDSEC
  0
EOF
