G04 #@! TF.GenerationSoftware,KiCad,Pcbnew,(6.0.5-0)*
G04 #@! TF.CreationDate,2022-12-01T23:32:52+01:00*
G04 #@! TF.ProjectId,muVox,6d75566f-782e-46b6-9963-61645f706362,rc1*
G04 #@! TF.SameCoordinates,Original*
G04 #@! TF.FileFunction,Legend,Bot*
G04 #@! TF.FilePolarity,Positive*
%FSLAX46Y46*%
G04 Gerber Fmt 4.6, Leading zero omitted, Abs format (unit mm)*
G04 Created by KiCad (PCBNEW (6.0.5-0)) date 2022-12-01 23:32:52*
%MOMM*%
%LPD*%
G01*
G04 APERTURE LIST*
%ADD10C,0.100000*%
%ADD11C,0.120000*%
G04 APERTURE END LIST*
D10*
X98490100Y-112329300D02*
X98490100Y-112562633D01*
X98856766Y-112662633D02*
X98856766Y-112329300D01*
X98156766Y-112329300D01*
X98156766Y-112662633D01*
X98823433Y-112929300D02*
X98856766Y-113029300D01*
X98856766Y-113195966D01*
X98823433Y-113262633D01*
X98790100Y-113295966D01*
X98723433Y-113329300D01*
X98656766Y-113329300D01*
X98590100Y-113295966D01*
X98556766Y-113262633D01*
X98523433Y-113195966D01*
X98490100Y-113062633D01*
X98456766Y-112995966D01*
X98423433Y-112962633D01*
X98356766Y-112929300D01*
X98290100Y-112929300D01*
X98223433Y-112962633D01*
X98190100Y-112995966D01*
X98156766Y-113062633D01*
X98156766Y-113229300D01*
X98190100Y-113329300D01*
X98856766Y-113629300D02*
X98156766Y-113629300D01*
X98156766Y-113895966D01*
X98190100Y-113962633D01*
X98223433Y-113995966D01*
X98290100Y-114029300D01*
X98390100Y-114029300D01*
X98456766Y-113995966D01*
X98490100Y-113962633D01*
X98523433Y-113895966D01*
X98523433Y-113629300D01*
X98923433Y-114162633D02*
X98923433Y-114695966D01*
X98856766Y-115262633D02*
X98523433Y-115029300D01*
X98856766Y-114862633D02*
X98156766Y-114862633D01*
X98156766Y-115129300D01*
X98190100Y-115195966D01*
X98223433Y-115229300D01*
X98290100Y-115262633D01*
X98390100Y-115262633D01*
X98456766Y-115229300D01*
X98490100Y-115195966D01*
X98523433Y-115129300D01*
X98523433Y-114862633D01*
X98823433Y-115529300D02*
X98856766Y-115629300D01*
X98856766Y-115795966D01*
X98823433Y-115862633D01*
X98790100Y-115895966D01*
X98723433Y-115929300D01*
X98656766Y-115929300D01*
X98590100Y-115895966D01*
X98556766Y-115862633D01*
X98523433Y-115795966D01*
X98490100Y-115662633D01*
X98456766Y-115595966D01*
X98423433Y-115562633D01*
X98356766Y-115529300D01*
X98290100Y-115529300D01*
X98223433Y-115562633D01*
X98190100Y-115595966D01*
X98156766Y-115662633D01*
X98156766Y-115829300D01*
X98190100Y-115929300D01*
X98156766Y-116129300D02*
X98156766Y-116529300D01*
X98856766Y-116329300D02*
X98156766Y-116329300D01*
X90456766Y-112245966D02*
X90456766Y-112645966D01*
X91156766Y-112445966D02*
X90456766Y-112445966D01*
X90456766Y-112812633D02*
X91156766Y-113279300D01*
X90456766Y-113279300D02*
X91156766Y-112812633D01*
X100690100Y-112745966D02*
X100656766Y-112679300D01*
X100656766Y-112579300D01*
X100690100Y-112479300D01*
X100756766Y-112412633D01*
X100823433Y-112379300D01*
X100956766Y-112345966D01*
X101056766Y-112345966D01*
X101190100Y-112379300D01*
X101256766Y-112412633D01*
X101323433Y-112479300D01*
X101356766Y-112579300D01*
X101356766Y-112645966D01*
X101323433Y-112745966D01*
X101290100Y-112779300D01*
X101056766Y-112779300D01*
X101056766Y-112645966D01*
X101356766Y-113079300D02*
X100656766Y-113079300D01*
X101356766Y-113479300D01*
X100656766Y-113479300D01*
X101356766Y-113812633D02*
X100656766Y-113812633D01*
X100656766Y-113979300D01*
X100690100Y-114079300D01*
X100756766Y-114145966D01*
X100823433Y-114179300D01*
X100956766Y-114212633D01*
X101056766Y-114212633D01*
X101190100Y-114179300D01*
X101256766Y-114145966D01*
X101323433Y-114079300D01*
X101356766Y-113979300D01*
X101356766Y-113812633D01*
X96279966Y-112535300D02*
X95579966Y-112535300D01*
X95579966Y-113001966D02*
X95579966Y-113135300D01*
X95613300Y-113201966D01*
X95679966Y-113268633D01*
X95813300Y-113301966D01*
X96046633Y-113301966D01*
X96179966Y-113268633D01*
X96246633Y-113201966D01*
X96279966Y-113135300D01*
X96279966Y-113001966D01*
X96246633Y-112935300D01*
X96179966Y-112868633D01*
X96046633Y-112835300D01*
X95813300Y-112835300D01*
X95679966Y-112868633D01*
X95613300Y-112935300D01*
X95579966Y-113001966D01*
X95579966Y-113735300D02*
X95579966Y-113801966D01*
X95613300Y-113868633D01*
X95646633Y-113901966D01*
X95713300Y-113935300D01*
X95846633Y-113968633D01*
X96013300Y-113968633D01*
X96146633Y-113935300D01*
X96213300Y-113901966D01*
X96246633Y-113868633D01*
X96279966Y-113801966D01*
X96279966Y-113735300D01*
X96246633Y-113668633D01*
X96213300Y-113635300D01*
X96146633Y-113601966D01*
X96013300Y-113568633D01*
X95846633Y-113568633D01*
X95713300Y-113601966D01*
X95646633Y-113635300D01*
X95613300Y-113668633D01*
X95579966Y-113735300D01*
X93656766Y-112762633D02*
X93323433Y-112529300D01*
X93656766Y-112362633D02*
X92956766Y-112362633D01*
X92956766Y-112629300D01*
X92990100Y-112695966D01*
X93023433Y-112729300D01*
X93090100Y-112762633D01*
X93190100Y-112762633D01*
X93256766Y-112729300D01*
X93290100Y-112695966D01*
X93323433Y-112629300D01*
X93323433Y-112362633D01*
X92956766Y-112995966D02*
X93656766Y-113462633D01*
X92956766Y-113462633D02*
X93656766Y-112995966D01*
X87906766Y-112545966D02*
X87906766Y-112212633D01*
X88240100Y-112179300D01*
X88206766Y-112212633D01*
X88173433Y-112279300D01*
X88173433Y-112445966D01*
X88206766Y-112512633D01*
X88240100Y-112545966D01*
X88306766Y-112579300D01*
X88473433Y-112579300D01*
X88540100Y-112545966D01*
X88573433Y-112512633D01*
X88606766Y-112445966D01*
X88606766Y-112279300D01*
X88573433Y-112212633D01*
X88540100Y-112179300D01*
X88140100Y-112812633D02*
X88606766Y-112979300D01*
X88140100Y-113145966D01*
X88340100Y-113412633D02*
X88340100Y-113945966D01*
X88606766Y-113679300D02*
X88073433Y-113679300D01*
D11*
X114996000Y-147066000D02*
G75*
G03*
X114996000Y-147066000I-950000J0D01*
G01*
X144550000Y-110500000D02*
G75*
G03*
X144550000Y-110500000I-950000J0D01*
G01*
X105846200Y-156027400D02*
X105846200Y-155427400D01*
X103046200Y-155427400D02*
X103046200Y-156027400D01*
X105146200Y-154727400D02*
X103746200Y-154727400D01*
X103746200Y-156727400D02*
X105146200Y-156727400D01*
X105146200Y-156727400D02*
G75*
G03*
X105846200Y-156027400I0J700000D01*
G01*
X105846200Y-155427400D02*
G75*
G03*
X105146200Y-154727400I-700000J0D01*
G01*
X103046200Y-156027400D02*
G75*
G03*
X103746200Y-156727400I699999J-1D01*
G01*
X103746200Y-154727400D02*
G75*
G03*
X103046200Y-155427400I-1J-699999D01*
G01*
X90398000Y-151638000D02*
G75*
G03*
X90398000Y-151638000I-950000J0D01*
G01*
X92898000Y-151638000D02*
G75*
G03*
X92898000Y-151638000I-950000J0D01*
G01*
X87648000Y-151638000D02*
G75*
G03*
X87648000Y-151638000I-950000J0D01*
G01*
X91690100Y-115679300D02*
G75*
G03*
X91690100Y-115679300I-950000J0D01*
G01*
X96890100Y-115679300D02*
G75*
G03*
X96890100Y-115679300I-950000J0D01*
G01*
X103919500Y-149098000D02*
G75*
G03*
X103919500Y-149098000I-950000J0D01*
G01*
X124140000Y-149098000D02*
G75*
G03*
X124140000Y-149098000I-950000J0D01*
G01*
X94290100Y-115679300D02*
G75*
G03*
X94290100Y-115679300I-950000J0D01*
G01*
X144550000Y-151600000D02*
G75*
G03*
X144550000Y-151600000I-950000J0D01*
G01*
X153497600Y-140379300D02*
X152897600Y-140379300D01*
X154197600Y-143829300D02*
X154197600Y-141029300D01*
X152897600Y-144479300D02*
X153497600Y-144479300D01*
X154697600Y-140929300D02*
X154697600Y-141529300D01*
X154397600Y-141229300D02*
X154697600Y-141529300D01*
X152197600Y-141029300D02*
X152197600Y-143829300D01*
X154397600Y-141229300D02*
X154697600Y-140929300D01*
X153497600Y-144479300D02*
G75*
G03*
X154197600Y-143779300I0J700000D01*
G01*
X152897600Y-140379300D02*
G75*
G03*
X152197600Y-141079300I-1J-699999D01*
G01*
X152197600Y-143779300D02*
G75*
G03*
X152897600Y-144479300I700000J0D01*
G01*
X154197600Y-141079300D02*
G75*
G03*
X153497600Y-140379300I-699999J1D01*
G01*
X106090100Y-115679300D02*
G75*
G03*
X106090100Y-115679300I-950000J0D01*
G01*
X157282600Y-140379300D02*
X156682600Y-140379300D01*
X156682600Y-144479300D02*
X157282600Y-144479300D01*
X155782600Y-143629300D02*
X155482600Y-143329300D01*
X155482600Y-143929300D02*
X155482600Y-143329300D01*
X157982600Y-143829300D02*
X157982600Y-141029300D01*
X155982600Y-141029300D02*
X155982600Y-143829300D01*
X155782600Y-143629300D02*
X155482600Y-143929300D01*
X155982600Y-143779300D02*
G75*
G03*
X156682600Y-144479300I699999J-1D01*
G01*
X156682600Y-140379300D02*
G75*
G03*
X155982600Y-141079300I0J-700000D01*
G01*
X157982600Y-141079300D02*
G75*
G03*
X157282600Y-140379300I-700000J0D01*
G01*
X157282600Y-144479300D02*
G75*
G03*
X157982600Y-143779300I1J699999D01*
G01*
X106396200Y-155427400D02*
X106396200Y-156027400D01*
X109196200Y-156027400D02*
X109196200Y-155427400D01*
X107096200Y-156727400D02*
X108496200Y-156727400D01*
X108496200Y-154727400D02*
X107096200Y-154727400D01*
X109196200Y-155427400D02*
G75*
G03*
X108496200Y-154727400I-699999J1D01*
G01*
X108496200Y-156727400D02*
G75*
G03*
X109196200Y-156027400I1J699999D01*
G01*
X106396200Y-156027400D02*
G75*
G03*
X107096200Y-156727400I700000J0D01*
G01*
X107096200Y-154727400D02*
G75*
G03*
X106396200Y-155427400I0J-700000D01*
G01*
X107376000Y-149098000D02*
G75*
G03*
X107376000Y-149098000I-950000J0D01*
G01*
G36*
X159447000Y-161980719D02*
G01*
X131159343Y-161980719D01*
X130828171Y-161671765D01*
X130819087Y-161663395D01*
X130554672Y-161459822D01*
X130188522Y-161224428D01*
X129797000Y-161006481D01*
X129355436Y-160769341D01*
X128849000Y-160478189D01*
X128397000Y-160201115D01*
X127738020Y-159740863D01*
X127197203Y-159262529D01*
X126827203Y-158790967D01*
X126614856Y-158309092D01*
X126547000Y-157799815D01*
X126589506Y-157390091D01*
X126734656Y-156946328D01*
X126992374Y-156485955D01*
X127372406Y-155999073D01*
X127884493Y-155475783D01*
X128538379Y-154906187D01*
X129343809Y-154280386D01*
X130310526Y-153588482D01*
X131448273Y-152820576D01*
X131500698Y-152785905D01*
X132071433Y-152398414D01*
X132620891Y-152008657D01*
X133112116Y-151644005D01*
X133508153Y-151331828D01*
X133772046Y-151099497D01*
X134189114Y-150641831D01*
X134595583Y-150025624D01*
X134805251Y-149425620D01*
X134819241Y-148838139D01*
X134638675Y-148259502D01*
X134414791Y-147910022D01*
X134028533Y-147476152D01*
X133535107Y-147027473D01*
X132974005Y-146599580D01*
X132384716Y-146228063D01*
X132319810Y-146191557D01*
X131443898Y-145684971D01*
X130730081Y-145239782D01*
X130158032Y-144839296D01*
X129707425Y-144466821D01*
X129357935Y-144105662D01*
X129089235Y-143739126D01*
X128881000Y-143350520D01*
X128734064Y-142982857D01*
X128661816Y-142626734D01*
X128665297Y-142217622D01*
X128676291Y-142098982D01*
X128807531Y-141516215D01*
X129073783Y-140948339D01*
X129486556Y-140381528D01*
X130057362Y-139801955D01*
X130797711Y-139195792D01*
X131719112Y-138549213D01*
X132010799Y-138354716D01*
X132709511Y-137868982D01*
X133261387Y-137448706D01*
X133689246Y-137074501D01*
X134015906Y-136726978D01*
X134264185Y-136386751D01*
X134392439Y-136155785D01*
X134534346Y-135677752D01*
X134491821Y-135215690D01*
X134261216Y-134760672D01*
X133838879Y-134303772D01*
X133221161Y-133836063D01*
X132921775Y-133632587D01*
X132435907Y-133269135D01*
X132094612Y-132952780D01*
X131873060Y-132658706D01*
X131746422Y-132362098D01*
X131696183Y-132089314D01*
X131732989Y-131699141D01*
X131911323Y-131305454D01*
X132242635Y-130891553D01*
X132738379Y-130440738D01*
X133410007Y-129936310D01*
X133954792Y-129521803D01*
X134507739Y-128992741D01*
X134862793Y-128489315D01*
X135020048Y-128010224D01*
X134979597Y-127554170D01*
X134741536Y-127119853D01*
X134305958Y-126705974D01*
X133672959Y-126311232D01*
X133474108Y-126212050D01*
X132751060Y-125914352D01*
X131874094Y-125629257D01*
X130877858Y-125367246D01*
X129797000Y-125138798D01*
X129754441Y-125130765D01*
X128926771Y-124953453D01*
X128045313Y-124730254D01*
X127173078Y-124479239D01*
X126373081Y-124218484D01*
X125708334Y-123966062D01*
X125171180Y-123708307D01*
X124639724Y-123397053D01*
X124160079Y-123064014D01*
X123777220Y-122740424D01*
X123536121Y-122457514D01*
X123448348Y-122297398D01*
X123305685Y-121790741D01*
X123356136Y-121273136D01*
X123594969Y-120748355D01*
X124017453Y-120220169D01*
X124618856Y-119692351D01*
X125394445Y-119168671D01*
X126339488Y-118652901D01*
X127449254Y-118148813D01*
X128719010Y-117660179D01*
X130144025Y-117190769D01*
X130484121Y-117085748D01*
X131529750Y-116744551D01*
X132401467Y-116426774D01*
X133117251Y-116124332D01*
X133695085Y-115829139D01*
X134152949Y-115533111D01*
X134508825Y-115228162D01*
X134542710Y-115193202D01*
X134790320Y-114822409D01*
X134842192Y-114448671D01*
X134702083Y-114076306D01*
X134373752Y-113709632D01*
X133860955Y-113352966D01*
X133167452Y-113010626D01*
X132297000Y-112686929D01*
X131829838Y-112524731D01*
X131292404Y-112297403D01*
X130861964Y-112051296D01*
X130484884Y-111758944D01*
X130456490Y-111733461D01*
X130080917Y-111267316D01*
X129881270Y-110730349D01*
X129855725Y-110142371D01*
X130002463Y-109523198D01*
X130319662Y-108892643D01*
X130805501Y-108270518D01*
X131274368Y-107767281D01*
X159447000Y-107767281D01*
X159447000Y-161980719D01*
G37*
X84898000Y-151638000D02*
G75*
G03*
X84898000Y-151638000I-950000J0D01*
G01*
X144550000Y-158800000D02*
G75*
G03*
X144550000Y-158800000I-950000J0D01*
G01*
X110678000Y-147320000D02*
G75*
G03*
X110678000Y-147320000I-950000J0D01*
G01*
X144550000Y-117700000D02*
G75*
G03*
X144550000Y-117700000I-950000J0D01*
G01*
M02*
