G04 #@! TF.GenerationSoftware,KiCad,Pcbnew,(6.0.5-0)*
G04 #@! TF.CreationDate,2022-12-01T23:32:52+01:00*
G04 #@! TF.ProjectId,muVox,6d75566f-782e-46b6-9963-61645f706362,rc1*
G04 #@! TF.SameCoordinates,Original*
G04 #@! TF.FileFunction,Soldermask,Top*
G04 #@! TF.FilePolarity,Negative*
%FSLAX46Y46*%
G04 Gerber Fmt 4.6, Leading zero omitted, Abs format (unit mm)*
G04 Created by KiCad (PCBNEW (6.0.5-0)) date 2022-12-01 23:32:52*
%MOMM*%
%LPD*%
G01*
G04 APERTURE LIST*
G04 Aperture macros list*
%AMRoundRect*
0 Rectangle with rounded corners*
0 $1 Rounding radius*
0 $2 $3 $4 $5 $6 $7 $8 $9 X,Y pos of 4 corners*
0 Add a 4 corners polygon primitive as box body*
4,1,4,$2,$3,$4,$5,$6,$7,$8,$9,$2,$3,0*
0 Add four circle primitives for the rounded corners*
1,1,$1+$1,$2,$3*
1,1,$1+$1,$4,$5*
1,1,$1+$1,$6,$7*
1,1,$1+$1,$8,$9*
0 Add four rect primitives between the rounded corners*
20,1,$1+$1,$2,$3,$4,$5,0*
20,1,$1+$1,$4,$5,$6,$7,0*
20,1,$1+$1,$6,$7,$8,$9,0*
20,1,$1+$1,$8,$9,$2,$3,0*%
G04 Aperture macros list end*
%ADD10C,0.100000*%
%ADD11C,0.550000*%
%ADD12C,0.162500*%
%ADD13RoundRect,0.250000X-0.475000X0.250000X-0.475000X-0.250000X0.475000X-0.250000X0.475000X0.250000X0*%
%ADD14C,1.600000*%
%ADD15R,4.000000X2.000000*%
%ADD16O,3.300000X2.000000*%
%ADD17O,2.000000X3.500000*%
%ADD18RoundRect,0.150000X0.150000X-0.725000X0.150000X0.725000X-0.150000X0.725000X-0.150000X-0.725000X0*%
%ADD19RoundRect,0.150000X0.512500X0.150000X-0.512500X0.150000X-0.512500X-0.150000X0.512500X-0.150000X0*%
%ADD20RoundRect,0.250000X-0.600000X-0.600000X0.600000X-0.600000X0.600000X0.600000X-0.600000X0.600000X0*%
%ADD21C,1.700000*%
%ADD22RoundRect,0.225000X0.250000X-0.225000X0.250000X0.225000X-0.250000X0.225000X-0.250000X-0.225000X0*%
%ADD23RoundRect,0.150000X-0.150000X0.512500X-0.150000X-0.512500X0.150000X-0.512500X0.150000X0.512500X0*%
%ADD24RoundRect,0.250000X1.137500X0.550000X-1.137500X0.550000X-1.137500X-0.550000X1.137500X-0.550000X0*%
%ADD25RoundRect,0.150000X-0.587500X-0.150000X0.587500X-0.150000X0.587500X0.150000X-0.587500X0.150000X0*%
%ADD26R,0.450000X0.600000*%
%ADD27RoundRect,0.250000X0.250000X0.475000X-0.250000X0.475000X-0.250000X-0.475000X0.250000X-0.475000X0*%
%ADD28RoundRect,0.200000X0.275000X-0.200000X0.275000X0.200000X-0.275000X0.200000X-0.275000X-0.200000X0*%
%ADD29RoundRect,0.250000X1.000000X-1.500000X1.000000X1.500000X-1.000000X1.500000X-1.000000X-1.500000X0*%
%ADD30RoundRect,0.200000X0.200000X0.275000X-0.200000X0.275000X-0.200000X-0.275000X0.200000X-0.275000X0*%
%ADD31RoundRect,0.225000X-0.225000X-0.250000X0.225000X-0.250000X0.225000X0.250000X-0.225000X0.250000X0*%
%ADD32C,6.400000*%
%ADD33C,2.500000*%
%ADD34R,0.600000X0.450000*%
%ADD35RoundRect,0.225000X0.225000X0.250000X-0.225000X0.250000X-0.225000X-0.250000X0.225000X-0.250000X0*%
%ADD36RoundRect,0.200000X-0.200000X-0.275000X0.200000X-0.275000X0.200000X0.275000X-0.200000X0.275000X0*%
%ADD37RoundRect,0.250000X-1.000000X1.500000X-1.000000X-1.500000X1.000000X-1.500000X1.000000X1.500000X0*%
%ADD38RoundRect,0.250000X-0.325000X-0.650000X0.325000X-0.650000X0.325000X0.650000X-0.325000X0.650000X0*%
%ADD39RoundRect,0.250001X-1.099999X-1.099999X1.099999X-1.099999X1.099999X1.099999X-1.099999X1.099999X0*%
%ADD40C,2.700000*%
%ADD41RoundRect,0.200000X-0.275000X0.200000X-0.275000X-0.200000X0.275000X-0.200000X0.275000X0.200000X0*%
%ADD42R,1.700000X1.700000*%
%ADD43O,1.700000X1.700000*%
%ADD44RoundRect,0.075000X-0.075000X0.362500X-0.075000X-0.362500X0.075000X-0.362500X0.075000X0.362500X0*%
%ADD45RoundRect,0.075000X-0.362500X0.075000X-0.362500X-0.075000X0.362500X-0.075000X0.362500X0.075000X0*%
%ADD46R,5.450000X5.450000*%
%ADD47R,3.600000X2.700000*%
%ADD48R,0.700000X0.600000*%
%ADD49RoundRect,0.250000X0.475000X-0.250000X0.475000X0.250000X-0.475000X0.250000X-0.475000X-0.250000X0*%
%ADD50R,1.550000X0.600000*%
%ADD51R,2.600000X3.100000*%
%ADD52C,1.400000*%
%ADD53C,1.200000*%
%ADD54O,1.208000X2.800000*%
%ADD55RoundRect,0.250000X-0.250000X-0.475000X0.250000X-0.475000X0.250000X0.475000X-0.250000X0.475000X0*%
%ADD56R,1.500000X1.000000*%
%ADD57RoundRect,0.150000X-0.150000X-0.625000X0.150000X-0.625000X0.150000X0.625000X-0.150000X0.625000X0*%
%ADD58RoundRect,0.250000X-0.350000X-0.650000X0.350000X-0.650000X0.350000X0.650000X-0.350000X0.650000X0*%
%ADD59RoundRect,0.225000X-0.250000X0.225000X-0.250000X-0.225000X0.250000X-0.225000X0.250000X0.225000X0*%
%ADD60R,1.800000X3.500000*%
%ADD61O,0.900000X3.000000*%
%ADD62C,0.800000*%
%ADD63R,5.000000X5.000000*%
%ADD64R,1.100000X1.100000*%
G04 APERTURE END LIST*
D10*
G36*
X81451600Y-118560400D02*
G01*
X79091600Y-119940400D01*
X79101600Y-119670400D01*
X81221600Y-118450400D01*
X81221600Y-116210400D01*
X78781600Y-117620400D01*
X78781600Y-121180400D01*
X81861600Y-122960400D01*
X84941600Y-121160400D01*
X84941600Y-120310400D01*
X83501600Y-119470400D01*
X83501600Y-119340400D01*
X84941600Y-118520400D01*
X84941600Y-117820400D01*
X85151600Y-117690400D01*
X85151600Y-118620400D01*
X83831600Y-119390400D01*
X85151600Y-120170400D01*
X85151600Y-121290400D01*
X81861600Y-123210400D01*
X78571600Y-121300400D01*
X78571600Y-117490400D01*
X81441600Y-115840400D01*
X81451600Y-118560400D01*
G37*
X81451600Y-118560400D02*
X79091600Y-119940400D01*
X79101600Y-119670400D01*
X81221600Y-118450400D01*
X81221600Y-116210400D01*
X78781600Y-117620400D01*
X78781600Y-121180400D01*
X81861600Y-122960400D01*
X84941600Y-121160400D01*
X84941600Y-120310400D01*
X83501600Y-119470400D01*
X83501600Y-119340400D01*
X84941600Y-118520400D01*
X84941600Y-117820400D01*
X85151600Y-117690400D01*
X85151600Y-118620400D01*
X83831600Y-119390400D01*
X85151600Y-120170400D01*
X85151600Y-121290400D01*
X81861600Y-123210400D01*
X78571600Y-121300400D01*
X78571600Y-117490400D01*
X81441600Y-115840400D01*
X81451600Y-118560400D01*
G36*
X85021600Y-117410400D02*
G01*
X84801600Y-117530400D01*
X81971600Y-115900400D01*
X81971600Y-122520400D01*
X81861600Y-122580400D01*
X79111600Y-120990400D01*
X79111600Y-120280400D01*
X79341600Y-120410400D01*
X79341600Y-120840400D01*
X81761600Y-122240400D01*
X81771600Y-115640400D01*
X81871600Y-115590400D01*
X85021600Y-117410400D01*
G37*
X85021600Y-117410400D02*
X84801600Y-117530400D01*
X81971600Y-115900400D01*
X81971600Y-122520400D01*
X81861600Y-122580400D01*
X79111600Y-120990400D01*
X79111600Y-120280400D01*
X79341600Y-120410400D01*
X79341600Y-120840400D01*
X81761600Y-122240400D01*
X81771600Y-115640400D01*
X81871600Y-115590400D01*
X85021600Y-117410400D01*
G36*
X134948500Y-116630500D02*
G01*
X134719900Y-116859100D01*
X134643700Y-116782900D01*
X134313500Y-117113100D01*
X134084900Y-116884500D01*
X134415100Y-116554300D01*
X134338900Y-116478100D01*
X134567500Y-116249500D01*
X134948500Y-116630500D01*
G37*
X134948500Y-116630500D02*
X134719900Y-116859100D01*
X134643700Y-116782900D01*
X134313500Y-117113100D01*
X134084900Y-116884500D01*
X134415100Y-116554300D01*
X134338900Y-116478100D01*
X134567500Y-116249500D01*
X134948500Y-116630500D01*
G36*
X81731600Y-118990400D02*
G01*
X79331600Y-120380400D01*
X79111600Y-120270400D01*
X81741600Y-118770400D01*
X81731600Y-118990400D01*
G37*
X81731600Y-118990400D02*
X79331600Y-120380400D01*
X79111600Y-120270400D01*
X81741600Y-118770400D01*
X81731600Y-118990400D01*
G36*
X132799100Y-114499100D02*
G01*
X132824500Y-114753100D01*
X132926100Y-115159500D01*
X133129300Y-115769100D01*
X133357900Y-116200900D01*
X133688100Y-116785100D01*
X133992900Y-117191500D01*
X134246900Y-117521700D01*
X134780300Y-118131300D01*
X135262900Y-118664700D01*
X135770900Y-119198100D01*
X136253500Y-119680700D01*
X136532900Y-120036300D01*
X136659900Y-120417300D01*
X136685300Y-120823700D01*
X136659900Y-121103100D01*
X136583700Y-121306300D01*
X136405900Y-121611100D01*
X136253500Y-121788900D01*
X135974100Y-121992100D01*
X135694700Y-122093700D01*
X135364500Y-122144500D01*
X135085100Y-122144500D01*
X134856500Y-122093700D01*
X134450100Y-121890500D01*
X134069100Y-121560300D01*
X131021100Y-118512300D01*
X130817900Y-118283700D01*
X130640100Y-117978900D01*
X130589300Y-117623300D01*
X130665500Y-117293100D01*
X130767100Y-117064500D01*
X130995700Y-116861300D01*
X131300500Y-116810500D01*
X131605300Y-116835900D01*
X131960900Y-116988300D01*
X132341900Y-117216900D01*
X132824500Y-117597900D01*
X133357900Y-118055100D01*
X135440700Y-120188700D01*
X135643900Y-120391900D01*
X135720100Y-120595100D01*
X135694700Y-120798300D01*
X135593100Y-120976100D01*
X135440700Y-121103100D01*
X135262900Y-121179300D01*
X135110500Y-121204700D01*
X134932700Y-121179300D01*
X134704100Y-121052300D01*
X132621300Y-118969500D01*
X132519700Y-118817100D01*
X132494300Y-118588500D01*
X132545100Y-118410700D01*
X132595900Y-118283700D01*
X132697500Y-118232900D01*
X132926100Y-118461500D01*
X132875300Y-118512300D01*
X132824500Y-118613900D01*
X132849900Y-118715500D01*
X134932700Y-120798300D01*
X134983500Y-120823700D01*
X135059700Y-120849100D01*
X135135900Y-120849100D01*
X135237500Y-120823700D01*
X135313700Y-120772900D01*
X135364500Y-120722100D01*
X135389900Y-120645900D01*
X135364500Y-120569700D01*
X132037100Y-117318500D01*
X131859300Y-117216900D01*
X131757700Y-117166100D01*
X131630700Y-117140700D01*
X131478300Y-117140700D01*
X131325900Y-117191500D01*
X131224300Y-117267700D01*
X131097300Y-117420100D01*
X131071900Y-117496300D01*
X131046500Y-117623300D01*
X131071900Y-117826500D01*
X131148100Y-117978900D01*
X134526300Y-121357100D01*
X134653300Y-121458700D01*
X134881900Y-121585700D01*
X135008900Y-121636500D01*
X135161300Y-121661900D01*
X135364500Y-121661900D01*
X135669300Y-121560300D01*
X135847100Y-121433300D01*
X135999500Y-121280900D01*
X136126500Y-121077700D01*
X136177300Y-120849100D01*
X136202700Y-120671300D01*
X136177300Y-120442700D01*
X136050300Y-120239500D01*
X134196100Y-118359900D01*
X133815100Y-118004300D01*
X133484900Y-117699500D01*
X132951500Y-117293100D01*
X132468900Y-116962900D01*
X132011700Y-116708900D01*
X131478300Y-116505700D01*
X130665500Y-116353300D01*
X132748300Y-114270500D01*
X132799100Y-114499100D01*
G37*
X132799100Y-114499100D02*
X132824500Y-114753100D01*
X132926100Y-115159500D01*
X133129300Y-115769100D01*
X133357900Y-116200900D01*
X133688100Y-116785100D01*
X133992900Y-117191500D01*
X134246900Y-117521700D01*
X134780300Y-118131300D01*
X135262900Y-118664700D01*
X135770900Y-119198100D01*
X136253500Y-119680700D01*
X136532900Y-120036300D01*
X136659900Y-120417300D01*
X136685300Y-120823700D01*
X136659900Y-121103100D01*
X136583700Y-121306300D01*
X136405900Y-121611100D01*
X136253500Y-121788900D01*
X135974100Y-121992100D01*
X135694700Y-122093700D01*
X135364500Y-122144500D01*
X135085100Y-122144500D01*
X134856500Y-122093700D01*
X134450100Y-121890500D01*
X134069100Y-121560300D01*
X131021100Y-118512300D01*
X130817900Y-118283700D01*
X130640100Y-117978900D01*
X130589300Y-117623300D01*
X130665500Y-117293100D01*
X130767100Y-117064500D01*
X130995700Y-116861300D01*
X131300500Y-116810500D01*
X131605300Y-116835900D01*
X131960900Y-116988300D01*
X132341900Y-117216900D01*
X132824500Y-117597900D01*
X133357900Y-118055100D01*
X135440700Y-120188700D01*
X135643900Y-120391900D01*
X135720100Y-120595100D01*
X135694700Y-120798300D01*
X135593100Y-120976100D01*
X135440700Y-121103100D01*
X135262900Y-121179300D01*
X135110500Y-121204700D01*
X134932700Y-121179300D01*
X134704100Y-121052300D01*
X132621300Y-118969500D01*
X132519700Y-118817100D01*
X132494300Y-118588500D01*
X132545100Y-118410700D01*
X132595900Y-118283700D01*
X132697500Y-118232900D01*
X132926100Y-118461500D01*
X132875300Y-118512300D01*
X132824500Y-118613900D01*
X132849900Y-118715500D01*
X134932700Y-120798300D01*
X134983500Y-120823700D01*
X135059700Y-120849100D01*
X135135900Y-120849100D01*
X135237500Y-120823700D01*
X135313700Y-120772900D01*
X135364500Y-120722100D01*
X135389900Y-120645900D01*
X135364500Y-120569700D01*
X132037100Y-117318500D01*
X131859300Y-117216900D01*
X131757700Y-117166100D01*
X131630700Y-117140700D01*
X131478300Y-117140700D01*
X131325900Y-117191500D01*
X131224300Y-117267700D01*
X131097300Y-117420100D01*
X131071900Y-117496300D01*
X131046500Y-117623300D01*
X131071900Y-117826500D01*
X131148100Y-117978900D01*
X134526300Y-121357100D01*
X134653300Y-121458700D01*
X134881900Y-121585700D01*
X135008900Y-121636500D01*
X135161300Y-121661900D01*
X135364500Y-121661900D01*
X135669300Y-121560300D01*
X135847100Y-121433300D01*
X135999500Y-121280900D01*
X136126500Y-121077700D01*
X136177300Y-120849100D01*
X136202700Y-120671300D01*
X136177300Y-120442700D01*
X136050300Y-120239500D01*
X134196100Y-118359900D01*
X133815100Y-118004300D01*
X133484900Y-117699500D01*
X132951500Y-117293100D01*
X132468900Y-116962900D01*
X132011700Y-116708900D01*
X131478300Y-116505700D01*
X130665500Y-116353300D01*
X132748300Y-114270500D01*
X132799100Y-114499100D01*
G36*
X86982050Y-155129730D02*
G01*
X87686000Y-155417781D01*
X88481050Y-154911880D01*
X89100600Y-155550000D01*
X88600600Y-156350000D01*
X88872750Y-157003331D01*
X89817600Y-157240430D01*
X89817600Y-158133180D01*
X88900600Y-158350000D01*
X88634050Y-159029710D01*
X89116350Y-159791700D01*
X88484850Y-160469600D01*
X87742150Y-160006000D01*
X87334700Y-160153571D01*
X86733565Y-158600830D01*
X87181700Y-158172230D01*
X87300600Y-157550000D01*
X87020000Y-157008480D01*
X86527135Y-156742630D01*
X86100600Y-156750000D01*
X85641720Y-157008480D01*
X85400600Y-157450000D01*
X85400600Y-157850000D01*
X85600600Y-158250000D01*
X86000600Y-158650000D01*
X85300600Y-160150000D01*
X84919600Y-160006000D01*
X84231670Y-160478010D01*
X83548345Y-159787360D01*
X84027675Y-159029440D01*
X83722495Y-158334980D01*
X82844405Y-158133180D01*
X82844405Y-157252080D01*
X83743654Y-157045930D01*
X84047475Y-156324930D01*
X83554045Y-155538730D01*
X84231670Y-154907030D01*
X84976025Y-155417781D01*
X85678880Y-155134830D01*
X85890470Y-154206030D01*
X86782670Y-154206030D01*
X86982050Y-155129730D01*
G37*
X86982050Y-155129730D02*
X87686000Y-155417781D01*
X88481050Y-154911880D01*
X89100600Y-155550000D01*
X88600600Y-156350000D01*
X88872750Y-157003331D01*
X89817600Y-157240430D01*
X89817600Y-158133180D01*
X88900600Y-158350000D01*
X88634050Y-159029710D01*
X89116350Y-159791700D01*
X88484850Y-160469600D01*
X87742150Y-160006000D01*
X87334700Y-160153571D01*
X86733565Y-158600830D01*
X87181700Y-158172230D01*
X87300600Y-157550000D01*
X87020000Y-157008480D01*
X86527135Y-156742630D01*
X86100600Y-156750000D01*
X85641720Y-157008480D01*
X85400600Y-157450000D01*
X85400600Y-157850000D01*
X85600600Y-158250000D01*
X86000600Y-158650000D01*
X85300600Y-160150000D01*
X84919600Y-160006000D01*
X84231670Y-160478010D01*
X83548345Y-159787360D01*
X84027675Y-159029440D01*
X83722495Y-158334980D01*
X82844405Y-158133180D01*
X82844405Y-157252080D01*
X83743654Y-157045930D01*
X84047475Y-156324930D01*
X83554045Y-155538730D01*
X84231670Y-154907030D01*
X84976025Y-155417781D01*
X85678880Y-155134830D01*
X85890470Y-154206030D01*
X86782670Y-154206030D01*
X86982050Y-155129730D01*
D11*
X86703371Y-118361685D02*
X86703371Y-120861685D01*
X87750990Y-119671209D02*
X87855752Y-119909304D01*
X88065276Y-120028352D01*
X86703371Y-119671209D02*
X86808133Y-119909304D01*
X87017657Y-120028352D01*
X87436704Y-120028352D01*
X87646228Y-119909304D01*
X87750990Y-119671209D01*
X87750990Y-118361685D01*
X88693847Y-117528352D02*
X89427180Y-120028352D01*
X90160514Y-117528352D01*
X91312895Y-117528352D02*
X91731942Y-117528352D01*
X91941466Y-117647400D01*
X92150990Y-117885495D01*
X92255752Y-118361685D01*
X92255752Y-119195019D01*
X92150990Y-119671209D01*
X91941466Y-119909304D01*
X91731942Y-120028352D01*
X91312895Y-120028352D01*
X91103371Y-119909304D01*
X90893847Y-119671209D01*
X90789085Y-119195019D01*
X90789085Y-118361685D01*
X90893847Y-117885495D01*
X91103371Y-117647400D01*
X91312895Y-117528352D01*
X92989085Y-117528352D02*
X94455752Y-120028352D01*
X94455752Y-117528352D02*
X92989085Y-120028352D01*
D12*
X135850163Y-116113507D02*
X135966506Y-116155853D01*
X136013277Y-116208348D01*
X136048647Y-116292167D01*
X136032130Y-116428046D01*
X135952325Y-116647307D01*
X135877637Y-116762013D01*
X135796664Y-116803487D01*
X135727092Y-116813637D01*
X135610749Y-116771292D01*
X135563978Y-116718796D01*
X135528608Y-116634977D01*
X135545125Y-116499099D01*
X135624930Y-116279837D01*
X135699618Y-116165131D01*
X135780591Y-116123658D01*
X135850163Y-116113507D01*
X136206644Y-116491564D02*
X136439330Y-116576255D01*
X136134292Y-116961846D02*
X136339504Y-116398031D01*
X136391391Y-116345971D01*
X136460963Y-116335820D01*
X136519135Y-116356993D01*
X136555673Y-116618600D02*
X136788359Y-116703291D01*
X136483321Y-117088882D02*
X136688533Y-116525067D01*
X136740420Y-116473007D01*
X136809992Y-116462856D01*
X136868164Y-116484029D01*
X136832350Y-117215918D02*
X136991959Y-116777395D01*
X137071764Y-116558133D02*
X137031277Y-116578870D01*
X137048962Y-116620780D01*
X137089449Y-116600043D01*
X137071764Y-116558133D01*
X137048962Y-116620780D01*
X137396379Y-117385736D02*
X137326807Y-117395886D01*
X137210464Y-117353541D01*
X137163693Y-117301045D01*
X137146008Y-117259135D01*
X137139724Y-117185903D01*
X137208128Y-116997964D01*
X137260015Y-116945905D01*
X137300501Y-116925168D01*
X137370073Y-116915017D01*
X137486416Y-116957363D01*
X137533187Y-117009859D01*
X137646750Y-117512336D02*
X137806359Y-117073812D01*
X137886164Y-116854551D02*
X137845677Y-116875288D01*
X137863363Y-116917197D01*
X137903849Y-116896460D01*
X137886164Y-116854551D01*
X137863363Y-116917197D01*
X138199379Y-117713476D02*
X138324786Y-117368922D01*
X138318502Y-117295690D01*
X138271731Y-117243194D01*
X138155388Y-117200849D01*
X138085816Y-117210999D01*
X138210779Y-117682153D02*
X138141207Y-117692303D01*
X137995778Y-117639372D01*
X137949008Y-117586876D01*
X137942723Y-117513643D01*
X137965525Y-117450997D01*
X138017412Y-117398937D01*
X138086984Y-117388787D01*
X138232412Y-117441719D01*
X138301985Y-117431568D01*
X138577493Y-117851099D02*
X138530722Y-117798603D01*
X138524438Y-117725370D01*
X138729650Y-117161555D01*
X138897436Y-117967548D02*
X138850665Y-117915052D01*
X138844381Y-117841820D01*
X139049593Y-117278004D01*
X139231560Y-117592543D02*
X139217379Y-118083998D01*
X139522417Y-117698406D02*
X139217379Y-118083998D01*
X139102204Y-118219441D01*
X139061718Y-118240177D01*
X138992146Y-118250328D01*
X134844035Y-117656087D02*
X134919892Y-117719170D01*
X135065321Y-117772101D01*
X135134893Y-117761951D01*
X135175379Y-117741214D01*
X135227266Y-117689154D01*
X135250068Y-117626508D01*
X135243783Y-117553276D01*
X135226098Y-117511366D01*
X135179327Y-117458870D01*
X135074385Y-117385202D01*
X135027614Y-117332706D01*
X135009929Y-117290797D01*
X135003645Y-117217564D01*
X135026446Y-117154918D01*
X135078333Y-117102858D01*
X135118820Y-117082121D01*
X135188392Y-117071971D01*
X135333820Y-117124903D01*
X135409677Y-117187985D01*
X135864816Y-117566477D02*
X135705207Y-118005001D01*
X135603044Y-117471200D02*
X135477637Y-117815754D01*
X135483921Y-117888987D01*
X135530692Y-117941483D01*
X135617949Y-117973242D01*
X135687521Y-117963091D01*
X135728008Y-117942354D01*
X136155673Y-117672341D02*
X135916259Y-118330126D01*
X136144273Y-117703664D02*
X136213845Y-117693513D01*
X136330188Y-117735859D01*
X136376958Y-117788355D01*
X136394643Y-117830264D01*
X136400928Y-117903497D01*
X136332524Y-118091435D01*
X136280637Y-118143495D01*
X136240150Y-118164232D01*
X136170578Y-118174382D01*
X136054235Y-118132037D01*
X136007464Y-118079541D01*
X136708302Y-117873481D02*
X136468888Y-118531266D01*
X136696901Y-117904804D02*
X136766473Y-117894654D01*
X136882816Y-117936999D01*
X136929587Y-117989495D01*
X136947272Y-118031404D01*
X136953556Y-118104637D01*
X136885152Y-118292575D01*
X136833265Y-118344635D01*
X136792779Y-118365372D01*
X136723207Y-118375522D01*
X136606864Y-118333177D01*
X136560093Y-118280681D01*
X137188578Y-118544904D02*
X137141808Y-118492408D01*
X137124123Y-118450499D01*
X137117838Y-118377266D01*
X137186242Y-118189328D01*
X137238129Y-118137268D01*
X137278616Y-118116531D01*
X137348188Y-118106381D01*
X137435445Y-118138140D01*
X137482216Y-118190635D01*
X137499901Y-118232545D01*
X137506185Y-118305777D01*
X137437781Y-118493716D01*
X137385894Y-118545776D01*
X137345408Y-118566512D01*
X137275836Y-118576663D01*
X137188578Y-118544904D01*
X137653950Y-118714285D02*
X137813559Y-118275762D01*
X137767957Y-118401054D02*
X137819844Y-118348995D01*
X137860330Y-118328258D01*
X137929902Y-118318107D01*
X137988074Y-118339280D01*
X138104417Y-118381625D02*
X138337102Y-118466316D01*
X138271479Y-118194123D02*
X138066266Y-118757938D01*
X138072551Y-118831171D01*
X138119322Y-118883667D01*
X138177493Y-118904839D01*
X138625180Y-119032311D02*
X138555607Y-119042462D01*
X138439265Y-119000116D01*
X138392494Y-118947621D01*
X138386209Y-118874388D01*
X138477415Y-118623803D01*
X138529302Y-118571744D01*
X138598874Y-118561593D01*
X138715217Y-118603939D01*
X138761988Y-118656434D01*
X138768272Y-118729667D01*
X138745471Y-118792313D01*
X138431812Y-118749096D01*
X139166408Y-119264775D02*
X139405822Y-118606990D01*
X139177808Y-119233452D02*
X139108236Y-119243602D01*
X138991893Y-119201257D01*
X138945123Y-119148761D01*
X138927438Y-119106852D01*
X138921153Y-119033619D01*
X138989557Y-118845681D01*
X139041444Y-118793621D01*
X139081931Y-118772884D01*
X139151503Y-118762734D01*
X139267846Y-118805079D01*
X139314616Y-118857575D01*
D13*
X101859100Y-114146800D03*
X101859100Y-116046800D03*
X95709100Y-114129900D03*
X95709100Y-116029900D03*
D14*
X119260100Y-157789300D03*
D15*
X119260100Y-148789300D03*
D16*
X119260100Y-154789300D03*
D17*
X114760100Y-155789300D03*
X123760100Y-155789300D03*
D18*
X126314200Y-153068100D03*
X127584200Y-153068100D03*
X128854200Y-153068100D03*
X130124200Y-153068100D03*
X130124200Y-147918100D03*
X128854200Y-147918100D03*
X127584200Y-147918100D03*
X126314200Y-147918100D03*
D19*
X99927600Y-116029300D03*
X99927600Y-115079300D03*
X99927600Y-114129300D03*
X97652600Y-114129300D03*
X97652600Y-116029300D03*
D20*
X110187600Y-128004300D03*
D21*
X112727600Y-128004300D03*
X110187600Y-130544300D03*
X112727600Y-130544300D03*
X110187600Y-133084300D03*
X112727600Y-133084300D03*
X110187600Y-135624300D03*
X112727600Y-135624300D03*
X110187600Y-138164300D03*
X112727600Y-138164300D03*
X110187600Y-140704300D03*
X112727600Y-140704300D03*
D22*
X140960100Y-128694300D03*
X140960100Y-127144300D03*
D23*
X104763400Y-150647700D03*
X103813400Y-150647700D03*
X102863400Y-150647700D03*
X102863400Y-152922700D03*
X104763400Y-152922700D03*
D24*
X100902600Y-119829300D03*
X96777600Y-119829300D03*
D25*
X132887500Y-157200000D03*
X132887500Y-159100000D03*
X134762500Y-158150000D03*
D26*
X128450000Y-154825000D03*
X128450000Y-156925000D03*
D27*
X152140100Y-127229300D03*
X150240100Y-127229300D03*
D28*
X95199200Y-152031200D03*
X95199200Y-150381200D03*
D29*
X135760480Y-142894790D03*
X135760480Y-136394790D03*
D22*
X148400100Y-126734300D03*
X148400100Y-125184300D03*
D30*
X85215900Y-148675000D03*
X83565900Y-148675000D03*
D31*
X133275000Y-147800000D03*
X134825000Y-147800000D03*
D32*
X78770100Y-155779300D03*
D27*
X152140100Y-141679300D03*
X150240100Y-141679300D03*
D33*
X154840100Y-157629300D03*
X154840100Y-152629300D03*
D30*
X131150000Y-160350000D03*
X129500000Y-160350000D03*
D34*
X108184200Y-151206200D03*
X110284200Y-151206200D03*
D35*
X147215100Y-152049300D03*
X145665100Y-152049300D03*
D36*
X107884200Y-152956200D03*
X109534200Y-152956200D03*
D27*
X152140100Y-143679300D03*
X150240100Y-143679300D03*
D37*
X126915100Y-125804300D03*
X126915100Y-132304300D03*
D30*
X85225000Y-151725000D03*
X83575000Y-151725000D03*
D35*
X88225000Y-146175000D03*
X86675000Y-146175000D03*
X147210100Y-158289300D03*
X145660100Y-158289300D03*
X147260100Y-117219300D03*
X145710100Y-117219300D03*
D38*
X144140100Y-153979300D03*
X147090100Y-153979300D03*
D27*
X146540100Y-123189300D03*
X144640100Y-123189300D03*
D30*
X109534200Y-149456200D03*
X107884200Y-149456200D03*
D22*
X155905200Y-141719600D03*
X155905200Y-140169600D03*
D38*
X144135100Y-156339300D03*
X147085100Y-156339300D03*
D30*
X89740100Y-122779300D03*
X88090100Y-122779300D03*
X85225000Y-153275000D03*
X83575000Y-153275000D03*
D35*
X85200000Y-146175000D03*
X83650000Y-146175000D03*
D13*
X117365100Y-111079300D03*
X117365100Y-112979300D03*
D39*
X117270100Y-151954300D03*
D40*
X121230100Y-151954300D03*
D38*
X144185100Y-115279300D03*
X147135100Y-115279300D03*
D22*
X118015100Y-130279300D03*
X118015100Y-128729300D03*
D35*
X157775100Y-133939300D03*
X156225100Y-133939300D03*
D41*
X101299400Y-150381200D03*
X101299400Y-152031200D03*
D27*
X146540100Y-127229300D03*
X144640100Y-127229300D03*
D28*
X115265100Y-114604300D03*
X115265100Y-112954300D03*
D32*
X78770100Y-112759300D03*
D38*
X144185100Y-112904300D03*
X147135100Y-112904300D03*
D42*
X88290100Y-110979300D03*
D43*
X90830100Y-110979300D03*
X93370100Y-110979300D03*
X95910100Y-110979300D03*
X98450100Y-110979300D03*
X100990100Y-110979300D03*
D28*
X115265100Y-117654300D03*
X115265100Y-116004300D03*
D44*
X151671350Y-129973050D03*
X151171350Y-129973050D03*
X150671350Y-129973050D03*
X150171350Y-129973050D03*
X149671350Y-129973050D03*
X149171350Y-129973050D03*
X148671350Y-129973050D03*
X148171350Y-129973050D03*
X147671350Y-129973050D03*
X147171350Y-129973050D03*
X146671350Y-129973050D03*
X146171350Y-129973050D03*
X145671350Y-129973050D03*
X145171350Y-129973050D03*
X144671350Y-129973050D03*
X144171350Y-129973050D03*
D45*
X143483850Y-130660550D03*
X143483850Y-131160550D03*
X143483850Y-131660550D03*
X143483850Y-132160550D03*
X143483850Y-132660550D03*
X143483850Y-133160550D03*
X143483850Y-133660550D03*
X143483850Y-134160550D03*
X143483850Y-134660550D03*
X143483850Y-135160550D03*
X143483850Y-135660550D03*
X143483850Y-136160550D03*
X143483850Y-136660550D03*
X143483850Y-137160550D03*
X143483850Y-137660550D03*
X143483850Y-138160550D03*
D44*
X144171350Y-138848050D03*
X144671350Y-138848050D03*
X145171350Y-138848050D03*
X145671350Y-138848050D03*
X146171350Y-138848050D03*
X146671350Y-138848050D03*
X147171350Y-138848050D03*
X147671350Y-138848050D03*
X148171350Y-138848050D03*
X148671350Y-138848050D03*
X149171350Y-138848050D03*
X149671350Y-138848050D03*
X150171350Y-138848050D03*
X150671350Y-138848050D03*
X151171350Y-138848050D03*
X151671350Y-138848050D03*
D45*
X152358850Y-138160550D03*
X152358850Y-137660550D03*
X152358850Y-137160550D03*
X152358850Y-136660550D03*
X152358850Y-136160550D03*
X152358850Y-135660550D03*
X152358850Y-135160550D03*
X152358850Y-134660550D03*
X152358850Y-134160550D03*
X152358850Y-133660550D03*
X152358850Y-133160550D03*
X152358850Y-132660550D03*
X152358850Y-132160550D03*
X152358850Y-131660550D03*
X152358850Y-131160550D03*
X152358850Y-130660550D03*
D46*
X147921350Y-134410550D03*
D47*
X108968100Y-109593300D03*
X108968100Y-117893300D03*
D41*
X131100000Y-154925000D03*
X131100000Y-156575000D03*
D48*
X131750000Y-149275000D03*
X131750000Y-147875000D03*
D36*
X132575000Y-155650000D03*
X134225000Y-155650000D03*
X80575000Y-146175000D03*
X82225000Y-146175000D03*
D22*
X140960100Y-131734300D03*
X140960100Y-130184300D03*
D30*
X85215000Y-150198300D03*
X83565000Y-150198300D03*
D49*
X157930100Y-129219300D03*
X157930100Y-127319300D03*
D41*
X106324400Y-150381200D03*
X106324400Y-152031200D03*
D50*
X117422600Y-114856800D03*
X117422600Y-116126800D03*
X117422600Y-117396800D03*
X117422600Y-118666800D03*
X122822600Y-118666800D03*
X122822600Y-117396800D03*
X122822600Y-116126800D03*
X122822600Y-114856800D03*
D51*
X120122600Y-116761800D03*
D30*
X92765100Y-122779300D03*
X91115100Y-122779300D03*
D52*
X103120400Y-158362800D03*
X106120400Y-158362800D03*
D53*
X109120400Y-158362800D03*
D54*
X99820400Y-158362800D03*
X112320400Y-158362800D03*
D27*
X146540100Y-143629300D03*
X144640100Y-143629300D03*
D30*
X128100000Y-158825000D03*
X126450000Y-158825000D03*
D27*
X146540100Y-141579300D03*
X144640100Y-141579300D03*
D28*
X96723200Y-152031200D03*
X96723200Y-150381200D03*
D35*
X147260100Y-110959300D03*
X145710100Y-110959300D03*
D25*
X132000000Y-150675000D03*
X132000000Y-152575000D03*
X133875000Y-151625000D03*
D41*
X135650000Y-150075000D03*
X135650000Y-151725000D03*
D30*
X131150000Y-158825000D03*
X129500000Y-158825000D03*
D36*
X140825000Y-124450000D03*
X142475000Y-124450000D03*
D29*
X126890100Y-142904300D03*
X126890100Y-136404300D03*
D55*
X132879000Y-146002200D03*
X134779000Y-146002200D03*
D37*
X135760480Y-125837290D03*
X135760480Y-132337290D03*
D28*
X98247200Y-152019000D03*
X98247200Y-150369000D03*
D55*
X88422400Y-153619200D03*
X90322400Y-153619200D03*
D22*
X155940100Y-138689300D03*
X155940100Y-137139300D03*
D28*
X99771200Y-152019000D03*
X99771200Y-150369000D03*
D13*
X157680100Y-137149300D03*
X157680100Y-139049300D03*
D22*
X154600100Y-129224300D03*
X154600100Y-127674300D03*
D28*
X111725000Y-152025000D03*
X111725000Y-150375000D03*
D56*
X87150000Y-148150000D03*
X87150000Y-149750000D03*
X87150000Y-151350000D03*
X92050000Y-151350000D03*
X92050000Y-149750000D03*
X92050000Y-148150000D03*
D57*
X93496000Y-155988000D03*
X94496000Y-155988000D03*
X95496000Y-155988000D03*
X96496000Y-155988000D03*
D58*
X92196000Y-159863000D03*
X97796000Y-159863000D03*
D13*
X127742600Y-116827800D03*
X127742600Y-118727800D03*
D32*
X139000000Y-112759300D03*
D27*
X146540100Y-125229300D03*
X144640100Y-125229300D03*
D36*
X132575000Y-154125000D03*
X134225000Y-154125000D03*
D22*
X156140100Y-129239300D03*
X156140100Y-127689300D03*
D59*
X148430100Y-142114300D03*
X148430100Y-143664300D03*
D31*
X156280100Y-130729300D03*
X157830100Y-130729300D03*
D34*
X104065100Y-120579300D03*
X106165100Y-120579300D03*
D60*
X119840100Y-136579300D03*
X119840100Y-132179300D03*
D59*
X117965100Y-138504300D03*
X117965100Y-140054300D03*
D61*
X81230100Y-143410550D03*
X82500100Y-143410550D03*
X83770100Y-143410550D03*
X85040100Y-143410550D03*
X86310100Y-143410550D03*
X87580100Y-143410550D03*
X88850100Y-143410550D03*
X90120100Y-143410550D03*
X91390100Y-143410550D03*
X92660100Y-143410550D03*
X93930100Y-143410550D03*
X95200100Y-143410550D03*
X96470100Y-143410550D03*
X97740100Y-143410550D03*
X99040100Y-143410550D03*
X100310100Y-143410550D03*
X101580100Y-143410550D03*
X102850100Y-143410550D03*
X104120100Y-143410550D03*
X104120100Y-125410550D03*
X102850100Y-125410550D03*
X101580100Y-125410550D03*
X100310100Y-125410550D03*
X99040100Y-125410550D03*
X97740100Y-125380550D03*
X96470100Y-125380550D03*
X95200100Y-125380550D03*
X93930100Y-125380550D03*
X92660100Y-125380550D03*
X91390100Y-125380550D03*
X90120100Y-125380550D03*
X88850100Y-125380550D03*
X87580100Y-125380550D03*
X86310100Y-125380550D03*
X85040100Y-125380550D03*
X83770100Y-125380550D03*
X82500100Y-125380550D03*
X81230100Y-125380550D03*
D62*
X87140100Y-134810550D03*
X86140100Y-132810550D03*
X86140100Y-135810550D03*
X89140100Y-133810550D03*
X87140100Y-133810550D03*
X88140100Y-135810550D03*
X89140100Y-136810550D03*
X87140100Y-132810550D03*
X86140100Y-134810550D03*
X90140100Y-136810550D03*
X89140100Y-134810550D03*
X86140100Y-133810550D03*
X88140100Y-133810550D03*
D63*
X88150100Y-134810550D03*
D62*
X89140100Y-132810550D03*
X90140100Y-133810550D03*
X88140100Y-134810550D03*
X90140100Y-132810550D03*
X88140100Y-136810550D03*
X89140100Y-135810550D03*
X87140100Y-135810550D03*
X86140100Y-136810550D03*
X87140100Y-136810550D03*
X90140100Y-134810550D03*
X90140100Y-135810550D03*
X88140100Y-132810550D03*
D13*
X125456600Y-116827800D03*
X125456600Y-118727800D03*
D31*
X156215100Y-135459300D03*
X157765100Y-135459300D03*
D26*
X126450000Y-154825000D03*
X126450000Y-156925000D03*
D27*
X146540100Y-145639300D03*
X144640100Y-145639300D03*
D33*
X154890100Y-111829300D03*
X154890100Y-116829300D03*
D64*
X123515100Y-112029300D03*
X120715100Y-112029300D03*
D27*
X152140100Y-125229300D03*
X150240100Y-125229300D03*
D31*
X156240100Y-132419300D03*
X157790100Y-132419300D03*
D32*
X139000000Y-155779300D03*
M02*
