G04 #@! TF.GenerationSoftware,KiCad,Pcbnew,(6.0.4-0)*
G04 #@! TF.CreationDate,2022-05-26T08:39:45+01:00*
G04 #@! TF.ProjectId,muVox,6d75566f-782e-46b6-9963-61645f706362,rev?*
G04 #@! TF.SameCoordinates,Original*
G04 #@! TF.FileFunction,Paste,Top*
G04 #@! TF.FilePolarity,Positive*
%FSLAX46Y46*%
G04 Gerber Fmt 4.6, Leading zero omitted, Abs format (unit mm)*
G04 Created by KiCad (PCBNEW (6.0.4-0)) date 2022-05-26 08:39:45*
%MOMM*%
%LPD*%
G01*
G04 APERTURE LIST*
G04 Aperture macros list*
%AMRoundRect*
0 Rectangle with rounded corners*
0 $1 Rounding radius*
0 $2 $3 $4 $5 $6 $7 $8 $9 X,Y pos of 4 corners*
0 Add a 4 corners polygon primitive as box body*
4,1,4,$2,$3,$4,$5,$6,$7,$8,$9,$2,$3,0*
0 Add four circle primitives for the rounded corners*
1,1,$1+$1,$2,$3*
1,1,$1+$1,$4,$5*
1,1,$1+$1,$6,$7*
1,1,$1+$1,$8,$9*
0 Add four rect primitives between the rounded corners*
20,1,$1+$1,$2,$3,$4,$5,0*
20,1,$1+$1,$4,$5,$6,$7,0*
20,1,$1+$1,$6,$7,$8,$9,0*
20,1,$1+$1,$8,$9,$2,$3,0*%
G04 Aperture macros list end*
%ADD10RoundRect,0.250000X-0.475000X0.250000X-0.475000X-0.250000X0.475000X-0.250000X0.475000X0.250000X0*%
%ADD11RoundRect,0.225000X-0.225000X-0.250000X0.225000X-0.250000X0.225000X0.250000X-0.225000X0.250000X0*%
%ADD12RoundRect,0.225000X-0.250000X0.225000X-0.250000X-0.225000X0.250000X-0.225000X0.250000X0.225000X0*%
%ADD13RoundRect,0.250000X0.475000X-0.250000X0.475000X0.250000X-0.475000X0.250000X-0.475000X-0.250000X0*%
%ADD14RoundRect,0.218750X-0.218750X-0.256250X0.218750X-0.256250X0.218750X0.256250X-0.218750X0.256250X0*%
%ADD15R,1.498600X2.489200*%
%ADD16RoundRect,0.150000X0.150000X-0.725000X0.150000X0.725000X-0.150000X0.725000X-0.150000X-0.725000X0*%
%ADD17R,1.000000X0.700000*%
%ADD18RoundRect,0.200000X-0.200000X-0.275000X0.200000X-0.275000X0.200000X0.275000X-0.200000X0.275000X0*%
%ADD19RoundRect,0.200000X0.200000X0.275000X-0.200000X0.275000X-0.200000X-0.275000X0.200000X-0.275000X0*%
%ADD20RoundRect,0.200000X0.275000X-0.200000X0.275000X0.200000X-0.275000X0.200000X-0.275000X-0.200000X0*%
%ADD21R,1.450000X0.700000*%
%ADD22RoundRect,0.150000X0.512500X0.150000X-0.512500X0.150000X-0.512500X-0.150000X0.512500X-0.150000X0*%
%ADD23RoundRect,0.225000X0.225000X0.250000X-0.225000X0.250000X-0.225000X-0.250000X0.225000X-0.250000X0*%
%ADD24RoundRect,0.250000X-0.550000X1.050000X-0.550000X-1.050000X0.550000X-1.050000X0.550000X1.050000X0*%
%ADD25RoundRect,0.250000X1.000000X-1.500000X1.000000X1.500000X-1.000000X1.500000X-1.000000X-1.500000X0*%
%ADD26R,0.900000X1.200000*%
%ADD27R,3.600000X2.700000*%
%ADD28RoundRect,0.150000X-0.512500X-0.150000X0.512500X-0.150000X0.512500X0.150000X-0.512500X0.150000X0*%
%ADD29RoundRect,0.250000X0.250000X0.475000X-0.250000X0.475000X-0.250000X-0.475000X0.250000X-0.475000X0*%
%ADD30RoundRect,0.225000X0.250000X-0.225000X0.250000X0.225000X-0.250000X0.225000X-0.250000X-0.225000X0*%
%ADD31R,1.000000X1.000000*%
%ADD32RoundRect,0.200000X-0.275000X0.200000X-0.275000X-0.200000X0.275000X-0.200000X0.275000X0.200000X0*%
%ADD33RoundRect,0.250000X1.500000X1.000000X-1.500000X1.000000X-1.500000X-1.000000X1.500000X-1.000000X0*%
%ADD34RoundRect,0.250000X-0.325000X-0.650000X0.325000X-0.650000X0.325000X0.650000X-0.325000X0.650000X0*%
%ADD35RoundRect,0.250000X-0.277694X0.277694X-0.277694X-0.277694X0.277694X-0.277694X0.277694X0.277694X0*%
%ADD36RoundRect,0.075000X-0.075000X0.362500X-0.075000X-0.362500X0.075000X-0.362500X0.075000X0.362500X0*%
%ADD37RoundRect,0.075000X-0.362500X0.075000X-0.362500X-0.075000X0.362500X-0.075000X0.362500X0.075000X0*%
%ADD38RoundRect,0.125000X-0.125000X-0.375000X0.125000X-0.375000X0.125000X0.375000X-0.125000X0.375000X0*%
%ADD39RoundRect,0.250000X-0.350000X-0.600000X0.350000X-0.600000X0.350000X0.600000X-0.350000X0.600000X0*%
%ADD40RoundRect,0.218750X0.218750X0.256250X-0.218750X0.256250X-0.218750X-0.256250X0.218750X-0.256250X0*%
%ADD41R,1.500000X1.000000*%
%ADD42R,2.300000X2.500000*%
%ADD43RoundRect,0.250000X-1.000000X1.500000X-1.000000X-1.500000X1.000000X-1.500000X1.000000X1.500000X0*%
%ADD44R,0.600000X0.450000*%
%ADD45R,3.500000X1.800000*%
%ADD46O,0.900000X3.000000*%
%ADD47R,5.000000X5.000000*%
G04 APERTURE END LIST*
D10*
X140719000Y-67967500D03*
X140719000Y-69867500D03*
X134569000Y-67950600D03*
X134569000Y-69850600D03*
D11*
X158153380Y-111700000D03*
X159703380Y-111700000D03*
D12*
X154678380Y-101956510D03*
X154678380Y-103506510D03*
X173392395Y-100350000D03*
X173392395Y-101900000D03*
D13*
X173642395Y-105300000D03*
X173642395Y-103400000D03*
D14*
X169899100Y-67614600D03*
X171474100Y-67614600D03*
D15*
X157400000Y-109310010D03*
X157400000Y-102807610D03*
X160400000Y-109310010D03*
X160400000Y-102807610D03*
D16*
X167848620Y-108583010D03*
X169118620Y-108583010D03*
X170388620Y-108583010D03*
X171658620Y-108583010D03*
X171658620Y-103433010D03*
X170388620Y-103433010D03*
X169118620Y-103433010D03*
X167848620Y-103433010D03*
D17*
X167750000Y-64150000D03*
X167750000Y-66050000D03*
X170150000Y-65100000D03*
D18*
X170475000Y-110514010D03*
X172125000Y-110514010D03*
D19*
X169150000Y-110500000D03*
X167500000Y-110500000D03*
X168223600Y-67665400D03*
X166573600Y-67665400D03*
D20*
X166216200Y-66026600D03*
X166216200Y-64376600D03*
X171804200Y-66026600D03*
X171804200Y-64376600D03*
D21*
X131258000Y-68988000D03*
X131258000Y-72688000D03*
X125258000Y-68988000D03*
X125258000Y-72688000D03*
D22*
X138787500Y-69850000D03*
X138787500Y-68900000D03*
X138787500Y-67950000D03*
X136512500Y-67950000D03*
X136512500Y-69850000D03*
D23*
X148684620Y-75782010D03*
X147134620Y-75782010D03*
D12*
X141400000Y-72225000D03*
X141400000Y-73775000D03*
D24*
X155529620Y-66822610D03*
X155529620Y-70422610D03*
D25*
X154615220Y-82891610D03*
X154615220Y-76391610D03*
D26*
X153879620Y-73165810D03*
X157179620Y-73165810D03*
D27*
X147655620Y-72906010D03*
X147655620Y-64606010D03*
D19*
X144518220Y-76823410D03*
X142868220Y-76823410D03*
D18*
X142868220Y-75299410D03*
X144518220Y-75299410D03*
D28*
X146772120Y-77880010D03*
X146772120Y-78830010D03*
X146772120Y-79780010D03*
X149047120Y-79780010D03*
X149047120Y-78830010D03*
X149047120Y-77880010D03*
D29*
X169500000Y-112263990D03*
X167600000Y-112263990D03*
D30*
X179820000Y-82515000D03*
X179820000Y-80965000D03*
D29*
X191000000Y-81050000D03*
X189100000Y-81050000D03*
D30*
X113647600Y-106260800D03*
X113647600Y-104710800D03*
D25*
X174620380Y-96715490D03*
X174620380Y-90215490D03*
D30*
X187260000Y-80555000D03*
X187260000Y-79005000D03*
D29*
X191000000Y-95500000D03*
X189100000Y-95500000D03*
D31*
X149500000Y-89925000D03*
X149500000Y-92425000D03*
D20*
X131950000Y-102175000D03*
X131950000Y-100525000D03*
D23*
X187775000Y-105650000D03*
X186225000Y-105650000D03*
D32*
X151300000Y-91850000D03*
X151300000Y-93500000D03*
D29*
X191000000Y-97500000D03*
X189100000Y-97500000D03*
D33*
X168200000Y-83650000D03*
X161700000Y-83650000D03*
D19*
X172625000Y-112000000D03*
X170975000Y-112000000D03*
D23*
X125422600Y-103110800D03*
X123872600Y-103110800D03*
X187770000Y-111890000D03*
X186220000Y-111890000D03*
D30*
X128850000Y-102175000D03*
X128850000Y-100625000D03*
D23*
X187975000Y-71290000D03*
X186425000Y-71290000D03*
D34*
X184700000Y-107580000D03*
X187650000Y-107580000D03*
D29*
X185400000Y-77010000D03*
X183500000Y-77010000D03*
D32*
X151300000Y-88800000D03*
X151300000Y-90450000D03*
X130400000Y-100550000D03*
X130400000Y-102200000D03*
D23*
X196395000Y-94430000D03*
X194845000Y-94430000D03*
D34*
X184695000Y-109940000D03*
X187645000Y-109940000D03*
D18*
X134200000Y-72900000D03*
X135850000Y-72900000D03*
D30*
X122050000Y-101675000D03*
X122050000Y-100125000D03*
D34*
X184900000Y-69350000D03*
X187850000Y-69350000D03*
D11*
X156950000Y-91600000D03*
X158500000Y-91600000D03*
D23*
X196635000Y-87760000D03*
X195085000Y-87760000D03*
D29*
X185400000Y-81050000D03*
X183500000Y-81050000D03*
D34*
X184900000Y-66975000D03*
X187850000Y-66975000D03*
D35*
X188637500Y-86375000D03*
X188637500Y-90087500D03*
X184925000Y-86375000D03*
X188637500Y-87612500D03*
X184925000Y-88850000D03*
X184925000Y-87612500D03*
X188637500Y-88850000D03*
X186162500Y-88850000D03*
X187400000Y-88850000D03*
X186162500Y-87612500D03*
X186162500Y-90087500D03*
X187400000Y-86375000D03*
X187400000Y-87612500D03*
X186162500Y-86375000D03*
X184925000Y-90087500D03*
X187400000Y-90087500D03*
D36*
X190531250Y-83793750D03*
X190031250Y-83793750D03*
X189531250Y-83793750D03*
X189031250Y-83793750D03*
X188531250Y-83793750D03*
X188031250Y-83793750D03*
X187531250Y-83793750D03*
X187031250Y-83793750D03*
X186531250Y-83793750D03*
X186031250Y-83793750D03*
X185531250Y-83793750D03*
X185031250Y-83793750D03*
X184531250Y-83793750D03*
X184031250Y-83793750D03*
X183531250Y-83793750D03*
X183031250Y-83793750D03*
D37*
X182343750Y-84481250D03*
X182343750Y-84981250D03*
X182343750Y-85481250D03*
X182343750Y-85981250D03*
X182343750Y-86481250D03*
X182343750Y-86981250D03*
X182343750Y-87481250D03*
X182343750Y-87981250D03*
X182343750Y-88481250D03*
X182343750Y-88981250D03*
X182343750Y-89481250D03*
X182343750Y-89981250D03*
X182343750Y-90481250D03*
X182343750Y-90981250D03*
X182343750Y-91481250D03*
X182343750Y-91981250D03*
D36*
X183031250Y-92668750D03*
X183531250Y-92668750D03*
X184031250Y-92668750D03*
X184531250Y-92668750D03*
X185031250Y-92668750D03*
X185531250Y-92668750D03*
X186031250Y-92668750D03*
X186531250Y-92668750D03*
X187031250Y-92668750D03*
X187531250Y-92668750D03*
X188031250Y-92668750D03*
X188531250Y-92668750D03*
X189031250Y-92668750D03*
X189531250Y-92668750D03*
X190031250Y-92668750D03*
X190531250Y-92668750D03*
D37*
X191218750Y-91981250D03*
X191218750Y-91481250D03*
X191218750Y-90981250D03*
X191218750Y-90481250D03*
X191218750Y-89981250D03*
X191218750Y-89481250D03*
X191218750Y-88981250D03*
X191218750Y-88481250D03*
X191218750Y-87981250D03*
X191218750Y-87481250D03*
X191218750Y-86981250D03*
X191218750Y-86481250D03*
X191218750Y-85981250D03*
X191218750Y-85481250D03*
X191218750Y-84981250D03*
X191218750Y-84481250D03*
D38*
X131400000Y-110650000D03*
X132200000Y-110650000D03*
X133000000Y-110650000D03*
X133800000Y-110650000D03*
X134600000Y-110650000D03*
X135400000Y-110650000D03*
X136200000Y-110650000D03*
X137000000Y-110650000D03*
X137800000Y-110650000D03*
X138600000Y-110650000D03*
D39*
X139900000Y-112600000D03*
X130100000Y-112600000D03*
D40*
X138800000Y-71400000D03*
X137225000Y-71400000D03*
D32*
X120550000Y-100050000D03*
X120550000Y-101700000D03*
D30*
X179820000Y-85555000D03*
X179820000Y-84005000D03*
D41*
X115475200Y-105050000D03*
X115475200Y-108250000D03*
X120375200Y-108250000D03*
X120375200Y-105050000D03*
D13*
X196790000Y-83040000D03*
X196790000Y-81140000D03*
D20*
X133500000Y-102175000D03*
X133500000Y-100525000D03*
D23*
X148625000Y-81300000D03*
X147075000Y-81300000D03*
D29*
X185400000Y-97450000D03*
X183500000Y-97450000D03*
D42*
X164700000Y-108100000D03*
X164700000Y-103800000D03*
D29*
X185400000Y-95400000D03*
X183500000Y-95400000D03*
D23*
X187975000Y-65030000D03*
X186425000Y-65030000D03*
D18*
X134225000Y-71400000D03*
X135875000Y-71400000D03*
X179665000Y-78160000D03*
X181315000Y-78160000D03*
D33*
X168200000Y-92500000D03*
X161700000Y-92500000D03*
D43*
X174620380Y-79657990D03*
X174620380Y-86157990D03*
D10*
X131350000Y-104800000D03*
X131350000Y-106700000D03*
D30*
X194800000Y-92510000D03*
X194800000Y-90960000D03*
D10*
X196540000Y-90970000D03*
X196540000Y-92870000D03*
D30*
X193460000Y-83045000D03*
X193460000Y-81495000D03*
D29*
X185400000Y-79050000D03*
X183500000Y-79050000D03*
D30*
X195000000Y-83060000D03*
X195000000Y-81510000D03*
D12*
X187290000Y-95935000D03*
X187290000Y-97485000D03*
D11*
X195140000Y-84550000D03*
X196690000Y-84550000D03*
D41*
X124200000Y-105050000D03*
X124200000Y-108250000D03*
X129100000Y-108250000D03*
X129100000Y-105050000D03*
D44*
X157950000Y-64000000D03*
X155850000Y-64000000D03*
D45*
X154050000Y-88200000D03*
X158450000Y-88200000D03*
D11*
X157250000Y-84850000D03*
X158800000Y-84850000D03*
D46*
X120090000Y-97231250D03*
X121360000Y-97231250D03*
X122630000Y-97231250D03*
X123900000Y-97231250D03*
X125170000Y-97231250D03*
X126440000Y-97231250D03*
X127710000Y-97231250D03*
X128980000Y-97231250D03*
X130250000Y-97231250D03*
X131520000Y-97231250D03*
X132790000Y-97231250D03*
X134060000Y-97231250D03*
X135330000Y-97231250D03*
X136600000Y-97231250D03*
X137900000Y-97231250D03*
X139170000Y-97231250D03*
X140440000Y-97231250D03*
X141710000Y-97231250D03*
X142980000Y-97231250D03*
X142980000Y-79231250D03*
X141710000Y-79231250D03*
X140440000Y-79231250D03*
X139170000Y-79231250D03*
X137900000Y-79231250D03*
X136600000Y-79201250D03*
X135330000Y-79201250D03*
X134060000Y-79201250D03*
X132790000Y-79201250D03*
X131520000Y-79201250D03*
X130250000Y-79201250D03*
X128980000Y-79201250D03*
X127710000Y-79201250D03*
X126440000Y-79201250D03*
X125170000Y-79201250D03*
X123900000Y-79201250D03*
X122630000Y-79201250D03*
X121360000Y-79201250D03*
X120090000Y-79201250D03*
D47*
X127010000Y-88631250D03*
D11*
X195075000Y-89280000D03*
X196625000Y-89280000D03*
D29*
X185400000Y-99460000D03*
X183500000Y-99460000D03*
X191000000Y-79050000D03*
X189100000Y-79050000D03*
D11*
X195100000Y-86240000D03*
X196650000Y-86240000D03*
M02*
