M48
; DRILL file {KiCad (6.0.1-0)} date Tuesday, 08 March 2022 at 21:58:28
; FORMAT={-:-/ absolute / inch / decimal}
; #@! TF.CreationDate,2022-03-08T21:58:28+01:00
; #@! TF.GenerationSoftware,Kicad,Pcbnew,(6.0.1-0)
; #@! TF.FileFunction,Plated,1,2,PTH
FMAT,2
INCH
; #@! TA.AperFunction,Plated,PTH,ComponentDrill
T1C0.0118
; #@! TA.AperFunction,Plated,PTH,ViaDrill
T2C0.0157
; #@! TA.AperFunction,Plated,PTH,ComponentDrill
T3C0.0276
; #@! TA.AperFunction,Plated,PTH,ComponentDrill
T4C0.0315
; #@! TA.AperFunction,Plated,PTH,ComponentDrill
T5C0.0394
; #@! TA.AperFunction,Plated,PTH,ComponentDrill
T6C0.0512
; #@! TA.AperFunction,Plated,PTH,ComponentDrill
T7C0.0669
; #@! TA.AperFunction,Plated,PTH,ComponentDrill
T8C0.1260
%
G90
G05
T1
X5.3847Y-3.5205
X5.3852Y-3.4265
X5.3852Y-3.4715
X5.3852Y-3.5625
X5.3857Y-3.38
X5.4302Y-3.5201
X5.4307Y-3.4261
X5.4307Y-3.4711
X5.4307Y-3.5621
X5.4312Y-3.3795
X5.4762Y-3.5201
X5.4767Y-3.4261
X5.4767Y-3.4711
X5.4767Y-3.5621
X5.4772Y-3.3795
X5.5212Y-3.5201
X5.5217Y-3.4261
X5.5217Y-3.4711
X5.5217Y-3.5621
X5.5222Y-3.3795
X5.5682Y-3.5201
X5.5687Y-3.4261
X5.5687Y-3.4711
X5.5687Y-3.5621
X5.5692Y-3.3795
X7.2567Y-3.3761
X7.2572Y-3.4235
X7.2572Y-3.4735
X7.2572Y-3.5235
X7.2572Y-3.5715
X7.3047Y-3.3761
X7.3052Y-3.4235
X7.3052Y-3.4735
X7.3052Y-3.5235
X7.3052Y-3.5715
X7.3527Y-3.3761
X7.3532Y-3.4235
X7.3532Y-3.4735
X7.3532Y-3.5235
X7.3532Y-3.5715
X7.4007Y-3.3761
X7.4012Y-3.4235
X7.4012Y-3.4735
X7.4012Y-3.5235
X7.4012Y-3.5715
X7.4507Y-3.3761
X7.4512Y-3.4235
X7.4512Y-3.4735
X7.4512Y-3.5235
X7.4512Y-3.5715
T2
X4.458Y-3.672
X4.459Y-2.689
X4.496Y-3.672
X4.497Y-2.689
X4.536Y-3.672
X4.537Y-2.689
X4.574Y-3.672
X4.575Y-2.689
X4.612Y-3.672
X4.613Y-2.689
X4.65Y-3.672
X4.651Y-2.689
X4.69Y-3.673
X4.691Y-2.69
X4.72Y-2.712
X4.72Y-2.75
X4.72Y-2.79
X4.72Y-2.828
X4.72Y-2.865
X4.72Y-2.903
X4.72Y-2.941
X4.72Y-2.979
X4.72Y-3.019
X4.72Y-3.057
X4.72Y-3.095
X4.72Y-3.133
X4.72Y-3.171
X4.72Y-3.209
X4.72Y-3.249
X4.72Y-3.287
X4.721Y-3.324
X4.721Y-3.449
X4.721Y-3.487
X4.721Y-3.525
X4.721Y-3.564
X4.721Y-3.602
X4.721Y-3.642
X4.761Y-3.324
X4.761Y-3.441
X4.799Y-3.324
X4.799Y-3.441
X4.838Y-3.324
X4.838Y-3.441
X4.876Y-3.324
X4.876Y-3.441
X4.914Y-3.324
X4.914Y-3.441
X4.924Y-3.482
X4.952Y-3.324
X4.961Y-3.495
X4.992Y-3.324
X5.001Y-3.495
X5.03Y-3.324
X5.039Y-3.495
X5.071Y-3.323
X5.077Y-3.495
X5.1142Y-2.4744
X5.115Y-3.323
X5.115Y-3.495
X5.154Y-3.323
X5.154Y-3.443
X5.1748Y-4.2977
X5.1934Y-3.2294
X5.195Y-3.323
X5.195Y-3.443
X5.2025Y-3.838
X5.203Y-3.4985
X5.2268Y-2.6201
X5.232Y-4.492
X5.2332Y-3.8625
X5.236Y-3.324
X5.262Y-3.4663
X5.2862Y-3.7985
X5.2952Y-3.3125
X5.2952Y-3.4125
X5.302Y-4.364
X5.3052Y-3.6845
X5.3157Y-3.2549
X5.3581Y-2.7116
X5.3632Y-3.8035
X5.3662Y-4.4495
X5.3799Y-3.1831
X5.391Y-2.7122
X5.3994Y-3.7858
X5.4052Y-4.2755
X5.4094Y-3.248
X5.415Y-2.6322
X5.4173Y-2.9606
X5.4173Y-2.9961
X5.4173Y-3.0315
X5.4352Y-4.4575
X5.4528Y-2.9606
X5.4528Y-2.9961
X5.4528Y-3.0315
X5.4587Y-3.126
X5.4719Y-3.2249
X5.4727Y-4.1415
X5.4762Y-3.9057
X5.4812Y-3.949
X5.4882Y-2.9605
X5.4882Y-2.9605
X5.4882Y-2.9959
X5.4882Y-2.9959
X5.4882Y-3.0314
X5.4882Y-3.0314
X5.4932Y-4.0615
X5.5082Y-3.1735
X5.5103Y-3.8806
X5.5131Y-3.2244
X5.516Y-4.3977
X5.5465Y-3.9844
X5.5465Y-4.0238
X5.5472Y-3.1145
X5.5623Y-4.3926
X5.5782Y-3.0835
X5.586Y-4.272
X5.5937Y-4.1725
X5.5953Y-3.2081
X5.6024Y-4.378
X5.623Y-3.886
X5.6232Y-3.9435
X5.6319Y-2.6084
X5.6319Y-2.6438
X5.6319Y-2.6793
X5.6332Y-3.3135
X5.6382Y-3.0835
X5.6573Y-3.1694
X5.6582Y-3.7585
X5.6623Y-3.2594
X5.6632Y-3.4635
X5.6653Y-3.9106
X5.6673Y-2.6084
X5.6673Y-2.6438
X5.6673Y-2.6793
X5.6791Y-4.3071
X5.6791Y-4.3504
X5.6895Y-3.3993
X5.6947Y-3.2935
X5.6947Y-3.3385
X5.7028Y-2.6083
X5.7028Y-2.6083
X5.7028Y-2.6437
X5.7028Y-2.6437
X5.7028Y-2.6791
X5.7028Y-2.6791
X5.7082Y-3.5135
X5.7206Y-4.3979
X5.7265Y-3.7353
X5.7392Y-2.9915
X5.7392Y-3.0285
X5.7402Y-2.9565
X5.7457Y-3.7697
X5.7527Y-3.2544
X5.7533Y-3.2938
X5.7657Y-3.8035
X5.7682Y-3.3535
X5.7754Y-4.177
X5.8082Y-3.3535
X5.8247Y-3.8059
X5.8297Y-3.1399
X5.8661Y-3.5356
X5.8661Y-3.571
X5.8661Y-3.6064
X5.8932Y-3.9485
X5.8975Y-3.3531
X5.9016Y-3.5356
X5.9016Y-3.571
X5.9016Y-3.6064
X5.9114Y-2.6478
X5.9114Y-2.6832
X5.9114Y-2.7186
X5.937Y-3.5354
X5.937Y-3.5354
X5.937Y-3.5709
X5.937Y-3.5709
X5.937Y-3.6063
X5.937Y-3.6063
X5.9469Y-2.6478
X5.9469Y-2.6832
X5.9469Y-2.7186
X5.9532Y-3.16
X5.9532Y-3.2717
X5.9823Y-2.6476
X5.9823Y-2.6476
X5.9823Y-2.6831
X5.9823Y-2.6831
X5.9823Y-2.7185
X5.9823Y-2.7185
X5.9843Y-3.1359
X6.1634Y-2.9923
X6.1634Y-3.0277
X6.1634Y-3.0631
X6.1988Y-2.9923
X6.1988Y-3.0277
X6.1988Y-3.0631
X6.2343Y-2.9921
X6.2343Y-2.9921
X6.2343Y-3.0276
X6.2343Y-3.0276
X6.2343Y-3.063
X6.2343Y-3.063
X6.2815Y-4.1241
X6.3169Y-4.1241
X6.3169Y-4.1596
X6.3382Y-3.5725
X6.3382Y-3.5725
X6.3386Y-2.5474
X6.3386Y-2.5828
X6.3386Y-2.6182
X6.3406Y-3.0789
X6.3406Y-3.1143
X6.3406Y-3.1497
X6.3472Y-3.3949
X6.3524Y-4.124
X6.3524Y-4.124
X6.3524Y-4.1594
X6.3524Y-4.1594
X6.3524Y-4.1949
X6.3524Y-4.1949
X6.3732Y-3.5725
X6.3732Y-3.5725
X6.374Y-2.5474
X6.374Y-2.5828
X6.374Y-2.6182
X6.376Y-3.0789
X6.376Y-3.1143
X6.376Y-3.1497
X6.3878Y-4.1222
X6.3878Y-4.1576
X6.3878Y-4.193
X6.3902Y-3.3939
X6.4092Y-3.5725
X6.4092Y-3.5725
X6.4094Y-2.5472
X6.4094Y-2.5472
X6.4094Y-2.5827
X6.4094Y-2.5827
X6.4094Y-2.6181
X6.4094Y-2.6181
X6.4114Y-3.0787
X6.4114Y-3.0787
X6.4114Y-3.1142
X6.4114Y-3.1142
X6.4114Y-3.1496
X6.4114Y-3.1496
X6.4232Y-4.1222
X6.4232Y-4.1576
X6.4232Y-4.193
X6.4312Y-3.3939
X6.4442Y-3.5725
X6.4442Y-3.5725
X6.4469Y-3.0789
X6.4469Y-3.1143
X6.4469Y-3.1497
X6.4587Y-4.122
X6.4587Y-4.122
X6.4587Y-4.1575
X6.4587Y-4.1575
X6.4587Y-4.1929
X6.4587Y-4.1929
X6.4702Y-3.3939
X6.4812Y-3.6095
X6.4812Y-3.6095
X6.4812Y-3.6445
X6.4812Y-3.6445
X6.4812Y-3.6805
X6.4812Y-3.6805
X6.4812Y-3.7155
X6.4812Y-3.7155
X6.4823Y-3.0789
X6.4823Y-3.1143
X6.4823Y-3.1497
X6.4941Y-4.1202
X6.4941Y-4.1556
X6.4941Y-4.1911
X6.5177Y-3.0787
X6.5177Y-3.0787
X6.5177Y-3.1142
X6.5177Y-3.1142
X6.5177Y-3.1496
X6.5177Y-3.1496
X6.5295Y-4.1202
X6.5295Y-4.1556
X6.5295Y-4.1911
X6.5531Y-3.0789
X6.5531Y-3.1143
X6.5531Y-3.1497
X6.565Y-4.1201
X6.565Y-4.1201
X6.565Y-4.1555
X6.565Y-4.1555
X6.565Y-4.1909
X6.565Y-4.1909
X6.5886Y-3.0789
X6.5886Y-3.1143
X6.5886Y-3.1497
X6.6232Y-4.1735
X6.624Y-3.0787
X6.624Y-3.0787
X6.624Y-3.1142
X6.624Y-3.1142
X6.624Y-3.1496
X6.624Y-3.1496
X6.6732Y-4.1735
X6.7182Y-3.4515
X6.7182Y-3.4865
X6.7182Y-3.4865
X6.7282Y-4.1735
X6.7542Y-3.4865
X6.7542Y-3.4865
X6.7542Y-3.5205
X6.7542Y-3.5565
X6.7552Y-3.4165
X6.7552Y-3.4515
X6.7892Y-3.4165
X6.7892Y-3.4515
X6.7892Y-3.4865
X6.7892Y-3.4865
X6.7892Y-3.5205
X6.7892Y-3.5565
X6.9015Y-2.5557
X6.9596Y-3.2324
X6.9773Y-3.7265
X6.9832Y-3.2029
X6.9943Y-3.6487
X6.9952Y-3.4295
X6.9952Y-3.4725
X6.9952Y-3.5235
X6.9962Y-3.3855
X7.0068Y-3.1754
X7.0362Y-3.3855
X7.0454Y-3.6594
X7.0772Y-3.1255
X7.0842Y-3.4835
X7.0842Y-3.5525
X7.1392Y-3.1255
X7.1592Y-2.8286
X7.189Y-2.8543
X7.2132Y-4.2405
X7.2142Y-4.3325
X7.2162Y-2.6325
X7.2162Y-2.7305
X7.2272Y-3.0425
X7.2781Y-4.2415
X7.2781Y-4.3325
X7.2911Y-2.7305
X7.2921Y-2.6375
X7.3132Y-3.2502
X7.3132Y-3.6055
X7.3142Y-3.3395
X7.3142Y-3.6965
X7.3722Y-3.3385
X7.3722Y-3.6965
X7.3722Y-3.7315
X7.3732Y-3.1085
X7.3732Y-3.2095
X7.3732Y-3.2485
X7.3732Y-3.6065
X7.3732Y-3.8365
X7.4312Y-3.2502
X7.4312Y-3.6055
X7.4322Y-3.3395
X7.4322Y-3.6965
X7.4902Y-3.0512
X7.5335Y-3.0512
X7.5472Y-3.25
X7.5925Y-3.0748
X7.5945Y-3.0315
X7.6358Y-3.124
X7.6358Y-3.1594
X7.6452Y-3.7925
X7.6452Y-3.8345
X7.6634Y-3.0512
X7.6862Y-3.5185
X7.6988Y-3.0827
X7.7343Y-3.1122
X7.7492Y-3.4585
X7.7512Y-3.5765
T4
X4.7139Y-4.4128
X4.832Y-4.4128
X4.9501Y-4.4128
X5.3302Y-3.9055
X5.3302Y-3.9843
X5.3302Y-4.063
X5.3302Y-4.1418
X5.3302Y-4.2205
X5.6772Y-3.9855
X5.6772Y-4.0643
X5.6772Y-4.143
X5.6772Y-4.2218
T5
X5.1232Y-2.5535
X5.2232Y-2.5535
X5.3232Y-2.5535
X5.4232Y-2.5535
X5.5232Y-2.5535
T6
X7.6232Y-2.5867
X7.6232Y-2.7835
X7.6232Y-4.1867
X7.6232Y-4.3835
T7
X5.8996Y-4.1732
X6.0555Y-4.1732
T8
X4.8622Y-2.5787
X6.6693Y-2.5787
X6.9902Y-4.315
T3
G00X4.5839Y-4.3832
M15
G01X4.5839Y-4.4423
M16
G05
G00X5.0761Y-4.3832
M15
G01X5.0761Y-4.4423
M16
G05
T5
G00X5.7989Y-4.2934
M15
G01X5.7989Y-4.3524
M16
G05
G00X5.9367Y-4.0473
M15
G01X6.0154Y-4.0473
M16
G05
G00X5.9505Y-4.2835
M15
G01X6.0016Y-4.2835
M16
G05
G00X6.1532Y-4.2934
M15
G01X6.1532Y-4.3524
M16
G05
T0
M30
