G04 #@! TF.GenerationSoftware,KiCad,Pcbnew,(6.0.1-0)*
G04 #@! TF.CreationDate,2022-03-08T21:58:25+01:00*
G04 #@! TF.ProjectId,muVox,6d75566f-782e-46b6-9963-61645f706362,rev?*
G04 #@! TF.SameCoordinates,Original*
G04 #@! TF.FileFunction,Paste,Top*
G04 #@! TF.FilePolarity,Positive*
%FSLAX46Y46*%
G04 Gerber Fmt 4.6, Leading zero omitted, Abs format (unit mm)*
G04 Created by KiCad (PCBNEW (6.0.1-0)) date 2022-03-08 21:58:25*
%MOMM*%
%LPD*%
G01*
G04 APERTURE LIST*
G04 Aperture macros list*
%AMRoundRect*
0 Rectangle with rounded corners*
0 $1 Rounding radius*
0 $2 $3 $4 $5 $6 $7 $8 $9 X,Y pos of 4 corners*
0 Add a 4 corners polygon primitive as box body*
4,1,4,$2,$3,$4,$5,$6,$7,$8,$9,$2,$3,0*
0 Add four circle primitives for the rounded corners*
1,1,$1+$1,$2,$3*
1,1,$1+$1,$4,$5*
1,1,$1+$1,$6,$7*
1,1,$1+$1,$8,$9*
0 Add four rect primitives between the rounded corners*
20,1,$1+$1,$2,$3,$4,$5,0*
20,1,$1+$1,$4,$5,$6,$7,0*
20,1,$1+$1,$6,$7,$8,$9,0*
20,1,$1+$1,$8,$9,$2,$3,0*%
G04 Aperture macros list end*
%ADD10RoundRect,0.249323X-0.249323X-0.249323X0.249323X-0.249323X0.249323X0.249323X-0.249323X0.249323X0*%
%ADD11RoundRect,0.062500X-0.375000X-0.062500X0.375000X-0.062500X0.375000X0.062500X-0.375000X0.062500X0*%
%ADD12RoundRect,0.062500X-0.062500X-0.375000X0.062500X-0.375000X0.062500X0.375000X-0.062500X0.375000X0*%
%ADD13RoundRect,0.250000X-0.277694X0.277694X-0.277694X-0.277694X0.277694X-0.277694X0.277694X0.277694X0*%
%ADD14RoundRect,0.075000X-0.075000X0.362500X-0.075000X-0.362500X0.075000X-0.362500X0.075000X0.362500X0*%
%ADD15RoundRect,0.075000X-0.362500X0.075000X-0.362500X-0.075000X0.362500X-0.075000X0.362500X0.075000X0*%
%ADD16RoundRect,0.140000X-0.170000X0.140000X-0.170000X-0.140000X0.170000X-0.140000X0.170000X0.140000X0*%
%ADD17RoundRect,0.225000X0.250000X-0.225000X0.250000X0.225000X-0.250000X0.225000X-0.250000X-0.225000X0*%
%ADD18RoundRect,0.250000X-0.475000X0.250000X-0.475000X-0.250000X0.475000X-0.250000X0.475000X0.250000X0*%
%ADD19RoundRect,0.250000X-0.250000X-0.475000X0.250000X-0.475000X0.250000X0.475000X-0.250000X0.475000X0*%
%ADD20RoundRect,0.225000X0.225000X0.250000X-0.225000X0.250000X-0.225000X-0.250000X0.225000X-0.250000X0*%
%ADD21RoundRect,0.225000X-0.225000X-0.250000X0.225000X-0.250000X0.225000X0.250000X-0.225000X0.250000X0*%
%ADD22RoundRect,0.225000X-0.250000X0.225000X-0.250000X-0.225000X0.250000X-0.225000X0.250000X0.225000X0*%
%ADD23RoundRect,0.250000X0.250000X0.475000X-0.250000X0.475000X-0.250000X-0.475000X0.250000X-0.475000X0*%
%ADD24RoundRect,0.250000X0.475000X-0.250000X0.475000X0.250000X-0.475000X0.250000X-0.475000X-0.250000X0*%
%ADD25RoundRect,0.218750X-0.218750X-0.256250X0.218750X-0.256250X0.218750X0.256250X-0.218750X0.256250X0*%
%ADD26RoundRect,0.250000X-0.325000X-0.650000X0.325000X-0.650000X0.325000X0.650000X-0.325000X0.650000X0*%
%ADD27RoundRect,0.147500X-0.147500X-0.172500X0.147500X-0.172500X0.147500X0.172500X-0.147500X0.172500X0*%
%ADD28R,3.500000X1.800000*%
%ADD29R,1.498600X2.489200*%
%ADD30RoundRect,0.150000X0.150000X-0.725000X0.150000X0.725000X-0.150000X0.725000X-0.150000X-0.725000X0*%
%ADD31R,1.000000X0.700000*%
%ADD32RoundRect,0.200000X-0.200000X-0.275000X0.200000X-0.275000X0.200000X0.275000X-0.200000X0.275000X0*%
%ADD33RoundRect,0.200000X0.200000X0.275000X-0.200000X0.275000X-0.200000X-0.275000X0.200000X-0.275000X0*%
%ADD34RoundRect,0.200000X0.275000X-0.200000X0.275000X0.200000X-0.275000X0.200000X-0.275000X-0.200000X0*%
%ADD35R,1.450000X0.700000*%
%ADD36RoundRect,0.150000X0.512500X0.150000X-0.512500X0.150000X-0.512500X-0.150000X0.512500X-0.150000X0*%
%ADD37RoundRect,0.250000X-0.550000X1.050000X-0.550000X-1.050000X0.550000X-1.050000X0.550000X1.050000X0*%
%ADD38RoundRect,0.250000X1.000000X-1.500000X1.000000X1.500000X-1.000000X1.500000X-1.000000X-1.500000X0*%
%ADD39RoundRect,0.250000X1.500000X1.000000X-1.500000X1.000000X-1.500000X-1.000000X1.500000X-1.000000X0*%
%ADD40RoundRect,0.250000X-1.000000X1.500000X-1.000000X-1.500000X1.000000X-1.500000X1.000000X1.500000X0*%
%ADD41R,0.900000X1.200000*%
%ADD42R,3.600000X2.700000*%
%ADD43RoundRect,0.150000X-0.512500X-0.150000X0.512500X-0.150000X0.512500X0.150000X-0.512500X0.150000X0*%
%ADD44R,1.050000X1.000000*%
%ADD45R,2.200000X1.050000*%
%ADD46RoundRect,0.150000X-0.150000X-0.625000X0.150000X-0.625000X0.150000X0.625000X-0.150000X0.625000X0*%
%ADD47RoundRect,0.250000X-0.350000X-0.650000X0.350000X-0.650000X0.350000X0.650000X-0.350000X0.650000X0*%
%ADD48RoundRect,0.218750X0.218750X0.256250X-0.218750X0.256250X-0.218750X-0.256250X0.218750X-0.256250X0*%
%ADD49R,1.500000X1.000000*%
%ADD50R,2.600000X1.500000*%
G04 APERTURE END LIST*
D10*
X140864970Y-89920960D03*
X139702470Y-89920960D03*
X139702470Y-86433460D03*
X137377470Y-88758460D03*
X138539970Y-89920960D03*
X138539970Y-87595960D03*
X137377470Y-89920960D03*
X139702470Y-88758460D03*
X140864970Y-86433460D03*
X137377470Y-87595960D03*
X138539970Y-86433460D03*
X137377470Y-86433460D03*
X139702470Y-87595960D03*
X138539970Y-88758460D03*
X140864970Y-87595960D03*
X140864970Y-88758460D03*
D11*
X135683720Y-85427210D03*
X135683720Y-85927210D03*
X135683720Y-86427210D03*
X135683720Y-86927210D03*
X135683720Y-87427210D03*
X135683720Y-87927210D03*
X135683720Y-88427210D03*
X135683720Y-88927210D03*
X135683720Y-89427210D03*
X135683720Y-89927210D03*
X135683720Y-90427210D03*
X135683720Y-90927210D03*
D12*
X136371220Y-91614710D03*
X136871220Y-91614710D03*
X137371220Y-91614710D03*
X137871220Y-91614710D03*
X138371220Y-91614710D03*
X138871220Y-91614710D03*
X139371220Y-91614710D03*
X139871220Y-91614710D03*
X140371220Y-91614710D03*
X140871220Y-91614710D03*
X141371220Y-91614710D03*
X141871220Y-91614710D03*
D11*
X142558720Y-90927210D03*
X142558720Y-90427210D03*
X142558720Y-89927210D03*
X142558720Y-89427210D03*
X142558720Y-88927210D03*
X142558720Y-88427210D03*
X142558720Y-87927210D03*
X142558720Y-87427210D03*
X142558720Y-86927210D03*
X142558720Y-86427210D03*
X142558720Y-85927210D03*
X142558720Y-85427210D03*
D12*
X141871220Y-84739710D03*
X141371220Y-84739710D03*
X140871220Y-84739710D03*
X140371220Y-84739710D03*
X139871220Y-84739710D03*
X139371220Y-84739710D03*
X138871220Y-84739710D03*
X138371220Y-84739710D03*
X137871220Y-84739710D03*
X137371220Y-84739710D03*
X136871220Y-84739710D03*
X136371220Y-84739710D03*
D13*
X187390370Y-87609260D03*
X187390370Y-86371760D03*
X188627870Y-86371760D03*
X188627870Y-88846760D03*
X187390370Y-90084260D03*
X184915370Y-86371760D03*
X188627870Y-90084260D03*
X184915370Y-87609260D03*
X186152870Y-86371760D03*
X184915370Y-88846760D03*
X187390370Y-88846760D03*
X188627870Y-87609260D03*
X186152870Y-88846760D03*
X184915370Y-90084260D03*
X186152870Y-90084260D03*
X186152870Y-87609260D03*
D14*
X190521620Y-83790510D03*
X190021620Y-83790510D03*
X189521620Y-83790510D03*
X189021620Y-83790510D03*
X188521620Y-83790510D03*
X188021620Y-83790510D03*
X187521620Y-83790510D03*
X187021620Y-83790510D03*
X186521620Y-83790510D03*
X186021620Y-83790510D03*
X185521620Y-83790510D03*
X185021620Y-83790510D03*
X184521620Y-83790510D03*
X184021620Y-83790510D03*
X183521620Y-83790510D03*
X183021620Y-83790510D03*
D15*
X182334120Y-84478010D03*
X182334120Y-84978010D03*
X182334120Y-85478010D03*
X182334120Y-85978010D03*
X182334120Y-86478010D03*
X182334120Y-86978010D03*
X182334120Y-87478010D03*
X182334120Y-87978010D03*
X182334120Y-88478010D03*
X182334120Y-88978010D03*
X182334120Y-89478010D03*
X182334120Y-89978010D03*
X182334120Y-90478010D03*
X182334120Y-90978010D03*
X182334120Y-91478010D03*
X182334120Y-91978010D03*
D14*
X183021620Y-92665510D03*
X183521620Y-92665510D03*
X184021620Y-92665510D03*
X184521620Y-92665510D03*
X185021620Y-92665510D03*
X185521620Y-92665510D03*
X186021620Y-92665510D03*
X186521620Y-92665510D03*
X187021620Y-92665510D03*
X187521620Y-92665510D03*
X188021620Y-92665510D03*
X188521620Y-92665510D03*
X189021620Y-92665510D03*
X189521620Y-92665510D03*
X190021620Y-92665510D03*
X190521620Y-92665510D03*
D15*
X191209120Y-91978010D03*
X191209120Y-91478010D03*
X191209120Y-90978010D03*
X191209120Y-90478010D03*
X191209120Y-89978010D03*
X191209120Y-89478010D03*
X191209120Y-88978010D03*
X191209120Y-88478010D03*
X191209120Y-87978010D03*
X191209120Y-87478010D03*
X191209120Y-86978010D03*
X191209120Y-86478010D03*
X191209120Y-85978010D03*
X191209120Y-85478010D03*
X191209120Y-84978010D03*
X191209120Y-84478010D03*
D16*
X129057400Y-85928200D03*
X129057400Y-86888200D03*
D17*
X144023420Y-94221410D03*
X144023420Y-92671410D03*
D18*
X140719000Y-67967500D03*
X140719000Y-69867500D03*
D19*
X131899720Y-81141410D03*
X133799720Y-81141410D03*
D18*
X134569000Y-67950600D03*
X134569000Y-69850600D03*
D20*
X188181620Y-65063210D03*
X186631620Y-65063210D03*
D21*
X186606120Y-71286210D03*
X188156120Y-71286210D03*
D22*
X187279620Y-78969410D03*
X187279620Y-80519410D03*
D19*
X183586420Y-77255210D03*
X185486420Y-77255210D03*
X189072820Y-79236410D03*
X190972820Y-79236410D03*
X183586420Y-81166810D03*
X185486420Y-81166810D03*
X189075120Y-81192210D03*
X190975120Y-81192210D03*
D23*
X185484120Y-79211010D03*
X183584120Y-79211010D03*
D17*
X179812020Y-82449810D03*
X179812020Y-80899810D03*
X194772620Y-83186310D03*
X194772620Y-81636310D03*
X193248620Y-83186310D03*
X193248620Y-81636310D03*
X179812020Y-85497810D03*
X179812020Y-83947810D03*
D24*
X196525220Y-83155910D03*
X196525220Y-81255910D03*
D21*
X195242320Y-84697410D03*
X196792320Y-84697410D03*
X195242320Y-86323010D03*
X196792320Y-86323010D03*
D20*
X196792220Y-87847010D03*
X195242220Y-87847010D03*
D21*
X195242220Y-89371010D03*
X196792220Y-89371010D03*
X156837320Y-91606210D03*
X158387320Y-91606210D03*
D18*
X196550620Y-90887110D03*
X196550620Y-92787110D03*
D17*
X194772620Y-92813010D03*
X194772620Y-91263010D03*
D20*
X196284220Y-94298610D03*
X194734220Y-94298610D03*
D23*
X190970520Y-95238410D03*
X189070520Y-95238410D03*
X185486420Y-97219610D03*
X183586420Y-97219610D03*
X190970520Y-97194210D03*
X189070520Y-97194210D03*
X185486420Y-95263810D03*
X183586420Y-95263810D03*
X185486420Y-99175410D03*
X183586420Y-99175410D03*
D22*
X187279620Y-95885710D03*
X187279620Y-97435710D03*
D20*
X187825920Y-111977010D03*
X186275920Y-111977010D03*
X187825920Y-105804810D03*
X186275920Y-105804810D03*
D22*
X158600000Y-110821010D03*
X158600000Y-112371010D03*
X158650000Y-101956510D03*
X158650000Y-103506510D03*
X173392395Y-100350000D03*
X173392395Y-101900000D03*
D24*
X173642395Y-105300000D03*
X173642395Y-103400000D03*
D25*
X177499100Y-66964600D03*
X179074100Y-66964600D03*
D26*
X185144220Y-66993610D03*
X188094220Y-66993610D03*
X185118820Y-69355810D03*
X188068820Y-69355810D03*
X184788620Y-110046610D03*
X187738620Y-110046610D03*
X184788620Y-107735210D03*
X187738620Y-107735210D03*
D27*
X127124600Y-85928200D03*
X128094600Y-85928200D03*
D28*
X153583620Y-88228010D03*
X157983620Y-88228010D03*
D29*
X161371620Y-109310010D03*
X161371620Y-102807610D03*
X164371620Y-109310010D03*
X164371620Y-102807610D03*
D30*
X167848620Y-108583010D03*
X169118620Y-108583010D03*
X170388620Y-108583010D03*
X171658620Y-108583010D03*
X171658620Y-103433010D03*
X170388620Y-103433010D03*
X169118620Y-103433010D03*
X167848620Y-103433010D03*
D31*
X175350000Y-63500000D03*
X175350000Y-65400000D03*
X177750000Y-64450000D03*
D32*
X135250000Y-81000000D03*
X136900000Y-81000000D03*
X179723520Y-77864810D03*
X181373520Y-77864810D03*
X179723620Y-79388810D03*
X181373620Y-79388810D03*
X170475000Y-110514010D03*
X172125000Y-110514010D03*
D33*
X169150000Y-110500000D03*
X167500000Y-110500000D03*
X175823600Y-67015400D03*
X174173600Y-67015400D03*
D34*
X173816200Y-65376600D03*
X173816200Y-63726600D03*
X179404200Y-65376600D03*
X179404200Y-63726600D03*
D35*
X131458000Y-69088000D03*
X131458000Y-72788000D03*
X125458000Y-69088000D03*
X125458000Y-72788000D03*
D36*
X138787500Y-69850000D03*
X138787500Y-68900000D03*
X138787500Y-67950000D03*
X136512500Y-67950000D03*
X136512500Y-69850000D03*
D20*
X136850000Y-82500000D03*
X135300000Y-82500000D03*
D21*
X132275620Y-82894010D03*
X133825620Y-82894010D03*
D20*
X148684620Y-75782010D03*
X147134620Y-75782010D03*
D22*
X141400000Y-72225000D03*
X141400000Y-73775000D03*
D20*
X148684620Y-81878010D03*
X147134620Y-81878010D03*
D37*
X155529620Y-66822610D03*
X155529620Y-70422610D03*
D38*
X154615220Y-82891610D03*
X154615220Y-76391610D03*
D39*
X167923620Y-93054010D03*
X161423620Y-93054010D03*
X167923620Y-83910010D03*
X161423620Y-83910010D03*
D38*
X174579620Y-96760010D03*
X174579620Y-90260010D03*
D40*
X174579620Y-79592010D03*
X174579620Y-86092010D03*
D41*
X153879620Y-73165810D03*
X157179620Y-73165810D03*
D42*
X147655620Y-72906010D03*
X147655620Y-64606010D03*
D33*
X144518220Y-76823410D03*
X142868220Y-76823410D03*
D32*
X142868220Y-75299410D03*
X144518220Y-75299410D03*
D43*
X146772120Y-77880010D03*
X146772120Y-78830010D03*
X146772120Y-79780010D03*
X149047120Y-79780010D03*
X149047120Y-78830010D03*
X149047120Y-77880010D03*
D23*
X169500000Y-112263990D03*
X167600000Y-112263990D03*
D21*
X156888220Y-84849810D03*
X158438220Y-84849810D03*
D44*
X132574200Y-85928200D03*
D45*
X131049200Y-87403200D03*
X131049200Y-84453200D03*
D46*
X136281620Y-110027810D03*
X137281620Y-110027810D03*
X138281620Y-110027810D03*
X139281620Y-110027810D03*
X140281620Y-110027810D03*
X141281620Y-110027810D03*
X142281620Y-110027810D03*
X143281620Y-110027810D03*
D47*
X144581620Y-113902810D03*
X134981620Y-113902810D03*
D20*
X117221600Y-100431600D03*
X115671600Y-100431600D03*
X125946200Y-100431600D03*
X124396200Y-100431600D03*
D32*
X134200000Y-72900000D03*
X135850000Y-72900000D03*
D48*
X138800000Y-71400000D03*
X137225000Y-71400000D03*
D49*
X115977600Y-102489200D03*
X115977600Y-105689200D03*
X120877600Y-105689200D03*
X120877600Y-102489200D03*
D16*
X126212600Y-85928200D03*
X126212600Y-86888200D03*
D32*
X134225000Y-71400000D03*
X135875000Y-71400000D03*
D24*
X132842000Y-111389200D03*
X132842000Y-109489200D03*
D49*
X124702400Y-102489200D03*
X124702400Y-105689200D03*
X129602400Y-105689200D03*
X129602400Y-102489200D03*
D50*
X114985800Y-82306000D03*
X114985800Y-77206000D03*
M02*
