G04 #@! TF.GenerationSoftware,KiCad,Pcbnew,(6.0.4-0)*
G04 #@! TF.CreationDate,2022-09-25T14:52:34+02:00*
G04 #@! TF.ProjectId,muVox,6d75566f-782e-46b6-9963-61645f706362,rc1*
G04 #@! TF.SameCoordinates,Original*
G04 #@! TF.FileFunction,Soldermask,Bot*
G04 #@! TF.FilePolarity,Negative*
%FSLAX46Y46*%
G04 Gerber Fmt 4.6, Leading zero omitted, Abs format (unit mm)*
G04 Created by KiCad (PCBNEW (6.0.4-0)) date 2022-09-25 14:52:34*
%MOMM*%
%LPD*%
G01*
G04 APERTURE LIST*
G04 Aperture macros list*
%AMRoundRect*
0 Rectangle with rounded corners*
0 $1 Rounding radius*
0 $2 $3 $4 $5 $6 $7 $8 $9 X,Y pos of 4 corners*
0 Add a 4 corners polygon primitive as box body*
4,1,4,$2,$3,$4,$5,$6,$7,$8,$9,$2,$3,0*
0 Add four circle primitives for the rounded corners*
1,1,$1+$1,$2,$3*
1,1,$1+$1,$4,$5*
1,1,$1+$1,$6,$7*
1,1,$1+$1,$8,$9*
0 Add four rect primitives between the rounded corners*
20,1,$1+$1,$2,$3,$4,$5,0*
20,1,$1+$1,$4,$5,$6,$7,0*
20,1,$1+$1,$6,$7,$8,$9,0*
20,1,$1+$1,$8,$9,$2,$3,0*%
%AMFreePoly0*
4,1,22,0.500000,-0.750000,0.000000,-0.750000,0.000000,-0.745033,-0.079941,-0.743568,-0.215256,-0.701293,-0.333266,-0.622738,-0.424486,-0.514219,-0.481581,-0.384460,-0.499164,-0.250000,-0.500000,-0.250000,-0.500000,0.250000,-0.499164,0.250000,-0.499963,0.256109,-0.478152,0.396186,-0.417904,0.524511,-0.324060,0.630769,-0.204165,0.706417,-0.067858,0.745374,0.000000,0.744959,0.000000,0.750000,
0.500000,0.750000,0.500000,-0.750000,0.500000,-0.750000,$1*%
%AMFreePoly1*
4,1,20,0.000000,0.744959,0.073905,0.744508,0.209726,0.703889,0.328688,0.626782,0.421226,0.519385,0.479903,0.390333,0.500000,0.250000,0.500000,-0.250000,0.499851,-0.262216,0.476331,-0.402017,0.414519,-0.529596,0.319384,-0.634700,0.198574,-0.708877,0.061801,-0.746166,0.000000,-0.745033,0.000000,-0.750000,-0.500000,-0.750000,-0.500000,0.750000,0.000000,0.750000,0.000000,0.744959,
0.000000,0.744959,$1*%
%AMFreePoly2*
4,1,22,0.550000,-0.750000,0.000000,-0.750000,0.000000,-0.745033,-0.079941,-0.743568,-0.215256,-0.701293,-0.333266,-0.622738,-0.424486,-0.514219,-0.481581,-0.384460,-0.499164,-0.250000,-0.500000,-0.250000,-0.500000,0.250000,-0.499164,0.250000,-0.499963,0.256109,-0.478152,0.396186,-0.417904,0.524511,-0.324060,0.630769,-0.204165,0.706417,-0.067858,0.745374,0.000000,0.744959,0.000000,0.750000,
0.550000,0.750000,0.550000,-0.750000,0.550000,-0.750000,$1*%
%AMFreePoly3*
4,1,20,0.000000,0.744959,0.073905,0.744508,0.209726,0.703889,0.328688,0.626782,0.421226,0.519385,0.479903,0.390333,0.500000,0.250000,0.500000,-0.250000,0.499851,-0.262216,0.476331,-0.402017,0.414519,-0.529596,0.319384,-0.634700,0.198574,-0.708877,0.061801,-0.746166,0.000000,-0.745033,0.000000,-0.750000,-0.550000,-0.750000,-0.550000,0.750000,0.000000,0.750000,0.000000,0.744959,
0.000000,0.744959,$1*%
G04 Aperture macros list end*
%ADD10C,0.100000*%
%ADD11C,0.300000*%
%ADD12C,0.212500*%
%ADD13C,0.450000*%
%ADD14C,0.150000*%
%ADD15C,1.000000*%
%ADD16C,0.187500*%
%ADD17C,1.600000*%
%ADD18R,4.000000X2.000000*%
%ADD19O,3.300000X2.000000*%
%ADD20O,2.000000X3.500000*%
%ADD21RoundRect,0.250000X-0.600000X-0.600000X0.600000X-0.600000X0.600000X0.600000X-0.600000X0.600000X0*%
%ADD22C,1.700000*%
%ADD23C,6.400000*%
%ADD24C,2.500000*%
%ADD25RoundRect,0.250001X-1.099999X-1.099999X1.099999X-1.099999X1.099999X1.099999X-1.099999X1.099999X0*%
%ADD26C,2.700000*%
%ADD27R,1.700000X1.700000*%
%ADD28O,1.700000X1.700000*%
%ADD29C,1.400000*%
%ADD30C,1.200000*%
%ADD31O,1.208000X2.800000*%
%ADD32C,0.800000*%
%ADD33C,1.500000*%
%ADD34FreePoly0,0.000000*%
%ADD35FreePoly1,0.000000*%
%ADD36FreePoly2,270.000000*%
%ADD37R,1.500000X1.000000*%
%ADD38FreePoly3,270.000000*%
%ADD39FreePoly2,90.000000*%
%ADD40FreePoly3,90.000000*%
%ADD41FreePoly0,180.000000*%
%ADD42FreePoly1,180.000000*%
G04 APERTURE END LIST*
D10*
G36*
X93971120Y-155126350D02*
G01*
X94673975Y-155409301D01*
X95418330Y-154898550D01*
X96095955Y-155530250D01*
X95602525Y-156316450D01*
X95906346Y-157037450D01*
X96805595Y-157243600D01*
X96805595Y-158124700D01*
X95927505Y-158326500D01*
X95622325Y-159020960D01*
X96101655Y-159778880D01*
X95418330Y-160469530D01*
X94730400Y-159997520D01*
X94349400Y-160141520D01*
X93649400Y-158641520D01*
X94049400Y-158241520D01*
X94249400Y-157841520D01*
X94249400Y-157441520D01*
X94008280Y-157000000D01*
X93549400Y-156741520D01*
X93122865Y-156734150D01*
X92630000Y-157000000D01*
X92349400Y-157541520D01*
X92468300Y-158163750D01*
X92916435Y-158592350D01*
X92315300Y-160145091D01*
X91907850Y-159997520D01*
X91165150Y-160461120D01*
X90533650Y-159783220D01*
X91015950Y-159021230D01*
X90749400Y-158341520D01*
X89832400Y-158124700D01*
X89832400Y-157231950D01*
X90777250Y-156994851D01*
X91049400Y-156341520D01*
X90549400Y-155541520D01*
X91168950Y-154903400D01*
X91964000Y-155409301D01*
X92667950Y-155121250D01*
X92867330Y-154197550D01*
X93759530Y-154197550D01*
X93971120Y-155126350D01*
G37*
X93971120Y-155126350D02*
X94673975Y-155409301D01*
X95418330Y-154898550D01*
X96095955Y-155530250D01*
X95602525Y-156316450D01*
X95906346Y-157037450D01*
X96805595Y-157243600D01*
X96805595Y-158124700D01*
X95927505Y-158326500D01*
X95622325Y-159020960D01*
X96101655Y-159778880D01*
X95418330Y-160469530D01*
X94730400Y-159997520D01*
X94349400Y-160141520D01*
X93649400Y-158641520D01*
X94049400Y-158241520D01*
X94249400Y-157841520D01*
X94249400Y-157441520D01*
X94008280Y-157000000D01*
X93549400Y-156741520D01*
X93122865Y-156734150D01*
X92630000Y-157000000D01*
X92349400Y-157541520D01*
X92468300Y-158163750D01*
X92916435Y-158592350D01*
X92315300Y-160145091D01*
X91907850Y-159997520D01*
X91165150Y-160461120D01*
X90533650Y-159783220D01*
X91015950Y-159021230D01*
X90749400Y-158341520D01*
X89832400Y-158124700D01*
X89832400Y-157231950D01*
X90777250Y-156994851D01*
X91049400Y-156341520D01*
X90549400Y-155541520D01*
X91168950Y-154903400D01*
X91964000Y-155409301D01*
X92667950Y-155121250D01*
X92867330Y-154197550D01*
X93759530Y-154197550D01*
X93971120Y-155126350D01*
D11*
X89179807Y-158712935D02*
X89008378Y-158774840D01*
X88722664Y-158774840D01*
X88608378Y-158712935D01*
X88551235Y-158651030D01*
X88494092Y-158527221D01*
X88494092Y-158403411D01*
X88551235Y-158279602D01*
X88608378Y-158217697D01*
X88722664Y-158155792D01*
X88951235Y-158093887D01*
X89065521Y-158031983D01*
X89122664Y-157970078D01*
X89179807Y-157846268D01*
X89179807Y-157722459D01*
X89122664Y-157598649D01*
X89065521Y-157536745D01*
X88951235Y-157474840D01*
X88665521Y-157474840D01*
X88494092Y-157536745D01*
X87751235Y-157474840D02*
X87522664Y-157474840D01*
X87408378Y-157536745D01*
X87294092Y-157660554D01*
X87236950Y-157908173D01*
X87236950Y-158341506D01*
X87294092Y-158589125D01*
X87408378Y-158712935D01*
X87522664Y-158774840D01*
X87751235Y-158774840D01*
X87865521Y-158712935D01*
X87979807Y-158589125D01*
X88036950Y-158341506D01*
X88036950Y-157908173D01*
X87979807Y-157660554D01*
X87865521Y-157536745D01*
X87751235Y-157474840D01*
X86722664Y-157474840D02*
X86722664Y-158527221D01*
X86665521Y-158651030D01*
X86608378Y-158712935D01*
X86494092Y-158774840D01*
X86265521Y-158774840D01*
X86151235Y-158712935D01*
X86094092Y-158651030D01*
X86036950Y-158527221D01*
X86036950Y-157474840D01*
X84779807Y-158774840D02*
X85179807Y-158155792D01*
X85465521Y-158774840D02*
X85465521Y-157474840D01*
X85008378Y-157474840D01*
X84894092Y-157536745D01*
X84836950Y-157598649D01*
X84779807Y-157722459D01*
X84779807Y-157908173D01*
X84836950Y-158031983D01*
X84894092Y-158093887D01*
X85008378Y-158155792D01*
X85465521Y-158155792D01*
X83579807Y-158651030D02*
X83636950Y-158712935D01*
X83808378Y-158774840D01*
X83922664Y-158774840D01*
X84094092Y-158712935D01*
X84208378Y-158589125D01*
X84265521Y-158465316D01*
X84322664Y-158217697D01*
X84322664Y-158031983D01*
X84265521Y-157784364D01*
X84208378Y-157660554D01*
X84094092Y-157536745D01*
X83922664Y-157474840D01*
X83808378Y-157474840D01*
X83636950Y-157536745D01*
X83579807Y-157598649D01*
X83065521Y-158093887D02*
X82665521Y-158093887D01*
X82494092Y-158774840D02*
X83065521Y-158774840D01*
X83065521Y-157474840D01*
X82494092Y-157474840D01*
D12*
X89270283Y-160384364D02*
X89270283Y-159284364D01*
X89270283Y-159808173D02*
X88727426Y-159808173D01*
X88727426Y-160384364D02*
X88727426Y-159284364D01*
X88320283Y-160070078D02*
X87867902Y-160070078D01*
X88410759Y-160384364D02*
X88094092Y-159284364D01*
X87777426Y-160384364D01*
X86917902Y-160384364D02*
X87234569Y-159860554D01*
X87460759Y-160384364D02*
X87460759Y-159284364D01*
X87098854Y-159284364D01*
X87008378Y-159336745D01*
X86963140Y-159389125D01*
X86917902Y-159493887D01*
X86917902Y-159651030D01*
X86963140Y-159755792D01*
X87008378Y-159808173D01*
X87098854Y-159860554D01*
X87460759Y-159860554D01*
X86510759Y-160384364D02*
X86510759Y-159284364D01*
X86284569Y-159284364D01*
X86148854Y-159336745D01*
X86058378Y-159441506D01*
X86013140Y-159546268D01*
X85967902Y-159755792D01*
X85967902Y-159912935D01*
X86013140Y-160122459D01*
X86058378Y-160227221D01*
X86148854Y-160331983D01*
X86284569Y-160384364D01*
X86510759Y-160384364D01*
X85651235Y-159284364D02*
X85425045Y-160384364D01*
X85244092Y-159598649D01*
X85063140Y-160384364D01*
X84836950Y-159284364D01*
X84520283Y-160070078D02*
X84067902Y-160070078D01*
X84610759Y-160384364D02*
X84294092Y-159284364D01*
X83977426Y-160384364D01*
X83117902Y-160384364D02*
X83434569Y-159860554D01*
X83660759Y-160384364D02*
X83660759Y-159284364D01*
X83298854Y-159284364D01*
X83208378Y-159336745D01*
X83163140Y-159389125D01*
X83117902Y-159493887D01*
X83117902Y-159651030D01*
X83163140Y-159755792D01*
X83208378Y-159808173D01*
X83298854Y-159860554D01*
X83660759Y-159860554D01*
X82710759Y-159808173D02*
X82394092Y-159808173D01*
X82258378Y-160384364D02*
X82710759Y-160384364D01*
X82710759Y-159284364D01*
X82258378Y-159284364D01*
D13*
X88815521Y-154891506D02*
X88472664Y-154891506D01*
X88301235Y-154986745D01*
X88129807Y-155177221D01*
X88044092Y-155558173D01*
X88044092Y-156224840D01*
X88129807Y-156605792D01*
X88301235Y-156796268D01*
X88472664Y-156891506D01*
X88815521Y-156891506D01*
X88986950Y-156796268D01*
X89158378Y-156605792D01*
X89244092Y-156224840D01*
X89244092Y-155558173D01*
X89158378Y-155177221D01*
X88986950Y-154986745D01*
X88815521Y-154891506D01*
X87272664Y-156891506D02*
X87272664Y-154891506D01*
X86586950Y-154891506D01*
X86415521Y-154986745D01*
X86329807Y-155081983D01*
X86244092Y-155272459D01*
X86244092Y-155558173D01*
X86329807Y-155748649D01*
X86415521Y-155843887D01*
X86586950Y-155939125D01*
X87272664Y-155939125D01*
X85472664Y-155843887D02*
X84872664Y-155843887D01*
X84615521Y-156891506D02*
X85472664Y-156891506D01*
X85472664Y-154891506D01*
X84615521Y-154891506D01*
X83844092Y-156891506D02*
X83844092Y-154891506D01*
X82815521Y-156891506D01*
X82815521Y-154891506D01*
D10*
G36*
X130007100Y-153233100D02*
G01*
X130311900Y-153410900D01*
X130540500Y-153614100D01*
X133588500Y-156662100D01*
X133918700Y-157043100D01*
X134121900Y-157449500D01*
X134172700Y-157678100D01*
X134172700Y-157957500D01*
X134121900Y-158287700D01*
X134020300Y-158567100D01*
X133817100Y-158846500D01*
X133639300Y-158998900D01*
X133334500Y-159176700D01*
X133131300Y-159252900D01*
X132851900Y-159278300D01*
X132445500Y-159252900D01*
X132064500Y-159125900D01*
X131708900Y-158846500D01*
X131226300Y-158363900D01*
X130692900Y-157855900D01*
X130159500Y-157373300D01*
X129549900Y-156839900D01*
X129219700Y-156585900D01*
X128813300Y-156281100D01*
X128229100Y-155950900D01*
X127797300Y-155722300D01*
X127187700Y-155519100D01*
X126781300Y-155417500D01*
X126527300Y-155392100D01*
X126298700Y-155341300D01*
X128381500Y-153258500D01*
X128533900Y-154071300D01*
X128737100Y-154604700D01*
X128991100Y-155061900D01*
X129321300Y-155544500D01*
X129727700Y-156077900D01*
X130032500Y-156408100D01*
X130388100Y-156789100D01*
X132267700Y-158643300D01*
X132470900Y-158770300D01*
X132699500Y-158795700D01*
X132877300Y-158770300D01*
X133105900Y-158719500D01*
X133309100Y-158592500D01*
X133461500Y-158440100D01*
X133588500Y-158262300D01*
X133690100Y-157957500D01*
X133690100Y-157754300D01*
X133664700Y-157601900D01*
X133613900Y-157474900D01*
X133486900Y-157246300D01*
X133385300Y-157119300D01*
X130007100Y-153741100D01*
X129854700Y-153664900D01*
X129651500Y-153639500D01*
X129524500Y-153664900D01*
X129448300Y-153690300D01*
X129295900Y-153817300D01*
X129219700Y-153918900D01*
X129168900Y-154071300D01*
X129168900Y-154223700D01*
X129194300Y-154350700D01*
X129245100Y-154452300D01*
X129346700Y-154630100D01*
X132597900Y-157957500D01*
X132674100Y-157982900D01*
X132750300Y-157957500D01*
X132801100Y-157906700D01*
X132851900Y-157830500D01*
X132877300Y-157728900D01*
X132877300Y-157652700D01*
X132851900Y-157576500D01*
X132826500Y-157525700D01*
X130743700Y-155442900D01*
X130642100Y-155417500D01*
X130540500Y-155468300D01*
X130489700Y-155519100D01*
X130261100Y-155290500D01*
X130311900Y-155188900D01*
X130438900Y-155138100D01*
X130616700Y-155087300D01*
X130845300Y-155112700D01*
X130997700Y-155214300D01*
X133080500Y-157297100D01*
X133207500Y-157525700D01*
X133232900Y-157703500D01*
X133207500Y-157855900D01*
X133131300Y-158033700D01*
X133004300Y-158186100D01*
X132826500Y-158287700D01*
X132623300Y-158313100D01*
X132420100Y-158236900D01*
X132216900Y-158033700D01*
X130083300Y-155950900D01*
X129626100Y-155417500D01*
X129245100Y-154934900D01*
X129016500Y-154553900D01*
X128864100Y-154198300D01*
X128838700Y-153893500D01*
X128889500Y-153588700D01*
X129092700Y-153360100D01*
X129321300Y-153258500D01*
X129651500Y-153182300D01*
X130007100Y-153233100D01*
G37*
X130007100Y-153233100D02*
X130311900Y-153410900D01*
X130540500Y-153614100D01*
X133588500Y-156662100D01*
X133918700Y-157043100D01*
X134121900Y-157449500D01*
X134172700Y-157678100D01*
X134172700Y-157957500D01*
X134121900Y-158287700D01*
X134020300Y-158567100D01*
X133817100Y-158846500D01*
X133639300Y-158998900D01*
X133334500Y-159176700D01*
X133131300Y-159252900D01*
X132851900Y-159278300D01*
X132445500Y-159252900D01*
X132064500Y-159125900D01*
X131708900Y-158846500D01*
X131226300Y-158363900D01*
X130692900Y-157855900D01*
X130159500Y-157373300D01*
X129549900Y-156839900D01*
X129219700Y-156585900D01*
X128813300Y-156281100D01*
X128229100Y-155950900D01*
X127797300Y-155722300D01*
X127187700Y-155519100D01*
X126781300Y-155417500D01*
X126527300Y-155392100D01*
X126298700Y-155341300D01*
X128381500Y-153258500D01*
X128533900Y-154071300D01*
X128737100Y-154604700D01*
X128991100Y-155061900D01*
X129321300Y-155544500D01*
X129727700Y-156077900D01*
X130032500Y-156408100D01*
X130388100Y-156789100D01*
X132267700Y-158643300D01*
X132470900Y-158770300D01*
X132699500Y-158795700D01*
X132877300Y-158770300D01*
X133105900Y-158719500D01*
X133309100Y-158592500D01*
X133461500Y-158440100D01*
X133588500Y-158262300D01*
X133690100Y-157957500D01*
X133690100Y-157754300D01*
X133664700Y-157601900D01*
X133613900Y-157474900D01*
X133486900Y-157246300D01*
X133385300Y-157119300D01*
X130007100Y-153741100D01*
X129854700Y-153664900D01*
X129651500Y-153639500D01*
X129524500Y-153664900D01*
X129448300Y-153690300D01*
X129295900Y-153817300D01*
X129219700Y-153918900D01*
X129168900Y-154071300D01*
X129168900Y-154223700D01*
X129194300Y-154350700D01*
X129245100Y-154452300D01*
X129346700Y-154630100D01*
X132597900Y-157957500D01*
X132674100Y-157982900D01*
X132750300Y-157957500D01*
X132801100Y-157906700D01*
X132851900Y-157830500D01*
X132877300Y-157728900D01*
X132877300Y-157652700D01*
X132851900Y-157576500D01*
X132826500Y-157525700D01*
X130743700Y-155442900D01*
X130642100Y-155417500D01*
X130540500Y-155468300D01*
X130489700Y-155519100D01*
X130261100Y-155290500D01*
X130311900Y-155188900D01*
X130438900Y-155138100D01*
X130616700Y-155087300D01*
X130845300Y-155112700D01*
X130997700Y-155214300D01*
X133080500Y-157297100D01*
X133207500Y-157525700D01*
X133232900Y-157703500D01*
X133207500Y-157855900D01*
X133131300Y-158033700D01*
X133004300Y-158186100D01*
X132826500Y-158287700D01*
X132623300Y-158313100D01*
X132420100Y-158236900D01*
X132216900Y-158033700D01*
X130083300Y-155950900D01*
X129626100Y-155417500D01*
X129245100Y-154934900D01*
X129016500Y-154553900D01*
X128864100Y-154198300D01*
X128838700Y-153893500D01*
X128889500Y-153588700D01*
X129092700Y-153360100D01*
X129321300Y-153258500D01*
X129651500Y-153182300D01*
X130007100Y-153233100D01*
G36*
X129141300Y-156906500D02*
G01*
X128811100Y-157236700D01*
X128887300Y-157312900D01*
X128658700Y-157541500D01*
X128277700Y-157160500D01*
X128506300Y-156931900D01*
X128582500Y-157008100D01*
X128912700Y-156677900D01*
X129141300Y-156906500D01*
G37*
X129141300Y-156906500D02*
X128811100Y-157236700D01*
X128887300Y-157312900D01*
X128658700Y-157541500D01*
X128277700Y-157160500D01*
X128506300Y-156931900D01*
X128582500Y-157008100D01*
X128912700Y-156677900D01*
X129141300Y-156906500D01*
D14*
X136743266Y-122553285D02*
X136743266Y-122839000D01*
X136943266Y-122496142D02*
X136243266Y-122696142D01*
X136943266Y-122896142D01*
X136943266Y-123181857D02*
X136909933Y-123124714D01*
X136843266Y-123096142D01*
X136243266Y-123096142D01*
X136909933Y-123381857D02*
X136943266Y-123439000D01*
X136943266Y-123553285D01*
X136909933Y-123610428D01*
X136843266Y-123639000D01*
X136809933Y-123639000D01*
X136743266Y-123610428D01*
X136709933Y-123553285D01*
X136709933Y-123467571D01*
X136676600Y-123410428D01*
X136609933Y-123381857D01*
X136576600Y-123381857D01*
X136509933Y-123410428D01*
X136476600Y-123467571D01*
X136476600Y-123553285D01*
X136509933Y-123610428D01*
X136943266Y-123981857D02*
X136909933Y-123924714D01*
X136876600Y-123896142D01*
X136809933Y-123867571D01*
X136609933Y-123867571D01*
X136543266Y-123896142D01*
X136509933Y-123924714D01*
X136476600Y-123981857D01*
X136476600Y-124067571D01*
X136509933Y-124124714D01*
X136543266Y-124153285D01*
X136609933Y-124181857D01*
X136809933Y-124181857D01*
X136876600Y-124153285D01*
X136909933Y-124124714D01*
X136943266Y-124067571D01*
X136943266Y-123981857D01*
X136909933Y-124467571D02*
X136943266Y-124467571D01*
X137009933Y-124439000D01*
X137043266Y-124410428D01*
X136476600Y-125124714D02*
X136943266Y-125267571D01*
X136476600Y-125410428D02*
X136943266Y-125267571D01*
X137109933Y-125210428D01*
X137143266Y-125181857D01*
X137176600Y-125124714D01*
X136943266Y-125724714D02*
X136909933Y-125667571D01*
X136876600Y-125639000D01*
X136809933Y-125610428D01*
X136609933Y-125610428D01*
X136543266Y-125639000D01*
X136509933Y-125667571D01*
X136476600Y-125724714D01*
X136476600Y-125810428D01*
X136509933Y-125867571D01*
X136543266Y-125896142D01*
X136609933Y-125924714D01*
X136809933Y-125924714D01*
X136876600Y-125896142D01*
X136909933Y-125867571D01*
X136943266Y-125810428D01*
X136943266Y-125724714D01*
X136476600Y-126439000D02*
X136943266Y-126439000D01*
X136476600Y-126181857D02*
X136843266Y-126181857D01*
X136909933Y-126210428D01*
X136943266Y-126267571D01*
X136943266Y-126353285D01*
X136909933Y-126410428D01*
X136876600Y-126439000D01*
X136909933Y-127153285D02*
X136943266Y-127210428D01*
X136943266Y-127324714D01*
X136909933Y-127381857D01*
X136843266Y-127410428D01*
X136809933Y-127410428D01*
X136743266Y-127381857D01*
X136709933Y-127324714D01*
X136709933Y-127239000D01*
X136676600Y-127181857D01*
X136609933Y-127153285D01*
X136576600Y-127153285D01*
X136509933Y-127181857D01*
X136476600Y-127239000D01*
X136476600Y-127324714D01*
X136509933Y-127381857D01*
X136943266Y-127667571D02*
X136243266Y-127667571D01*
X136943266Y-127924714D02*
X136576600Y-127924714D01*
X136509933Y-127896142D01*
X136476600Y-127839000D01*
X136476600Y-127753285D01*
X136509933Y-127696142D01*
X136543266Y-127667571D01*
X136943266Y-128296142D02*
X136909933Y-128239000D01*
X136876600Y-128210428D01*
X136809933Y-128181857D01*
X136609933Y-128181857D01*
X136543266Y-128210428D01*
X136509933Y-128239000D01*
X136476600Y-128296142D01*
X136476600Y-128381857D01*
X136509933Y-128439000D01*
X136543266Y-128467571D01*
X136609933Y-128496142D01*
X136809933Y-128496142D01*
X136876600Y-128467571D01*
X136909933Y-128439000D01*
X136943266Y-128381857D01*
X136943266Y-128296142D01*
X136476600Y-129010428D02*
X136943266Y-129010428D01*
X136476600Y-128753285D02*
X136843266Y-128753285D01*
X136909933Y-128781857D01*
X136943266Y-128839000D01*
X136943266Y-128924714D01*
X136909933Y-128981857D01*
X136876600Y-129010428D01*
X136943266Y-129381857D02*
X136909933Y-129324714D01*
X136843266Y-129296142D01*
X136243266Y-129296142D01*
X136943266Y-129867571D02*
X136243266Y-129867571D01*
X136909933Y-129867571D02*
X136943266Y-129810428D01*
X136943266Y-129696142D01*
X136909933Y-129639000D01*
X136876600Y-129610428D01*
X136809933Y-129581857D01*
X136609933Y-129581857D01*
X136543266Y-129610428D01*
X136509933Y-129639000D01*
X136476600Y-129696142D01*
X136476600Y-129810428D01*
X136509933Y-129867571D01*
X136909933Y-130867571D02*
X136943266Y-130810428D01*
X136943266Y-130696142D01*
X136909933Y-130639000D01*
X136876600Y-130610428D01*
X136809933Y-130581857D01*
X136609933Y-130581857D01*
X136543266Y-130610428D01*
X136509933Y-130639000D01*
X136476600Y-130696142D01*
X136476600Y-130810428D01*
X136509933Y-130867571D01*
X136943266Y-131124714D02*
X136243266Y-131124714D01*
X136943266Y-131381857D02*
X136576600Y-131381857D01*
X136509933Y-131353285D01*
X136476600Y-131296142D01*
X136476600Y-131210428D01*
X136509933Y-131153285D01*
X136543266Y-131124714D01*
X136909933Y-131896142D02*
X136943266Y-131839000D01*
X136943266Y-131724714D01*
X136909933Y-131667571D01*
X136843266Y-131639000D01*
X136576600Y-131639000D01*
X136509933Y-131667571D01*
X136476600Y-131724714D01*
X136476600Y-131839000D01*
X136509933Y-131896142D01*
X136576600Y-131924714D01*
X136643266Y-131924714D01*
X136709933Y-131639000D01*
X136909933Y-132439000D02*
X136943266Y-132381857D01*
X136943266Y-132267571D01*
X136909933Y-132210428D01*
X136876600Y-132181857D01*
X136809933Y-132153285D01*
X136609933Y-132153285D01*
X136543266Y-132181857D01*
X136509933Y-132210428D01*
X136476600Y-132267571D01*
X136476600Y-132381857D01*
X136509933Y-132439000D01*
X136943266Y-132696142D02*
X136243266Y-132696142D01*
X136676600Y-132753285D02*
X136943266Y-132924714D01*
X136476600Y-132924714D02*
X136743266Y-132696142D01*
X136943266Y-133724714D02*
X136909933Y-133667571D01*
X136876600Y-133639000D01*
X136809933Y-133610428D01*
X136609933Y-133610428D01*
X136543266Y-133639000D01*
X136509933Y-133667571D01*
X136476600Y-133724714D01*
X136476600Y-133810428D01*
X136509933Y-133867571D01*
X136543266Y-133896142D01*
X136609933Y-133924714D01*
X136809933Y-133924714D01*
X136876600Y-133896142D01*
X136909933Y-133867571D01*
X136943266Y-133810428D01*
X136943266Y-133724714D01*
X136476600Y-134439000D02*
X136943266Y-134439000D01*
X136476600Y-134181857D02*
X136843266Y-134181857D01*
X136909933Y-134210428D01*
X136943266Y-134267571D01*
X136943266Y-134353285D01*
X136909933Y-134410428D01*
X136876600Y-134439000D01*
X136476600Y-134639000D02*
X136476600Y-134867571D01*
X136243266Y-134724714D02*
X136843266Y-134724714D01*
X136909933Y-134753285D01*
X136943266Y-134810428D01*
X136943266Y-134867571D01*
X136943266Y-135610428D02*
X136909933Y-135553285D01*
X136876600Y-135524714D01*
X136809933Y-135496142D01*
X136609933Y-135496142D01*
X136543266Y-135524714D01*
X136509933Y-135553285D01*
X136476600Y-135610428D01*
X136476600Y-135696142D01*
X136509933Y-135753285D01*
X136543266Y-135781857D01*
X136609933Y-135810428D01*
X136809933Y-135810428D01*
X136876600Y-135781857D01*
X136909933Y-135753285D01*
X136943266Y-135696142D01*
X136943266Y-135610428D01*
X136476600Y-136324714D02*
X136943266Y-136324714D01*
X136476600Y-136067571D02*
X136843266Y-136067571D01*
X136909933Y-136096142D01*
X136943266Y-136153285D01*
X136943266Y-136239000D01*
X136909933Y-136296142D01*
X136876600Y-136324714D01*
X136943266Y-136610428D02*
X136476600Y-136610428D01*
X136609933Y-136610428D02*
X136543266Y-136639000D01*
X136509933Y-136667571D01*
X136476600Y-136724714D01*
X136476600Y-136781857D01*
X136909933Y-137667571D02*
X136943266Y-137610428D01*
X136943266Y-137496142D01*
X136909933Y-137439000D01*
X136843266Y-137410428D01*
X136576600Y-137410428D01*
X136509933Y-137439000D01*
X136476600Y-137496142D01*
X136476600Y-137610428D01*
X136509933Y-137667571D01*
X136576600Y-137696142D01*
X136643266Y-137696142D01*
X136709933Y-137410428D01*
X136943266Y-137896142D02*
X136476600Y-138210428D01*
X136476600Y-137896142D02*
X136943266Y-138210428D01*
X136476600Y-138353285D02*
X136476600Y-138581857D01*
X136243266Y-138439000D02*
X136843266Y-138439000D01*
X136909933Y-138467571D01*
X136943266Y-138524714D01*
X136943266Y-138581857D01*
X136909933Y-139010428D02*
X136943266Y-138953285D01*
X136943266Y-138839000D01*
X136909933Y-138781857D01*
X136843266Y-138753285D01*
X136576600Y-138753285D01*
X136509933Y-138781857D01*
X136476600Y-138839000D01*
X136476600Y-138953285D01*
X136509933Y-139010428D01*
X136576600Y-139039000D01*
X136643266Y-139039000D01*
X136709933Y-138753285D01*
X136476600Y-139296142D02*
X136943266Y-139296142D01*
X136543266Y-139296142D02*
X136509933Y-139324714D01*
X136476600Y-139381857D01*
X136476600Y-139467571D01*
X136509933Y-139524714D01*
X136576600Y-139553285D01*
X136943266Y-139553285D01*
X136909933Y-139810428D02*
X136943266Y-139867571D01*
X136943266Y-139981857D01*
X136909933Y-140039000D01*
X136843266Y-140067571D01*
X136809933Y-140067571D01*
X136743266Y-140039000D01*
X136709933Y-139981857D01*
X136709933Y-139896142D01*
X136676600Y-139839000D01*
X136609933Y-139810428D01*
X136576600Y-139810428D01*
X136509933Y-139839000D01*
X136476600Y-139896142D01*
X136476600Y-139981857D01*
X136509933Y-140039000D01*
X136943266Y-140324714D02*
X136476600Y-140324714D01*
X136243266Y-140324714D02*
X136276600Y-140296142D01*
X136309933Y-140324714D01*
X136276600Y-140353285D01*
X136243266Y-140324714D01*
X136309933Y-140324714D01*
X136943266Y-140696142D02*
X136909933Y-140639000D01*
X136876600Y-140610428D01*
X136809933Y-140581857D01*
X136609933Y-140581857D01*
X136543266Y-140610428D01*
X136509933Y-140639000D01*
X136476600Y-140696142D01*
X136476600Y-140781857D01*
X136509933Y-140839000D01*
X136543266Y-140867571D01*
X136609933Y-140896142D01*
X136809933Y-140896142D01*
X136876600Y-140867571D01*
X136909933Y-140839000D01*
X136943266Y-140781857D01*
X136943266Y-140696142D01*
X136476600Y-141153285D02*
X136943266Y-141153285D01*
X136543266Y-141153285D02*
X136509933Y-141181857D01*
X136476600Y-141239000D01*
X136476600Y-141324714D01*
X136509933Y-141381857D01*
X136576600Y-141410428D01*
X136943266Y-141410428D01*
X136943266Y-142153285D02*
X136476600Y-142153285D01*
X136543266Y-142153285D02*
X136509933Y-142181857D01*
X136476600Y-142239000D01*
X136476600Y-142324714D01*
X136509933Y-142381857D01*
X136576600Y-142410428D01*
X136943266Y-142410428D01*
X136576600Y-142410428D02*
X136509933Y-142439000D01*
X136476600Y-142496142D01*
X136476600Y-142581857D01*
X136509933Y-142639000D01*
X136576600Y-142667571D01*
X136943266Y-142667571D01*
X136943266Y-143039000D02*
X136909933Y-142981857D01*
X136876600Y-142953285D01*
X136809933Y-142924714D01*
X136609933Y-142924714D01*
X136543266Y-142953285D01*
X136509933Y-142981857D01*
X136476600Y-143039000D01*
X136476600Y-143124714D01*
X136509933Y-143181857D01*
X136543266Y-143210428D01*
X136609933Y-143239000D01*
X136809933Y-143239000D01*
X136876600Y-143210428D01*
X136909933Y-143181857D01*
X136943266Y-143124714D01*
X136943266Y-143039000D01*
X136943266Y-143753285D02*
X136243266Y-143753285D01*
X136909933Y-143753285D02*
X136943266Y-143696142D01*
X136943266Y-143581857D01*
X136909933Y-143524714D01*
X136876600Y-143496142D01*
X136809933Y-143467571D01*
X136609933Y-143467571D01*
X136543266Y-143496142D01*
X136509933Y-143524714D01*
X136476600Y-143581857D01*
X136476600Y-143696142D01*
X136509933Y-143753285D01*
X136476600Y-144296142D02*
X136943266Y-144296142D01*
X136476600Y-144039000D02*
X136843266Y-144039000D01*
X136909933Y-144067571D01*
X136943266Y-144124714D01*
X136943266Y-144210428D01*
X136909933Y-144267571D01*
X136876600Y-144296142D01*
X136943266Y-144667571D02*
X136909933Y-144610428D01*
X136843266Y-144581857D01*
X136243266Y-144581857D01*
X136909933Y-145124714D02*
X136943266Y-145067571D01*
X136943266Y-144953285D01*
X136909933Y-144896142D01*
X136843266Y-144867571D01*
X136576600Y-144867571D01*
X136509933Y-144896142D01*
X136476600Y-144953285D01*
X136476600Y-145067571D01*
X136509933Y-145124714D01*
X136576600Y-145153285D01*
X136643266Y-145153285D01*
X136709933Y-144867571D01*
X136909933Y-145381857D02*
X136943266Y-145439000D01*
X136943266Y-145553285D01*
X136909933Y-145610428D01*
X136843266Y-145639000D01*
X136809933Y-145639000D01*
X136743266Y-145610428D01*
X136709933Y-145553285D01*
X136709933Y-145467571D01*
X136676600Y-145410428D01*
X136609933Y-145381857D01*
X136576600Y-145381857D01*
X136509933Y-145410428D01*
X136476600Y-145467571D01*
X136476600Y-145553285D01*
X136509933Y-145610428D01*
X136876600Y-145896142D02*
X136909933Y-145924714D01*
X136943266Y-145896142D01*
X136909933Y-145867571D01*
X136876600Y-145896142D01*
X136943266Y-145896142D01*
X136676600Y-145896142D02*
X136276600Y-145867571D01*
X136243266Y-145896142D01*
X136276600Y-145924714D01*
X136676600Y-145896142D01*
X136243266Y-145896142D01*
D15*
X101950814Y-127347157D02*
X106450814Y-127347157D01*
X104307957Y-129251919D02*
X104736528Y-129442395D01*
X104950814Y-129823347D01*
X104307957Y-127347157D02*
X104736528Y-127537633D01*
X104950814Y-127918585D01*
X104950814Y-128680490D01*
X104736528Y-129061442D01*
X104307957Y-129251919D01*
X101950814Y-129251919D01*
X100450814Y-130966204D02*
X104950814Y-132299538D01*
X100450814Y-133632871D01*
X100450814Y-135728109D02*
X100450814Y-136490014D01*
X100665100Y-136870966D01*
X101093671Y-137251919D01*
X101950814Y-137442395D01*
X103450814Y-137442395D01*
X104307957Y-137251919D01*
X104736528Y-136870966D01*
X104950814Y-136490014D01*
X104950814Y-135728109D01*
X104736528Y-135347157D01*
X104307957Y-134966204D01*
X103450814Y-134775728D01*
X101950814Y-134775728D01*
X101093671Y-134966204D01*
X100665100Y-135347157D01*
X100450814Y-135728109D01*
X100450814Y-138775728D02*
X104950814Y-141442395D01*
X100450814Y-141442395D02*
X104950814Y-138775728D01*
D14*
X130818293Y-113579956D02*
X131583773Y-113602131D01*
X131077697Y-113817085D01*
X131626772Y-113845988D01*
X130915040Y-114128635D01*
X131745018Y-114516595D02*
X131358129Y-114584814D01*
X131282411Y-114566735D01*
X131236489Y-114511973D01*
X131214990Y-114390044D01*
X131239412Y-114322878D01*
X131709846Y-114522797D02*
X131734268Y-114455631D01*
X131707394Y-114303220D01*
X131661473Y-114248458D01*
X131585754Y-114230379D01*
X131515411Y-114242782D01*
X131450442Y-114285668D01*
X131426020Y-114352834D01*
X131452894Y-114505245D01*
X131428472Y-114572411D01*
X131798766Y-114821417D02*
X131306362Y-114908241D01*
X131060160Y-114951653D02*
X131089957Y-114914969D01*
X131130504Y-114939249D01*
X131100707Y-114975933D01*
X131060160Y-114951653D01*
X131130504Y-114939249D01*
X131343986Y-115121616D02*
X131386984Y-115365473D01*
X131113908Y-115256474D02*
X131746999Y-115144843D01*
X131822717Y-115162922D01*
X131868639Y-115217684D01*
X131879388Y-115278649D01*
X131887215Y-115528708D02*
X131922387Y-115522506D01*
X131987356Y-115479620D01*
X132017152Y-115442936D01*
X131548229Y-116279937D02*
X131591228Y-116523794D01*
X132056758Y-116284560D02*
X131423667Y-116396190D01*
X131358698Y-116439076D01*
X131334276Y-116506242D01*
X131345026Y-116567206D01*
X132121255Y-116650345D02*
X131628852Y-116737169D01*
X131769538Y-116712362D02*
X131704570Y-116755248D01*
X131674773Y-116791932D01*
X131650351Y-116859098D01*
X131661101Y-116920062D01*
X132198955Y-117296672D02*
X132223377Y-117229506D01*
X132201878Y-117107577D01*
X132155956Y-117052815D01*
X132080238Y-117034736D01*
X131798865Y-117084350D01*
X131733896Y-117127235D01*
X131709474Y-117194402D01*
X131730973Y-117316330D01*
X131776895Y-117371093D01*
X131852613Y-117389171D01*
X131922956Y-117376768D01*
X131939551Y-117059543D01*
X132295702Y-117845351D02*
X132320124Y-117778185D01*
X132298625Y-117656256D01*
X132252703Y-117601493D01*
X132176985Y-117583415D01*
X131895611Y-117633029D01*
X131830643Y-117675914D01*
X131806221Y-117743080D01*
X131827720Y-117865009D01*
X131873641Y-117919771D01*
X131949360Y-117937850D01*
X132019703Y-117925447D01*
X132036298Y-117608222D01*
X132518992Y-118906024D02*
X131780387Y-119036260D01*
X132483821Y-118912226D02*
X132508243Y-118845060D01*
X132486744Y-118723131D01*
X132440822Y-118668369D01*
X132400276Y-118644088D01*
X132324557Y-118626009D01*
X132113527Y-118663220D01*
X132048559Y-118706105D01*
X132018762Y-118742789D01*
X131994340Y-118809955D01*
X132015839Y-118931884D01*
X132061760Y-118986646D01*
X132580568Y-119460904D02*
X132604990Y-119393738D01*
X132583490Y-119271810D01*
X132537569Y-119217047D01*
X132461851Y-119198968D01*
X132180477Y-119248582D01*
X132115509Y-119291468D01*
X132091086Y-119358634D01*
X132112586Y-119480562D01*
X132158507Y-119535325D01*
X132234225Y-119553404D01*
X132304569Y-119541000D01*
X132321164Y-119223775D01*
X132628941Y-119735244D02*
X132674862Y-119790006D01*
X132696362Y-119911935D01*
X132671940Y-119979101D01*
X132606971Y-120021986D01*
X132571799Y-120028188D01*
X132496081Y-120010109D01*
X132450160Y-119955347D01*
X132434035Y-119863900D01*
X132388114Y-119809138D01*
X132312396Y-119791059D01*
X132277224Y-119797261D01*
X132212255Y-119840146D01*
X132187833Y-119907312D01*
X132203958Y-119998759D01*
X132249879Y-120053521D01*
X132760860Y-120277720D02*
X132268456Y-120364545D01*
X132022254Y-120407957D02*
X132052051Y-120371273D01*
X132092597Y-120395553D01*
X132062800Y-120432237D01*
X132022254Y-120407957D01*
X132092597Y-120395553D01*
X132370577Y-120943705D02*
X132968496Y-120838276D01*
X133033465Y-120795390D01*
X133063262Y-120758707D01*
X133087684Y-120691541D01*
X133071559Y-120600094D01*
X133025638Y-120545332D01*
X132827810Y-120863083D02*
X132852232Y-120795917D01*
X132830732Y-120673988D01*
X132784811Y-120619226D01*
X132744264Y-120594945D01*
X132668546Y-120576867D01*
X132457516Y-120614077D01*
X132392547Y-120656963D01*
X132362750Y-120693646D01*
X132338328Y-120760812D01*
X132359828Y-120882741D01*
X132405749Y-120937504D01*
X132424326Y-121248527D02*
X132916729Y-121161703D01*
X132494669Y-121236123D02*
X132464872Y-121272807D01*
X132440450Y-121339973D01*
X132456575Y-121431420D01*
X132502496Y-121486182D01*
X132578214Y-121504261D01*
X132965103Y-121436042D01*
X132078968Y-112336194D02*
X132121967Y-112580052D01*
X132587497Y-112340817D02*
X131954406Y-112452448D01*
X131889437Y-112495333D01*
X131865015Y-112562499D01*
X131875765Y-112623464D01*
X132651994Y-112706603D02*
X132159591Y-112793427D01*
X131913389Y-112836839D02*
X131943185Y-112800155D01*
X131983732Y-112824435D01*
X131953935Y-112861119D01*
X131913389Y-112836839D01*
X131983732Y-112824435D01*
X132721867Y-113102870D02*
X132675946Y-113048108D01*
X132600228Y-113030029D01*
X131967137Y-113141660D01*
X132772693Y-113596786D02*
X132797115Y-113529620D01*
X132775615Y-113407692D01*
X132729694Y-113352929D01*
X132653976Y-113334851D01*
X132372602Y-113384464D01*
X132307634Y-113427350D01*
X132283212Y-113494516D01*
X132304711Y-113616445D01*
X132350632Y-113671207D01*
X132426350Y-113689286D01*
X132496694Y-113676882D01*
X132513289Y-113359657D01*
X132821066Y-113871126D02*
X132866987Y-113925888D01*
X132888487Y-114047817D01*
X132864065Y-114114983D01*
X132799096Y-114157868D01*
X132763924Y-114164070D01*
X132688206Y-114145991D01*
X132642285Y-114091229D01*
X132626160Y-113999782D01*
X132580239Y-113945020D01*
X132504521Y-113926941D01*
X132469349Y-113933143D01*
X132404380Y-113976029D01*
X132379958Y-114043195D01*
X132396083Y-114134641D01*
X132442004Y-114189404D01*
X133087355Y-115175656D02*
X132700466Y-115243875D01*
X132624748Y-115225796D01*
X132578827Y-115171034D01*
X132557328Y-115049105D01*
X132581750Y-114981939D01*
X133052184Y-115181858D02*
X133076606Y-115114692D01*
X133049731Y-114962281D01*
X133003810Y-114907519D01*
X132928092Y-114889440D01*
X132857748Y-114901843D01*
X132792780Y-114944729D01*
X132768358Y-115011895D01*
X132795232Y-115164306D01*
X132770810Y-115231472D01*
X132648700Y-115567302D02*
X133141103Y-115480478D01*
X132719043Y-115554898D02*
X132689246Y-115591582D01*
X132664824Y-115658748D01*
X132680949Y-115750195D01*
X132726870Y-115804957D01*
X132802588Y-115823036D01*
X133189477Y-115754817D01*
X133291599Y-116333978D02*
X132552993Y-116464214D01*
X133256427Y-116340179D02*
X133280849Y-116273013D01*
X133259350Y-116151085D01*
X133213428Y-116096322D01*
X133172882Y-116072042D01*
X133097163Y-116053963D01*
X132886133Y-116091173D01*
X132821165Y-116134059D01*
X132791368Y-116170743D01*
X132766946Y-116237909D01*
X132788445Y-116359838D01*
X132834366Y-116414600D01*
X133390797Y-117102233D02*
X133436719Y-117156996D01*
X133458218Y-117278924D01*
X133433796Y-117346090D01*
X133368827Y-117388976D01*
X133333656Y-117395178D01*
X133257938Y-117377099D01*
X133212016Y-117322336D01*
X133195892Y-117230890D01*
X133149970Y-117176127D01*
X133074252Y-117158049D01*
X133039080Y-117164250D01*
X132974112Y-117207136D01*
X132949690Y-117274302D01*
X132965814Y-117365748D01*
X133011736Y-117420511D01*
X133538840Y-117736156D02*
X133492919Y-117681394D01*
X133452373Y-117657113D01*
X133376654Y-117639035D01*
X133165624Y-117676245D01*
X133100656Y-117719131D01*
X133070859Y-117755814D01*
X133046437Y-117822980D01*
X133062561Y-117914427D01*
X133108482Y-117969189D01*
X133149029Y-117993470D01*
X133224747Y-118011549D01*
X133435777Y-117974338D01*
X133500746Y-117931453D01*
X133530543Y-117894769D01*
X133554965Y-117827603D01*
X133538840Y-117736156D01*
X133116309Y-118219248D02*
X133159308Y-118463106D01*
X133624838Y-118223871D02*
X132991747Y-118335502D01*
X132926778Y-118378387D01*
X132902356Y-118445553D01*
X132913106Y-118506518D01*
X133180807Y-118585034D02*
X133223806Y-118828891D01*
X132950730Y-118719893D02*
X133583820Y-118608262D01*
X133659539Y-118626340D01*
X133705460Y-118681103D01*
X133716210Y-118742067D01*
X133250680Y-118981302D02*
X133764583Y-119016406D01*
X133434365Y-119200352D01*
X133807582Y-119260264D01*
X133336677Y-119469016D01*
X133920453Y-119900389D02*
X133533564Y-119968608D01*
X133457846Y-119950529D01*
X133411925Y-119895766D01*
X133390425Y-119773838D01*
X133414847Y-119706672D01*
X133885281Y-119906590D02*
X133909703Y-119839424D01*
X133882829Y-119687014D01*
X133836908Y-119632251D01*
X133761190Y-119614172D01*
X133690846Y-119626576D01*
X133625878Y-119669461D01*
X133601456Y-119736627D01*
X133628330Y-119889038D01*
X133603908Y-119956204D01*
X133974201Y-120205210D02*
X133481797Y-120292034D01*
X133622484Y-120267227D02*
X133557516Y-120310113D01*
X133527719Y-120346797D01*
X133503297Y-120413963D01*
X133514046Y-120474927D01*
X134051901Y-120851537D02*
X134076323Y-120784371D01*
X134054824Y-120662442D01*
X134008902Y-120607680D01*
X133933184Y-120589601D01*
X133651810Y-120639215D01*
X133586842Y-120682100D01*
X133562420Y-120749266D01*
X133583919Y-120871195D01*
X133629840Y-120925958D01*
X133705559Y-120944036D01*
X133775902Y-120931633D01*
X133792497Y-120614408D01*
X134070477Y-121162560D02*
X134111024Y-121186840D01*
X134140821Y-121150157D01*
X134100274Y-121125876D01*
X134070477Y-121162560D01*
X134140821Y-121150157D01*
X133859447Y-121199770D02*
X133432012Y-121243709D01*
X133402215Y-121280393D01*
X133442762Y-121304673D01*
X133859447Y-121199770D01*
X133402215Y-121280393D01*
X134140350Y-121558828D02*
X134180897Y-121583108D01*
X134210694Y-121546424D01*
X134170147Y-121522144D01*
X134140350Y-121558828D01*
X134210694Y-121546424D01*
X133485760Y-121548530D02*
X133461338Y-121615696D01*
X133488212Y-121768107D01*
X133534134Y-121822870D01*
X133609852Y-121840948D01*
X133680195Y-121828545D01*
X133745164Y-121785659D01*
X133774961Y-121748975D01*
X133799383Y-121681809D01*
X133829180Y-121645126D01*
X133894148Y-121602240D01*
X133929320Y-121596038D01*
X134739550Y-119237367D02*
X134825547Y-119725081D01*
X134879295Y-120029903D02*
X134965292Y-120517617D01*
X134808010Y-120859649D02*
X135105038Y-121310153D01*
X135230071Y-120785228D01*
D16*
X128918942Y-146495171D02*
X128918942Y-146638028D01*
X128961800Y-146709457D01*
X129047514Y-146780885D01*
X129218942Y-146816600D01*
X129518942Y-146816600D01*
X129690371Y-146780885D01*
X129776085Y-146709457D01*
X129818942Y-146638028D01*
X129818942Y-146495171D01*
X129776085Y-146423742D01*
X129690371Y-146352314D01*
X129518942Y-146316600D01*
X129218942Y-146316600D01*
X129047514Y-146352314D01*
X128961800Y-146423742D01*
X128918942Y-146495171D01*
X129218942Y-147030885D02*
X129218942Y-147316600D01*
X129818942Y-147138028D02*
X129047514Y-147138028D01*
X128961800Y-147173742D01*
X128918942Y-147245171D01*
X128918942Y-147316600D01*
X129218942Y-147459457D02*
X129218942Y-147745171D01*
X129818942Y-147566600D02*
X129047514Y-147566600D01*
X128961800Y-147602314D01*
X128918942Y-147673742D01*
X128918942Y-147745171D01*
X129818942Y-147995171D02*
X129218942Y-147995171D01*
X128918942Y-147995171D02*
X128961800Y-147959457D01*
X129004657Y-147995171D01*
X128961800Y-148030885D01*
X128918942Y-147995171D01*
X129004657Y-147995171D01*
X129776085Y-148673742D02*
X129818942Y-148602314D01*
X129818942Y-148459457D01*
X129776085Y-148388028D01*
X129733228Y-148352314D01*
X129647514Y-148316600D01*
X129390371Y-148316600D01*
X129304657Y-148352314D01*
X129261800Y-148388028D01*
X129218942Y-148459457D01*
X129218942Y-148602314D01*
X129261800Y-148673742D01*
X129818942Y-148995171D02*
X129218942Y-148995171D01*
X128918942Y-148995171D02*
X128961800Y-148959457D01*
X129004657Y-148995171D01*
X128961800Y-149030885D01*
X128918942Y-148995171D01*
X129004657Y-148995171D01*
X129818942Y-149673742D02*
X129347514Y-149673742D01*
X129261800Y-149638028D01*
X129218942Y-149566600D01*
X129218942Y-149423742D01*
X129261800Y-149352314D01*
X129776085Y-149673742D02*
X129818942Y-149602314D01*
X129818942Y-149423742D01*
X129776085Y-149352314D01*
X129690371Y-149316600D01*
X129604657Y-149316600D01*
X129518942Y-149352314D01*
X129476085Y-149423742D01*
X129476085Y-149602314D01*
X129433228Y-149673742D01*
X129818942Y-150138028D02*
X129776085Y-150066600D01*
X129690371Y-150030885D01*
X128918942Y-150030885D01*
X129818942Y-150530885D02*
X129776085Y-150459457D01*
X129690371Y-150423742D01*
X128918942Y-150423742D01*
X129218942Y-150745171D02*
X129818942Y-150923742D01*
X129218942Y-151102314D02*
X129818942Y-150923742D01*
X130033228Y-150852314D01*
X130076085Y-150816600D01*
X130118942Y-150745171D01*
X131225085Y-146013028D02*
X131267942Y-146120171D01*
X131267942Y-146298742D01*
X131225085Y-146370171D01*
X131182228Y-146405885D01*
X131096514Y-146441600D01*
X131010800Y-146441600D01*
X130925085Y-146405885D01*
X130882228Y-146370171D01*
X130839371Y-146298742D01*
X130796514Y-146155885D01*
X130753657Y-146084457D01*
X130710800Y-146048742D01*
X130625085Y-146013028D01*
X130539371Y-146013028D01*
X130453657Y-146048742D01*
X130410800Y-146084457D01*
X130367942Y-146155885D01*
X130367942Y-146334457D01*
X130410800Y-146441600D01*
X130667942Y-147084457D02*
X131267942Y-147084457D01*
X130667942Y-146763028D02*
X131139371Y-146763028D01*
X131225085Y-146798742D01*
X131267942Y-146870171D01*
X131267942Y-146977314D01*
X131225085Y-147048742D01*
X131182228Y-147084457D01*
X130667942Y-147441600D02*
X131567942Y-147441600D01*
X130710800Y-147441600D02*
X130667942Y-147513028D01*
X130667942Y-147655885D01*
X130710800Y-147727314D01*
X130753657Y-147763028D01*
X130839371Y-147798742D01*
X131096514Y-147798742D01*
X131182228Y-147763028D01*
X131225085Y-147727314D01*
X131267942Y-147655885D01*
X131267942Y-147513028D01*
X131225085Y-147441600D01*
X130667942Y-148120171D02*
X131567942Y-148120171D01*
X130710800Y-148120171D02*
X130667942Y-148191600D01*
X130667942Y-148334457D01*
X130710800Y-148405885D01*
X130753657Y-148441600D01*
X130839371Y-148477314D01*
X131096514Y-148477314D01*
X131182228Y-148441600D01*
X131225085Y-148405885D01*
X131267942Y-148334457D01*
X131267942Y-148191600D01*
X131225085Y-148120171D01*
X131267942Y-148905885D02*
X131225085Y-148834457D01*
X131182228Y-148798742D01*
X131096514Y-148763028D01*
X130839371Y-148763028D01*
X130753657Y-148798742D01*
X130710800Y-148834457D01*
X130667942Y-148905885D01*
X130667942Y-149013028D01*
X130710800Y-149084457D01*
X130753657Y-149120171D01*
X130839371Y-149155885D01*
X131096514Y-149155885D01*
X131182228Y-149120171D01*
X131225085Y-149084457D01*
X131267942Y-149013028D01*
X131267942Y-148905885D01*
X131267942Y-149477314D02*
X130667942Y-149477314D01*
X130839371Y-149477314D02*
X130753657Y-149513028D01*
X130710800Y-149548742D01*
X130667942Y-149620171D01*
X130667942Y-149691600D01*
X130667942Y-149834457D02*
X130667942Y-150120171D01*
X130367942Y-149941600D02*
X131139371Y-149941600D01*
X131225085Y-149977314D01*
X131267942Y-150048742D01*
X131267942Y-150120171D01*
X131225085Y-150655885D02*
X131267942Y-150584457D01*
X131267942Y-150441600D01*
X131225085Y-150370171D01*
X131139371Y-150334457D01*
X130796514Y-150334457D01*
X130710800Y-150370171D01*
X130667942Y-150441600D01*
X130667942Y-150584457D01*
X130710800Y-150655885D01*
X130796514Y-150691600D01*
X130882228Y-150691600D01*
X130967942Y-150334457D01*
X131267942Y-151334457D02*
X130367942Y-151334457D01*
X131225085Y-151334457D02*
X131267942Y-151263028D01*
X131267942Y-151120171D01*
X131225085Y-151048742D01*
X131182228Y-151013028D01*
X131096514Y-150977314D01*
X130839371Y-150977314D01*
X130753657Y-151013028D01*
X130710800Y-151048742D01*
X130667942Y-151120171D01*
X130667942Y-151263028D01*
X130710800Y-151334457D01*
X132716942Y-144905885D02*
X131816942Y-144905885D01*
X132159800Y-144905885D02*
X132116942Y-144977314D01*
X132116942Y-145120171D01*
X132159800Y-145191600D01*
X132202657Y-145227314D01*
X132288371Y-145263028D01*
X132545514Y-145263028D01*
X132631228Y-145227314D01*
X132674085Y-145191600D01*
X132716942Y-145120171D01*
X132716942Y-144977314D01*
X132674085Y-144905885D01*
X132116942Y-145513028D02*
X132716942Y-145691600D01*
X132116942Y-145870171D02*
X132716942Y-145691600D01*
X132931228Y-145620171D01*
X132974085Y-145584457D01*
X133016942Y-145513028D01*
X132245514Y-146727314D02*
X132245514Y-146977314D01*
X132716942Y-147084457D02*
X132716942Y-146727314D01*
X131816942Y-146727314D01*
X131816942Y-147084457D01*
X132116942Y-147727314D02*
X132716942Y-147727314D01*
X132116942Y-147405885D02*
X132588371Y-147405885D01*
X132674085Y-147441600D01*
X132716942Y-147513028D01*
X132716942Y-147620171D01*
X132674085Y-147691600D01*
X132631228Y-147727314D01*
X132116942Y-148084457D02*
X133016942Y-148084457D01*
X132159800Y-148084457D02*
X132116942Y-148155885D01*
X132116942Y-148298742D01*
X132159800Y-148370171D01*
X132202657Y-148405885D01*
X132288371Y-148441600D01*
X132545514Y-148441600D01*
X132631228Y-148405885D01*
X132674085Y-148370171D01*
X132716942Y-148298742D01*
X132716942Y-148155885D01*
X132674085Y-148084457D01*
X132716942Y-148763028D02*
X131816942Y-148763028D01*
X132716942Y-149084457D02*
X132245514Y-149084457D01*
X132159800Y-149048742D01*
X132116942Y-148977314D01*
X132116942Y-148870171D01*
X132159800Y-148798742D01*
X132202657Y-148763028D01*
X132716942Y-149548742D02*
X132674085Y-149477314D01*
X132631228Y-149441600D01*
X132545514Y-149405885D01*
X132288371Y-149405885D01*
X132202657Y-149441600D01*
X132159800Y-149477314D01*
X132116942Y-149548742D01*
X132116942Y-149655885D01*
X132159800Y-149727314D01*
X132202657Y-149763028D01*
X132288371Y-149798742D01*
X132545514Y-149798742D01*
X132631228Y-149763028D01*
X132674085Y-149727314D01*
X132716942Y-149655885D01*
X132716942Y-149548742D01*
X132116942Y-150120171D02*
X132716942Y-150120171D01*
X132202657Y-150120171D02*
X132159800Y-150155885D01*
X132116942Y-150227314D01*
X132116942Y-150334457D01*
X132159800Y-150405885D01*
X132245514Y-150441600D01*
X132716942Y-150441600D01*
X132716942Y-150798742D02*
X132116942Y-150798742D01*
X131816942Y-150798742D02*
X131859800Y-150763028D01*
X131902657Y-150798742D01*
X131859800Y-150834457D01*
X131816942Y-150798742D01*
X131902657Y-150798742D01*
X132116942Y-151477314D02*
X132716942Y-151477314D01*
X132116942Y-151155885D02*
X132588371Y-151155885D01*
X132674085Y-151191600D01*
X132716942Y-151263028D01*
X132716942Y-151370171D01*
X132674085Y-151441600D01*
X132631228Y-151477314D01*
X132716942Y-151834457D02*
X132116942Y-151834457D01*
X132202657Y-151834457D02*
X132159800Y-151870171D01*
X132116942Y-151941600D01*
X132116942Y-152048742D01*
X132159800Y-152120171D01*
X132245514Y-152155885D01*
X132716942Y-152155885D01*
X132245514Y-152155885D02*
X132159800Y-152191600D01*
X132116942Y-152263028D01*
X132116942Y-152370171D01*
X132159800Y-152441600D01*
X132245514Y-152477314D01*
X132716942Y-152477314D01*
D17*
X119260100Y-157789300D03*
D18*
X119260100Y-148789300D03*
D19*
X119260100Y-154789300D03*
D20*
X114760100Y-155789300D03*
X123760100Y-155789300D03*
D21*
X110187600Y-128004300D03*
D22*
X112727600Y-128004300D03*
X110187600Y-130544300D03*
X112727600Y-130544300D03*
X110187600Y-133084300D03*
X112727600Y-133084300D03*
X110187600Y-135624300D03*
X112727600Y-135624300D03*
X110187600Y-138164300D03*
X112727600Y-138164300D03*
X110187600Y-140704300D03*
X112727600Y-140704300D03*
D23*
X78770100Y-155779300D03*
D24*
X154840100Y-157629300D03*
X154840100Y-152629300D03*
D25*
X117270100Y-151954300D03*
D26*
X121230100Y-151954300D03*
D23*
X78770100Y-112759300D03*
D27*
X88290100Y-110979300D03*
D28*
X90830100Y-110979300D03*
X93370100Y-110979300D03*
X95910100Y-110979300D03*
X98450100Y-110979300D03*
X100990100Y-110979300D03*
D29*
X103120400Y-158362800D03*
X106120400Y-158362800D03*
D30*
X109120400Y-158362800D03*
D31*
X99820400Y-158362800D03*
X112320400Y-158362800D03*
D23*
X139000000Y-112759300D03*
D32*
X87140100Y-134810550D03*
X86140100Y-132810550D03*
X86140100Y-135810550D03*
X89140100Y-133810550D03*
X87140100Y-133810550D03*
X88140100Y-135810550D03*
X89140100Y-136810550D03*
X87140100Y-132810550D03*
X86140100Y-134810550D03*
X90140100Y-136810550D03*
X89140100Y-134810550D03*
X86140100Y-133810550D03*
X88140100Y-133810550D03*
X89140100Y-132810550D03*
X90140100Y-133810550D03*
X88140100Y-134810550D03*
X90140100Y-132810550D03*
X88140100Y-136810550D03*
X89140100Y-135810550D03*
X87140100Y-135810550D03*
X86140100Y-136810550D03*
X87140100Y-136810550D03*
X90140100Y-134810550D03*
X90140100Y-135810550D03*
X88140100Y-132810550D03*
D24*
X154890100Y-111829300D03*
X154890100Y-116829300D03*
D23*
X139000000Y-155779300D03*
D33*
X114046000Y-147066000D03*
X143600000Y-110500000D03*
D34*
X103796200Y-155727400D03*
D35*
X105096200Y-155727400D03*
D33*
X90640100Y-147179300D03*
X93140100Y-147179300D03*
X87890100Y-147179300D03*
X90740100Y-115679300D03*
X95940100Y-115679300D03*
X102971600Y-147271300D03*
X122140100Y-147179300D03*
X93340100Y-115679300D03*
X143600000Y-151600000D03*
D36*
X153197600Y-141129300D03*
D37*
X153197600Y-142429300D03*
D38*
X153197600Y-143729300D03*
D33*
X105140100Y-115679300D03*
D39*
X156982600Y-143729300D03*
D37*
X156982600Y-142429300D03*
D40*
X156982600Y-141129300D03*
D41*
X108446200Y-155727400D03*
D42*
X107146200Y-155727400D03*
D33*
X106428100Y-147271300D03*
X85140100Y-147179300D03*
X143600000Y-158800000D03*
X126140100Y-147179300D03*
X143600000Y-117700000D03*
M02*
