G04 #@! TF.GenerationSoftware,KiCad,Pcbnew,(6.0.4-0)*
G04 #@! TF.CreationDate,2022-09-25T14:52:34+02:00*
G04 #@! TF.ProjectId,muVox,6d75566f-782e-46b6-9963-61645f706362,rc1*
G04 #@! TF.SameCoordinates,Original*
G04 #@! TF.FileFunction,Legend,Bot*
G04 #@! TF.FilePolarity,Positive*
%FSLAX46Y46*%
G04 Gerber Fmt 4.6, Leading zero omitted, Abs format (unit mm)*
G04 Created by KiCad (PCBNEW (6.0.4-0)) date 2022-09-25 14:52:34*
%MOMM*%
%LPD*%
G01*
G04 APERTURE LIST*
%ADD10C,0.175000*%
%ADD11C,0.150000*%
%ADD12C,0.100000*%
%ADD13C,0.600000*%
%ADD14C,0.225000*%
%ADD15C,0.200000*%
%ADD16C,0.250000*%
%ADD17C,0.120000*%
G04 APERTURE END LIST*
D10*
X114669566Y-127292700D02*
X113969566Y-127292700D01*
X113969566Y-127759366D02*
X113969566Y-127892700D01*
X114002900Y-127959366D01*
X114069566Y-128026033D01*
X114202900Y-128059366D01*
X114436233Y-128059366D01*
X114569566Y-128026033D01*
X114636233Y-127959366D01*
X114669566Y-127892700D01*
X114669566Y-127759366D01*
X114636233Y-127692700D01*
X114569566Y-127626033D01*
X114436233Y-127592700D01*
X114202900Y-127592700D01*
X114069566Y-127626033D01*
X114002900Y-127692700D01*
X113969566Y-127759366D01*
X113969566Y-128492700D02*
X113969566Y-128559366D01*
X114002900Y-128626033D01*
X114036233Y-128659366D01*
X114102900Y-128692700D01*
X114236233Y-128726033D01*
X114402900Y-128726033D01*
X114536233Y-128692700D01*
X114602900Y-128659366D01*
X114636233Y-128626033D01*
X114669566Y-128559366D01*
X114669566Y-128492700D01*
X114636233Y-128426033D01*
X114602900Y-128392700D01*
X114536233Y-128359366D01*
X114402900Y-128326033D01*
X114236233Y-128326033D01*
X114102900Y-128359366D01*
X114036233Y-128392700D01*
X114002900Y-128426033D01*
X113969566Y-128492700D01*
X115812566Y-129365233D02*
X115812566Y-129031900D01*
X115112566Y-129031900D01*
X115812566Y-129998566D02*
X115479233Y-129765233D01*
X115812566Y-129598566D02*
X115112566Y-129598566D01*
X115112566Y-129865233D01*
X115145900Y-129931900D01*
X115179233Y-129965233D01*
X115245900Y-129998566D01*
X115345900Y-129998566D01*
X115412566Y-129965233D01*
X115445900Y-129931900D01*
X115479233Y-129865233D01*
X115479233Y-129598566D01*
X115745900Y-130698566D02*
X115779233Y-130665233D01*
X115812566Y-130565233D01*
X115812566Y-130498566D01*
X115779233Y-130398566D01*
X115712566Y-130331900D01*
X115645900Y-130298566D01*
X115512566Y-130265233D01*
X115412566Y-130265233D01*
X115279233Y-130298566D01*
X115212566Y-130331900D01*
X115145900Y-130398566D01*
X115112566Y-130498566D01*
X115112566Y-130565233D01*
X115145900Y-130665233D01*
X115179233Y-130698566D01*
X115812566Y-131331900D02*
X115812566Y-130998566D01*
X115112566Y-130998566D01*
X115812566Y-131565233D02*
X115112566Y-131565233D01*
X115812566Y-131965233D02*
X115412566Y-131665233D01*
X115112566Y-131965233D02*
X115512566Y-131565233D01*
D11*
X134496523Y-122459600D02*
X133646523Y-122459600D01*
X134496523Y-122759600D02*
X134051285Y-122759600D01*
X133970333Y-122726266D01*
X133929857Y-122659600D01*
X133929857Y-122559600D01*
X133970333Y-122492933D01*
X134010809Y-122459600D01*
X133929857Y-122992933D02*
X133929857Y-123259600D01*
X133646523Y-123092933D02*
X134375095Y-123092933D01*
X134456047Y-123126266D01*
X134496523Y-123192933D01*
X134496523Y-123259600D01*
X133929857Y-123392933D02*
X133929857Y-123659600D01*
X133646523Y-123492933D02*
X134375095Y-123492933D01*
X134456047Y-123526266D01*
X134496523Y-123592933D01*
X134496523Y-123659600D01*
X133929857Y-123892933D02*
X134779857Y-123892933D01*
X133970333Y-123892933D02*
X133929857Y-123959600D01*
X133929857Y-124092933D01*
X133970333Y-124159600D01*
X134010809Y-124192933D01*
X134091761Y-124226266D01*
X134334619Y-124226266D01*
X134415571Y-124192933D01*
X134456047Y-124159600D01*
X134496523Y-124092933D01*
X134496523Y-123959600D01*
X134456047Y-123892933D01*
X134456047Y-124492933D02*
X134496523Y-124559600D01*
X134496523Y-124692933D01*
X134456047Y-124759600D01*
X134375095Y-124792933D01*
X134334619Y-124792933D01*
X134253666Y-124759600D01*
X134213190Y-124692933D01*
X134213190Y-124592933D01*
X134172714Y-124526266D01*
X134091761Y-124492933D01*
X134051285Y-124492933D01*
X133970333Y-124526266D01*
X133929857Y-124592933D01*
X133929857Y-124692933D01*
X133970333Y-124759600D01*
X134415571Y-125092933D02*
X134456047Y-125126266D01*
X134496523Y-125092933D01*
X134456047Y-125059600D01*
X134415571Y-125092933D01*
X134496523Y-125092933D01*
X133970333Y-125092933D02*
X134010809Y-125126266D01*
X134051285Y-125092933D01*
X134010809Y-125059600D01*
X133970333Y-125092933D01*
X134051285Y-125092933D01*
X133606047Y-125926266D02*
X134698904Y-125326266D01*
X133606047Y-126659600D02*
X134698904Y-126059600D01*
X133929857Y-127192933D02*
X134617952Y-127192933D01*
X134698904Y-127159600D01*
X134739380Y-127126266D01*
X134779857Y-127059600D01*
X134779857Y-126959600D01*
X134739380Y-126892933D01*
X134456047Y-127192933D02*
X134496523Y-127126266D01*
X134496523Y-126992933D01*
X134456047Y-126926266D01*
X134415571Y-126892933D01*
X134334619Y-126859600D01*
X134091761Y-126859600D01*
X134010809Y-126892933D01*
X133970333Y-126926266D01*
X133929857Y-126992933D01*
X133929857Y-127126266D01*
X133970333Y-127192933D01*
X134496523Y-127526266D02*
X133929857Y-127526266D01*
X133646523Y-127526266D02*
X133687000Y-127492933D01*
X133727476Y-127526266D01*
X133687000Y-127559600D01*
X133646523Y-127526266D01*
X133727476Y-127526266D01*
X133929857Y-127759600D02*
X133929857Y-128026266D01*
X133646523Y-127859600D02*
X134375095Y-127859600D01*
X134456047Y-127892933D01*
X134496523Y-127959600D01*
X134496523Y-128026266D01*
X134496523Y-128259600D02*
X133646523Y-128259600D01*
X134496523Y-128559600D02*
X134051285Y-128559600D01*
X133970333Y-128526266D01*
X133929857Y-128459600D01*
X133929857Y-128359600D01*
X133970333Y-128292933D01*
X134010809Y-128259600D01*
X133929857Y-129192933D02*
X134496523Y-129192933D01*
X133929857Y-128892933D02*
X134375095Y-128892933D01*
X134456047Y-128926266D01*
X134496523Y-128992933D01*
X134496523Y-129092933D01*
X134456047Y-129159600D01*
X134415571Y-129192933D01*
X134496523Y-129526266D02*
X133646523Y-129526266D01*
X133970333Y-129526266D02*
X133929857Y-129592933D01*
X133929857Y-129726266D01*
X133970333Y-129792933D01*
X134010809Y-129826266D01*
X134091761Y-129859600D01*
X134334619Y-129859600D01*
X134415571Y-129826266D01*
X134456047Y-129792933D01*
X134496523Y-129726266D01*
X134496523Y-129592933D01*
X134456047Y-129526266D01*
X134415571Y-130159600D02*
X134456047Y-130192933D01*
X134496523Y-130159600D01*
X134456047Y-130126266D01*
X134415571Y-130159600D01*
X134496523Y-130159600D01*
X134456047Y-130792933D02*
X134496523Y-130726266D01*
X134496523Y-130592933D01*
X134456047Y-130526266D01*
X134415571Y-130492933D01*
X134334619Y-130459600D01*
X134091761Y-130459600D01*
X134010809Y-130492933D01*
X133970333Y-130526266D01*
X133929857Y-130592933D01*
X133929857Y-130726266D01*
X133970333Y-130792933D01*
X134496523Y-131192933D02*
X134456047Y-131126266D01*
X134415571Y-131092933D01*
X134334619Y-131059600D01*
X134091761Y-131059600D01*
X134010809Y-131092933D01*
X133970333Y-131126266D01*
X133929857Y-131192933D01*
X133929857Y-131292933D01*
X133970333Y-131359600D01*
X134010809Y-131392933D01*
X134091761Y-131426266D01*
X134334619Y-131426266D01*
X134415571Y-131392933D01*
X134456047Y-131359600D01*
X134496523Y-131292933D01*
X134496523Y-131192933D01*
X134496523Y-131726266D02*
X133929857Y-131726266D01*
X134010809Y-131726266D02*
X133970333Y-131759600D01*
X133929857Y-131826266D01*
X133929857Y-131926266D01*
X133970333Y-131992933D01*
X134051285Y-132026266D01*
X134496523Y-132026266D01*
X134051285Y-132026266D02*
X133970333Y-132059600D01*
X133929857Y-132126266D01*
X133929857Y-132226266D01*
X133970333Y-132292933D01*
X134051285Y-132326266D01*
X134496523Y-132326266D01*
X133606047Y-133159600D02*
X134698904Y-132559600D01*
X133646523Y-133292933D02*
X133646523Y-133692933D01*
X134496523Y-133492933D02*
X133646523Y-133492933D01*
X134496523Y-133926266D02*
X133646523Y-133926266D01*
X134496523Y-134226266D02*
X134051285Y-134226266D01*
X133970333Y-134192933D01*
X133929857Y-134126266D01*
X133929857Y-134026266D01*
X133970333Y-133959600D01*
X134010809Y-133926266D01*
X134456047Y-134826266D02*
X134496523Y-134759600D01*
X134496523Y-134626266D01*
X134456047Y-134559600D01*
X134375095Y-134526266D01*
X134051285Y-134526266D01*
X133970333Y-134559600D01*
X133929857Y-134626266D01*
X133929857Y-134759600D01*
X133970333Y-134826266D01*
X134051285Y-134859600D01*
X134132238Y-134859600D01*
X134213190Y-134526266D01*
X133929857Y-135159600D02*
X134496523Y-135159600D01*
X134010809Y-135159600D02*
X133970333Y-135192933D01*
X133929857Y-135259600D01*
X133929857Y-135359600D01*
X133970333Y-135426266D01*
X134051285Y-135459600D01*
X134496523Y-135459600D01*
X134496523Y-135792933D02*
X133929857Y-135792933D01*
X133646523Y-135792933D02*
X133687000Y-135759600D01*
X133727476Y-135792933D01*
X133687000Y-135826266D01*
X133646523Y-135792933D01*
X133727476Y-135792933D01*
X134456047Y-136426266D02*
X134496523Y-136359600D01*
X134496523Y-136226266D01*
X134456047Y-136159600D01*
X134415571Y-136126266D01*
X134334619Y-136092933D01*
X134091761Y-136092933D01*
X134010809Y-136126266D01*
X133970333Y-136159600D01*
X133929857Y-136226266D01*
X133929857Y-136359600D01*
X133970333Y-136426266D01*
X134496523Y-136826266D02*
X134456047Y-136759600D01*
X134415571Y-136726266D01*
X134334619Y-136692933D01*
X134091761Y-136692933D01*
X134010809Y-136726266D01*
X133970333Y-136759600D01*
X133929857Y-136826266D01*
X133929857Y-136926266D01*
X133970333Y-136992933D01*
X134010809Y-137026266D01*
X134091761Y-137059600D01*
X134334619Y-137059600D01*
X134415571Y-137026266D01*
X134456047Y-136992933D01*
X134496523Y-136926266D01*
X134496523Y-136826266D01*
X134496523Y-137459600D02*
X134456047Y-137392933D01*
X134375095Y-137359600D01*
X133646523Y-137359600D01*
X134496523Y-138026266D02*
X134051285Y-138026266D01*
X133970333Y-137992933D01*
X133929857Y-137926266D01*
X133929857Y-137792933D01*
X133970333Y-137726266D01*
X134456047Y-138026266D02*
X134496523Y-137959600D01*
X134496523Y-137792933D01*
X134456047Y-137726266D01*
X134375095Y-137692933D01*
X134294142Y-137692933D01*
X134213190Y-137726266D01*
X134172714Y-137792933D01*
X134172714Y-137959600D01*
X134132238Y-138026266D01*
X134496523Y-138359600D02*
X133929857Y-138359600D01*
X133646523Y-138359600D02*
X133687000Y-138326266D01*
X133727476Y-138359600D01*
X133687000Y-138392933D01*
X133646523Y-138359600D01*
X133727476Y-138359600D01*
X134496523Y-138692933D02*
X133646523Y-138692933D01*
X133970333Y-138692933D02*
X133929857Y-138759600D01*
X133929857Y-138892933D01*
X133970333Y-138959600D01*
X134010809Y-138992933D01*
X134091761Y-139026266D01*
X134334619Y-139026266D01*
X134415571Y-138992933D01*
X134456047Y-138959600D01*
X134496523Y-138892933D01*
X134496523Y-138759600D01*
X134456047Y-138692933D01*
X133929857Y-139626266D02*
X134496523Y-139626266D01*
X133929857Y-139326266D02*
X134375095Y-139326266D01*
X134456047Y-139359600D01*
X134496523Y-139426266D01*
X134496523Y-139526266D01*
X134456047Y-139592933D01*
X134415571Y-139626266D01*
X134496523Y-140059600D02*
X134456047Y-139992933D01*
X134375095Y-139959600D01*
X133646523Y-139959600D01*
X134496523Y-140426266D02*
X134456047Y-140359600D01*
X134415571Y-140326266D01*
X134334619Y-140292933D01*
X134091761Y-140292933D01*
X134010809Y-140326266D01*
X133970333Y-140359600D01*
X133929857Y-140426266D01*
X133929857Y-140526266D01*
X133970333Y-140592933D01*
X134010809Y-140626266D01*
X134091761Y-140659600D01*
X134334619Y-140659600D01*
X134415571Y-140626266D01*
X134456047Y-140592933D01*
X134496523Y-140526266D01*
X134496523Y-140426266D01*
X133929857Y-140892933D02*
X134496523Y-141026266D01*
X134091761Y-141159600D01*
X134496523Y-141292933D01*
X133929857Y-141426266D01*
X133606047Y-142192933D02*
X134698904Y-141592933D01*
X134496523Y-142426266D02*
X133929857Y-142426266D01*
X134010809Y-142426266D02*
X133970333Y-142459600D01*
X133929857Y-142526266D01*
X133929857Y-142626266D01*
X133970333Y-142692933D01*
X134051285Y-142726266D01*
X134496523Y-142726266D01*
X134051285Y-142726266D02*
X133970333Y-142759600D01*
X133929857Y-142826266D01*
X133929857Y-142926266D01*
X133970333Y-142992933D01*
X134051285Y-143026266D01*
X134496523Y-143026266D01*
X133929857Y-143659600D02*
X134496523Y-143659600D01*
X133929857Y-143359600D02*
X134375095Y-143359600D01*
X134456047Y-143392933D01*
X134496523Y-143459600D01*
X134496523Y-143559600D01*
X134456047Y-143626266D01*
X134415571Y-143659600D01*
X133646523Y-143892933D02*
X134496523Y-144126266D01*
X133646523Y-144359600D01*
X134496523Y-144692933D02*
X134456047Y-144626266D01*
X134415571Y-144592933D01*
X134334619Y-144559600D01*
X134091761Y-144559600D01*
X134010809Y-144592933D01*
X133970333Y-144626266D01*
X133929857Y-144692933D01*
X133929857Y-144792933D01*
X133970333Y-144859600D01*
X134010809Y-144892933D01*
X134091761Y-144926266D01*
X134334619Y-144926266D01*
X134415571Y-144892933D01*
X134456047Y-144859600D01*
X134496523Y-144792933D01*
X134496523Y-144692933D01*
X134496523Y-145159600D02*
X133929857Y-145526266D01*
X133929857Y-145159600D02*
X134496523Y-145526266D01*
D12*
X98490100Y-112329300D02*
X98490100Y-112562633D01*
X98856766Y-112662633D02*
X98856766Y-112329300D01*
X98156766Y-112329300D01*
X98156766Y-112662633D01*
X98823433Y-112929300D02*
X98856766Y-113029300D01*
X98856766Y-113195966D01*
X98823433Y-113262633D01*
X98790100Y-113295966D01*
X98723433Y-113329300D01*
X98656766Y-113329300D01*
X98590100Y-113295966D01*
X98556766Y-113262633D01*
X98523433Y-113195966D01*
X98490100Y-113062633D01*
X98456766Y-112995966D01*
X98423433Y-112962633D01*
X98356766Y-112929300D01*
X98290100Y-112929300D01*
X98223433Y-112962633D01*
X98190100Y-112995966D01*
X98156766Y-113062633D01*
X98156766Y-113229300D01*
X98190100Y-113329300D01*
X98856766Y-113629300D02*
X98156766Y-113629300D01*
X98156766Y-113895966D01*
X98190100Y-113962633D01*
X98223433Y-113995966D01*
X98290100Y-114029300D01*
X98390100Y-114029300D01*
X98456766Y-113995966D01*
X98490100Y-113962633D01*
X98523433Y-113895966D01*
X98523433Y-113629300D01*
X98923433Y-114162633D02*
X98923433Y-114695966D01*
X98856766Y-115262633D02*
X98523433Y-115029300D01*
X98856766Y-114862633D02*
X98156766Y-114862633D01*
X98156766Y-115129300D01*
X98190100Y-115195966D01*
X98223433Y-115229300D01*
X98290100Y-115262633D01*
X98390100Y-115262633D01*
X98456766Y-115229300D01*
X98490100Y-115195966D01*
X98523433Y-115129300D01*
X98523433Y-114862633D01*
X98823433Y-115529300D02*
X98856766Y-115629300D01*
X98856766Y-115795966D01*
X98823433Y-115862633D01*
X98790100Y-115895966D01*
X98723433Y-115929300D01*
X98656766Y-115929300D01*
X98590100Y-115895966D01*
X98556766Y-115862633D01*
X98523433Y-115795966D01*
X98490100Y-115662633D01*
X98456766Y-115595966D01*
X98423433Y-115562633D01*
X98356766Y-115529300D01*
X98290100Y-115529300D01*
X98223433Y-115562633D01*
X98190100Y-115595966D01*
X98156766Y-115662633D01*
X98156766Y-115829300D01*
X98190100Y-115929300D01*
X98156766Y-116129300D02*
X98156766Y-116529300D01*
X98856766Y-116329300D02*
X98156766Y-116329300D01*
D10*
X108878366Y-126857766D02*
X108178366Y-126857766D01*
X108178366Y-127324433D02*
X108178366Y-127457766D01*
X108211700Y-127524433D01*
X108278366Y-127591100D01*
X108411700Y-127624433D01*
X108645033Y-127624433D01*
X108778366Y-127591100D01*
X108845033Y-127524433D01*
X108878366Y-127457766D01*
X108878366Y-127324433D01*
X108845033Y-127257766D01*
X108778366Y-127191100D01*
X108645033Y-127157766D01*
X108411700Y-127157766D01*
X108278366Y-127191100D01*
X108211700Y-127257766D01*
X108178366Y-127324433D01*
X108878366Y-128291100D02*
X108878366Y-127891100D01*
X108878366Y-128091100D02*
X108178366Y-128091100D01*
X108278366Y-128024433D01*
X108345033Y-127957766D01*
X108378366Y-127891100D01*
X108178366Y-128924433D02*
X108178366Y-128591100D01*
X108511700Y-128557766D01*
X108478366Y-128591100D01*
X108445033Y-128657766D01*
X108445033Y-128824433D01*
X108478366Y-128891100D01*
X108511700Y-128924433D01*
X108578366Y-128957766D01*
X108745033Y-128957766D01*
X108811700Y-128924433D01*
X108845033Y-128891100D01*
X108878366Y-128824433D01*
X108878366Y-128657766D01*
X108845033Y-128591100D01*
X108811700Y-128557766D01*
X115420500Y-133813500D02*
X115420500Y-134046833D01*
X115787166Y-134146833D02*
X115787166Y-133813500D01*
X115087166Y-133813500D01*
X115087166Y-134146833D01*
X115787166Y-134446833D02*
X115087166Y-134446833D01*
X115787166Y-134846833D01*
X115087166Y-134846833D01*
X115587166Y-135146833D02*
X115587166Y-135480166D01*
X115787166Y-135080166D02*
X115087166Y-135313500D01*
X115787166Y-135546833D01*
X115520500Y-135780166D02*
X115520500Y-136313500D01*
X115787166Y-136046833D02*
X115253833Y-136046833D01*
X115087166Y-136980166D02*
X115087166Y-136646833D01*
X115420500Y-136613500D01*
X115387166Y-136646833D01*
X115353833Y-136713500D01*
X115353833Y-136880166D01*
X115387166Y-136946833D01*
X115420500Y-136980166D01*
X115487166Y-137013500D01*
X115653833Y-137013500D01*
X115720500Y-136980166D01*
X115753833Y-136946833D01*
X115787166Y-136880166D01*
X115787166Y-136713500D01*
X115753833Y-136646833D01*
X115720500Y-136613500D01*
X115320500Y-137246833D02*
X115787166Y-137413500D01*
X115320500Y-137580166D01*
D11*
X119600350Y-119629300D02*
X119600350Y-120162633D01*
X119600350Y-120162633D02*
X119600350Y-120695966D01*
X119600350Y-120695966D02*
X119600350Y-121229300D01*
X119600350Y-121229300D02*
X119600350Y-121762633D01*
X119600350Y-121762633D02*
X119600350Y-122629300D01*
X120366564Y-121929300D02*
X120366564Y-122462633D01*
X119600350Y-122629300D02*
X119600350Y-123162633D01*
X119600350Y-123162633D02*
X119600350Y-123795966D01*
X120123707Y-123329300D02*
X120973707Y-123329300D01*
X120164183Y-123329300D02*
X120123707Y-123395966D01*
X120123707Y-123529300D01*
X120164183Y-123595966D01*
X120204659Y-123629300D01*
X120285611Y-123662633D01*
X120528469Y-123662633D01*
X120609421Y-123629300D01*
X120649897Y-123595966D01*
X120690373Y-123529300D01*
X120690373Y-123395966D01*
X120649897Y-123329300D01*
X119600350Y-123795966D02*
X119600350Y-124229300D01*
X120690373Y-123962633D02*
X120123707Y-123962633D01*
X120285611Y-123962633D02*
X120204659Y-123995966D01*
X120164183Y-124029300D01*
X120123707Y-124095966D01*
X120123707Y-124162633D01*
X119600350Y-124229300D02*
X119600350Y-124862633D01*
X120690373Y-124495966D02*
X120649897Y-124429300D01*
X120609421Y-124395966D01*
X120528469Y-124362633D01*
X120285611Y-124362633D01*
X120204659Y-124395966D01*
X120164183Y-124429300D01*
X120123707Y-124495966D01*
X120123707Y-124595966D01*
X120164183Y-124662633D01*
X120204659Y-124695966D01*
X120285611Y-124729300D01*
X120528469Y-124729300D01*
X120609421Y-124695966D01*
X120649897Y-124662633D01*
X120690373Y-124595966D01*
X120690373Y-124495966D01*
X119600350Y-124862633D02*
X119600350Y-125495966D01*
X120123707Y-125329300D02*
X120690373Y-125329300D01*
X120123707Y-125029300D02*
X120568945Y-125029300D01*
X120649897Y-125062633D01*
X120690373Y-125129300D01*
X120690373Y-125229300D01*
X120649897Y-125295966D01*
X120609421Y-125329300D01*
X119600350Y-125495966D02*
X119600350Y-126129300D01*
X120690373Y-125962633D02*
X119840373Y-125962633D01*
X120649897Y-125962633D02*
X120690373Y-125895966D01*
X120690373Y-125762633D01*
X120649897Y-125695966D01*
X120609421Y-125662633D01*
X120528469Y-125629300D01*
X120285611Y-125629300D01*
X120204659Y-125662633D01*
X120164183Y-125695966D01*
X120123707Y-125762633D01*
X120123707Y-125895966D01*
X120164183Y-125962633D01*
X119600350Y-126129300D02*
X119600350Y-126495966D01*
X120690373Y-126395966D02*
X120649897Y-126329300D01*
X120568945Y-126295966D01*
X119840373Y-126295966D01*
X119600350Y-126495966D02*
X119600350Y-127029300D01*
X120123707Y-126595966D02*
X120690373Y-126762633D01*
X120123707Y-126929300D02*
X120690373Y-126762633D01*
X120892754Y-126695966D01*
X120933230Y-126662633D01*
X120973707Y-126595966D01*
X119600350Y-127029300D02*
X119600350Y-127562633D01*
X119600350Y-127562633D02*
X119600350Y-128162633D01*
X120649897Y-128029300D02*
X120690373Y-127962633D01*
X120690373Y-127829300D01*
X120649897Y-127762633D01*
X120609421Y-127729300D01*
X120528469Y-127695966D01*
X120285611Y-127695966D01*
X120204659Y-127729300D01*
X120164183Y-127762633D01*
X120123707Y-127829300D01*
X120123707Y-127962633D01*
X120164183Y-128029300D01*
X119600350Y-128162633D02*
X119600350Y-128795966D01*
X120690373Y-128329300D02*
X119840373Y-128329300D01*
X120690373Y-128629300D02*
X120245135Y-128629300D01*
X120164183Y-128595966D01*
X120123707Y-128529300D01*
X120123707Y-128429300D01*
X120164183Y-128362633D01*
X120204659Y-128329300D01*
X119600350Y-128795966D02*
X119600350Y-129429300D01*
X120690373Y-129262633D02*
X120245135Y-129262633D01*
X120164183Y-129229300D01*
X120123707Y-129162633D01*
X120123707Y-129029300D01*
X120164183Y-128962633D01*
X120649897Y-129262633D02*
X120690373Y-129195966D01*
X120690373Y-129029300D01*
X120649897Y-128962633D01*
X120568945Y-128929300D01*
X120487992Y-128929300D01*
X120407040Y-128962633D01*
X120366564Y-129029300D01*
X120366564Y-129195966D01*
X120326088Y-129262633D01*
X119600350Y-129429300D02*
X119600350Y-129795966D01*
X120690373Y-129695966D02*
X120649897Y-129629300D01*
X120568945Y-129595966D01*
X119840373Y-129595966D01*
X119600350Y-129795966D02*
X119600350Y-130162633D01*
X120690373Y-130062633D02*
X120649897Y-129995966D01*
X120568945Y-129962633D01*
X119840373Y-129962633D01*
X119600350Y-130162633D02*
X119600350Y-130762633D01*
X120649897Y-130595966D02*
X120690373Y-130529300D01*
X120690373Y-130395966D01*
X120649897Y-130329300D01*
X120568945Y-130295966D01*
X120245135Y-130295966D01*
X120164183Y-130329300D01*
X120123707Y-130395966D01*
X120123707Y-130529300D01*
X120164183Y-130595966D01*
X120245135Y-130629300D01*
X120326088Y-130629300D01*
X120407040Y-130295966D01*
X119600350Y-130762633D02*
X119600350Y-131395966D01*
X120123707Y-130929300D02*
X120690373Y-130929300D01*
X120204659Y-130929300D02*
X120164183Y-130962633D01*
X120123707Y-131029300D01*
X120123707Y-131129300D01*
X120164183Y-131195966D01*
X120245135Y-131229300D01*
X120690373Y-131229300D01*
X119600350Y-131395966D02*
X119600350Y-132029300D01*
X120123707Y-131862633D02*
X120811802Y-131862633D01*
X120892754Y-131829300D01*
X120933230Y-131795966D01*
X120973707Y-131729300D01*
X120973707Y-131629300D01*
X120933230Y-131562633D01*
X120649897Y-131862633D02*
X120690373Y-131795966D01*
X120690373Y-131662633D01*
X120649897Y-131595966D01*
X120609421Y-131562633D01*
X120528469Y-131529300D01*
X120285611Y-131529300D01*
X120204659Y-131562633D01*
X120164183Y-131595966D01*
X120123707Y-131662633D01*
X120123707Y-131795966D01*
X120164183Y-131862633D01*
X119600350Y-132029300D02*
X119600350Y-132362633D01*
X120690373Y-132195966D02*
X120123707Y-132195966D01*
X119840373Y-132195966D02*
X119880850Y-132162633D01*
X119921326Y-132195966D01*
X119880850Y-132229300D01*
X119840373Y-132195966D01*
X119921326Y-132195966D01*
X119600350Y-132362633D02*
X119600350Y-132995966D01*
X120123707Y-132529300D02*
X120690373Y-132529300D01*
X120204659Y-132529300D02*
X120164183Y-132562633D01*
X120123707Y-132629300D01*
X120123707Y-132729300D01*
X120164183Y-132795966D01*
X120245135Y-132829300D01*
X120690373Y-132829300D01*
X119600350Y-132995966D02*
X119600350Y-133629300D01*
X120123707Y-133462633D02*
X120811802Y-133462633D01*
X120892754Y-133429300D01*
X120933230Y-133395966D01*
X120973707Y-133329300D01*
X120973707Y-133229300D01*
X120933230Y-133162633D01*
X120649897Y-133462633D02*
X120690373Y-133395966D01*
X120690373Y-133262633D01*
X120649897Y-133195966D01*
X120609421Y-133162633D01*
X120528469Y-133129300D01*
X120285611Y-133129300D01*
X120204659Y-133162633D01*
X120164183Y-133195966D01*
X120123707Y-133262633D01*
X120123707Y-133395966D01*
X120164183Y-133462633D01*
X119600350Y-133629300D02*
X119600350Y-134162633D01*
X119600350Y-134162633D02*
X119600350Y-134562633D01*
X120123707Y-134229300D02*
X120123707Y-134495966D01*
X119840373Y-134329300D02*
X120568945Y-134329300D01*
X120649897Y-134362633D01*
X120690373Y-134429300D01*
X120690373Y-134495966D01*
X119600350Y-134562633D02*
X119600350Y-135195966D01*
X120690373Y-134729300D02*
X119840373Y-134729300D01*
X120690373Y-135029300D02*
X120245135Y-135029300D01*
X120164183Y-134995966D01*
X120123707Y-134929300D01*
X120123707Y-134829300D01*
X120164183Y-134762633D01*
X120204659Y-134729300D01*
X119600350Y-135195966D02*
X119600350Y-135795966D01*
X120649897Y-135629300D02*
X120690373Y-135562633D01*
X120690373Y-135429300D01*
X120649897Y-135362633D01*
X120568945Y-135329300D01*
X120245135Y-135329300D01*
X120164183Y-135362633D01*
X120123707Y-135429300D01*
X120123707Y-135562633D01*
X120164183Y-135629300D01*
X120245135Y-135662633D01*
X120326088Y-135662633D01*
X120407040Y-135329300D01*
X119600350Y-135795966D02*
X119600350Y-136329300D01*
X119600350Y-136329300D02*
X119600350Y-136895966D01*
X120649897Y-136462633D02*
X120690373Y-136529300D01*
X120690373Y-136662633D01*
X120649897Y-136729300D01*
X120568945Y-136762633D01*
X120528469Y-136762633D01*
X120447516Y-136729300D01*
X120407040Y-136662633D01*
X120407040Y-136562633D01*
X120366564Y-136495966D01*
X120285611Y-136462633D01*
X120245135Y-136462633D01*
X120164183Y-136495966D01*
X120123707Y-136562633D01*
X120123707Y-136662633D01*
X120164183Y-136729300D01*
X119600350Y-136895966D02*
X119600350Y-137295966D01*
X120123707Y-136962633D02*
X120123707Y-137229300D01*
X119840373Y-137062633D02*
X120568945Y-137062633D01*
X120649897Y-137095966D01*
X120690373Y-137162633D01*
X120690373Y-137229300D01*
X119600350Y-137295966D02*
X119600350Y-137929300D01*
X120690373Y-137762633D02*
X120245135Y-137762633D01*
X120164183Y-137729300D01*
X120123707Y-137662633D01*
X120123707Y-137529300D01*
X120164183Y-137462633D01*
X120649897Y-137762633D02*
X120690373Y-137695966D01*
X120690373Y-137529300D01*
X120649897Y-137462633D01*
X120568945Y-137429300D01*
X120487992Y-137429300D01*
X120407040Y-137462633D01*
X120366564Y-137529300D01*
X120366564Y-137695966D01*
X120326088Y-137762633D01*
X119600350Y-137929300D02*
X119600350Y-138329300D01*
X120123707Y-137995966D02*
X120123707Y-138262633D01*
X119840373Y-138095966D02*
X120568945Y-138095966D01*
X120649897Y-138129300D01*
X120690373Y-138195966D01*
X120690373Y-138262633D01*
X119600350Y-138329300D02*
X119600350Y-138962633D01*
X120123707Y-138795966D02*
X120690373Y-138795966D01*
X120123707Y-138495966D02*
X120568945Y-138495966D01*
X120649897Y-138529300D01*
X120690373Y-138595966D01*
X120690373Y-138695966D01*
X120649897Y-138762633D01*
X120609421Y-138795966D01*
X119600350Y-138962633D02*
X119600350Y-139529300D01*
X120649897Y-139095966D02*
X120690373Y-139162633D01*
X120690373Y-139295966D01*
X120649897Y-139362633D01*
X120568945Y-139395966D01*
X120528469Y-139395966D01*
X120447516Y-139362633D01*
X120407040Y-139295966D01*
X120407040Y-139195966D01*
X120366564Y-139129300D01*
X120285611Y-139095966D01*
X120245135Y-139095966D01*
X120164183Y-139129300D01*
X120123707Y-139195966D01*
X120123707Y-139295966D01*
X120164183Y-139362633D01*
X119600350Y-139529300D02*
X119600350Y-140062633D01*
X119600350Y-140062633D02*
X119600350Y-140695966D01*
X120123707Y-140529300D02*
X120973707Y-140529300D01*
X120649897Y-140529300D02*
X120690373Y-140462633D01*
X120690373Y-140329300D01*
X120649897Y-140262633D01*
X120609421Y-140229300D01*
X120528469Y-140195966D01*
X120285611Y-140195966D01*
X120204659Y-140229300D01*
X120164183Y-140262633D01*
X120123707Y-140329300D01*
X120123707Y-140462633D01*
X120164183Y-140529300D01*
X119600350Y-140695966D02*
X119600350Y-141329300D01*
X120123707Y-141162633D02*
X120690373Y-141162633D01*
X120123707Y-140862633D02*
X120568945Y-140862633D01*
X120649897Y-140895966D01*
X120690373Y-140962633D01*
X120690373Y-141062633D01*
X120649897Y-141129300D01*
X120609421Y-141162633D01*
X119600350Y-141329300D02*
X119600350Y-141962633D01*
X120690373Y-141595966D02*
X120649897Y-141529300D01*
X120609421Y-141495966D01*
X120528469Y-141462633D01*
X120285611Y-141462633D01*
X120204659Y-141495966D01*
X120164183Y-141529300D01*
X120123707Y-141595966D01*
X120123707Y-141695966D01*
X120164183Y-141762633D01*
X120204659Y-141795966D01*
X120285611Y-141829300D01*
X120528469Y-141829300D01*
X120609421Y-141795966D01*
X120649897Y-141762633D01*
X120690373Y-141695966D01*
X120690373Y-141595966D01*
X119600350Y-141962633D02*
X119600350Y-142495966D01*
X119600350Y-142495966D02*
X119600350Y-143129300D01*
X120690373Y-142762633D02*
X120649897Y-142695966D01*
X120609421Y-142662633D01*
X120528469Y-142629300D01*
X120285611Y-142629300D01*
X120204659Y-142662633D01*
X120164183Y-142695966D01*
X120123707Y-142762633D01*
X120123707Y-142862633D01*
X120164183Y-142929300D01*
X120204659Y-142962633D01*
X120285611Y-142995966D01*
X120528469Y-142995966D01*
X120609421Y-142962633D01*
X120649897Y-142929300D01*
X120690373Y-142862633D01*
X120690373Y-142762633D01*
X119600350Y-143129300D02*
X119600350Y-143529300D01*
X120123707Y-143195966D02*
X120123707Y-143462633D01*
X120690373Y-143295966D02*
X119961802Y-143295966D01*
X119880850Y-143329300D01*
X119840373Y-143395966D01*
X119840373Y-143462633D01*
X119600350Y-143529300D02*
X119600350Y-144062633D01*
X119600350Y-144062633D02*
X119600350Y-144462633D01*
X120123707Y-144129300D02*
X120123707Y-144395966D01*
X119840373Y-144229300D02*
X120568945Y-144229300D01*
X120649897Y-144262633D01*
X120690373Y-144329300D01*
X120690373Y-144395966D01*
X119600350Y-144462633D02*
X119600350Y-145095966D01*
X120690373Y-144629300D02*
X119840373Y-144629300D01*
X120690373Y-144929300D02*
X120245135Y-144929300D01*
X120164183Y-144895966D01*
X120123707Y-144829300D01*
X120123707Y-144729300D01*
X120164183Y-144662633D01*
X120204659Y-144629300D01*
X119600350Y-145095966D02*
X119600350Y-145695966D01*
X120649897Y-145529300D02*
X120690373Y-145462633D01*
X120690373Y-145329300D01*
X120649897Y-145262633D01*
X120568945Y-145229300D01*
X120245135Y-145229300D01*
X120164183Y-145262633D01*
X120123707Y-145329300D01*
X120123707Y-145462633D01*
X120164183Y-145529300D01*
X120245135Y-145562633D01*
X120326088Y-145562633D01*
X120407040Y-145229300D01*
X119600350Y-145695966D02*
X119600350Y-146229300D01*
X119600350Y-146229300D02*
X119600350Y-146762633D01*
X119600350Y-146762633D02*
X119600350Y-147295966D01*
X119600350Y-147295966D02*
X119600350Y-147829300D01*
X121492207Y-123595966D02*
X122058873Y-123729300D01*
X121654111Y-123862633D01*
X122058873Y-123995966D01*
X121492207Y-124129300D01*
X122018397Y-124662633D02*
X122058873Y-124595966D01*
X122058873Y-124462633D01*
X122018397Y-124395966D01*
X121937445Y-124362633D01*
X121613635Y-124362633D01*
X121532683Y-124395966D01*
X121492207Y-124462633D01*
X121492207Y-124595966D01*
X121532683Y-124662633D01*
X121613635Y-124695966D01*
X121694588Y-124695966D01*
X121775540Y-124362633D01*
X122058873Y-125095966D02*
X122018397Y-125029300D01*
X121937445Y-124995966D01*
X121208873Y-124995966D01*
X122058873Y-125462633D02*
X122018397Y-125395966D01*
X121937445Y-125362633D01*
X121208873Y-125362633D01*
X122018397Y-125995966D02*
X122058873Y-125929300D01*
X122058873Y-125795966D01*
X122018397Y-125729300D01*
X121937445Y-125695966D01*
X121613635Y-125695966D01*
X121532683Y-125729300D01*
X121492207Y-125795966D01*
X121492207Y-125929300D01*
X121532683Y-125995966D01*
X121613635Y-126029300D01*
X121694588Y-126029300D01*
X121775540Y-125695966D01*
X122018397Y-126295966D02*
X122058873Y-126362633D01*
X122058873Y-126495966D01*
X122018397Y-126562633D01*
X121937445Y-126595966D01*
X121896969Y-126595966D01*
X121816016Y-126562633D01*
X121775540Y-126495966D01*
X121775540Y-126395966D01*
X121735064Y-126329300D01*
X121654111Y-126295966D01*
X121613635Y-126295966D01*
X121532683Y-126329300D01*
X121492207Y-126395966D01*
X121492207Y-126495966D01*
X121532683Y-126562633D01*
X121492207Y-126795966D02*
X121492207Y-127062633D01*
X121208873Y-126895966D02*
X121937445Y-126895966D01*
X122018397Y-126929300D01*
X122058873Y-126995966D01*
X122058873Y-127062633D01*
X122058873Y-127595966D02*
X121613635Y-127595966D01*
X121532683Y-127562633D01*
X121492207Y-127495966D01*
X121492207Y-127362633D01*
X121532683Y-127295966D01*
X122018397Y-127595966D02*
X122058873Y-127529300D01*
X122058873Y-127362633D01*
X122018397Y-127295966D01*
X121937445Y-127262633D01*
X121856492Y-127262633D01*
X121775540Y-127295966D01*
X121735064Y-127362633D01*
X121735064Y-127529300D01*
X121694588Y-127595966D01*
X122058873Y-127929300D02*
X121208873Y-127929300D01*
X121532683Y-127929300D02*
X121492207Y-127995966D01*
X121492207Y-128129300D01*
X121532683Y-128195966D01*
X121573159Y-128229300D01*
X121654111Y-128262633D01*
X121896969Y-128262633D01*
X121977921Y-128229300D01*
X122018397Y-128195966D01*
X122058873Y-128129300D01*
X122058873Y-127995966D01*
X122018397Y-127929300D01*
X122058873Y-128662633D02*
X122018397Y-128595966D01*
X121937445Y-128562633D01*
X121208873Y-128562633D01*
X122058873Y-128929300D02*
X121492207Y-128929300D01*
X121208873Y-128929300D02*
X121249350Y-128895966D01*
X121289826Y-128929300D01*
X121249350Y-128962633D01*
X121208873Y-128929300D01*
X121289826Y-128929300D01*
X122018397Y-129229300D02*
X122058873Y-129295966D01*
X122058873Y-129429300D01*
X122018397Y-129495966D01*
X121937445Y-129529300D01*
X121896969Y-129529300D01*
X121816016Y-129495966D01*
X121775540Y-129429300D01*
X121775540Y-129329300D01*
X121735064Y-129262633D01*
X121654111Y-129229300D01*
X121613635Y-129229300D01*
X121532683Y-129262633D01*
X121492207Y-129329300D01*
X121492207Y-129429300D01*
X121532683Y-129495966D01*
X122058873Y-129829300D02*
X121208873Y-129829300D01*
X122058873Y-130129300D02*
X121613635Y-130129300D01*
X121532683Y-130095966D01*
X121492207Y-130029300D01*
X121492207Y-129929300D01*
X121532683Y-129862633D01*
X121573159Y-129829300D01*
X122018397Y-130729300D02*
X122058873Y-130662633D01*
X122058873Y-130529300D01*
X122018397Y-130462633D01*
X121937445Y-130429300D01*
X121613635Y-130429300D01*
X121532683Y-130462633D01*
X121492207Y-130529300D01*
X121492207Y-130662633D01*
X121532683Y-130729300D01*
X121613635Y-130762633D01*
X121694588Y-130762633D01*
X121775540Y-130429300D01*
X122058873Y-131362633D02*
X121208873Y-131362633D01*
X122018397Y-131362633D02*
X122058873Y-131295966D01*
X122058873Y-131162633D01*
X122018397Y-131095966D01*
X121977921Y-131062633D01*
X121896969Y-131029300D01*
X121654111Y-131029300D01*
X121573159Y-131062633D01*
X121532683Y-131095966D01*
X121492207Y-131162633D01*
X121492207Y-131295966D01*
X121532683Y-131362633D01*
X122058873Y-132229300D02*
X121208873Y-132229300D01*
X121208873Y-132395966D01*
X121249350Y-132495966D01*
X121330302Y-132562633D01*
X121411254Y-132595966D01*
X121573159Y-132629300D01*
X121694588Y-132629300D01*
X121856492Y-132595966D01*
X121937445Y-132562633D01*
X122018397Y-132495966D01*
X122058873Y-132395966D01*
X122058873Y-132229300D01*
X122058873Y-133229300D02*
X121613635Y-133229300D01*
X121532683Y-133195966D01*
X121492207Y-133129300D01*
X121492207Y-132995966D01*
X121532683Y-132929300D01*
X122018397Y-133229300D02*
X122058873Y-133162633D01*
X122058873Y-132995966D01*
X122018397Y-132929300D01*
X121937445Y-132895966D01*
X121856492Y-132895966D01*
X121775540Y-132929300D01*
X121735064Y-132995966D01*
X121735064Y-133162633D01*
X121694588Y-133229300D01*
X121492207Y-133562633D02*
X122058873Y-133562633D01*
X121573159Y-133562633D02*
X121532683Y-133595966D01*
X121492207Y-133662633D01*
X121492207Y-133762633D01*
X121532683Y-133829300D01*
X121613635Y-133862633D01*
X122058873Y-133862633D01*
X122058873Y-134195966D02*
X121492207Y-134195966D01*
X121208873Y-134195966D02*
X121249350Y-134162633D01*
X121289826Y-134195966D01*
X121249350Y-134229300D01*
X121208873Y-134195966D01*
X121289826Y-134195966D01*
X122018397Y-134495966D02*
X122058873Y-134562633D01*
X122058873Y-134695966D01*
X122018397Y-134762633D01*
X121937445Y-134795966D01*
X121896969Y-134795966D01*
X121816016Y-134762633D01*
X121775540Y-134695966D01*
X121775540Y-134595966D01*
X121735064Y-134529300D01*
X121654111Y-134495966D01*
X121613635Y-134495966D01*
X121532683Y-134529300D01*
X121492207Y-134595966D01*
X121492207Y-134695966D01*
X121532683Y-134762633D01*
X122058873Y-135095966D02*
X121208873Y-135095966D01*
X122058873Y-135395966D02*
X121613635Y-135395966D01*
X121532683Y-135362633D01*
X121492207Y-135295966D01*
X121492207Y-135195966D01*
X121532683Y-135129300D01*
X121573159Y-135095966D01*
X121816016Y-136229300D02*
X121816016Y-136562633D01*
X122058873Y-136162633D02*
X121208873Y-136395966D01*
X122058873Y-136629300D01*
X121492207Y-137162633D02*
X122058873Y-137162633D01*
X121492207Y-136862633D02*
X121937445Y-136862633D01*
X122018397Y-136895966D01*
X122058873Y-136962633D01*
X122058873Y-137062633D01*
X122018397Y-137129300D01*
X121977921Y-137162633D01*
X122058873Y-137795966D02*
X121208873Y-137795966D01*
X122018397Y-137795966D02*
X122058873Y-137729300D01*
X122058873Y-137595966D01*
X122018397Y-137529300D01*
X121977921Y-137495966D01*
X121896969Y-137462633D01*
X121654111Y-137462633D01*
X121573159Y-137495966D01*
X121532683Y-137529300D01*
X121492207Y-137595966D01*
X121492207Y-137729300D01*
X121532683Y-137795966D01*
X122058873Y-138129300D02*
X121492207Y-138129300D01*
X121208873Y-138129300D02*
X121249350Y-138095966D01*
X121289826Y-138129300D01*
X121249350Y-138162633D01*
X121208873Y-138129300D01*
X121289826Y-138129300D01*
X122058873Y-138562633D02*
X122018397Y-138495966D01*
X121977921Y-138462633D01*
X121896969Y-138429300D01*
X121654111Y-138429300D01*
X121573159Y-138462633D01*
X121532683Y-138495966D01*
X121492207Y-138562633D01*
X121492207Y-138662633D01*
X121532683Y-138729300D01*
X121573159Y-138762633D01*
X121654111Y-138795966D01*
X121896969Y-138795966D01*
X121977921Y-138762633D01*
X122018397Y-138729300D01*
X122058873Y-138662633D01*
X122058873Y-138562633D01*
X122058873Y-139629300D02*
X121208873Y-139629300D01*
X121492207Y-139962633D02*
X122058873Y-139962633D01*
X121573159Y-139962633D02*
X121532683Y-139995966D01*
X121492207Y-140062633D01*
X121492207Y-140162633D01*
X121532683Y-140229300D01*
X121613635Y-140262633D01*
X122058873Y-140262633D01*
X122058873Y-140895966D02*
X121208873Y-140895966D01*
X122018397Y-140895966D02*
X122058873Y-140829300D01*
X122058873Y-140695966D01*
X122018397Y-140629300D01*
X121977921Y-140595966D01*
X121896969Y-140562633D01*
X121654111Y-140562633D01*
X121573159Y-140595966D01*
X121532683Y-140629300D01*
X121492207Y-140695966D01*
X121492207Y-140829300D01*
X121532683Y-140895966D01*
X121492207Y-141529300D02*
X122058873Y-141529300D01*
X121492207Y-141229300D02*
X121937445Y-141229300D01*
X122018397Y-141262633D01*
X122058873Y-141329300D01*
X122058873Y-141429300D01*
X122018397Y-141495966D01*
X121977921Y-141529300D01*
X122018397Y-141829300D02*
X122058873Y-141895966D01*
X122058873Y-142029300D01*
X122018397Y-142095966D01*
X121937445Y-142129300D01*
X121896969Y-142129300D01*
X121816016Y-142095966D01*
X121775540Y-142029300D01*
X121775540Y-141929300D01*
X121735064Y-141862633D01*
X121654111Y-141829300D01*
X121613635Y-141829300D01*
X121532683Y-141862633D01*
X121492207Y-141929300D01*
X121492207Y-142029300D01*
X121532683Y-142095966D01*
X121492207Y-142329300D02*
X121492207Y-142595966D01*
X121208873Y-142429300D02*
X121937445Y-142429300D01*
X122018397Y-142462633D01*
X122058873Y-142529300D01*
X122058873Y-142595966D01*
X122058873Y-142829300D02*
X121492207Y-142829300D01*
X121654111Y-142829300D02*
X121573159Y-142862633D01*
X121532683Y-142895966D01*
X121492207Y-142962633D01*
X121492207Y-143029300D01*
X121492207Y-143195966D02*
X122058873Y-143362633D01*
X121492207Y-143529300D02*
X122058873Y-143362633D01*
X122261254Y-143295966D01*
X122301730Y-143262633D01*
X122342207Y-143195966D01*
X121977921Y-143795966D02*
X122018397Y-143829300D01*
X122058873Y-143795966D01*
X122018397Y-143762633D01*
X121977921Y-143795966D01*
X122058873Y-143795966D01*
D10*
X108903766Y-137144766D02*
X108203766Y-137144766D01*
X108203766Y-137611433D02*
X108203766Y-137744766D01*
X108237100Y-137811433D01*
X108303766Y-137878100D01*
X108437100Y-137911433D01*
X108670433Y-137911433D01*
X108803766Y-137878100D01*
X108870433Y-137811433D01*
X108903766Y-137744766D01*
X108903766Y-137611433D01*
X108870433Y-137544766D01*
X108803766Y-137478100D01*
X108670433Y-137444766D01*
X108437100Y-137444766D01*
X108303766Y-137478100D01*
X108237100Y-137544766D01*
X108203766Y-137611433D01*
X108903766Y-138578100D02*
X108903766Y-138178100D01*
X108903766Y-138378100D02*
X108203766Y-138378100D01*
X108303766Y-138311433D01*
X108370433Y-138244766D01*
X108403766Y-138178100D01*
X108437100Y-139178100D02*
X108903766Y-139178100D01*
X108170433Y-139011433D02*
X108670433Y-138844766D01*
X108670433Y-139278100D01*
X157256766Y-145079300D02*
X156556766Y-145079300D01*
X157056766Y-145312633D01*
X156556766Y-145545966D01*
X157256766Y-145545966D01*
X157223433Y-145845966D02*
X157256766Y-145945966D01*
X157256766Y-146112633D01*
X157223433Y-146179300D01*
X157190100Y-146212633D01*
X157123433Y-146245966D01*
X157056766Y-146245966D01*
X156990100Y-146212633D01*
X156956766Y-146179300D01*
X156923433Y-146112633D01*
X156890100Y-145979300D01*
X156856766Y-145912633D01*
X156823433Y-145879300D01*
X156756766Y-145845966D01*
X156690100Y-145845966D01*
X156623433Y-145879300D01*
X156590100Y-145912633D01*
X156556766Y-145979300D01*
X156556766Y-146145966D01*
X156590100Y-146245966D01*
X156890100Y-146545966D02*
X156890100Y-146779300D01*
X157256766Y-146879300D02*
X157256766Y-146545966D01*
X156556766Y-146545966D01*
X156556766Y-146879300D01*
X157256766Y-147512633D02*
X157256766Y-147179300D01*
X156556766Y-147179300D01*
X156556766Y-147879300D02*
X156556766Y-147945966D01*
X156590100Y-148012633D01*
X156623433Y-148045966D01*
X156690100Y-148079300D01*
X156823433Y-148112633D01*
X156990100Y-148112633D01*
X157123433Y-148079300D01*
X157190100Y-148045966D01*
X157223433Y-148012633D01*
X157256766Y-147945966D01*
X157256766Y-147879300D01*
X157223433Y-147812633D01*
X157190100Y-147779300D01*
X157123433Y-147745966D01*
X156990100Y-147712633D01*
X156823433Y-147712633D01*
X156690100Y-147745966D01*
X156623433Y-147779300D01*
X156590100Y-147812633D01*
X156556766Y-147879300D01*
D11*
X150745588Y-110370966D02*
X150700350Y-110409061D01*
X150655111Y-110485252D01*
X150655111Y-110675728D01*
X150700350Y-110751919D01*
X150745588Y-110790014D01*
X150836064Y-110828109D01*
X150926540Y-110828109D01*
X151062254Y-110790014D01*
X151605111Y-110332871D01*
X151605111Y-110828109D01*
X151605111Y-111094776D02*
X150971778Y-111513823D01*
X150971778Y-111094776D02*
X151605111Y-111513823D01*
X151062254Y-111932871D02*
X151017016Y-111856680D01*
X150971778Y-111818585D01*
X150881302Y-111780490D01*
X150836064Y-111780490D01*
X150745588Y-111818585D01*
X150700350Y-111856680D01*
X150655111Y-111932871D01*
X150655111Y-112085252D01*
X150700350Y-112161442D01*
X150745588Y-112199538D01*
X150836064Y-112237633D01*
X150881302Y-112237633D01*
X150971778Y-112199538D01*
X151017016Y-112161442D01*
X151062254Y-112085252D01*
X151062254Y-111932871D01*
X151107492Y-111856680D01*
X151152730Y-111818585D01*
X151243207Y-111780490D01*
X151424159Y-111780490D01*
X151514635Y-111818585D01*
X151559873Y-111856680D01*
X151605111Y-111932871D01*
X151605111Y-112085252D01*
X151559873Y-112161442D01*
X151514635Y-112199538D01*
X151424159Y-112237633D01*
X151243207Y-112237633D01*
X151152730Y-112199538D01*
X151107492Y-112161442D01*
X151062254Y-112085252D01*
X150655111Y-112732871D02*
X150655111Y-112809061D01*
X150700350Y-112885252D01*
X150745588Y-112923347D01*
X150836064Y-112961442D01*
X151017016Y-112999538D01*
X151243207Y-112999538D01*
X151424159Y-112961442D01*
X151514635Y-112923347D01*
X151559873Y-112885252D01*
X151605111Y-112809061D01*
X151605111Y-112732871D01*
X151559873Y-112656680D01*
X151514635Y-112618585D01*
X151424159Y-112580490D01*
X151243207Y-112542395D01*
X151017016Y-112542395D01*
X150836064Y-112580490D01*
X150745588Y-112618585D01*
X150700350Y-112656680D01*
X150655111Y-112732871D01*
X150655111Y-113266204D02*
X151605111Y-113456680D01*
X150926540Y-113609061D01*
X151605111Y-113761442D01*
X150655111Y-113951919D01*
X151152730Y-115361442D02*
X151107492Y-115323347D01*
X151062254Y-115247157D01*
X151062254Y-115170966D01*
X151107492Y-115094776D01*
X151152730Y-115056680D01*
X151243207Y-115018585D01*
X151333683Y-115018585D01*
X151424159Y-115056680D01*
X151469397Y-115094776D01*
X151514635Y-115170966D01*
X151514635Y-115247157D01*
X151469397Y-115323347D01*
X151424159Y-115361442D01*
X151062254Y-115361442D02*
X151424159Y-115361442D01*
X151469397Y-115399538D01*
X151469397Y-115437633D01*
X151424159Y-115513823D01*
X151333683Y-115551919D01*
X151107492Y-115551919D01*
X150971778Y-115475728D01*
X150881302Y-115361442D01*
X150836064Y-115209061D01*
X150881302Y-115056680D01*
X150971778Y-114942395D01*
X151107492Y-114866204D01*
X151288445Y-114828109D01*
X151469397Y-114866204D01*
X151605111Y-114942395D01*
X151695588Y-115056680D01*
X151740826Y-115209061D01*
X151695588Y-115361442D01*
X151605111Y-115475728D01*
X150971778Y-116237633D02*
X151605111Y-116237633D01*
X150609873Y-116047157D02*
X151288445Y-115856680D01*
X151288445Y-116351919D01*
X151605111Y-116618585D02*
X151605111Y-116809061D01*
X151424159Y-116809061D01*
X151378921Y-116732871D01*
X151288445Y-116656680D01*
X151152730Y-116618585D01*
X150926540Y-116618585D01*
X150790826Y-116656680D01*
X150700350Y-116732871D01*
X150655111Y-116847157D01*
X150655111Y-116999538D01*
X150700350Y-117113823D01*
X150790826Y-117190014D01*
X150926540Y-117228109D01*
X151152730Y-117228109D01*
X151288445Y-117190014D01*
X151378921Y-117113823D01*
X151424159Y-117037633D01*
X151605111Y-117037633D01*
X151605111Y-117228109D01*
X152682230Y-110599538D02*
X152636992Y-110561442D01*
X152591754Y-110485252D01*
X152591754Y-110409061D01*
X152636992Y-110332871D01*
X152682230Y-110294776D01*
X152772707Y-110256680D01*
X152863183Y-110256680D01*
X152953659Y-110294776D01*
X152998897Y-110332871D01*
X153044135Y-110409061D01*
X153044135Y-110485252D01*
X152998897Y-110561442D01*
X152953659Y-110599538D01*
X152591754Y-110599538D02*
X152953659Y-110599538D01*
X152998897Y-110637633D01*
X152998897Y-110675728D01*
X152953659Y-110751919D01*
X152863183Y-110790014D01*
X152636992Y-110790014D01*
X152501278Y-110713823D01*
X152410802Y-110599538D01*
X152365564Y-110447157D01*
X152410802Y-110294776D01*
X152501278Y-110180490D01*
X152636992Y-110104300D01*
X152817945Y-110066204D01*
X152998897Y-110104300D01*
X153134611Y-110180490D01*
X153225088Y-110294776D01*
X153270326Y-110447157D01*
X153225088Y-110599538D01*
X153134611Y-110713823D01*
X153134611Y-111551919D02*
X153134611Y-111094776D01*
X153134611Y-111323347D02*
X152184611Y-111323347D01*
X152320326Y-111247157D01*
X152410802Y-111170966D01*
X152456040Y-111094776D01*
X152184611Y-112047157D02*
X152184611Y-112123347D01*
X152229850Y-112199538D01*
X152275088Y-112237633D01*
X152365564Y-112275728D01*
X152546516Y-112313823D01*
X152772707Y-112313823D01*
X152953659Y-112275728D01*
X153044135Y-112237633D01*
X153089373Y-112199538D01*
X153134611Y-112123347D01*
X153134611Y-112047157D01*
X153089373Y-111970966D01*
X153044135Y-111932871D01*
X152953659Y-111894776D01*
X152772707Y-111856680D01*
X152546516Y-111856680D01*
X152365564Y-111894776D01*
X152275088Y-111932871D01*
X152229850Y-111970966D01*
X152184611Y-112047157D01*
X153134611Y-112618585D02*
X152184611Y-113228109D01*
X152184611Y-112732871D02*
X152229850Y-112809061D01*
X152320326Y-112847157D01*
X152410802Y-112809061D01*
X152456040Y-112732871D01*
X152410802Y-112656680D01*
X152320326Y-112618585D01*
X152229850Y-112656680D01*
X152184611Y-112732871D01*
X153089373Y-113190014D02*
X152998897Y-113228109D01*
X152908421Y-113190014D01*
X152863183Y-113113823D01*
X152908421Y-113037633D01*
X152998897Y-112999538D01*
X153089373Y-113037633D01*
X153134611Y-113113823D01*
X153089373Y-113190014D01*
X152184611Y-113456680D02*
X152184611Y-113913823D01*
X153134611Y-113685252D02*
X152184611Y-113685252D01*
X153134611Y-114180490D02*
X152184611Y-114180490D01*
X152636992Y-114180490D02*
X152636992Y-114637633D01*
X153134611Y-114637633D02*
X152184611Y-114637633D01*
X153134611Y-115018585D02*
X152184611Y-115018585D01*
X152184611Y-115209061D01*
X152229850Y-115323347D01*
X152320326Y-115399538D01*
X152410802Y-115437633D01*
X152591754Y-115475728D01*
X152727469Y-115475728D01*
X152908421Y-115437633D01*
X152998897Y-115399538D01*
X153089373Y-115323347D01*
X153134611Y-115209061D01*
X153134611Y-115018585D01*
X152636992Y-116694776D02*
X152682230Y-116809061D01*
X152727469Y-116847157D01*
X152817945Y-116885252D01*
X152953659Y-116885252D01*
X153044135Y-116847157D01*
X153089373Y-116809061D01*
X153134611Y-116732871D01*
X153134611Y-116428109D01*
X152184611Y-116428109D01*
X152184611Y-116694776D01*
X152229850Y-116770966D01*
X152275088Y-116809061D01*
X152365564Y-116847157D01*
X152456040Y-116847157D01*
X152546516Y-116809061D01*
X152591754Y-116770966D01*
X152636992Y-116694776D01*
X152636992Y-116428109D01*
X152184611Y-117113823D02*
X152184611Y-117570966D01*
X153134611Y-117342395D02*
X152184611Y-117342395D01*
X153134611Y-118218585D02*
X153134611Y-117837633D01*
X152184611Y-117837633D01*
D13*
X148798571Y-159812380D02*
X148798571Y-157907619D01*
X148911428Y-117127619D02*
X148911428Y-119032380D01*
X147959047Y-118080000D02*
X149863809Y-118080000D01*
D11*
X135791923Y-122446933D02*
X134941923Y-122446933D01*
X135791923Y-122746933D02*
X135346685Y-122746933D01*
X135265733Y-122713600D01*
X135225257Y-122646933D01*
X135225257Y-122546933D01*
X135265733Y-122480266D01*
X135306209Y-122446933D01*
X135225257Y-122980266D02*
X135225257Y-123246933D01*
X134941923Y-123080266D02*
X135670495Y-123080266D01*
X135751447Y-123113600D01*
X135791923Y-123180266D01*
X135791923Y-123246933D01*
X135225257Y-123380266D02*
X135225257Y-123646933D01*
X134941923Y-123480266D02*
X135670495Y-123480266D01*
X135751447Y-123513600D01*
X135791923Y-123580266D01*
X135791923Y-123646933D01*
X135225257Y-123880266D02*
X136075257Y-123880266D01*
X135265733Y-123880266D02*
X135225257Y-123946933D01*
X135225257Y-124080266D01*
X135265733Y-124146933D01*
X135306209Y-124180266D01*
X135387161Y-124213600D01*
X135630019Y-124213600D01*
X135710971Y-124180266D01*
X135751447Y-124146933D01*
X135791923Y-124080266D01*
X135791923Y-123946933D01*
X135751447Y-123880266D01*
X135751447Y-124480266D02*
X135791923Y-124546933D01*
X135791923Y-124680266D01*
X135751447Y-124746933D01*
X135670495Y-124780266D01*
X135630019Y-124780266D01*
X135549066Y-124746933D01*
X135508590Y-124680266D01*
X135508590Y-124580266D01*
X135468114Y-124513600D01*
X135387161Y-124480266D01*
X135346685Y-124480266D01*
X135265733Y-124513600D01*
X135225257Y-124580266D01*
X135225257Y-124680266D01*
X135265733Y-124746933D01*
X135710971Y-125080266D02*
X135751447Y-125113600D01*
X135791923Y-125080266D01*
X135751447Y-125046933D01*
X135710971Y-125080266D01*
X135791923Y-125080266D01*
X135265733Y-125080266D02*
X135306209Y-125113600D01*
X135346685Y-125080266D01*
X135306209Y-125046933D01*
X135265733Y-125080266D01*
X135346685Y-125080266D01*
X134901447Y-125913600D02*
X135994304Y-125313600D01*
X134901447Y-126646933D02*
X135994304Y-126046933D01*
X135225257Y-127180266D02*
X135913352Y-127180266D01*
X135994304Y-127146933D01*
X136034780Y-127113600D01*
X136075257Y-127046933D01*
X136075257Y-126946933D01*
X136034780Y-126880266D01*
X135751447Y-127180266D02*
X135791923Y-127113600D01*
X135791923Y-126980266D01*
X135751447Y-126913600D01*
X135710971Y-126880266D01*
X135630019Y-126846933D01*
X135387161Y-126846933D01*
X135306209Y-126880266D01*
X135265733Y-126913600D01*
X135225257Y-126980266D01*
X135225257Y-127113600D01*
X135265733Y-127180266D01*
X135791923Y-127513600D02*
X135225257Y-127513600D01*
X134941923Y-127513600D02*
X134982400Y-127480266D01*
X135022876Y-127513600D01*
X134982400Y-127546933D01*
X134941923Y-127513600D01*
X135022876Y-127513600D01*
X135225257Y-127746933D02*
X135225257Y-128013600D01*
X134941923Y-127846933D02*
X135670495Y-127846933D01*
X135751447Y-127880266D01*
X135791923Y-127946933D01*
X135791923Y-128013600D01*
X135791923Y-128246933D02*
X134941923Y-128246933D01*
X135791923Y-128546933D02*
X135346685Y-128546933D01*
X135265733Y-128513600D01*
X135225257Y-128446933D01*
X135225257Y-128346933D01*
X135265733Y-128280266D01*
X135306209Y-128246933D01*
X135225257Y-129180266D02*
X135791923Y-129180266D01*
X135225257Y-128880266D02*
X135670495Y-128880266D01*
X135751447Y-128913600D01*
X135791923Y-128980266D01*
X135791923Y-129080266D01*
X135751447Y-129146933D01*
X135710971Y-129180266D01*
X135791923Y-129513600D02*
X134941923Y-129513600D01*
X135265733Y-129513600D02*
X135225257Y-129580266D01*
X135225257Y-129713600D01*
X135265733Y-129780266D01*
X135306209Y-129813600D01*
X135387161Y-129846933D01*
X135630019Y-129846933D01*
X135710971Y-129813600D01*
X135751447Y-129780266D01*
X135791923Y-129713600D01*
X135791923Y-129580266D01*
X135751447Y-129513600D01*
X135710971Y-130146933D02*
X135751447Y-130180266D01*
X135791923Y-130146933D01*
X135751447Y-130113600D01*
X135710971Y-130146933D01*
X135791923Y-130146933D01*
X135751447Y-130780266D02*
X135791923Y-130713600D01*
X135791923Y-130580266D01*
X135751447Y-130513600D01*
X135710971Y-130480266D01*
X135630019Y-130446933D01*
X135387161Y-130446933D01*
X135306209Y-130480266D01*
X135265733Y-130513600D01*
X135225257Y-130580266D01*
X135225257Y-130713600D01*
X135265733Y-130780266D01*
X135791923Y-131180266D02*
X135751447Y-131113600D01*
X135710971Y-131080266D01*
X135630019Y-131046933D01*
X135387161Y-131046933D01*
X135306209Y-131080266D01*
X135265733Y-131113600D01*
X135225257Y-131180266D01*
X135225257Y-131280266D01*
X135265733Y-131346933D01*
X135306209Y-131380266D01*
X135387161Y-131413600D01*
X135630019Y-131413600D01*
X135710971Y-131380266D01*
X135751447Y-131346933D01*
X135791923Y-131280266D01*
X135791923Y-131180266D01*
X135791923Y-131713600D02*
X135225257Y-131713600D01*
X135306209Y-131713600D02*
X135265733Y-131746933D01*
X135225257Y-131813600D01*
X135225257Y-131913600D01*
X135265733Y-131980266D01*
X135346685Y-132013600D01*
X135791923Y-132013600D01*
X135346685Y-132013600D02*
X135265733Y-132046933D01*
X135225257Y-132113600D01*
X135225257Y-132213600D01*
X135265733Y-132280266D01*
X135346685Y-132313600D01*
X135791923Y-132313600D01*
X134901447Y-133146933D02*
X135994304Y-132546933D01*
X135225257Y-133280266D02*
X135225257Y-133546933D01*
X135791923Y-133380266D02*
X135063352Y-133380266D01*
X134982400Y-133413600D01*
X134941923Y-133480266D01*
X134941923Y-133546933D01*
X135751447Y-134046933D02*
X135791923Y-133980266D01*
X135791923Y-133846933D01*
X135751447Y-133780266D01*
X135670495Y-133746933D01*
X135346685Y-133746933D01*
X135265733Y-133780266D01*
X135225257Y-133846933D01*
X135225257Y-133980266D01*
X135265733Y-134046933D01*
X135346685Y-134080266D01*
X135427638Y-134080266D01*
X135508590Y-133746933D01*
X135751447Y-134646933D02*
X135791923Y-134580266D01*
X135791923Y-134446933D01*
X135751447Y-134380266D01*
X135670495Y-134346933D01*
X135346685Y-134346933D01*
X135265733Y-134380266D01*
X135225257Y-134446933D01*
X135225257Y-134580266D01*
X135265733Y-134646933D01*
X135346685Y-134680266D01*
X135427638Y-134680266D01*
X135508590Y-134346933D01*
X135791923Y-135080266D02*
X135751447Y-135013600D01*
X135670495Y-134980266D01*
X134941923Y-134980266D01*
X135225257Y-135246933D02*
X135225257Y-135513600D01*
X135791923Y-135346933D02*
X135063352Y-135346933D01*
X134982400Y-135380266D01*
X134941923Y-135446933D01*
X134941923Y-135513600D01*
X135791923Y-135746933D02*
X135225257Y-135746933D01*
X135387161Y-135746933D02*
X135306209Y-135780266D01*
X135265733Y-135813600D01*
X135225257Y-135880266D01*
X135225257Y-135946933D01*
X135751447Y-136446933D02*
X135791923Y-136380266D01*
X135791923Y-136246933D01*
X135751447Y-136180266D01*
X135670495Y-136146933D01*
X135346685Y-136146933D01*
X135265733Y-136180266D01*
X135225257Y-136246933D01*
X135225257Y-136380266D01*
X135265733Y-136446933D01*
X135346685Y-136480266D01*
X135427638Y-136480266D01*
X135508590Y-136146933D01*
X135751447Y-137046933D02*
X135791923Y-136980266D01*
X135791923Y-136846933D01*
X135751447Y-136780266D01*
X135670495Y-136746933D01*
X135346685Y-136746933D01*
X135265733Y-136780266D01*
X135225257Y-136846933D01*
X135225257Y-136980266D01*
X135265733Y-137046933D01*
X135346685Y-137080266D01*
X135427638Y-137080266D01*
X135508590Y-136746933D01*
X135791923Y-137480266D02*
X135751447Y-137413600D01*
X135670495Y-137380266D01*
X134941923Y-137380266D01*
X135791923Y-137746933D02*
X135225257Y-137746933D01*
X134941923Y-137746933D02*
X134982400Y-137713600D01*
X135022876Y-137746933D01*
X134982400Y-137780266D01*
X134941923Y-137746933D01*
X135022876Y-137746933D01*
X135225257Y-138080266D02*
X135791923Y-138080266D01*
X135306209Y-138080266D02*
X135265733Y-138113600D01*
X135225257Y-138180266D01*
X135225257Y-138280266D01*
X135265733Y-138346933D01*
X135346685Y-138380266D01*
X135791923Y-138380266D01*
X135225257Y-139013600D02*
X135791923Y-139013600D01*
X135225257Y-138713600D02*
X135670495Y-138713600D01*
X135751447Y-138746933D01*
X135791923Y-138813600D01*
X135791923Y-138913600D01*
X135751447Y-138980266D01*
X135710971Y-139013600D01*
X135791923Y-139280266D02*
X135225257Y-139646933D01*
X135225257Y-139280266D02*
X135791923Y-139646933D01*
X134901447Y-140413600D02*
X135994304Y-139813600D01*
X135751447Y-140913600D02*
X135791923Y-140846933D01*
X135791923Y-140713600D01*
X135751447Y-140646933D01*
X135670495Y-140613600D01*
X135346685Y-140613600D01*
X135265733Y-140646933D01*
X135225257Y-140713600D01*
X135225257Y-140846933D01*
X135265733Y-140913600D01*
X135346685Y-140946933D01*
X135427638Y-140946933D01*
X135508590Y-140613600D01*
X135225257Y-141546933D02*
X135791923Y-141546933D01*
X135225257Y-141246933D02*
X135670495Y-141246933D01*
X135751447Y-141280266D01*
X135791923Y-141346933D01*
X135791923Y-141446933D01*
X135751447Y-141513600D01*
X135710971Y-141546933D01*
X135225257Y-141880266D02*
X136075257Y-141880266D01*
X135265733Y-141880266D02*
X135225257Y-141946933D01*
X135225257Y-142080266D01*
X135265733Y-142146933D01*
X135306209Y-142180266D01*
X135387161Y-142213600D01*
X135630019Y-142213600D01*
X135710971Y-142180266D01*
X135751447Y-142146933D01*
X135791923Y-142080266D01*
X135791923Y-141946933D01*
X135751447Y-141880266D01*
X135791923Y-142513600D02*
X134941923Y-142513600D01*
X135791923Y-142813600D02*
X135346685Y-142813600D01*
X135265733Y-142780266D01*
X135225257Y-142713600D01*
X135225257Y-142613600D01*
X135265733Y-142546933D01*
X135306209Y-142513600D01*
X135791923Y-143246933D02*
X135751447Y-143180266D01*
X135710971Y-143146933D01*
X135630019Y-143113600D01*
X135387161Y-143113600D01*
X135306209Y-143146933D01*
X135265733Y-143180266D01*
X135225257Y-143246933D01*
X135225257Y-143346933D01*
X135265733Y-143413600D01*
X135306209Y-143446933D01*
X135387161Y-143480266D01*
X135630019Y-143480266D01*
X135710971Y-143446933D01*
X135751447Y-143413600D01*
X135791923Y-143346933D01*
X135791923Y-143246933D01*
X135225257Y-143780266D02*
X135791923Y-143780266D01*
X135306209Y-143780266D02*
X135265733Y-143813600D01*
X135225257Y-143880266D01*
X135225257Y-143980266D01*
X135265733Y-144046933D01*
X135346685Y-144080266D01*
X135791923Y-144080266D01*
X135791923Y-144413600D02*
X135225257Y-144413600D01*
X134941923Y-144413600D02*
X134982400Y-144380266D01*
X135022876Y-144413600D01*
X134982400Y-144446933D01*
X134941923Y-144413600D01*
X135022876Y-144413600D01*
X135225257Y-145046933D02*
X135791923Y-145046933D01*
X135225257Y-144746933D02*
X135670495Y-144746933D01*
X135751447Y-144780266D01*
X135791923Y-144846933D01*
X135791923Y-144946933D01*
X135751447Y-145013600D01*
X135710971Y-145046933D01*
X135791923Y-145380266D02*
X135225257Y-145380266D01*
X135306209Y-145380266D02*
X135265733Y-145413600D01*
X135225257Y-145480266D01*
X135225257Y-145580266D01*
X135265733Y-145646933D01*
X135346685Y-145680266D01*
X135791923Y-145680266D01*
X135346685Y-145680266D02*
X135265733Y-145713600D01*
X135225257Y-145780266D01*
X135225257Y-145880266D01*
X135265733Y-145946933D01*
X135346685Y-145980266D01*
X135791923Y-145980266D01*
D12*
X90456766Y-112245966D02*
X90456766Y-112645966D01*
X91156766Y-112445966D02*
X90456766Y-112445966D01*
X90456766Y-112812633D02*
X91156766Y-113279300D01*
X90456766Y-113279300D02*
X91156766Y-112812633D01*
X100690100Y-112745966D02*
X100656766Y-112679300D01*
X100656766Y-112579300D01*
X100690100Y-112479300D01*
X100756766Y-112412633D01*
X100823433Y-112379300D01*
X100956766Y-112345966D01*
X101056766Y-112345966D01*
X101190100Y-112379300D01*
X101256766Y-112412633D01*
X101323433Y-112479300D01*
X101356766Y-112579300D01*
X101356766Y-112645966D01*
X101323433Y-112745966D01*
X101290100Y-112779300D01*
X101056766Y-112779300D01*
X101056766Y-112645966D01*
X101356766Y-113079300D02*
X100656766Y-113079300D01*
X101356766Y-113479300D01*
X100656766Y-113479300D01*
X101356766Y-113812633D02*
X100656766Y-113812633D01*
X100656766Y-113979300D01*
X100690100Y-114079300D01*
X100756766Y-114145966D01*
X100823433Y-114179300D01*
X100956766Y-114212633D01*
X101056766Y-114212633D01*
X101190100Y-114179300D01*
X101256766Y-114145966D01*
X101323433Y-114079300D01*
X101356766Y-113979300D01*
X101356766Y-113812633D01*
D11*
X150595588Y-151445966D02*
X150550350Y-151484061D01*
X150505111Y-151560252D01*
X150505111Y-151750728D01*
X150550350Y-151826919D01*
X150595588Y-151865014D01*
X150686064Y-151903109D01*
X150776540Y-151903109D01*
X150912254Y-151865014D01*
X151455111Y-151407871D01*
X151455111Y-151903109D01*
X151455111Y-152169776D02*
X150821778Y-152588823D01*
X150821778Y-152169776D02*
X151455111Y-152588823D01*
X150912254Y-153007871D02*
X150867016Y-152931680D01*
X150821778Y-152893585D01*
X150731302Y-152855490D01*
X150686064Y-152855490D01*
X150595588Y-152893585D01*
X150550350Y-152931680D01*
X150505111Y-153007871D01*
X150505111Y-153160252D01*
X150550350Y-153236442D01*
X150595588Y-153274538D01*
X150686064Y-153312633D01*
X150731302Y-153312633D01*
X150821778Y-153274538D01*
X150867016Y-153236442D01*
X150912254Y-153160252D01*
X150912254Y-153007871D01*
X150957492Y-152931680D01*
X151002730Y-152893585D01*
X151093207Y-152855490D01*
X151274159Y-152855490D01*
X151364635Y-152893585D01*
X151409873Y-152931680D01*
X151455111Y-153007871D01*
X151455111Y-153160252D01*
X151409873Y-153236442D01*
X151364635Y-153274538D01*
X151274159Y-153312633D01*
X151093207Y-153312633D01*
X151002730Y-153274538D01*
X150957492Y-153236442D01*
X150912254Y-153160252D01*
X150505111Y-153807871D02*
X150505111Y-153884061D01*
X150550350Y-153960252D01*
X150595588Y-153998347D01*
X150686064Y-154036442D01*
X150867016Y-154074538D01*
X151093207Y-154074538D01*
X151274159Y-154036442D01*
X151364635Y-153998347D01*
X151409873Y-153960252D01*
X151455111Y-153884061D01*
X151455111Y-153807871D01*
X151409873Y-153731680D01*
X151364635Y-153693585D01*
X151274159Y-153655490D01*
X151093207Y-153617395D01*
X150867016Y-153617395D01*
X150686064Y-153655490D01*
X150595588Y-153693585D01*
X150550350Y-153731680D01*
X150505111Y-153807871D01*
X150505111Y-154341204D02*
X151455111Y-154531680D01*
X150776540Y-154684061D01*
X151455111Y-154836442D01*
X150505111Y-155026919D01*
X151002730Y-156436442D02*
X150957492Y-156398347D01*
X150912254Y-156322157D01*
X150912254Y-156245966D01*
X150957492Y-156169776D01*
X151002730Y-156131680D01*
X151093207Y-156093585D01*
X151183683Y-156093585D01*
X151274159Y-156131680D01*
X151319397Y-156169776D01*
X151364635Y-156245966D01*
X151364635Y-156322157D01*
X151319397Y-156398347D01*
X151274159Y-156436442D01*
X150912254Y-156436442D02*
X151274159Y-156436442D01*
X151319397Y-156474538D01*
X151319397Y-156512633D01*
X151274159Y-156588823D01*
X151183683Y-156626919D01*
X150957492Y-156626919D01*
X150821778Y-156550728D01*
X150731302Y-156436442D01*
X150686064Y-156284061D01*
X150731302Y-156131680D01*
X150821778Y-156017395D01*
X150957492Y-155941204D01*
X151138445Y-155903109D01*
X151319397Y-155941204D01*
X151455111Y-156017395D01*
X151545588Y-156131680D01*
X151590826Y-156284061D01*
X151545588Y-156436442D01*
X151455111Y-156550728D01*
X150821778Y-157312633D02*
X151455111Y-157312633D01*
X150459873Y-157122157D02*
X151138445Y-156931680D01*
X151138445Y-157426919D01*
X151455111Y-157693585D02*
X151455111Y-157884061D01*
X151274159Y-157884061D01*
X151228921Y-157807871D01*
X151138445Y-157731680D01*
X151002730Y-157693585D01*
X150776540Y-157693585D01*
X150640826Y-157731680D01*
X150550350Y-157807871D01*
X150505111Y-157922157D01*
X150505111Y-158074538D01*
X150550350Y-158188823D01*
X150640826Y-158265014D01*
X150776540Y-158303109D01*
X151002730Y-158303109D01*
X151138445Y-158265014D01*
X151228921Y-158188823D01*
X151274159Y-158112633D01*
X151455111Y-158112633D01*
X151455111Y-158303109D01*
X152532230Y-151674538D02*
X152486992Y-151636442D01*
X152441754Y-151560252D01*
X152441754Y-151484061D01*
X152486992Y-151407871D01*
X152532230Y-151369776D01*
X152622707Y-151331680D01*
X152713183Y-151331680D01*
X152803659Y-151369776D01*
X152848897Y-151407871D01*
X152894135Y-151484061D01*
X152894135Y-151560252D01*
X152848897Y-151636442D01*
X152803659Y-151674538D01*
X152441754Y-151674538D02*
X152803659Y-151674538D01*
X152848897Y-151712633D01*
X152848897Y-151750728D01*
X152803659Y-151826919D01*
X152713183Y-151865014D01*
X152486992Y-151865014D01*
X152351278Y-151788823D01*
X152260802Y-151674538D01*
X152215564Y-151522157D01*
X152260802Y-151369776D01*
X152351278Y-151255490D01*
X152486992Y-151179300D01*
X152667945Y-151141204D01*
X152848897Y-151179300D01*
X152984611Y-151255490D01*
X153075088Y-151369776D01*
X153120326Y-151522157D01*
X153075088Y-151674538D01*
X152984611Y-151788823D01*
X152984611Y-152626919D02*
X152984611Y-152169776D01*
X152984611Y-152398347D02*
X152034611Y-152398347D01*
X152170326Y-152322157D01*
X152260802Y-152245966D01*
X152306040Y-152169776D01*
X152034611Y-153122157D02*
X152034611Y-153198347D01*
X152079850Y-153274538D01*
X152125088Y-153312633D01*
X152215564Y-153350728D01*
X152396516Y-153388823D01*
X152622707Y-153388823D01*
X152803659Y-153350728D01*
X152894135Y-153312633D01*
X152939373Y-153274538D01*
X152984611Y-153198347D01*
X152984611Y-153122157D01*
X152939373Y-153045966D01*
X152894135Y-153007871D01*
X152803659Y-152969776D01*
X152622707Y-152931680D01*
X152396516Y-152931680D01*
X152215564Y-152969776D01*
X152125088Y-153007871D01*
X152079850Y-153045966D01*
X152034611Y-153122157D01*
X152984611Y-153693585D02*
X152034611Y-154303109D01*
X152034611Y-153807871D02*
X152079850Y-153884061D01*
X152170326Y-153922157D01*
X152260802Y-153884061D01*
X152306040Y-153807871D01*
X152260802Y-153731680D01*
X152170326Y-153693585D01*
X152079850Y-153731680D01*
X152034611Y-153807871D01*
X152939373Y-154265014D02*
X152848897Y-154303109D01*
X152758421Y-154265014D01*
X152713183Y-154188823D01*
X152758421Y-154112633D01*
X152848897Y-154074538D01*
X152939373Y-154112633D01*
X152984611Y-154188823D01*
X152939373Y-154265014D01*
X152034611Y-154531680D02*
X152034611Y-154988823D01*
X152984611Y-154760252D02*
X152034611Y-154760252D01*
X152984611Y-155255490D02*
X152034611Y-155255490D01*
X152486992Y-155255490D02*
X152486992Y-155712633D01*
X152984611Y-155712633D02*
X152034611Y-155712633D01*
X152984611Y-156093585D02*
X152034611Y-156093585D01*
X152034611Y-156284061D01*
X152079850Y-156398347D01*
X152170326Y-156474538D01*
X152260802Y-156512633D01*
X152441754Y-156550728D01*
X152577469Y-156550728D01*
X152758421Y-156512633D01*
X152848897Y-156474538D01*
X152939373Y-156398347D01*
X152984611Y-156284061D01*
X152984611Y-156093585D01*
X152486992Y-157769776D02*
X152532230Y-157884061D01*
X152577469Y-157922157D01*
X152667945Y-157960252D01*
X152803659Y-157960252D01*
X152894135Y-157922157D01*
X152939373Y-157884061D01*
X152984611Y-157807871D01*
X152984611Y-157503109D01*
X152034611Y-157503109D01*
X152034611Y-157769776D01*
X152079850Y-157845966D01*
X152125088Y-157884061D01*
X152215564Y-157922157D01*
X152306040Y-157922157D01*
X152396516Y-157884061D01*
X152441754Y-157845966D01*
X152486992Y-157769776D01*
X152486992Y-157503109D01*
X152034611Y-158188823D02*
X152034611Y-158645966D01*
X152984611Y-158417395D02*
X152034611Y-158417395D01*
X152984611Y-159293585D02*
X152984611Y-158912633D01*
X152034611Y-158912633D01*
D14*
X118673433Y-120515014D02*
X118673433Y-120943585D01*
X118944861Y-120429300D02*
X117994861Y-120729300D01*
X118944861Y-121029300D01*
X118311528Y-121329300D02*
X118944861Y-121329300D01*
X118402004Y-121329300D02*
X118356766Y-121372157D01*
X118311528Y-121457871D01*
X118311528Y-121586442D01*
X118356766Y-121672157D01*
X118447242Y-121715014D01*
X118944861Y-121715014D01*
X117994861Y-123000728D02*
X117994861Y-123172157D01*
X118040100Y-123257871D01*
X118130576Y-123343585D01*
X118311528Y-123386442D01*
X118628195Y-123386442D01*
X118809147Y-123343585D01*
X118899623Y-123257871D01*
X118944861Y-123172157D01*
X118944861Y-123000728D01*
X118899623Y-122915014D01*
X118809147Y-122829300D01*
X118628195Y-122786442D01*
X118311528Y-122786442D01*
X118130576Y-122829300D01*
X118040100Y-122915014D01*
X117994861Y-123000728D01*
X118311528Y-123772157D02*
X119261528Y-123772157D01*
X118356766Y-123772157D02*
X118311528Y-123857871D01*
X118311528Y-124029300D01*
X118356766Y-124115014D01*
X118402004Y-124157871D01*
X118492480Y-124200728D01*
X118763909Y-124200728D01*
X118854385Y-124157871D01*
X118899623Y-124115014D01*
X118944861Y-124029300D01*
X118944861Y-123857871D01*
X118899623Y-123772157D01*
X118899623Y-124929300D02*
X118944861Y-124843585D01*
X118944861Y-124672157D01*
X118899623Y-124586442D01*
X118809147Y-124543585D01*
X118447242Y-124543585D01*
X118356766Y-124586442D01*
X118311528Y-124672157D01*
X118311528Y-124843585D01*
X118356766Y-124929300D01*
X118447242Y-124972157D01*
X118537719Y-124972157D01*
X118628195Y-124543585D01*
X118311528Y-125357871D02*
X118944861Y-125357871D01*
X118402004Y-125357871D02*
X118356766Y-125400728D01*
X118311528Y-125486442D01*
X118311528Y-125615014D01*
X118356766Y-125700728D01*
X118447242Y-125743585D01*
X118944861Y-125743585D01*
X118899623Y-126815014D02*
X118944861Y-126943585D01*
X118944861Y-127157871D01*
X118899623Y-127243585D01*
X118854385Y-127286442D01*
X118763909Y-127329300D01*
X118673433Y-127329300D01*
X118582957Y-127286442D01*
X118537719Y-127243585D01*
X118492480Y-127157871D01*
X118447242Y-126986442D01*
X118402004Y-126900728D01*
X118356766Y-126857871D01*
X118266290Y-126815014D01*
X118175814Y-126815014D01*
X118085338Y-126857871D01*
X118040100Y-126900728D01*
X117994861Y-126986442D01*
X117994861Y-127200728D01*
X118040100Y-127329300D01*
X118944861Y-127843585D02*
X118899623Y-127757871D01*
X118854385Y-127715014D01*
X118763909Y-127672157D01*
X118492480Y-127672157D01*
X118402004Y-127715014D01*
X118356766Y-127757871D01*
X118311528Y-127843585D01*
X118311528Y-127972157D01*
X118356766Y-128057871D01*
X118402004Y-128100728D01*
X118492480Y-128143585D01*
X118763909Y-128143585D01*
X118854385Y-128100728D01*
X118899623Y-128057871D01*
X118944861Y-127972157D01*
X118944861Y-127843585D01*
X118311528Y-128915014D02*
X118944861Y-128915014D01*
X118311528Y-128529299D02*
X118809147Y-128529299D01*
X118899623Y-128572157D01*
X118944861Y-128657871D01*
X118944861Y-128786442D01*
X118899623Y-128872157D01*
X118854385Y-128915014D01*
X118944861Y-129343585D02*
X118311528Y-129343585D01*
X118492480Y-129343585D02*
X118402004Y-129386442D01*
X118356766Y-129429299D01*
X118311528Y-129515014D01*
X118311528Y-129600728D01*
X118899623Y-130286442D02*
X118944861Y-130200728D01*
X118944861Y-130029299D01*
X118899623Y-129943585D01*
X118854385Y-129900728D01*
X118763909Y-129857871D01*
X118492480Y-129857871D01*
X118402004Y-129900728D01*
X118356766Y-129943585D01*
X118311528Y-130029299D01*
X118311528Y-130200728D01*
X118356766Y-130286442D01*
X118899623Y-131015014D02*
X118944861Y-130929299D01*
X118944861Y-130757871D01*
X118899623Y-130672157D01*
X118809147Y-130629299D01*
X118447242Y-130629299D01*
X118356766Y-130672157D01*
X118311528Y-130757871D01*
X118311528Y-130929299D01*
X118356766Y-131015014D01*
X118447242Y-131057871D01*
X118537719Y-131057871D01*
X118628195Y-130629299D01*
X118899623Y-132086442D02*
X118944861Y-132215014D01*
X118944861Y-132429299D01*
X118899623Y-132515014D01*
X118854385Y-132557871D01*
X118763909Y-132600728D01*
X118673433Y-132600728D01*
X118582957Y-132557871D01*
X118537719Y-132515014D01*
X118492480Y-132429299D01*
X118447242Y-132257871D01*
X118402004Y-132172157D01*
X118356766Y-132129299D01*
X118266290Y-132086442D01*
X118175814Y-132086442D01*
X118085338Y-132129299D01*
X118040100Y-132172157D01*
X117994861Y-132257871D01*
X117994861Y-132472157D01*
X118040100Y-132600728D01*
X118944861Y-132986442D02*
X118311528Y-132986442D01*
X118402004Y-132986442D02*
X118356766Y-133029299D01*
X118311528Y-133115014D01*
X118311528Y-133243585D01*
X118356766Y-133329299D01*
X118447242Y-133372157D01*
X118944861Y-133372157D01*
X118447242Y-133372157D02*
X118356766Y-133415014D01*
X118311528Y-133500728D01*
X118311528Y-133629299D01*
X118356766Y-133715014D01*
X118447242Y-133757871D01*
X118944861Y-133757871D01*
X118944861Y-134572157D02*
X118447242Y-134572157D01*
X118356766Y-134529300D01*
X118311528Y-134443585D01*
X118311528Y-134272157D01*
X118356766Y-134186442D01*
X118899623Y-134572157D02*
X118944861Y-134486442D01*
X118944861Y-134272157D01*
X118899623Y-134186442D01*
X118809147Y-134143585D01*
X118718671Y-134143585D01*
X118628195Y-134186442D01*
X118582957Y-134272157D01*
X118582957Y-134486442D01*
X118537719Y-134572157D01*
X118944861Y-135000728D02*
X118311528Y-135000728D01*
X118492480Y-135000728D02*
X118402004Y-135043585D01*
X118356766Y-135086442D01*
X118311528Y-135172157D01*
X118311528Y-135257871D01*
X118311528Y-135429300D02*
X118311528Y-135772157D01*
X117994861Y-135557871D02*
X118809147Y-135557871D01*
X118899623Y-135600728D01*
X118944861Y-135686442D01*
X118944861Y-135772157D01*
X118673433Y-136715014D02*
X118673433Y-137143585D01*
X118944861Y-136629300D02*
X117994861Y-136929300D01*
X118944861Y-137229300D01*
X118311528Y-137915014D02*
X118944861Y-137915014D01*
X118311528Y-137529300D02*
X118809147Y-137529300D01*
X118899623Y-137572157D01*
X118944861Y-137657871D01*
X118944861Y-137786442D01*
X118899623Y-137872157D01*
X118854385Y-137915014D01*
X118944861Y-138729300D02*
X117994861Y-138729300D01*
X118899623Y-138729300D02*
X118944861Y-138643585D01*
X118944861Y-138472157D01*
X118899623Y-138386442D01*
X118854385Y-138343585D01*
X118763909Y-138300728D01*
X118492480Y-138300728D01*
X118402004Y-138343585D01*
X118356766Y-138386442D01*
X118311528Y-138472157D01*
X118311528Y-138643585D01*
X118356766Y-138729300D01*
X118944861Y-139157871D02*
X118311528Y-139157871D01*
X117994861Y-139157871D02*
X118040100Y-139115014D01*
X118085338Y-139157871D01*
X118040100Y-139200728D01*
X117994861Y-139157871D01*
X118085338Y-139157871D01*
X118944861Y-139715014D02*
X118899623Y-139629300D01*
X118854385Y-139586442D01*
X118763909Y-139543585D01*
X118492480Y-139543585D01*
X118402004Y-139586442D01*
X118356766Y-139629300D01*
X118311528Y-139715014D01*
X118311528Y-139843585D01*
X118356766Y-139929300D01*
X118402004Y-139972157D01*
X118492480Y-140015014D01*
X118763909Y-140015014D01*
X118854385Y-139972157D01*
X118899623Y-139929300D01*
X118944861Y-139843585D01*
X118944861Y-139715014D01*
X118673433Y-141043585D02*
X118673433Y-141472157D01*
X118944861Y-140957871D02*
X117994861Y-141257871D01*
X118944861Y-141557871D01*
X118944861Y-141857871D02*
X118311528Y-141857871D01*
X118402004Y-141857871D02*
X118356766Y-141900728D01*
X118311528Y-141986442D01*
X118311528Y-142115014D01*
X118356766Y-142200728D01*
X118447242Y-142243585D01*
X118944861Y-142243585D01*
X118447242Y-142243585D02*
X118356766Y-142286442D01*
X118311528Y-142372157D01*
X118311528Y-142500728D01*
X118356766Y-142586442D01*
X118447242Y-142629300D01*
X118944861Y-142629300D01*
X118311528Y-143057871D02*
X119261528Y-143057871D01*
X118356766Y-143057871D02*
X118311528Y-143143585D01*
X118311528Y-143315014D01*
X118356766Y-143400728D01*
X118402004Y-143443585D01*
X118492480Y-143486442D01*
X118763909Y-143486442D01*
X118854385Y-143443585D01*
X118899623Y-143400728D01*
X118944861Y-143315014D01*
X118944861Y-143143585D01*
X118899623Y-143057871D01*
X118944861Y-144000728D02*
X118899623Y-143915014D01*
X118809147Y-143872157D01*
X117994861Y-143872157D01*
X118944861Y-144343585D02*
X118311528Y-144343585D01*
X117994861Y-144343585D02*
X118040100Y-144300728D01*
X118085338Y-144343585D01*
X118040100Y-144386442D01*
X117994861Y-144343585D01*
X118085338Y-144343585D01*
X118311528Y-144643585D02*
X118311528Y-144986442D01*
X118944861Y-144772157D02*
X118130576Y-144772157D01*
X118040100Y-144815014D01*
X117994861Y-144900728D01*
X117994861Y-144986442D01*
X118944861Y-145286442D02*
X118311528Y-145286442D01*
X117994861Y-145286442D02*
X118040100Y-145243585D01*
X118085338Y-145286442D01*
X118040100Y-145329300D01*
X117994861Y-145286442D01*
X118085338Y-145286442D01*
X118899623Y-146057871D02*
X118944861Y-145972157D01*
X118944861Y-145800728D01*
X118899623Y-145715014D01*
X118809147Y-145672157D01*
X118447242Y-145672157D01*
X118356766Y-145715014D01*
X118311528Y-145800728D01*
X118311528Y-145972157D01*
X118356766Y-146057871D01*
X118447242Y-146100728D01*
X118537719Y-146100728D01*
X118628195Y-145672157D01*
X118944861Y-146486442D02*
X118311528Y-146486442D01*
X118492480Y-146486442D02*
X118402004Y-146529300D01*
X118356766Y-146572157D01*
X118311528Y-146657871D01*
X118311528Y-146743585D01*
D10*
X114669566Y-137220966D02*
X113969566Y-137220966D01*
X113969566Y-137687633D02*
X113969566Y-137820966D01*
X114002900Y-137887633D01*
X114069566Y-137954300D01*
X114202900Y-137987633D01*
X114436233Y-137987633D01*
X114569566Y-137954300D01*
X114636233Y-137887633D01*
X114669566Y-137820966D01*
X114669566Y-137687633D01*
X114636233Y-137620966D01*
X114569566Y-137554300D01*
X114436233Y-137520966D01*
X114202900Y-137520966D01*
X114069566Y-137554300D01*
X114002900Y-137620966D01*
X113969566Y-137687633D01*
X114669566Y-138654300D02*
X114669566Y-138254300D01*
X114669566Y-138454300D02*
X113969566Y-138454300D01*
X114069566Y-138387633D01*
X114136233Y-138320966D01*
X114169566Y-138254300D01*
X114036233Y-138920966D02*
X114002900Y-138954300D01*
X113969566Y-139020966D01*
X113969566Y-139187633D01*
X114002900Y-139254300D01*
X114036233Y-139287633D01*
X114102900Y-139320966D01*
X114169566Y-139320966D01*
X114269566Y-139287633D01*
X114669566Y-138887633D01*
X114669566Y-139320966D01*
X153506766Y-145029300D02*
X152806766Y-145029300D01*
X153306766Y-145262633D01*
X152806766Y-145495966D01*
X153506766Y-145495966D01*
X153473433Y-145795966D02*
X153506766Y-145895966D01*
X153506766Y-146062633D01*
X153473433Y-146129300D01*
X153440100Y-146162633D01*
X153373433Y-146195966D01*
X153306766Y-146195966D01*
X153240100Y-146162633D01*
X153206766Y-146129300D01*
X153173433Y-146062633D01*
X153140100Y-145929300D01*
X153106766Y-145862633D01*
X153073433Y-145829300D01*
X153006766Y-145795966D01*
X152940100Y-145795966D01*
X152873433Y-145829300D01*
X152840100Y-145862633D01*
X152806766Y-145929300D01*
X152806766Y-146095966D01*
X152840100Y-146195966D01*
X153140100Y-146495966D02*
X153140100Y-146729300D01*
X153506766Y-146829300D02*
X153506766Y-146495966D01*
X152806766Y-146495966D01*
X152806766Y-146829300D01*
X153506766Y-147462633D02*
X153506766Y-147129300D01*
X152806766Y-147129300D01*
X153506766Y-148062633D02*
X153506766Y-147662633D01*
X153506766Y-147862633D02*
X152806766Y-147862633D01*
X152906766Y-147795966D01*
X152973433Y-147729300D01*
X153006766Y-147662633D01*
D15*
X123866600Y-130829300D02*
X123866600Y-131210252D01*
X124123742Y-130753109D02*
X123223742Y-131019776D01*
X124123742Y-131286442D01*
X124123742Y-132505490D02*
X123223742Y-132505490D01*
X124080885Y-132505490D02*
X124123742Y-132429300D01*
X124123742Y-132276919D01*
X124080885Y-132200728D01*
X124038028Y-132162633D01*
X123952314Y-132124538D01*
X123695171Y-132124538D01*
X123609457Y-132162633D01*
X123566600Y-132200728D01*
X123523742Y-132276919D01*
X123523742Y-132429300D01*
X123566600Y-132505490D01*
X124080885Y-133191204D02*
X124123742Y-133115014D01*
X124123742Y-132962633D01*
X124080885Y-132886442D01*
X123995171Y-132848347D01*
X123652314Y-132848347D01*
X123566600Y-132886442D01*
X123523742Y-132962633D01*
X123523742Y-133115014D01*
X123566600Y-133191204D01*
X123652314Y-133229300D01*
X123738028Y-133229300D01*
X123823742Y-132848347D01*
X124080885Y-133534061D02*
X124123742Y-133610252D01*
X124123742Y-133762633D01*
X124080885Y-133838823D01*
X123995171Y-133876919D01*
X123952314Y-133876919D01*
X123866600Y-133838823D01*
X123823742Y-133762633D01*
X123823742Y-133648347D01*
X123780885Y-133572157D01*
X123695171Y-133534061D01*
X123652314Y-133534061D01*
X123566600Y-133572157D01*
X123523742Y-133648347D01*
X123523742Y-133762633D01*
X123566600Y-133838823D01*
X124123742Y-134219776D02*
X123523742Y-134219776D01*
X123223742Y-134219776D02*
X123266600Y-134181680D01*
X123309457Y-134219776D01*
X123266600Y-134257871D01*
X123223742Y-134219776D01*
X123309457Y-134219776D01*
X123523742Y-134943585D02*
X124252314Y-134943585D01*
X124338028Y-134905490D01*
X124380885Y-134867395D01*
X124423742Y-134791204D01*
X124423742Y-134676919D01*
X124380885Y-134600728D01*
X124080885Y-134943585D02*
X124123742Y-134867395D01*
X124123742Y-134715014D01*
X124080885Y-134638823D01*
X124038028Y-134600728D01*
X123952314Y-134562633D01*
X123695171Y-134562633D01*
X123609457Y-134600728D01*
X123566600Y-134638823D01*
X123523742Y-134715014D01*
X123523742Y-134867395D01*
X123566600Y-134943585D01*
X123523742Y-135324538D02*
X124123742Y-135324538D01*
X123609457Y-135324538D02*
X123566600Y-135362633D01*
X123523742Y-135438823D01*
X123523742Y-135553109D01*
X123566600Y-135629300D01*
X123652314Y-135667395D01*
X124123742Y-135667395D01*
X124123742Y-136657871D02*
X123223742Y-136657871D01*
X123566600Y-136657871D02*
X123523742Y-136734061D01*
X123523742Y-136886442D01*
X123566600Y-136962633D01*
X123609457Y-137000728D01*
X123695171Y-137038823D01*
X123952314Y-137038823D01*
X124038028Y-137000728D01*
X124080885Y-136962633D01*
X124123742Y-136886442D01*
X124123742Y-136734061D01*
X124080885Y-136657871D01*
X123523742Y-137305490D02*
X124123742Y-137495966D01*
X123523742Y-137686442D02*
X124123742Y-137495966D01*
X124338028Y-137419776D01*
X124380885Y-137381680D01*
X124423742Y-137305490D01*
X124038028Y-137991204D02*
X124080885Y-138029300D01*
X124123742Y-137991204D01*
X124080885Y-137953109D01*
X124038028Y-137991204D01*
X124123742Y-137991204D01*
X123566600Y-137991204D02*
X123609457Y-138029300D01*
X123652314Y-137991204D01*
X123609457Y-137953109D01*
X123566600Y-137991204D01*
X123652314Y-137991204D01*
X125572742Y-128695966D02*
X124672742Y-128695966D01*
X125572742Y-129153109D01*
X124672742Y-129153109D01*
X125572742Y-129534061D02*
X124972742Y-129534061D01*
X124672742Y-129534061D02*
X124715600Y-129495966D01*
X124758457Y-129534061D01*
X124715600Y-129572157D01*
X124672742Y-129534061D01*
X124758457Y-129534061D01*
X125529885Y-130257871D02*
X125572742Y-130181680D01*
X125572742Y-130029300D01*
X125529885Y-129953109D01*
X125487028Y-129915014D01*
X125401314Y-129876919D01*
X125144171Y-129876919D01*
X125058457Y-129915014D01*
X125015600Y-129953109D01*
X124972742Y-130029300D01*
X124972742Y-130181680D01*
X125015600Y-130257871D01*
X125572742Y-130715014D02*
X125529885Y-130638823D01*
X125487028Y-130600728D01*
X125401314Y-130562633D01*
X125144171Y-130562633D01*
X125058457Y-130600728D01*
X125015600Y-130638823D01*
X124972742Y-130715014D01*
X124972742Y-130829300D01*
X125015600Y-130905490D01*
X125058457Y-130943585D01*
X125144171Y-130981680D01*
X125401314Y-130981680D01*
X125487028Y-130943585D01*
X125529885Y-130905490D01*
X125572742Y-130829300D01*
X125572742Y-130715014D01*
X125572742Y-131438823D02*
X125529885Y-131362633D01*
X125444171Y-131324538D01*
X124672742Y-131324538D01*
X125572742Y-132086442D02*
X125101314Y-132086442D01*
X125015600Y-132048347D01*
X124972742Y-131972157D01*
X124972742Y-131819776D01*
X125015600Y-131743585D01*
X125529885Y-132086442D02*
X125572742Y-132010252D01*
X125572742Y-131819776D01*
X125529885Y-131743585D01*
X125444171Y-131705490D01*
X125358457Y-131705490D01*
X125272742Y-131743585D01*
X125229885Y-131819776D01*
X125229885Y-132010252D01*
X125187028Y-132086442D01*
X125572742Y-132467395D02*
X124972742Y-132467395D01*
X124672742Y-132467395D02*
X124715600Y-132429300D01*
X124758457Y-132467395D01*
X124715600Y-132505490D01*
X124672742Y-132467395D01*
X124758457Y-132467395D01*
X125572742Y-133457871D02*
X124672742Y-133457871D01*
X124672742Y-133648347D01*
X124715600Y-133762633D01*
X124801314Y-133838823D01*
X124887028Y-133876919D01*
X125058457Y-133915014D01*
X125187028Y-133915014D01*
X125358457Y-133876919D01*
X125444171Y-133838823D01*
X125529885Y-133762633D01*
X125572742Y-133648347D01*
X125572742Y-133457871D01*
X124972742Y-134181680D02*
X125572742Y-134372157D01*
X124972742Y-134562633D02*
X125572742Y-134372157D01*
X125787028Y-134295966D01*
X125829885Y-134257871D01*
X125872742Y-134181680D01*
X125572742Y-134867395D02*
X124972742Y-134867395D01*
X125144171Y-134867395D02*
X125058457Y-134905490D01*
X125015600Y-134943585D01*
X124972742Y-135019776D01*
X124972742Y-135095966D01*
X125529885Y-135667395D02*
X125572742Y-135591204D01*
X125572742Y-135438823D01*
X125529885Y-135362633D01*
X125444171Y-135324538D01*
X125101314Y-135324538D01*
X125015600Y-135362633D01*
X124972742Y-135438823D01*
X124972742Y-135591204D01*
X125015600Y-135667395D01*
X125101314Y-135705490D01*
X125187028Y-135705490D01*
X125272742Y-135324538D01*
X125101314Y-136924538D02*
X125144171Y-137038823D01*
X125187028Y-137076919D01*
X125272742Y-137115014D01*
X125401314Y-137115014D01*
X125487028Y-137076919D01*
X125529885Y-137038823D01*
X125572742Y-136962633D01*
X125572742Y-136657871D01*
X124672742Y-136657871D01*
X124672742Y-136924538D01*
X124715600Y-137000728D01*
X124758457Y-137038823D01*
X124844171Y-137076919D01*
X124929885Y-137076919D01*
X125015600Y-137038823D01*
X125058457Y-137000728D01*
X125101314Y-136924538D01*
X125101314Y-136657871D01*
X124972742Y-137800728D02*
X125572742Y-137800728D01*
X124972742Y-137457871D02*
X125444171Y-137457871D01*
X125529885Y-137495966D01*
X125572742Y-137572157D01*
X125572742Y-137686442D01*
X125529885Y-137762633D01*
X125487028Y-137800728D01*
X124672742Y-137495966D02*
X124715600Y-137534061D01*
X124758457Y-137495966D01*
X124715600Y-137457871D01*
X124672742Y-137495966D01*
X124758457Y-137495966D01*
X124672742Y-137800728D02*
X124715600Y-137838823D01*
X124758457Y-137800728D01*
X124715600Y-137762633D01*
X124672742Y-137800728D01*
X124758457Y-137800728D01*
X125572742Y-138295966D02*
X125529885Y-138219776D01*
X125444171Y-138181680D01*
X124672742Y-138181680D01*
X125572742Y-138715014D02*
X125529885Y-138638823D01*
X125487028Y-138600728D01*
X125401314Y-138562633D01*
X125144171Y-138562633D01*
X125058457Y-138600728D01*
X125015600Y-138638823D01*
X124972742Y-138715014D01*
X124972742Y-138829300D01*
X125015600Y-138905490D01*
X125058457Y-138943585D01*
X125144171Y-138981680D01*
X125401314Y-138981680D01*
X125487028Y-138943585D01*
X125529885Y-138905490D01*
X125572742Y-138829300D01*
X125572742Y-138715014D01*
X124972742Y-139248347D02*
X125572742Y-139400728D01*
X125144171Y-139553109D01*
X125572742Y-139705490D01*
X124972742Y-139857871D01*
X125529885Y-140200728D02*
X125572742Y-140200728D01*
X125658457Y-140162633D01*
X125701314Y-140124538D01*
X126550314Y-130105490D02*
X126550314Y-129838823D01*
X127021742Y-129838823D02*
X126121742Y-129838823D01*
X126121742Y-130219776D01*
X127021742Y-130524538D02*
X126421742Y-130524538D01*
X126121742Y-130524538D02*
X126164600Y-130486442D01*
X126207457Y-130524538D01*
X126164600Y-130562633D01*
X126121742Y-130524538D01*
X126207457Y-130524538D01*
X127021742Y-131019776D02*
X126978885Y-130943585D01*
X126893171Y-130905490D01*
X126121742Y-130905490D01*
X127021742Y-131324538D02*
X126421742Y-131324538D01*
X126121742Y-131324538D02*
X126164600Y-131286442D01*
X126207457Y-131324538D01*
X126164600Y-131362633D01*
X126121742Y-131324538D01*
X126207457Y-131324538D01*
X126421742Y-131705490D02*
X127321742Y-131705490D01*
X126464600Y-131705490D02*
X126421742Y-131781680D01*
X126421742Y-131934061D01*
X126464600Y-132010252D01*
X126507457Y-132048347D01*
X126593171Y-132086442D01*
X126850314Y-132086442D01*
X126936028Y-132048347D01*
X126978885Y-132010252D01*
X127021742Y-131934061D01*
X127021742Y-131781680D01*
X126978885Y-131705490D01*
X126164600Y-133457871D02*
X126121742Y-133381680D01*
X126121742Y-133267395D01*
X126164600Y-133153109D01*
X126250314Y-133076919D01*
X126336028Y-133038823D01*
X126507457Y-133000728D01*
X126636028Y-133000728D01*
X126807457Y-133038823D01*
X126893171Y-133076919D01*
X126978885Y-133153109D01*
X127021742Y-133267395D01*
X127021742Y-133343585D01*
X126978885Y-133457871D01*
X126936028Y-133495966D01*
X126636028Y-133495966D01*
X126636028Y-133343585D01*
X127021742Y-133838823D02*
X126421742Y-133838823D01*
X126593171Y-133838823D02*
X126507457Y-133876919D01*
X126464600Y-133915014D01*
X126421742Y-133991204D01*
X126421742Y-134067395D01*
X126421742Y-134257871D02*
X126421742Y-134676919D01*
X127021742Y-134257871D01*
X127021742Y-134676919D01*
X126421742Y-134905490D02*
X127021742Y-135095966D01*
X126421742Y-135286442D02*
X127021742Y-135095966D01*
X127236028Y-135019776D01*
X127278885Y-134981680D01*
X127321742Y-134905490D01*
X126421742Y-135515014D02*
X127021742Y-135667395D01*
X126593171Y-135819776D01*
X127021742Y-135972157D01*
X126421742Y-136124538D01*
X127021742Y-136543585D02*
X126978885Y-136467395D01*
X126936028Y-136429300D01*
X126850314Y-136391204D01*
X126593171Y-136391204D01*
X126507457Y-136429300D01*
X126464600Y-136467395D01*
X126421742Y-136543585D01*
X126421742Y-136657871D01*
X126464600Y-136734061D01*
X126507457Y-136772157D01*
X126593171Y-136810252D01*
X126850314Y-136810252D01*
X126936028Y-136772157D01*
X126978885Y-136734061D01*
X127021742Y-136657871D01*
X127021742Y-136543585D01*
X127021742Y-137153109D02*
X126121742Y-137153109D01*
X126678885Y-137229300D02*
X127021742Y-137457871D01*
X126421742Y-137457871D02*
X126764600Y-137153109D01*
X127021742Y-139057871D02*
X127021742Y-139019776D01*
X126978885Y-138943585D01*
X126850314Y-138829300D01*
X126593171Y-138638823D01*
X126464600Y-138562633D01*
X126336028Y-138524538D01*
X126250314Y-138524538D01*
X126164600Y-138562633D01*
X126121742Y-138638823D01*
X126121742Y-138676919D01*
X126164600Y-138753109D01*
X126250314Y-138791204D01*
X126293171Y-138791204D01*
X126378885Y-138753109D01*
X126421742Y-138715014D01*
X126593171Y-138486442D01*
X126636028Y-138448347D01*
X126721742Y-138410252D01*
X126850314Y-138410252D01*
X126936028Y-138448347D01*
X126978885Y-138486442D01*
X127021742Y-138562633D01*
X127021742Y-138676919D01*
X126978885Y-138753109D01*
X126936028Y-138791204D01*
X126764600Y-138905490D01*
X126636028Y-138943585D01*
X126550314Y-138943585D01*
X127570742Y-127781680D02*
X128213600Y-127781680D01*
X128342171Y-127743585D01*
X128427885Y-127667395D01*
X128470742Y-127553109D01*
X128470742Y-127476919D01*
X127870742Y-128581680D02*
X128470742Y-128086442D01*
X128470742Y-128276919D02*
X128427885Y-128200728D01*
X128385028Y-128162633D01*
X128299314Y-128124538D01*
X128042171Y-128124538D01*
X127956457Y-128162633D01*
X127913600Y-128200728D01*
X127870742Y-128276919D01*
X127870742Y-128391204D01*
X127913600Y-128467395D01*
X127956457Y-128505490D01*
X128042171Y-128543585D01*
X128299314Y-128543585D01*
X128385028Y-128505490D01*
X128427885Y-128467395D01*
X128470742Y-128391204D01*
X128470742Y-128276919D01*
X128470742Y-128886442D02*
X127870742Y-128886442D01*
X128042171Y-128886442D02*
X127956457Y-128924538D01*
X127913600Y-128962633D01*
X127870742Y-129038823D01*
X127870742Y-129115014D01*
X127870742Y-129724538D02*
X128599314Y-129724538D01*
X128685028Y-129686442D01*
X128727885Y-129648347D01*
X128770742Y-129572157D01*
X128770742Y-129457871D01*
X128727885Y-129381680D01*
X128427885Y-129724538D02*
X128470742Y-129648347D01*
X128470742Y-129495966D01*
X128427885Y-129419776D01*
X128385028Y-129381680D01*
X128299314Y-129343585D01*
X128042171Y-129343585D01*
X127956457Y-129381680D01*
X127913600Y-129419776D01*
X127870742Y-129495966D01*
X127870742Y-129648347D01*
X127913600Y-129724538D01*
X128427885Y-130410252D02*
X128470742Y-130334061D01*
X128470742Y-130181680D01*
X128427885Y-130105490D01*
X128342171Y-130067395D01*
X127999314Y-130067395D01*
X127913600Y-130105490D01*
X127870742Y-130181680D01*
X127870742Y-130334061D01*
X127913600Y-130410252D01*
X127999314Y-130448347D01*
X128085028Y-130448347D01*
X128170742Y-130067395D01*
X127870742Y-130791204D02*
X128470742Y-130791204D01*
X127956457Y-130791204D02*
X127913600Y-130829300D01*
X127870742Y-130905490D01*
X127870742Y-131019776D01*
X127913600Y-131095966D01*
X127999314Y-131134061D01*
X128470742Y-131134061D01*
X128470742Y-132124538D02*
X127570742Y-132124538D01*
X128470742Y-132581680D02*
X127956457Y-132238823D01*
X127570742Y-132581680D02*
X128085028Y-132124538D01*
X128470742Y-132924538D02*
X127870742Y-132924538D01*
X128042171Y-132924538D02*
X127956457Y-132962633D01*
X127913600Y-133000728D01*
X127870742Y-133076919D01*
X127870742Y-133153109D01*
X128470742Y-133762633D02*
X127999314Y-133762633D01*
X127913600Y-133724538D01*
X127870742Y-133648347D01*
X127870742Y-133495966D01*
X127913600Y-133419776D01*
X128427885Y-133762633D02*
X128470742Y-133686442D01*
X128470742Y-133495966D01*
X128427885Y-133419776D01*
X128342171Y-133381680D01*
X128256457Y-133381680D01*
X128170742Y-133419776D01*
X128127885Y-133495966D01*
X128127885Y-133686442D01*
X128085028Y-133762633D01*
X127870742Y-134486442D02*
X128599314Y-134486442D01*
X128685028Y-134448347D01*
X128727885Y-134410252D01*
X128770742Y-134334061D01*
X128770742Y-134219776D01*
X128727885Y-134143585D01*
X128427885Y-134486442D02*
X128470742Y-134410252D01*
X128470742Y-134257871D01*
X128427885Y-134181680D01*
X128385028Y-134143585D01*
X128299314Y-134105490D01*
X128042171Y-134105490D01*
X127956457Y-134143585D01*
X127913600Y-134181680D01*
X127870742Y-134257871D01*
X127870742Y-134410252D01*
X127913600Y-134486442D01*
X128470742Y-134867395D02*
X127570742Y-134867395D01*
X128470742Y-135210252D02*
X127999314Y-135210252D01*
X127913600Y-135172157D01*
X127870742Y-135095966D01*
X127870742Y-134981680D01*
X127913600Y-134905490D01*
X127956457Y-134867395D01*
X127570742Y-136429300D02*
X128213600Y-136429300D01*
X128342171Y-136391204D01*
X128427885Y-136315014D01*
X128470742Y-136200728D01*
X128470742Y-136124538D01*
X128470742Y-137153109D02*
X127999314Y-137153109D01*
X127913600Y-137115014D01*
X127870742Y-137038823D01*
X127870742Y-136886442D01*
X127913600Y-136810252D01*
X128427885Y-137153109D02*
X128470742Y-137076919D01*
X128470742Y-136886442D01*
X128427885Y-136810252D01*
X128342171Y-136772157D01*
X128256457Y-136772157D01*
X128170742Y-136810252D01*
X128127885Y-136886442D01*
X128127885Y-137076919D01*
X128085028Y-137153109D01*
X128470742Y-137534061D02*
X127570742Y-137534061D01*
X128127885Y-137610252D02*
X128470742Y-137838823D01*
X127870742Y-137838823D02*
X128213600Y-137534061D01*
X128470742Y-138295966D02*
X128427885Y-138219776D01*
X128385028Y-138181680D01*
X128299314Y-138143585D01*
X128042171Y-138143585D01*
X127956457Y-138181680D01*
X127913600Y-138219776D01*
X127870742Y-138295966D01*
X127870742Y-138410252D01*
X127913600Y-138486442D01*
X127956457Y-138524538D01*
X128042171Y-138562633D01*
X128299314Y-138562633D01*
X128385028Y-138524538D01*
X128427885Y-138486442D01*
X128470742Y-138410252D01*
X128470742Y-138295966D01*
X128470742Y-138905490D02*
X127570742Y-138905490D01*
X127913600Y-138905490D02*
X127870742Y-138981680D01*
X127870742Y-139134061D01*
X127913600Y-139210252D01*
X127956457Y-139248347D01*
X128042171Y-139286442D01*
X128299314Y-139286442D01*
X128385028Y-139248347D01*
X128427885Y-139210252D01*
X128470742Y-139134061D01*
X128470742Y-138981680D01*
X128427885Y-138905490D01*
X128427885Y-139591204D02*
X128470742Y-139667395D01*
X128470742Y-139819776D01*
X128427885Y-139895966D01*
X128342171Y-139934061D01*
X128299314Y-139934061D01*
X128213600Y-139895966D01*
X128170742Y-139819776D01*
X128170742Y-139705490D01*
X128127885Y-139629300D01*
X128042171Y-139591204D01*
X127999314Y-139591204D01*
X127913600Y-139629300D01*
X127870742Y-139705490D01*
X127870742Y-139819776D01*
X127913600Y-139895966D01*
X128427885Y-140581680D02*
X128470742Y-140505490D01*
X128470742Y-140353109D01*
X128427885Y-140276919D01*
X128342171Y-140238823D01*
X127999314Y-140238823D01*
X127913600Y-140276919D01*
X127870742Y-140353109D01*
X127870742Y-140505490D01*
X127913600Y-140581680D01*
X127999314Y-140619776D01*
X128085028Y-140619776D01*
X128170742Y-140238823D01*
X127870742Y-140962633D02*
X128470742Y-140962633D01*
X127956457Y-140962633D02*
X127913600Y-141000728D01*
X127870742Y-141076919D01*
X127870742Y-141191204D01*
X127913600Y-141267395D01*
X127999314Y-141305490D01*
X128470742Y-141305490D01*
D10*
X108845033Y-131656033D02*
X108878366Y-131756033D01*
X108878366Y-131922700D01*
X108845033Y-131989366D01*
X108811700Y-132022700D01*
X108745033Y-132056033D01*
X108678366Y-132056033D01*
X108611700Y-132022700D01*
X108578366Y-131989366D01*
X108545033Y-131922700D01*
X108511700Y-131789366D01*
X108478366Y-131722700D01*
X108445033Y-131689366D01*
X108378366Y-131656033D01*
X108311700Y-131656033D01*
X108245033Y-131689366D01*
X108211700Y-131722700D01*
X108178366Y-131789366D01*
X108178366Y-131956033D01*
X108211700Y-132056033D01*
X108878366Y-132356033D02*
X108178366Y-132356033D01*
X108178366Y-132522700D01*
X108211700Y-132622700D01*
X108278366Y-132689366D01*
X108345033Y-132722700D01*
X108478366Y-132756033D01*
X108578366Y-132756033D01*
X108711700Y-132722700D01*
X108778366Y-132689366D01*
X108845033Y-132622700D01*
X108878366Y-132522700D01*
X108878366Y-132356033D01*
X108678366Y-133022700D02*
X108678366Y-133356033D01*
X108878366Y-132956033D02*
X108178366Y-133189366D01*
X108878366Y-133422700D01*
X108178366Y-133556033D02*
X108178366Y-133956033D01*
X108878366Y-133756033D02*
X108178366Y-133756033D01*
X108678366Y-134156033D02*
X108678366Y-134489366D01*
X108878366Y-134089366D02*
X108178366Y-134322700D01*
X108878366Y-134556033D01*
D11*
X151976100Y-128807871D02*
X151976100Y-129188823D01*
X153002004Y-128998347D02*
X152202004Y-128998347D01*
X151976100Y-129188823D02*
X151976100Y-129950728D01*
X152278195Y-129341204D02*
X152240100Y-129379300D01*
X152202004Y-129455490D01*
X152202004Y-129645966D01*
X152240100Y-129722157D01*
X152278195Y-129760252D01*
X152354385Y-129798347D01*
X152430576Y-129798347D01*
X152544861Y-129760252D01*
X153002004Y-129303109D01*
X153002004Y-129798347D01*
X151976100Y-129950728D02*
X151976100Y-130750728D01*
X152925814Y-130598347D02*
X152963909Y-130560252D01*
X153002004Y-130445966D01*
X153002004Y-130369776D01*
X152963909Y-130255490D01*
X152887719Y-130179300D01*
X152811528Y-130141204D01*
X152659147Y-130103109D01*
X152544861Y-130103109D01*
X152392480Y-130141204D01*
X152316290Y-130179300D01*
X152240100Y-130255490D01*
X152202004Y-130369776D01*
X152202004Y-130445966D01*
X152240100Y-130560252D01*
X152278195Y-130598347D01*
X151976100Y-130750728D02*
X151976100Y-131741204D01*
X152697242Y-130941204D02*
X152697242Y-131550728D01*
X151976100Y-131741204D02*
X151976100Y-132426919D01*
X152773433Y-131893585D02*
X152773433Y-132274538D01*
X153002004Y-131817395D02*
X152202004Y-132084061D01*
X153002004Y-132350728D01*
X151976100Y-132426919D02*
X151976100Y-133226919D01*
X153002004Y-132617395D02*
X152202004Y-132617395D01*
X152202004Y-132807871D01*
X152240100Y-132922157D01*
X152316290Y-132998347D01*
X152392480Y-133036442D01*
X152544861Y-133074538D01*
X152659147Y-133074538D01*
X152811528Y-133036442D01*
X152887719Y-132998347D01*
X152963909Y-132922157D01*
X153002004Y-132807871D01*
X153002004Y-132617395D01*
X151976100Y-133226919D02*
X151976100Y-134026919D01*
X153002004Y-133417395D02*
X152202004Y-133417395D01*
X152202004Y-133607871D01*
X152240100Y-133722157D01*
X152316290Y-133798347D01*
X152392480Y-133836442D01*
X152544861Y-133874538D01*
X152659147Y-133874538D01*
X152811528Y-133836442D01*
X152887719Y-133798347D01*
X152963909Y-133722157D01*
X153002004Y-133607871D01*
X153002004Y-133417395D01*
X151976100Y-134026919D02*
X151976100Y-134826919D01*
X153002004Y-134674538D02*
X152621052Y-134407871D01*
X153002004Y-134217395D02*
X152202004Y-134217395D01*
X152202004Y-134522157D01*
X152240100Y-134598347D01*
X152278195Y-134636442D01*
X152354385Y-134674538D01*
X152468671Y-134674538D01*
X152544861Y-134636442D01*
X152582957Y-134598347D01*
X152621052Y-134522157D01*
X152621052Y-134217395D01*
X151976100Y-134826919D02*
X151976100Y-135207871D01*
X152925814Y-135017395D02*
X152963909Y-135055490D01*
X153002004Y-135017395D01*
X152963909Y-134979300D01*
X152925814Y-135017395D01*
X153002004Y-135017395D01*
X152506766Y-135017395D02*
X152544861Y-135055490D01*
X152582957Y-135017395D01*
X152544861Y-134979300D01*
X152506766Y-135017395D01*
X152582957Y-135017395D01*
X151976100Y-135207871D02*
X151976100Y-135817395D01*
X151976100Y-135817395D02*
X151976100Y-136579300D01*
X152202004Y-136160252D02*
X152202004Y-136236442D01*
X152240100Y-136312633D01*
X152278195Y-136350728D01*
X152354385Y-136388823D01*
X152506766Y-136426919D01*
X152697242Y-136426919D01*
X152849623Y-136388823D01*
X152925814Y-136350728D01*
X152963909Y-136312633D01*
X153002004Y-136236442D01*
X153002004Y-136160252D01*
X152963909Y-136084061D01*
X152925814Y-136045966D01*
X152849623Y-136007871D01*
X152697242Y-135969776D01*
X152506766Y-135969776D01*
X152354385Y-136007871D01*
X152278195Y-136045966D01*
X152240100Y-136084061D01*
X152202004Y-136160252D01*
X151976100Y-136579300D02*
X151976100Y-137226919D01*
X153002004Y-136693585D02*
X152468671Y-137112633D01*
X152468671Y-136693585D02*
X153002004Y-137112633D01*
X151976100Y-137226919D02*
X151976100Y-137988823D01*
X152278195Y-137379300D02*
X152240100Y-137417395D01*
X152202004Y-137493585D01*
X152202004Y-137684061D01*
X152240100Y-137760252D01*
X152278195Y-137798347D01*
X152354385Y-137836442D01*
X152430576Y-137836442D01*
X152544861Y-137798347D01*
X153002004Y-137341204D01*
X153002004Y-137836442D01*
X151976100Y-137988823D02*
X151976100Y-138750728D01*
X152202004Y-138331680D02*
X152202004Y-138407871D01*
X152240100Y-138484061D01*
X152278195Y-138522157D01*
X152354385Y-138560252D01*
X152506766Y-138598347D01*
X152697242Y-138598347D01*
X152849623Y-138560252D01*
X152925814Y-138522157D01*
X152963909Y-138484061D01*
X153002004Y-138407871D01*
X153002004Y-138331680D01*
X152963909Y-138255490D01*
X152925814Y-138217395D01*
X152849623Y-138179300D01*
X152697242Y-138141204D01*
X152506766Y-138141204D01*
X152354385Y-138179300D01*
X152278195Y-138217395D01*
X152240100Y-138255490D01*
X152202004Y-138331680D01*
D10*
X107862366Y-139684766D02*
X107162366Y-139684766D01*
X107162366Y-140151433D02*
X107162366Y-140284766D01*
X107195700Y-140351433D01*
X107262366Y-140418100D01*
X107395700Y-140451433D01*
X107629033Y-140451433D01*
X107762366Y-140418100D01*
X107829033Y-140351433D01*
X107862366Y-140284766D01*
X107862366Y-140151433D01*
X107829033Y-140084766D01*
X107762366Y-140018100D01*
X107629033Y-139984766D01*
X107395700Y-139984766D01*
X107262366Y-140018100D01*
X107195700Y-140084766D01*
X107162366Y-140151433D01*
X107862366Y-141118100D02*
X107862366Y-140718100D01*
X107862366Y-140918100D02*
X107162366Y-140918100D01*
X107262366Y-140851433D01*
X107329033Y-140784766D01*
X107362366Y-140718100D01*
X107162366Y-141351433D02*
X107162366Y-141784766D01*
X107429033Y-141551433D01*
X107429033Y-141651433D01*
X107462366Y-141718100D01*
X107495700Y-141751433D01*
X107562366Y-141784766D01*
X107729033Y-141784766D01*
X107795700Y-141751433D01*
X107829033Y-141718100D01*
X107862366Y-141651433D01*
X107862366Y-141451433D01*
X107829033Y-141384766D01*
X107795700Y-141351433D01*
X114002900Y-132615566D02*
X113969566Y-132548900D01*
X113969566Y-132448900D01*
X114002900Y-132348900D01*
X114069566Y-132282233D01*
X114136233Y-132248900D01*
X114269566Y-132215566D01*
X114369566Y-132215566D01*
X114502900Y-132248900D01*
X114569566Y-132282233D01*
X114636233Y-132348900D01*
X114669566Y-132448900D01*
X114669566Y-132515566D01*
X114636233Y-132615566D01*
X114602900Y-132648900D01*
X114369566Y-132648900D01*
X114369566Y-132515566D01*
X114669566Y-132948900D02*
X113969566Y-132948900D01*
X114669566Y-133348900D01*
X113969566Y-133348900D01*
X114669566Y-133682233D02*
X113969566Y-133682233D01*
X113969566Y-133848900D01*
X114002900Y-133948900D01*
X114069566Y-134015566D01*
X114136233Y-134048900D01*
X114269566Y-134082233D01*
X114369566Y-134082233D01*
X114502900Y-134048900D01*
X114569566Y-134015566D01*
X114636233Y-133948900D01*
X114669566Y-133848900D01*
X114669566Y-133682233D01*
X115061766Y-139733966D02*
X115761766Y-139967300D01*
X115061766Y-140200633D01*
X115695100Y-140833966D02*
X115728433Y-140800633D01*
X115761766Y-140700633D01*
X115761766Y-140633966D01*
X115728433Y-140533966D01*
X115661766Y-140467300D01*
X115595100Y-140433966D01*
X115461766Y-140400633D01*
X115361766Y-140400633D01*
X115228433Y-140433966D01*
X115161766Y-140467300D01*
X115095100Y-140533966D01*
X115061766Y-140633966D01*
X115061766Y-140700633D01*
X115095100Y-140800633D01*
X115128433Y-140833966D01*
X115695100Y-141533966D02*
X115728433Y-141500633D01*
X115761766Y-141400633D01*
X115761766Y-141333966D01*
X115728433Y-141233966D01*
X115661766Y-141167300D01*
X115595100Y-141133966D01*
X115461766Y-141100633D01*
X115361766Y-141100633D01*
X115228433Y-141133966D01*
X115161766Y-141167300D01*
X115095100Y-141233966D01*
X115061766Y-141333966D01*
X115061766Y-141400633D01*
X115095100Y-141500633D01*
X115128433Y-141533966D01*
D13*
X148878571Y-151882380D02*
X148878571Y-149977619D01*
X149830952Y-150930000D02*
X147926190Y-150930000D01*
D11*
X142794861Y-126606680D02*
X142794861Y-126149538D01*
X142794861Y-126378109D02*
X141844861Y-126378109D01*
X141980576Y-126301919D01*
X142071052Y-126225728D01*
X142116290Y-126149538D01*
X142794861Y-126873347D02*
X142161528Y-127292395D01*
X142161528Y-126873347D02*
X142794861Y-127292395D01*
X142794861Y-128016204D02*
X142794861Y-127559061D01*
X142794861Y-127787633D02*
X141844861Y-127787633D01*
X141980576Y-127711442D01*
X142071052Y-127635252D01*
X142116290Y-127559061D01*
X142161528Y-128701919D02*
X142794861Y-128701919D01*
X141799623Y-128511442D02*
X142478195Y-128320966D01*
X142478195Y-128816204D01*
X141844861Y-129273347D02*
X141844861Y-129349538D01*
X141890100Y-129425728D01*
X141935338Y-129463823D01*
X142025814Y-129501919D01*
X142206766Y-129540014D01*
X142432957Y-129540014D01*
X142613909Y-129501919D01*
X142704385Y-129463823D01*
X142749623Y-129425728D01*
X142794861Y-129349538D01*
X142794861Y-129273347D01*
X142749623Y-129197157D01*
X142704385Y-129159061D01*
X142613909Y-129120966D01*
X142432957Y-129082871D01*
X142206766Y-129082871D01*
X142025814Y-129120966D01*
X141935338Y-129159061D01*
X141890100Y-129197157D01*
X141844861Y-129273347D01*
X141844861Y-129806680D02*
X142794861Y-129997157D01*
X142116290Y-130149538D01*
X142794861Y-130301919D01*
X141844861Y-130492395D01*
X142342480Y-131901919D02*
X142297242Y-131863823D01*
X142252004Y-131787633D01*
X142252004Y-131711442D01*
X142297242Y-131635252D01*
X142342480Y-131597157D01*
X142432957Y-131559061D01*
X142523433Y-131559061D01*
X142613909Y-131597157D01*
X142659147Y-131635252D01*
X142704385Y-131711442D01*
X142704385Y-131787633D01*
X142659147Y-131863823D01*
X142613909Y-131901919D01*
X142252004Y-131901919D02*
X142613909Y-131901919D01*
X142659147Y-131940014D01*
X142659147Y-131978109D01*
X142613909Y-132054300D01*
X142523433Y-132092395D01*
X142297242Y-132092395D01*
X142161528Y-132016204D01*
X142071052Y-131901919D01*
X142025814Y-131749538D01*
X142071052Y-131597157D01*
X142161528Y-131482871D01*
X142297242Y-131406680D01*
X142478195Y-131368585D01*
X142659147Y-131406680D01*
X142794861Y-131482871D01*
X142885338Y-131597157D01*
X142930576Y-131749538D01*
X142885338Y-131901919D01*
X142794861Y-132016204D01*
X142161528Y-132778109D02*
X142794861Y-132778109D01*
X141799623Y-132587633D02*
X142478195Y-132397157D01*
X142478195Y-132892395D01*
X142794861Y-133159061D02*
X142794861Y-133349538D01*
X142613909Y-133349538D01*
X142568671Y-133273347D01*
X142478195Y-133197157D01*
X142342480Y-133159061D01*
X142116290Y-133159061D01*
X141980576Y-133197157D01*
X141890100Y-133273347D01*
X141844861Y-133387633D01*
X141844861Y-133540014D01*
X141890100Y-133654300D01*
X141980576Y-133730490D01*
X142116290Y-133768585D01*
X142342480Y-133768585D01*
X142478195Y-133730490D01*
X142568671Y-133654300D01*
X142613909Y-133578109D01*
X142794861Y-133578109D01*
X142794861Y-133768585D01*
X142342480Y-135216204D02*
X142297242Y-135178109D01*
X142252004Y-135101919D01*
X142252004Y-135025728D01*
X142297242Y-134949538D01*
X142342480Y-134911442D01*
X142432957Y-134873347D01*
X142523433Y-134873347D01*
X142613909Y-134911442D01*
X142659147Y-134949538D01*
X142704385Y-135025728D01*
X142704385Y-135101919D01*
X142659147Y-135178109D01*
X142613909Y-135216204D01*
X142252004Y-135216204D02*
X142613909Y-135216204D01*
X142659147Y-135254300D01*
X142659147Y-135292395D01*
X142613909Y-135368585D01*
X142523433Y-135406680D01*
X142297242Y-135406680D01*
X142161528Y-135330490D01*
X142071052Y-135216204D01*
X142025814Y-135063823D01*
X142071052Y-134911442D01*
X142161528Y-134797157D01*
X142297242Y-134720966D01*
X142478195Y-134682871D01*
X142659147Y-134720966D01*
X142794861Y-134797157D01*
X142885338Y-134911442D01*
X142930576Y-135063823D01*
X142885338Y-135216204D01*
X142794861Y-135330490D01*
X142794861Y-136168585D02*
X142794861Y-135711442D01*
X142794861Y-135940014D02*
X141844861Y-135940014D01*
X141980576Y-135863823D01*
X142071052Y-135787633D01*
X142116290Y-135711442D01*
X141844861Y-136663823D02*
X141844861Y-136740014D01*
X141890100Y-136816204D01*
X141935338Y-136854300D01*
X142025814Y-136892395D01*
X142206766Y-136930490D01*
X142432957Y-136930490D01*
X142613909Y-136892395D01*
X142704385Y-136854300D01*
X142749623Y-136816204D01*
X142794861Y-136740014D01*
X142794861Y-136663823D01*
X142749623Y-136587633D01*
X142704385Y-136549538D01*
X142613909Y-136511442D01*
X142432957Y-136473347D01*
X142206766Y-136473347D01*
X142025814Y-136511442D01*
X141935338Y-136549538D01*
X141890100Y-136587633D01*
X141844861Y-136663823D01*
X142794861Y-137235252D02*
X141844861Y-137844776D01*
X141844861Y-137349538D02*
X141890100Y-137425728D01*
X141980576Y-137463823D01*
X142071052Y-137425728D01*
X142116290Y-137349538D01*
X142071052Y-137273347D01*
X141980576Y-137235252D01*
X141890100Y-137273347D01*
X141844861Y-137349538D01*
X142749623Y-137806680D02*
X142659147Y-137844776D01*
X142568671Y-137806680D01*
X142523433Y-137730490D01*
X142568671Y-137654300D01*
X142659147Y-137616204D01*
X142749623Y-137654300D01*
X142794861Y-137730490D01*
X142749623Y-137806680D01*
X141844861Y-138073347D02*
X141844861Y-138530490D01*
X142794861Y-138301919D02*
X141844861Y-138301919D01*
X142794861Y-138797157D02*
X141844861Y-138797157D01*
X142297242Y-138797157D02*
X142297242Y-139254300D01*
X142794861Y-139254300D02*
X141844861Y-139254300D01*
X142794861Y-139635252D02*
X141844861Y-139635252D01*
X141844861Y-139825728D01*
X141890100Y-139940014D01*
X141980576Y-140016204D01*
X142071052Y-140054300D01*
X142252004Y-140092395D01*
X142387719Y-140092395D01*
X142568671Y-140054300D01*
X142659147Y-140016204D01*
X142749623Y-139940014D01*
X142794861Y-139825728D01*
X142794861Y-139635252D01*
X142794861Y-141044776D02*
X141844861Y-141044776D01*
X141844861Y-141349538D01*
X141890100Y-141425728D01*
X141935338Y-141463823D01*
X142025814Y-141501919D01*
X142161528Y-141501919D01*
X142252004Y-141463823D01*
X142297242Y-141425728D01*
X142342480Y-141349538D01*
X142342480Y-141044776D01*
X142297242Y-142111442D02*
X142342480Y-142225728D01*
X142387719Y-142263823D01*
X142478195Y-142301919D01*
X142613909Y-142301919D01*
X142704385Y-142263823D01*
X142749623Y-142225728D01*
X142794861Y-142149538D01*
X142794861Y-141844776D01*
X141844861Y-141844776D01*
X141844861Y-142111442D01*
X141890100Y-142187633D01*
X141935338Y-142225728D01*
X142025814Y-142263823D01*
X142116290Y-142263823D01*
X142206766Y-142225728D01*
X142252004Y-142187633D01*
X142297242Y-142111442D01*
X142297242Y-141844776D01*
X141844861Y-142530490D02*
X141844861Y-142987633D01*
X142794861Y-142759061D02*
X141844861Y-142759061D01*
X142794861Y-143635252D02*
X142794861Y-143254300D01*
X141844861Y-143254300D01*
D13*
X149568671Y-113562633D02*
X148711528Y-113562633D01*
X146997242Y-114872157D01*
X146140100Y-117491204D01*
X146140100Y-130586442D01*
X145282957Y-133205490D01*
X143568671Y-134515014D01*
X145282957Y-135824538D01*
X146140100Y-138443585D01*
X146140100Y-151538823D01*
X146997242Y-154157871D01*
X148711528Y-155467395D01*
X149568671Y-155467395D01*
D10*
X107544900Y-134720633D02*
X107544900Y-135253966D01*
X107811566Y-134987300D02*
X107278233Y-134987300D01*
X107111566Y-135920633D02*
X107111566Y-135587300D01*
X107444900Y-135553966D01*
X107411566Y-135587300D01*
X107378233Y-135653966D01*
X107378233Y-135820633D01*
X107411566Y-135887300D01*
X107444900Y-135920633D01*
X107511566Y-135953966D01*
X107678233Y-135953966D01*
X107744900Y-135920633D01*
X107778233Y-135887300D01*
X107811566Y-135820633D01*
X107811566Y-135653966D01*
X107778233Y-135587300D01*
X107744900Y-135553966D01*
X107344900Y-136187300D02*
X107811566Y-136353966D01*
X107344900Y-136520633D01*
D12*
X96279966Y-112535300D02*
X95579966Y-112535300D01*
X95579966Y-113001966D02*
X95579966Y-113135300D01*
X95613300Y-113201966D01*
X95679966Y-113268633D01*
X95813300Y-113301966D01*
X96046633Y-113301966D01*
X96179966Y-113268633D01*
X96246633Y-113201966D01*
X96279966Y-113135300D01*
X96279966Y-113001966D01*
X96246633Y-112935300D01*
X96179966Y-112868633D01*
X96046633Y-112835300D01*
X95813300Y-112835300D01*
X95679966Y-112868633D01*
X95613300Y-112935300D01*
X95579966Y-113001966D01*
X95579966Y-113735300D02*
X95579966Y-113801966D01*
X95613300Y-113868633D01*
X95646633Y-113901966D01*
X95713300Y-113935300D01*
X95846633Y-113968633D01*
X96013300Y-113968633D01*
X96146633Y-113935300D01*
X96213300Y-113901966D01*
X96246633Y-113868633D01*
X96279966Y-113801966D01*
X96279966Y-113735300D01*
X96246633Y-113668633D01*
X96213300Y-113635300D01*
X96146633Y-113601966D01*
X96013300Y-113568633D01*
X95846633Y-113568633D01*
X95713300Y-113601966D01*
X95646633Y-113635300D01*
X95613300Y-113668633D01*
X95579966Y-113735300D01*
D13*
X148991428Y-109197619D02*
X148991428Y-111102380D01*
D10*
X107444900Y-129548566D02*
X107478233Y-129648566D01*
X107511566Y-129681900D01*
X107578233Y-129715233D01*
X107678233Y-129715233D01*
X107744900Y-129681900D01*
X107778233Y-129648566D01*
X107811566Y-129581900D01*
X107811566Y-129315233D01*
X107111566Y-129315233D01*
X107111566Y-129548566D01*
X107144900Y-129615233D01*
X107178233Y-129648566D01*
X107244900Y-129681900D01*
X107311566Y-129681900D01*
X107378233Y-129648566D01*
X107411566Y-129615233D01*
X107444900Y-129548566D01*
X107444900Y-129315233D01*
X107744900Y-130415233D02*
X107778233Y-130381900D01*
X107811566Y-130281900D01*
X107811566Y-130215233D01*
X107778233Y-130115233D01*
X107711566Y-130048566D01*
X107644900Y-130015233D01*
X107511566Y-129981900D01*
X107411566Y-129981900D01*
X107278233Y-130015233D01*
X107211566Y-130048566D01*
X107144900Y-130115233D01*
X107111566Y-130215233D01*
X107111566Y-130281900D01*
X107144900Y-130381900D01*
X107178233Y-130415233D01*
X107811566Y-131048566D02*
X107811566Y-130715233D01*
X107111566Y-130715233D01*
X107811566Y-131281900D02*
X107111566Y-131281900D01*
X107811566Y-131681900D02*
X107411566Y-131381900D01*
X107111566Y-131681900D02*
X107511566Y-131281900D01*
D11*
X100857700Y-154610733D02*
X100857700Y-154844066D01*
X101224366Y-154944066D02*
X101224366Y-154610733D01*
X100524366Y-154610733D01*
X100524366Y-154944066D01*
X101224366Y-155177400D02*
X100757700Y-155544066D01*
X100757700Y-155177400D02*
X101224366Y-155544066D01*
X100757700Y-155710733D02*
X100757700Y-155977400D01*
X100524366Y-155810733D02*
X101124366Y-155810733D01*
X101191033Y-155844066D01*
X101224366Y-155910733D01*
X101224366Y-155977400D01*
X101157700Y-156210733D02*
X101191033Y-156244066D01*
X101224366Y-156210733D01*
X101191033Y-156177400D01*
X101157700Y-156210733D01*
X101224366Y-156210733D01*
X101984700Y-154594066D02*
X101984700Y-154827400D01*
X102351366Y-154927400D02*
X102351366Y-154594066D01*
X101651366Y-154594066D01*
X101651366Y-154927400D01*
X101884700Y-155227400D02*
X102351366Y-155227400D01*
X101951366Y-155227400D02*
X101918033Y-155260733D01*
X101884700Y-155327400D01*
X101884700Y-155427400D01*
X101918033Y-155494066D01*
X101984700Y-155527400D01*
X102351366Y-155527400D01*
X102351366Y-156160733D02*
X101984700Y-156160733D01*
X101918033Y-156127400D01*
X101884700Y-156060733D01*
X101884700Y-155927400D01*
X101918033Y-155860733D01*
X102318033Y-156160733D02*
X102351366Y-156094066D01*
X102351366Y-155927400D01*
X102318033Y-155860733D01*
X102251366Y-155827400D01*
X102184700Y-155827400D01*
X102118033Y-155860733D01*
X102084700Y-155927400D01*
X102084700Y-156094066D01*
X102051366Y-156160733D01*
X102284700Y-156594066D02*
X102318033Y-156627400D01*
X102351366Y-156594066D01*
X102318033Y-156560733D01*
X102284700Y-156594066D01*
X102351366Y-156594066D01*
X101684700Y-156460733D02*
X101651366Y-156527400D01*
X101651366Y-156694066D01*
X101684700Y-156760733D01*
X101751366Y-156794066D01*
X101818033Y-156794066D01*
X101884700Y-156760733D01*
X101918033Y-156727400D01*
X101951366Y-156660733D01*
X101984700Y-156627400D01*
X102051366Y-156594066D01*
X102084700Y-156594066D01*
D12*
X93656766Y-112762633D02*
X93323433Y-112529300D01*
X93656766Y-112362633D02*
X92956766Y-112362633D01*
X92956766Y-112629300D01*
X92990100Y-112695966D01*
X93023433Y-112729300D01*
X93090100Y-112762633D01*
X93190100Y-112762633D01*
X93256766Y-112729300D01*
X93290100Y-112695966D01*
X93323433Y-112629300D01*
X93323433Y-112362633D01*
X92956766Y-112995966D02*
X93656766Y-113462633D01*
X92956766Y-113462633D02*
X93656766Y-112995966D01*
D10*
X138162466Y-120157333D02*
X137462466Y-120157333D01*
X138162466Y-120457333D02*
X137795800Y-120457333D01*
X137729133Y-120424000D01*
X137695800Y-120357333D01*
X137695800Y-120257333D01*
X137729133Y-120190666D01*
X137762466Y-120157333D01*
X137695800Y-120690666D02*
X137695800Y-120957333D01*
X137462466Y-120790666D02*
X138062466Y-120790666D01*
X138129133Y-120824000D01*
X138162466Y-120890666D01*
X138162466Y-120957333D01*
X137695800Y-121090666D02*
X137695800Y-121357333D01*
X137462466Y-121190666D02*
X138062466Y-121190666D01*
X138129133Y-121224000D01*
X138162466Y-121290666D01*
X138162466Y-121357333D01*
X137695800Y-121590666D02*
X138395800Y-121590666D01*
X137729133Y-121590666D02*
X137695800Y-121657333D01*
X137695800Y-121790666D01*
X137729133Y-121857333D01*
X137762466Y-121890666D01*
X137829133Y-121924000D01*
X138029133Y-121924000D01*
X138095800Y-121890666D01*
X138129133Y-121857333D01*
X138162466Y-121790666D01*
X138162466Y-121657333D01*
X138129133Y-121590666D01*
X138129133Y-122190666D02*
X138162466Y-122257333D01*
X138162466Y-122390666D01*
X138129133Y-122457333D01*
X138062466Y-122490666D01*
X138029133Y-122490666D01*
X137962466Y-122457333D01*
X137929133Y-122390666D01*
X137929133Y-122290666D01*
X137895800Y-122224000D01*
X137829133Y-122190666D01*
X137795800Y-122190666D01*
X137729133Y-122224000D01*
X137695800Y-122290666D01*
X137695800Y-122390666D01*
X137729133Y-122457333D01*
X138095800Y-122790666D02*
X138129133Y-122824000D01*
X138162466Y-122790666D01*
X138129133Y-122757333D01*
X138095800Y-122790666D01*
X138162466Y-122790666D01*
X137729133Y-122790666D02*
X137762466Y-122824000D01*
X137795800Y-122790666D01*
X137762466Y-122757333D01*
X137729133Y-122790666D01*
X137795800Y-122790666D01*
X137429133Y-123624000D02*
X138329133Y-123024000D01*
X137429133Y-124357333D02*
X138329133Y-123757333D01*
X137695800Y-124890666D02*
X138262466Y-124890666D01*
X138329133Y-124857333D01*
X138362466Y-124824000D01*
X138395800Y-124757333D01*
X138395800Y-124657333D01*
X138362466Y-124590666D01*
X138129133Y-124890666D02*
X138162466Y-124824000D01*
X138162466Y-124690666D01*
X138129133Y-124624000D01*
X138095800Y-124590666D01*
X138029133Y-124557333D01*
X137829133Y-124557333D01*
X137762466Y-124590666D01*
X137729133Y-124624000D01*
X137695800Y-124690666D01*
X137695800Y-124824000D01*
X137729133Y-124890666D01*
X138162466Y-125224000D02*
X137695800Y-125224000D01*
X137462466Y-125224000D02*
X137495800Y-125190666D01*
X137529133Y-125224000D01*
X137495800Y-125257333D01*
X137462466Y-125224000D01*
X137529133Y-125224000D01*
X137695800Y-125457333D02*
X137695800Y-125724000D01*
X137462466Y-125557333D02*
X138062466Y-125557333D01*
X138129133Y-125590666D01*
X138162466Y-125657333D01*
X138162466Y-125724000D01*
X138162466Y-125957333D02*
X137462466Y-125957333D01*
X138162466Y-126257333D02*
X137795800Y-126257333D01*
X137729133Y-126224000D01*
X137695800Y-126157333D01*
X137695800Y-126057333D01*
X137729133Y-125990666D01*
X137762466Y-125957333D01*
X137695800Y-126890666D02*
X138162466Y-126890666D01*
X137695800Y-126590666D02*
X138062466Y-126590666D01*
X138129133Y-126624000D01*
X138162466Y-126690666D01*
X138162466Y-126790666D01*
X138129133Y-126857333D01*
X138095800Y-126890666D01*
X138162466Y-127224000D02*
X137462466Y-127224000D01*
X137729133Y-127224000D02*
X137695800Y-127290666D01*
X137695800Y-127424000D01*
X137729133Y-127490666D01*
X137762466Y-127524000D01*
X137829133Y-127557333D01*
X138029133Y-127557333D01*
X138095800Y-127524000D01*
X138129133Y-127490666D01*
X138162466Y-127424000D01*
X138162466Y-127290666D01*
X138129133Y-127224000D01*
X138095800Y-127857333D02*
X138129133Y-127890666D01*
X138162466Y-127857333D01*
X138129133Y-127823999D01*
X138095800Y-127857333D01*
X138162466Y-127857333D01*
X138129133Y-128490666D02*
X138162466Y-128423999D01*
X138162466Y-128290666D01*
X138129133Y-128223999D01*
X138095800Y-128190666D01*
X138029133Y-128157333D01*
X137829133Y-128157333D01*
X137762466Y-128190666D01*
X137729133Y-128223999D01*
X137695800Y-128290666D01*
X137695800Y-128423999D01*
X137729133Y-128490666D01*
X138162466Y-128890666D02*
X138129133Y-128823999D01*
X138095800Y-128790666D01*
X138029133Y-128757333D01*
X137829133Y-128757333D01*
X137762466Y-128790666D01*
X137729133Y-128823999D01*
X137695800Y-128890666D01*
X137695800Y-128990666D01*
X137729133Y-129057333D01*
X137762466Y-129090666D01*
X137829133Y-129123999D01*
X138029133Y-129123999D01*
X138095800Y-129090666D01*
X138129133Y-129057333D01*
X138162466Y-128990666D01*
X138162466Y-128890666D01*
X138162466Y-129423999D02*
X137695800Y-129423999D01*
X137762466Y-129423999D02*
X137729133Y-129457333D01*
X137695800Y-129523999D01*
X137695800Y-129623999D01*
X137729133Y-129690666D01*
X137795800Y-129723999D01*
X138162466Y-129723999D01*
X137795800Y-129723999D02*
X137729133Y-129757333D01*
X137695800Y-129823999D01*
X137695800Y-129923999D01*
X137729133Y-129990666D01*
X137795800Y-130023999D01*
X138162466Y-130023999D01*
X137429133Y-130857333D02*
X138329133Y-130257333D01*
X137462466Y-130990666D02*
X137462466Y-131390666D01*
X138162466Y-131190666D02*
X137462466Y-131190666D01*
X138162466Y-131623999D02*
X137462466Y-131623999D01*
X138162466Y-131923999D02*
X137795800Y-131923999D01*
X137729133Y-131890666D01*
X137695800Y-131823999D01*
X137695800Y-131723999D01*
X137729133Y-131657333D01*
X137762466Y-131623999D01*
X138129133Y-132523999D02*
X138162466Y-132457333D01*
X138162466Y-132323999D01*
X138129133Y-132257333D01*
X138062466Y-132223999D01*
X137795800Y-132223999D01*
X137729133Y-132257333D01*
X137695800Y-132323999D01*
X137695800Y-132457333D01*
X137729133Y-132523999D01*
X137795800Y-132557333D01*
X137862466Y-132557333D01*
X137929133Y-132223999D01*
X137695800Y-132857333D02*
X138162466Y-132857333D01*
X137762466Y-132857333D02*
X137729133Y-132890666D01*
X137695800Y-132957333D01*
X137695800Y-133057333D01*
X137729133Y-133123999D01*
X137795800Y-133157333D01*
X138162466Y-133157333D01*
X138162466Y-133490666D02*
X137695800Y-133490666D01*
X137462466Y-133490666D02*
X137495800Y-133457333D01*
X137529133Y-133490666D01*
X137495800Y-133523999D01*
X137462466Y-133490666D01*
X137529133Y-133490666D01*
X138129133Y-134123999D02*
X138162466Y-134057333D01*
X138162466Y-133923999D01*
X138129133Y-133857333D01*
X138095800Y-133823999D01*
X138029133Y-133790666D01*
X137829133Y-133790666D01*
X137762466Y-133823999D01*
X137729133Y-133857333D01*
X137695800Y-133923999D01*
X137695800Y-134057333D01*
X137729133Y-134123999D01*
X138162466Y-134523999D02*
X138129133Y-134457333D01*
X138095800Y-134423999D01*
X138029133Y-134390666D01*
X137829133Y-134390666D01*
X137762466Y-134423999D01*
X137729133Y-134457333D01*
X137695800Y-134523999D01*
X137695800Y-134623999D01*
X137729133Y-134690666D01*
X137762466Y-134723999D01*
X137829133Y-134757333D01*
X138029133Y-134757333D01*
X138095800Y-134723999D01*
X138129133Y-134690666D01*
X138162466Y-134623999D01*
X138162466Y-134523999D01*
X138162466Y-135157333D02*
X138129133Y-135090666D01*
X138062466Y-135057333D01*
X137462466Y-135057333D01*
X138162466Y-135723999D02*
X137795800Y-135723999D01*
X137729133Y-135690666D01*
X137695800Y-135623999D01*
X137695800Y-135490666D01*
X137729133Y-135423999D01*
X138129133Y-135723999D02*
X138162466Y-135657333D01*
X138162466Y-135490666D01*
X138129133Y-135423999D01*
X138062466Y-135390666D01*
X137995800Y-135390666D01*
X137929133Y-135423999D01*
X137895800Y-135490666D01*
X137895800Y-135657333D01*
X137862466Y-135723999D01*
X138162466Y-136057333D02*
X137695800Y-136057333D01*
X137462466Y-136057333D02*
X137495800Y-136023999D01*
X137529133Y-136057333D01*
X137495800Y-136090666D01*
X137462466Y-136057333D01*
X137529133Y-136057333D01*
X138162466Y-136390666D02*
X137462466Y-136390666D01*
X137729133Y-136390666D02*
X137695800Y-136457333D01*
X137695800Y-136590666D01*
X137729133Y-136657333D01*
X137762466Y-136690666D01*
X137829133Y-136723999D01*
X138029133Y-136723999D01*
X138095800Y-136690666D01*
X138129133Y-136657333D01*
X138162466Y-136590666D01*
X138162466Y-136457333D01*
X138129133Y-136390666D01*
X137695800Y-137323999D02*
X138162466Y-137323999D01*
X137695800Y-137023999D02*
X138062466Y-137023999D01*
X138129133Y-137057333D01*
X138162466Y-137123999D01*
X138162466Y-137223999D01*
X138129133Y-137290666D01*
X138095800Y-137323999D01*
X138162466Y-137757333D02*
X138129133Y-137690666D01*
X138062466Y-137657333D01*
X137462466Y-137657333D01*
X138162466Y-138123999D02*
X138129133Y-138057333D01*
X138095800Y-138023999D01*
X138029133Y-137990666D01*
X137829133Y-137990666D01*
X137762466Y-138023999D01*
X137729133Y-138057333D01*
X137695800Y-138123999D01*
X137695800Y-138223999D01*
X137729133Y-138290666D01*
X137762466Y-138323999D01*
X137829133Y-138357333D01*
X138029133Y-138357333D01*
X138095800Y-138323999D01*
X138129133Y-138290666D01*
X138162466Y-138223999D01*
X138162466Y-138123999D01*
X137695800Y-138590666D02*
X138162466Y-138724000D01*
X137829133Y-138857333D01*
X138162466Y-138990666D01*
X137695800Y-139124000D01*
X137429133Y-139890666D02*
X138329133Y-139290666D01*
X138162466Y-140124000D02*
X137695800Y-140124000D01*
X137762466Y-140124000D02*
X137729133Y-140157333D01*
X137695800Y-140224000D01*
X137695800Y-140324000D01*
X137729133Y-140390666D01*
X137795800Y-140424000D01*
X138162466Y-140424000D01*
X137795800Y-140424000D02*
X137729133Y-140457333D01*
X137695800Y-140524000D01*
X137695800Y-140624000D01*
X137729133Y-140690666D01*
X137795800Y-140724000D01*
X138162466Y-140724000D01*
X137695800Y-141357333D02*
X138162466Y-141357333D01*
X137695800Y-141057333D02*
X138062466Y-141057333D01*
X138129133Y-141090666D01*
X138162466Y-141157333D01*
X138162466Y-141257333D01*
X138129133Y-141324000D01*
X138095800Y-141357333D01*
X137462466Y-141590666D02*
X138162466Y-141824000D01*
X137462466Y-142057333D01*
X138162466Y-142390666D02*
X138129133Y-142324000D01*
X138095800Y-142290666D01*
X138029133Y-142257333D01*
X137829133Y-142257333D01*
X137762466Y-142290666D01*
X137729133Y-142324000D01*
X137695800Y-142390666D01*
X137695800Y-142490666D01*
X137729133Y-142557333D01*
X137762466Y-142590666D01*
X137829133Y-142624000D01*
X138029133Y-142624000D01*
X138095800Y-142590666D01*
X138129133Y-142557333D01*
X138162466Y-142490666D01*
X138162466Y-142390666D01*
X138162466Y-142857333D02*
X137695800Y-143224000D01*
X137695800Y-142857333D02*
X138162466Y-143224000D01*
X137895800Y-143490666D02*
X137895800Y-144024000D01*
X137795800Y-144357333D02*
X137795800Y-144590666D01*
X138162466Y-144690666D02*
X138162466Y-144357333D01*
X137462466Y-144357333D01*
X137462466Y-144690666D01*
X138162466Y-144924000D02*
X137695800Y-145290666D01*
X137695800Y-144924000D02*
X138162466Y-145290666D01*
X137695800Y-145457333D02*
X137695800Y-145724000D01*
X137462466Y-145557333D02*
X138062466Y-145557333D01*
X138129133Y-145590666D01*
X138162466Y-145657333D01*
X138162466Y-145724000D01*
X138129133Y-146224000D02*
X138162466Y-146157333D01*
X138162466Y-146024000D01*
X138129133Y-145957333D01*
X138062466Y-145924000D01*
X137795800Y-145924000D01*
X137729133Y-145957333D01*
X137695800Y-146024000D01*
X137695800Y-146157333D01*
X137729133Y-146224000D01*
X137795800Y-146257333D01*
X137862466Y-146257333D01*
X137929133Y-145924000D01*
X137695800Y-146557333D02*
X138162466Y-146557333D01*
X137762466Y-146557333D02*
X137729133Y-146590666D01*
X137695800Y-146657333D01*
X137695800Y-146757333D01*
X137729133Y-146824000D01*
X137795800Y-146857333D01*
X138162466Y-146857333D01*
X138129133Y-147157333D02*
X138162466Y-147224000D01*
X138162466Y-147357333D01*
X138129133Y-147424000D01*
X138062466Y-147457333D01*
X138029133Y-147457333D01*
X137962466Y-147424000D01*
X137929133Y-147357333D01*
X137929133Y-147257333D01*
X137895800Y-147190666D01*
X137829133Y-147157333D01*
X137795800Y-147157333D01*
X137729133Y-147190666D01*
X137695800Y-147257333D01*
X137695800Y-147357333D01*
X137729133Y-147424000D01*
X138162466Y-147757333D02*
X137695800Y-147757333D01*
X137462466Y-147757333D02*
X137495800Y-147724000D01*
X137529133Y-147757333D01*
X137495800Y-147790666D01*
X137462466Y-147757333D01*
X137529133Y-147757333D01*
X138162466Y-148190666D02*
X138129133Y-148124000D01*
X138095800Y-148090666D01*
X138029133Y-148057333D01*
X137829133Y-148057333D01*
X137762466Y-148090666D01*
X137729133Y-148124000D01*
X137695800Y-148190666D01*
X137695800Y-148290666D01*
X137729133Y-148357333D01*
X137762466Y-148390666D01*
X137829133Y-148424000D01*
X138029133Y-148424000D01*
X138095800Y-148390666D01*
X138129133Y-148357333D01*
X138162466Y-148290666D01*
X138162466Y-148190666D01*
X137695800Y-148724000D02*
X138162466Y-148724000D01*
X137762466Y-148724000D02*
X137729133Y-148757333D01*
X137695800Y-148824000D01*
X137695800Y-148924000D01*
X137729133Y-148990666D01*
X137795800Y-149024000D01*
X138162466Y-149024000D01*
X138129133Y-149324000D02*
X138162466Y-149390666D01*
X138162466Y-149524000D01*
X138129133Y-149590666D01*
X138062466Y-149624000D01*
X138029133Y-149624000D01*
X137962466Y-149590666D01*
X137929133Y-149524000D01*
X137929133Y-149424000D01*
X137895800Y-149357333D01*
X137829133Y-149324000D01*
X137795800Y-149324000D01*
X137729133Y-149357333D01*
X137695800Y-149424000D01*
X137695800Y-149524000D01*
X137729133Y-149590666D01*
D12*
X87906766Y-112545966D02*
X87906766Y-112212633D01*
X88240100Y-112179300D01*
X88206766Y-112212633D01*
X88173433Y-112279300D01*
X88173433Y-112445966D01*
X88206766Y-112512633D01*
X88240100Y-112545966D01*
X88306766Y-112579300D01*
X88473433Y-112579300D01*
X88540100Y-112545966D01*
X88573433Y-112512633D01*
X88606766Y-112445966D01*
X88606766Y-112279300D01*
X88573433Y-112212633D01*
X88540100Y-112179300D01*
X88140100Y-112812633D02*
X88606766Y-112979300D01*
X88140100Y-113145966D01*
X88340100Y-113412633D02*
X88340100Y-113945966D01*
X88606766Y-113679300D02*
X88073433Y-113679300D01*
D16*
X151532957Y-141122157D02*
X151532957Y-140645966D01*
X150332957Y-140645966D01*
X151532957Y-143741204D02*
X150332957Y-143741204D01*
X150904385Y-143741204D02*
X150904385Y-144312633D01*
X151532957Y-144312633D02*
X150332957Y-144312633D01*
D11*
X109881283Y-154432161D02*
X109881283Y-154741685D01*
X110066997Y-154370257D02*
X109416997Y-154586923D01*
X110066997Y-154803590D01*
X110066997Y-155113114D02*
X110036045Y-155051209D01*
X109974140Y-155020257D01*
X109416997Y-155020257D01*
X109633664Y-155298828D02*
X110066997Y-155422638D01*
X109757473Y-155546447D01*
X110066997Y-155670257D01*
X109633664Y-155794066D01*
X110066997Y-156320257D02*
X109726521Y-156320257D01*
X109664616Y-156289304D01*
X109633664Y-156227400D01*
X109633664Y-156103590D01*
X109664616Y-156041685D01*
X110036045Y-156320257D02*
X110066997Y-156258352D01*
X110066997Y-156103590D01*
X110036045Y-156041685D01*
X109974140Y-156010733D01*
X109912235Y-156010733D01*
X109850330Y-156041685D01*
X109819378Y-156103590D01*
X109819378Y-156258352D01*
X109788426Y-156320257D01*
X109633664Y-156567876D02*
X110066997Y-156722638D01*
X109633664Y-156877400D02*
X110066997Y-156722638D01*
X110221759Y-156660733D01*
X110252711Y-156629780D01*
X110283664Y-156567876D01*
X110036045Y-157094066D02*
X110066997Y-157155971D01*
X110066997Y-157279780D01*
X110036045Y-157341685D01*
X109974140Y-157372638D01*
X109943188Y-157372638D01*
X109881283Y-157341685D01*
X109850330Y-157279780D01*
X109850330Y-157186923D01*
X109819378Y-157125019D01*
X109757473Y-157094066D01*
X109726521Y-157094066D01*
X109664616Y-157125019D01*
X109633664Y-157186923D01*
X109633664Y-157279780D01*
X109664616Y-157341685D01*
X110463497Y-155267876D02*
X110463497Y-155391685D01*
X110494450Y-155453590D01*
X110556354Y-155515495D01*
X110680164Y-155546447D01*
X110896830Y-155546447D01*
X111020640Y-155515495D01*
X111082545Y-155453590D01*
X111113497Y-155391685D01*
X111113497Y-155267876D01*
X111082545Y-155205971D01*
X111020640Y-155144066D01*
X110896830Y-155113114D01*
X110680164Y-155113114D01*
X110556354Y-155144066D01*
X110494450Y-155205971D01*
X110463497Y-155267876D01*
X110680164Y-155825019D02*
X111113497Y-155825019D01*
X110742069Y-155825019D02*
X110711116Y-155855971D01*
X110680164Y-155917876D01*
X110680164Y-156010733D01*
X110711116Y-156072638D01*
X110773021Y-156103590D01*
X111113497Y-156103590D01*
X111051592Y-156505971D02*
X111082545Y-156536923D01*
X111113497Y-156505971D01*
X111082545Y-156475019D01*
X111051592Y-156505971D01*
X111113497Y-156505971D01*
X110494450Y-156382161D02*
X110463497Y-156444066D01*
X110463497Y-156598828D01*
X110494450Y-156660733D01*
X110556354Y-156691685D01*
X110618259Y-156691685D01*
X110680164Y-156660733D01*
X110711116Y-156629780D01*
X110742069Y-156567876D01*
X110773021Y-156536923D01*
X110834926Y-156505971D01*
X110865878Y-156505971D01*
X153714004Y-128019657D02*
X153714004Y-128172038D01*
X153752100Y-128248228D01*
X153828290Y-128324419D01*
X153980671Y-128362514D01*
X154247338Y-128362514D01*
X154399719Y-128324419D01*
X154475909Y-128248228D01*
X154514004Y-128172038D01*
X154514004Y-128019657D01*
X154475909Y-127943466D01*
X154399719Y-127867276D01*
X154247338Y-127829180D01*
X153980671Y-127829180D01*
X153828290Y-127867276D01*
X153752100Y-127943466D01*
X153714004Y-128019657D01*
X153714004Y-128705371D02*
X154361623Y-128705371D01*
X154437814Y-128743466D01*
X154475909Y-128781561D01*
X154514004Y-128857752D01*
X154514004Y-129010133D01*
X154475909Y-129086323D01*
X154437814Y-129124419D01*
X154361623Y-129162514D01*
X153714004Y-129162514D01*
X153714004Y-129429180D02*
X153714004Y-129886323D01*
X154514004Y-129657752D02*
X153714004Y-129657752D01*
X154437814Y-130152990D02*
X154475909Y-130191085D01*
X154514004Y-130152990D01*
X154475909Y-130114895D01*
X154437814Y-130152990D01*
X154514004Y-130152990D01*
X154018766Y-130152990D02*
X154056861Y-130191085D01*
X154094957Y-130152990D01*
X154056861Y-130114895D01*
X154018766Y-130152990D01*
X154094957Y-130152990D01*
X154094957Y-133848228D02*
X154133052Y-133962514D01*
X154171147Y-134000609D01*
X154247338Y-134038704D01*
X154361623Y-134038704D01*
X154437814Y-134000609D01*
X154475909Y-133962514D01*
X154514004Y-133886323D01*
X154514004Y-133581561D01*
X153714004Y-133581561D01*
X153714004Y-133848228D01*
X153752100Y-133924419D01*
X153790195Y-133962514D01*
X153866385Y-134000609D01*
X153942576Y-134000609D01*
X154018766Y-133962514D01*
X154056861Y-133924419D01*
X154094957Y-133848228D01*
X154094957Y-133581561D01*
X153714004Y-134267276D02*
X153714004Y-134724419D01*
X154514004Y-134495847D02*
X153714004Y-134495847D01*
X154514004Y-135372038D02*
X154514004Y-134991085D01*
X153714004Y-134991085D01*
X154514004Y-136857752D02*
X153714004Y-136857752D01*
X153714004Y-137162514D01*
X153752100Y-137238704D01*
X153790195Y-137276800D01*
X153866385Y-137314895D01*
X153980671Y-137314895D01*
X154056861Y-137276800D01*
X154094957Y-137238704D01*
X154133052Y-137162514D01*
X154133052Y-136857752D01*
X154094957Y-137924419D02*
X154133052Y-138038704D01*
X154171147Y-138076800D01*
X154247338Y-138114895D01*
X154361623Y-138114895D01*
X154437814Y-138076800D01*
X154475909Y-138038704D01*
X154514004Y-137962514D01*
X154514004Y-137657752D01*
X153714004Y-137657752D01*
X153714004Y-137924419D01*
X153752100Y-138000609D01*
X153790195Y-138038704D01*
X153866385Y-138076800D01*
X153942576Y-138076800D01*
X154018766Y-138038704D01*
X154056861Y-138000609D01*
X154094957Y-137924419D01*
X154094957Y-137657752D01*
X153714004Y-138343466D02*
X153714004Y-138800609D01*
X154514004Y-138572038D02*
X153714004Y-138572038D01*
X154514004Y-139448228D02*
X154514004Y-139067276D01*
X153714004Y-139067276D01*
X154776100Y-127676800D02*
X154776100Y-128591085D01*
X155802004Y-127867276D02*
X155002004Y-127867276D01*
X155573433Y-128133942D01*
X155002004Y-128400609D01*
X155802004Y-128400609D01*
X154776100Y-128591085D02*
X154776100Y-129352990D01*
X155763909Y-128743466D02*
X155802004Y-128857752D01*
X155802004Y-129048228D01*
X155763909Y-129124419D01*
X155725814Y-129162514D01*
X155649623Y-129200609D01*
X155573433Y-129200609D01*
X155497242Y-129162514D01*
X155459147Y-129124419D01*
X155421052Y-129048228D01*
X155382957Y-128895847D01*
X155344861Y-128819657D01*
X155306766Y-128781561D01*
X155230576Y-128743466D01*
X155154385Y-128743466D01*
X155078195Y-128781561D01*
X155040100Y-128819657D01*
X155002004Y-128895847D01*
X155002004Y-129086323D01*
X155040100Y-129200609D01*
X154776100Y-129352990D02*
X154776100Y-130076800D01*
X155382957Y-129543466D02*
X155382957Y-129810133D01*
X155802004Y-129924419D02*
X155802004Y-129543466D01*
X155002004Y-129543466D01*
X155002004Y-129924419D01*
X154776100Y-130076800D02*
X154776100Y-130724419D01*
X155802004Y-130648228D02*
X155802004Y-130267276D01*
X155002004Y-130267276D01*
X154776100Y-130724419D02*
X154776100Y-131486323D01*
X155002004Y-131067276D02*
X155002004Y-131143466D01*
X155040100Y-131219657D01*
X155078195Y-131257752D01*
X155154385Y-131295847D01*
X155306766Y-131333942D01*
X155497242Y-131333942D01*
X155649623Y-131295847D01*
X155725814Y-131257752D01*
X155763909Y-131219657D01*
X155802004Y-131143466D01*
X155802004Y-131067276D01*
X155763909Y-130991085D01*
X155725814Y-130952990D01*
X155649623Y-130914895D01*
X155497242Y-130876800D01*
X155306766Y-130876800D01*
X155154385Y-130914895D01*
X155078195Y-130952990D01*
X155040100Y-130991085D01*
X155002004Y-131067276D01*
X154776100Y-131486323D02*
X154776100Y-131867276D01*
X155725814Y-131676800D02*
X155763909Y-131714895D01*
X155802004Y-131676800D01*
X155763909Y-131638704D01*
X155725814Y-131676800D01*
X155802004Y-131676800D01*
X155306766Y-131676800D02*
X155344861Y-131714895D01*
X155382957Y-131676800D01*
X155344861Y-131638704D01*
X155306766Y-131676800D01*
X155382957Y-131676800D01*
X154776100Y-131867276D02*
X154776100Y-132476800D01*
X154776100Y-132476800D02*
X154776100Y-133086323D01*
X154776100Y-133086323D02*
X154776100Y-133695847D01*
X154776100Y-133695847D02*
X154776100Y-134533942D01*
X155802004Y-133886323D02*
X155002004Y-133886323D01*
X155382957Y-133886323D02*
X155382957Y-134343466D01*
X155802004Y-134343466D02*
X155002004Y-134343466D01*
X154776100Y-134533942D02*
X154776100Y-135143466D01*
X154776100Y-135143466D02*
X154776100Y-135752990D01*
X154776100Y-135752990D02*
X154776100Y-136362514D01*
X154776100Y-136362514D02*
X154776100Y-136972038D01*
X154776100Y-136972038D02*
X154776100Y-137619657D01*
X155802004Y-137543466D02*
X155802004Y-137162514D01*
X155002004Y-137162514D01*
X154776100Y-137619657D02*
X154776100Y-138229180D01*
X154776100Y-138229180D02*
X154776100Y-138838704D01*
X154776100Y-138838704D02*
X154776100Y-139448228D01*
X157090004Y-127867276D02*
X156290004Y-127867276D01*
X156861433Y-128133942D01*
X156290004Y-128400609D01*
X157090004Y-128400609D01*
X157051909Y-128743466D02*
X157090004Y-128857752D01*
X157090004Y-129048228D01*
X157051909Y-129124419D01*
X157013814Y-129162514D01*
X156937623Y-129200609D01*
X156861433Y-129200609D01*
X156785242Y-129162514D01*
X156747147Y-129124419D01*
X156709052Y-129048228D01*
X156670957Y-128895847D01*
X156632861Y-128819657D01*
X156594766Y-128781561D01*
X156518576Y-128743466D01*
X156442385Y-128743466D01*
X156366195Y-128781561D01*
X156328100Y-128819657D01*
X156290004Y-128895847D01*
X156290004Y-129086323D01*
X156328100Y-129200609D01*
X156670957Y-129543466D02*
X156670957Y-129810133D01*
X157090004Y-129924419D02*
X157090004Y-129543466D01*
X156290004Y-129543466D01*
X156290004Y-129924419D01*
X157090004Y-130648228D02*
X157090004Y-130267276D01*
X156290004Y-130267276D01*
X157090004Y-131333942D02*
X157090004Y-130876800D01*
X157090004Y-131105371D02*
X156290004Y-131105371D01*
X156404290Y-131029180D01*
X156480480Y-130952990D01*
X156518576Y-130876800D01*
X157013814Y-131676800D02*
X157051909Y-131714895D01*
X157090004Y-131676800D01*
X157051909Y-131638704D01*
X157013814Y-131676800D01*
X157090004Y-131676800D01*
X156594766Y-131676800D02*
X156632861Y-131714895D01*
X156670957Y-131676800D01*
X156632861Y-131638704D01*
X156594766Y-131676800D01*
X156670957Y-131676800D01*
X157090004Y-134267276D02*
X157090004Y-133886323D01*
X156290004Y-133886323D01*
X157090004Y-137352990D02*
X157090004Y-136972038D01*
X156290004Y-136972038D01*
D17*
X114996000Y-147066000D02*
G75*
G03*
X114996000Y-147066000I-950000J0D01*
G01*
X144550000Y-110500000D02*
G75*
G03*
X144550000Y-110500000I-950000J0D01*
G01*
X105846200Y-156027400D02*
X105846200Y-155427400D01*
X103046200Y-155427400D02*
X103046200Y-156027400D01*
X105146200Y-154727400D02*
X103746200Y-154727400D01*
X103746200Y-156727400D02*
X105146200Y-156727400D01*
X105146200Y-156727400D02*
G75*
G03*
X105846200Y-156027400I0J700000D01*
G01*
X105846200Y-155427400D02*
G75*
G03*
X105146200Y-154727400I-700000J0D01*
G01*
X103046200Y-156027400D02*
G75*
G03*
X103746200Y-156727400I699999J-1D01*
G01*
X103746200Y-154727400D02*
G75*
G03*
X103046200Y-155427400I-1J-699999D01*
G01*
X91590100Y-147179300D02*
G75*
G03*
X91590100Y-147179300I-950000J0D01*
G01*
X94090100Y-147179300D02*
G75*
G03*
X94090100Y-147179300I-950000J0D01*
G01*
X88840100Y-147179300D02*
G75*
G03*
X88840100Y-147179300I-950000J0D01*
G01*
X91690100Y-115679300D02*
G75*
G03*
X91690100Y-115679300I-950000J0D01*
G01*
X96890100Y-115679300D02*
G75*
G03*
X96890100Y-115679300I-950000J0D01*
G01*
X103921600Y-147271300D02*
G75*
G03*
X103921600Y-147271300I-950000J0D01*
G01*
X123090100Y-147179300D02*
G75*
G03*
X123090100Y-147179300I-950000J0D01*
G01*
X94290100Y-115679300D02*
G75*
G03*
X94290100Y-115679300I-950000J0D01*
G01*
X144550000Y-151600000D02*
G75*
G03*
X144550000Y-151600000I-950000J0D01*
G01*
X153497600Y-140379300D02*
X152897600Y-140379300D01*
X154197600Y-143829300D02*
X154197600Y-141029300D01*
X152897600Y-144479300D02*
X153497600Y-144479300D01*
X154697600Y-140929300D02*
X154697600Y-141529300D01*
X154397600Y-141229300D02*
X154697600Y-141529300D01*
X152197600Y-141029300D02*
X152197600Y-143829300D01*
X154397600Y-141229300D02*
X154697600Y-140929300D01*
X153497600Y-144479300D02*
G75*
G03*
X154197600Y-143779300I0J700000D01*
G01*
X152897600Y-140379300D02*
G75*
G03*
X152197600Y-141079300I-1J-699999D01*
G01*
X152197600Y-143779300D02*
G75*
G03*
X152897600Y-144479300I700000J0D01*
G01*
X154197600Y-141079300D02*
G75*
G03*
X153497600Y-140379300I-699999J1D01*
G01*
X106090100Y-115679300D02*
G75*
G03*
X106090100Y-115679300I-950000J0D01*
G01*
X157282600Y-140379300D02*
X156682600Y-140379300D01*
X156682600Y-144479300D02*
X157282600Y-144479300D01*
X155782600Y-143629300D02*
X155482600Y-143329300D01*
X155482600Y-143929300D02*
X155482600Y-143329300D01*
X157982600Y-143829300D02*
X157982600Y-141029300D01*
X155982600Y-141029300D02*
X155982600Y-143829300D01*
X155782600Y-143629300D02*
X155482600Y-143929300D01*
X155982600Y-143779300D02*
G75*
G03*
X156682600Y-144479300I699999J-1D01*
G01*
X156682600Y-140379300D02*
G75*
G03*
X155982600Y-141079300I0J-700000D01*
G01*
X157982600Y-141079300D02*
G75*
G03*
X157282600Y-140379300I-700000J0D01*
G01*
X157282600Y-144479300D02*
G75*
G03*
X157982600Y-143779300I1J699999D01*
G01*
X106396200Y-155427400D02*
X106396200Y-156027400D01*
X109196200Y-156027400D02*
X109196200Y-155427400D01*
X107096200Y-156727400D02*
X108496200Y-156727400D01*
X108496200Y-154727400D02*
X107096200Y-154727400D01*
X109196200Y-155427400D02*
G75*
G03*
X108496200Y-154727400I-699999J1D01*
G01*
X108496200Y-156727400D02*
G75*
G03*
X109196200Y-156027400I1J699999D01*
G01*
X106396200Y-156027400D02*
G75*
G03*
X107096200Y-156727400I700000J0D01*
G01*
X107096200Y-154727400D02*
G75*
G03*
X106396200Y-155427400I0J-700000D01*
G01*
X107378100Y-147271300D02*
G75*
G03*
X107378100Y-147271300I-950000J0D01*
G01*
X86090100Y-147179300D02*
G75*
G03*
X86090100Y-147179300I-950000J0D01*
G01*
X144550000Y-158800000D02*
G75*
G03*
X144550000Y-158800000I-950000J0D01*
G01*
X127090100Y-147179300D02*
G75*
G03*
X127090100Y-147179300I-950000J0D01*
G01*
X144550000Y-117700000D02*
G75*
G03*
X144550000Y-117700000I-950000J0D01*
G01*
M02*
