G04 #@! TF.GenerationSoftware,KiCad,Pcbnew,(6.0.1-0)*
G04 #@! TF.CreationDate,2022-03-08T21:58:26+01:00*
G04 #@! TF.ProjectId,muVox,6d75566f-782e-46b6-9963-61645f706362,rev?*
G04 #@! TF.SameCoordinates,Original*
G04 #@! TF.FileFunction,Soldermask,Top*
G04 #@! TF.FilePolarity,Negative*
%FSLAX46Y46*%
G04 Gerber Fmt 4.6, Leading zero omitted, Abs format (unit mm)*
G04 Created by KiCad (PCBNEW (6.0.1-0)) date 2022-03-08 21:58:26*
%MOMM*%
%LPD*%
G01*
G04 APERTURE LIST*
G04 Aperture macros list*
%AMRoundRect*
0 Rectangle with rounded corners*
0 $1 Rounding radius*
0 $2 $3 $4 $5 $6 $7 $8 $9 X,Y pos of 4 corners*
0 Add a 4 corners polygon primitive as box body*
4,1,4,$2,$3,$4,$5,$6,$7,$8,$9,$2,$3,0*
0 Add four circle primitives for the rounded corners*
1,1,$1+$1,$2,$3*
1,1,$1+$1,$4,$5*
1,1,$1+$1,$6,$7*
1,1,$1+$1,$8,$9*
0 Add four rect primitives between the rounded corners*
20,1,$1+$1,$2,$3,$4,$5,0*
20,1,$1+$1,$4,$5,$6,$7,0*
20,1,$1+$1,$6,$7,$8,$9,0*
20,1,$1+$1,$8,$9,$2,$3,0*%
G04 Aperture macros list end*
%ADD10C,0.250000*%
%ADD11C,0.100000*%
%ADD12C,0.300000*%
%ADD13C,0.212500*%
%ADD14C,0.700000*%
%ADD15C,0.450000*%
%ADD16RoundRect,0.062500X-0.375000X-0.062500X0.375000X-0.062500X0.375000X0.062500X-0.375000X0.062500X0*%
%ADD17RoundRect,0.062500X-0.062500X-0.375000X0.062500X-0.375000X0.062500X0.375000X-0.062500X0.375000X0*%
%ADD18R,5.150000X5.150000*%
%ADD19RoundRect,0.075000X-0.075000X0.362500X-0.075000X-0.362500X0.075000X-0.362500X0.075000X0.362500X0*%
%ADD20RoundRect,0.075000X-0.362500X0.075000X-0.362500X-0.075000X0.362500X-0.075000X0.362500X0.075000X0*%
%ADD21R,5.450000X5.450000*%
%ADD22RoundRect,0.140000X-0.170000X0.140000X-0.170000X-0.140000X0.170000X-0.140000X0.170000X0.140000X0*%
%ADD23RoundRect,0.225000X0.250000X-0.225000X0.250000X0.225000X-0.250000X0.225000X-0.250000X-0.225000X0*%
%ADD24RoundRect,0.250000X-0.475000X0.250000X-0.475000X-0.250000X0.475000X-0.250000X0.475000X0.250000X0*%
%ADD25RoundRect,0.250000X-0.250000X-0.475000X0.250000X-0.475000X0.250000X0.475000X-0.250000X0.475000X0*%
%ADD26RoundRect,0.225000X0.225000X0.250000X-0.225000X0.250000X-0.225000X-0.250000X0.225000X-0.250000X0*%
%ADD27RoundRect,0.225000X-0.225000X-0.250000X0.225000X-0.250000X0.225000X0.250000X-0.225000X0.250000X0*%
%ADD28RoundRect,0.225000X-0.250000X0.225000X-0.250000X-0.225000X0.250000X-0.225000X0.250000X0.225000X0*%
%ADD29RoundRect,0.250000X0.250000X0.475000X-0.250000X0.475000X-0.250000X-0.475000X0.250000X-0.475000X0*%
%ADD30RoundRect,0.250000X0.475000X-0.250000X0.475000X0.250000X-0.475000X0.250000X-0.475000X-0.250000X0*%
%ADD31RoundRect,0.218750X-0.218750X-0.256250X0.218750X-0.256250X0.218750X0.256250X-0.218750X0.256250X0*%
%ADD32RoundRect,0.250000X-0.325000X-0.650000X0.325000X-0.650000X0.325000X0.650000X-0.325000X0.650000X0*%
%ADD33C,1.600000*%
%ADD34R,4.000000X2.000000*%
%ADD35O,3.300000X2.000000*%
%ADD36O,2.000000X3.500000*%
%ADD37C,2.500000*%
%ADD38RoundRect,0.147500X-0.147500X-0.172500X0.147500X-0.172500X0.147500X0.172500X-0.147500X0.172500X0*%
%ADD39R,3.500000X1.800000*%
%ADD40R,1.498600X2.489200*%
%ADD41RoundRect,0.150000X0.150000X-0.725000X0.150000X0.725000X-0.150000X0.725000X-0.150000X-0.725000X0*%
%ADD42R,1.000000X0.700000*%
%ADD43RoundRect,0.200000X-0.200000X-0.275000X0.200000X-0.275000X0.200000X0.275000X-0.200000X0.275000X0*%
%ADD44RoundRect,0.200000X0.200000X0.275000X-0.200000X0.275000X-0.200000X-0.275000X0.200000X-0.275000X0*%
%ADD45RoundRect,0.200000X0.275000X-0.200000X0.275000X0.200000X-0.275000X0.200000X-0.275000X-0.200000X0*%
%ADD46R,1.450000X0.700000*%
%ADD47RoundRect,0.150000X0.512500X0.150000X-0.512500X0.150000X-0.512500X-0.150000X0.512500X-0.150000X0*%
%ADD48RoundRect,0.250000X-0.550000X1.050000X-0.550000X-1.050000X0.550000X-1.050000X0.550000X1.050000X0*%
%ADD49RoundRect,0.250000X1.000000X-1.500000X1.000000X1.500000X-1.000000X1.500000X-1.000000X-1.500000X0*%
%ADD50RoundRect,0.250000X1.500000X1.000000X-1.500000X1.000000X-1.500000X-1.000000X1.500000X-1.000000X0*%
%ADD51RoundRect,0.250000X-1.000000X1.500000X-1.000000X-1.500000X1.000000X-1.500000X1.000000X1.500000X0*%
%ADD52R,0.900000X1.200000*%
%ADD53R,3.600000X2.700000*%
%ADD54RoundRect,0.150000X-0.512500X-0.150000X0.512500X-0.150000X0.512500X0.150000X-0.512500X0.150000X0*%
%ADD55R,1.700000X1.700000*%
%ADD56O,1.700000X1.700000*%
%ADD57R,1.050000X1.000000*%
%ADD58R,2.200000X1.050000*%
%ADD59RoundRect,0.150000X-0.150000X-0.625000X0.150000X-0.625000X0.150000X0.625000X-0.150000X0.625000X0*%
%ADD60RoundRect,0.250000X-0.350000X-0.650000X0.350000X-0.650000X0.350000X0.650000X-0.350000X0.650000X0*%
%ADD61R,1.350000X1.350000*%
%ADD62O,1.350000X1.350000*%
%ADD63RoundRect,0.250001X-1.099999X-1.099999X1.099999X-1.099999X1.099999X1.099999X-1.099999X1.099999X0*%
%ADD64C,2.700000*%
%ADD65C,5.600000*%
%ADD66RoundRect,0.218750X0.218750X0.256250X-0.218750X0.256250X-0.218750X-0.256250X0.218750X-0.256250X0*%
%ADD67R,1.500000X1.000000*%
%ADD68C,1.400000*%
%ADD69C,1.200000*%
%ADD70O,1.208000X2.800000*%
%ADD71R,2.600000X1.500000*%
G04 APERTURE END LIST*
D10*
X166535449Y-72312055D02*
X166533800Y-72307156D01*
X161688725Y-74333265D02*
X161690895Y-74337875D01*
X163416970Y-73790205D02*
X163282690Y-73669455D01*
X166579150Y-72349755D02*
X166535449Y-72312055D01*
X163037190Y-72804955D02*
X163093895Y-72621856D01*
X163506760Y-69542405D02*
X163505940Y-69547855D01*
X163297334Y-70483455D02*
X162703810Y-70726505D01*
X162641415Y-70724605D02*
X162637075Y-70721606D01*
X166774450Y-75091185D02*
X166300000Y-74400000D01*
X163140814Y-73476055D02*
X163049670Y-73250655D01*
X160538010Y-72510905D02*
X160505455Y-72544505D01*
X164374275Y-73955390D02*
X164376440Y-73960270D01*
X164432595Y-69509855D02*
X163551520Y-69509855D01*
X164643900Y-70438655D02*
X164643100Y-70433555D01*
X163551520Y-69509855D02*
X163540120Y-69509855D01*
X163511100Y-73856355D02*
X163470680Y-73825705D01*
X160505455Y-73437005D02*
X160505455Y-73448405D01*
X165280550Y-70726505D02*
X164687049Y-70483455D01*
X163093895Y-72621856D02*
X163183680Y-72456355D01*
X162988095Y-75457126D02*
X162990270Y-75452245D01*
X161686825Y-74395390D02*
X161683845Y-74399730D01*
X166297000Y-74395390D02*
X166292700Y-74338145D01*
X166086800Y-75778845D02*
X166091099Y-75781835D01*
X161897330Y-70214105D02*
X161892720Y-70210855D01*
X162945505Y-75472860D02*
X162988095Y-75457126D01*
X161450010Y-72307156D02*
X161448110Y-72312055D01*
X165347050Y-70721606D02*
X165342450Y-70724605D01*
X161426405Y-73676805D02*
X161428040Y-73681955D01*
X160543435Y-73482855D02*
X161378395Y-73638005D01*
X163339930Y-70438655D02*
X163302225Y-70481805D01*
X162636805Y-75307930D02*
X162641415Y-75310640D01*
X163795385Y-72046455D02*
X163942685Y-72026955D01*
X162940895Y-75470415D02*
X162945505Y-75472860D01*
X163609564Y-73955390D02*
X163593835Y-73907355D01*
X164966450Y-73001355D02*
X164966450Y-73063455D01*
X161690895Y-74337875D02*
X161686825Y-74395390D01*
X166292700Y-74338145D02*
X166295100Y-74333535D01*
X166295100Y-74333535D02*
X166555800Y-73682205D01*
X163302770Y-72312305D02*
X163447079Y-72193255D01*
X164469485Y-73858555D02*
X164394615Y-73904655D01*
X163589495Y-73904655D02*
X163514620Y-73858555D01*
X161404704Y-72349755D02*
X161399555Y-72350855D01*
X163447079Y-72193255D02*
X163612555Y-72103455D01*
X166777400Y-75095525D02*
X166774450Y-75091185D01*
X164934150Y-73250655D02*
X164842750Y-73476055D01*
X167440950Y-72510055D02*
X167440950Y-72510055D01*
X166777400Y-70897155D02*
X166772850Y-70846105D01*
X162990270Y-75452245D02*
X163607670Y-73960270D01*
X166772850Y-70846105D02*
X166769000Y-70842555D01*
X167478650Y-72544255D02*
X167446100Y-72510905D01*
X164472740Y-73856355D02*
X164469485Y-73858555D01*
D11*
X164643100Y-70433555D02*
X165347050Y-70721606D01*
X165347050Y-70721606D02*
X166142100Y-70215705D01*
X166142100Y-70215705D02*
X166761650Y-70853825D01*
X166761650Y-70853825D02*
X166261650Y-71653825D01*
X166261650Y-71653825D02*
X166533800Y-72307156D01*
X166533800Y-72307156D02*
X167478650Y-72544255D01*
X167478650Y-72544255D02*
X167478650Y-73437005D01*
X167478650Y-73437005D02*
X166561650Y-73653825D01*
X166561650Y-73653825D02*
X166295100Y-74333535D01*
X166295100Y-74333535D02*
X166777400Y-75095525D01*
X166777400Y-75095525D02*
X166145900Y-75773425D01*
X166145900Y-75773425D02*
X165403200Y-75309825D01*
X165403200Y-75309825D02*
X164995750Y-75457396D01*
X164995750Y-75457396D02*
X164394615Y-73904655D01*
X164394615Y-73904655D02*
X164842750Y-73476055D01*
X164842750Y-73476055D02*
X164961650Y-72853825D01*
X164961650Y-72853825D02*
X164681050Y-72312305D01*
X164681050Y-72312305D02*
X164188185Y-72046455D01*
X164188185Y-72046455D02*
X163761650Y-72053825D01*
X163761650Y-72053825D02*
X163302770Y-72312305D01*
X163302770Y-72312305D02*
X163061650Y-72753825D01*
X163061650Y-72753825D02*
X163061650Y-73153825D01*
X163061650Y-73153825D02*
X163261650Y-73553825D01*
X163261650Y-73553825D02*
X163661650Y-73953825D01*
X163661650Y-73953825D02*
X162961650Y-75453825D01*
X162961650Y-75453825D02*
X162580650Y-75309825D01*
X162580650Y-75309825D02*
X161892720Y-75781835D01*
X161892720Y-75781835D02*
X161209395Y-75091185D01*
X161209395Y-75091185D02*
X161688725Y-74333265D01*
X161688725Y-74333265D02*
X161383545Y-73638805D01*
X161383545Y-73638805D02*
X160505455Y-73437005D01*
X160505455Y-73437005D02*
X160505455Y-72555905D01*
X160505455Y-72555905D02*
X161404704Y-72349755D01*
X161404704Y-72349755D02*
X161708525Y-71628755D01*
X161708525Y-71628755D02*
X161215095Y-70842555D01*
X161215095Y-70842555D02*
X161892720Y-70210855D01*
X161892720Y-70210855D02*
X162637075Y-70721606D01*
X162637075Y-70721606D02*
X163339930Y-70438655D01*
X163339930Y-70438655D02*
X163551520Y-69509855D01*
X163551520Y-69509855D02*
X164443720Y-69509855D01*
X164443720Y-69509855D02*
X164643100Y-70433555D01*
G36*
X164643100Y-70433555D02*
G01*
X165347050Y-70721606D01*
X166142100Y-70215705D01*
X166761650Y-70853825D01*
X166261650Y-71653825D01*
X166533800Y-72307156D01*
X167478650Y-72544255D01*
X167478650Y-73437005D01*
X166561650Y-73653825D01*
X166295100Y-74333535D01*
X166777400Y-75095525D01*
X166145900Y-75773425D01*
X165403200Y-75309825D01*
X164995750Y-75457396D01*
X164394615Y-73904655D01*
X164842750Y-73476055D01*
X164961650Y-72853825D01*
X164681050Y-72312305D01*
X164188185Y-72046455D01*
X163761650Y-72053825D01*
X163302770Y-72312305D01*
X163061650Y-72753825D01*
X163061650Y-73153825D01*
X163261650Y-73553825D01*
X163661650Y-73953825D01*
X162961650Y-75453825D01*
X162580650Y-75309825D01*
X161892720Y-75781835D01*
X161209395Y-75091185D01*
X161688725Y-74333265D01*
X161383545Y-73638805D01*
X160505455Y-73437005D01*
X160505455Y-72555905D01*
X161404704Y-72349755D01*
X161708525Y-71628755D01*
X161215095Y-70842555D01*
X161892720Y-70210855D01*
X162637075Y-70721606D01*
X163339930Y-70438655D01*
X163551520Y-69509855D01*
X164443720Y-69509855D01*
X164643100Y-70433555D01*
G37*
X164643100Y-70433555D02*
X165347050Y-70721606D01*
X166142100Y-70215705D01*
X166761650Y-70853825D01*
X166261650Y-71653825D01*
X166533800Y-72307156D01*
X167478650Y-72544255D01*
X167478650Y-73437005D01*
X166561650Y-73653825D01*
X166295100Y-74333535D01*
X166777400Y-75095525D01*
X166145900Y-75773425D01*
X165403200Y-75309825D01*
X164995750Y-75457396D01*
X164394615Y-73904655D01*
X164842750Y-73476055D01*
X164961650Y-72853825D01*
X164681050Y-72312305D01*
X164188185Y-72046455D01*
X163761650Y-72053825D01*
X163302770Y-72312305D01*
X163061650Y-72753825D01*
X163061650Y-73153825D01*
X163261650Y-73553825D01*
X163661650Y-73953825D01*
X162961650Y-75453825D01*
X162580650Y-75309825D01*
X161892720Y-75781835D01*
X161209395Y-75091185D01*
X161688725Y-74333265D01*
X161383545Y-73638805D01*
X160505455Y-73437005D01*
X160505455Y-72555905D01*
X161404704Y-72349755D01*
X161708525Y-71628755D01*
X161215095Y-70842555D01*
X161892720Y-70210855D01*
X162637075Y-70721606D01*
X163339930Y-70438655D01*
X163551520Y-69509855D01*
X164443720Y-69509855D01*
X164643100Y-70433555D01*
D10*
X164394615Y-73904655D02*
X164390005Y-73907355D01*
X164681900Y-70481805D02*
X164643900Y-70438655D01*
X161892720Y-75781835D02*
X161897330Y-75778845D01*
X165347050Y-75307930D02*
X165403200Y-75309825D01*
X163612555Y-72103455D02*
X163795385Y-72046455D01*
X167440700Y-73482855D02*
X167445800Y-73481755D01*
X165342450Y-70724605D02*
X165285200Y-70728705D01*
X166142100Y-75776950D02*
X166145900Y-75773425D01*
X163341010Y-70433555D02*
X163339930Y-70438655D01*
X163593835Y-73907355D02*
X163589495Y-73904655D01*
X161708525Y-71628755D02*
X161711510Y-71633055D01*
X161399555Y-72350855D02*
X160543435Y-72510055D01*
X163282690Y-73669455D02*
X163140814Y-73476055D01*
X164443720Y-69509855D02*
X164432595Y-69509855D01*
X163467155Y-73822455D02*
X163416970Y-73790205D01*
X164966450Y-72952255D02*
X164966450Y-73001355D01*
X163017395Y-73063455D02*
X163017395Y-73001355D01*
X164993850Y-75452515D02*
X164995750Y-75457396D01*
X162637075Y-70721606D02*
X161897330Y-70214105D01*
X164188185Y-72046455D02*
X164371290Y-72103455D01*
X164946650Y-72804955D02*
X164966450Y-72952255D01*
X163017395Y-73001355D02*
X163017395Y-72952255D01*
X161209395Y-75091185D02*
X161206415Y-75095525D01*
X161892720Y-70210855D02*
X161841720Y-70215705D01*
X166557400Y-73677055D02*
X166600050Y-73639105D01*
X164371290Y-72103455D02*
X164536750Y-72193255D01*
X162698930Y-70728705D02*
X162641415Y-70724605D01*
X163017395Y-72952255D02*
X163037190Y-72804955D01*
X161448110Y-72312055D02*
X161404704Y-72349755D01*
X167478650Y-73437005D02*
X167478650Y-72555905D01*
X167445800Y-73481755D02*
X167478650Y-73448105D01*
X165407550Y-75312810D02*
X166086800Y-75778845D01*
X164889700Y-72621856D02*
X164946650Y-72804955D01*
X163607670Y-73960270D02*
X163609564Y-73955390D01*
X166584550Y-72350855D02*
X166579150Y-72349755D01*
X165042950Y-75470415D02*
X165342450Y-75310640D01*
X160505455Y-73448405D02*
X160538010Y-73481755D01*
X166272599Y-71633055D02*
X166275600Y-71628755D01*
X161211295Y-75146525D02*
X161215095Y-75150325D01*
X161206415Y-70897155D02*
X161209665Y-70901755D01*
X163514620Y-73858555D02*
X163511100Y-73856355D01*
X166091099Y-75781835D02*
X166142100Y-75776950D01*
X164995750Y-75457396D02*
X165038050Y-75472860D01*
X166086800Y-70214105D02*
X165347050Y-70721606D01*
X161428040Y-73681955D02*
X161688725Y-74333265D01*
X164687049Y-70483455D02*
X164681900Y-70481805D01*
X165038050Y-75472860D02*
X165042950Y-75470415D01*
X161383545Y-73638805D02*
X161426405Y-73676805D01*
X161841720Y-75776950D02*
X161892720Y-75781835D01*
X162580650Y-75309825D02*
X162636805Y-75307930D01*
X161209665Y-70901755D02*
X161708525Y-71628755D01*
X164799900Y-72456355D02*
X164889700Y-72621856D01*
X166774450Y-70901755D02*
X166777400Y-70897155D01*
X161838190Y-75773425D02*
X161841720Y-75776950D01*
X164390005Y-73907355D02*
X164374275Y-73955390D01*
X161378395Y-73638005D02*
X161383545Y-73638805D01*
X166145900Y-75773425D02*
X166769000Y-75150325D01*
X163992055Y-72026955D02*
X164040885Y-72026955D01*
X164376440Y-73960270D02*
X164993850Y-75452515D01*
X166600050Y-73639105D02*
X166605450Y-73638255D01*
X166772850Y-75146525D02*
X166777400Y-75095525D01*
X164040885Y-72026955D02*
X164188185Y-72046455D01*
X161215095Y-70842555D02*
X161211295Y-70846105D01*
X160505455Y-72555905D02*
X160505455Y-73437005D01*
X166605450Y-73638255D02*
X167440700Y-73482855D01*
X164566600Y-73790455D02*
X164516700Y-73822455D01*
X164478440Y-69547855D02*
X164477350Y-69542405D01*
X166275600Y-71628755D02*
X166774450Y-70901755D01*
X161838190Y-70219505D02*
X161215095Y-70842555D01*
X162576310Y-75312810D02*
X162580650Y-75309825D01*
X167440950Y-72510055D02*
X166584550Y-72350855D01*
X164516700Y-73822455D02*
X164512900Y-73825705D01*
X164477350Y-69542405D02*
X164443720Y-69509855D01*
X160505455Y-72544505D02*
X160505455Y-72555905D01*
X164536750Y-72193255D02*
X164681050Y-72312305D01*
X160538010Y-73481755D02*
X160543435Y-73482855D01*
X166769000Y-75150325D02*
X166772850Y-75146525D01*
X164681050Y-72312305D02*
X164799900Y-72456355D01*
X166533800Y-72307156D02*
X166271500Y-71694905D01*
X163540120Y-69509855D02*
X163506760Y-69542405D01*
X164512900Y-73825705D02*
X164472740Y-73856355D01*
X161712595Y-71694905D02*
X161450010Y-72307156D01*
X161683845Y-74399730D02*
X161209395Y-75091185D01*
X165342450Y-75310640D02*
X165347050Y-75307930D01*
X166269049Y-71690055D02*
X166272599Y-71633055D01*
X161711510Y-71633055D02*
X161715040Y-71690055D01*
X167478650Y-73448105D02*
X167478650Y-73437005D01*
X167478650Y-72555905D02*
X167478650Y-72544255D01*
X165403200Y-75309825D02*
X165407550Y-75312810D01*
X161215095Y-75150325D02*
X161838190Y-75773425D01*
X167446100Y-72510905D02*
X167440950Y-72510055D01*
X165285200Y-70728705D02*
X165280550Y-70726505D01*
X162703810Y-70726505D02*
X162698930Y-70728705D01*
X163470680Y-73825705D02*
X163467155Y-73822455D01*
X162641415Y-75310640D02*
X162940895Y-75470415D01*
X160543435Y-72510055D02*
X160538010Y-72510905D01*
X164700900Y-73669455D02*
X164566600Y-73790455D01*
X166555800Y-73682205D02*
X166557400Y-73677055D01*
X163049670Y-73250655D02*
X163017395Y-73063455D01*
X166300000Y-74400000D02*
X166297000Y-74395390D01*
X164842750Y-73476055D02*
X164700900Y-73669455D01*
X161841720Y-70215705D02*
X161838190Y-70219505D01*
X166271500Y-71694905D02*
X166269049Y-71690055D01*
X164966450Y-73063455D02*
X164934150Y-73250655D01*
X161211295Y-70846105D02*
X161206415Y-70897155D01*
X161206415Y-75095525D02*
X161211295Y-75146525D01*
X163302225Y-70481805D02*
X163297334Y-70483455D01*
X163505940Y-69547855D02*
X163341010Y-70433555D01*
X164643100Y-70433555D02*
X164478440Y-69547855D01*
X161715040Y-71690055D02*
X161712595Y-71694905D01*
X166769000Y-70842555D02*
X166145900Y-70219505D01*
X163942685Y-72026955D02*
X163992055Y-72026955D01*
X161897330Y-75778845D02*
X162576310Y-75312810D01*
X163183680Y-72456355D02*
X163302770Y-72312305D01*
X150124477Y-97279067D02*
X150124477Y-96079067D01*
X150386381Y-96079067D01*
X150543524Y-96136210D01*
X150648286Y-96250495D01*
X150700667Y-96364781D01*
X150753048Y-96593352D01*
X150753048Y-96764781D01*
X150700667Y-96993352D01*
X150648286Y-97107638D01*
X150543524Y-97221924D01*
X150386381Y-97279067D01*
X150124477Y-97279067D01*
X151853048Y-97164781D02*
X151800667Y-97221924D01*
X151643524Y-97279067D01*
X151538762Y-97279067D01*
X151381620Y-97221924D01*
X151276858Y-97107638D01*
X151224477Y-96993352D01*
X151172096Y-96764781D01*
X151172096Y-96593352D01*
X151224477Y-96364781D01*
X151276858Y-96250495D01*
X151381620Y-96136210D01*
X151538762Y-96079067D01*
X151643524Y-96079067D01*
X151800667Y-96136210D01*
X151853048Y-96193352D01*
X153162572Y-97279067D02*
X153162572Y-96079067D01*
X153686381Y-97279067D02*
X153686381Y-96079067D01*
X154314953Y-97279067D01*
X154314953Y-96079067D01*
X154838762Y-97164781D02*
X154891143Y-97221924D01*
X154838762Y-97279067D01*
X154786381Y-97221924D01*
X154838762Y-97164781D01*
X154838762Y-97279067D01*
X154838762Y-96536210D02*
X154891143Y-96593352D01*
X154838762Y-96650495D01*
X154786381Y-96593352D01*
X154838762Y-96536210D01*
X154838762Y-96650495D01*
X149757810Y-97672210D02*
X150805429Y-97672210D01*
X149914953Y-98011067D02*
X150648286Y-98011067D01*
X150176858Y-99211067D01*
X150805429Y-97672210D02*
X152167334Y-97672210D01*
X151067334Y-98753924D02*
X151905429Y-98753924D01*
X152167334Y-97672210D02*
X153214953Y-97672210D01*
X152376858Y-98125352D02*
X152429239Y-98068210D01*
X152534000Y-98011067D01*
X152795905Y-98011067D01*
X152900667Y-98068210D01*
X152953048Y-98125352D01*
X153005429Y-98239638D01*
X153005429Y-98353924D01*
X152953048Y-98525352D01*
X152324477Y-99211067D01*
X153005429Y-99211067D01*
X153214953Y-97672210D02*
X154262572Y-97672210D01*
X153372096Y-98011067D02*
X154105429Y-98011067D01*
X153634000Y-99211067D01*
X154262572Y-97672210D02*
X155205429Y-97672210D01*
X154367334Y-98011067D02*
X154734000Y-99211067D01*
X155100667Y-98011067D01*
D12*
X168307142Y-74026190D02*
X168478571Y-74088095D01*
X168764285Y-74088095D01*
X168878571Y-74026190D01*
X168935714Y-73964285D01*
X168992857Y-73840476D01*
X168992857Y-73716666D01*
X168935714Y-73592857D01*
X168878571Y-73530952D01*
X168764285Y-73469047D01*
X168535714Y-73407142D01*
X168421428Y-73345238D01*
X168364285Y-73283333D01*
X168307142Y-73159523D01*
X168307142Y-73035714D01*
X168364285Y-72911904D01*
X168421428Y-72850000D01*
X168535714Y-72788095D01*
X168821428Y-72788095D01*
X168992857Y-72850000D01*
X169735714Y-72788095D02*
X169964285Y-72788095D01*
X170078571Y-72850000D01*
X170192857Y-72973809D01*
X170250000Y-73221428D01*
X170250000Y-73654761D01*
X170192857Y-73902380D01*
X170078571Y-74026190D01*
X169964285Y-74088095D01*
X169735714Y-74088095D01*
X169621428Y-74026190D01*
X169507142Y-73902380D01*
X169450000Y-73654761D01*
X169450000Y-73221428D01*
X169507142Y-72973809D01*
X169621428Y-72850000D01*
X169735714Y-72788095D01*
X170764285Y-72788095D02*
X170764285Y-73840476D01*
X170821428Y-73964285D01*
X170878571Y-74026190D01*
X170992857Y-74088095D01*
X171221428Y-74088095D01*
X171335714Y-74026190D01*
X171392857Y-73964285D01*
X171450000Y-73840476D01*
X171450000Y-72788095D01*
X172707142Y-74088095D02*
X172307142Y-73469047D01*
X172021428Y-74088095D02*
X172021428Y-72788095D01*
X172478571Y-72788095D01*
X172592857Y-72850000D01*
X172650000Y-72911904D01*
X172707142Y-73035714D01*
X172707142Y-73221428D01*
X172650000Y-73345238D01*
X172592857Y-73407142D01*
X172478571Y-73469047D01*
X172021428Y-73469047D01*
X173907142Y-73964285D02*
X173850000Y-74026190D01*
X173678571Y-74088095D01*
X173564285Y-74088095D01*
X173392857Y-74026190D01*
X173278571Y-73902380D01*
X173221428Y-73778571D01*
X173164285Y-73530952D01*
X173164285Y-73345238D01*
X173221428Y-73097619D01*
X173278571Y-72973809D01*
X173392857Y-72850000D01*
X173564285Y-72788095D01*
X173678571Y-72788095D01*
X173850000Y-72850000D01*
X173907142Y-72911904D01*
X174421428Y-73407142D02*
X174821428Y-73407142D01*
X174992857Y-74088095D02*
X174421428Y-74088095D01*
X174421428Y-72788095D01*
X174992857Y-72788095D01*
D13*
X168216666Y-75697619D02*
X168216666Y-74597619D01*
X168216666Y-75121428D02*
X168759523Y-75121428D01*
X168759523Y-75697619D02*
X168759523Y-74597619D01*
X169166666Y-75383333D02*
X169619047Y-75383333D01*
X169076190Y-75697619D02*
X169392857Y-74597619D01*
X169709523Y-75697619D01*
X170569047Y-75697619D02*
X170252380Y-75173809D01*
X170026190Y-75697619D02*
X170026190Y-74597619D01*
X170388095Y-74597619D01*
X170478571Y-74650000D01*
X170523809Y-74702380D01*
X170569047Y-74807142D01*
X170569047Y-74964285D01*
X170523809Y-75069047D01*
X170478571Y-75121428D01*
X170388095Y-75173809D01*
X170026190Y-75173809D01*
X170976190Y-75697619D02*
X170976190Y-74597619D01*
X171202380Y-74597619D01*
X171338095Y-74650000D01*
X171428571Y-74754761D01*
X171473809Y-74859523D01*
X171519047Y-75069047D01*
X171519047Y-75226190D01*
X171473809Y-75435714D01*
X171428571Y-75540476D01*
X171338095Y-75645238D01*
X171202380Y-75697619D01*
X170976190Y-75697619D01*
X171835714Y-74597619D02*
X172061904Y-75697619D01*
X172242857Y-74911904D01*
X172423809Y-75697619D01*
X172650000Y-74597619D01*
X172966666Y-75383333D02*
X173419047Y-75383333D01*
X172876190Y-75697619D02*
X173192857Y-74597619D01*
X173509523Y-75697619D01*
X174369047Y-75697619D02*
X174052380Y-75173809D01*
X173826190Y-75697619D02*
X173826190Y-74597619D01*
X174188095Y-74597619D01*
X174278571Y-74650000D01*
X174323809Y-74702380D01*
X174369047Y-74807142D01*
X174369047Y-74964285D01*
X174323809Y-75069047D01*
X174278571Y-75121428D01*
X174188095Y-75173809D01*
X173826190Y-75173809D01*
X174776190Y-75121428D02*
X175092857Y-75121428D01*
X175228571Y-75697619D02*
X174776190Y-75697619D01*
X174776190Y-74597619D01*
X175228571Y-74597619D01*
D14*
X119342542Y-94919885D02*
X119342542Y-98119885D01*
X120771114Y-96596076D02*
X120913971Y-96900838D01*
X121199685Y-97053219D01*
X119342542Y-96596076D02*
X119485400Y-96900838D01*
X119771114Y-97053219D01*
X120342542Y-97053219D01*
X120628257Y-96900838D01*
X120771114Y-96596076D01*
X120771114Y-94919885D01*
X122056828Y-93853219D02*
X123056828Y-97053219D01*
X124056828Y-93853219D01*
X125628257Y-93853219D02*
X126199685Y-93853219D01*
X126485400Y-94005600D01*
X126771114Y-94310361D01*
X126913971Y-94919885D01*
X126913971Y-95986552D01*
X126771114Y-96596076D01*
X126485400Y-96900838D01*
X126199685Y-97053219D01*
X125628257Y-97053219D01*
X125342542Y-96900838D01*
X125056828Y-96596076D01*
X124913971Y-95986552D01*
X124913971Y-94919885D01*
X125056828Y-94310361D01*
X125342542Y-94005600D01*
X125628257Y-93853219D01*
X127913971Y-93853219D02*
X129913971Y-97053219D01*
X129913971Y-93853219D02*
X127913971Y-97053219D01*
D15*
X168671428Y-70204761D02*
X169014285Y-70204761D01*
X169185714Y-70300000D01*
X169357142Y-70490476D01*
X169442857Y-70871428D01*
X169442857Y-71538095D01*
X169357142Y-71919047D01*
X169185714Y-72109523D01*
X169014285Y-72204761D01*
X168671428Y-72204761D01*
X168500000Y-72109523D01*
X168328571Y-71919047D01*
X168242857Y-71538095D01*
X168242857Y-70871428D01*
X168328571Y-70490476D01*
X168500000Y-70300000D01*
X168671428Y-70204761D01*
X170214285Y-72204761D02*
X170214285Y-70204761D01*
X170900000Y-70204761D01*
X171071428Y-70300000D01*
X171157142Y-70395238D01*
X171242857Y-70585714D01*
X171242857Y-70871428D01*
X171157142Y-71061904D01*
X171071428Y-71157142D01*
X170900000Y-71252380D01*
X170214285Y-71252380D01*
X172014285Y-71157142D02*
X172614285Y-71157142D01*
X172871428Y-72204761D02*
X172014285Y-72204761D01*
X172014285Y-70204761D01*
X172871428Y-70204761D01*
X173642857Y-72204761D02*
X173642857Y-70204761D01*
X174671428Y-72204761D01*
X174671428Y-70204761D01*
D16*
X135683720Y-85427210D03*
X135683720Y-85927210D03*
X135683720Y-86427210D03*
X135683720Y-86927210D03*
X135683720Y-87427210D03*
X135683720Y-87927210D03*
X135683720Y-88427210D03*
X135683720Y-88927210D03*
X135683720Y-89427210D03*
X135683720Y-89927210D03*
X135683720Y-90427210D03*
X135683720Y-90927210D03*
D17*
X136371220Y-91614710D03*
X136871220Y-91614710D03*
X137371220Y-91614710D03*
X137871220Y-91614710D03*
X138371220Y-91614710D03*
X138871220Y-91614710D03*
X139371220Y-91614710D03*
X139871220Y-91614710D03*
X140371220Y-91614710D03*
X140871220Y-91614710D03*
X141371220Y-91614710D03*
X141871220Y-91614710D03*
D16*
X142558720Y-90927210D03*
X142558720Y-90427210D03*
X142558720Y-89927210D03*
X142558720Y-89427210D03*
X142558720Y-88927210D03*
X142558720Y-88427210D03*
X142558720Y-87927210D03*
X142558720Y-87427210D03*
X142558720Y-86927210D03*
X142558720Y-86427210D03*
X142558720Y-85927210D03*
X142558720Y-85427210D03*
D17*
X141871220Y-84739710D03*
X141371220Y-84739710D03*
X140871220Y-84739710D03*
X140371220Y-84739710D03*
X139871220Y-84739710D03*
X139371220Y-84739710D03*
X138871220Y-84739710D03*
X138371220Y-84739710D03*
X137871220Y-84739710D03*
X137371220Y-84739710D03*
X136871220Y-84739710D03*
X136371220Y-84739710D03*
D18*
X139121220Y-88177210D03*
D19*
X190521620Y-83790510D03*
X190021620Y-83790510D03*
X189521620Y-83790510D03*
X189021620Y-83790510D03*
X188521620Y-83790510D03*
X188021620Y-83790510D03*
X187521620Y-83790510D03*
X187021620Y-83790510D03*
X186521620Y-83790510D03*
X186021620Y-83790510D03*
X185521620Y-83790510D03*
X185021620Y-83790510D03*
X184521620Y-83790510D03*
X184021620Y-83790510D03*
X183521620Y-83790510D03*
X183021620Y-83790510D03*
D20*
X182334120Y-84478010D03*
X182334120Y-84978010D03*
X182334120Y-85478010D03*
X182334120Y-85978010D03*
X182334120Y-86478010D03*
X182334120Y-86978010D03*
X182334120Y-87478010D03*
X182334120Y-87978010D03*
X182334120Y-88478010D03*
X182334120Y-88978010D03*
X182334120Y-89478010D03*
X182334120Y-89978010D03*
X182334120Y-90478010D03*
X182334120Y-90978010D03*
X182334120Y-91478010D03*
X182334120Y-91978010D03*
D19*
X183021620Y-92665510D03*
X183521620Y-92665510D03*
X184021620Y-92665510D03*
X184521620Y-92665510D03*
X185021620Y-92665510D03*
X185521620Y-92665510D03*
X186021620Y-92665510D03*
X186521620Y-92665510D03*
X187021620Y-92665510D03*
X187521620Y-92665510D03*
X188021620Y-92665510D03*
X188521620Y-92665510D03*
X189021620Y-92665510D03*
X189521620Y-92665510D03*
X190021620Y-92665510D03*
X190521620Y-92665510D03*
D20*
X191209120Y-91978010D03*
X191209120Y-91478010D03*
X191209120Y-90978010D03*
X191209120Y-90478010D03*
X191209120Y-89978010D03*
X191209120Y-89478010D03*
X191209120Y-88978010D03*
X191209120Y-88478010D03*
X191209120Y-87978010D03*
X191209120Y-87478010D03*
X191209120Y-86978010D03*
X191209120Y-86478010D03*
X191209120Y-85978010D03*
X191209120Y-85478010D03*
X191209120Y-84978010D03*
X191209120Y-84478010D03*
D21*
X186771620Y-88228010D03*
D22*
X129057400Y-85928200D03*
X129057400Y-86888200D03*
D23*
X144023420Y-94221410D03*
X144023420Y-92671410D03*
D24*
X140719000Y-67967500D03*
X140719000Y-69867500D03*
D25*
X131899720Y-81141410D03*
X133799720Y-81141410D03*
D24*
X134569000Y-67950600D03*
X134569000Y-69850600D03*
D26*
X188181620Y-65063210D03*
X186631620Y-65063210D03*
D27*
X186606120Y-71286210D03*
X188156120Y-71286210D03*
D28*
X187279620Y-78969410D03*
X187279620Y-80519410D03*
D25*
X183586420Y-77255210D03*
X185486420Y-77255210D03*
X189072820Y-79236410D03*
X190972820Y-79236410D03*
X183586420Y-81166810D03*
X185486420Y-81166810D03*
X189075120Y-81192210D03*
X190975120Y-81192210D03*
D29*
X185484120Y-79211010D03*
X183584120Y-79211010D03*
D23*
X179812020Y-82449810D03*
X179812020Y-80899810D03*
X194772620Y-83186310D03*
X194772620Y-81636310D03*
X193248620Y-83186310D03*
X193248620Y-81636310D03*
X179812020Y-85497810D03*
X179812020Y-83947810D03*
D30*
X196525220Y-83155910D03*
X196525220Y-81255910D03*
D27*
X195242320Y-84697410D03*
X196792320Y-84697410D03*
X195242320Y-86323010D03*
X196792320Y-86323010D03*
D26*
X196792220Y-87847010D03*
X195242220Y-87847010D03*
D27*
X195242220Y-89371010D03*
X196792220Y-89371010D03*
X156837320Y-91606210D03*
X158387320Y-91606210D03*
D24*
X196550620Y-90887110D03*
X196550620Y-92787110D03*
D23*
X194772620Y-92813010D03*
X194772620Y-91263010D03*
D26*
X196284220Y-94298610D03*
X194734220Y-94298610D03*
D29*
X190970520Y-95238410D03*
X189070520Y-95238410D03*
X185486420Y-97219610D03*
X183586420Y-97219610D03*
X190970520Y-97194210D03*
X189070520Y-97194210D03*
X185486420Y-95263810D03*
X183586420Y-95263810D03*
X185486420Y-99175410D03*
X183586420Y-99175410D03*
D28*
X187279620Y-95885710D03*
X187279620Y-97435710D03*
D26*
X187825920Y-111977010D03*
X186275920Y-111977010D03*
X187825920Y-105804810D03*
X186275920Y-105804810D03*
D28*
X158600000Y-110821010D03*
X158600000Y-112371010D03*
X158650000Y-101956510D03*
X158650000Y-103506510D03*
X173392395Y-100350000D03*
X173392395Y-101900000D03*
D30*
X173642395Y-105300000D03*
X173642395Y-103400000D03*
D31*
X177499100Y-66964600D03*
X179074100Y-66964600D03*
D32*
X185144220Y-66993610D03*
X188094220Y-66993610D03*
X185118820Y-69355810D03*
X188068820Y-69355810D03*
X184788620Y-110046610D03*
X187738620Y-110046610D03*
X184788620Y-107735210D03*
X187738620Y-107735210D03*
D33*
X151791620Y-111802010D03*
D34*
X151791620Y-102802010D03*
D35*
X151791620Y-108802010D03*
D36*
X147291620Y-109802010D03*
X156291620Y-109802010D03*
D37*
X193629620Y-65702010D03*
X193629620Y-70702010D03*
X193629620Y-111342010D03*
X193629620Y-106342010D03*
D38*
X127124600Y-85928200D03*
X128094600Y-85928200D03*
D39*
X153583620Y-88228010D03*
X157983620Y-88228010D03*
D40*
X161371620Y-109310010D03*
X161371620Y-102807610D03*
X164371620Y-109310010D03*
X164371620Y-102807610D03*
D41*
X167848620Y-108583010D03*
X169118620Y-108583010D03*
X170388620Y-108583010D03*
X171658620Y-108583010D03*
X171658620Y-103433010D03*
X170388620Y-103433010D03*
X169118620Y-103433010D03*
X167848620Y-103433010D03*
D42*
X175350000Y-63500000D03*
X175350000Y-65400000D03*
X177750000Y-64450000D03*
D43*
X135250000Y-81000000D03*
X136900000Y-81000000D03*
X179723520Y-77864810D03*
X181373520Y-77864810D03*
X179723620Y-79388810D03*
X181373620Y-79388810D03*
X170475000Y-110514010D03*
X172125000Y-110514010D03*
D44*
X169150000Y-110500000D03*
X167500000Y-110500000D03*
X175823600Y-67015400D03*
X174173600Y-67015400D03*
D45*
X173816200Y-65376600D03*
X173816200Y-63726600D03*
X179404200Y-65376600D03*
X179404200Y-63726600D03*
D46*
X131458000Y-69088000D03*
X131458000Y-72788000D03*
X125458000Y-69088000D03*
X125458000Y-72788000D03*
D47*
X138787500Y-69850000D03*
X138787500Y-68900000D03*
X138787500Y-67950000D03*
X136512500Y-67950000D03*
X136512500Y-69850000D03*
D26*
X136850000Y-82500000D03*
X135300000Y-82500000D03*
D27*
X132275620Y-82894010D03*
X133825620Y-82894010D03*
D26*
X148684620Y-75782010D03*
X147134620Y-75782010D03*
D28*
X141400000Y-72225000D03*
X141400000Y-73775000D03*
D26*
X148684620Y-81878010D03*
X147134620Y-81878010D03*
D48*
X155529620Y-66822610D03*
X155529620Y-70422610D03*
D49*
X154615220Y-82891610D03*
X154615220Y-76391610D03*
D50*
X167923620Y-93054010D03*
X161423620Y-93054010D03*
X167923620Y-83910010D03*
X161423620Y-83910010D03*
D49*
X174579620Y-96760010D03*
X174579620Y-90260010D03*
D51*
X174579620Y-79592010D03*
X174579620Y-86092010D03*
D52*
X153879620Y-73165810D03*
X157179620Y-73165810D03*
D53*
X147655620Y-72906010D03*
X147655620Y-64606010D03*
D44*
X144518220Y-76823410D03*
X142868220Y-76823410D03*
D43*
X142868220Y-75299410D03*
X144518220Y-75299410D03*
D54*
X146772120Y-77880010D03*
X146772120Y-78830010D03*
X146772120Y-79780010D03*
X149047120Y-79780010D03*
X149047120Y-78830010D03*
X149047120Y-77880010D03*
D55*
X130129620Y-64860010D03*
D56*
X132669620Y-64860010D03*
X135209620Y-64860010D03*
X137749620Y-64860010D03*
X140289620Y-64860010D03*
D29*
X169500000Y-112263990D03*
X167600000Y-112263990D03*
D27*
X156888220Y-84849810D03*
X158438220Y-84849810D03*
D57*
X132574200Y-85928200D03*
D58*
X131049200Y-87403200D03*
X131049200Y-84453200D03*
D59*
X136281620Y-110027810D03*
X137281620Y-110027810D03*
X138281620Y-110027810D03*
X139281620Y-110027810D03*
X140281620Y-110027810D03*
X141281620Y-110027810D03*
X142281620Y-110027810D03*
X143281620Y-110027810D03*
D60*
X144581620Y-113902810D03*
X134981620Y-113902810D03*
D61*
X144201220Y-101232810D03*
D62*
X144201220Y-103232810D03*
X144201220Y-105232810D03*
X144201220Y-107232810D03*
D61*
X135387420Y-99200810D03*
D62*
X135387420Y-101200810D03*
X135387420Y-103200810D03*
X135387420Y-105200810D03*
X135387420Y-107200810D03*
D26*
X117221600Y-100431600D03*
X115671600Y-100431600D03*
X125946200Y-100431600D03*
X124396200Y-100431600D03*
D43*
X134200000Y-72900000D03*
X135850000Y-72900000D03*
D63*
X149850000Y-106000000D03*
D64*
X153810000Y-106000000D03*
D65*
X123500000Y-65500000D03*
D66*
X138800000Y-71400000D03*
X137225000Y-71400000D03*
D67*
X115977600Y-102489200D03*
X115977600Y-105689200D03*
X120877600Y-105689200D03*
X120877600Y-102489200D03*
D68*
X119732000Y-112084000D03*
X122732000Y-112084000D03*
D69*
X125732000Y-112084000D03*
D70*
X128932000Y-112084000D03*
X116432000Y-112084000D03*
D22*
X126212600Y-85928200D03*
X126212600Y-86888200D03*
D43*
X134225000Y-71400000D03*
X135875000Y-71400000D03*
D30*
X132842000Y-111389200D03*
X132842000Y-109489200D03*
D65*
X169400000Y-65500000D03*
D67*
X124702400Y-102489200D03*
X124702400Y-105689200D03*
X129602400Y-105689200D03*
X129602400Y-102489200D03*
D65*
X177550000Y-109600000D03*
D71*
X114985800Y-82306000D03*
X114985800Y-77206000D03*
M02*
