M48
; DRILL file {KiCad (6.0.1-0)} date Tuesday, 08 February 2022 at 22:38:31
; FORMAT={-:-/ absolute / inch / decimal}
; #@! TF.CreationDate,2022-02-08T22:38:31+01:00
; #@! TF.GenerationSoftware,Kicad,Pcbnew,(6.0.1-0)
; #@! TF.FileFunction,Plated,1,2,PTH
FMAT,2
INCH
; #@! TA.AperFunction,Plated,PTH,ViaDrill
T1C0.0157
; #@! TA.AperFunction,Plated,PTH,ComponentDrill
T2C0.1654
%
G90
G05
T1
X1.75Y-2.7323
X1.942Y-2.789
X1.949Y-2.617
X1.954Y-2.96
X1.9686Y-3.019
X2.002Y-3.108
X2.0492Y-2.8996
X3.5354Y-2.7417
X3.7559Y-2.7717
X3.7756Y-2.6122
X3.7815Y-2.8504
X3.9016Y-2.689
X3.9075Y-2.7382
X3.9094Y-2.7835
X3.9114Y-2.8268
X3.9291Y-2.6535
X3.9784Y-2.8465
X3.9961Y-2.8858
T2
X1.8015Y-2.3346
X1.8015Y-3.1665
X3.9154Y-2.3346
X3.9154Y-3.1665
T0
M30
