G04 #@! TF.GenerationSoftware,KiCad,Pcbnew,(6.0.1-0)*
G04 #@! TF.CreationDate,2022-02-08T22:38:28+01:00*
G04 #@! TF.ProjectId,U:I WS,553a4920-5753-42e6-9b69-6361645f7063,rev?*
G04 #@! TF.SameCoordinates,Original*
G04 #@! TF.FileFunction,Legend,Top*
G04 #@! TF.FilePolarity,Positive*
%FSLAX46Y46*%
G04 Gerber Fmt 4.6, Leading zero omitted, Abs format (unit mm)*
G04 Created by KiCad (PCBNEW (6.0.1-0)) date 2022-02-08 22:38:28*
%MOMM*%
%LPD*%
G01*
G04 APERTURE LIST*
%ADD10C,0.100000*%
%ADD11C,0.150000*%
%ADD12C,0.120000*%
G04 APERTURE END LIST*
D10*
X56354166Y-69350000D02*
X55654166Y-69350000D01*
X55654166Y-69183333D01*
X55687500Y-69083333D01*
X55754166Y-69016666D01*
X55820833Y-68983333D01*
X55954166Y-68950000D01*
X56054166Y-68950000D01*
X56187500Y-68983333D01*
X56254166Y-69016666D01*
X56320833Y-69083333D01*
X56354166Y-69183333D01*
X56354166Y-69350000D01*
X56354166Y-68283333D02*
X56354166Y-68683333D01*
X56354166Y-68483333D02*
X55654166Y-68483333D01*
X55754166Y-68550000D01*
X55820833Y-68616666D01*
X55854166Y-68683333D01*
X55720833Y-68016666D02*
X55687500Y-67983333D01*
X55654166Y-67916666D01*
X55654166Y-67750000D01*
X55687500Y-67683333D01*
X55720833Y-67650000D01*
X55787500Y-67616666D01*
X55854166Y-67616666D01*
X55954166Y-67650000D01*
X56354166Y-68050000D01*
X56354166Y-67616666D01*
X59137500Y-67066666D02*
X59137500Y-66366666D01*
X59304166Y-66366666D01*
X59404166Y-66400000D01*
X59470833Y-66466666D01*
X59504166Y-66533333D01*
X59537500Y-66666666D01*
X59537500Y-66766666D01*
X59504166Y-66900000D01*
X59470833Y-66966666D01*
X59404166Y-67033333D01*
X59304166Y-67066666D01*
X59137500Y-67066666D01*
X60204166Y-67066666D02*
X59804166Y-67066666D01*
X60004166Y-67066666D02*
X60004166Y-66366666D01*
X59937500Y-66466666D01*
X59870833Y-66533333D01*
X59804166Y-66566666D01*
X60470833Y-66433333D02*
X60504166Y-66400000D01*
X60570833Y-66366666D01*
X60737500Y-66366666D01*
X60804166Y-66400000D01*
X60837500Y-66433333D01*
X60870833Y-66500000D01*
X60870833Y-66566666D01*
X60837500Y-66666666D01*
X60437500Y-67066666D01*
X60870833Y-67066666D01*
D11*
X56123214Y-65602380D02*
X55551785Y-65602380D01*
X55837500Y-65602380D02*
X55837500Y-64602380D01*
X55742261Y-64745238D01*
X55647023Y-64840476D01*
X55551785Y-64888095D01*
D10*
X64754166Y-69366666D02*
X64054166Y-69366666D01*
X64054166Y-69200000D01*
X64087500Y-69100000D01*
X64154166Y-69033333D01*
X64220833Y-69000000D01*
X64354166Y-68966666D01*
X64454166Y-68966666D01*
X64587500Y-69000000D01*
X64654166Y-69033333D01*
X64720833Y-69100000D01*
X64754166Y-69200000D01*
X64754166Y-69366666D01*
X64754166Y-68633333D02*
X64754166Y-68500000D01*
X64720833Y-68433333D01*
X64687500Y-68400000D01*
X64587500Y-68333333D01*
X64454166Y-68300000D01*
X64187500Y-68300000D01*
X64120833Y-68333333D01*
X64087500Y-68366666D01*
X64054166Y-68433333D01*
X64054166Y-68566666D01*
X64087500Y-68633333D01*
X64120833Y-68666666D01*
X64187500Y-68700000D01*
X64354166Y-68700000D01*
X64420833Y-68666666D01*
X64454166Y-68633333D01*
X64487500Y-68566666D01*
X64487500Y-68433333D01*
X64454166Y-68366666D01*
X64420833Y-68333333D01*
X64354166Y-68300000D01*
D11*
X64473214Y-65602380D02*
X63901785Y-65602380D01*
X64187500Y-65602380D02*
X64187500Y-64602380D01*
X64092261Y-64745238D01*
X63997023Y-64840476D01*
X63901785Y-64888095D01*
D10*
X67820833Y-67066666D02*
X67820833Y-66366666D01*
X67987500Y-66366666D01*
X68087500Y-66400000D01*
X68154166Y-66466666D01*
X68187500Y-66533333D01*
X68220833Y-66666666D01*
X68220833Y-66766666D01*
X68187500Y-66900000D01*
X68154166Y-66966666D01*
X68087500Y-67033333D01*
X67987500Y-67066666D01*
X67820833Y-67066666D01*
X68554166Y-67066666D02*
X68687500Y-67066666D01*
X68754166Y-67033333D01*
X68787500Y-67000000D01*
X68854166Y-66900000D01*
X68887500Y-66766666D01*
X68887500Y-66500000D01*
X68854166Y-66433333D01*
X68820833Y-66400000D01*
X68754166Y-66366666D01*
X68620833Y-66366666D01*
X68554166Y-66400000D01*
X68520833Y-66433333D01*
X68487500Y-66500000D01*
X68487500Y-66666666D01*
X68520833Y-66733333D01*
X68554166Y-66766666D01*
X68620833Y-66800000D01*
X68754166Y-66800000D01*
X68820833Y-66766666D01*
X68854166Y-66733333D01*
X68887500Y-66666666D01*
X73104166Y-69316666D02*
X72404166Y-69316666D01*
X72404166Y-69150000D01*
X72437500Y-69050000D01*
X72504166Y-68983333D01*
X72570833Y-68950000D01*
X72704166Y-68916666D01*
X72804166Y-68916666D01*
X72937500Y-68950000D01*
X73004166Y-68983333D01*
X73070833Y-69050000D01*
X73104166Y-69150000D01*
X73104166Y-69316666D01*
X72404166Y-68316666D02*
X72404166Y-68450000D01*
X72437500Y-68516666D01*
X72470833Y-68550000D01*
X72570833Y-68616666D01*
X72704166Y-68650000D01*
X72970833Y-68650000D01*
X73037500Y-68616666D01*
X73070833Y-68583333D01*
X73104166Y-68516666D01*
X73104166Y-68383333D01*
X73070833Y-68316666D01*
X73037500Y-68283333D01*
X72970833Y-68250000D01*
X72804166Y-68250000D01*
X72737500Y-68283333D01*
X72704166Y-68316666D01*
X72670833Y-68383333D01*
X72670833Y-68516666D01*
X72704166Y-68583333D01*
X72737500Y-68616666D01*
X72804166Y-68650000D01*
X76220833Y-67066666D02*
X76220833Y-66366666D01*
X76387500Y-66366666D01*
X76487500Y-66400000D01*
X76554166Y-66466666D01*
X76587500Y-66533333D01*
X76620833Y-66666666D01*
X76620833Y-66766666D01*
X76587500Y-66900000D01*
X76554166Y-66966666D01*
X76487500Y-67033333D01*
X76387500Y-67066666D01*
X76220833Y-67066666D01*
X77220833Y-66366666D02*
X77087500Y-66366666D01*
X77020833Y-66400000D01*
X76987500Y-66433333D01*
X76920833Y-66533333D01*
X76887500Y-66666666D01*
X76887500Y-66933333D01*
X76920833Y-67000000D01*
X76954166Y-67033333D01*
X77020833Y-67066666D01*
X77154166Y-67066666D01*
X77220833Y-67033333D01*
X77254166Y-67000000D01*
X77287500Y-66933333D01*
X77287500Y-66766666D01*
X77254166Y-66700000D01*
X77220833Y-66666666D01*
X77154166Y-66633333D01*
X77020833Y-66633333D01*
X76954166Y-66666666D01*
X76920833Y-66700000D01*
X76887500Y-66766666D01*
D11*
X72873214Y-65602380D02*
X72301785Y-65602380D01*
X72587500Y-65602380D02*
X72587500Y-64602380D01*
X72492261Y-64745238D01*
X72397023Y-64840476D01*
X72301785Y-64888095D01*
D10*
X81354166Y-69316666D02*
X80654166Y-69316666D01*
X80654166Y-69150000D01*
X80687500Y-69050000D01*
X80754166Y-68983333D01*
X80820833Y-68950000D01*
X80954166Y-68916666D01*
X81054166Y-68916666D01*
X81187500Y-68950000D01*
X81254166Y-68983333D01*
X81320833Y-69050000D01*
X81354166Y-69150000D01*
X81354166Y-69316666D01*
X80654166Y-68683333D02*
X80654166Y-68250000D01*
X80920833Y-68483333D01*
X80920833Y-68383333D01*
X80954166Y-68316666D01*
X80987500Y-68283333D01*
X81054166Y-68250000D01*
X81220833Y-68250000D01*
X81287500Y-68283333D01*
X81320833Y-68316666D01*
X81354166Y-68383333D01*
X81354166Y-68583333D01*
X81320833Y-68650000D01*
X81287500Y-68683333D01*
D11*
X81123214Y-65602380D02*
X80551785Y-65602380D01*
X80837500Y-65602380D02*
X80837500Y-64602380D01*
X80742261Y-64745238D01*
X80647023Y-64840476D01*
X80551785Y-64888095D01*
D10*
X84736433Y-65466666D02*
X84736433Y-64766666D01*
X84903100Y-64766666D01*
X85003100Y-64800000D01*
X85069766Y-64866666D01*
X85103100Y-64933333D01*
X85136433Y-65066666D01*
X85136433Y-65166666D01*
X85103100Y-65300000D01*
X85069766Y-65366666D01*
X85003100Y-65433333D01*
X84903100Y-65466666D01*
X84736433Y-65466666D01*
X85369766Y-64766666D02*
X85803100Y-64766666D01*
X85569766Y-65033333D01*
X85669766Y-65033333D01*
X85736433Y-65066666D01*
X85769766Y-65100000D01*
X85803100Y-65166666D01*
X85803100Y-65333333D01*
X85769766Y-65400000D01*
X85736433Y-65433333D01*
X85669766Y-65466666D01*
X85469766Y-65466666D01*
X85403100Y-65433333D01*
X85369766Y-65400000D01*
X60287500Y-63216666D02*
X60320833Y-63250000D01*
X60354166Y-63350000D01*
X60354166Y-63416666D01*
X60320833Y-63516666D01*
X60254166Y-63583333D01*
X60187500Y-63616666D01*
X60054166Y-63650000D01*
X59954166Y-63650000D01*
X59820833Y-63616666D01*
X59754166Y-63583333D01*
X59687500Y-63516666D01*
X59654166Y-63416666D01*
X59654166Y-63350000D01*
X59687500Y-63250000D01*
X59720833Y-63216666D01*
X60354166Y-62550000D02*
X60354166Y-62950000D01*
X60354166Y-62750000D02*
X59654166Y-62750000D01*
X59754166Y-62816666D01*
X59820833Y-62883333D01*
X59854166Y-62950000D01*
X57870833Y-63350000D02*
X57837500Y-63383333D01*
X57737500Y-63416666D01*
X57670833Y-63416666D01*
X57570833Y-63383333D01*
X57504166Y-63316666D01*
X57470833Y-63250000D01*
X57437500Y-63116666D01*
X57437500Y-63016666D01*
X57470833Y-62883333D01*
X57504166Y-62816666D01*
X57570833Y-62750000D01*
X57670833Y-62716666D01*
X57737500Y-62716666D01*
X57837500Y-62750000D01*
X57870833Y-62783333D01*
X58537500Y-63416666D02*
X58137500Y-63416666D01*
X58337500Y-63416666D02*
X58337500Y-62716666D01*
X58270833Y-62816666D01*
X58204166Y-62883333D01*
X58137500Y-62916666D01*
X68612500Y-63316666D02*
X68645833Y-63350000D01*
X68679166Y-63450000D01*
X68679166Y-63516666D01*
X68645833Y-63616666D01*
X68579166Y-63683333D01*
X68512500Y-63716666D01*
X68379166Y-63750000D01*
X68279166Y-63750000D01*
X68145833Y-63716666D01*
X68079166Y-63683333D01*
X68012500Y-63616666D01*
X67979166Y-63516666D01*
X67979166Y-63450000D01*
X68012500Y-63350000D01*
X68045833Y-63316666D01*
X68045833Y-63050000D02*
X68012500Y-63016666D01*
X67979166Y-62950000D01*
X67979166Y-62783333D01*
X68012500Y-62716666D01*
X68045833Y-62683333D01*
X68112500Y-62650000D01*
X68179166Y-62650000D01*
X68279166Y-62683333D01*
X68679166Y-63083333D01*
X68679166Y-62650000D01*
X66233333Y-63400000D02*
X66200000Y-63433333D01*
X66100000Y-63466666D01*
X66033333Y-63466666D01*
X65933333Y-63433333D01*
X65866666Y-63366666D01*
X65833333Y-63300000D01*
X65800000Y-63166666D01*
X65800000Y-63066666D01*
X65833333Y-62933333D01*
X65866666Y-62866666D01*
X65933333Y-62800000D01*
X66033333Y-62766666D01*
X66100000Y-62766666D01*
X66200000Y-62800000D01*
X66233333Y-62833333D01*
X66500000Y-62833333D02*
X66533333Y-62800000D01*
X66600000Y-62766666D01*
X66766666Y-62766666D01*
X66833333Y-62800000D01*
X66866666Y-62833333D01*
X66900000Y-62900000D01*
X66900000Y-62966666D01*
X66866666Y-63066666D01*
X66466666Y-63466666D01*
X66900000Y-63466666D01*
X77087500Y-63316666D02*
X77120833Y-63350000D01*
X77154166Y-63450000D01*
X77154166Y-63516666D01*
X77120833Y-63616666D01*
X77054166Y-63683333D01*
X76987500Y-63716666D01*
X76854166Y-63750000D01*
X76754166Y-63750000D01*
X76620833Y-63716666D01*
X76554166Y-63683333D01*
X76487500Y-63616666D01*
X76454166Y-63516666D01*
X76454166Y-63450000D01*
X76487500Y-63350000D01*
X76520833Y-63316666D01*
X76454166Y-63083333D02*
X76454166Y-62650000D01*
X76720833Y-62883333D01*
X76720833Y-62783333D01*
X76754166Y-62716666D01*
X76787500Y-62683333D01*
X76854166Y-62650000D01*
X77020833Y-62650000D01*
X77087500Y-62683333D01*
X77120833Y-62716666D01*
X77154166Y-62783333D01*
X77154166Y-62983333D01*
X77120833Y-63050000D01*
X77087500Y-63083333D01*
X74633333Y-63400000D02*
X74600000Y-63433333D01*
X74500000Y-63466666D01*
X74433333Y-63466666D01*
X74333333Y-63433333D01*
X74266666Y-63366666D01*
X74233333Y-63300000D01*
X74200000Y-63166666D01*
X74200000Y-63066666D01*
X74233333Y-62933333D01*
X74266666Y-62866666D01*
X74333333Y-62800000D01*
X74433333Y-62766666D01*
X74500000Y-62766666D01*
X74600000Y-62800000D01*
X74633333Y-62833333D01*
X74866666Y-62766666D02*
X75300000Y-62766666D01*
X75066666Y-63033333D01*
X75166666Y-63033333D01*
X75233333Y-63066666D01*
X75266666Y-63100000D01*
X75300000Y-63166666D01*
X75300000Y-63333333D01*
X75266666Y-63400000D01*
X75233333Y-63433333D01*
X75166666Y-63466666D01*
X74966666Y-63466666D01*
X74900000Y-63433333D01*
X74866666Y-63400000D01*
X85250000Y-63266666D02*
X85283333Y-63300000D01*
X85316666Y-63400000D01*
X85316666Y-63466666D01*
X85283333Y-63566666D01*
X85216666Y-63633333D01*
X85150000Y-63666666D01*
X85016666Y-63700000D01*
X84916666Y-63700000D01*
X84783333Y-63666666D01*
X84716666Y-63633333D01*
X84650000Y-63566666D01*
X84616666Y-63466666D01*
X84616666Y-63400000D01*
X84650000Y-63300000D01*
X84683333Y-63266666D01*
X84850000Y-62666666D02*
X85316666Y-62666666D01*
X84583333Y-62833333D02*
X85083333Y-63000000D01*
X85083333Y-62566666D01*
X82883333Y-63400000D02*
X82850000Y-63433333D01*
X82750000Y-63466666D01*
X82683333Y-63466666D01*
X82583333Y-63433333D01*
X82516666Y-63366666D01*
X82483333Y-63300000D01*
X82450000Y-63166666D01*
X82450000Y-63066666D01*
X82483333Y-62933333D01*
X82516666Y-62866666D01*
X82583333Y-62800000D01*
X82683333Y-62766666D01*
X82750000Y-62766666D01*
X82850000Y-62800000D01*
X82883333Y-62833333D01*
X83483333Y-63000000D02*
X83483333Y-63466666D01*
X83316666Y-62733333D02*
X83150000Y-63233333D01*
X83583333Y-63233333D01*
X44563466Y-71793500D02*
X43863466Y-71793500D01*
X43863466Y-71626833D01*
X43896800Y-71526833D01*
X43963466Y-71460166D01*
X44030133Y-71426833D01*
X44163466Y-71393500D01*
X44263466Y-71393500D01*
X44396800Y-71426833D01*
X44463466Y-71460166D01*
X44530133Y-71526833D01*
X44563466Y-71626833D01*
X44563466Y-71793500D01*
X44563466Y-70726833D02*
X44563466Y-71126833D01*
X44563466Y-70926833D02*
X43863466Y-70926833D01*
X43963466Y-70993500D01*
X44030133Y-71060166D01*
X44063466Y-71126833D01*
X43863466Y-70493500D02*
X43863466Y-70060166D01*
X44130133Y-70293500D01*
X44130133Y-70193500D01*
X44163466Y-70126833D01*
X44196800Y-70093500D01*
X44263466Y-70060166D01*
X44430133Y-70060166D01*
X44496800Y-70093500D01*
X44530133Y-70126833D01*
X44563466Y-70193500D01*
X44563466Y-70393500D01*
X44530133Y-70460166D01*
X44496800Y-70493500D01*
X45858866Y-71819000D02*
X45158866Y-71819000D01*
X45158866Y-71652333D01*
X45192200Y-71552333D01*
X45258866Y-71485666D01*
X45325533Y-71452333D01*
X45458866Y-71419000D01*
X45558866Y-71419000D01*
X45692200Y-71452333D01*
X45758866Y-71485666D01*
X45825533Y-71552333D01*
X45858866Y-71652333D01*
X45858866Y-71819000D01*
X45858866Y-70752333D02*
X45858866Y-71152333D01*
X45858866Y-70952333D02*
X45158866Y-70952333D01*
X45258866Y-71019000D01*
X45325533Y-71085666D01*
X45358866Y-71152333D01*
X45158866Y-70519000D02*
X45158866Y-70085666D01*
X45425533Y-70319000D01*
X45425533Y-70219000D01*
X45458866Y-70152333D01*
X45492200Y-70119000D01*
X45558866Y-70085666D01*
X45725533Y-70085666D01*
X45792200Y-70119000D01*
X45825533Y-70152333D01*
X45858866Y-70219000D01*
X45858866Y-70419000D01*
X45825533Y-70485666D01*
X45792200Y-70519000D01*
X44563466Y-68669100D02*
X43863466Y-68669100D01*
X43863466Y-68502433D01*
X43896800Y-68402433D01*
X43963466Y-68335766D01*
X44030133Y-68302433D01*
X44163466Y-68269100D01*
X44263466Y-68269100D01*
X44396800Y-68302433D01*
X44463466Y-68335766D01*
X44530133Y-68402433D01*
X44563466Y-68502433D01*
X44563466Y-68669100D01*
X44563466Y-67602433D02*
X44563466Y-68002433D01*
X44563466Y-67802433D02*
X43863466Y-67802433D01*
X43963466Y-67869100D01*
X44030133Y-67935766D01*
X44063466Y-68002433D01*
X44096800Y-67002433D02*
X44563466Y-67002433D01*
X43830133Y-67169100D02*
X44330133Y-67335766D01*
X44330133Y-66902433D01*
X45858866Y-68593000D02*
X45158866Y-68593000D01*
X45158866Y-68426333D01*
X45192200Y-68326333D01*
X45258866Y-68259666D01*
X45325533Y-68226333D01*
X45458866Y-68193000D01*
X45558866Y-68193000D01*
X45692200Y-68226333D01*
X45758866Y-68259666D01*
X45825533Y-68326333D01*
X45858866Y-68426333D01*
X45858866Y-68593000D01*
X45858866Y-67526333D02*
X45858866Y-67926333D01*
X45858866Y-67726333D02*
X45158866Y-67726333D01*
X45258866Y-67793000D01*
X45325533Y-67859666D01*
X45358866Y-67926333D01*
X45392200Y-66926333D02*
X45858866Y-66926333D01*
X45125533Y-67093000D02*
X45625533Y-67259666D01*
X45625533Y-66826333D01*
X92783333Y-65716666D02*
X92550000Y-65383333D01*
X92383333Y-65716666D02*
X92383333Y-65016666D01*
X92650000Y-65016666D01*
X92716666Y-65050000D01*
X92750000Y-65083333D01*
X92783333Y-65150000D01*
X92783333Y-65250000D01*
X92750000Y-65316666D01*
X92716666Y-65350000D01*
X92650000Y-65383333D01*
X92383333Y-65383333D01*
X93450000Y-65716666D02*
X93050000Y-65716666D01*
X93250000Y-65716666D02*
X93250000Y-65016666D01*
X93183333Y-65116666D01*
X93116666Y-65183333D01*
X93050000Y-65216666D01*
X46948733Y-66651933D02*
X46882066Y-66618600D01*
X46815400Y-66551933D01*
X46715400Y-66451933D01*
X46648733Y-66418600D01*
X46582066Y-66418600D01*
X46615400Y-66585266D02*
X46548733Y-66551933D01*
X46482066Y-66485266D01*
X46448733Y-66351933D01*
X46448733Y-66118600D01*
X46482066Y-65985266D01*
X46548733Y-65918600D01*
X46615400Y-65885266D01*
X46748733Y-65885266D01*
X46815400Y-65918600D01*
X46882066Y-65985266D01*
X46915400Y-66118600D01*
X46915400Y-66351933D01*
X46882066Y-66485266D01*
X46815400Y-66551933D01*
X46748733Y-66585266D01*
X46615400Y-66585266D01*
X47515400Y-66118600D02*
X47515400Y-66585266D01*
X47348733Y-65851933D02*
X47182066Y-66351933D01*
X47615400Y-66351933D01*
X48495733Y-67779966D02*
X48462400Y-67846633D01*
X48395733Y-67913300D01*
X48295733Y-68013300D01*
X48262400Y-68079966D01*
X48262400Y-68146633D01*
X48429066Y-68113300D02*
X48395733Y-68179966D01*
X48329066Y-68246633D01*
X48195733Y-68279966D01*
X47962400Y-68279966D01*
X47829066Y-68246633D01*
X47762400Y-68179966D01*
X47729066Y-68113300D01*
X47729066Y-67979966D01*
X47762400Y-67913300D01*
X47829066Y-67846633D01*
X47962400Y-67813300D01*
X48195733Y-67813300D01*
X48329066Y-67846633D01*
X48395733Y-67913300D01*
X48429066Y-67979966D01*
X48429066Y-68113300D01*
X47962400Y-67213300D02*
X48429066Y-67213300D01*
X47695733Y-67379966D02*
X48195733Y-67546633D01*
X48195733Y-67113300D01*
X46948733Y-70563533D02*
X46882066Y-70530200D01*
X46815400Y-70463533D01*
X46715400Y-70363533D01*
X46648733Y-70330200D01*
X46582066Y-70330200D01*
X46615400Y-70496866D02*
X46548733Y-70463533D01*
X46482066Y-70396866D01*
X46448733Y-70263533D01*
X46448733Y-70030200D01*
X46482066Y-69896866D01*
X46548733Y-69830200D01*
X46615400Y-69796866D01*
X46748733Y-69796866D01*
X46815400Y-69830200D01*
X46882066Y-69896866D01*
X46915400Y-70030200D01*
X46915400Y-70263533D01*
X46882066Y-70396866D01*
X46815400Y-70463533D01*
X46748733Y-70496866D01*
X46615400Y-70496866D01*
X47148733Y-69796866D02*
X47582066Y-69796866D01*
X47348733Y-70063533D01*
X47448733Y-70063533D01*
X47515400Y-70096866D01*
X47548733Y-70130200D01*
X47582066Y-70196866D01*
X47582066Y-70363533D01*
X47548733Y-70430200D01*
X47515400Y-70463533D01*
X47448733Y-70496866D01*
X47248733Y-70496866D01*
X47182066Y-70463533D01*
X47148733Y-70430200D01*
X48490933Y-71642866D02*
X48457600Y-71709533D01*
X48390933Y-71776200D01*
X48290933Y-71876200D01*
X48257600Y-71942866D01*
X48257600Y-72009533D01*
X48424266Y-71976200D02*
X48390933Y-72042866D01*
X48324266Y-72109533D01*
X48190933Y-72142866D01*
X47957600Y-72142866D01*
X47824266Y-72109533D01*
X47757600Y-72042866D01*
X47724266Y-71976200D01*
X47724266Y-71842866D01*
X47757600Y-71776200D01*
X47824266Y-71709533D01*
X47957600Y-71676200D01*
X48190933Y-71676200D01*
X48324266Y-71709533D01*
X48390933Y-71776200D01*
X48424266Y-71842866D01*
X48424266Y-71976200D01*
X47724266Y-71442866D02*
X47724266Y-71009533D01*
X47990933Y-71242866D01*
X47990933Y-71142866D01*
X48024266Y-71076200D01*
X48057600Y-71042866D01*
X48124266Y-71009533D01*
X48290933Y-71009533D01*
X48357600Y-71042866D01*
X48390933Y-71076200D01*
X48424266Y-71142866D01*
X48424266Y-71342866D01*
X48390933Y-71409533D01*
X48357600Y-71442866D01*
X47593600Y-75933766D02*
X47360266Y-75600433D01*
X47193600Y-75933766D02*
X47193600Y-75233766D01*
X47460266Y-75233766D01*
X47526933Y-75267100D01*
X47560266Y-75300433D01*
X47593600Y-75367100D01*
X47593600Y-75467100D01*
X47560266Y-75533766D01*
X47526933Y-75567100D01*
X47460266Y-75600433D01*
X47193600Y-75600433D01*
X47860266Y-75300433D02*
X47893600Y-75267100D01*
X47960266Y-75233766D01*
X48126933Y-75233766D01*
X48193600Y-75267100D01*
X48226933Y-75300433D01*
X48260266Y-75367100D01*
X48260266Y-75433766D01*
X48226933Y-75533766D01*
X47826933Y-75933766D01*
X48260266Y-75933766D01*
X48693600Y-75233766D02*
X48760266Y-75233766D01*
X48826933Y-75267100D01*
X48860266Y-75300433D01*
X48893600Y-75367100D01*
X48926933Y-75500433D01*
X48926933Y-75667100D01*
X48893600Y-75800433D01*
X48860266Y-75867100D01*
X48826933Y-75900433D01*
X48760266Y-75933766D01*
X48693600Y-75933766D01*
X48626933Y-75900433D01*
X48593600Y-75867100D01*
X48560266Y-75800433D01*
X48526933Y-75667100D01*
X48526933Y-75500433D01*
X48560266Y-75367100D01*
X48593600Y-75300433D01*
X48626933Y-75267100D01*
X48693600Y-75233766D01*
X47606800Y-74612966D02*
X47373466Y-74279633D01*
X47206800Y-74612966D02*
X47206800Y-73912966D01*
X47473466Y-73912966D01*
X47540133Y-73946300D01*
X47573466Y-73979633D01*
X47606800Y-74046300D01*
X47606800Y-74146300D01*
X47573466Y-74212966D01*
X47540133Y-74246300D01*
X47473466Y-74279633D01*
X47206800Y-74279633D01*
X47873466Y-73979633D02*
X47906800Y-73946300D01*
X47973466Y-73912966D01*
X48140133Y-73912966D01*
X48206800Y-73946300D01*
X48240133Y-73979633D01*
X48273466Y-74046300D01*
X48273466Y-74112966D01*
X48240133Y-74212966D01*
X47840133Y-74612966D01*
X48273466Y-74612966D01*
X48706800Y-73912966D02*
X48773466Y-73912966D01*
X48840133Y-73946300D01*
X48873466Y-73979633D01*
X48906800Y-74046300D01*
X48940133Y-74179633D01*
X48940133Y-74346300D01*
X48906800Y-74479633D01*
X48873466Y-74546300D01*
X48840133Y-74579633D01*
X48773466Y-74612966D01*
X48706800Y-74612966D01*
X48640133Y-74579633D01*
X48606800Y-74546300D01*
X48573466Y-74479633D01*
X48540133Y-74346300D01*
X48540133Y-74179633D01*
X48573466Y-74046300D01*
X48606800Y-73979633D01*
X48640133Y-73946300D01*
X48706800Y-73912966D01*
X44965200Y-63775400D02*
X44931866Y-63808733D01*
X44831866Y-63842066D01*
X44765200Y-63842066D01*
X44665200Y-63808733D01*
X44598533Y-63742066D01*
X44565200Y-63675400D01*
X44531866Y-63542066D01*
X44531866Y-63442066D01*
X44565200Y-63308733D01*
X44598533Y-63242066D01*
X44665200Y-63175400D01*
X44765200Y-63142066D01*
X44831866Y-63142066D01*
X44931866Y-63175400D01*
X44965200Y-63208733D01*
X45565200Y-63375400D02*
X45565200Y-63842066D01*
X45398533Y-63108733D02*
X45231866Y-63608733D01*
X45665200Y-63608733D01*
X46065200Y-63142066D02*
X46131866Y-63142066D01*
X46198533Y-63175400D01*
X46231866Y-63208733D01*
X46265200Y-63275400D01*
X46298533Y-63408733D01*
X46298533Y-63575400D01*
X46265200Y-63708733D01*
X46231866Y-63775400D01*
X46198533Y-63808733D01*
X46131866Y-63842066D01*
X46065200Y-63842066D01*
X45998533Y-63808733D01*
X45965200Y-63775400D01*
X45931866Y-63708733D01*
X45898533Y-63575400D01*
X45898533Y-63408733D01*
X45931866Y-63275400D01*
X45965200Y-63208733D01*
X45998533Y-63175400D01*
X46065200Y-63142066D01*
X44428866Y-74479100D02*
X44095533Y-74712433D01*
X44428866Y-74879100D02*
X43728866Y-74879100D01*
X43728866Y-74612433D01*
X43762200Y-74545766D01*
X43795533Y-74512433D01*
X43862200Y-74479100D01*
X43962200Y-74479100D01*
X44028866Y-74512433D01*
X44062200Y-74545766D01*
X44095533Y-74612433D01*
X44095533Y-74879100D01*
X44428866Y-73812433D02*
X44428866Y-74212433D01*
X44428866Y-74012433D02*
X43728866Y-74012433D01*
X43828866Y-74079100D01*
X43895533Y-74145766D01*
X43928866Y-74212433D01*
X44428866Y-73479100D02*
X44428866Y-73345766D01*
X44395533Y-73279100D01*
X44362200Y-73245766D01*
X44262200Y-73179100D01*
X44128866Y-73145766D01*
X43862200Y-73145766D01*
X43795533Y-73179100D01*
X43762200Y-73212433D01*
X43728866Y-73279100D01*
X43728866Y-73412433D01*
X43762200Y-73479100D01*
X43795533Y-73512433D01*
X43862200Y-73545766D01*
X44028866Y-73545766D01*
X44095533Y-73512433D01*
X44128866Y-73479100D01*
X44162200Y-73412433D01*
X44162200Y-73279100D01*
X44128866Y-73212433D01*
X44095533Y-73179100D01*
X44028866Y-73145766D01*
X45858866Y-74479100D02*
X45525533Y-74712433D01*
X45858866Y-74879100D02*
X45158866Y-74879100D01*
X45158866Y-74612433D01*
X45192200Y-74545766D01*
X45225533Y-74512433D01*
X45292200Y-74479100D01*
X45392200Y-74479100D01*
X45458866Y-74512433D01*
X45492200Y-74545766D01*
X45525533Y-74612433D01*
X45525533Y-74879100D01*
X45858866Y-73812433D02*
X45858866Y-74212433D01*
X45858866Y-74012433D02*
X45158866Y-74012433D01*
X45258866Y-74079100D01*
X45325533Y-74145766D01*
X45358866Y-74212433D01*
X45858866Y-73479100D02*
X45858866Y-73345766D01*
X45825533Y-73279100D01*
X45792200Y-73245766D01*
X45692200Y-73179100D01*
X45558866Y-73145766D01*
X45292200Y-73145766D01*
X45225533Y-73179100D01*
X45192200Y-73212433D01*
X45158866Y-73279100D01*
X45158866Y-73412433D01*
X45192200Y-73479100D01*
X45225533Y-73512433D01*
X45292200Y-73545766D01*
X45458866Y-73545766D01*
X45525533Y-73512433D01*
X45558866Y-73479100D01*
X45592200Y-73412433D01*
X45592200Y-73279100D01*
X45558866Y-73212433D01*
X45525533Y-73179100D01*
X45458866Y-73145766D01*
X92333333Y-68166666D02*
X92300000Y-68233333D01*
X92233333Y-68300000D01*
X92133333Y-68400000D01*
X92100000Y-68466666D01*
X92100000Y-68533333D01*
X92266666Y-68500000D02*
X92233333Y-68566666D01*
X92166666Y-68633333D01*
X92033333Y-68666666D01*
X91800000Y-68666666D01*
X91666666Y-68633333D01*
X91600000Y-68566666D01*
X91566666Y-68500000D01*
X91566666Y-68366666D01*
X91600000Y-68300000D01*
X91666666Y-68233333D01*
X91800000Y-68200000D01*
X92033333Y-68200000D01*
X92166666Y-68233333D01*
X92233333Y-68300000D01*
X92266666Y-68366666D01*
X92266666Y-68500000D01*
X92266666Y-67533333D02*
X92266666Y-67933333D01*
X92266666Y-67733333D02*
X91566666Y-67733333D01*
X91666666Y-67800000D01*
X91733333Y-67866666D01*
X91766666Y-67933333D01*
X44990600Y-65315266D02*
X44757266Y-64981933D01*
X44590600Y-65315266D02*
X44590600Y-64615266D01*
X44857266Y-64615266D01*
X44923933Y-64648600D01*
X44957266Y-64681933D01*
X44990600Y-64748600D01*
X44990600Y-64848600D01*
X44957266Y-64915266D01*
X44923933Y-64948600D01*
X44857266Y-64981933D01*
X44590600Y-64981933D01*
X45257266Y-64681933D02*
X45290600Y-64648600D01*
X45357266Y-64615266D01*
X45523933Y-64615266D01*
X45590600Y-64648600D01*
X45623933Y-64681933D01*
X45657266Y-64748600D01*
X45657266Y-64815266D01*
X45623933Y-64915266D01*
X45223933Y-65315266D01*
X45657266Y-65315266D01*
X46323933Y-65315266D02*
X45923933Y-65315266D01*
X46123933Y-65315266D02*
X46123933Y-64615266D01*
X46057266Y-64715266D01*
X45990600Y-64781933D01*
X45923933Y-64815266D01*
X47467600Y-65291166D02*
X47234266Y-64957833D01*
X47067600Y-65291166D02*
X47067600Y-64591166D01*
X47334266Y-64591166D01*
X47400933Y-64624500D01*
X47434266Y-64657833D01*
X47467600Y-64724500D01*
X47467600Y-64824500D01*
X47434266Y-64891166D01*
X47400933Y-64924500D01*
X47334266Y-64957833D01*
X47067600Y-64957833D01*
X47734266Y-64657833D02*
X47767600Y-64624500D01*
X47834266Y-64591166D01*
X48000933Y-64591166D01*
X48067600Y-64624500D01*
X48100933Y-64657833D01*
X48134266Y-64724500D01*
X48134266Y-64791166D01*
X48100933Y-64891166D01*
X47700933Y-65291166D01*
X48134266Y-65291166D01*
X48800933Y-65291166D02*
X48400933Y-65291166D01*
X48600933Y-65291166D02*
X48600933Y-64591166D01*
X48534266Y-64691166D01*
X48467600Y-64757833D01*
X48400933Y-64791166D01*
D12*
X56337500Y-69500000D02*
X63637500Y-69500000D01*
X63637500Y-69500000D02*
X63637500Y-68350000D01*
X56337500Y-64000000D02*
X63637500Y-64000000D01*
X64687500Y-69500000D02*
X71987500Y-69500000D01*
X71987500Y-69500000D02*
X71987500Y-68350000D01*
X64687500Y-64000000D02*
X71987500Y-64000000D01*
X80387500Y-69500000D02*
X80387500Y-68350000D01*
X73087500Y-64000000D02*
X80387500Y-64000000D01*
X73087500Y-69500000D02*
X80387500Y-69500000D01*
X88637500Y-69500000D02*
X88637500Y-68350000D01*
X81337500Y-64000000D02*
X88637500Y-64000000D01*
X81337500Y-69500000D02*
X88637500Y-69500000D01*
X103042102Y-59300000D02*
G75*
G03*
X103042102Y-59300000I-3592102J0D01*
G01*
X103042102Y-80429366D02*
G75*
G03*
X103042102Y-80429366I-3592102J0D01*
G01*
X49351468Y-59300000D02*
G75*
G03*
X49351468Y-59300000I-3592102J0D01*
G01*
X49351468Y-80429366D02*
G75*
G03*
X49351468Y-80429366I-3592102J0D01*
G01*
X58150279Y-63610000D02*
X57824721Y-63610000D01*
X58150279Y-62590000D02*
X57824721Y-62590000D01*
X66512779Y-63660000D02*
X66187221Y-63660000D01*
X66512779Y-62640000D02*
X66187221Y-62640000D01*
X74912779Y-62640000D02*
X74587221Y-62640000D01*
X74912779Y-63660000D02*
X74587221Y-63660000D01*
X83162779Y-62640000D02*
X82837221Y-62640000D01*
X83162779Y-63660000D02*
X82837221Y-63660000D01*
X63045500Y-75838000D02*
X63045500Y-75738000D01*
X58145500Y-72338000D02*
X58145500Y-72438000D01*
X58145500Y-75838000D02*
X63045500Y-75838000D01*
X63045500Y-72338000D02*
X63045500Y-72438000D01*
X63045500Y-72338000D02*
X58145500Y-72338000D01*
X58145500Y-73738000D02*
X58145500Y-74438000D01*
X63045500Y-73738000D02*
X63045500Y-74438000D01*
X58145500Y-75738000D02*
X58145500Y-75838000D01*
X46277200Y-71769000D02*
X46277200Y-69484000D01*
X44807200Y-69484000D02*
X44807200Y-71769000D01*
X46277200Y-69484000D02*
X44807200Y-69484000D01*
X75037500Y-72350000D02*
X70137500Y-72350000D01*
X75037500Y-75850000D02*
X75037500Y-75750000D01*
X70137500Y-75750000D02*
X70137500Y-75850000D01*
X75037500Y-73750000D02*
X75037500Y-74450000D01*
X70137500Y-73750000D02*
X70137500Y-74450000D01*
X70137500Y-75850000D02*
X75037500Y-75850000D01*
X70137500Y-72350000D02*
X70137500Y-72450000D01*
X75037500Y-72350000D02*
X75037500Y-72450000D01*
X46277200Y-69228000D02*
X46277200Y-66943000D01*
X44807200Y-66943000D02*
X44807200Y-69228000D01*
X44807200Y-69228000D02*
X46277200Y-69228000D01*
X93137258Y-67072500D02*
X92662742Y-67072500D01*
X93137258Y-66027500D02*
X92662742Y-66027500D01*
X49672400Y-67713300D02*
X49672400Y-68363300D01*
X49672400Y-67713300D02*
X49672400Y-67063300D01*
X46552400Y-67713300D02*
X46552400Y-67063300D01*
X46552400Y-67713300D02*
X46552400Y-69388300D01*
X49667600Y-71576200D02*
X49667600Y-70926200D01*
X49667600Y-71576200D02*
X49667600Y-72226200D01*
X46547600Y-71576200D02*
X46547600Y-70926200D01*
X46547600Y-71576200D02*
X46547600Y-73251200D01*
X47819542Y-73773800D02*
X48294058Y-73773800D01*
X47819542Y-74818800D02*
X48294058Y-74818800D01*
X48057380Y-63984600D02*
X47776220Y-63984600D01*
X48057380Y-62964600D02*
X47776220Y-62964600D01*
X82537500Y-72400000D02*
X82537500Y-72500000D01*
X87437500Y-72400000D02*
X82537500Y-72400000D01*
X87437500Y-72400000D02*
X87437500Y-72500000D01*
X87437500Y-73800000D02*
X87437500Y-74500000D01*
X82537500Y-75800000D02*
X82537500Y-75900000D01*
X82537500Y-73800000D02*
X82537500Y-74500000D01*
X82537500Y-75900000D02*
X87437500Y-75900000D01*
X87437500Y-75900000D02*
X87437500Y-75800000D01*
X45019700Y-74266358D02*
X45019700Y-73791842D01*
X46064700Y-74266358D02*
X46064700Y-73791842D01*
X91390000Y-69262500D02*
X91390000Y-68612500D01*
X91390000Y-69262500D02*
X91390000Y-70937500D01*
X94510000Y-69262500D02*
X94510000Y-68612500D01*
X94510000Y-69262500D02*
X94510000Y-69912500D01*
X48154858Y-64452000D02*
X47680342Y-64452000D01*
X48154858Y-65497000D02*
X47680342Y-65497000D01*
M02*
