G04 #@! TF.GenerationSoftware,KiCad,Pcbnew,(6.0.1-0)*
G04 #@! TF.CreationDate,2022-02-08T22:38:28+01:00*
G04 #@! TF.ProjectId,U:I WS,553a4920-5753-42e6-9b69-6361645f7063,rev?*
G04 #@! TF.SameCoordinates,Original*
G04 #@! TF.FileFunction,Paste,Top*
G04 #@! TF.FilePolarity,Positive*
%FSLAX46Y46*%
G04 Gerber Fmt 4.6, Leading zero omitted, Abs format (unit mm)*
G04 Created by KiCad (PCBNEW (6.0.1-0)) date 2022-02-08 22:38:28*
%MOMM*%
%LPD*%
G01*
G04 APERTURE LIST*
G04 Aperture macros list*
%AMRoundRect*
0 Rectangle with rounded corners*
0 $1 Rounding radius*
0 $2 $3 $4 $5 $6 $7 $8 $9 X,Y pos of 4 corners*
0 Add a 4 corners polygon primitive as box body*
4,1,4,$2,$3,$4,$5,$6,$7,$8,$9,$2,$3,0*
0 Add four circle primitives for the rounded corners*
1,1,$1+$1,$2,$3*
1,1,$1+$1,$4,$5*
1,1,$1+$1,$6,$7*
1,1,$1+$1,$8,$9*
0 Add four rect primitives between the rounded corners*
20,1,$1+$1,$2,$3,$4,$5,0*
20,1,$1+$1,$4,$5,$6,$7,0*
20,1,$1+$1,$6,$7,$8,$9,0*
20,1,$1+$1,$8,$9,$2,$3,0*%
G04 Aperture macros list end*
%ADD10R,1.500000X1.000000*%
%ADD11RoundRect,0.218750X0.218750X0.256250X-0.218750X0.256250X-0.218750X-0.256250X0.218750X-0.256250X0*%
%ADD12R,1.450000X0.700000*%
%ADD13RoundRect,0.218750X-0.256250X0.218750X-0.256250X-0.218750X0.256250X-0.218750X0.256250X0.218750X0*%
%ADD14RoundRect,0.218750X0.256250X-0.218750X0.256250X0.218750X-0.256250X0.218750X-0.256250X-0.218750X0*%
%ADD15RoundRect,0.200000X0.200000X0.275000X-0.200000X0.275000X-0.200000X-0.275000X0.200000X-0.275000X0*%
%ADD16RoundRect,0.150000X0.150000X-0.587500X0.150000X0.587500X-0.150000X0.587500X-0.150000X-0.587500X0*%
%ADD17RoundRect,0.200000X-0.200000X-0.275000X0.200000X-0.275000X0.200000X0.275000X-0.200000X0.275000X0*%
%ADD18RoundRect,0.225000X0.225000X0.250000X-0.225000X0.250000X-0.225000X-0.250000X0.225000X-0.250000X0*%
%ADD19RoundRect,0.200000X0.275000X-0.200000X0.275000X0.200000X-0.275000X0.200000X-0.275000X-0.200000X0*%
G04 APERTURE END LIST*
D10*
X57537500Y-65150000D03*
X57537500Y-68350000D03*
X62437500Y-68350000D03*
X62437500Y-65150000D03*
X65887500Y-65150000D03*
X65887500Y-68350000D03*
X70787500Y-68350000D03*
X70787500Y-65150000D03*
X74287500Y-65150000D03*
X74287500Y-68350000D03*
X79187500Y-68350000D03*
X79187500Y-65150000D03*
X82537500Y-65150000D03*
X82537500Y-68350000D03*
X87437500Y-68350000D03*
X87437500Y-65150000D03*
D11*
X58775000Y-63100000D03*
X57200000Y-63100000D03*
X67137500Y-63150000D03*
X65562500Y-63150000D03*
X75537500Y-63150000D03*
X73962500Y-63150000D03*
X83787500Y-63150000D03*
X82212500Y-63150000D03*
D12*
X57587500Y-75850000D03*
X57587500Y-72150000D03*
X63587500Y-75850000D03*
X63587500Y-72150000D03*
D13*
X45542200Y-70181500D03*
X45542200Y-71756500D03*
D12*
X69579500Y-75862000D03*
X69579500Y-72162000D03*
X75579500Y-75862000D03*
X75579500Y-72162000D03*
D14*
X45542200Y-68530500D03*
X45542200Y-66955500D03*
D15*
X93725000Y-66550000D03*
X92075000Y-66550000D03*
D16*
X47162400Y-68650800D03*
X49062400Y-68650800D03*
X48112400Y-66775800D03*
X47157600Y-72513700D03*
X49057600Y-72513700D03*
X48107600Y-70638700D03*
D17*
X47231800Y-74296300D03*
X48881800Y-74296300D03*
D18*
X48691800Y-63474600D03*
X47141800Y-63474600D03*
D12*
X81979500Y-75912000D03*
X81979500Y-72212000D03*
X87979500Y-75912000D03*
X87979500Y-72212000D03*
D19*
X45542200Y-74854100D03*
X45542200Y-73204100D03*
D16*
X92000000Y-70200000D03*
X93900000Y-70200000D03*
X92950000Y-68325000D03*
D15*
X48742600Y-64974500D03*
X47092600Y-64974500D03*
M02*
