G04 #@! TF.GenerationSoftware,KiCad,Pcbnew,(6.0.1-0)*
G04 #@! TF.CreationDate,2022-02-08T22:38:27+01:00*
G04 #@! TF.ProjectId,U:I WS,553a4920-5753-42e6-9b69-6361645f7063,rev?*
G04 #@! TF.SameCoordinates,Original*
G04 #@! TF.FileFunction,Copper,L1,Top*
G04 #@! TF.FilePolarity,Positive*
%FSLAX46Y46*%
G04 Gerber Fmt 4.6, Leading zero omitted, Abs format (unit mm)*
G04 Created by KiCad (PCBNEW (6.0.1-0)) date 2022-02-08 22:38:27*
%MOMM*%
%LPD*%
G01*
G04 APERTURE LIST*
G04 Aperture macros list*
%AMRoundRect*
0 Rectangle with rounded corners*
0 $1 Rounding radius*
0 $2 $3 $4 $5 $6 $7 $8 $9 X,Y pos of 4 corners*
0 Add a 4 corners polygon primitive as box body*
4,1,4,$2,$3,$4,$5,$6,$7,$8,$9,$2,$3,0*
0 Add four circle primitives for the rounded corners*
1,1,$1+$1,$2,$3*
1,1,$1+$1,$4,$5*
1,1,$1+$1,$6,$7*
1,1,$1+$1,$8,$9*
0 Add four rect primitives between the rounded corners*
20,1,$1+$1,$2,$3,$4,$5,0*
20,1,$1+$1,$4,$5,$6,$7,0*
20,1,$1+$1,$6,$7,$8,$9,0*
20,1,$1+$1,$8,$9,$2,$3,0*%
G04 Aperture macros list end*
G04 #@! TA.AperFunction,SMDPad,CuDef*
%ADD10R,1.500000X1.000000*%
G04 #@! TD*
G04 #@! TA.AperFunction,ComponentPad*
%ADD11C,6.200000*%
G04 #@! TD*
G04 #@! TA.AperFunction,SMDPad,CuDef*
%ADD12RoundRect,0.218750X0.218750X0.256250X-0.218750X0.256250X-0.218750X-0.256250X0.218750X-0.256250X0*%
G04 #@! TD*
G04 #@! TA.AperFunction,SMDPad,CuDef*
%ADD13R,1.450000X0.700000*%
G04 #@! TD*
G04 #@! TA.AperFunction,SMDPad,CuDef*
%ADD14RoundRect,0.218750X-0.256250X0.218750X-0.256250X-0.218750X0.256250X-0.218750X0.256250X0.218750X0*%
G04 #@! TD*
G04 #@! TA.AperFunction,SMDPad,CuDef*
%ADD15RoundRect,0.218750X0.256250X-0.218750X0.256250X0.218750X-0.256250X0.218750X-0.256250X-0.218750X0*%
G04 #@! TD*
G04 #@! TA.AperFunction,SMDPad,CuDef*
%ADD16RoundRect,0.200000X0.200000X0.275000X-0.200000X0.275000X-0.200000X-0.275000X0.200000X-0.275000X0*%
G04 #@! TD*
G04 #@! TA.AperFunction,SMDPad,CuDef*
%ADD17RoundRect,0.150000X0.150000X-0.587500X0.150000X0.587500X-0.150000X0.587500X-0.150000X-0.587500X0*%
G04 #@! TD*
G04 #@! TA.AperFunction,SMDPad,CuDef*
%ADD18RoundRect,0.200000X-0.200000X-0.275000X0.200000X-0.275000X0.200000X0.275000X-0.200000X0.275000X0*%
G04 #@! TD*
G04 #@! TA.AperFunction,SMDPad,CuDef*
%ADD19RoundRect,0.225000X0.225000X0.250000X-0.225000X0.250000X-0.225000X-0.250000X0.225000X-0.250000X0*%
G04 #@! TD*
G04 #@! TA.AperFunction,SMDPad,CuDef*
%ADD20RoundRect,0.200000X0.275000X-0.200000X0.275000X0.200000X-0.275000X0.200000X-0.275000X-0.200000X0*%
G04 #@! TD*
G04 #@! TA.AperFunction,ViaPad*
%ADD21C,0.800000*%
G04 #@! TD*
G04 #@! TA.AperFunction,Conductor*
%ADD22C,0.500000*%
G04 #@! TD*
G04 #@! TA.AperFunction,Conductor*
%ADD23C,0.250000*%
G04 #@! TD*
G04 #@! TA.AperFunction,Conductor*
%ADD24C,0.300000*%
G04 #@! TD*
G04 #@! TA.AperFunction,Conductor*
%ADD25C,0.200000*%
G04 #@! TD*
G04 APERTURE END LIST*
D10*
X57537500Y-65150000D03*
X57537500Y-68350000D03*
X62437500Y-68350000D03*
X62437500Y-65150000D03*
X65887500Y-65150000D03*
X65887500Y-68350000D03*
X70787500Y-68350000D03*
X70787500Y-65150000D03*
X74287500Y-65150000D03*
X74287500Y-68350000D03*
X79187500Y-68350000D03*
X79187500Y-65150000D03*
X82537500Y-65150000D03*
X82537500Y-68350000D03*
X87437500Y-68350000D03*
X87437500Y-65150000D03*
D11*
X99450000Y-59300000D03*
X99450000Y-80429366D03*
X45759366Y-59300000D03*
X45759366Y-80429366D03*
D12*
X58775000Y-63100000D03*
X57200000Y-63100000D03*
X67137500Y-63150000D03*
X65562500Y-63150000D03*
X75537500Y-63150000D03*
X73962500Y-63150000D03*
X83787500Y-63150000D03*
X82212500Y-63150000D03*
D13*
X57587500Y-75850000D03*
X57587500Y-72150000D03*
X63587500Y-75850000D03*
X63587500Y-72150000D03*
D14*
X45542200Y-70181500D03*
X45542200Y-71756500D03*
D13*
X69579500Y-75862000D03*
X69579500Y-72162000D03*
X75579500Y-75862000D03*
X75579500Y-72162000D03*
D15*
X45542200Y-68530500D03*
X45542200Y-66955500D03*
D16*
X93725000Y-66550000D03*
X92075000Y-66550000D03*
D17*
X47162400Y-68650800D03*
X49062400Y-68650800D03*
X48112400Y-66775800D03*
X47157600Y-72513700D03*
X49057600Y-72513700D03*
X48107600Y-70638700D03*
D18*
X47231800Y-74296300D03*
X48881800Y-74296300D03*
D19*
X48691800Y-63474600D03*
X47141800Y-63474600D03*
D13*
X81979500Y-75912000D03*
X81979500Y-72212000D03*
X87979500Y-75912000D03*
X87979500Y-72212000D03*
D20*
X45542200Y-74854100D03*
X45542200Y-73204100D03*
D17*
X92000000Y-70200000D03*
X93900000Y-70200000D03*
X92950000Y-68325000D03*
D16*
X48742600Y-64974500D03*
X47092600Y-64974500D03*
D21*
X49326800Y-70840600D03*
X49631600Y-75184000D03*
X99350000Y-71800000D03*
X99300000Y-70700000D03*
X99250000Y-69550000D03*
X95900000Y-66350000D03*
X44450000Y-69400000D03*
X52050000Y-73650000D03*
X89800000Y-69640183D03*
X96050000Y-72400000D03*
X101500000Y-73300000D03*
X50850800Y-78943200D03*
X99800000Y-67400000D03*
X49504600Y-66471800D03*
X50001300Y-76682600D03*
X99100000Y-68300000D03*
X101050500Y-72300000D03*
X95400000Y-70400000D03*
D22*
X49057600Y-72513700D02*
X49057600Y-71109800D01*
X99350000Y-70650000D02*
X99300000Y-70600000D01*
X48881800Y-74434200D02*
X49631600Y-75184000D01*
X48881800Y-74296300D02*
X48881800Y-74434200D01*
X49057600Y-71109800D02*
X49326800Y-70840600D01*
X99350000Y-71800000D02*
X99350000Y-70650000D01*
D23*
X93725000Y-66550000D02*
X93725000Y-68958572D01*
D22*
X65562500Y-63150000D02*
X65562500Y-64825000D01*
X74117424Y-63150000D02*
X73962500Y-63150000D01*
X75041944Y-62225480D02*
X66487020Y-62225480D01*
X73962500Y-64825000D02*
X74287500Y-65150000D01*
X95900000Y-66350000D02*
X93925000Y-66350000D01*
X65562500Y-64825000D02*
X65887500Y-65150000D01*
X75041944Y-62225480D02*
X74117424Y-63150000D01*
X93925000Y-66350000D02*
X93725000Y-66550000D01*
X57200000Y-63100000D02*
X57200000Y-64812500D01*
X73962500Y-63150000D02*
X73962500Y-64825000D01*
X95900000Y-66350000D02*
X91775480Y-62225480D01*
X83137020Y-62225480D02*
X82212500Y-63150000D01*
X83137020Y-62225480D02*
X75041944Y-62225480D01*
X91775480Y-62225480D02*
X83137020Y-62225480D01*
X57200000Y-64812500D02*
X57537500Y-65150000D01*
X66487020Y-62225480D02*
X66437020Y-62175480D01*
D23*
X93725000Y-68958572D02*
X92483572Y-70200000D01*
D22*
X66487020Y-62225480D02*
X65562500Y-63150000D01*
X58124520Y-62175480D02*
X57200000Y-63100000D01*
X82537500Y-65150000D02*
X82537500Y-63475000D01*
X82537500Y-63475000D02*
X82212500Y-63150000D01*
D23*
X92483572Y-70200000D02*
X92000000Y-70200000D01*
D22*
X66437020Y-62175480D02*
X58124520Y-62175480D01*
D24*
X90675000Y-65150000D02*
X87437500Y-65150000D01*
X92950000Y-68325000D02*
X92950000Y-67425000D01*
X92075000Y-66550000D02*
X90675000Y-65150000D01*
X92950000Y-67425000D02*
X92075000Y-66550000D01*
D23*
X65887500Y-68350000D02*
X65637500Y-68350000D01*
X65637500Y-68350000D02*
X62437500Y-65150000D01*
X73617500Y-73900000D02*
X73367500Y-73650000D01*
X73367500Y-73650000D02*
X52050000Y-73650000D01*
X75579500Y-75862000D02*
X73617500Y-73900000D01*
D22*
X45542200Y-69492200D02*
X45542200Y-68530500D01*
X45542200Y-70181500D02*
X45542200Y-69492200D01*
D23*
X44450000Y-69400000D02*
X45450000Y-69400000D01*
X45450000Y-69400000D02*
X45542200Y-69492200D01*
D22*
X47231800Y-74296300D02*
X47231800Y-72587900D01*
X45542200Y-73204100D02*
X46329600Y-73204100D01*
X47231800Y-72587900D02*
X47157600Y-72513700D01*
X47157600Y-72513700D02*
X47020000Y-72513700D01*
X47020000Y-72513700D02*
X46299400Y-72513700D01*
X46329600Y-73204100D02*
X47020000Y-72513700D01*
X46299400Y-72513700D02*
X45542200Y-71756500D01*
D23*
X82387500Y-68350000D02*
X79187500Y-65150000D01*
X82537500Y-68350000D02*
X82387500Y-68350000D01*
D25*
X76165522Y-76950000D02*
X78500000Y-74615522D01*
X78950000Y-71550000D02*
X79450000Y-71050000D01*
X78950000Y-74165522D02*
X78950000Y-71550000D01*
X89189259Y-71050000D02*
X89800000Y-70439259D01*
X64687500Y-76950000D02*
X76165522Y-76950000D01*
X89800000Y-70439259D02*
X89800000Y-69640183D01*
X63587500Y-75850000D02*
X64687500Y-76950000D01*
X78500000Y-74615522D02*
X78950000Y-74165522D01*
X79450000Y-71050000D02*
X89189259Y-71050000D01*
X91491500Y-72400000D02*
X96050000Y-72400000D01*
X87979500Y-75912000D02*
X91091500Y-72800000D01*
X91091500Y-72800000D02*
X91491500Y-72400000D01*
D23*
X73987500Y-68350000D02*
X70787500Y-65150000D01*
X74287500Y-68350000D02*
X73987500Y-68350000D01*
D22*
X48107600Y-70638700D02*
X48107600Y-69596000D01*
X48107600Y-69596000D02*
X47162400Y-68650800D01*
X47162400Y-68575700D02*
X45542200Y-66955500D01*
X47141800Y-63474600D02*
X47141800Y-64925300D01*
X47141800Y-64925300D02*
X47092600Y-64974500D01*
X46202600Y-64974500D02*
X45542200Y-65634900D01*
X47092600Y-64974500D02*
X46202600Y-64974500D01*
X47162400Y-68650800D02*
X47162400Y-68575700D01*
X45542200Y-65634900D02*
X45542200Y-66955500D01*
X101900000Y-72900000D02*
X101500000Y-73300000D01*
X101900000Y-71500000D02*
X101900000Y-67900000D01*
X50044700Y-68650800D02*
X49062400Y-68650800D01*
X101900000Y-71500000D02*
X101900000Y-72900000D01*
X48742600Y-64974500D02*
X48742600Y-63525400D01*
X101400000Y-67400000D02*
X99800000Y-67400000D01*
X49062400Y-68650800D02*
X50622200Y-70210600D01*
X50850800Y-70439200D02*
X50850800Y-78943200D01*
X48742600Y-64974500D02*
X50063400Y-64974500D01*
X50596800Y-68098700D02*
X50044700Y-68650800D01*
X50622200Y-70210600D02*
X50850800Y-70439200D01*
X50596800Y-65507900D02*
X50596800Y-68098700D01*
X101900000Y-67900000D02*
X101400000Y-67400000D01*
X50063400Y-64974500D02*
X50596800Y-65507900D01*
X48742600Y-63525400D02*
X48691800Y-63474600D01*
X49200600Y-66775800D02*
X49504600Y-66471800D01*
X48112400Y-66775800D02*
X49200600Y-66775800D01*
X101100000Y-70900000D02*
X101100000Y-72250500D01*
X100900000Y-68300000D02*
X99100000Y-68300000D01*
X101100000Y-72250500D02*
X101050500Y-72300000D01*
X47370700Y-76682600D02*
X50001300Y-76682600D01*
X101100000Y-68500000D02*
X100900000Y-68300000D01*
X45542200Y-74854100D02*
X47370700Y-76682600D01*
X101100000Y-70900000D02*
X101100000Y-68500000D01*
D24*
X95400000Y-70400000D02*
X94100000Y-70400000D01*
X94100000Y-70400000D02*
X93900000Y-70200000D01*
G04 #@! TA.AperFunction,Conductor*
G36*
X97899426Y-55828002D02*
G01*
X97945919Y-55881658D01*
X97956023Y-55951932D01*
X97926529Y-56016512D01*
X97888508Y-56046267D01*
X97646467Y-56169594D01*
X97640756Y-56172891D01*
X97329136Y-56375259D01*
X97323785Y-56379147D01*
X97097270Y-56562576D01*
X97088802Y-56574834D01*
X97095135Y-56585924D01*
X99450000Y-58940790D01*
X102163212Y-61654001D01*
X102176285Y-61661140D01*
X102186655Y-61653681D01*
X102370853Y-61426215D01*
X102374741Y-61420864D01*
X102577109Y-61109244D01*
X102580406Y-61103534D01*
X102703733Y-60861491D01*
X102752481Y-60809876D01*
X102821396Y-60792810D01*
X102888598Y-60815711D01*
X102932750Y-60871308D01*
X102942000Y-60918694D01*
X102942000Y-78810672D01*
X102921998Y-78878793D01*
X102868342Y-78925286D01*
X102798068Y-78935390D01*
X102733488Y-78905896D01*
X102703733Y-78867875D01*
X102580406Y-78625832D01*
X102577109Y-78620122D01*
X102374741Y-78308502D01*
X102370853Y-78303151D01*
X102187424Y-78076636D01*
X102175166Y-78068168D01*
X102164076Y-78074501D01*
X99450000Y-80788576D01*
X97096001Y-83142576D01*
X97088861Y-83155652D01*
X97096319Y-83166021D01*
X97323800Y-83350231D01*
X97329115Y-83354093D01*
X97640773Y-83556487D01*
X97646450Y-83559764D01*
X97932568Y-83705549D01*
X97984183Y-83754298D01*
X98001249Y-83823212D01*
X97978348Y-83890414D01*
X97922751Y-83934566D01*
X97875510Y-83943816D01*
X56099350Y-83991999D01*
X56098310Y-83991999D01*
X47226086Y-83992000D01*
X47157965Y-83971998D01*
X47111472Y-83918342D01*
X47101368Y-83848068D01*
X47130862Y-83783488D01*
X47180931Y-83748369D01*
X47225807Y-83731142D01*
X47231826Y-83728463D01*
X47562916Y-83559764D01*
X47568593Y-83556487D01*
X47880251Y-83354093D01*
X47885566Y-83350231D01*
X48112096Y-83166790D01*
X48120564Y-83154532D01*
X48114231Y-83143442D01*
X45401287Y-80430497D01*
X46123774Y-80430497D01*
X46123905Y-80432332D01*
X46128156Y-80438946D01*
X48472576Y-82783365D01*
X48485652Y-82790505D01*
X48496020Y-82783048D01*
X48680219Y-82555581D01*
X48684107Y-82550230D01*
X48886475Y-82238610D01*
X48889772Y-82232900D01*
X49058463Y-81901826D01*
X49061145Y-81895801D01*
X49194301Y-81548919D01*
X49196342Y-81542637D01*
X49292510Y-81183730D01*
X49293881Y-81177280D01*
X49352011Y-80810270D01*
X49352697Y-80803732D01*
X49372144Y-80432667D01*
X95837222Y-80432667D01*
X95856669Y-80803732D01*
X95857355Y-80810270D01*
X95915485Y-81177280D01*
X95916856Y-81183730D01*
X96013024Y-81542637D01*
X96015065Y-81548919D01*
X96148221Y-81895801D01*
X96150903Y-81901826D01*
X96319594Y-82232900D01*
X96322891Y-82238610D01*
X96525259Y-82550230D01*
X96529147Y-82555581D01*
X96712576Y-82782096D01*
X96724834Y-82790564D01*
X96735924Y-82784231D01*
X99077980Y-80442176D01*
X99085592Y-80428235D01*
X99085461Y-80426400D01*
X99081210Y-80419786D01*
X96736790Y-78075367D01*
X96723714Y-78068227D01*
X96713346Y-78075684D01*
X96529147Y-78303151D01*
X96525259Y-78308502D01*
X96322891Y-78620122D01*
X96319594Y-78625832D01*
X96150903Y-78956906D01*
X96148221Y-78962931D01*
X96015065Y-79309813D01*
X96013024Y-79316095D01*
X95916856Y-79675002D01*
X95915485Y-79681452D01*
X95857355Y-80048462D01*
X95856669Y-80055000D01*
X95837222Y-80426065D01*
X95837222Y-80432667D01*
X49372144Y-80432667D01*
X49372144Y-80426065D01*
X49352697Y-80055000D01*
X49352011Y-80048462D01*
X49293881Y-79681452D01*
X49292510Y-79675002D01*
X49196342Y-79316095D01*
X49194301Y-79309813D01*
X49061145Y-78962931D01*
X49058463Y-78956906D01*
X48889772Y-78625832D01*
X48886475Y-78620122D01*
X48684107Y-78308502D01*
X48680219Y-78303151D01*
X48496790Y-78076636D01*
X48484532Y-78068168D01*
X48473442Y-78074501D01*
X46131386Y-80416556D01*
X46123774Y-80430497D01*
X45401287Y-80430497D01*
X45400156Y-80429366D01*
X43046156Y-78075367D01*
X43033080Y-78068227D01*
X43022711Y-78075685D01*
X42838513Y-78303151D01*
X42834625Y-78308502D01*
X42632257Y-78620122D01*
X42628960Y-78625833D01*
X42496267Y-78886256D01*
X42447518Y-78937871D01*
X42378604Y-78954937D01*
X42311402Y-78932036D01*
X42267250Y-78876438D01*
X42258000Y-78829053D01*
X42258000Y-77704200D01*
X43398168Y-77704200D01*
X43404501Y-77715290D01*
X45746556Y-80057346D01*
X45760497Y-80064958D01*
X45762332Y-80064827D01*
X45768946Y-80060576D01*
X48113365Y-77716156D01*
X48120505Y-77703080D01*
X48113049Y-77692714D01*
X48078850Y-77665020D01*
X48038498Y-77606606D01*
X48036133Y-77535649D01*
X48072506Y-77474677D01*
X48136069Y-77443049D01*
X48158145Y-77441100D01*
X49458713Y-77441100D01*
X49532772Y-77465163D01*
X49539202Y-77469835D01*
X49539209Y-77469839D01*
X49544548Y-77473718D01*
X49550576Y-77476402D01*
X49550578Y-77476403D01*
X49702216Y-77543916D01*
X49719012Y-77551394D01*
X49812412Y-77571247D01*
X49899356Y-77589728D01*
X49899361Y-77589728D01*
X49905813Y-77591100D01*
X49966300Y-77591100D01*
X50034421Y-77611102D01*
X50080914Y-77664758D01*
X50092300Y-77717100D01*
X50092300Y-78406201D01*
X50075419Y-78469200D01*
X50016273Y-78571644D01*
X49957258Y-78753272D01*
X49937296Y-78943200D01*
X49957258Y-79133128D01*
X50016273Y-79314756D01*
X50111760Y-79480144D01*
X50239547Y-79622066D01*
X50394048Y-79734318D01*
X50400076Y-79737002D01*
X50400078Y-79737003D01*
X50562481Y-79809309D01*
X50568512Y-79811994D01*
X50661912Y-79831847D01*
X50748856Y-79850328D01*
X50748861Y-79850328D01*
X50755313Y-79851700D01*
X50946287Y-79851700D01*
X50952739Y-79850328D01*
X50952744Y-79850328D01*
X51039688Y-79831847D01*
X51133088Y-79811994D01*
X51139119Y-79809309D01*
X51301522Y-79737003D01*
X51301524Y-79737002D01*
X51307552Y-79734318D01*
X51462053Y-79622066D01*
X51589840Y-79480144D01*
X51685327Y-79314756D01*
X51744342Y-79133128D01*
X51764304Y-78943200D01*
X51744342Y-78753272D01*
X51685327Y-78571644D01*
X51626181Y-78469200D01*
X51609300Y-78406201D01*
X51609300Y-77704200D01*
X97088802Y-77704200D01*
X97095135Y-77715290D01*
X99437190Y-80057346D01*
X99451131Y-80064958D01*
X99452966Y-80064827D01*
X99459580Y-80060576D01*
X101803999Y-77716156D01*
X101811139Y-77703080D01*
X101803682Y-77692712D01*
X101576200Y-77508501D01*
X101570885Y-77504639D01*
X101259227Y-77302245D01*
X101253550Y-77298968D01*
X100922460Y-77130269D01*
X100916435Y-77127587D01*
X100569553Y-76994431D01*
X100563271Y-76992390D01*
X100204364Y-76896222D01*
X100197914Y-76894851D01*
X99830904Y-76836721D01*
X99824366Y-76836035D01*
X99453301Y-76816588D01*
X99446699Y-76816588D01*
X99075634Y-76836035D01*
X99069096Y-76836721D01*
X98702086Y-76894851D01*
X98695636Y-76896222D01*
X98336729Y-76992390D01*
X98330447Y-76994431D01*
X97983565Y-77127587D01*
X97977540Y-77130269D01*
X97646466Y-77298960D01*
X97640756Y-77302257D01*
X97329136Y-77504625D01*
X97323785Y-77508513D01*
X97097270Y-77691942D01*
X97088802Y-77704200D01*
X51609300Y-77704200D01*
X51609300Y-76248134D01*
X56354000Y-76248134D01*
X56360755Y-76310316D01*
X56411885Y-76446705D01*
X56499239Y-76563261D01*
X56615795Y-76650615D01*
X56752184Y-76701745D01*
X56814366Y-76708500D01*
X58360634Y-76708500D01*
X58422816Y-76701745D01*
X58559205Y-76650615D01*
X58675761Y-76563261D01*
X58763115Y-76446705D01*
X58814245Y-76310316D01*
X58821000Y-76248134D01*
X58821000Y-75451866D01*
X58814245Y-75389684D01*
X58763115Y-75253295D01*
X58675761Y-75136739D01*
X58559205Y-75049385D01*
X58422816Y-74998255D01*
X58360634Y-74991500D01*
X56814366Y-74991500D01*
X56752184Y-74998255D01*
X56615795Y-75049385D01*
X56499239Y-75136739D01*
X56411885Y-75253295D01*
X56360755Y-75389684D01*
X56354000Y-75451866D01*
X56354000Y-76248134D01*
X51609300Y-76248134D01*
X51609300Y-74640022D01*
X51629302Y-74571901D01*
X51682958Y-74525408D01*
X51753232Y-74515304D01*
X51767135Y-74518537D01*
X51767712Y-74518794D01*
X51773852Y-74520099D01*
X51948056Y-74557128D01*
X51948061Y-74557128D01*
X51954513Y-74558500D01*
X52145487Y-74558500D01*
X52151939Y-74557128D01*
X52151944Y-74557128D01*
X52238888Y-74538647D01*
X52332288Y-74518794D01*
X52340127Y-74515304D01*
X52500722Y-74443803D01*
X52500724Y-74443802D01*
X52506752Y-74441118D01*
X52661253Y-74328866D01*
X52665668Y-74323963D01*
X52670580Y-74319540D01*
X52671705Y-74320789D01*
X52725014Y-74287949D01*
X52758200Y-74283500D01*
X73052906Y-74283500D01*
X73121027Y-74303502D01*
X73142001Y-74320405D01*
X74309095Y-75487500D01*
X74343121Y-75549812D01*
X74346000Y-75576595D01*
X74346000Y-76215500D01*
X74325998Y-76283621D01*
X74272342Y-76330114D01*
X74220000Y-76341500D01*
X70939000Y-76341500D01*
X70870879Y-76321498D01*
X70824386Y-76267842D01*
X70813000Y-76215500D01*
X70813000Y-75463866D01*
X70806245Y-75401684D01*
X70755115Y-75265295D01*
X70667761Y-75148739D01*
X70551205Y-75061385D01*
X70414816Y-75010255D01*
X70352634Y-75003500D01*
X68806366Y-75003500D01*
X68744184Y-75010255D01*
X68607795Y-75061385D01*
X68491239Y-75148739D01*
X68403885Y-75265295D01*
X68352755Y-75401684D01*
X68346000Y-75463866D01*
X68346000Y-76215500D01*
X68325998Y-76283621D01*
X68272342Y-76330114D01*
X68220000Y-76341500D01*
X64991738Y-76341500D01*
X64923617Y-76321498D01*
X64902643Y-76304595D01*
X64857905Y-76259857D01*
X64823879Y-76197545D01*
X64821000Y-76170762D01*
X64821000Y-75451866D01*
X64814245Y-75389684D01*
X64763115Y-75253295D01*
X64675761Y-75136739D01*
X64559205Y-75049385D01*
X64422816Y-74998255D01*
X64360634Y-74991500D01*
X62814366Y-74991500D01*
X62752184Y-74998255D01*
X62615795Y-75049385D01*
X62499239Y-75136739D01*
X62411885Y-75253295D01*
X62360755Y-75389684D01*
X62354000Y-75451866D01*
X62354000Y-76248134D01*
X62360755Y-76310316D01*
X62411885Y-76446705D01*
X62499239Y-76563261D01*
X62615795Y-76650615D01*
X62752184Y-76701745D01*
X62814366Y-76708500D01*
X63533260Y-76708500D01*
X63601381Y-76728502D01*
X63622355Y-76745404D01*
X64223181Y-77346229D01*
X64234049Y-77358621D01*
X64253513Y-77383987D01*
X64260059Y-77389010D01*
X64260062Y-77389013D01*
X64285427Y-77408476D01*
X64285429Y-77408477D01*
X64374072Y-77476496D01*
X64380624Y-77481524D01*
X64388250Y-77484683D01*
X64388252Y-77484684D01*
X64445752Y-77508501D01*
X64528649Y-77542838D01*
X64536836Y-77543916D01*
X64536837Y-77543916D01*
X64548042Y-77545391D01*
X64579238Y-77549498D01*
X64647615Y-77558500D01*
X64647618Y-77558500D01*
X64647626Y-77558501D01*
X64679311Y-77562672D01*
X64687500Y-77563750D01*
X64719193Y-77559578D01*
X64735636Y-77558500D01*
X76117386Y-77558500D01*
X76133829Y-77559578D01*
X76165522Y-77563750D01*
X76173711Y-77562672D01*
X76205396Y-77558501D01*
X76205406Y-77558500D01*
X76205407Y-77558500D01*
X76205423Y-77558498D01*
X76304979Y-77545391D01*
X76316186Y-77543916D01*
X76316188Y-77543915D01*
X76324373Y-77542838D01*
X76472398Y-77481524D01*
X76481322Y-77474677D01*
X76567594Y-77408477D01*
X76567597Y-77408474D01*
X76592956Y-77389015D01*
X76599509Y-77383987D01*
X76604539Y-77377432D01*
X76618974Y-77358621D01*
X76629841Y-77346230D01*
X77665937Y-76310134D01*
X80746000Y-76310134D01*
X80752755Y-76372316D01*
X80803885Y-76508705D01*
X80891239Y-76625261D01*
X81007795Y-76712615D01*
X81144184Y-76763745D01*
X81206366Y-76770500D01*
X82752634Y-76770500D01*
X82814816Y-76763745D01*
X82951205Y-76712615D01*
X83067761Y-76625261D01*
X83155115Y-76508705D01*
X83206245Y-76372316D01*
X83213000Y-76310134D01*
X86746000Y-76310134D01*
X86752755Y-76372316D01*
X86803885Y-76508705D01*
X86891239Y-76625261D01*
X87007795Y-76712615D01*
X87144184Y-76763745D01*
X87206366Y-76770500D01*
X88752634Y-76770500D01*
X88814816Y-76763745D01*
X88951205Y-76712615D01*
X89067761Y-76625261D01*
X89155115Y-76508705D01*
X89206245Y-76372316D01*
X89213000Y-76310134D01*
X89213000Y-75591239D01*
X89233002Y-75523118D01*
X89249905Y-75502144D01*
X91706644Y-73045405D01*
X91768956Y-73011379D01*
X91795739Y-73008500D01*
X95319290Y-73008500D01*
X95387411Y-73028502D01*
X95412926Y-73050189D01*
X95430432Y-73069631D01*
X95438747Y-73078866D01*
X95444197Y-73082826D01*
X95573361Y-73176669D01*
X95593248Y-73191118D01*
X95599276Y-73193802D01*
X95599278Y-73193803D01*
X95728873Y-73251502D01*
X95767712Y-73268794D01*
X95842478Y-73284686D01*
X95948056Y-73307128D01*
X95948061Y-73307128D01*
X95954513Y-73308500D01*
X96145487Y-73308500D01*
X96151939Y-73307128D01*
X96151944Y-73307128D01*
X96257522Y-73284686D01*
X96332288Y-73268794D01*
X96371127Y-73251502D01*
X96500722Y-73193803D01*
X96500724Y-73193802D01*
X96506752Y-73191118D01*
X96532089Y-73172710D01*
X96586174Y-73133414D01*
X96661253Y-73078866D01*
X96669607Y-73069588D01*
X96784621Y-72941852D01*
X96784622Y-72941851D01*
X96789040Y-72936944D01*
X96859070Y-72815649D01*
X96881223Y-72777279D01*
X96881224Y-72777278D01*
X96884527Y-72771556D01*
X96943542Y-72589928D01*
X96946317Y-72563531D01*
X96962814Y-72406565D01*
X96963504Y-72400000D01*
X96952161Y-72292074D01*
X96944232Y-72216635D01*
X96944232Y-72216633D01*
X96943542Y-72210072D01*
X96884527Y-72028444D01*
X96874283Y-72010700D01*
X96833397Y-71939885D01*
X96789040Y-71863056D01*
X96752757Y-71822759D01*
X96665675Y-71726045D01*
X96665674Y-71726044D01*
X96661253Y-71721134D01*
X96506752Y-71608882D01*
X96500724Y-71606198D01*
X96500722Y-71606197D01*
X96338319Y-71533891D01*
X96338318Y-71533891D01*
X96332288Y-71531206D01*
X96225343Y-71508474D01*
X96151944Y-71492872D01*
X96151939Y-71492872D01*
X96145487Y-71491500D01*
X95954513Y-71491500D01*
X95948061Y-71492872D01*
X95948056Y-71492872D01*
X95874657Y-71508474D01*
X95767712Y-71531206D01*
X95761682Y-71533891D01*
X95761681Y-71533891D01*
X95599278Y-71606197D01*
X95599276Y-71606198D01*
X95593248Y-71608882D01*
X95438747Y-71721134D01*
X95434334Y-71726036D01*
X95434332Y-71726037D01*
X95412926Y-71749811D01*
X95352480Y-71787050D01*
X95319290Y-71791500D01*
X91539636Y-71791500D01*
X91523190Y-71790422D01*
X91499688Y-71787328D01*
X91491500Y-71786250D01*
X91483312Y-71787328D01*
X91451629Y-71791499D01*
X91451620Y-71791500D01*
X91451615Y-71791500D01*
X91332650Y-71807162D01*
X91325021Y-71810322D01*
X91192253Y-71865316D01*
X91192251Y-71865317D01*
X91184625Y-71868476D01*
X91163482Y-71884700D01*
X91089428Y-71941523D01*
X91089425Y-71941526D01*
X91089421Y-71941529D01*
X91064066Y-71960984D01*
X91064063Y-71960987D01*
X91057513Y-71966013D01*
X91052483Y-71972568D01*
X91038048Y-71991379D01*
X91027181Y-72003770D01*
X88014356Y-75016595D01*
X87952044Y-75050621D01*
X87925261Y-75053500D01*
X87206366Y-75053500D01*
X87144184Y-75060255D01*
X87007795Y-75111385D01*
X86891239Y-75198739D01*
X86803885Y-75315295D01*
X86752755Y-75451684D01*
X86746000Y-75513866D01*
X86746000Y-76310134D01*
X83213000Y-76310134D01*
X83213000Y-75513866D01*
X83206245Y-75451684D01*
X83155115Y-75315295D01*
X83067761Y-75198739D01*
X82951205Y-75111385D01*
X82814816Y-75060255D01*
X82752634Y-75053500D01*
X81206366Y-75053500D01*
X81144184Y-75060255D01*
X81007795Y-75111385D01*
X80891239Y-75198739D01*
X80803885Y-75315295D01*
X80752755Y-75451684D01*
X80746000Y-75513866D01*
X80746000Y-76310134D01*
X77665937Y-76310134D01*
X79346234Y-74629837D01*
X79358625Y-74618970D01*
X79377437Y-74604535D01*
X79383987Y-74599509D01*
X79408474Y-74567597D01*
X79408480Y-74567591D01*
X79476496Y-74478951D01*
X79476497Y-74478949D01*
X79481524Y-74472398D01*
X79542838Y-74324373D01*
X79554743Y-74233944D01*
X79558500Y-74205407D01*
X79558500Y-74205402D01*
X79563750Y-74165522D01*
X79559578Y-74133829D01*
X79558500Y-74117386D01*
X79558500Y-72606668D01*
X80746501Y-72606668D01*
X80746871Y-72613490D01*
X80752395Y-72664352D01*
X80756021Y-72679604D01*
X80801176Y-72800054D01*
X80809714Y-72815649D01*
X80886215Y-72917724D01*
X80898776Y-72930285D01*
X81000851Y-73006786D01*
X81016446Y-73015324D01*
X81136894Y-73060478D01*
X81152149Y-73064105D01*
X81203014Y-73069631D01*
X81209828Y-73070000D01*
X81707385Y-73070000D01*
X81722624Y-73065525D01*
X81723829Y-73064135D01*
X81725500Y-73056452D01*
X81725500Y-73051884D01*
X82233500Y-73051884D01*
X82237975Y-73067123D01*
X82239365Y-73068328D01*
X82247048Y-73069999D01*
X82749169Y-73069999D01*
X82755990Y-73069629D01*
X82806852Y-73064105D01*
X82822104Y-73060479D01*
X82942554Y-73015324D01*
X82958149Y-73006786D01*
X83060224Y-72930285D01*
X83072785Y-72917724D01*
X83149286Y-72815649D01*
X83157824Y-72800054D01*
X83202978Y-72679606D01*
X83206605Y-72664351D01*
X83212131Y-72613486D01*
X83212500Y-72606668D01*
X83212500Y-72484115D01*
X83208025Y-72468876D01*
X83206635Y-72467671D01*
X83198952Y-72466000D01*
X82251615Y-72466000D01*
X82236376Y-72470475D01*
X82235171Y-72471865D01*
X82233500Y-72479548D01*
X82233500Y-73051884D01*
X81725500Y-73051884D01*
X81725500Y-72484115D01*
X81721025Y-72468876D01*
X81719635Y-72467671D01*
X81711952Y-72466000D01*
X80764616Y-72466000D01*
X80749377Y-72470475D01*
X80748172Y-72471865D01*
X80746501Y-72479548D01*
X80746501Y-72606668D01*
X79558500Y-72606668D01*
X79558500Y-71854239D01*
X79578502Y-71786118D01*
X79595405Y-71765144D01*
X79665144Y-71695405D01*
X79727456Y-71661379D01*
X79754239Y-71658500D01*
X80622954Y-71658500D01*
X80691075Y-71678502D01*
X80737568Y-71732158D01*
X80748217Y-71798110D01*
X80746869Y-71810519D01*
X80746500Y-71817328D01*
X80746500Y-71939885D01*
X80750975Y-71955124D01*
X80752365Y-71956329D01*
X80760048Y-71958000D01*
X83194384Y-71958000D01*
X83209623Y-71953525D01*
X83210828Y-71952135D01*
X83212499Y-71944452D01*
X83212499Y-71817331D01*
X83212130Y-71810512D01*
X83210782Y-71798106D01*
X83223311Y-71728224D01*
X83271632Y-71676209D01*
X83336045Y-71658500D01*
X86622449Y-71658500D01*
X86690570Y-71678502D01*
X86737063Y-71732158D01*
X86747712Y-71798106D01*
X86746000Y-71813866D01*
X86746000Y-72610134D01*
X86752755Y-72672316D01*
X86803885Y-72808705D01*
X86891239Y-72925261D01*
X87007795Y-73012615D01*
X87144184Y-73063745D01*
X87206366Y-73070500D01*
X88752634Y-73070500D01*
X88814816Y-73063745D01*
X88951205Y-73012615D01*
X89067761Y-72925261D01*
X89155115Y-72808705D01*
X89206245Y-72672316D01*
X89213000Y-72610134D01*
X89213000Y-71813866D01*
X89209890Y-71785238D01*
X89222418Y-71715357D01*
X89270738Y-71663341D01*
X89318702Y-71646709D01*
X89328716Y-71645391D01*
X89328717Y-71645391D01*
X89339922Y-71643916D01*
X89339923Y-71643916D01*
X89348110Y-71642838D01*
X89496135Y-71581524D01*
X89506328Y-71573703D01*
X89591331Y-71508477D01*
X89591334Y-71508474D01*
X89616693Y-71489015D01*
X89623246Y-71483987D01*
X89628276Y-71477432D01*
X89642711Y-71458621D01*
X89653578Y-71446230D01*
X90196234Y-70903574D01*
X90208625Y-70892707D01*
X90227437Y-70878272D01*
X90233987Y-70873246D01*
X90258474Y-70841334D01*
X90258480Y-70841328D01*
X90326496Y-70752688D01*
X90326497Y-70752686D01*
X90331524Y-70746135D01*
X90381769Y-70624832D01*
X90392838Y-70598109D01*
X90408500Y-70479144D01*
X90408500Y-70479137D01*
X90413750Y-70439259D01*
X90409578Y-70407566D01*
X90408500Y-70391123D01*
X90408500Y-70370473D01*
X90428502Y-70302352D01*
X90440864Y-70286163D01*
X90534621Y-70182035D01*
X90534622Y-70182034D01*
X90539040Y-70177127D01*
X90634527Y-70011739D01*
X90693542Y-69830111D01*
X90694417Y-69821791D01*
X90712814Y-69646748D01*
X90713504Y-69640183D01*
X90707532Y-69583365D01*
X90694232Y-69456818D01*
X90694232Y-69456816D01*
X90693542Y-69450255D01*
X90634527Y-69268627D01*
X90539040Y-69103239D01*
X90530412Y-69093656D01*
X90415675Y-68966228D01*
X90415674Y-68966227D01*
X90411253Y-68961317D01*
X90256752Y-68849065D01*
X90250724Y-68846381D01*
X90250722Y-68846380D01*
X90088319Y-68774074D01*
X90088318Y-68774074D01*
X90082288Y-68771389D01*
X89988887Y-68751536D01*
X89901944Y-68733055D01*
X89901939Y-68733055D01*
X89895487Y-68731683D01*
X89704513Y-68731683D01*
X89698061Y-68733055D01*
X89698056Y-68733055D01*
X89611113Y-68751536D01*
X89517712Y-68771389D01*
X89511682Y-68774074D01*
X89511681Y-68774074D01*
X89349278Y-68846380D01*
X89349276Y-68846381D01*
X89343248Y-68849065D01*
X89188747Y-68961317D01*
X89184326Y-68966227D01*
X89184325Y-68966228D01*
X89069589Y-69093656D01*
X89060960Y-69103239D01*
X88965473Y-69268627D01*
X88906458Y-69450255D01*
X88905768Y-69456816D01*
X88905768Y-69456818D01*
X88892468Y-69583365D01*
X88886496Y-69640183D01*
X88887186Y-69646748D01*
X88905584Y-69821791D01*
X88906458Y-69830111D01*
X88965473Y-70011739D01*
X88968776Y-70017461D01*
X88968777Y-70017462D01*
X89060960Y-70177127D01*
X89059794Y-70177800D01*
X89081234Y-70237880D01*
X89065158Y-70307032D01*
X89044535Y-70334175D01*
X88974115Y-70404595D01*
X88911803Y-70438621D01*
X88885020Y-70441500D01*
X79498136Y-70441500D01*
X79481693Y-70440422D01*
X79450000Y-70436250D01*
X79441811Y-70437328D01*
X79410126Y-70441499D01*
X79410117Y-70441500D01*
X79410115Y-70441500D01*
X79410109Y-70441501D01*
X79410107Y-70441501D01*
X79310543Y-70454609D01*
X79299336Y-70456084D01*
X79299334Y-70456085D01*
X79291149Y-70457162D01*
X79143124Y-70518476D01*
X79112616Y-70541886D01*
X79047937Y-70591515D01*
X79047921Y-70591529D01*
X79022566Y-70610984D01*
X79022563Y-70610987D01*
X79016013Y-70616013D01*
X79010983Y-70622568D01*
X78996548Y-70641379D01*
X78985681Y-70653770D01*
X78553766Y-71085685D01*
X78541375Y-71096552D01*
X78516013Y-71116013D01*
X78491526Y-71147925D01*
X78491523Y-71147928D01*
X78491517Y-71147936D01*
X78424513Y-71235257D01*
X78418476Y-71243124D01*
X78357162Y-71391149D01*
X78356085Y-71399330D01*
X78356084Y-71399335D01*
X78355834Y-71401239D01*
X78355833Y-71401247D01*
X78341500Y-71510115D01*
X78341500Y-71510120D01*
X78336250Y-71550000D01*
X78339403Y-71573946D01*
X78340422Y-71581690D01*
X78341500Y-71598136D01*
X78341500Y-73861283D01*
X78321498Y-73929404D01*
X78304595Y-73950378D01*
X76956043Y-75298930D01*
X76893731Y-75332956D01*
X76822916Y-75327891D01*
X76766080Y-75285344D01*
X76757817Y-75272502D01*
X76755115Y-75265295D01*
X76749730Y-75258109D01*
X76673142Y-75155919D01*
X76667761Y-75148739D01*
X76551205Y-75061385D01*
X76414816Y-75010255D01*
X76352634Y-75003500D01*
X75669094Y-75003500D01*
X75600973Y-74983498D01*
X75579999Y-74966595D01*
X74821905Y-74208500D01*
X73871152Y-73257747D01*
X73863612Y-73249461D01*
X73859500Y-73242982D01*
X73851189Y-73235177D01*
X73809849Y-73196357D01*
X73807007Y-73193602D01*
X73787270Y-73173865D01*
X73784073Y-73171385D01*
X73775051Y-73163680D01*
X73763869Y-73153179D01*
X73742821Y-73133414D01*
X73735875Y-73129595D01*
X73735872Y-73129593D01*
X73725066Y-73123652D01*
X73708547Y-73112801D01*
X73708083Y-73112441D01*
X73692541Y-73100386D01*
X73685272Y-73097241D01*
X73685268Y-73097238D01*
X73651963Y-73082826D01*
X73641313Y-73077609D01*
X73602560Y-73056305D01*
X73582937Y-73051267D01*
X73564234Y-73044863D01*
X73552920Y-73039967D01*
X73552919Y-73039967D01*
X73545645Y-73036819D01*
X73537822Y-73035580D01*
X73537812Y-73035577D01*
X73501976Y-73029901D01*
X73490356Y-73027495D01*
X73455211Y-73018472D01*
X73455210Y-73018472D01*
X73447530Y-73016500D01*
X73427276Y-73016500D01*
X73407565Y-73014949D01*
X73399964Y-73013745D01*
X73387557Y-73011780D01*
X73345380Y-73015767D01*
X73343539Y-73015941D01*
X73331681Y-73016500D01*
X70813174Y-73016500D01*
X70745053Y-72996498D01*
X70698560Y-72942842D01*
X70688456Y-72872568D01*
X70712348Y-72814935D01*
X70749286Y-72765649D01*
X70757824Y-72750054D01*
X70802978Y-72629606D01*
X70806605Y-72614351D01*
X70812131Y-72563486D01*
X70812313Y-72560134D01*
X74346000Y-72560134D01*
X74352755Y-72622316D01*
X74403885Y-72758705D01*
X74491239Y-72875261D01*
X74607795Y-72962615D01*
X74744184Y-73013745D01*
X74806366Y-73020500D01*
X76352634Y-73020500D01*
X76414816Y-73013745D01*
X76551205Y-72962615D01*
X76667761Y-72875261D01*
X76755115Y-72758705D01*
X76806245Y-72622316D01*
X76813000Y-72560134D01*
X76813000Y-71763866D01*
X76806245Y-71701684D01*
X76755115Y-71565295D01*
X76667761Y-71448739D01*
X76551205Y-71361385D01*
X76414816Y-71310255D01*
X76352634Y-71303500D01*
X74806366Y-71303500D01*
X74744184Y-71310255D01*
X74607795Y-71361385D01*
X74491239Y-71448739D01*
X74403885Y-71565295D01*
X74352755Y-71701684D01*
X74346000Y-71763866D01*
X74346000Y-72560134D01*
X70812313Y-72560134D01*
X70812500Y-72556672D01*
X70812500Y-72434115D01*
X70808025Y-72418876D01*
X70806635Y-72417671D01*
X70798952Y-72416000D01*
X68364616Y-72416000D01*
X68349377Y-72420475D01*
X68348172Y-72421865D01*
X68346501Y-72429548D01*
X68346501Y-72556669D01*
X68346871Y-72563490D01*
X68352395Y-72614352D01*
X68356021Y-72629604D01*
X68401176Y-72750054D01*
X68409714Y-72765649D01*
X68446652Y-72814935D01*
X68471500Y-72881442D01*
X68456447Y-72950824D01*
X68406273Y-73001054D01*
X68345826Y-73016500D01*
X64812805Y-73016500D01*
X64744684Y-72996498D01*
X64698191Y-72942842D01*
X64688087Y-72872568D01*
X64711979Y-72814935D01*
X64763115Y-72746705D01*
X64814245Y-72610316D01*
X64821000Y-72548134D01*
X64821000Y-71889885D01*
X68346500Y-71889885D01*
X68350975Y-71905124D01*
X68352365Y-71906329D01*
X68360048Y-71908000D01*
X69307385Y-71908000D01*
X69322624Y-71903525D01*
X69323829Y-71902135D01*
X69325500Y-71894452D01*
X69325500Y-71889885D01*
X69833500Y-71889885D01*
X69837975Y-71905124D01*
X69839365Y-71906329D01*
X69847048Y-71908000D01*
X70794384Y-71908000D01*
X70809623Y-71903525D01*
X70810828Y-71902135D01*
X70812499Y-71894452D01*
X70812499Y-71767331D01*
X70812129Y-71760510D01*
X70806605Y-71709648D01*
X70802979Y-71694396D01*
X70757824Y-71573946D01*
X70749286Y-71558351D01*
X70672785Y-71456276D01*
X70660224Y-71443715D01*
X70558149Y-71367214D01*
X70542554Y-71358676D01*
X70422106Y-71313522D01*
X70406851Y-71309895D01*
X70355986Y-71304369D01*
X70349172Y-71304000D01*
X69851615Y-71304000D01*
X69836376Y-71308475D01*
X69835171Y-71309865D01*
X69833500Y-71317548D01*
X69833500Y-71889885D01*
X69325500Y-71889885D01*
X69325500Y-71322116D01*
X69321025Y-71306877D01*
X69319635Y-71305672D01*
X69311952Y-71304001D01*
X68809831Y-71304001D01*
X68803010Y-71304371D01*
X68752148Y-71309895D01*
X68736896Y-71313521D01*
X68616446Y-71358676D01*
X68600851Y-71367214D01*
X68498776Y-71443715D01*
X68486215Y-71456276D01*
X68409714Y-71558351D01*
X68401176Y-71573946D01*
X68356022Y-71694394D01*
X68352395Y-71709649D01*
X68346869Y-71760514D01*
X68346500Y-71767328D01*
X68346500Y-71889885D01*
X64821000Y-71889885D01*
X64821000Y-71751866D01*
X64814245Y-71689684D01*
X64763115Y-71553295D01*
X64675761Y-71436739D01*
X64559205Y-71349385D01*
X64422816Y-71298255D01*
X64360634Y-71291500D01*
X62814366Y-71291500D01*
X62752184Y-71298255D01*
X62615795Y-71349385D01*
X62499239Y-71436739D01*
X62411885Y-71553295D01*
X62360755Y-71689684D01*
X62354000Y-71751866D01*
X62354000Y-72548134D01*
X62360755Y-72610316D01*
X62411885Y-72746705D01*
X62463021Y-72814935D01*
X62487869Y-72881441D01*
X62472816Y-72950823D01*
X62422642Y-73001054D01*
X62362195Y-73016500D01*
X58812181Y-73016500D01*
X58744060Y-72996498D01*
X58697567Y-72942842D01*
X58687463Y-72872568D01*
X58711354Y-72814936D01*
X58757287Y-72753648D01*
X58765824Y-72738054D01*
X58810978Y-72617606D01*
X58814605Y-72602351D01*
X58820131Y-72551486D01*
X58820500Y-72544672D01*
X58820500Y-72422115D01*
X58816025Y-72406876D01*
X58814635Y-72405671D01*
X58806952Y-72404000D01*
X56372616Y-72404000D01*
X56357377Y-72408475D01*
X56356172Y-72409865D01*
X56354501Y-72417548D01*
X56354501Y-72544669D01*
X56354871Y-72551490D01*
X56360395Y-72602352D01*
X56364021Y-72617604D01*
X56409176Y-72738054D01*
X56417713Y-72753648D01*
X56463646Y-72814936D01*
X56488493Y-72881442D01*
X56473440Y-72950825D01*
X56423265Y-73001054D01*
X56362819Y-73016500D01*
X52758200Y-73016500D01*
X52690079Y-72996498D01*
X52670853Y-72980157D01*
X52670580Y-72980460D01*
X52665668Y-72976037D01*
X52661253Y-72971134D01*
X52605029Y-72930285D01*
X52512094Y-72862763D01*
X52512093Y-72862762D01*
X52506752Y-72858882D01*
X52500724Y-72856198D01*
X52500722Y-72856197D01*
X52338319Y-72783891D01*
X52338318Y-72783891D01*
X52332288Y-72781206D01*
X52226430Y-72758705D01*
X52151944Y-72742872D01*
X52151939Y-72742872D01*
X52145487Y-72741500D01*
X51954513Y-72741500D01*
X51948061Y-72742872D01*
X51948056Y-72742872D01*
X51767712Y-72781206D01*
X51767457Y-72780006D01*
X51703262Y-72781837D01*
X51642466Y-72745171D01*
X51611144Y-72681457D01*
X51609300Y-72659978D01*
X51609300Y-71877885D01*
X56354500Y-71877885D01*
X56358975Y-71893124D01*
X56360365Y-71894329D01*
X56368048Y-71896000D01*
X57315385Y-71896000D01*
X57330624Y-71891525D01*
X57331829Y-71890135D01*
X57333500Y-71882452D01*
X57333500Y-71877885D01*
X57841500Y-71877885D01*
X57845975Y-71893124D01*
X57847365Y-71894329D01*
X57855048Y-71896000D01*
X58802384Y-71896000D01*
X58817623Y-71891525D01*
X58818828Y-71890135D01*
X58820499Y-71882452D01*
X58820499Y-71755331D01*
X58820129Y-71748510D01*
X58814605Y-71697648D01*
X58810979Y-71682396D01*
X58765824Y-71561946D01*
X58757286Y-71546351D01*
X58680785Y-71444276D01*
X58668224Y-71431715D01*
X58566149Y-71355214D01*
X58550554Y-71346676D01*
X58430106Y-71301522D01*
X58414851Y-71297895D01*
X58363986Y-71292369D01*
X58357172Y-71292000D01*
X57859615Y-71292000D01*
X57844376Y-71296475D01*
X57843171Y-71297865D01*
X57841500Y-71305548D01*
X57841500Y-71877885D01*
X57333500Y-71877885D01*
X57333500Y-71310116D01*
X57329025Y-71294877D01*
X57327635Y-71293672D01*
X57319952Y-71292001D01*
X56817831Y-71292001D01*
X56811010Y-71292371D01*
X56760148Y-71297895D01*
X56744896Y-71301521D01*
X56624446Y-71346676D01*
X56608851Y-71355214D01*
X56506776Y-71431715D01*
X56494215Y-71444276D01*
X56417714Y-71546351D01*
X56409176Y-71561946D01*
X56364022Y-71682394D01*
X56360395Y-71697649D01*
X56354869Y-71748514D01*
X56354500Y-71755328D01*
X56354500Y-71877885D01*
X51609300Y-71877885D01*
X51609300Y-70506269D01*
X51610733Y-70487318D01*
X51612899Y-70473083D01*
X51612899Y-70473081D01*
X51613999Y-70465851D01*
X51613293Y-70457162D01*
X51609715Y-70413182D01*
X51609300Y-70402967D01*
X51609300Y-70394907D01*
X51607751Y-70381617D01*
X51606011Y-70366693D01*
X51605578Y-70362318D01*
X51600254Y-70296861D01*
X51600253Y-70296858D01*
X51599660Y-70289563D01*
X51597404Y-70282599D01*
X51596213Y-70276640D01*
X51594829Y-70270785D01*
X51593982Y-70263519D01*
X51569065Y-70194873D01*
X51567648Y-70190745D01*
X51547407Y-70128264D01*
X51547406Y-70128262D01*
X51545151Y-70121301D01*
X51541355Y-70115046D01*
X51538849Y-70109572D01*
X51536130Y-70104142D01*
X51533633Y-70097263D01*
X51493609Y-70036216D01*
X51491272Y-70032512D01*
X51456309Y-69974893D01*
X51456305Y-69974888D01*
X51453395Y-69970092D01*
X51445997Y-69961716D01*
X51446023Y-69961693D01*
X51443374Y-69958703D01*
X51440666Y-69955464D01*
X51436656Y-69949348D01*
X51431349Y-69944321D01*
X51431346Y-69944317D01*
X51380417Y-69896072D01*
X51377975Y-69893694D01*
X50715326Y-69231045D01*
X50681300Y-69168733D01*
X50686365Y-69097918D01*
X50715326Y-69052855D01*
X50870047Y-68898134D01*
X56279000Y-68898134D01*
X56285755Y-68960316D01*
X56336885Y-69096705D01*
X56424239Y-69213261D01*
X56540795Y-69300615D01*
X56677184Y-69351745D01*
X56739366Y-69358500D01*
X58335634Y-69358500D01*
X58397816Y-69351745D01*
X58534205Y-69300615D01*
X58650761Y-69213261D01*
X58738115Y-69096705D01*
X58789245Y-68960316D01*
X58796000Y-68898134D01*
X58796000Y-68894669D01*
X61179501Y-68894669D01*
X61179871Y-68901490D01*
X61185395Y-68952352D01*
X61189021Y-68967604D01*
X61234176Y-69088054D01*
X61242714Y-69103649D01*
X61319215Y-69205724D01*
X61331776Y-69218285D01*
X61433851Y-69294786D01*
X61449446Y-69303324D01*
X61569894Y-69348478D01*
X61585149Y-69352105D01*
X61636014Y-69357631D01*
X61642828Y-69358000D01*
X62165385Y-69358000D01*
X62180624Y-69353525D01*
X62181829Y-69352135D01*
X62183500Y-69344452D01*
X62183500Y-69339884D01*
X62691500Y-69339884D01*
X62695975Y-69355123D01*
X62697365Y-69356328D01*
X62705048Y-69357999D01*
X63232169Y-69357999D01*
X63238990Y-69357629D01*
X63289852Y-69352105D01*
X63305104Y-69348479D01*
X63425554Y-69303324D01*
X63441149Y-69294786D01*
X63543224Y-69218285D01*
X63555785Y-69205724D01*
X63632286Y-69103649D01*
X63640824Y-69088054D01*
X63685978Y-68967606D01*
X63689605Y-68952351D01*
X63695131Y-68901486D01*
X63695500Y-68894672D01*
X63695500Y-68622115D01*
X63691025Y-68606876D01*
X63689635Y-68605671D01*
X63681952Y-68604000D01*
X62709615Y-68604000D01*
X62694376Y-68608475D01*
X62693171Y-68609865D01*
X62691500Y-68617548D01*
X62691500Y-69339884D01*
X62183500Y-69339884D01*
X62183500Y-68622115D01*
X62179025Y-68606876D01*
X62177635Y-68605671D01*
X62169952Y-68604000D01*
X61197616Y-68604000D01*
X61182377Y-68608475D01*
X61181172Y-68609865D01*
X61179501Y-68617548D01*
X61179501Y-68894669D01*
X58796000Y-68894669D01*
X58796000Y-68077885D01*
X61179500Y-68077885D01*
X61183975Y-68093124D01*
X61185365Y-68094329D01*
X61193048Y-68096000D01*
X62165385Y-68096000D01*
X62180624Y-68091525D01*
X62181829Y-68090135D01*
X62183500Y-68082452D01*
X62183500Y-67360116D01*
X62179025Y-67344877D01*
X62177635Y-67343672D01*
X62169952Y-67342001D01*
X61642831Y-67342001D01*
X61636010Y-67342371D01*
X61585148Y-67347895D01*
X61569896Y-67351521D01*
X61449446Y-67396676D01*
X61433851Y-67405214D01*
X61331776Y-67481715D01*
X61319215Y-67494276D01*
X61242714Y-67596351D01*
X61234176Y-67611946D01*
X61189022Y-67732394D01*
X61185395Y-67747649D01*
X61179869Y-67798514D01*
X61179500Y-67805328D01*
X61179500Y-68077885D01*
X58796000Y-68077885D01*
X58796000Y-67801866D01*
X58789245Y-67739684D01*
X58738115Y-67603295D01*
X58650761Y-67486739D01*
X58534205Y-67399385D01*
X58397816Y-67348255D01*
X58335634Y-67341500D01*
X56739366Y-67341500D01*
X56677184Y-67348255D01*
X56540795Y-67399385D01*
X56424239Y-67486739D01*
X56336885Y-67603295D01*
X56285755Y-67739684D01*
X56279000Y-67801866D01*
X56279000Y-68898134D01*
X50870047Y-68898134D01*
X51085711Y-68682470D01*
X51100123Y-68670084D01*
X51111718Y-68661551D01*
X51111723Y-68661546D01*
X51117618Y-68657208D01*
X51122357Y-68651630D01*
X51122360Y-68651627D01*
X51151835Y-68616932D01*
X51158765Y-68609416D01*
X51164460Y-68603721D01*
X51182081Y-68581449D01*
X51184872Y-68578045D01*
X51227391Y-68527997D01*
X51227392Y-68527995D01*
X51232133Y-68522415D01*
X51235461Y-68515899D01*
X51238828Y-68510850D01*
X51241995Y-68505721D01*
X51246534Y-68499984D01*
X51277455Y-68433825D01*
X51279361Y-68429925D01*
X51312569Y-68364892D01*
X51314308Y-68357784D01*
X51316407Y-68352141D01*
X51318324Y-68346378D01*
X51321422Y-68339750D01*
X51336287Y-68268283D01*
X51337257Y-68263999D01*
X51337548Y-68262811D01*
X51354608Y-68193090D01*
X51355300Y-68181936D01*
X51355336Y-68181938D01*
X51355575Y-68177945D01*
X51355949Y-68173753D01*
X51357440Y-68166585D01*
X51355346Y-68089179D01*
X51355300Y-68085772D01*
X51355300Y-65574970D01*
X51356733Y-65556020D01*
X51358899Y-65541785D01*
X51358899Y-65541781D01*
X51359999Y-65534551D01*
X51355715Y-65481882D01*
X51355300Y-65471667D01*
X51355300Y-65463607D01*
X51352009Y-65435380D01*
X51351578Y-65431021D01*
X51346254Y-65365562D01*
X51346253Y-65365559D01*
X51345660Y-65358264D01*
X51343404Y-65351300D01*
X51342217Y-65345361D01*
X51340830Y-65339490D01*
X51339982Y-65332219D01*
X51337486Y-65325343D01*
X51337484Y-65325334D01*
X51315075Y-65263602D01*
X51313665Y-65259498D01*
X51291152Y-65190001D01*
X51287356Y-65183746D01*
X51284857Y-65178287D01*
X51282129Y-65172839D01*
X51279633Y-65165963D01*
X51239605Y-65104910D01*
X51237281Y-65101227D01*
X51225598Y-65081973D01*
X51199395Y-65038793D01*
X51191998Y-65030417D01*
X51192025Y-65030393D01*
X51189370Y-65027399D01*
X51186668Y-65024168D01*
X51182656Y-65018048D01*
X51126417Y-64964772D01*
X51123975Y-64962394D01*
X50647170Y-64485589D01*
X50634784Y-64471177D01*
X50626251Y-64459582D01*
X50626246Y-64459577D01*
X50621908Y-64453682D01*
X50616330Y-64448943D01*
X50616327Y-64448940D01*
X50581632Y-64419465D01*
X50574116Y-64412535D01*
X50568421Y-64406840D01*
X50562280Y-64401982D01*
X50546149Y-64389219D01*
X50542745Y-64386428D01*
X50492697Y-64343909D01*
X50492695Y-64343908D01*
X50487115Y-64339167D01*
X50480599Y-64335839D01*
X50475550Y-64332472D01*
X50470421Y-64329305D01*
X50464684Y-64324766D01*
X50398525Y-64293845D01*
X50394625Y-64291939D01*
X50329592Y-64258731D01*
X50322484Y-64256992D01*
X50316841Y-64254893D01*
X50311078Y-64252976D01*
X50304450Y-64249878D01*
X50232983Y-64235013D01*
X50228699Y-64234043D01*
X50157790Y-64216692D01*
X50152188Y-64216344D01*
X50152185Y-64216344D01*
X50146636Y-64216000D01*
X50146638Y-64215964D01*
X50142645Y-64215725D01*
X50138453Y-64215351D01*
X50131285Y-64213860D01*
X50065075Y-64215651D01*
X50053879Y-64215954D01*
X50050472Y-64216000D01*
X49699338Y-64216000D01*
X49631217Y-64195998D01*
X49584724Y-64142342D01*
X49574620Y-64072068D01*
X49584275Y-64039665D01*
X49586102Y-64036701D01*
X49591254Y-64021170D01*
X49637784Y-63880884D01*
X49639949Y-63874357D01*
X49640783Y-63866224D01*
X49646435Y-63811055D01*
X49650300Y-63773332D01*
X49650300Y-63404572D01*
X56254000Y-63404572D01*
X56264522Y-63505982D01*
X56318192Y-63666849D01*
X56407429Y-63811055D01*
X56412612Y-63816229D01*
X56414244Y-63818288D01*
X56440883Y-63884098D01*
X56441500Y-63896555D01*
X56441500Y-64221732D01*
X56421498Y-64289853D01*
X56416326Y-64297297D01*
X56336885Y-64403295D01*
X56285755Y-64539684D01*
X56279000Y-64601866D01*
X56279000Y-65698134D01*
X56285755Y-65760316D01*
X56336885Y-65896705D01*
X56424239Y-66013261D01*
X56540795Y-66100615D01*
X56677184Y-66151745D01*
X56739366Y-66158500D01*
X58335634Y-66158500D01*
X58397816Y-66151745D01*
X58534205Y-66100615D01*
X58650761Y-66013261D01*
X58738115Y-65896705D01*
X58789245Y-65760316D01*
X58796000Y-65698134D01*
X61179000Y-65698134D01*
X61185755Y-65760316D01*
X61236885Y-65896705D01*
X61324239Y-66013261D01*
X61440795Y-66100615D01*
X61577184Y-66151745D01*
X61639366Y-66158500D01*
X62497906Y-66158500D01*
X62566027Y-66178502D01*
X62587001Y-66195405D01*
X63610121Y-67218525D01*
X63644147Y-67280837D01*
X63639082Y-67351652D01*
X63596535Y-67408488D01*
X63530015Y-67433299D01*
X63460641Y-67418208D01*
X63445461Y-67408446D01*
X63441149Y-67405214D01*
X63425554Y-67396676D01*
X63305106Y-67351522D01*
X63289851Y-67347895D01*
X63238986Y-67342369D01*
X63232172Y-67342000D01*
X62709615Y-67342000D01*
X62694376Y-67346475D01*
X62693171Y-67347865D01*
X62691500Y-67355548D01*
X62691500Y-68077885D01*
X62695975Y-68093124D01*
X62697365Y-68094329D01*
X62705048Y-68096000D01*
X63677384Y-68096000D01*
X63692623Y-68091525D01*
X63693828Y-68090135D01*
X63695499Y-68082452D01*
X63695499Y-67805331D01*
X63695129Y-67798510D01*
X63689605Y-67747648D01*
X63685979Y-67732396D01*
X63640824Y-67611946D01*
X63632286Y-67596351D01*
X63629054Y-67592039D01*
X63604206Y-67525532D01*
X63619259Y-67456150D01*
X63669433Y-67405920D01*
X63738799Y-67390790D01*
X63805333Y-67415564D01*
X63818975Y-67427379D01*
X64592095Y-68200499D01*
X64626121Y-68262811D01*
X64629000Y-68289594D01*
X64629000Y-68898134D01*
X64635755Y-68960316D01*
X64686885Y-69096705D01*
X64774239Y-69213261D01*
X64890795Y-69300615D01*
X65027184Y-69351745D01*
X65089366Y-69358500D01*
X66685634Y-69358500D01*
X66747816Y-69351745D01*
X66884205Y-69300615D01*
X67000761Y-69213261D01*
X67088115Y-69096705D01*
X67139245Y-68960316D01*
X67146000Y-68898134D01*
X67146000Y-68894669D01*
X69529501Y-68894669D01*
X69529871Y-68901490D01*
X69535395Y-68952352D01*
X69539021Y-68967604D01*
X69584176Y-69088054D01*
X69592714Y-69103649D01*
X69669215Y-69205724D01*
X69681776Y-69218285D01*
X69783851Y-69294786D01*
X69799446Y-69303324D01*
X69919894Y-69348478D01*
X69935149Y-69352105D01*
X69986014Y-69357631D01*
X69992828Y-69358000D01*
X70515385Y-69358000D01*
X70530624Y-69353525D01*
X70531829Y-69352135D01*
X70533500Y-69344452D01*
X70533500Y-69339884D01*
X71041500Y-69339884D01*
X71045975Y-69355123D01*
X71047365Y-69356328D01*
X71055048Y-69357999D01*
X71582169Y-69357999D01*
X71588990Y-69357629D01*
X71639852Y-69352105D01*
X71655104Y-69348479D01*
X71775554Y-69303324D01*
X71791149Y-69294786D01*
X71893224Y-69218285D01*
X71905785Y-69205724D01*
X71982286Y-69103649D01*
X71990824Y-69088054D01*
X72035978Y-68967606D01*
X72039605Y-68952351D01*
X72045131Y-68901486D01*
X72045500Y-68894672D01*
X72045500Y-68622115D01*
X72041025Y-68606876D01*
X72039635Y-68605671D01*
X72031952Y-68604000D01*
X71059615Y-68604000D01*
X71044376Y-68608475D01*
X71043171Y-68609865D01*
X71041500Y-68617548D01*
X71041500Y-69339884D01*
X70533500Y-69339884D01*
X70533500Y-68622115D01*
X70529025Y-68606876D01*
X70527635Y-68605671D01*
X70519952Y-68604000D01*
X69547616Y-68604000D01*
X69532377Y-68608475D01*
X69531172Y-68609865D01*
X69529501Y-68617548D01*
X69529501Y-68894669D01*
X67146000Y-68894669D01*
X67146000Y-68077885D01*
X69529500Y-68077885D01*
X69533975Y-68093124D01*
X69535365Y-68094329D01*
X69543048Y-68096000D01*
X70515385Y-68096000D01*
X70530624Y-68091525D01*
X70531829Y-68090135D01*
X70533500Y-68082452D01*
X70533500Y-67360116D01*
X70529025Y-67344877D01*
X70527635Y-67343672D01*
X70519952Y-67342001D01*
X69992831Y-67342001D01*
X69986010Y-67342371D01*
X69935148Y-67347895D01*
X69919896Y-67351521D01*
X69799446Y-67396676D01*
X69783851Y-67405214D01*
X69681776Y-67481715D01*
X69669215Y-67494276D01*
X69592714Y-67596351D01*
X69584176Y-67611946D01*
X69539022Y-67732394D01*
X69535395Y-67747649D01*
X69529869Y-67798514D01*
X69529500Y-67805328D01*
X69529500Y-68077885D01*
X67146000Y-68077885D01*
X67146000Y-67801866D01*
X67139245Y-67739684D01*
X67088115Y-67603295D01*
X67000761Y-67486739D01*
X66884205Y-67399385D01*
X66747816Y-67348255D01*
X66685634Y-67341500D01*
X65577095Y-67341500D01*
X65508974Y-67321498D01*
X65488000Y-67304595D01*
X63732905Y-65549500D01*
X63698879Y-65487188D01*
X63696000Y-65460405D01*
X63696000Y-64601866D01*
X63689245Y-64539684D01*
X63638115Y-64403295D01*
X63550761Y-64286739D01*
X63434205Y-64199385D01*
X63297816Y-64148255D01*
X63235634Y-64141500D01*
X61639366Y-64141500D01*
X61577184Y-64148255D01*
X61440795Y-64199385D01*
X61324239Y-64286739D01*
X61236885Y-64403295D01*
X61185755Y-64539684D01*
X61179000Y-64601866D01*
X61179000Y-65698134D01*
X58796000Y-65698134D01*
X58796000Y-64601866D01*
X58789245Y-64539684D01*
X58738115Y-64403295D01*
X58650761Y-64286739D01*
X58568444Y-64225046D01*
X58563306Y-64221195D01*
X58520791Y-64164336D01*
X58515750Y-64093586D01*
X58521000Y-64069452D01*
X58521000Y-64064885D01*
X59029000Y-64064885D01*
X59033475Y-64080124D01*
X59034865Y-64081329D01*
X59041821Y-64082842D01*
X59045282Y-64082663D01*
X59136521Y-64073196D01*
X59149917Y-64070303D01*
X59297187Y-64021170D01*
X59310366Y-64014996D01*
X59442014Y-63933530D01*
X59453415Y-63924494D01*
X59562798Y-63814920D01*
X59571810Y-63803509D01*
X59653053Y-63671709D01*
X59659197Y-63658532D01*
X59708079Y-63511157D01*
X59710945Y-63497790D01*
X59720172Y-63407730D01*
X59720500Y-63401315D01*
X59720500Y-63372115D01*
X59716025Y-63356876D01*
X59714635Y-63355671D01*
X59706952Y-63354000D01*
X59047115Y-63354000D01*
X59031876Y-63358475D01*
X59030671Y-63359865D01*
X59029000Y-63367548D01*
X59029000Y-64064885D01*
X58521000Y-64064885D01*
X58521000Y-63059980D01*
X58541002Y-62991859D01*
X58594658Y-62945366D01*
X58647000Y-62933980D01*
X64490500Y-62933980D01*
X64558621Y-62953982D01*
X64605114Y-63007638D01*
X64616500Y-63059980D01*
X64616500Y-63454572D01*
X64627022Y-63555982D01*
X64680692Y-63716849D01*
X64769929Y-63861055D01*
X64775112Y-63866229D01*
X64776744Y-63868288D01*
X64803383Y-63934098D01*
X64804000Y-63946555D01*
X64804000Y-64206587D01*
X64783998Y-64274708D01*
X64774398Y-64286620D01*
X64774239Y-64286739D01*
X64773405Y-64287852D01*
X64773400Y-64287858D01*
X64739964Y-64332472D01*
X64686885Y-64403295D01*
X64635755Y-64539684D01*
X64629000Y-64601866D01*
X64629000Y-65698134D01*
X64635755Y-65760316D01*
X64686885Y-65896705D01*
X64774239Y-66013261D01*
X64890795Y-66100615D01*
X65027184Y-66151745D01*
X65089366Y-66158500D01*
X66685634Y-66158500D01*
X66747816Y-66151745D01*
X66884205Y-66100615D01*
X67000761Y-66013261D01*
X67088115Y-65896705D01*
X67139245Y-65760316D01*
X67146000Y-65698134D01*
X69529000Y-65698134D01*
X69535755Y-65760316D01*
X69586885Y-65896705D01*
X69674239Y-66013261D01*
X69790795Y-66100615D01*
X69927184Y-66151745D01*
X69989366Y-66158500D01*
X70847906Y-66158500D01*
X70916027Y-66178502D01*
X70937001Y-66195405D01*
X71960121Y-67218525D01*
X71994147Y-67280837D01*
X71989082Y-67351652D01*
X71946535Y-67408488D01*
X71880015Y-67433299D01*
X71810641Y-67418208D01*
X71795461Y-67408446D01*
X71791149Y-67405214D01*
X71775554Y-67396676D01*
X71655106Y-67351522D01*
X71639851Y-67347895D01*
X71588986Y-67342369D01*
X71582172Y-67342000D01*
X71059615Y-67342000D01*
X71044376Y-67346475D01*
X71043171Y-67347865D01*
X71041500Y-67355548D01*
X71041500Y-68077885D01*
X71045975Y-68093124D01*
X71047365Y-68094329D01*
X71055048Y-68096000D01*
X72027384Y-68096000D01*
X72042623Y-68091525D01*
X72043828Y-68090135D01*
X72045499Y-68082452D01*
X72045499Y-67805331D01*
X72045129Y-67798510D01*
X72039605Y-67747648D01*
X72035979Y-67732396D01*
X71990824Y-67611946D01*
X71982286Y-67596351D01*
X71979054Y-67592039D01*
X71954206Y-67525532D01*
X71969259Y-67456150D01*
X72019433Y-67405920D01*
X72088799Y-67390790D01*
X72155333Y-67415564D01*
X72168975Y-67427379D01*
X72992095Y-68250499D01*
X73026121Y-68312811D01*
X73029000Y-68339594D01*
X73029000Y-68898134D01*
X73035755Y-68960316D01*
X73086885Y-69096705D01*
X73174239Y-69213261D01*
X73290795Y-69300615D01*
X73427184Y-69351745D01*
X73489366Y-69358500D01*
X75085634Y-69358500D01*
X75147816Y-69351745D01*
X75284205Y-69300615D01*
X75400761Y-69213261D01*
X75488115Y-69096705D01*
X75539245Y-68960316D01*
X75546000Y-68898134D01*
X75546000Y-68894669D01*
X77929501Y-68894669D01*
X77929871Y-68901490D01*
X77935395Y-68952352D01*
X77939021Y-68967604D01*
X77984176Y-69088054D01*
X77992714Y-69103649D01*
X78069215Y-69205724D01*
X78081776Y-69218285D01*
X78183851Y-69294786D01*
X78199446Y-69303324D01*
X78319894Y-69348478D01*
X78335149Y-69352105D01*
X78386014Y-69357631D01*
X78392828Y-69358000D01*
X78915385Y-69358000D01*
X78930624Y-69353525D01*
X78931829Y-69352135D01*
X78933500Y-69344452D01*
X78933500Y-69339884D01*
X79441500Y-69339884D01*
X79445975Y-69355123D01*
X79447365Y-69356328D01*
X79455048Y-69357999D01*
X79982169Y-69357999D01*
X79988990Y-69357629D01*
X80039852Y-69352105D01*
X80055104Y-69348479D01*
X80175554Y-69303324D01*
X80191149Y-69294786D01*
X80293224Y-69218285D01*
X80305785Y-69205724D01*
X80382286Y-69103649D01*
X80390824Y-69088054D01*
X80435978Y-68967606D01*
X80439605Y-68952351D01*
X80445131Y-68901486D01*
X80445500Y-68894672D01*
X80445500Y-68622115D01*
X80441025Y-68606876D01*
X80439635Y-68605671D01*
X80431952Y-68604000D01*
X79459615Y-68604000D01*
X79444376Y-68608475D01*
X79443171Y-68609865D01*
X79441500Y-68617548D01*
X79441500Y-69339884D01*
X78933500Y-69339884D01*
X78933500Y-68622115D01*
X78929025Y-68606876D01*
X78927635Y-68605671D01*
X78919952Y-68604000D01*
X77947616Y-68604000D01*
X77932377Y-68608475D01*
X77931172Y-68609865D01*
X77929501Y-68617548D01*
X77929501Y-68894669D01*
X75546000Y-68894669D01*
X75546000Y-68077885D01*
X77929500Y-68077885D01*
X77933975Y-68093124D01*
X77935365Y-68094329D01*
X77943048Y-68096000D01*
X78915385Y-68096000D01*
X78930624Y-68091525D01*
X78931829Y-68090135D01*
X78933500Y-68082452D01*
X78933500Y-67360116D01*
X78929025Y-67344877D01*
X78927635Y-67343672D01*
X78919952Y-67342001D01*
X78392831Y-67342001D01*
X78386010Y-67342371D01*
X78335148Y-67347895D01*
X78319896Y-67351521D01*
X78199446Y-67396676D01*
X78183851Y-67405214D01*
X78081776Y-67481715D01*
X78069215Y-67494276D01*
X77992714Y-67596351D01*
X77984176Y-67611946D01*
X77939022Y-67732394D01*
X77935395Y-67747649D01*
X77929869Y-67798514D01*
X77929500Y-67805328D01*
X77929500Y-68077885D01*
X75546000Y-68077885D01*
X75546000Y-67801866D01*
X75539245Y-67739684D01*
X75488115Y-67603295D01*
X75400761Y-67486739D01*
X75284205Y-67399385D01*
X75147816Y-67348255D01*
X75085634Y-67341500D01*
X73927095Y-67341500D01*
X73858974Y-67321498D01*
X73838000Y-67304595D01*
X72082905Y-65549500D01*
X72048879Y-65487188D01*
X72046000Y-65460405D01*
X72046000Y-64601866D01*
X72039245Y-64539684D01*
X71988115Y-64403295D01*
X71900761Y-64286739D01*
X71784205Y-64199385D01*
X71647816Y-64148255D01*
X71585634Y-64141500D01*
X69989366Y-64141500D01*
X69927184Y-64148255D01*
X69790795Y-64199385D01*
X69674239Y-64286739D01*
X69586885Y-64403295D01*
X69535755Y-64539684D01*
X69529000Y-64601866D01*
X69529000Y-65698134D01*
X67146000Y-65698134D01*
X67146000Y-64601866D01*
X67139245Y-64539684D01*
X67088115Y-64403295D01*
X67000761Y-64286739D01*
X66963390Y-64258731D01*
X66933406Y-64236259D01*
X66890891Y-64179400D01*
X66887583Y-64133000D01*
X66883500Y-64133000D01*
X66883500Y-64114885D01*
X67391500Y-64114885D01*
X67395975Y-64130124D01*
X67397365Y-64131329D01*
X67404321Y-64132842D01*
X67407782Y-64132663D01*
X67499021Y-64123196D01*
X67512417Y-64120303D01*
X67659687Y-64071170D01*
X67672866Y-64064996D01*
X67804514Y-63983530D01*
X67815915Y-63974494D01*
X67925298Y-63864920D01*
X67934310Y-63853509D01*
X68015553Y-63721709D01*
X68021697Y-63708532D01*
X68070579Y-63561157D01*
X68073445Y-63547790D01*
X68082672Y-63457730D01*
X68083000Y-63451315D01*
X68083000Y-63422115D01*
X68078525Y-63406876D01*
X68077135Y-63405671D01*
X68069452Y-63404000D01*
X67409615Y-63404000D01*
X67394376Y-63408475D01*
X67393171Y-63409865D01*
X67391500Y-63417548D01*
X67391500Y-64114885D01*
X66883500Y-64114885D01*
X66883500Y-63109980D01*
X66903502Y-63041859D01*
X66957158Y-62995366D01*
X67009500Y-62983980D01*
X72890500Y-62983980D01*
X72958621Y-63003982D01*
X73005114Y-63057638D01*
X73016500Y-63109980D01*
X73016500Y-63454572D01*
X73027022Y-63555982D01*
X73080692Y-63716849D01*
X73169929Y-63861055D01*
X73175112Y-63866229D01*
X73176744Y-63868288D01*
X73203383Y-63934098D01*
X73204000Y-63946555D01*
X73204000Y-64206587D01*
X73183998Y-64274708D01*
X73174398Y-64286620D01*
X73174239Y-64286739D01*
X73173405Y-64287852D01*
X73173400Y-64287858D01*
X73139964Y-64332472D01*
X73086885Y-64403295D01*
X73035755Y-64539684D01*
X73029000Y-64601866D01*
X73029000Y-65698134D01*
X73035755Y-65760316D01*
X73086885Y-65896705D01*
X73174239Y-66013261D01*
X73290795Y-66100615D01*
X73427184Y-66151745D01*
X73489366Y-66158500D01*
X75085634Y-66158500D01*
X75147816Y-66151745D01*
X75284205Y-66100615D01*
X75400761Y-66013261D01*
X75488115Y-65896705D01*
X75539245Y-65760316D01*
X75546000Y-65698134D01*
X77929000Y-65698134D01*
X77935755Y-65760316D01*
X77986885Y-65896705D01*
X78074239Y-66013261D01*
X78190795Y-66100615D01*
X78327184Y-66151745D01*
X78389366Y-66158500D01*
X79247906Y-66158500D01*
X79316027Y-66178502D01*
X79337001Y-66195405D01*
X80360121Y-67218525D01*
X80394147Y-67280837D01*
X80389082Y-67351652D01*
X80346535Y-67408488D01*
X80280015Y-67433299D01*
X80210641Y-67418208D01*
X80195461Y-67408446D01*
X80191149Y-67405214D01*
X80175554Y-67396676D01*
X80055106Y-67351522D01*
X80039851Y-67347895D01*
X79988986Y-67342369D01*
X79982172Y-67342000D01*
X79459615Y-67342000D01*
X79444376Y-67346475D01*
X79443171Y-67347865D01*
X79441500Y-67355548D01*
X79441500Y-68077885D01*
X79445975Y-68093124D01*
X79447365Y-68094329D01*
X79455048Y-68096000D01*
X80427384Y-68096000D01*
X80442623Y-68091525D01*
X80443828Y-68090135D01*
X80445499Y-68082452D01*
X80445499Y-67805331D01*
X80445129Y-67798510D01*
X80439605Y-67747648D01*
X80435979Y-67732396D01*
X80390824Y-67611946D01*
X80382286Y-67596351D01*
X80379054Y-67592039D01*
X80354206Y-67525532D01*
X80369259Y-67456150D01*
X80419433Y-67405920D01*
X80488799Y-67390790D01*
X80555333Y-67415564D01*
X80568975Y-67427379D01*
X81242095Y-68100499D01*
X81276121Y-68162811D01*
X81279000Y-68189594D01*
X81279000Y-68898134D01*
X81285755Y-68960316D01*
X81336885Y-69096705D01*
X81424239Y-69213261D01*
X81540795Y-69300615D01*
X81677184Y-69351745D01*
X81739366Y-69358500D01*
X83335634Y-69358500D01*
X83397816Y-69351745D01*
X83534205Y-69300615D01*
X83650761Y-69213261D01*
X83738115Y-69096705D01*
X83789245Y-68960316D01*
X83796000Y-68898134D01*
X83796000Y-68894669D01*
X86179501Y-68894669D01*
X86179871Y-68901490D01*
X86185395Y-68952352D01*
X86189021Y-68967604D01*
X86234176Y-69088054D01*
X86242714Y-69103649D01*
X86319215Y-69205724D01*
X86331776Y-69218285D01*
X86433851Y-69294786D01*
X86449446Y-69303324D01*
X86569894Y-69348478D01*
X86585149Y-69352105D01*
X86636014Y-69357631D01*
X86642828Y-69358000D01*
X87165385Y-69358000D01*
X87180624Y-69353525D01*
X87181829Y-69352135D01*
X87183500Y-69344452D01*
X87183500Y-69339884D01*
X87691500Y-69339884D01*
X87695975Y-69355123D01*
X87697365Y-69356328D01*
X87705048Y-69357999D01*
X88232169Y-69357999D01*
X88238990Y-69357629D01*
X88289852Y-69352105D01*
X88305104Y-69348479D01*
X88425554Y-69303324D01*
X88441149Y-69294786D01*
X88543224Y-69218285D01*
X88555785Y-69205724D01*
X88632286Y-69103649D01*
X88640824Y-69088054D01*
X88685978Y-68967606D01*
X88689605Y-68952351D01*
X88695131Y-68901486D01*
X88695500Y-68894672D01*
X88695500Y-68622115D01*
X88691025Y-68606876D01*
X88689635Y-68605671D01*
X88681952Y-68604000D01*
X87709615Y-68604000D01*
X87694376Y-68608475D01*
X87693171Y-68609865D01*
X87691500Y-68617548D01*
X87691500Y-69339884D01*
X87183500Y-69339884D01*
X87183500Y-68622115D01*
X87179025Y-68606876D01*
X87177635Y-68605671D01*
X87169952Y-68604000D01*
X86197616Y-68604000D01*
X86182377Y-68608475D01*
X86181172Y-68609865D01*
X86179501Y-68617548D01*
X86179501Y-68894669D01*
X83796000Y-68894669D01*
X83796000Y-68077885D01*
X86179500Y-68077885D01*
X86183975Y-68093124D01*
X86185365Y-68094329D01*
X86193048Y-68096000D01*
X87165385Y-68096000D01*
X87180624Y-68091525D01*
X87181829Y-68090135D01*
X87183500Y-68082452D01*
X87183500Y-68077885D01*
X87691500Y-68077885D01*
X87695975Y-68093124D01*
X87697365Y-68094329D01*
X87705048Y-68096000D01*
X88677384Y-68096000D01*
X88692623Y-68091525D01*
X88693828Y-68090135D01*
X88695499Y-68082452D01*
X88695499Y-67805331D01*
X88695129Y-67798510D01*
X88689605Y-67747648D01*
X88685979Y-67732396D01*
X88640824Y-67611946D01*
X88632286Y-67596351D01*
X88555785Y-67494276D01*
X88543224Y-67481715D01*
X88441149Y-67405214D01*
X88425554Y-67396676D01*
X88305106Y-67351522D01*
X88289851Y-67347895D01*
X88238986Y-67342369D01*
X88232172Y-67342000D01*
X87709615Y-67342000D01*
X87694376Y-67346475D01*
X87693171Y-67347865D01*
X87691500Y-67355548D01*
X87691500Y-68077885D01*
X87183500Y-68077885D01*
X87183500Y-67360116D01*
X87179025Y-67344877D01*
X87177635Y-67343672D01*
X87169952Y-67342001D01*
X86642831Y-67342001D01*
X86636010Y-67342371D01*
X86585148Y-67347895D01*
X86569896Y-67351521D01*
X86449446Y-67396676D01*
X86433851Y-67405214D01*
X86331776Y-67481715D01*
X86319215Y-67494276D01*
X86242714Y-67596351D01*
X86234176Y-67611946D01*
X86189022Y-67732394D01*
X86185395Y-67747649D01*
X86179869Y-67798514D01*
X86179500Y-67805328D01*
X86179500Y-68077885D01*
X83796000Y-68077885D01*
X83796000Y-67801866D01*
X83789245Y-67739684D01*
X83738115Y-67603295D01*
X83650761Y-67486739D01*
X83534205Y-67399385D01*
X83397816Y-67348255D01*
X83335634Y-67341500D01*
X82327095Y-67341500D01*
X82258974Y-67321498D01*
X82238000Y-67304595D01*
X80482905Y-65549500D01*
X80448879Y-65487188D01*
X80446000Y-65460405D01*
X80446000Y-64601866D01*
X80439245Y-64539684D01*
X80388115Y-64403295D01*
X80300761Y-64286739D01*
X80184205Y-64199385D01*
X80047816Y-64148255D01*
X79985634Y-64141500D01*
X78389366Y-64141500D01*
X78327184Y-64148255D01*
X78190795Y-64199385D01*
X78074239Y-64286739D01*
X77986885Y-64403295D01*
X77935755Y-64539684D01*
X77929000Y-64601866D01*
X77929000Y-65698134D01*
X75546000Y-65698134D01*
X75546000Y-64601866D01*
X75539245Y-64539684D01*
X75488115Y-64403295D01*
X75400761Y-64286739D01*
X75363390Y-64258731D01*
X75333406Y-64236259D01*
X75290891Y-64179400D01*
X75287583Y-64133000D01*
X75283500Y-64133000D01*
X75283500Y-64114885D01*
X75791500Y-64114885D01*
X75795975Y-64130124D01*
X75797365Y-64131329D01*
X75804321Y-64132842D01*
X75807782Y-64132663D01*
X75899021Y-64123196D01*
X75912417Y-64120303D01*
X76059687Y-64071170D01*
X76072866Y-64064996D01*
X76204514Y-63983530D01*
X76215915Y-63974494D01*
X76325298Y-63864920D01*
X76334310Y-63853509D01*
X76415553Y-63721709D01*
X76421697Y-63708532D01*
X76470579Y-63561157D01*
X76473445Y-63547790D01*
X76482672Y-63457730D01*
X76483000Y-63451315D01*
X76483000Y-63422115D01*
X76478525Y-63406876D01*
X76477135Y-63405671D01*
X76469452Y-63404000D01*
X75809615Y-63404000D01*
X75794376Y-63408475D01*
X75793171Y-63409865D01*
X75791500Y-63417548D01*
X75791500Y-64114885D01*
X75283500Y-64114885D01*
X75283500Y-63109980D01*
X75303502Y-63041859D01*
X75357158Y-62995366D01*
X75409500Y-62983980D01*
X81140500Y-62983980D01*
X81208621Y-63003982D01*
X81255114Y-63057638D01*
X81266500Y-63109980D01*
X81266500Y-63454572D01*
X81277022Y-63555982D01*
X81330692Y-63716849D01*
X81419929Y-63861055D01*
X81539947Y-63980864D01*
X81546178Y-63984705D01*
X81551923Y-63989242D01*
X81550872Y-63990573D01*
X81592354Y-64036656D01*
X81603785Y-64106726D01*
X81575519Y-64171853D01*
X81543094Y-64198523D01*
X81540795Y-64199385D01*
X81533612Y-64204769D01*
X81533611Y-64204769D01*
X81506556Y-64225046D01*
X81424239Y-64286739D01*
X81336885Y-64403295D01*
X81285755Y-64539684D01*
X81279000Y-64601866D01*
X81279000Y-65698134D01*
X81285755Y-65760316D01*
X81336885Y-65896705D01*
X81424239Y-66013261D01*
X81540795Y-66100615D01*
X81677184Y-66151745D01*
X81739366Y-66158500D01*
X83335634Y-66158500D01*
X83397816Y-66151745D01*
X83534205Y-66100615D01*
X83650761Y-66013261D01*
X83738115Y-65896705D01*
X83789245Y-65760316D01*
X83796000Y-65698134D01*
X83796000Y-64601866D01*
X83789245Y-64539684D01*
X83738115Y-64403295D01*
X83650761Y-64286739D01*
X83613390Y-64258731D01*
X83583406Y-64236259D01*
X83540891Y-64179400D01*
X83537583Y-64133000D01*
X83533500Y-64133000D01*
X83533500Y-64114885D01*
X84041500Y-64114885D01*
X84045975Y-64130124D01*
X84047365Y-64131329D01*
X84054321Y-64132842D01*
X84057782Y-64132663D01*
X84149021Y-64123196D01*
X84162417Y-64120303D01*
X84309687Y-64071170D01*
X84322866Y-64064996D01*
X84454514Y-63983530D01*
X84465915Y-63974494D01*
X84575298Y-63864920D01*
X84584310Y-63853509D01*
X84665553Y-63721709D01*
X84671697Y-63708532D01*
X84720579Y-63561157D01*
X84723445Y-63547790D01*
X84732672Y-63457730D01*
X84733000Y-63451315D01*
X84733000Y-63422115D01*
X84728525Y-63406876D01*
X84727135Y-63405671D01*
X84719452Y-63404000D01*
X84059615Y-63404000D01*
X84044376Y-63408475D01*
X84043171Y-63409865D01*
X84041500Y-63417548D01*
X84041500Y-64114885D01*
X83533500Y-64114885D01*
X83533500Y-63109980D01*
X83553502Y-63041859D01*
X83607158Y-62995366D01*
X83659500Y-62983980D01*
X91409109Y-62983980D01*
X91477230Y-63003982D01*
X91498204Y-63020885D01*
X93828724Y-65351405D01*
X93862750Y-65413717D01*
X93857685Y-65484532D01*
X93815138Y-65541368D01*
X93748618Y-65566179D01*
X93739629Y-65566500D01*
X93474409Y-65566501D01*
X93468366Y-65566501D01*
X93465508Y-65566764D01*
X93465499Y-65566764D01*
X93429996Y-65570026D01*
X93394938Y-65573247D01*
X93388560Y-65575246D01*
X93388559Y-65575246D01*
X93238550Y-65622256D01*
X93238548Y-65622257D01*
X93231301Y-65624528D01*
X93084619Y-65713361D01*
X92989095Y-65808885D01*
X92926783Y-65842911D01*
X92855968Y-65837846D01*
X92810905Y-65808885D01*
X92715381Y-65713361D01*
X92568699Y-65624528D01*
X92561452Y-65622257D01*
X92561450Y-65622256D01*
X92495164Y-65601483D01*
X92405062Y-65573247D01*
X92331635Y-65566500D01*
X92315386Y-65566500D01*
X92074950Y-65566501D01*
X92006831Y-65546499D01*
X91985856Y-65529596D01*
X91198655Y-64742395D01*
X91190665Y-64733615D01*
X91190663Y-64733613D01*
X91186416Y-64726920D01*
X91134742Y-64678395D01*
X91131901Y-64675641D01*
X91111333Y-64655073D01*
X91107826Y-64652353D01*
X91098804Y-64644647D01*
X91070913Y-64618456D01*
X91065133Y-64613028D01*
X91058181Y-64609206D01*
X91046342Y-64602697D01*
X91029818Y-64591843D01*
X91019132Y-64583555D01*
X91012868Y-64578696D01*
X91005596Y-64575549D01*
X91005594Y-64575548D01*
X90970465Y-64560346D01*
X90959805Y-64555124D01*
X90926284Y-64536695D01*
X90926282Y-64536694D01*
X90919337Y-64532876D01*
X90898559Y-64527541D01*
X90879869Y-64521142D01*
X90860176Y-64512620D01*
X90814552Y-64505394D01*
X90802929Y-64502987D01*
X90774928Y-64495798D01*
X90758188Y-64491500D01*
X90736741Y-64491500D01*
X90717031Y-64489949D01*
X90703677Y-64487834D01*
X90695848Y-64486594D01*
X90649859Y-64490941D01*
X90638004Y-64491500D01*
X88758509Y-64491500D01*
X88690388Y-64471498D01*
X88643895Y-64417842D01*
X88641597Y-64412306D01*
X88641267Y-64411703D01*
X88638115Y-64403295D01*
X88550761Y-64286739D01*
X88434205Y-64199385D01*
X88297816Y-64148255D01*
X88235634Y-64141500D01*
X86639366Y-64141500D01*
X86577184Y-64148255D01*
X86440795Y-64199385D01*
X86324239Y-64286739D01*
X86236885Y-64403295D01*
X86185755Y-64539684D01*
X86179000Y-64601866D01*
X86179000Y-65698134D01*
X86185755Y-65760316D01*
X86236885Y-65896705D01*
X86324239Y-66013261D01*
X86440795Y-66100615D01*
X86577184Y-66151745D01*
X86639366Y-66158500D01*
X88235634Y-66158500D01*
X88297816Y-66151745D01*
X88434205Y-66100615D01*
X88550761Y-66013261D01*
X88638115Y-65896705D01*
X88641267Y-65888296D01*
X88645577Y-65880425D01*
X88647241Y-65881336D01*
X88683163Y-65833510D01*
X88749724Y-65808807D01*
X88758509Y-65808500D01*
X90350050Y-65808500D01*
X90418171Y-65828502D01*
X90439145Y-65845405D01*
X91129596Y-66535856D01*
X91163622Y-66598168D01*
X91166501Y-66624951D01*
X91166501Y-66881634D01*
X91166764Y-66884492D01*
X91166764Y-66884501D01*
X91169207Y-66911089D01*
X91173247Y-66955062D01*
X91175246Y-66961440D01*
X91175246Y-66961441D01*
X91196244Y-67028444D01*
X91224528Y-67118699D01*
X91313361Y-67265381D01*
X91434619Y-67386639D01*
X91581301Y-67475472D01*
X91588548Y-67477743D01*
X91588550Y-67477744D01*
X91631074Y-67491070D01*
X91744938Y-67526753D01*
X91818365Y-67533500D01*
X91826208Y-67533500D01*
X92016015Y-67533499D01*
X92084135Y-67553501D01*
X92130628Y-67607156D01*
X92141031Y-67666023D01*
X92141791Y-67666053D01*
X92141693Y-67668542D01*
X92141500Y-67670998D01*
X92141500Y-68828000D01*
X92121498Y-68896121D01*
X92067842Y-68942614D01*
X92015500Y-68954000D01*
X91783498Y-68954000D01*
X91781050Y-68954193D01*
X91781042Y-68954193D01*
X91752579Y-68956433D01*
X91752574Y-68956434D01*
X91746169Y-68956938D01*
X91670692Y-68978866D01*
X91594012Y-69001143D01*
X91594010Y-69001144D01*
X91586399Y-69003355D01*
X91579572Y-69007392D01*
X91579573Y-69007392D01*
X91450020Y-69084009D01*
X91450017Y-69084011D01*
X91443193Y-69088047D01*
X91325547Y-69205693D01*
X91321511Y-69212517D01*
X91321509Y-69212520D01*
X91291712Y-69262904D01*
X91240855Y-69348899D01*
X91238644Y-69356510D01*
X91238643Y-69356512D01*
X91227916Y-69393435D01*
X91194438Y-69508669D01*
X91191500Y-69545998D01*
X91191500Y-70854002D01*
X91191693Y-70856450D01*
X91191693Y-70856458D01*
X91193015Y-70873246D01*
X91194438Y-70891331D01*
X91240855Y-71051101D01*
X91245231Y-71058500D01*
X91321509Y-71187480D01*
X91321511Y-71187483D01*
X91325547Y-71194307D01*
X91443193Y-71311953D01*
X91450017Y-71315989D01*
X91450020Y-71315991D01*
X91528421Y-71362357D01*
X91586399Y-71396645D01*
X91594010Y-71398856D01*
X91594012Y-71398857D01*
X91602239Y-71401247D01*
X91746169Y-71443062D01*
X91752574Y-71443566D01*
X91752579Y-71443567D01*
X91781042Y-71445807D01*
X91781050Y-71445807D01*
X91783498Y-71446000D01*
X92216502Y-71446000D01*
X92218950Y-71445807D01*
X92218958Y-71445807D01*
X92247421Y-71443567D01*
X92247426Y-71443566D01*
X92253831Y-71443062D01*
X92397761Y-71401247D01*
X92405988Y-71398857D01*
X92405990Y-71398856D01*
X92413601Y-71396645D01*
X92471579Y-71362357D01*
X92549980Y-71315991D01*
X92549983Y-71315989D01*
X92556807Y-71311953D01*
X92674453Y-71194307D01*
X92678489Y-71187483D01*
X92678491Y-71187480D01*
X92754769Y-71058500D01*
X92759145Y-71051101D01*
X92805562Y-70891331D01*
X92806986Y-70873246D01*
X92808307Y-70856458D01*
X92808307Y-70856450D01*
X92808500Y-70854002D01*
X92808500Y-70815700D01*
X92828502Y-70747579D01*
X92862740Y-70714590D01*
X92861845Y-70713437D01*
X92868107Y-70708580D01*
X92874934Y-70704542D01*
X92880545Y-70698931D01*
X92886800Y-70694079D01*
X92888607Y-70696408D01*
X92938717Y-70669045D01*
X93009532Y-70674110D01*
X93066368Y-70716657D01*
X93091179Y-70783177D01*
X93091500Y-70792166D01*
X93091500Y-70854002D01*
X93091693Y-70856450D01*
X93091693Y-70856458D01*
X93093015Y-70873246D01*
X93094438Y-70891331D01*
X93140855Y-71051101D01*
X93145231Y-71058500D01*
X93221509Y-71187480D01*
X93221511Y-71187483D01*
X93225547Y-71194307D01*
X93343193Y-71311953D01*
X93350017Y-71315989D01*
X93350020Y-71315991D01*
X93428421Y-71362357D01*
X93486399Y-71396645D01*
X93494010Y-71398856D01*
X93494012Y-71398857D01*
X93502239Y-71401247D01*
X93646169Y-71443062D01*
X93652574Y-71443566D01*
X93652579Y-71443567D01*
X93681042Y-71445807D01*
X93681050Y-71445807D01*
X93683498Y-71446000D01*
X94116502Y-71446000D01*
X94118950Y-71445807D01*
X94118958Y-71445807D01*
X94147421Y-71443567D01*
X94147426Y-71443566D01*
X94153831Y-71443062D01*
X94297761Y-71401247D01*
X94305988Y-71398857D01*
X94305990Y-71398856D01*
X94313601Y-71396645D01*
X94371579Y-71362357D01*
X94449980Y-71315991D01*
X94449983Y-71315989D01*
X94456807Y-71311953D01*
X94574453Y-71194307D01*
X94578485Y-71187489D01*
X94578489Y-71187484D01*
X94616123Y-71123848D01*
X94668016Y-71075396D01*
X94737866Y-71062691D01*
X94798637Y-71086052D01*
X94883798Y-71147925D01*
X94943248Y-71191118D01*
X94949276Y-71193802D01*
X94949278Y-71193803D01*
X95060056Y-71243124D01*
X95117712Y-71268794D01*
X95211113Y-71288647D01*
X95298056Y-71307128D01*
X95298061Y-71307128D01*
X95304513Y-71308500D01*
X95495487Y-71308500D01*
X95501939Y-71307128D01*
X95501944Y-71307128D01*
X95588887Y-71288647D01*
X95682288Y-71268794D01*
X95739944Y-71243124D01*
X95850722Y-71193803D01*
X95850724Y-71193802D01*
X95856752Y-71191118D01*
X96011253Y-71078866D01*
X96036253Y-71051101D01*
X96134621Y-70941852D01*
X96134622Y-70941851D01*
X96139040Y-70936944D01*
X96234527Y-70771556D01*
X96293542Y-70589928D01*
X96297741Y-70549982D01*
X96312814Y-70406565D01*
X96313504Y-70400000D01*
X96301897Y-70289563D01*
X96294232Y-70216635D01*
X96294232Y-70216633D01*
X96293542Y-70210072D01*
X96234527Y-70028444D01*
X96139040Y-69863056D01*
X96126976Y-69849657D01*
X96015675Y-69726045D01*
X96015674Y-69726044D01*
X96011253Y-69721134D01*
X95899834Y-69640183D01*
X95862094Y-69612763D01*
X95862093Y-69612762D01*
X95856752Y-69608882D01*
X95850724Y-69606198D01*
X95850722Y-69606197D01*
X95688319Y-69533891D01*
X95688318Y-69533891D01*
X95682288Y-69531206D01*
X95588888Y-69511353D01*
X95501944Y-69492872D01*
X95501939Y-69492872D01*
X95495487Y-69491500D01*
X95304513Y-69491500D01*
X95298061Y-69492872D01*
X95298056Y-69492872D01*
X95211112Y-69511353D01*
X95117712Y-69531206D01*
X95111682Y-69533891D01*
X95111681Y-69533891D01*
X94949278Y-69606197D01*
X94949276Y-69606198D01*
X94943248Y-69608882D01*
X94907897Y-69634566D01*
X94841032Y-69658423D01*
X94771881Y-69642344D01*
X94722400Y-69591430D01*
X94708226Y-69542516D01*
X94707228Y-69529834D01*
X94705562Y-69508669D01*
X94672084Y-69393435D01*
X94661357Y-69356512D01*
X94661356Y-69356510D01*
X94659145Y-69348899D01*
X94608288Y-69262904D01*
X94578491Y-69212520D01*
X94578489Y-69212517D01*
X94574453Y-69205693D01*
X94456807Y-69088047D01*
X94423892Y-69068581D01*
X94375442Y-69016690D01*
X94362592Y-68971986D01*
X94359059Y-68934610D01*
X94358500Y-68922753D01*
X94358500Y-68300000D01*
X98186496Y-68300000D01*
X98187186Y-68306565D01*
X98205427Y-68480114D01*
X98206458Y-68489928D01*
X98265473Y-68671556D01*
X98360960Y-68836944D01*
X98365378Y-68841851D01*
X98365379Y-68841852D01*
X98482552Y-68971986D01*
X98488747Y-68978866D01*
X98540807Y-69016690D01*
X98637904Y-69087235D01*
X98643248Y-69091118D01*
X98649276Y-69093802D01*
X98649278Y-69093803D01*
X98757419Y-69141950D01*
X98817712Y-69168794D01*
X98891603Y-69184500D01*
X98998056Y-69207128D01*
X98998061Y-69207128D01*
X99004513Y-69208500D01*
X99195487Y-69208500D01*
X99201939Y-69207128D01*
X99201944Y-69207128D01*
X99308397Y-69184500D01*
X99382288Y-69168794D01*
X99442581Y-69141950D01*
X99550722Y-69093803D01*
X99550724Y-69093802D01*
X99556752Y-69091118D01*
X99562091Y-69087239D01*
X99562098Y-69087235D01*
X99568528Y-69082563D01*
X99642587Y-69058500D01*
X100215500Y-69058500D01*
X100283621Y-69078502D01*
X100330114Y-69132158D01*
X100341500Y-69184500D01*
X100341500Y-71681945D01*
X100321498Y-71750066D01*
X100317435Y-71756008D01*
X100315884Y-71758143D01*
X100311460Y-71763056D01*
X100308156Y-71768778D01*
X100308155Y-71768780D01*
X100230360Y-71903525D01*
X100215973Y-71928444D01*
X100156958Y-72110072D01*
X100156268Y-72116633D01*
X100156268Y-72116635D01*
X100146448Y-72210072D01*
X100136996Y-72300000D01*
X100137686Y-72306565D01*
X100155060Y-72471865D01*
X100156958Y-72489928D01*
X100215973Y-72671556D01*
X100219276Y-72677278D01*
X100219277Y-72677279D01*
X100221689Y-72681457D01*
X100311460Y-72836944D01*
X100315878Y-72841851D01*
X100315879Y-72841852D01*
X100428792Y-72967255D01*
X100439247Y-72978866D01*
X100478285Y-73007229D01*
X100548554Y-73058283D01*
X100591908Y-73114506D01*
X100599803Y-73173389D01*
X100597530Y-73195016D01*
X100586496Y-73300000D01*
X100587186Y-73306565D01*
X100605710Y-73482807D01*
X100606458Y-73489928D01*
X100665473Y-73671556D01*
X100760960Y-73836944D01*
X100765378Y-73841851D01*
X100765379Y-73841852D01*
X100884325Y-73973955D01*
X100888747Y-73978866D01*
X101043248Y-74091118D01*
X101049276Y-74093802D01*
X101049278Y-74093803D01*
X101191972Y-74157334D01*
X101217712Y-74168794D01*
X101311113Y-74188647D01*
X101398056Y-74207128D01*
X101398061Y-74207128D01*
X101404513Y-74208500D01*
X101595487Y-74208500D01*
X101601939Y-74207128D01*
X101601944Y-74207128D01*
X101688887Y-74188647D01*
X101782288Y-74168794D01*
X101808028Y-74157334D01*
X101950722Y-74093803D01*
X101950724Y-74093802D01*
X101956752Y-74091118D01*
X102111253Y-73978866D01*
X102115675Y-73973955D01*
X102234621Y-73841852D01*
X102234622Y-73841851D01*
X102239040Y-73836944D01*
X102334527Y-73671556D01*
X102386803Y-73510669D01*
X102419340Y-73459595D01*
X102420818Y-73458508D01*
X102455035Y-73418232D01*
X102461965Y-73410716D01*
X102467660Y-73405021D01*
X102485281Y-73382749D01*
X102488072Y-73379345D01*
X102530591Y-73329297D01*
X102530592Y-73329295D01*
X102535333Y-73323715D01*
X102538661Y-73317199D01*
X102542028Y-73312150D01*
X102545195Y-73307021D01*
X102549734Y-73301284D01*
X102580655Y-73235125D01*
X102582561Y-73231225D01*
X102615769Y-73166192D01*
X102617508Y-73159084D01*
X102619607Y-73153441D01*
X102621524Y-73147678D01*
X102624622Y-73141050D01*
X102639487Y-73069583D01*
X102640457Y-73065299D01*
X102641516Y-73060971D01*
X102657808Y-72994390D01*
X102658500Y-72983236D01*
X102658536Y-72983238D01*
X102658775Y-72979245D01*
X102659149Y-72975053D01*
X102660640Y-72967885D01*
X102658546Y-72890479D01*
X102658500Y-72887072D01*
X102658500Y-67967070D01*
X102659933Y-67948120D01*
X102662099Y-67933885D01*
X102662099Y-67933881D01*
X102663199Y-67926651D01*
X102658915Y-67873982D01*
X102658500Y-67863767D01*
X102658500Y-67855707D01*
X102655209Y-67827480D01*
X102654778Y-67823121D01*
X102652873Y-67799699D01*
X102648860Y-67750364D01*
X102646605Y-67743403D01*
X102645418Y-67737463D01*
X102644029Y-67731588D01*
X102643182Y-67724319D01*
X102618264Y-67655670D01*
X102616847Y-67651542D01*
X102596607Y-67589064D01*
X102596606Y-67589062D01*
X102594351Y-67582101D01*
X102590555Y-67575846D01*
X102588049Y-67570372D01*
X102585330Y-67564942D01*
X102582833Y-67558063D01*
X102566554Y-67533234D01*
X102542814Y-67497024D01*
X102540467Y-67493305D01*
X102533434Y-67481715D01*
X102502595Y-67430893D01*
X102495197Y-67422516D01*
X102495224Y-67422492D01*
X102492571Y-67419500D01*
X102489868Y-67416267D01*
X102485856Y-67410148D01*
X102429617Y-67356872D01*
X102427175Y-67354494D01*
X101983770Y-66911089D01*
X101971384Y-66896677D01*
X101962851Y-66885082D01*
X101962846Y-66885077D01*
X101958508Y-66879182D01*
X101952930Y-66874443D01*
X101952927Y-66874440D01*
X101918232Y-66844965D01*
X101910716Y-66838035D01*
X101905021Y-66832340D01*
X101898880Y-66827482D01*
X101882749Y-66814719D01*
X101879345Y-66811928D01*
X101829297Y-66769409D01*
X101829295Y-66769408D01*
X101823715Y-66764667D01*
X101817199Y-66761339D01*
X101812150Y-66757972D01*
X101807021Y-66754805D01*
X101801284Y-66750266D01*
X101735125Y-66719345D01*
X101731225Y-66717439D01*
X101730857Y-66717251D01*
X101666192Y-66684231D01*
X101659084Y-66682492D01*
X101653441Y-66680393D01*
X101647678Y-66678476D01*
X101641050Y-66675378D01*
X101569583Y-66660513D01*
X101565299Y-66659543D01*
X101494390Y-66642192D01*
X101488788Y-66641844D01*
X101488785Y-66641844D01*
X101483236Y-66641500D01*
X101483238Y-66641464D01*
X101479245Y-66641225D01*
X101475053Y-66640851D01*
X101467885Y-66639360D01*
X101401675Y-66641151D01*
X101390479Y-66641454D01*
X101387072Y-66641500D01*
X100342587Y-66641500D01*
X100268528Y-66617437D01*
X100262098Y-66612765D01*
X100262091Y-66612761D01*
X100256752Y-66608882D01*
X100250724Y-66606198D01*
X100250722Y-66606197D01*
X100088319Y-66533891D01*
X100088318Y-66533891D01*
X100082288Y-66531206D01*
X99988887Y-66511353D01*
X99901944Y-66492872D01*
X99901939Y-66492872D01*
X99895487Y-66491500D01*
X99704513Y-66491500D01*
X99698061Y-66492872D01*
X99698056Y-66492872D01*
X99611113Y-66511353D01*
X99517712Y-66531206D01*
X99511682Y-66533891D01*
X99511681Y-66533891D01*
X99349278Y-66606197D01*
X99349276Y-66606198D01*
X99343248Y-66608882D01*
X99337907Y-66612762D01*
X99337906Y-66612763D01*
X99331473Y-66617437D01*
X99188747Y-66721134D01*
X99184326Y-66726044D01*
X99184325Y-66726045D01*
X99080229Y-66841656D01*
X99060960Y-66863056D01*
X98965473Y-67028444D01*
X98906458Y-67210072D01*
X98905768Y-67216633D01*
X98905768Y-67216635D01*
X98894006Y-67328544D01*
X98866993Y-67394201D01*
X98816705Y-67428945D01*
X98817712Y-67431206D01*
X98649278Y-67506197D01*
X98649276Y-67506198D01*
X98643248Y-67508882D01*
X98488747Y-67621134D01*
X98484326Y-67626044D01*
X98484325Y-67626045D01*
X98365819Y-67757660D01*
X98360960Y-67763056D01*
X98265473Y-67928444D01*
X98206458Y-68110072D01*
X98205768Y-68116633D01*
X98205768Y-68116635D01*
X98197159Y-68198545D01*
X98186496Y-68300000D01*
X94358500Y-68300000D01*
X94358500Y-67445710D01*
X94378502Y-67377589D01*
X94395405Y-67356615D01*
X94486639Y-67265381D01*
X94544870Y-67169229D01*
X94597267Y-67121322D01*
X94652646Y-67108500D01*
X95357413Y-67108500D01*
X95431472Y-67132563D01*
X95437902Y-67137235D01*
X95437909Y-67137239D01*
X95443248Y-67141118D01*
X95449276Y-67143802D01*
X95449278Y-67143803D01*
X95584021Y-67203794D01*
X95617712Y-67218794D01*
X95711112Y-67238647D01*
X95798056Y-67257128D01*
X95798061Y-67257128D01*
X95804513Y-67258500D01*
X95995487Y-67258500D01*
X96001939Y-67257128D01*
X96001944Y-67257128D01*
X96088888Y-67238647D01*
X96182288Y-67218794D01*
X96215979Y-67203794D01*
X96350722Y-67143803D01*
X96350724Y-67143802D01*
X96356752Y-67141118D01*
X96362097Y-67137235D01*
X96503183Y-67034729D01*
X96511253Y-67028866D01*
X96623372Y-66904345D01*
X96634621Y-66891852D01*
X96634622Y-66891851D01*
X96639040Y-66886944D01*
X96734527Y-66721556D01*
X96793542Y-66539928D01*
X96813504Y-66350000D01*
X96793542Y-66160072D01*
X96734527Y-65978444D01*
X96639040Y-65813056D01*
X96545730Y-65709424D01*
X96515675Y-65676045D01*
X96515674Y-65676044D01*
X96511253Y-65671134D01*
X96376524Y-65573247D01*
X96362094Y-65562763D01*
X96362093Y-65562762D01*
X96356752Y-65558882D01*
X96350724Y-65556198D01*
X96350722Y-65556197D01*
X96188319Y-65483891D01*
X96188318Y-65483891D01*
X96182288Y-65481206D01*
X96175833Y-65479834D01*
X96175824Y-65479831D01*
X96119228Y-65467801D01*
X96056331Y-65433650D01*
X92648967Y-62026286D01*
X97088861Y-62026286D01*
X97096318Y-62036654D01*
X97323800Y-62220865D01*
X97329115Y-62224727D01*
X97640773Y-62427121D01*
X97646450Y-62430398D01*
X97977540Y-62599097D01*
X97983565Y-62601779D01*
X98330447Y-62734935D01*
X98336729Y-62736976D01*
X98695636Y-62833144D01*
X98702086Y-62834515D01*
X99069096Y-62892645D01*
X99075634Y-62893331D01*
X99446699Y-62912778D01*
X99453301Y-62912778D01*
X99824366Y-62893331D01*
X99830904Y-62892645D01*
X100197914Y-62834515D01*
X100204364Y-62833144D01*
X100563271Y-62736976D01*
X100569553Y-62734935D01*
X100916435Y-62601779D01*
X100922460Y-62599097D01*
X101253550Y-62430398D01*
X101259227Y-62427121D01*
X101570885Y-62224727D01*
X101576200Y-62220865D01*
X101802730Y-62037424D01*
X101811198Y-62025166D01*
X101804865Y-62014076D01*
X99462810Y-59672020D01*
X99448869Y-59664408D01*
X99447034Y-59664539D01*
X99440420Y-59668790D01*
X97096001Y-62013210D01*
X97088861Y-62026286D01*
X92648967Y-62026286D01*
X92359250Y-61736569D01*
X92346864Y-61722157D01*
X92338331Y-61710562D01*
X92338326Y-61710557D01*
X92333988Y-61704662D01*
X92328410Y-61699923D01*
X92328407Y-61699920D01*
X92293712Y-61670445D01*
X92286196Y-61663515D01*
X92280501Y-61657820D01*
X92268474Y-61648305D01*
X92258229Y-61640199D01*
X92254825Y-61637408D01*
X92204777Y-61594889D01*
X92204775Y-61594888D01*
X92199195Y-61590147D01*
X92192679Y-61586819D01*
X92187630Y-61583452D01*
X92182501Y-61580285D01*
X92176764Y-61575746D01*
X92110605Y-61544825D01*
X92106705Y-61542919D01*
X92091222Y-61535013D01*
X92041672Y-61509711D01*
X92034564Y-61507972D01*
X92028921Y-61505873D01*
X92023158Y-61503956D01*
X92016530Y-61500858D01*
X91996348Y-61496660D01*
X91945068Y-61485994D01*
X91940779Y-61485023D01*
X91869870Y-61467672D01*
X91864268Y-61467324D01*
X91864265Y-61467324D01*
X91858716Y-61466980D01*
X91858718Y-61466944D01*
X91854725Y-61466705D01*
X91850533Y-61466331D01*
X91843365Y-61464840D01*
X91779600Y-61466565D01*
X91765959Y-61466934D01*
X91762552Y-61466980D01*
X83204090Y-61466980D01*
X83185140Y-61465547D01*
X83170905Y-61463381D01*
X83170901Y-61463381D01*
X83163671Y-61462281D01*
X83156379Y-61462874D01*
X83156376Y-61462874D01*
X83111002Y-61466565D01*
X83100787Y-61466980D01*
X75109014Y-61466980D01*
X75090064Y-61465547D01*
X75075829Y-61463381D01*
X75075825Y-61463381D01*
X75068595Y-61462281D01*
X75061303Y-61462874D01*
X75061300Y-61462874D01*
X75015926Y-61466565D01*
X75005711Y-61466980D01*
X66742996Y-61466980D01*
X66703544Y-61459881D01*
X66703212Y-61459711D01*
X66696106Y-61457972D01*
X66690473Y-61455877D01*
X66684698Y-61453956D01*
X66678070Y-61450858D01*
X66606603Y-61435993D01*
X66602319Y-61435023D01*
X66531410Y-61417672D01*
X66525808Y-61417324D01*
X66525805Y-61417324D01*
X66520256Y-61416980D01*
X66520258Y-61416944D01*
X66516265Y-61416705D01*
X66512073Y-61416331D01*
X66504905Y-61414840D01*
X66441140Y-61416565D01*
X66427499Y-61416934D01*
X66424092Y-61416980D01*
X58191590Y-61416980D01*
X58172640Y-61415547D01*
X58158405Y-61413381D01*
X58158401Y-61413381D01*
X58151171Y-61412281D01*
X58143879Y-61412874D01*
X58143876Y-61412874D01*
X58098502Y-61416565D01*
X58088287Y-61416980D01*
X58080227Y-61416980D01*
X58076593Y-61417404D01*
X58076587Y-61417404D01*
X58063562Y-61418923D01*
X58052000Y-61420271D01*
X58047652Y-61420701D01*
X57974884Y-61426620D01*
X57967923Y-61428875D01*
X57961983Y-61430062D01*
X57956108Y-61431451D01*
X57948839Y-61432298D01*
X57880190Y-61457216D01*
X57876062Y-61458633D01*
X57813584Y-61478873D01*
X57813582Y-61478874D01*
X57806621Y-61481129D01*
X57800366Y-61484925D01*
X57794892Y-61487431D01*
X57789462Y-61490150D01*
X57782583Y-61492647D01*
X57776463Y-61496660D01*
X57776462Y-61496660D01*
X57721544Y-61532666D01*
X57717840Y-61535003D01*
X57655413Y-61572885D01*
X57647036Y-61580283D01*
X57647012Y-61580256D01*
X57644020Y-61582909D01*
X57640787Y-61585612D01*
X57634668Y-61589624D01*
X57629636Y-61594936D01*
X57581392Y-61645863D01*
X57579014Y-61648305D01*
X57147724Y-62079595D01*
X57085412Y-62113621D01*
X57058629Y-62116500D01*
X56932928Y-62116500D01*
X56929682Y-62116837D01*
X56929678Y-62116837D01*
X56895897Y-62120342D01*
X56831518Y-62127022D01*
X56670651Y-62180692D01*
X56526445Y-62269929D01*
X56406636Y-62389947D01*
X56317651Y-62534308D01*
X56315346Y-62541256D01*
X56315346Y-62541257D01*
X56279205Y-62650219D01*
X56264262Y-62695269D01*
X56254000Y-62795428D01*
X56254000Y-63404572D01*
X49650300Y-63404572D01*
X49650300Y-63175868D01*
X49639687Y-63073581D01*
X49622106Y-63020885D01*
X49587873Y-62918276D01*
X49587872Y-62918274D01*
X49585556Y-62911332D01*
X49576429Y-62896582D01*
X49499406Y-62772115D01*
X49495552Y-62765887D01*
X49374502Y-62645048D01*
X49228901Y-62555298D01*
X49066557Y-62501451D01*
X49059720Y-62500751D01*
X49059718Y-62500750D01*
X49018399Y-62496517D01*
X48965532Y-62491100D01*
X48418068Y-62491100D01*
X48414822Y-62491437D01*
X48414818Y-62491437D01*
X48380717Y-62494975D01*
X48315781Y-62501713D01*
X48309240Y-62503895D01*
X48309241Y-62503895D01*
X48160476Y-62553527D01*
X48160474Y-62553528D01*
X48153532Y-62555844D01*
X48147308Y-62559696D01*
X48147307Y-62559696D01*
X48015587Y-62641207D01*
X48008087Y-62645848D01*
X48002914Y-62651030D01*
X47997180Y-62655575D01*
X47995658Y-62653655D01*
X47943594Y-62682145D01*
X47872774Y-62677144D01*
X47836248Y-62653718D01*
X47835428Y-62654757D01*
X47829682Y-62650219D01*
X47824502Y-62645048D01*
X47690554Y-62562481D01*
X47643061Y-62509709D01*
X47631637Y-62439637D01*
X47659911Y-62374513D01*
X47688045Y-62349549D01*
X47880238Y-62224737D01*
X47885566Y-62220865D01*
X48112096Y-62037424D01*
X48120564Y-62025166D01*
X48114231Y-62014076D01*
X45772176Y-59672020D01*
X45758235Y-59664408D01*
X45756400Y-59664539D01*
X45749786Y-59668790D01*
X43405367Y-62013210D01*
X43398227Y-62026286D01*
X43405684Y-62036654D01*
X43633166Y-62220865D01*
X43638481Y-62224727D01*
X43950139Y-62427121D01*
X43955816Y-62430398D01*
X44286906Y-62599097D01*
X44292931Y-62601779D01*
X44639813Y-62734935D01*
X44646095Y-62736976D01*
X45005002Y-62833144D01*
X45011452Y-62834515D01*
X45378462Y-62892645D01*
X45385000Y-62893331D01*
X45756065Y-62912778D01*
X45762667Y-62912778D01*
X46071698Y-62896582D01*
X46140772Y-62912991D01*
X46190009Y-62964140D01*
X46203777Y-63033789D01*
X46197887Y-63062071D01*
X46193651Y-63074843D01*
X46183300Y-63175868D01*
X46183300Y-63773332D01*
X46193913Y-63875619D01*
X46196095Y-63882159D01*
X46227301Y-63975693D01*
X46248044Y-64037868D01*
X46249512Y-64040240D01*
X46260013Y-64108571D01*
X46231148Y-64173435D01*
X46171796Y-64212395D01*
X46149722Y-64217001D01*
X46130068Y-64219292D01*
X46125732Y-64219721D01*
X46107610Y-64221195D01*
X46060262Y-64225046D01*
X46060259Y-64225047D01*
X46052964Y-64225640D01*
X46046000Y-64227896D01*
X46040061Y-64229083D01*
X46034190Y-64230470D01*
X46026919Y-64231318D01*
X46020043Y-64233814D01*
X46020034Y-64233816D01*
X45958302Y-64256225D01*
X45954198Y-64257635D01*
X45884701Y-64280148D01*
X45878446Y-64283944D01*
X45872987Y-64286443D01*
X45867539Y-64289171D01*
X45860663Y-64291667D01*
X45799610Y-64331695D01*
X45795927Y-64334019D01*
X45738286Y-64368996D01*
X45738282Y-64368999D01*
X45733493Y-64371905D01*
X45725117Y-64379303D01*
X45725093Y-64379276D01*
X45722111Y-64381921D01*
X45718874Y-64384628D01*
X45712748Y-64388644D01*
X45707712Y-64393960D01*
X45707711Y-64393961D01*
X45659474Y-64444881D01*
X45657096Y-64447324D01*
X45053285Y-65051134D01*
X45038873Y-65063520D01*
X45021382Y-65076392D01*
X45016643Y-65081970D01*
X45016640Y-65081973D01*
X44987165Y-65116668D01*
X44980235Y-65124184D01*
X44974540Y-65129879D01*
X44972260Y-65132761D01*
X44956919Y-65152151D01*
X44954128Y-65155555D01*
X44950482Y-65159847D01*
X44906867Y-65211185D01*
X44903539Y-65217701D01*
X44900172Y-65222750D01*
X44897005Y-65227879D01*
X44892466Y-65233616D01*
X44861545Y-65299775D01*
X44859642Y-65303669D01*
X44826431Y-65368708D01*
X44824692Y-65375816D01*
X44822593Y-65381459D01*
X44820676Y-65387222D01*
X44817578Y-65393850D01*
X44816088Y-65401012D01*
X44816088Y-65401013D01*
X44802714Y-65465312D01*
X44801744Y-65469596D01*
X44784392Y-65540510D01*
X44783700Y-65551664D01*
X44783664Y-65551662D01*
X44783425Y-65555655D01*
X44783051Y-65559847D01*
X44781560Y-65567015D01*
X44781758Y-65574332D01*
X44783654Y-65644421D01*
X44783700Y-65647828D01*
X44783700Y-66158330D01*
X44763698Y-66226451D01*
X44746873Y-66247348D01*
X44711336Y-66282947D01*
X44622351Y-66427308D01*
X44620046Y-66434256D01*
X44620046Y-66434257D01*
X44586999Y-66533891D01*
X44568962Y-66588269D01*
X44558700Y-66688428D01*
X44558700Y-67222572D01*
X44569222Y-67323982D01*
X44622892Y-67484849D01*
X44712129Y-67629055D01*
X44737005Y-67653887D01*
X44771084Y-67716168D01*
X44766082Y-67786988D01*
X44737160Y-67832078D01*
X44711336Y-67857947D01*
X44622351Y-68002308D01*
X44620046Y-68009256D01*
X44620046Y-68009257D01*
X44591829Y-68094329D01*
X44568962Y-68163269D01*
X44558700Y-68263428D01*
X44558700Y-68365500D01*
X44538698Y-68433621D01*
X44485042Y-68480114D01*
X44432700Y-68491500D01*
X44354513Y-68491500D01*
X44348061Y-68492872D01*
X44348056Y-68492872D01*
X44265177Y-68510489D01*
X44167712Y-68531206D01*
X44161682Y-68533891D01*
X44161681Y-68533891D01*
X43999278Y-68606197D01*
X43999276Y-68606198D01*
X43993248Y-68608882D01*
X43838747Y-68721134D01*
X43834326Y-68726044D01*
X43834325Y-68726045D01*
X43723558Y-68849065D01*
X43710960Y-68863056D01*
X43615473Y-69028444D01*
X43556458Y-69210072D01*
X43555768Y-69216633D01*
X43555768Y-69216635D01*
X43542814Y-69339884D01*
X43536496Y-69400000D01*
X43556458Y-69589928D01*
X43615473Y-69771556D01*
X43710960Y-69936944D01*
X43715378Y-69941851D01*
X43715379Y-69941852D01*
X43783459Y-70017462D01*
X43838747Y-70078866D01*
X43993248Y-70191118D01*
X43999276Y-70193802D01*
X43999278Y-70193803D01*
X44128022Y-70251123D01*
X44167712Y-70268794D01*
X44261113Y-70288647D01*
X44348056Y-70307128D01*
X44348061Y-70307128D01*
X44354513Y-70308500D01*
X44432700Y-70308500D01*
X44500821Y-70328502D01*
X44547314Y-70382158D01*
X44558700Y-70434500D01*
X44558700Y-70448572D01*
X44569222Y-70549982D01*
X44622892Y-70710849D01*
X44712129Y-70855055D01*
X44737005Y-70879887D01*
X44771084Y-70942168D01*
X44766082Y-71012988D01*
X44737160Y-71058078D01*
X44711336Y-71083947D01*
X44622351Y-71228308D01*
X44620046Y-71235256D01*
X44620046Y-71235257D01*
X44580258Y-71355214D01*
X44568962Y-71389269D01*
X44558700Y-71489428D01*
X44558700Y-72023572D01*
X44559037Y-72026818D01*
X44559037Y-72026822D01*
X44562542Y-72060603D01*
X44569222Y-72124982D01*
X44622892Y-72285849D01*
X44626744Y-72292073D01*
X44626744Y-72292074D01*
X44709676Y-72426093D01*
X44728513Y-72494545D01*
X44707526Y-72561754D01*
X44705561Y-72563719D01*
X44616728Y-72710401D01*
X44565447Y-72874038D01*
X44558700Y-72947465D01*
X44558701Y-73460734D01*
X44558964Y-73463592D01*
X44558964Y-73463601D01*
X44560729Y-73482807D01*
X44565447Y-73534162D01*
X44616728Y-73697799D01*
X44705561Y-73844481D01*
X44801085Y-73940005D01*
X44835111Y-74002317D01*
X44830046Y-74073132D01*
X44801085Y-74118195D01*
X44705561Y-74213719D01*
X44616728Y-74360401D01*
X44565447Y-74524038D01*
X44558700Y-74597465D01*
X44558701Y-75110734D01*
X44558964Y-75113592D01*
X44558964Y-75113601D01*
X44560211Y-75127169D01*
X44565447Y-75184162D01*
X44567446Y-75190540D01*
X44567446Y-75190541D01*
X44609177Y-75323703D01*
X44616728Y-75347799D01*
X44705561Y-75494481D01*
X44826819Y-75615739D01*
X44973501Y-75704572D01*
X44980748Y-75706843D01*
X44980750Y-75706844D01*
X45047036Y-75727617D01*
X45137138Y-75755853D01*
X45210565Y-75762600D01*
X45325829Y-75762600D01*
X45393950Y-75782602D01*
X45414924Y-75799505D01*
X46237173Y-76621754D01*
X46271199Y-76684066D01*
X46266134Y-76754881D01*
X46223587Y-76811717D01*
X46157067Y-76836528D01*
X46137023Y-76836194D01*
X46137022Y-76836207D01*
X46136665Y-76836188D01*
X46134907Y-76836159D01*
X46133715Y-76836034D01*
X45762667Y-76816588D01*
X45756065Y-76816588D01*
X45385000Y-76836035D01*
X45378462Y-76836721D01*
X45011452Y-76894851D01*
X45005002Y-76896222D01*
X44646095Y-76992390D01*
X44639813Y-76994431D01*
X44292931Y-77127587D01*
X44286906Y-77130269D01*
X43955832Y-77298960D01*
X43950122Y-77302257D01*
X43638502Y-77504625D01*
X43633151Y-77508513D01*
X43406636Y-77691942D01*
X43398168Y-77704200D01*
X42258000Y-77704200D01*
X42258000Y-60900313D01*
X42278002Y-60832192D01*
X42331658Y-60785699D01*
X42401932Y-60775595D01*
X42466512Y-60805089D01*
X42496267Y-60843110D01*
X42628960Y-61103533D01*
X42632257Y-61109244D01*
X42834625Y-61420864D01*
X42838513Y-61426215D01*
X43021942Y-61652730D01*
X43034200Y-61661198D01*
X43045290Y-61654865D01*
X45399025Y-59301131D01*
X46123774Y-59301131D01*
X46123905Y-59302966D01*
X46128156Y-59309580D01*
X48472576Y-61653999D01*
X48485652Y-61661139D01*
X48496020Y-61653682D01*
X48680219Y-61426215D01*
X48684107Y-61420864D01*
X48886475Y-61109244D01*
X48889772Y-61103534D01*
X49058463Y-60772460D01*
X49061145Y-60766435D01*
X49194301Y-60419553D01*
X49196342Y-60413271D01*
X49292510Y-60054364D01*
X49293881Y-60047914D01*
X49352011Y-59680904D01*
X49352697Y-59674366D01*
X49372144Y-59303301D01*
X95837222Y-59303301D01*
X95856669Y-59674366D01*
X95857355Y-59680904D01*
X95915485Y-60047914D01*
X95916856Y-60054364D01*
X96013024Y-60413271D01*
X96015065Y-60419553D01*
X96148221Y-60766435D01*
X96150903Y-60772460D01*
X96319594Y-61103534D01*
X96322891Y-61109244D01*
X96525259Y-61420864D01*
X96529147Y-61426215D01*
X96712576Y-61652730D01*
X96724834Y-61661198D01*
X96735924Y-61654865D01*
X99077980Y-59312810D01*
X99085592Y-59298869D01*
X99085461Y-59297034D01*
X99081210Y-59290420D01*
X96736790Y-56946001D01*
X96723714Y-56938861D01*
X96713346Y-56946318D01*
X96529147Y-57173785D01*
X96525259Y-57179136D01*
X96322891Y-57490756D01*
X96319594Y-57496466D01*
X96150903Y-57827540D01*
X96148221Y-57833565D01*
X96015065Y-58180447D01*
X96013024Y-58186729D01*
X95916856Y-58545636D01*
X95915485Y-58552086D01*
X95857355Y-58919096D01*
X95856669Y-58925634D01*
X95837222Y-59296699D01*
X95837222Y-59303301D01*
X49372144Y-59303301D01*
X49372144Y-59296699D01*
X49352697Y-58925634D01*
X49352011Y-58919096D01*
X49293881Y-58552086D01*
X49292510Y-58545636D01*
X49196342Y-58186729D01*
X49194301Y-58180447D01*
X49061145Y-57833565D01*
X49058463Y-57827540D01*
X48889772Y-57496466D01*
X48886475Y-57490756D01*
X48684107Y-57179136D01*
X48680219Y-57173785D01*
X48496790Y-56947270D01*
X48484532Y-56938802D01*
X48473442Y-56945135D01*
X46131386Y-59287190D01*
X46123774Y-59301131D01*
X45399025Y-59301131D01*
X45759366Y-58940790D01*
X48113365Y-56586790D01*
X48120505Y-56573714D01*
X48113047Y-56563345D01*
X47885566Y-56379135D01*
X47880251Y-56375273D01*
X47568593Y-56172879D01*
X47562916Y-56169602D01*
X47415089Y-56094280D01*
X47363474Y-56045531D01*
X47346408Y-55976616D01*
X47369309Y-55909415D01*
X47424907Y-55865263D01*
X47472144Y-55856014D01*
X89100650Y-55808001D01*
X89101597Y-55808001D01*
X97831306Y-55808000D01*
X97899426Y-55828002D01*
G37*
G04 #@! TD.AperFunction*
G04 #@! TA.AperFunction,Conductor*
G36*
X49251650Y-69916802D02*
G01*
X49272624Y-69933705D01*
X50055395Y-70716476D01*
X50089421Y-70778788D01*
X50092300Y-70805571D01*
X50092300Y-71727535D01*
X50072298Y-71795656D01*
X50018642Y-71842149D01*
X49948368Y-71852253D01*
X49883788Y-71822759D01*
X49845303Y-71762689D01*
X49818493Y-71670410D01*
X49812248Y-71655979D01*
X49735689Y-71526522D01*
X49726049Y-71514096D01*
X49619704Y-71407751D01*
X49607278Y-71398111D01*
X49477821Y-71321552D01*
X49463390Y-71315307D01*
X49328995Y-71276261D01*
X49314894Y-71276301D01*
X49311600Y-71283570D01*
X49311600Y-73673200D01*
X49291598Y-73741321D01*
X49237942Y-73787814D01*
X49185600Y-73799200D01*
X49153915Y-73799200D01*
X49138676Y-73803675D01*
X49137471Y-73805065D01*
X49135800Y-73812748D01*
X49135800Y-74024185D01*
X49140275Y-74039424D01*
X49141665Y-74040629D01*
X49149348Y-74042300D01*
X49771684Y-74042300D01*
X49786923Y-74037825D01*
X49788128Y-74036435D01*
X49789799Y-74028752D01*
X49789799Y-73967595D01*
X49789536Y-73961846D01*
X49783668Y-73897985D01*
X49781057Y-73884949D01*
X49734085Y-73735057D01*
X49727878Y-73721311D01*
X49699910Y-73675131D01*
X49681730Y-73606502D01*
X49703539Y-73538938D01*
X49718590Y-73520763D01*
X49726049Y-73513304D01*
X49735689Y-73500878D01*
X49812248Y-73371421D01*
X49818493Y-73356990D01*
X49845303Y-73264711D01*
X49883516Y-73204876D01*
X49948013Y-73175199D01*
X50018315Y-73185103D01*
X50072103Y-73231442D01*
X50092300Y-73299865D01*
X50092300Y-75648100D01*
X50072298Y-75716221D01*
X50018642Y-75762714D01*
X49966300Y-75774100D01*
X49905813Y-75774100D01*
X49899361Y-75775472D01*
X49899356Y-75775472D01*
X49812413Y-75793953D01*
X49719012Y-75813806D01*
X49712982Y-75816491D01*
X49712981Y-75816491D01*
X49550578Y-75888797D01*
X49550576Y-75888798D01*
X49544548Y-75891482D01*
X49539209Y-75895361D01*
X49539202Y-75895365D01*
X49532772Y-75900037D01*
X49458713Y-75924100D01*
X47737071Y-75924100D01*
X47668950Y-75904098D01*
X47647976Y-75887195D01*
X47255675Y-75494894D01*
X47221649Y-75432582D01*
X47226714Y-75361767D01*
X47269261Y-75304931D01*
X47335781Y-75280120D01*
X47344761Y-75279799D01*
X47488434Y-75279799D01*
X47491292Y-75279536D01*
X47491301Y-75279536D01*
X47526804Y-75276274D01*
X47561862Y-75273053D01*
X47570513Y-75270342D01*
X47718250Y-75224044D01*
X47718252Y-75224043D01*
X47725499Y-75221772D01*
X47872181Y-75132939D01*
X47968059Y-75037061D01*
X48030371Y-75003035D01*
X48101186Y-75008100D01*
X48146249Y-75037061D01*
X48236357Y-75127169D01*
X48248226Y-75136476D01*
X48381812Y-75217379D01*
X48395557Y-75223585D01*
X48545444Y-75270556D01*
X48558494Y-75273169D01*
X48613386Y-75278213D01*
X48624924Y-75274825D01*
X48626129Y-75273435D01*
X48627800Y-75265752D01*
X48627800Y-75261184D01*
X49135800Y-75261184D01*
X49140275Y-75276423D01*
X49141665Y-75277628D01*
X49146094Y-75278591D01*
X49205115Y-75273168D01*
X49218151Y-75270557D01*
X49368043Y-75223585D01*
X49381788Y-75217379D01*
X49515374Y-75136476D01*
X49527243Y-75127169D01*
X49637669Y-75016743D01*
X49646976Y-75004874D01*
X49727879Y-74871288D01*
X49734085Y-74857543D01*
X49781056Y-74707656D01*
X49783669Y-74694606D01*
X49789534Y-74630779D01*
X49789800Y-74624991D01*
X49789800Y-74568415D01*
X49785325Y-74553176D01*
X49783935Y-74551971D01*
X49776252Y-74550300D01*
X49153915Y-74550300D01*
X49138676Y-74554775D01*
X49137471Y-74556165D01*
X49135800Y-74563848D01*
X49135800Y-75261184D01*
X48627800Y-75261184D01*
X48627800Y-73399300D01*
X48647802Y-73331179D01*
X48701458Y-73284686D01*
X48753800Y-73273300D01*
X48785485Y-73273300D01*
X48800724Y-73268825D01*
X48801929Y-73267435D01*
X48803600Y-73259752D01*
X48803600Y-72785815D01*
X48799125Y-72770576D01*
X48797735Y-72769371D01*
X48790052Y-72767700D01*
X48267716Y-72767700D01*
X48252477Y-72772175D01*
X48251272Y-72773565D01*
X48249601Y-72781248D01*
X48249601Y-73165184D01*
X48249795Y-73170120D01*
X48252030Y-73198536D01*
X48254330Y-73211131D01*
X48287414Y-73325002D01*
X48287212Y-73395998D01*
X48244166Y-73459308D01*
X48236355Y-73465433D01*
X48205395Y-73496393D01*
X48143083Y-73530419D01*
X48072268Y-73525354D01*
X48015432Y-73482807D01*
X47990621Y-73416287D01*
X47990300Y-73407298D01*
X47990300Y-72654970D01*
X47991733Y-72636020D01*
X47993899Y-72621785D01*
X47993899Y-72621781D01*
X47994999Y-72614551D01*
X47992463Y-72583365D01*
X47990715Y-72561882D01*
X47990300Y-72551667D01*
X47990300Y-72543607D01*
X47987009Y-72515380D01*
X47986578Y-72511021D01*
X47981254Y-72445562D01*
X47981253Y-72445559D01*
X47980660Y-72438264D01*
X47978404Y-72431300D01*
X47977217Y-72425361D01*
X47975830Y-72419492D01*
X47974982Y-72412219D01*
X47972484Y-72405338D01*
X47970800Y-72398212D01*
X47971797Y-72397976D01*
X47966100Y-72365588D01*
X47966100Y-72010700D01*
X47986102Y-71942579D01*
X48039758Y-71896086D01*
X48092100Y-71884700D01*
X48123600Y-71884700D01*
X48191721Y-71904702D01*
X48238214Y-71958358D01*
X48249600Y-72010700D01*
X48249600Y-72241585D01*
X48254075Y-72256824D01*
X48255465Y-72258029D01*
X48263148Y-72259700D01*
X48785485Y-72259700D01*
X48800724Y-72255225D01*
X48801929Y-72253835D01*
X48803600Y-72246152D01*
X48803600Y-71631042D01*
X48821147Y-71566903D01*
X48862708Y-71496627D01*
X48866745Y-71489801D01*
X48870339Y-71477432D01*
X48892474Y-71401239D01*
X48913162Y-71330031D01*
X48913830Y-71321552D01*
X48915907Y-71295158D01*
X48915907Y-71295150D01*
X48916100Y-71292702D01*
X48916100Y-70022800D01*
X48936102Y-69954679D01*
X48989758Y-69908186D01*
X49042100Y-69896800D01*
X49183529Y-69896800D01*
X49251650Y-69916802D01*
G37*
G04 #@! TD.AperFunction*
M02*
