G04 #@! TF.GenerationSoftware,KiCad,Pcbnew,(6.0.5-0)*
G04 #@! TF.CreationDate,2022-06-13T22:11:16+02:00*
G04 #@! TF.ProjectId,muVox,6d75566f-782e-46b6-9963-61645f706362,rev?*
G04 #@! TF.SameCoordinates,Original*
G04 #@! TF.FileFunction,Soldermask,Top*
G04 #@! TF.FilePolarity,Negative*
%FSLAX46Y46*%
G04 Gerber Fmt 4.6, Leading zero omitted, Abs format (unit mm)*
G04 Created by KiCad (PCBNEW (6.0.5-0)) date 2022-06-13 22:11:16*
%MOMM*%
%LPD*%
G01*
G04 APERTURE LIST*
G04 Aperture macros list*
%AMRoundRect*
0 Rectangle with rounded corners*
0 $1 Rounding radius*
0 $2 $3 $4 $5 $6 $7 $8 $9 X,Y pos of 4 corners*
0 Add a 4 corners polygon primitive as box body*
4,1,4,$2,$3,$4,$5,$6,$7,$8,$9,$2,$3,0*
0 Add four circle primitives for the rounded corners*
1,1,$1+$1,$2,$3*
1,1,$1+$1,$4,$5*
1,1,$1+$1,$6,$7*
1,1,$1+$1,$8,$9*
0 Add four rect primitives between the rounded corners*
20,1,$1+$1,$2,$3,$4,$5,0*
20,1,$1+$1,$4,$5,$6,$7,0*
20,1,$1+$1,$6,$7,$8,$9,0*
20,1,$1+$1,$8,$9,$2,$3,0*%
G04 Aperture macros list end*
%ADD10C,0.250000*%
%ADD11C,0.100000*%
%ADD12C,0.300000*%
%ADD13C,0.212500*%
%ADD14C,0.500000*%
%ADD15C,0.450000*%
%ADD16RoundRect,0.250000X-0.475000X0.250000X-0.475000X-0.250000X0.475000X-0.250000X0.475000X0.250000X0*%
%ADD17RoundRect,0.225000X-0.225000X-0.250000X0.225000X-0.250000X0.225000X0.250000X-0.225000X0.250000X0*%
%ADD18RoundRect,0.225000X-0.250000X0.225000X-0.250000X-0.225000X0.250000X-0.225000X0.250000X0.225000X0*%
%ADD19RoundRect,0.250000X0.475000X-0.250000X0.475000X0.250000X-0.475000X0.250000X-0.475000X-0.250000X0*%
%ADD20RoundRect,0.218750X-0.218750X-0.256250X0.218750X-0.256250X0.218750X0.256250X-0.218750X0.256250X0*%
%ADD21C,1.600000*%
%ADD22R,4.000000X2.000000*%
%ADD23O,3.300000X2.000000*%
%ADD24O,2.000000X3.500000*%
%ADD25R,1.498600X2.489200*%
%ADD26RoundRect,0.150000X0.150000X-0.725000X0.150000X0.725000X-0.150000X0.725000X-0.150000X-0.725000X0*%
%ADD27R,1.000000X0.700000*%
%ADD28RoundRect,0.200000X-0.200000X-0.275000X0.200000X-0.275000X0.200000X0.275000X-0.200000X0.275000X0*%
%ADD29RoundRect,0.200000X0.200000X0.275000X-0.200000X0.275000X-0.200000X-0.275000X0.200000X-0.275000X0*%
%ADD30RoundRect,0.200000X0.275000X-0.200000X0.275000X0.200000X-0.275000X0.200000X-0.275000X-0.200000X0*%
%ADD31R,1.450000X0.700000*%
%ADD32RoundRect,0.150000X0.512500X0.150000X-0.512500X0.150000X-0.512500X-0.150000X0.512500X-0.150000X0*%
%ADD33RoundRect,0.250000X0.250000X0.475000X-0.250000X0.475000X-0.250000X-0.475000X0.250000X-0.475000X0*%
%ADD34R,1.350000X1.350000*%
%ADD35O,1.350000X1.350000*%
%ADD36RoundRect,0.225000X0.250000X-0.225000X0.250000X0.225000X-0.250000X0.225000X-0.250000X-0.225000X0*%
%ADD37RoundRect,0.250000X-1.500000X-1.000000X1.500000X-1.000000X1.500000X1.000000X-1.500000X1.000000X0*%
%ADD38RoundRect,0.250000X1.000000X-1.500000X1.000000X1.500000X-1.000000X1.500000X-1.000000X-1.500000X0*%
%ADD39C,2.500000*%
%ADD40R,1.000000X1.000000*%
%ADD41RoundRect,0.225000X0.225000X0.250000X-0.225000X0.250000X-0.225000X-0.250000X0.225000X-0.250000X0*%
%ADD42RoundRect,0.200000X-0.275000X0.200000X-0.275000X-0.200000X0.275000X-0.200000X0.275000X0.200000X0*%
%ADD43RoundRect,0.250000X1.500000X1.000000X-1.500000X1.000000X-1.500000X-1.000000X1.500000X-1.000000X0*%
%ADD44RoundRect,0.250000X-0.325000X-0.650000X0.325000X-0.650000X0.325000X0.650000X-0.325000X0.650000X0*%
%ADD45RoundRect,0.250001X-1.099999X-1.099999X1.099999X-1.099999X1.099999X1.099999X-1.099999X1.099999X0*%
%ADD46C,2.700000*%
%ADD47C,5.600000*%
%ADD48R,1.700000X1.700000*%
%ADD49O,1.700000X1.700000*%
%ADD50RoundRect,0.075000X-0.075000X0.362500X-0.075000X-0.362500X0.075000X-0.362500X0.075000X0.362500X0*%
%ADD51RoundRect,0.075000X-0.362500X0.075000X-0.362500X-0.075000X0.362500X-0.075000X0.362500X0.075000X0*%
%ADD52R,5.450000X5.450000*%
%ADD53R,3.600000X2.700000*%
%ADD54RoundRect,0.125000X-0.125000X-0.375000X0.125000X-0.375000X0.125000X0.375000X-0.125000X0.375000X0*%
%ADD55RoundRect,0.250000X-0.350000X-0.600000X0.350000X-0.600000X0.350000X0.600000X-0.350000X0.600000X0*%
%ADD56RoundRect,0.218750X0.218750X0.256250X-0.218750X0.256250X-0.218750X-0.256250X0.218750X-0.256250X0*%
%ADD57R,1.500000X1.000000*%
%ADD58R,1.550000X0.600000*%
%ADD59R,2.600000X3.100000*%
%ADD60C,1.524000*%
%ADD61O,1.600000X2.000000*%
%ADD62R,2.300000X2.500000*%
%ADD63RoundRect,0.250000X-1.000000X1.500000X-1.000000X-1.500000X1.000000X-1.500000X1.000000X1.500000X0*%
%ADD64R,0.600000X0.450000*%
%ADD65R,3.500000X1.800000*%
%ADD66O,0.900000X3.000000*%
%ADD67C,0.800000*%
%ADD68R,5.000000X5.000000*%
%ADD69R,2.500000X1.800000*%
G04 APERTURE END LIST*
D10*
X173545449Y-72042055D02*
X173543800Y-72037156D01*
X168698725Y-74063265D02*
X168700895Y-74067875D01*
X170426970Y-73520205D02*
X170292690Y-73399455D01*
X173589150Y-72079755D02*
X173545449Y-72042055D01*
X170047190Y-72534955D02*
X170103895Y-72351856D01*
X170516760Y-69272405D02*
X170515940Y-69277855D01*
X170307334Y-70213455D02*
X169713810Y-70456505D01*
X169651415Y-70454605D02*
X169647075Y-70451606D01*
X173784450Y-74821185D02*
X173310000Y-74130000D01*
X170150814Y-73206055D02*
X170059670Y-72980655D01*
X167548010Y-72240905D02*
X167515455Y-72274505D01*
X171384275Y-73685390D02*
X171386440Y-73690270D01*
X171442595Y-69239855D02*
X170561520Y-69239855D01*
X171653900Y-70168655D02*
X171653100Y-70163555D01*
X170561520Y-69239855D02*
X170550120Y-69239855D01*
D11*
G36*
X119412350Y-71959408D02*
G01*
X117052350Y-73339408D01*
X117062350Y-73069408D01*
X119182350Y-71849408D01*
X119182350Y-69609408D01*
X116742350Y-71019408D01*
X116742350Y-74579408D01*
X119822350Y-76359408D01*
X122902350Y-74559408D01*
X122902350Y-73709408D01*
X121462350Y-72869408D01*
X121462350Y-72739408D01*
X122902350Y-71919408D01*
X122902350Y-71219408D01*
X123112350Y-71089408D01*
X123112350Y-72019408D01*
X121792350Y-72789408D01*
X123112350Y-73569408D01*
X123112350Y-74689408D01*
X119822350Y-76609408D01*
X116532350Y-74699408D01*
X116532350Y-70889408D01*
X119402350Y-69239408D01*
X119412350Y-71959408D01*
G37*
X119412350Y-71959408D02*
X117052350Y-73339408D01*
X117062350Y-73069408D01*
X119182350Y-71849408D01*
X119182350Y-69609408D01*
X116742350Y-71019408D01*
X116742350Y-74579408D01*
X119822350Y-76359408D01*
X122902350Y-74559408D01*
X122902350Y-73709408D01*
X121462350Y-72869408D01*
X121462350Y-72739408D01*
X122902350Y-71919408D01*
X122902350Y-71219408D01*
X123112350Y-71089408D01*
X123112350Y-72019408D01*
X121792350Y-72789408D01*
X123112350Y-73569408D01*
X123112350Y-74689408D01*
X119822350Y-76609408D01*
X116532350Y-74699408D01*
X116532350Y-70889408D01*
X119402350Y-69239408D01*
X119412350Y-71959408D01*
D10*
X170521100Y-73586355D02*
X170480680Y-73555705D01*
X167515455Y-73167005D02*
X167515455Y-73178405D01*
X172290550Y-70456505D02*
X171697049Y-70213455D01*
X170103895Y-72351856D02*
X170193680Y-72186355D01*
D11*
G36*
X122982350Y-70809408D02*
G01*
X122762350Y-70929408D01*
X119932350Y-69299408D01*
X119932350Y-75919408D01*
X119822350Y-75979408D01*
X117072350Y-74389408D01*
X117072350Y-73679408D01*
X117302350Y-73809408D01*
X117302350Y-74239408D01*
X119722350Y-75639408D01*
X119732350Y-69039408D01*
X119832350Y-68989408D01*
X122982350Y-70809408D01*
G37*
X122982350Y-70809408D02*
X122762350Y-70929408D01*
X119932350Y-69299408D01*
X119932350Y-75919408D01*
X119822350Y-75979408D01*
X117072350Y-74389408D01*
X117072350Y-73679408D01*
X117302350Y-73809408D01*
X117302350Y-74239408D01*
X119722350Y-75639408D01*
X119732350Y-69039408D01*
X119832350Y-68989408D01*
X122982350Y-70809408D01*
D10*
X169998095Y-75187126D02*
X170000270Y-75182245D01*
X168696825Y-74125390D02*
X168693845Y-74129730D01*
X173307000Y-74125390D02*
X173302700Y-74068145D01*
X173096800Y-75508845D02*
X173101099Y-75511835D01*
X168907330Y-69944105D02*
X168902720Y-69940855D01*
X169955505Y-75202860D02*
X169998095Y-75187126D01*
X168460010Y-72037156D02*
X168458110Y-72042055D01*
X172357050Y-70451606D02*
X172352450Y-70454605D01*
X168436405Y-73406805D02*
X168438040Y-73411955D01*
X167553435Y-73212855D02*
X168388395Y-73368005D01*
X170349930Y-70168655D02*
X170312225Y-70211805D01*
X169646805Y-75037930D02*
X169651415Y-75040640D01*
X170805385Y-71776455D02*
X170952685Y-71756955D01*
X169950895Y-75200415D02*
X169955505Y-75202860D01*
X170619564Y-73685390D02*
X170603835Y-73637355D01*
X171976450Y-72731355D02*
X171976450Y-72793455D01*
X168700895Y-74067875D02*
X168696825Y-74125390D01*
X173302700Y-74068145D02*
X173305100Y-74063535D01*
X173305100Y-74063535D02*
X173565800Y-73412205D01*
D11*
G36*
X119692350Y-72389408D02*
G01*
X117292350Y-73779408D01*
X117072350Y-73669408D01*
X119702350Y-72169408D01*
X119692350Y-72389408D01*
G37*
X119692350Y-72389408D02*
X117292350Y-73779408D01*
X117072350Y-73669408D01*
X119702350Y-72169408D01*
X119692350Y-72389408D01*
D10*
X170312770Y-72042305D02*
X170457079Y-71923255D01*
X171479485Y-73588555D02*
X171404615Y-73634655D01*
X170599495Y-73634655D02*
X170524620Y-73588555D01*
X168414704Y-72079755D02*
X168409555Y-72080855D01*
X170457079Y-71923255D02*
X170622555Y-71833455D01*
X173787400Y-74825525D02*
X173784450Y-74821185D01*
X171944150Y-72980655D02*
X171852750Y-73206055D01*
X174450950Y-72240055D02*
X174450950Y-72240055D01*
X173787400Y-70627155D02*
X173782850Y-70576105D01*
X170000270Y-75182245D02*
X170617670Y-73690270D01*
X173782850Y-70576105D02*
X173779000Y-70572555D01*
X174488650Y-72274255D02*
X174456100Y-72240905D01*
X171482740Y-73586355D02*
X171479485Y-73588555D01*
D11*
G36*
X171653100Y-70163555D02*
G01*
X172357050Y-70451606D01*
X173152100Y-69945705D01*
X173771650Y-70583825D01*
X173271650Y-71383825D01*
X173543800Y-72037156D01*
X174488650Y-72274255D01*
X174488650Y-73167005D01*
X173571650Y-73383825D01*
X173305100Y-74063535D01*
X173787400Y-74825525D01*
X173155900Y-75503425D01*
X172413200Y-75039825D01*
X172005750Y-75187396D01*
X171404615Y-73634655D01*
X171852750Y-73206055D01*
X171971650Y-72583825D01*
X171691050Y-72042305D01*
X171198185Y-71776455D01*
X170771650Y-71783825D01*
X170312770Y-72042305D01*
X170071650Y-72483825D01*
X170071650Y-72883825D01*
X170271650Y-73283825D01*
X170671650Y-73683825D01*
X169971650Y-75183825D01*
X169590650Y-75039825D01*
X168902720Y-75511835D01*
X168219395Y-74821185D01*
X168698725Y-74063265D01*
X168393545Y-73368805D01*
X167515455Y-73167005D01*
X167515455Y-72285905D01*
X168414704Y-72079755D01*
X168718525Y-71358755D01*
X168225095Y-70572555D01*
X168902720Y-69940855D01*
X169647075Y-70451606D01*
X170349930Y-70168655D01*
X170561520Y-69239855D01*
X171453720Y-69239855D01*
X171653100Y-70163555D01*
G37*
X171653100Y-70163555D02*
X172357050Y-70451606D01*
X173152100Y-69945705D01*
X173771650Y-70583825D01*
X173271650Y-71383825D01*
X173543800Y-72037156D01*
X174488650Y-72274255D01*
X174488650Y-73167005D01*
X173571650Y-73383825D01*
X173305100Y-74063535D01*
X173787400Y-74825525D01*
X173155900Y-75503425D01*
X172413200Y-75039825D01*
X172005750Y-75187396D01*
X171404615Y-73634655D01*
X171852750Y-73206055D01*
X171971650Y-72583825D01*
X171691050Y-72042305D01*
X171198185Y-71776455D01*
X170771650Y-71783825D01*
X170312770Y-72042305D01*
X170071650Y-72483825D01*
X170071650Y-72883825D01*
X170271650Y-73283825D01*
X170671650Y-73683825D01*
X169971650Y-75183825D01*
X169590650Y-75039825D01*
X168902720Y-75511835D01*
X168219395Y-74821185D01*
X168698725Y-74063265D01*
X168393545Y-73368805D01*
X167515455Y-73167005D01*
X167515455Y-72285905D01*
X168414704Y-72079755D01*
X168718525Y-71358755D01*
X168225095Y-70572555D01*
X168902720Y-69940855D01*
X169647075Y-70451606D01*
X170349930Y-70168655D01*
X170561520Y-69239855D01*
X171453720Y-69239855D01*
X171653100Y-70163555D01*
D10*
X171404615Y-73634655D02*
X171400005Y-73637355D01*
X171691900Y-70211805D02*
X171653900Y-70168655D01*
X168902720Y-75511835D02*
X168907330Y-75508845D01*
X172357050Y-75037930D02*
X172413200Y-75039825D01*
X170622555Y-71833455D02*
X170805385Y-71776455D01*
X174450700Y-73212855D02*
X174455800Y-73211755D01*
X172352450Y-70454605D02*
X172295200Y-70458705D01*
X173152100Y-75506950D02*
X173155900Y-75503425D01*
X170351010Y-70163555D02*
X170349930Y-70168655D01*
X170603835Y-73637355D02*
X170599495Y-73634655D01*
X168718525Y-71358755D02*
X168721510Y-71363055D01*
X168409555Y-72080855D02*
X167553435Y-72240055D01*
X170292690Y-73399455D02*
X170150814Y-73206055D01*
X171453720Y-69239855D02*
X171442595Y-69239855D01*
X170477155Y-73552455D02*
X170426970Y-73520205D01*
X171976450Y-72682255D02*
X171976450Y-72731355D01*
X170027395Y-72793455D02*
X170027395Y-72731355D01*
X172003850Y-75182515D02*
X172005750Y-75187396D01*
X169647075Y-70451606D02*
X168907330Y-69944105D01*
X171198185Y-71776455D02*
X171381290Y-71833455D01*
X171956650Y-72534955D02*
X171976450Y-72682255D01*
X170027395Y-72731355D02*
X170027395Y-72682255D01*
X168219395Y-74821185D02*
X168216415Y-74825525D01*
X168902720Y-69940855D02*
X168851720Y-69945705D01*
X173567400Y-73407055D02*
X173610050Y-73369105D01*
X171381290Y-71833455D02*
X171546750Y-71923255D01*
X169708930Y-70458705D02*
X169651415Y-70454605D01*
X170027395Y-72682255D02*
X170047190Y-72534955D01*
X168458110Y-72042055D02*
X168414704Y-72079755D01*
X174488650Y-73167005D02*
X174488650Y-72285905D01*
X174455800Y-73211755D02*
X174488650Y-73178105D01*
X172417550Y-75042810D02*
X173096800Y-75508845D01*
X171899700Y-72351856D02*
X171956650Y-72534955D01*
X170617670Y-73690270D02*
X170619564Y-73685390D01*
X173594550Y-72080855D02*
X173589150Y-72079755D01*
X172052950Y-75200415D02*
X172352450Y-75040640D01*
X167515455Y-73178405D02*
X167548010Y-73211755D01*
X173282599Y-71363055D02*
X173285600Y-71358755D01*
X168221295Y-74876525D02*
X168225095Y-74880325D01*
X168216415Y-70627155D02*
X168219665Y-70631755D01*
X170524620Y-73588555D02*
X170521100Y-73586355D01*
X173101099Y-75511835D02*
X173152100Y-75506950D01*
X172005750Y-75187396D02*
X172048050Y-75202860D01*
X173096800Y-69944105D02*
X172357050Y-70451606D01*
X168438040Y-73411955D02*
X168698725Y-74063265D01*
X171697049Y-70213455D02*
X171691900Y-70211805D01*
X172048050Y-75202860D02*
X172052950Y-75200415D01*
X168393545Y-73368805D02*
X168436405Y-73406805D01*
X168851720Y-75506950D02*
X168902720Y-75511835D01*
X169590650Y-75039825D02*
X169646805Y-75037930D01*
X168219665Y-70631755D02*
X168718525Y-71358755D01*
X171809900Y-72186355D02*
X171899700Y-72351856D01*
X173784450Y-70631755D02*
X173787400Y-70627155D01*
X168848190Y-75503425D02*
X168851720Y-75506950D01*
X171400005Y-73637355D02*
X171384275Y-73685390D01*
X168388395Y-73368005D02*
X168393545Y-73368805D01*
X173155900Y-75503425D02*
X173779000Y-74880325D01*
X171002055Y-71756955D02*
X171050885Y-71756955D01*
X171386440Y-73690270D02*
X172003850Y-75182515D01*
X173610050Y-73369105D02*
X173615450Y-73368255D01*
X173782850Y-74876525D02*
X173787400Y-74825525D01*
X171050885Y-71756955D02*
X171198185Y-71776455D01*
X168225095Y-70572555D02*
X168221295Y-70576105D01*
X167515455Y-72285905D02*
X167515455Y-73167005D01*
X173615450Y-73368255D02*
X174450700Y-73212855D01*
X171576600Y-73520455D02*
X171526700Y-73552455D01*
X171488440Y-69277855D02*
X171487350Y-69272405D01*
X173285600Y-71358755D02*
X173784450Y-70631755D01*
X168848190Y-69949505D02*
X168225095Y-70572555D01*
X169586310Y-75042810D02*
X169590650Y-75039825D01*
X174450950Y-72240055D02*
X173594550Y-72080855D01*
X171526700Y-73552455D02*
X171522900Y-73555705D01*
X171487350Y-69272405D02*
X171453720Y-69239855D01*
X167515455Y-72274505D02*
X167515455Y-72285905D01*
X171546750Y-71923255D02*
X171691050Y-72042305D01*
X167548010Y-73211755D02*
X167553435Y-73212855D01*
X173779000Y-74880325D02*
X173782850Y-74876525D01*
X171691050Y-72042305D02*
X171809900Y-72186355D01*
X173543800Y-72037156D02*
X173281500Y-71424905D01*
X170550120Y-69239855D02*
X170516760Y-69272405D01*
X171522900Y-73555705D02*
X171482740Y-73586355D01*
X168722595Y-71424905D02*
X168460010Y-72037156D01*
X168693845Y-74129730D02*
X168219395Y-74821185D01*
X172352450Y-75040640D02*
X172357050Y-75037930D01*
X173279049Y-71420055D02*
X173282599Y-71363055D01*
X168721510Y-71363055D02*
X168725040Y-71420055D01*
X174488650Y-73178105D02*
X174488650Y-73167005D01*
X174488650Y-72285905D02*
X174488650Y-72274255D01*
X172413200Y-75039825D02*
X172417550Y-75042810D01*
X168225095Y-74880325D02*
X168848190Y-75503425D01*
X174456100Y-72240905D02*
X174450950Y-72240055D01*
X172295200Y-70458705D02*
X172290550Y-70456505D01*
X169713810Y-70456505D02*
X169708930Y-70458705D01*
X170480680Y-73555705D02*
X170477155Y-73552455D01*
X169651415Y-75040640D02*
X169950895Y-75200415D01*
X167553435Y-72240055D02*
X167548010Y-72240905D01*
X171710900Y-73399455D02*
X171576600Y-73520455D01*
X173565800Y-73412205D02*
X173567400Y-73407055D01*
X170059670Y-72980655D02*
X170027395Y-72793455D01*
X173310000Y-74130000D02*
X173307000Y-74125390D01*
X171852750Y-73206055D02*
X171710900Y-73399455D01*
X168851720Y-69945705D02*
X168848190Y-69949505D01*
X173281500Y-71424905D02*
X173279049Y-71420055D01*
X171976450Y-72793455D02*
X171944150Y-72980655D01*
X168221295Y-70576105D02*
X168216415Y-70627155D01*
X168216415Y-74825525D02*
X168221295Y-74876525D01*
X170312225Y-70211805D02*
X170307334Y-70213455D01*
X170515940Y-69277855D02*
X170351010Y-70163555D01*
X171653100Y-70163555D02*
X171488440Y-69277855D01*
X168725040Y-71420055D02*
X168722595Y-71424905D01*
X173779000Y-70572555D02*
X173155900Y-69949505D01*
X170952685Y-71756955D02*
X171002055Y-71756955D01*
X168907330Y-75508845D02*
X169586310Y-75042810D01*
X170193680Y-72186355D02*
X170312770Y-72042305D01*
X145442857Y-97426857D02*
X145442857Y-96226857D01*
X145704761Y-96226857D01*
X145861904Y-96284000D01*
X145966666Y-96398285D01*
X146019047Y-96512571D01*
X146071428Y-96741142D01*
X146071428Y-96912571D01*
X146019047Y-97141142D01*
X145966666Y-97255428D01*
X145861904Y-97369714D01*
X145704761Y-97426857D01*
X145442857Y-97426857D01*
X147171428Y-97312571D02*
X147119047Y-97369714D01*
X146961904Y-97426857D01*
X146857142Y-97426857D01*
X146700000Y-97369714D01*
X146595238Y-97255428D01*
X146542857Y-97141142D01*
X146490476Y-96912571D01*
X146490476Y-96741142D01*
X146542857Y-96512571D01*
X146595238Y-96398285D01*
X146700000Y-96284000D01*
X146857142Y-96226857D01*
X146961904Y-96226857D01*
X147119047Y-96284000D01*
X147171428Y-96341142D01*
X148480952Y-97426857D02*
X148480952Y-96226857D01*
X149004761Y-97426857D02*
X149004761Y-96226857D01*
X149633333Y-97426857D01*
X149633333Y-96226857D01*
X150157142Y-97312571D02*
X150209523Y-97369714D01*
X150157142Y-97426857D01*
X150104761Y-97369714D01*
X150157142Y-97312571D01*
X150157142Y-97426857D01*
X150157142Y-96684000D02*
X150209523Y-96741142D01*
X150157142Y-96798285D01*
X150104761Y-96741142D01*
X150157142Y-96684000D01*
X150157142Y-96798285D01*
X145076190Y-97820000D02*
X146123809Y-97820000D01*
X145233333Y-98158857D02*
X145966666Y-98158857D01*
X145495238Y-99358857D01*
X146123809Y-97820000D02*
X147485714Y-97820000D01*
X146385714Y-98901714D02*
X147223809Y-98901714D01*
X147485714Y-97820000D02*
X148533333Y-97820000D01*
X147695238Y-98273142D02*
X147747619Y-98216000D01*
X147852380Y-98158857D01*
X148114285Y-98158857D01*
X148219047Y-98216000D01*
X148271428Y-98273142D01*
X148323809Y-98387428D01*
X148323809Y-98501714D01*
X148271428Y-98673142D01*
X147642857Y-99358857D01*
X148323809Y-99358857D01*
X148533333Y-97820000D02*
X149580952Y-97820000D01*
X148690476Y-98158857D02*
X149423809Y-98158857D01*
X148952380Y-99358857D01*
X149580952Y-97820000D02*
X150523809Y-97820000D01*
X149685714Y-98158857D02*
X150052380Y-99358857D01*
X150419047Y-98158857D01*
D12*
X175317142Y-73756190D02*
X175488571Y-73818095D01*
X175774285Y-73818095D01*
X175888571Y-73756190D01*
X175945714Y-73694285D01*
X176002857Y-73570476D01*
X176002857Y-73446666D01*
X175945714Y-73322857D01*
X175888571Y-73260952D01*
X175774285Y-73199047D01*
X175545714Y-73137142D01*
X175431428Y-73075238D01*
X175374285Y-73013333D01*
X175317142Y-72889523D01*
X175317142Y-72765714D01*
X175374285Y-72641904D01*
X175431428Y-72580000D01*
X175545714Y-72518095D01*
X175831428Y-72518095D01*
X176002857Y-72580000D01*
X176745714Y-72518095D02*
X176974285Y-72518095D01*
X177088571Y-72580000D01*
X177202857Y-72703809D01*
X177260000Y-72951428D01*
X177260000Y-73384761D01*
X177202857Y-73632380D01*
X177088571Y-73756190D01*
X176974285Y-73818095D01*
X176745714Y-73818095D01*
X176631428Y-73756190D01*
X176517142Y-73632380D01*
X176460000Y-73384761D01*
X176460000Y-72951428D01*
X176517142Y-72703809D01*
X176631428Y-72580000D01*
X176745714Y-72518095D01*
X177774285Y-72518095D02*
X177774285Y-73570476D01*
X177831428Y-73694285D01*
X177888571Y-73756190D01*
X178002857Y-73818095D01*
X178231428Y-73818095D01*
X178345714Y-73756190D01*
X178402857Y-73694285D01*
X178460000Y-73570476D01*
X178460000Y-72518095D01*
X179717142Y-73818095D02*
X179317142Y-73199047D01*
X179031428Y-73818095D02*
X179031428Y-72518095D01*
X179488571Y-72518095D01*
X179602857Y-72580000D01*
X179660000Y-72641904D01*
X179717142Y-72765714D01*
X179717142Y-72951428D01*
X179660000Y-73075238D01*
X179602857Y-73137142D01*
X179488571Y-73199047D01*
X179031428Y-73199047D01*
X180917142Y-73694285D02*
X180860000Y-73756190D01*
X180688571Y-73818095D01*
X180574285Y-73818095D01*
X180402857Y-73756190D01*
X180288571Y-73632380D01*
X180231428Y-73508571D01*
X180174285Y-73260952D01*
X180174285Y-73075238D01*
X180231428Y-72827619D01*
X180288571Y-72703809D01*
X180402857Y-72580000D01*
X180574285Y-72518095D01*
X180688571Y-72518095D01*
X180860000Y-72580000D01*
X180917142Y-72641904D01*
X181431428Y-73137142D02*
X181831428Y-73137142D01*
X182002857Y-73818095D02*
X181431428Y-73818095D01*
X181431428Y-72518095D01*
X182002857Y-72518095D01*
D13*
X175226666Y-75427619D02*
X175226666Y-74327619D01*
X175226666Y-74851428D02*
X175769523Y-74851428D01*
X175769523Y-75427619D02*
X175769523Y-74327619D01*
X176176666Y-75113333D02*
X176629047Y-75113333D01*
X176086190Y-75427619D02*
X176402857Y-74327619D01*
X176719523Y-75427619D01*
X177579047Y-75427619D02*
X177262380Y-74903809D01*
X177036190Y-75427619D02*
X177036190Y-74327619D01*
X177398095Y-74327619D01*
X177488571Y-74380000D01*
X177533809Y-74432380D01*
X177579047Y-74537142D01*
X177579047Y-74694285D01*
X177533809Y-74799047D01*
X177488571Y-74851428D01*
X177398095Y-74903809D01*
X177036190Y-74903809D01*
X177986190Y-75427619D02*
X177986190Y-74327619D01*
X178212380Y-74327619D01*
X178348095Y-74380000D01*
X178438571Y-74484761D01*
X178483809Y-74589523D01*
X178529047Y-74799047D01*
X178529047Y-74956190D01*
X178483809Y-75165714D01*
X178438571Y-75270476D01*
X178348095Y-75375238D01*
X178212380Y-75427619D01*
X177986190Y-75427619D01*
X178845714Y-74327619D02*
X179071904Y-75427619D01*
X179252857Y-74641904D01*
X179433809Y-75427619D01*
X179660000Y-74327619D01*
X179976666Y-75113333D02*
X180429047Y-75113333D01*
X179886190Y-75427619D02*
X180202857Y-74327619D01*
X180519523Y-75427619D01*
X181379047Y-75427619D02*
X181062380Y-74903809D01*
X180836190Y-75427619D02*
X180836190Y-74327619D01*
X181198095Y-74327619D01*
X181288571Y-74380000D01*
X181333809Y-74432380D01*
X181379047Y-74537142D01*
X181379047Y-74694285D01*
X181333809Y-74799047D01*
X181288571Y-74851428D01*
X181198095Y-74903809D01*
X180836190Y-74903809D01*
X181786190Y-74851428D02*
X182102857Y-74851428D01*
X182238571Y-75427619D02*
X181786190Y-75427619D01*
X181786190Y-74327619D01*
X182238571Y-74327619D01*
D14*
X128371428Y-74928571D02*
X128371428Y-77128571D01*
X129323809Y-76080952D02*
X129419047Y-76290476D01*
X129609523Y-76395238D01*
X128371428Y-76080952D02*
X128466666Y-76290476D01*
X128657142Y-76395238D01*
X129038095Y-76395238D01*
X129228571Y-76290476D01*
X129323809Y-76080952D01*
X129323809Y-74928571D01*
X130180952Y-74195238D02*
X130847619Y-76395238D01*
X131514285Y-74195238D01*
X132561904Y-74195238D02*
X132942857Y-74195238D01*
X133133333Y-74300000D01*
X133323809Y-74509523D01*
X133419047Y-74928571D01*
X133419047Y-75661904D01*
X133323809Y-76080952D01*
X133133333Y-76290476D01*
X132942857Y-76395238D01*
X132561904Y-76395238D01*
X132371428Y-76290476D01*
X132180952Y-76080952D01*
X132085714Y-75661904D01*
X132085714Y-74928571D01*
X132180952Y-74509523D01*
X132371428Y-74300000D01*
X132561904Y-74195238D01*
X134085714Y-74195238D02*
X135419047Y-76395238D01*
X135419047Y-74195238D02*
X134085714Y-76395238D01*
D15*
X175681428Y-69934761D02*
X176024285Y-69934761D01*
X176195714Y-70030000D01*
X176367142Y-70220476D01*
X176452857Y-70601428D01*
X176452857Y-71268095D01*
X176367142Y-71649047D01*
X176195714Y-71839523D01*
X176024285Y-71934761D01*
X175681428Y-71934761D01*
X175510000Y-71839523D01*
X175338571Y-71649047D01*
X175252857Y-71268095D01*
X175252857Y-70601428D01*
X175338571Y-70220476D01*
X175510000Y-70030000D01*
X175681428Y-69934761D01*
X177224285Y-71934761D02*
X177224285Y-69934761D01*
X177910000Y-69934761D01*
X178081428Y-70030000D01*
X178167142Y-70125238D01*
X178252857Y-70315714D01*
X178252857Y-70601428D01*
X178167142Y-70791904D01*
X178081428Y-70887142D01*
X177910000Y-70982380D01*
X177224285Y-70982380D01*
X179024285Y-70887142D02*
X179624285Y-70887142D01*
X179881428Y-71934761D02*
X179024285Y-71934761D01*
X179024285Y-69934761D01*
X179881428Y-69934761D01*
X180652857Y-71934761D02*
X180652857Y-69934761D01*
X181681428Y-71934761D01*
X181681428Y-69934761D01*
D10*
X135714285Y-100050000D02*
X136147619Y-100050000D01*
X136333333Y-100783333D02*
X135714285Y-100783333D01*
X135714285Y-99383333D01*
X136333333Y-99383333D01*
X136828571Y-100716666D02*
X137014285Y-100783333D01*
X137323809Y-100783333D01*
X137447619Y-100716666D01*
X137509523Y-100650000D01*
X137571428Y-100516666D01*
X137571428Y-100383333D01*
X137509523Y-100250000D01*
X137447619Y-100183333D01*
X137323809Y-100116666D01*
X137076190Y-100050000D01*
X136952380Y-99983333D01*
X136890476Y-99916666D01*
X136828571Y-99783333D01*
X136828571Y-99650000D01*
X136890476Y-99516666D01*
X136952380Y-99450000D01*
X137076190Y-99383333D01*
X137385714Y-99383333D01*
X137571428Y-99450000D01*
X138128571Y-100783333D02*
X138128571Y-99383333D01*
X138623809Y-99383333D01*
X138747619Y-99450000D01*
X138809523Y-99516666D01*
X138871428Y-99650000D01*
X138871428Y-99850000D01*
X138809523Y-99983333D01*
X138747619Y-100050000D01*
X138623809Y-100116666D01*
X138128571Y-100116666D01*
X139304761Y-99383333D02*
X140109523Y-99383333D01*
X139676190Y-99916666D01*
X139861904Y-99916666D01*
X139985714Y-99983333D01*
X140047619Y-100050000D01*
X140109523Y-100183333D01*
X140109523Y-100516666D01*
X140047619Y-100650000D01*
X139985714Y-100716666D01*
X139861904Y-100783333D01*
X139490476Y-100783333D01*
X139366666Y-100716666D01*
X139304761Y-100650000D01*
X140604761Y-99516666D02*
X140666666Y-99450000D01*
X140790476Y-99383333D01*
X141100000Y-99383333D01*
X141223809Y-99450000D01*
X141285714Y-99516666D01*
X141347619Y-99650000D01*
X141347619Y-99783333D01*
X141285714Y-99983333D01*
X140542857Y-100783333D01*
X141347619Y-100783333D01*
D16*
X140719000Y-67967500D03*
X140719000Y-69867500D03*
X134569000Y-67950600D03*
X134569000Y-69850600D03*
D17*
X158153380Y-111700000D03*
X159703380Y-111700000D03*
D18*
X154678380Y-101956510D03*
X154678380Y-103506510D03*
X173392395Y-100350000D03*
X173392395Y-101900000D03*
D19*
X173642395Y-105300000D03*
X173642395Y-103400000D03*
D20*
X169299100Y-66964600D03*
X170874100Y-66964600D03*
D21*
X147742110Y-111652500D03*
D22*
X147742110Y-102652500D03*
D23*
X147742110Y-108652500D03*
D24*
X143242110Y-109652500D03*
X152242110Y-109652500D03*
D25*
X157400000Y-109310010D03*
X157400000Y-102807610D03*
X160400000Y-109310010D03*
X160400000Y-102807610D03*
D26*
X167848620Y-108583010D03*
X169118620Y-108583010D03*
X170388620Y-108583010D03*
X171658620Y-108583010D03*
X171658620Y-103433010D03*
X170388620Y-103433010D03*
X169118620Y-103433010D03*
X167848620Y-103433010D03*
D27*
X167150000Y-63500000D03*
X167150000Y-65400000D03*
X169550000Y-64450000D03*
D28*
X170475000Y-110514010D03*
X172125000Y-110514010D03*
D29*
X169150000Y-110500000D03*
X167500000Y-110500000D03*
X167623600Y-67015400D03*
X165973600Y-67015400D03*
D30*
X165616200Y-65376600D03*
X165616200Y-63726600D03*
X171204200Y-65376600D03*
X171204200Y-63726600D03*
D31*
X131258000Y-68988000D03*
X131258000Y-72688000D03*
X125258000Y-68988000D03*
X125258000Y-72688000D03*
D32*
X138787500Y-69850000D03*
X138787500Y-68900000D03*
X138787500Y-67950000D03*
X136512500Y-67950000D03*
X136512500Y-69850000D03*
D33*
X169500000Y-112263990D03*
X167600000Y-112263990D03*
D34*
X147000000Y-85150000D03*
D35*
X147000000Y-87150000D03*
X147000000Y-89150000D03*
X147000000Y-91150000D03*
X147000000Y-93150000D03*
D36*
X179820000Y-82515000D03*
X179820000Y-80965000D03*
D37*
X151690000Y-79502000D03*
X158190000Y-79502000D03*
D33*
X191000000Y-81050000D03*
X189100000Y-81050000D03*
D36*
X113647600Y-106260800D03*
X113647600Y-104710800D03*
D38*
X174620380Y-96715490D03*
X174620380Y-90215490D03*
D36*
X187260000Y-80555000D03*
X187260000Y-79005000D03*
D33*
X191000000Y-95500000D03*
X189100000Y-95500000D03*
D39*
X193700000Y-111450000D03*
X193700000Y-106450000D03*
D40*
X149500000Y-89925000D03*
X149500000Y-92425000D03*
D41*
X187775000Y-105650000D03*
X186225000Y-105650000D03*
D42*
X151300000Y-91850000D03*
X151300000Y-93500000D03*
D33*
X191000000Y-97500000D03*
X189100000Y-97500000D03*
D43*
X168200000Y-83650000D03*
X161700000Y-83650000D03*
D29*
X172625000Y-112000000D03*
X170975000Y-112000000D03*
D41*
X125422600Y-103110800D03*
X123872600Y-103110800D03*
X187770000Y-111890000D03*
X186220000Y-111890000D03*
X187975000Y-71290000D03*
X186425000Y-71290000D03*
D44*
X184700000Y-107580000D03*
X187650000Y-107580000D03*
D33*
X185400000Y-77010000D03*
X183500000Y-77010000D03*
D42*
X151300000Y-88800000D03*
X151300000Y-90450000D03*
D41*
X196395000Y-94430000D03*
X194845000Y-94430000D03*
D44*
X184695000Y-109940000D03*
X187645000Y-109940000D03*
D28*
X134200000Y-72900000D03*
X135850000Y-72900000D03*
D36*
X122050000Y-101675000D03*
X122050000Y-100125000D03*
D16*
X154620000Y-64860000D03*
X154620000Y-66760000D03*
D45*
X145800490Y-105850490D03*
D46*
X149760490Y-105850490D03*
D44*
X184900000Y-69350000D03*
X187850000Y-69350000D03*
D17*
X156950000Y-91600000D03*
X158500000Y-91600000D03*
D41*
X196635000Y-87760000D03*
X195085000Y-87760000D03*
D33*
X185400000Y-81050000D03*
X183500000Y-81050000D03*
D29*
X153505000Y-74240000D03*
X151855000Y-74240000D03*
D47*
X118500000Y-65500000D03*
D44*
X184900000Y-66975000D03*
X187850000Y-66975000D03*
D48*
X127150000Y-64800000D03*
D49*
X129690000Y-64800000D03*
X132230000Y-64800000D03*
X134770000Y-64800000D03*
X137310000Y-64800000D03*
X139850000Y-64800000D03*
D29*
X156855000Y-74250000D03*
X155205000Y-74250000D03*
D50*
X190531250Y-83793750D03*
X190031250Y-83793750D03*
X189531250Y-83793750D03*
X189031250Y-83793750D03*
X188531250Y-83793750D03*
X188031250Y-83793750D03*
X187531250Y-83793750D03*
X187031250Y-83793750D03*
X186531250Y-83793750D03*
X186031250Y-83793750D03*
X185531250Y-83793750D03*
X185031250Y-83793750D03*
X184531250Y-83793750D03*
X184031250Y-83793750D03*
X183531250Y-83793750D03*
X183031250Y-83793750D03*
D51*
X182343750Y-84481250D03*
X182343750Y-84981250D03*
X182343750Y-85481250D03*
X182343750Y-85981250D03*
X182343750Y-86481250D03*
X182343750Y-86981250D03*
X182343750Y-87481250D03*
X182343750Y-87981250D03*
X182343750Y-88481250D03*
X182343750Y-88981250D03*
X182343750Y-89481250D03*
X182343750Y-89981250D03*
X182343750Y-90481250D03*
X182343750Y-90981250D03*
X182343750Y-91481250D03*
X182343750Y-91981250D03*
D50*
X183031250Y-92668750D03*
X183531250Y-92668750D03*
X184031250Y-92668750D03*
X184531250Y-92668750D03*
X185031250Y-92668750D03*
X185531250Y-92668750D03*
X186031250Y-92668750D03*
X186531250Y-92668750D03*
X187031250Y-92668750D03*
X187531250Y-92668750D03*
X188031250Y-92668750D03*
X188531250Y-92668750D03*
X189031250Y-92668750D03*
X189531250Y-92668750D03*
X190031250Y-92668750D03*
X190531250Y-92668750D03*
D51*
X191218750Y-91981250D03*
X191218750Y-91481250D03*
X191218750Y-90981250D03*
X191218750Y-90481250D03*
X191218750Y-89981250D03*
X191218750Y-89481250D03*
X191218750Y-88981250D03*
X191218750Y-88481250D03*
X191218750Y-87981250D03*
X191218750Y-87481250D03*
X191218750Y-86981250D03*
X191218750Y-86481250D03*
X191218750Y-85981250D03*
X191218750Y-85481250D03*
X191218750Y-84981250D03*
X191218750Y-84481250D03*
D52*
X186781250Y-88231250D03*
D53*
X147828000Y-63414000D03*
X147828000Y-71714000D03*
D54*
X131400000Y-110650000D03*
X132200000Y-110650000D03*
X133000000Y-110650000D03*
X133800000Y-110650000D03*
X134600000Y-110650000D03*
X135400000Y-110650000D03*
X136200000Y-110650000D03*
X137000000Y-110650000D03*
X137800000Y-110650000D03*
X138600000Y-110650000D03*
D55*
X139900000Y-112600000D03*
X130100000Y-112600000D03*
D56*
X138800000Y-71400000D03*
X137225000Y-71400000D03*
D42*
X120550000Y-100050000D03*
X120550000Y-101700000D03*
D36*
X179820000Y-85555000D03*
X179820000Y-84005000D03*
D57*
X115475200Y-105050000D03*
X115475200Y-108250000D03*
X120375200Y-108250000D03*
X120375200Y-105050000D03*
D19*
X196790000Y-83040000D03*
X196790000Y-81140000D03*
D58*
X155288000Y-68707000D03*
X155288000Y-69977000D03*
X155288000Y-71247000D03*
X155288000Y-72517000D03*
X160688000Y-72517000D03*
X160688000Y-71247000D03*
X160688000Y-69977000D03*
X160688000Y-68707000D03*
D59*
X157988000Y-70612000D03*
D60*
X119920000Y-112268000D03*
X121920000Y-112268000D03*
X123920000Y-112268000D03*
D61*
X125920000Y-112268000D03*
X117920000Y-112268000D03*
D33*
X185400000Y-97450000D03*
X183500000Y-97450000D03*
D62*
X164700000Y-108100000D03*
X164700000Y-103800000D03*
D33*
X185400000Y-95400000D03*
X183500000Y-95400000D03*
D41*
X187975000Y-65030000D03*
X186425000Y-65030000D03*
D28*
X134225000Y-71400000D03*
X135875000Y-71400000D03*
X179665000Y-78160000D03*
X181315000Y-78160000D03*
D43*
X168200000Y-92500000D03*
X161700000Y-92500000D03*
D63*
X174620380Y-79657990D03*
X174620380Y-86157990D03*
D28*
X134811000Y-102870000D03*
X136461000Y-102870000D03*
D16*
X131350000Y-104800000D03*
X131350000Y-106700000D03*
D36*
X194800000Y-92510000D03*
X194800000Y-90960000D03*
D28*
X138113000Y-102870000D03*
X139763000Y-102870000D03*
D16*
X196540000Y-90970000D03*
X196540000Y-92870000D03*
D36*
X193460000Y-83045000D03*
X193460000Y-81495000D03*
D16*
X165608000Y-70678000D03*
X165608000Y-72578000D03*
D47*
X177550000Y-65500000D03*
D33*
X185400000Y-79050000D03*
X183500000Y-79050000D03*
D36*
X195000000Y-83060000D03*
X195000000Y-81510000D03*
D18*
X187290000Y-95935000D03*
X187290000Y-97485000D03*
D17*
X195140000Y-84550000D03*
X196690000Y-84550000D03*
D57*
X124200000Y-105050000D03*
X124200000Y-108250000D03*
X129100000Y-108250000D03*
X129100000Y-105050000D03*
D64*
X142760000Y-74760000D03*
X144860000Y-74760000D03*
D65*
X154050000Y-88200000D03*
X158450000Y-88200000D03*
D17*
X157250000Y-84850000D03*
X158800000Y-84850000D03*
D66*
X120090000Y-97231250D03*
X121360000Y-97231250D03*
X122630000Y-97231250D03*
X123900000Y-97231250D03*
X125170000Y-97231250D03*
X126440000Y-97231250D03*
X127710000Y-97231250D03*
X128980000Y-97231250D03*
X130250000Y-97231250D03*
X131520000Y-97231250D03*
X132790000Y-97231250D03*
X134060000Y-97231250D03*
X135330000Y-97231250D03*
X136600000Y-97231250D03*
X137900000Y-97231250D03*
X139170000Y-97231250D03*
X140440000Y-97231250D03*
X141710000Y-97231250D03*
X142980000Y-97231250D03*
X142980000Y-79231250D03*
X141710000Y-79231250D03*
X140440000Y-79231250D03*
X139170000Y-79231250D03*
X137900000Y-79231250D03*
X136600000Y-79201250D03*
X135330000Y-79201250D03*
X134060000Y-79201250D03*
X132790000Y-79201250D03*
X131520000Y-79201250D03*
X130250000Y-79201250D03*
X128980000Y-79201250D03*
X127710000Y-79201250D03*
X126440000Y-79201250D03*
X125170000Y-79201250D03*
X123900000Y-79201250D03*
X122630000Y-79201250D03*
X121360000Y-79201250D03*
X120090000Y-79201250D03*
D67*
X126000000Y-88631250D03*
X125000000Y-86631250D03*
X125000000Y-89631250D03*
X128000000Y-87631250D03*
X126000000Y-87631250D03*
X127000000Y-89631250D03*
X128000000Y-90631250D03*
X126000000Y-86631250D03*
X125000000Y-88631250D03*
X129000000Y-90631250D03*
X128000000Y-88631250D03*
X125000000Y-87631250D03*
X127000000Y-87631250D03*
D68*
X127010000Y-88631250D03*
D67*
X128000000Y-86631250D03*
X129000000Y-87631250D03*
X127000000Y-88631250D03*
X129000000Y-86631250D03*
X127000000Y-90631250D03*
X128000000Y-89631250D03*
X126000000Y-89631250D03*
X125000000Y-90631250D03*
X126000000Y-90631250D03*
X129000000Y-88631250D03*
X129000000Y-89631250D03*
X127000000Y-86631250D03*
D16*
X163322000Y-70678000D03*
X163322000Y-72578000D03*
D17*
X195075000Y-89280000D03*
X196625000Y-89280000D03*
D33*
X185400000Y-99460000D03*
X183500000Y-99460000D03*
D39*
X193750000Y-65650000D03*
X193750000Y-70650000D03*
D69*
X161370000Y-65810000D03*
X157370000Y-65810000D03*
D33*
X191000000Y-79050000D03*
X189100000Y-79050000D03*
D17*
X195100000Y-86240000D03*
X196650000Y-86240000D03*
D47*
X177550000Y-109600000D03*
M02*
