M48
; DRILL file {KiCad (6.0.5-0)} date 2022 June 13, Monday 22:11:11
; FORMAT={-:-/ absolute / inch / decimal}
; #@! TF.CreationDate,2022-06-13T22:11:11+02:00
; #@! TF.GenerationSoftware,Kicad,Pcbnew,(6.0.5-0)
; #@! TF.FileFunction,Plated,1,4,PTH
FMAT,2
INCH
; #@! TA.AperFunction,Plated,PTH,ComponentDrill
T1C0.0118
; #@! TA.AperFunction,Plated,PTH,ViaDrill
T2C0.0157
; #@! TA.AperFunction,Plated,PTH,ComponentDrill
T3C0.0315
; #@! TA.AperFunction,Plated,PTH,ComponentDrill
T4C0.0354
; #@! TA.AperFunction,Plated,PTH,ComponentDrill
T5C0.0360
; #@! TA.AperFunction,Plated,PTH,ComponentDrill
T6C0.0394
; #@! TA.AperFunction,Plated,PTH,ComponentDrill
T7C0.0512
; #@! TA.AperFunction,Plated,PTH,ComponentDrill
T8C0.0669
; #@! TA.AperFunction,Plated,PTH,ComponentDrill
T9C0.1260
%
G90
G05
T1
X4.9213Y-3.4107
X4.9213Y-3.45
X4.9213Y-3.4894
X4.9213Y-3.5288
X4.9213Y-3.5682
X4.9606Y-3.4107
X4.9606Y-3.45
X4.9606Y-3.4894
X4.9606Y-3.5288
X4.9606Y-3.5682
X5.0Y-3.4107
X5.0Y-3.45
X5.0Y-3.4894
X5.0Y-3.5288
X5.0Y-3.5682
X5.0394Y-3.4107
X5.0394Y-3.45
X5.0394Y-3.4894
X5.0394Y-3.5288
X5.0394Y-3.5682
X5.0787Y-3.4107
X5.0787Y-3.45
X5.0787Y-3.4894
X5.0787Y-3.5288
X5.0787Y-3.5682
X6.1964Y-2.7091
X6.1964Y-2.7564
X6.1964Y-2.8076
X6.1964Y-2.8509
X6.2436Y-2.7091
X6.2436Y-2.7564
X6.2436Y-2.8076
X6.2436Y-2.8509
X7.2576Y-3.3777
X7.2576Y-3.4237
X7.2576Y-3.4737
X7.2576Y-3.5237
X7.2576Y-3.5697
X7.3076Y-3.3777
X7.3076Y-3.4237
X7.3076Y-3.4737
X7.3076Y-3.5237
X7.3076Y-3.5697
X7.3536Y-3.3777
X7.3536Y-3.4237
X7.3536Y-3.4737
X7.3536Y-3.5237
X7.3536Y-3.5697
X7.4036Y-3.3777
X7.4036Y-3.4237
X7.4036Y-3.4737
X7.4036Y-3.5237
X7.4036Y-3.5697
X7.4496Y-3.3777
X7.4496Y-3.4237
X7.4496Y-3.4737
X7.4496Y-3.5237
X7.4496Y-3.5697
T2
X4.7776Y-3.7323
X4.8287Y-3.7402
X4.8484Y-2.6594
X4.878Y-3.0295
X4.8979Y-3.9587
X4.8979Y-3.9587
X4.8979Y-3.998
X4.8979Y-3.998
X4.9272Y-3.7402
X4.9329Y-3.9587
X4.9329Y-3.9587
X4.9329Y-3.998
X4.9329Y-3.998
X4.9689Y-3.9587
X4.9689Y-3.9587
X4.9689Y-3.998
X4.9689Y-3.998
X4.9705Y-4.313
X5.0039Y-3.9587
X5.0039Y-3.9587
X5.0039Y-3.998
X5.0039Y-3.998
X5.0394Y-3.2224
X5.0394Y-3.3092
X5.06Y-4.42
X5.0689Y-4.0964
X5.0787Y-3.2008
X5.0787Y-3.308
X5.1299Y-3.2224
X5.1319Y-4.0669
X5.1732Y-4.2717
X5.1732Y-4.3071
X5.1772Y-3.7461
X5.1791Y-3.1909
X5.2224Y-4.065
X5.2264Y-3.7461
X5.2343Y-4.437
X5.2362Y-4.2933
X5.2382Y-2.6713
X5.2598Y-3.3937
X5.2657Y-4.252
X5.2689Y-3.3554
X5.2815Y-3.2598
X5.2835Y-3.3031
X5.2936Y-3.9254
X5.2972Y-4.2933
X5.3051Y-3.9803
X5.3307Y-4.4016
X5.3389Y-4.4705
X5.3389Y-4.4705
X5.3406Y-4.185
X5.3406Y-4.185
X5.3406Y-4.22
X5.3406Y-4.22
X5.3406Y-4.256
X5.3406Y-4.256
X5.3406Y-4.291
X5.3406Y-4.291
X5.3581Y-2.7116
X5.3739Y-4.4705
X5.3739Y-4.4705
X5.378Y-3.0276
X5.3799Y-4.185
X5.3799Y-4.185
X5.3799Y-4.22
X5.3799Y-4.22
X5.3799Y-4.256
X5.3799Y-4.256
X5.3799Y-4.291
X5.3799Y-4.291
X5.3878Y-3.4994
X5.391Y-2.7122
X5.4099Y-4.4705
X5.4099Y-4.4705
X5.4173Y-2.9606
X5.4173Y-2.9961
X5.4173Y-3.0315
X5.4252Y-4.2933
X5.4272Y-3.624
X5.4311Y-3.5354
X5.4311Y-3.5787
X5.4313Y-3.4136
X5.4449Y-4.4705
X5.4449Y-4.4705
X5.4528Y-2.9606
X5.4528Y-2.9961
X5.4528Y-3.0315
X5.4547Y-4.252
X5.4882Y-2.9605
X5.4882Y-2.9605
X5.4882Y-2.9959
X5.4882Y-2.9959
X5.4882Y-3.0314
X5.4882Y-3.0314
X5.5906Y-2.8091
X5.6009Y-3.5064
X5.6946Y-3.03
X5.6946Y-3.0654
X5.73Y-3.03
X5.73Y-3.0654
X5.8858Y-3.5886
X6.0466Y-3.4334
X6.0469Y-3.3949
X6.0476Y-3.3535
X6.1251Y-4.1241
X6.1606Y-4.1241
X6.1606Y-4.1596
X6.196Y-4.124
X6.196Y-4.124
X6.196Y-4.1594
X6.196Y-4.1594
X6.196Y-4.1949
X6.196Y-4.1949
X6.2314Y-4.1222
X6.2314Y-4.1576
X6.2314Y-4.193
X6.2669Y-4.1222
X6.2669Y-4.1576
X6.2669Y-4.193
X6.3023Y-4.122
X6.3023Y-4.122
X6.3023Y-4.1575
X6.3023Y-4.1575
X6.3023Y-4.1929
X6.3023Y-4.1929
X6.33Y-2.88
X6.3377Y-4.1202
X6.3377Y-4.1556
X6.3377Y-4.1911
X6.3382Y-3.5725
X6.3382Y-3.5725
X6.3472Y-3.3949
X6.3732Y-4.1202
X6.3732Y-4.1556
X6.3732Y-4.1911
X6.3732Y-3.5725
X6.3732Y-3.5725
X6.39Y-2.8746
X6.39Y-2.91
X6.3902Y-3.3939
X6.4092Y-3.5725
X6.4092Y-3.5725
X6.4246Y-2.8746
X6.4246Y-2.91
X6.4312Y-3.3939
X6.4442Y-3.5725
X6.4442Y-3.5725
X6.4469Y-3.0789
X6.4469Y-3.1143
X6.4469Y-3.1497
X6.46Y-2.8746
X6.46Y-2.91
X6.4702Y-3.3939
X6.4812Y-3.6095
X6.4812Y-3.6095
X6.4812Y-3.6445
X6.4812Y-3.6445
X6.4812Y-3.6805
X6.4812Y-3.6805
X6.4812Y-3.7155
X6.4812Y-3.7155
X6.4823Y-3.0789
X6.4823Y-3.1143
X6.4823Y-3.1497
X6.4946Y-2.8746
X6.4946Y-2.91
X6.5146Y-2.7626
X6.5177Y-3.0787
X6.5177Y-3.0787
X6.5177Y-3.1142
X6.5177Y-3.1142
X6.5177Y-3.1496
X6.5177Y-3.1496
X6.53Y-2.8746
X6.53Y-2.91
X6.5531Y-3.0789
X6.5531Y-3.1143
X6.5531Y-3.1497
X6.5543Y-2.7626
X6.5886Y-3.0789
X6.5886Y-3.1143
X6.5886Y-3.1497
X6.5972Y-2.7626
X6.5984Y-2.5906
X6.6232Y-4.1735
X6.624Y-3.0787
X6.624Y-3.0787
X6.624Y-3.1142
X6.624Y-3.1142
X6.624Y-3.1496
X6.624Y-3.1496
X6.6319Y-2.4646
X6.6732Y-4.1735
X6.7182Y-3.4515
X6.7182Y-3.4865
X6.7182Y-3.4865
X6.7282Y-4.1735
X6.7542Y-3.4865
X6.7542Y-3.4865
X6.7542Y-3.5205
X6.7542Y-3.5565
X6.7552Y-3.4165
X6.7552Y-3.4515
X6.7892Y-3.4165
X6.7892Y-3.4515
X6.7892Y-3.4865
X6.7892Y-3.4865
X6.7892Y-3.5205
X6.7892Y-3.5565
X6.9773Y-3.7265
X6.9943Y-3.6487
X6.9952Y-3.4295
X6.9952Y-3.4725
X6.9952Y-3.5235
X6.9962Y-3.3855
X7.0362Y-3.3855
X7.0454Y-3.6594
X7.0772Y-3.1255
X7.0842Y-3.4835
X7.0842Y-3.5525
X7.1392Y-3.1255
X7.1868Y-2.8406
X7.2358Y-2.6358
X7.2362Y-2.7303
X7.2394Y-4.2398
X7.2394Y-4.3331
X7.248Y-3.0315
X7.3051Y-2.7303
X7.3055Y-2.6358
X7.3055Y-4.2394
X7.3055Y-4.3331
X7.3132Y-3.2502
X7.3132Y-3.6055
X7.3142Y-3.3395
X7.3142Y-3.6965
X7.3571Y-2.9839
X7.3722Y-3.3385
X7.3722Y-3.6965
X7.3722Y-3.7315
X7.3728Y-3.0665
X7.3732Y-3.2095
X7.3732Y-3.2485
X7.3732Y-3.6065
X7.3742Y-3.8781
X7.3749Y-3.9765
X7.3776Y-3.9417
X7.3831Y-3.0099
X7.4312Y-3.2502
X7.4312Y-3.6055
X7.4322Y-3.3395
X7.4322Y-3.6965
X7.4843Y-2.9941
X7.4902Y-3.0512
X7.5335Y-3.0512
X7.5472Y-3.25
X7.5925Y-3.0748
X7.6437Y-3.5157
X7.6452Y-3.7925
X7.6452Y-3.8345
X7.6575Y-2.9984
X7.6929Y-3.0299
X7.7008Y-2.6458
X7.7008Y-2.6812
X7.7008Y-2.7167
X7.7008Y-4.26
X7.7008Y-4.2954
X7.7008Y-4.3308
X7.7103Y-3.8566
X7.7283Y-3.0594
X7.7362Y-2.6458
X7.7362Y-2.6812
X7.7362Y-2.7167
X7.7362Y-4.26
X7.7362Y-4.2954
X7.7362Y-4.3308
X7.7512Y-3.5765
X7.7717Y-2.6457
X7.7717Y-2.6457
X7.7717Y-2.6811
X7.7717Y-2.6811
X7.7717Y-2.7165
X7.7717Y-2.7165
X7.7717Y-4.2598
X7.7717Y-4.2598
X7.7717Y-4.2953
X7.7717Y-4.2953
X7.7717Y-4.3307
X7.7717Y-4.3307
X7.7776Y-3.4528
T3
X5.7874Y-3.3524
X5.7874Y-3.4311
X5.7874Y-3.5098
X5.7874Y-3.5886
X5.7874Y-3.6673
T5
X4.7213Y-4.42
X4.8Y-4.42
X4.8787Y-4.42
T6
X5.0059Y-2.5512
X5.1059Y-2.5512
X5.2059Y-2.5512
X5.3059Y-2.5512
X5.4059Y-2.5512
X5.5059Y-2.5512
T7
X7.626Y-4.1909
X7.626Y-4.3878
X7.628Y-2.5846
X7.628Y-2.7815
T8
X5.7402Y-4.1673
X5.8961Y-4.1673
T9
X4.6654Y-2.5787
X6.9902Y-2.5787
X6.9902Y-4.315
T4
G00X4.6425Y-4.4102
M15
G01X4.6425Y-4.4298
M16
G05
G00X4.9575Y-4.4102
M15
G01X4.9575Y-4.4298
M16
G05
T6
G00X5.6395Y-4.2875
M15
G01X5.6395Y-4.3466
M16
G05
G00X5.7772Y-4.0414
M15
G01X5.856Y-4.0414
M16
G05
G00X5.791Y-4.2777
M15
G01X5.8422Y-4.2777
M16
G05
G00X5.9938Y-4.2875
M15
G01X5.9938Y-4.3466
M16
G05
T0
M30
