G04 #@! TF.GenerationSoftware,KiCad,Pcbnew,(6.0.5-0)*
G04 #@! TF.CreationDate,2022-06-13T22:11:16+02:00*
G04 #@! TF.ProjectId,muVox,6d75566f-782e-46b6-9963-61645f706362,rev?*
G04 #@! TF.SameCoordinates,Original*
G04 #@! TF.FileFunction,Legend,Top*
G04 #@! TF.FilePolarity,Positive*
%FSLAX46Y46*%
G04 Gerber Fmt 4.6, Leading zero omitted, Abs format (unit mm)*
G04 Created by KiCad (PCBNEW (6.0.5-0)) date 2022-06-13 22:11:16*
%MOMM*%
%LPD*%
G01*
G04 APERTURE LIST*
%ADD10C,0.050000*%
%ADD11C,0.300000*%
%ADD12C,0.200000*%
%ADD13C,0.150000*%
%ADD14C,0.250000*%
%ADD15C,0.175000*%
%ADD16C,0.100000*%
%ADD17C,0.120000*%
%ADD18C,0.152400*%
%ADD19C,0.254000*%
G04 APERTURE END LIST*
D10*
X119959790Y-69347524D02*
X122764935Y-70956004D01*
X123137684Y-72031869D02*
X123137684Y-71052319D01*
X116508638Y-70878360D02*
X116508638Y-74716713D01*
X117045034Y-73659530D02*
X117045034Y-74400000D01*
X123137684Y-71052319D02*
X122879607Y-71205035D01*
X121432350Y-72719408D02*
X121432350Y-72885634D01*
X119706773Y-69021572D02*
X119706773Y-72131961D01*
X116766715Y-74560839D02*
X116766715Y-71031830D01*
X122879607Y-71205035D02*
X122879607Y-71898884D01*
X116508638Y-74716713D02*
X119821805Y-76634259D01*
X122874547Y-73709746D02*
X122882800Y-74556715D01*
X117039974Y-73063024D02*
X117039974Y-73366472D01*
X117323353Y-74216932D02*
X119706773Y-75598324D01*
X122882800Y-74556715D02*
X119822650Y-76323032D01*
X117045034Y-74400000D02*
X119828449Y-76004356D01*
X122764935Y-70956004D02*
X123034195Y-70807199D01*
X119821805Y-76634259D02*
X123137684Y-74710545D01*
X121844656Y-72793233D02*
X123137684Y-72031869D01*
X123137684Y-74710545D02*
X123137684Y-73562126D01*
X119706773Y-72410811D02*
X117323353Y-73800451D01*
X117323353Y-73800451D02*
X117323353Y-74216932D01*
X119428455Y-69193134D02*
X116508638Y-70878360D01*
X119959790Y-75926447D02*
X119959790Y-69347524D01*
X119827553Y-68954259D02*
X119706773Y-69021572D01*
X119706773Y-72131961D02*
X117045034Y-73659530D01*
X119828449Y-76004356D02*
X119959790Y-75926447D01*
X122879607Y-71898884D02*
X121432350Y-72719408D01*
X119706773Y-75598324D02*
X119706773Y-72410811D01*
X119155196Y-71833716D02*
X117039974Y-73063024D01*
X123137684Y-73562126D02*
X121844656Y-72793233D01*
X116766715Y-71031830D02*
X119155196Y-69658913D01*
X117039974Y-73366472D02*
X119428455Y-71980709D01*
X119155196Y-69658913D02*
X119155196Y-71833716D01*
X119822650Y-76323032D02*
X116766715Y-74560839D01*
X119428455Y-71980709D02*
X119428455Y-69193134D01*
X121432350Y-72885634D02*
X122874547Y-73709746D01*
X123034195Y-70807199D02*
X119827553Y-68954259D01*
D11*
X150318918Y-112225632D02*
X149176061Y-112225632D01*
D12*
X173170857Y-68217904D02*
X173170857Y-67951238D01*
X173589904Y-67836952D02*
X173589904Y-68217904D01*
X172789904Y-68217904D01*
X172789904Y-67836952D01*
X173589904Y-67036952D02*
X173208952Y-67303619D01*
X173589904Y-67494095D02*
X172789904Y-67494095D01*
X172789904Y-67189333D01*
X172828000Y-67113142D01*
X172866095Y-67075047D01*
X172942285Y-67036952D01*
X173056571Y-67036952D01*
X173132761Y-67075047D01*
X173170857Y-67113142D01*
X173208952Y-67189333D01*
X173208952Y-67494095D01*
X173589904Y-66236952D02*
X173208952Y-66503619D01*
X173589904Y-66694095D02*
X172789904Y-66694095D01*
X172789904Y-66389333D01*
X172828000Y-66313142D01*
X172866095Y-66275047D01*
X172942285Y-66236952D01*
X173056571Y-66236952D01*
X173132761Y-66275047D01*
X173170857Y-66313142D01*
X173208952Y-66389333D01*
X173208952Y-66694095D01*
X173513714Y-65894095D02*
X173551809Y-65856000D01*
X173589904Y-65894095D01*
X173551809Y-65932190D01*
X173513714Y-65894095D01*
X173589904Y-65894095D01*
X173285142Y-65894095D02*
X172828000Y-65932190D01*
X172789904Y-65894095D01*
X172828000Y-65856000D01*
X173285142Y-65894095D01*
X172789904Y-65894095D01*
D11*
X146381918Y-112098632D02*
X145239061Y-112098632D01*
X145810490Y-112670061D02*
X145810490Y-111527204D01*
D13*
X130800000Y-77516666D02*
X130566666Y-77183333D01*
X130400000Y-77516666D02*
X130400000Y-76816666D01*
X130666666Y-76816666D01*
X130733333Y-76850000D01*
X130766666Y-76883333D01*
X130800000Y-76950000D01*
X130800000Y-77050000D01*
X130766666Y-77116666D01*
X130733333Y-77150000D01*
X130666666Y-77183333D01*
X130400000Y-77183333D01*
X131100000Y-77150000D02*
X131333333Y-77150000D01*
X131433333Y-77516666D02*
X131100000Y-77516666D01*
X131100000Y-76816666D01*
X131433333Y-76816666D01*
X131633333Y-76816666D02*
X131866666Y-77516666D01*
X132100000Y-76816666D01*
X132333333Y-77450000D02*
X132366666Y-77483333D01*
X132333333Y-77516666D01*
X132300000Y-77483333D01*
X132333333Y-77450000D01*
X132333333Y-77516666D01*
X132333333Y-77083333D02*
X132366666Y-77116666D01*
X132333333Y-77150000D01*
X132300000Y-77116666D01*
X132333333Y-77083333D01*
X132333333Y-77150000D01*
X132800000Y-76816666D02*
X132866666Y-76816666D01*
X132933333Y-76850000D01*
X132966666Y-76883333D01*
X133000000Y-76950000D01*
X133033333Y-77083333D01*
X133033333Y-77250000D01*
X133000000Y-77383333D01*
X132966666Y-77450000D01*
X132933333Y-77483333D01*
X132866666Y-77516666D01*
X132800000Y-77516666D01*
X132733333Y-77483333D01*
X132700000Y-77450000D01*
X132666666Y-77383333D01*
X132633333Y-77250000D01*
X132633333Y-77083333D01*
X132666666Y-76950000D01*
X132700000Y-76883333D01*
X132733333Y-76850000D01*
X132800000Y-76816666D01*
X133333333Y-77450000D02*
X133366666Y-77483333D01*
X133333333Y-77516666D01*
X133300000Y-77483333D01*
X133333333Y-77450000D01*
X133333333Y-77516666D01*
X133966666Y-77050000D02*
X133966666Y-77516666D01*
X133800000Y-76783333D02*
X133633333Y-77283333D01*
X134066666Y-77283333D01*
D14*
X183272477Y-101820905D02*
X183272477Y-100520905D01*
X183639143Y-101449476D01*
X184005810Y-100520905D01*
X184005810Y-101820905D01*
X184477239Y-101449476D02*
X185001048Y-101449476D01*
X184372477Y-101820905D02*
X184739143Y-100520905D01*
X185105810Y-101820905D01*
X186048667Y-101820905D02*
X185420096Y-101820905D01*
X185734381Y-101820905D02*
X185734381Y-100520905D01*
X185629620Y-100706619D01*
X185524858Y-100830429D01*
X185420096Y-100892333D01*
X186467715Y-100644714D02*
X186520096Y-100582810D01*
X186624858Y-100520905D01*
X186886762Y-100520905D01*
X186991524Y-100582810D01*
X187043905Y-100644714D01*
X187096286Y-100768524D01*
X187096286Y-100892333D01*
X187043905Y-101078048D01*
X186415334Y-101820905D01*
X187096286Y-101820905D01*
X187777239Y-100520905D02*
X187882000Y-100520905D01*
X187986762Y-100582810D01*
X188039143Y-100644714D01*
X188091524Y-100768524D01*
X188143905Y-101016143D01*
X188143905Y-101325667D01*
X188091524Y-101573286D01*
X188039143Y-101697095D01*
X187986762Y-101759000D01*
X187882000Y-101820905D01*
X187777239Y-101820905D01*
X187672477Y-101759000D01*
X187620096Y-101697095D01*
X187567715Y-101573286D01*
X187515334Y-101325667D01*
X187515334Y-101016143D01*
X187567715Y-100768524D01*
X187620096Y-100644714D01*
X187672477Y-100582810D01*
X187777239Y-100520905D01*
X188510572Y-100520905D02*
X189243905Y-100520905D01*
X188772477Y-101820905D01*
X189872477Y-100520905D02*
X189977239Y-100520905D01*
X190082000Y-100582810D01*
X190134381Y-100644714D01*
X190186762Y-100768524D01*
X190239143Y-101016143D01*
X190239143Y-101325667D01*
X190186762Y-101573286D01*
X190134381Y-101697095D01*
X190082000Y-101759000D01*
X189977239Y-101820905D01*
X189872477Y-101820905D01*
X189767715Y-101759000D01*
X189715334Y-101697095D01*
X189662953Y-101573286D01*
X189610572Y-101325667D01*
X189610572Y-101016143D01*
X189662953Y-100768524D01*
X189715334Y-100644714D01*
X189767715Y-100582810D01*
X189872477Y-100520905D01*
X190710572Y-101820905D02*
X190710572Y-100520905D01*
X191129620Y-100520905D01*
X191234381Y-100582810D01*
X191286762Y-100644714D01*
X191339143Y-100768524D01*
X191339143Y-100954238D01*
X191286762Y-101078048D01*
X191234381Y-101139952D01*
X191129620Y-101201857D01*
X190710572Y-101201857D01*
D15*
X146183333Y-82766666D02*
X146183333Y-83266666D01*
X146150000Y-83366666D01*
X146083333Y-83433333D01*
X145983333Y-83466666D01*
X145916666Y-83466666D01*
X146416666Y-82766666D02*
X146816666Y-82766666D01*
X146616666Y-83466666D02*
X146616666Y-82766666D01*
X147016666Y-83266666D02*
X147350000Y-83266666D01*
X146950000Y-83466666D02*
X147183333Y-82766666D01*
X147416666Y-83466666D01*
X148016666Y-82800000D02*
X147950000Y-82766666D01*
X147850000Y-82766666D01*
X147750000Y-82800000D01*
X147683333Y-82866666D01*
X147650000Y-82933333D01*
X147616666Y-83066666D01*
X147616666Y-83166666D01*
X147650000Y-83300000D01*
X147683333Y-83366666D01*
X147750000Y-83433333D01*
X147850000Y-83466666D01*
X147916666Y-83466666D01*
X148016666Y-83433333D01*
X148050000Y-83400000D01*
X148050000Y-83166666D01*
X147916666Y-83166666D01*
D12*
X137311904Y-72511904D02*
X137464285Y-72511904D01*
X137540476Y-72550000D01*
X137616666Y-72626190D01*
X137654761Y-72778571D01*
X137654761Y-73045238D01*
X137616666Y-73197619D01*
X137540476Y-73273809D01*
X137464285Y-73311904D01*
X137311904Y-73311904D01*
X137235714Y-73273809D01*
X137159523Y-73197619D01*
X137121428Y-73045238D01*
X137121428Y-72778571D01*
X137159523Y-72626190D01*
X137235714Y-72550000D01*
X137311904Y-72511904D01*
X137997619Y-73311904D02*
X137997619Y-72511904D01*
X138454761Y-73311904D01*
X138454761Y-72511904D01*
X138950000Y-73235714D02*
X138988095Y-73273809D01*
X138950000Y-73311904D01*
X138911904Y-73273809D01*
X138950000Y-73235714D01*
X138950000Y-73311904D01*
X138797619Y-72550000D02*
X138873809Y-72511904D01*
X139064285Y-72511904D01*
X139140476Y-72550000D01*
X139178571Y-72626190D01*
X139178571Y-72702380D01*
X139140476Y-72778571D01*
X139102380Y-72816666D01*
X139026190Y-72854761D01*
X138988095Y-72892857D01*
X138950000Y-72969047D01*
X138950000Y-73007142D01*
X131702380Y-62861904D02*
X131702380Y-62061904D01*
X132007142Y-62061904D01*
X132083333Y-62100000D01*
X132121428Y-62138095D01*
X132159523Y-62214285D01*
X132159523Y-62328571D01*
X132121428Y-62404761D01*
X132083333Y-62442857D01*
X132007142Y-62480952D01*
X131702380Y-62480952D01*
X132959523Y-62861904D02*
X132692857Y-62480952D01*
X132502380Y-62861904D02*
X132502380Y-62061904D01*
X132807142Y-62061904D01*
X132883333Y-62100000D01*
X132921428Y-62138095D01*
X132959523Y-62214285D01*
X132959523Y-62328571D01*
X132921428Y-62404761D01*
X132883333Y-62442857D01*
X132807142Y-62480952D01*
X132502380Y-62480952D01*
X133454761Y-62061904D02*
X133607142Y-62061904D01*
X133683333Y-62100000D01*
X133759523Y-62176190D01*
X133797619Y-62328571D01*
X133797619Y-62595238D01*
X133759523Y-62747619D01*
X133683333Y-62823809D01*
X133607142Y-62861904D01*
X133454761Y-62861904D01*
X133378571Y-62823809D01*
X133302380Y-62747619D01*
X133264285Y-62595238D01*
X133264285Y-62328571D01*
X133302380Y-62176190D01*
X133378571Y-62100000D01*
X133454761Y-62061904D01*
X134559523Y-62100000D02*
X134483333Y-62061904D01*
X134369047Y-62061904D01*
X134254761Y-62100000D01*
X134178571Y-62176190D01*
X134140476Y-62252380D01*
X134102380Y-62404761D01*
X134102380Y-62519047D01*
X134140476Y-62671428D01*
X134178571Y-62747619D01*
X134254761Y-62823809D01*
X134369047Y-62861904D01*
X134445238Y-62861904D01*
X134559523Y-62823809D01*
X134597619Y-62785714D01*
X134597619Y-62519047D01*
X134445238Y-62519047D01*
X135397619Y-62861904D02*
X135130952Y-62480952D01*
X134940476Y-62861904D02*
X134940476Y-62061904D01*
X135245238Y-62061904D01*
X135321428Y-62100000D01*
X135359523Y-62138095D01*
X135397619Y-62214285D01*
X135397619Y-62328571D01*
X135359523Y-62404761D01*
X135321428Y-62442857D01*
X135245238Y-62480952D01*
X134940476Y-62480952D01*
X135702380Y-62633333D02*
X136083333Y-62633333D01*
X135626190Y-62861904D02*
X135892857Y-62061904D01*
X136159523Y-62861904D01*
X136426190Y-62861904D02*
X136426190Y-62061904D01*
X136692857Y-62633333D01*
X136959523Y-62061904D01*
X136959523Y-62861904D01*
X137340476Y-62861904D02*
X137340476Y-62061904D01*
X137607142Y-62633333D01*
X137873809Y-62061904D01*
X137873809Y-62861904D01*
X138254761Y-62442857D02*
X138521428Y-62442857D01*
X138635714Y-62861904D02*
X138254761Y-62861904D01*
X138254761Y-62061904D01*
X138635714Y-62061904D01*
X139435714Y-62861904D02*
X139169047Y-62480952D01*
X138978571Y-62861904D02*
X138978571Y-62061904D01*
X139283333Y-62061904D01*
X139359523Y-62100000D01*
X139397619Y-62138095D01*
X139435714Y-62214285D01*
X139435714Y-62328571D01*
X139397619Y-62404761D01*
X139359523Y-62442857D01*
X139283333Y-62480952D01*
X138978571Y-62480952D01*
X127038095Y-67911904D02*
X126771428Y-67530952D01*
X126580952Y-67911904D02*
X126580952Y-67111904D01*
X126885714Y-67111904D01*
X126961904Y-67150000D01*
X127000000Y-67188095D01*
X127038095Y-67264285D01*
X127038095Y-67378571D01*
X127000000Y-67454761D01*
X126961904Y-67492857D01*
X126885714Y-67530952D01*
X126580952Y-67530952D01*
X127380952Y-67492857D02*
X127647619Y-67492857D01*
X127761904Y-67911904D02*
X127380952Y-67911904D01*
X127380952Y-67111904D01*
X127761904Y-67111904D01*
X128066666Y-67873809D02*
X128180952Y-67911904D01*
X128371428Y-67911904D01*
X128447619Y-67873809D01*
X128485714Y-67835714D01*
X128523809Y-67759523D01*
X128523809Y-67683333D01*
X128485714Y-67607142D01*
X128447619Y-67569047D01*
X128371428Y-67530952D01*
X128219047Y-67492857D01*
X128142857Y-67454761D01*
X128104761Y-67416666D01*
X128066666Y-67340476D01*
X128066666Y-67264285D01*
X128104761Y-67188095D01*
X128142857Y-67150000D01*
X128219047Y-67111904D01*
X128409523Y-67111904D01*
X128523809Y-67150000D01*
X128866666Y-67492857D02*
X129133333Y-67492857D01*
X129247619Y-67911904D02*
X128866666Y-67911904D01*
X128866666Y-67111904D01*
X129247619Y-67111904D01*
X129476190Y-67111904D02*
X129933333Y-67111904D01*
X129704761Y-67911904D02*
X129704761Y-67111904D01*
D13*
X107096000Y-92577248D02*
X107096000Y-93053438D01*
X107572191Y-93101057D01*
X107524572Y-93053438D01*
X107476953Y-92958200D01*
X107476953Y-92720105D01*
X107524572Y-92624867D01*
X107572191Y-92577248D01*
X107667429Y-92529629D01*
X107905524Y-92529629D01*
X108000762Y-92577248D01*
X108048381Y-92624867D01*
X108096000Y-92720105D01*
X108096000Y-92958200D01*
X108048381Y-93053438D01*
X108000762Y-93101057D01*
X107096000Y-92196295D02*
X107096000Y-91577248D01*
X107476953Y-91910581D01*
X107476953Y-91767724D01*
X107524572Y-91672486D01*
X107572191Y-91624867D01*
X107667429Y-91577248D01*
X107905524Y-91577248D01*
X108000762Y-91624867D01*
X108048381Y-91672486D01*
X108096000Y-91767724D01*
X108096000Y-92053438D01*
X108048381Y-92148676D01*
X108000762Y-92196295D01*
X108000762Y-91148676D02*
X108048381Y-91101057D01*
X108096000Y-91148676D01*
X108048381Y-91196295D01*
X108000762Y-91148676D01*
X108096000Y-91148676D01*
X107524572Y-90529629D02*
X107476953Y-90624867D01*
X107429334Y-90672486D01*
X107334096Y-90720105D01*
X107286477Y-90720105D01*
X107191239Y-90672486D01*
X107143620Y-90624867D01*
X107096000Y-90529629D01*
X107096000Y-90339152D01*
X107143620Y-90243914D01*
X107191239Y-90196295D01*
X107286477Y-90148676D01*
X107334096Y-90148676D01*
X107429334Y-90196295D01*
X107476953Y-90243914D01*
X107524572Y-90339152D01*
X107524572Y-90529629D01*
X107572191Y-90624867D01*
X107619810Y-90672486D01*
X107715048Y-90720105D01*
X107905524Y-90720105D01*
X108000762Y-90672486D01*
X108048381Y-90624867D01*
X108096000Y-90529629D01*
X108096000Y-90339152D01*
X108048381Y-90243914D01*
X108000762Y-90196295D01*
X107905524Y-90148676D01*
X107715048Y-90148676D01*
X107619810Y-90196295D01*
X107572191Y-90243914D01*
X107524572Y-90339152D01*
X107429334Y-89291533D02*
X108096000Y-89291533D01*
X107048381Y-89529629D02*
X107762667Y-89767724D01*
X107762667Y-89148676D01*
X107524572Y-88624867D02*
X107476953Y-88720105D01*
X107429334Y-88767724D01*
X107334096Y-88815343D01*
X107286477Y-88815343D01*
X107191239Y-88767724D01*
X107143620Y-88720105D01*
X107096000Y-88624867D01*
X107096000Y-88434390D01*
X107143620Y-88339152D01*
X107191239Y-88291533D01*
X107286477Y-88243914D01*
X107334096Y-88243914D01*
X107429334Y-88291533D01*
X107476953Y-88339152D01*
X107524572Y-88434390D01*
X107524572Y-88624867D01*
X107572191Y-88720105D01*
X107619810Y-88767724D01*
X107715048Y-88815343D01*
X107905524Y-88815343D01*
X108000762Y-88767724D01*
X108048381Y-88720105D01*
X108096000Y-88624867D01*
X108096000Y-88434390D01*
X108048381Y-88339152D01*
X108000762Y-88291533D01*
X107905524Y-88243914D01*
X107715048Y-88243914D01*
X107619810Y-88291533D01*
X107572191Y-88339152D01*
X107524572Y-88434390D01*
X107096000Y-87624867D02*
X107096000Y-87529629D01*
X107143620Y-87434390D01*
X107191239Y-87386771D01*
X107286477Y-87339152D01*
X107476953Y-87291533D01*
X107715048Y-87291533D01*
X107905524Y-87339152D01*
X108000762Y-87386771D01*
X108048381Y-87434390D01*
X108096000Y-87529629D01*
X108096000Y-87624867D01*
X108048381Y-87720105D01*
X108000762Y-87767724D01*
X107905524Y-87815343D01*
X107715048Y-87862962D01*
X107476953Y-87862962D01*
X107286477Y-87815343D01*
X107191239Y-87767724D01*
X107143620Y-87720105D01*
X107096000Y-87624867D01*
X108096000Y-86101057D02*
X107429334Y-86101057D01*
X107524572Y-86101057D02*
X107476953Y-86053438D01*
X107429334Y-85958200D01*
X107429334Y-85815343D01*
X107476953Y-85720105D01*
X107572191Y-85672486D01*
X108096000Y-85672486D01*
X107572191Y-85672486D02*
X107476953Y-85624867D01*
X107429334Y-85529629D01*
X107429334Y-85386771D01*
X107476953Y-85291533D01*
X107572191Y-85243914D01*
X108096000Y-85243914D01*
X108096000Y-84767724D02*
X107429334Y-84767724D01*
X107524572Y-84767724D02*
X107476953Y-84720105D01*
X107429334Y-84624867D01*
X107429334Y-84482010D01*
X107476953Y-84386771D01*
X107572191Y-84339152D01*
X108096000Y-84339152D01*
X107572191Y-84339152D02*
X107476953Y-84291533D01*
X107429334Y-84196295D01*
X107429334Y-84053438D01*
X107476953Y-83958200D01*
X107572191Y-83910581D01*
X108096000Y-83910581D01*
X112603620Y-61558010D02*
X108207200Y-61558010D01*
X112603620Y-115406010D02*
X108207200Y-115406010D01*
X108793620Y-61558010D02*
X108793620Y-115406010D01*
X108793620Y-61558010D02*
X108793620Y-115406010D01*
X108793620Y-61558010D02*
X108207199Y-62684514D01*
X108793620Y-61558010D02*
X109380041Y-62684514D01*
X108793620Y-115406010D02*
X109380041Y-114279506D01*
X108793620Y-115406010D02*
X108207199Y-114279506D01*
X150942653Y-119774705D02*
X150847363Y-119727188D01*
X150799693Y-119679620D01*
X150751972Y-119584434D01*
X150751920Y-119536815D01*
X150799437Y-119441525D01*
X150847005Y-119393855D01*
X150942192Y-119346134D01*
X151132668Y-119345929D01*
X151227957Y-119393445D01*
X151275627Y-119441013D01*
X151323349Y-119536200D01*
X151323400Y-119583819D01*
X151275883Y-119679108D01*
X151228315Y-119726778D01*
X151133129Y-119774500D01*
X150942653Y-119774705D01*
X150847466Y-119822426D01*
X150799898Y-119870096D01*
X150752381Y-119965386D01*
X150752586Y-120155862D01*
X150800308Y-120251049D01*
X150847978Y-120298616D01*
X150943267Y-120346133D01*
X151133743Y-120345928D01*
X151228930Y-120298207D01*
X151276498Y-120250536D01*
X151324015Y-120155247D01*
X151323810Y-119964771D01*
X151276088Y-119869584D01*
X151228418Y-119822016D01*
X151133129Y-119774500D01*
X152227905Y-119344751D02*
X151751715Y-119345263D01*
X151704608Y-119821504D01*
X151752176Y-119773834D01*
X151847363Y-119726112D01*
X152085458Y-119725856D01*
X152180747Y-119773373D01*
X152228417Y-119820941D01*
X152276139Y-119916128D01*
X152276395Y-120154223D01*
X152228878Y-120249512D01*
X152181311Y-120297182D01*
X152086124Y-120344904D01*
X151848029Y-120345160D01*
X151752739Y-120297643D01*
X151705069Y-120250075D01*
X152705069Y-120249000D02*
X152752739Y-120296567D01*
X152705171Y-120344238D01*
X152657501Y-120296670D01*
X152705069Y-120249000D01*
X152705171Y-120344238D01*
X153656476Y-119343214D02*
X153180286Y-119343726D01*
X153133179Y-119819967D01*
X153180747Y-119772297D01*
X153275933Y-119724576D01*
X153514028Y-119724320D01*
X153609318Y-119771836D01*
X153656988Y-119819404D01*
X153704709Y-119914591D01*
X153704966Y-120152686D01*
X153657449Y-120247975D01*
X153609881Y-120295645D01*
X153514694Y-120343367D01*
X153276599Y-120343623D01*
X153181310Y-120296106D01*
X153133640Y-120248539D01*
X154085149Y-119437991D02*
X154132717Y-119390321D01*
X154227904Y-119342599D01*
X154465999Y-119342343D01*
X154561288Y-119389860D01*
X154608959Y-119437427D01*
X154656680Y-119532614D01*
X154656782Y-119627852D01*
X154609317Y-119770761D01*
X154038504Y-120342803D01*
X154657551Y-120342138D01*
X155513617Y-119341216D02*
X155323141Y-119341421D01*
X155227955Y-119389142D01*
X155180387Y-119436813D01*
X155085302Y-119579772D01*
X155037888Y-119770300D01*
X155038298Y-120151252D01*
X155086020Y-120246438D01*
X155133690Y-120294006D01*
X155228979Y-120341523D01*
X155419455Y-120341318D01*
X155514642Y-120293596D01*
X155562210Y-120245926D01*
X155609726Y-120150637D01*
X155609470Y-119912542D01*
X155561749Y-119817355D01*
X155514079Y-119769787D01*
X155418789Y-119722271D01*
X155228313Y-119722476D01*
X155133126Y-119770197D01*
X155085559Y-119817867D01*
X155038042Y-119913157D01*
X156227903Y-119340448D02*
X156323141Y-119340345D01*
X156418430Y-119387862D01*
X156466100Y-119435430D01*
X156513822Y-119530616D01*
X156561646Y-119721041D01*
X156561902Y-119959136D01*
X156514488Y-120149664D01*
X156466971Y-120244953D01*
X156419403Y-120292623D01*
X156324217Y-120340345D01*
X156228978Y-120340447D01*
X156133689Y-120292931D01*
X156086019Y-120245363D01*
X156038298Y-120150176D01*
X155990474Y-119959751D01*
X155990217Y-119721656D01*
X156037632Y-119531129D01*
X156085148Y-119435839D01*
X156132716Y-119388169D01*
X156227903Y-119340448D01*
X157752787Y-120338808D02*
X157752070Y-119672142D01*
X157752172Y-119767380D02*
X157799740Y-119719710D01*
X157894927Y-119671988D01*
X158037784Y-119671834D01*
X158133073Y-119719351D01*
X158180795Y-119814538D01*
X158181358Y-120338347D01*
X158180795Y-119814538D02*
X158228311Y-119719249D01*
X158323498Y-119671527D01*
X158466355Y-119671373D01*
X158561645Y-119718890D01*
X158609366Y-119814077D01*
X158609929Y-120337886D01*
X159086120Y-120337374D02*
X159085403Y-119670707D01*
X159085505Y-119765946D02*
X159133073Y-119718275D01*
X159228260Y-119670554D01*
X159371117Y-119670400D01*
X159466406Y-119717917D01*
X159514127Y-119813104D01*
X159514691Y-120336913D01*
X159514127Y-119813104D02*
X159561644Y-119717814D01*
X159656831Y-119670093D01*
X159799688Y-119669939D01*
X159894977Y-119717456D01*
X159942699Y-119812643D01*
X159943262Y-120336452D01*
X198129620Y-115446010D02*
X198136218Y-121579407D01*
X112603620Y-115538010D02*
X112610218Y-121671407D01*
X198135587Y-120992988D02*
X112609587Y-121084988D01*
X198135587Y-120992988D02*
X112609587Y-121084988D01*
X198135587Y-120992988D02*
X197008453Y-120407779D01*
X198135587Y-120992988D02*
X197009715Y-121580620D01*
X112609587Y-121084988D02*
X113736721Y-121670197D01*
X112609587Y-121084988D02*
X113735459Y-120497356D01*
D16*
X140300000Y-67000000D02*
X140266666Y-67033333D01*
X140166666Y-67066666D01*
X140100000Y-67066666D01*
X140000000Y-67033333D01*
X139933333Y-66966666D01*
X139900000Y-66900000D01*
X139866666Y-66766666D01*
X139866666Y-66666666D01*
X139900000Y-66533333D01*
X139933333Y-66466666D01*
X140000000Y-66400000D01*
X140100000Y-66366666D01*
X140166666Y-66366666D01*
X140266666Y-66400000D01*
X140300000Y-66433333D01*
X140966666Y-67066666D02*
X140566666Y-67066666D01*
X140766666Y-67066666D02*
X140766666Y-66366666D01*
X140700000Y-66466666D01*
X140633333Y-66533333D01*
X140566666Y-66566666D01*
X141400000Y-66366666D02*
X141466666Y-66366666D01*
X141533333Y-66400000D01*
X141566666Y-66433333D01*
X141600000Y-66500000D01*
X141633333Y-66633333D01*
X141633333Y-66800000D01*
X141600000Y-66933333D01*
X141566666Y-67000000D01*
X141533333Y-67033333D01*
X141466666Y-67066666D01*
X141400000Y-67066666D01*
X141333333Y-67033333D01*
X141300000Y-67000000D01*
X141266666Y-66933333D01*
X141233333Y-66800000D01*
X141233333Y-66633333D01*
X141266666Y-66500000D01*
X141300000Y-66433333D01*
X141333333Y-66400000D01*
X141400000Y-66366666D01*
X140969000Y-69367500D02*
X141002333Y-69400833D01*
X141035666Y-69500833D01*
X141035666Y-69567500D01*
X141002333Y-69667500D01*
X140935666Y-69734166D01*
X140869000Y-69767500D01*
X140735666Y-69800833D01*
X140635666Y-69800833D01*
X140502333Y-69767500D01*
X140435666Y-69734166D01*
X140369000Y-69667500D01*
X140335666Y-69567500D01*
X140335666Y-69500833D01*
X140369000Y-69400833D01*
X140402333Y-69367500D01*
X141035666Y-68700833D02*
X141035666Y-69100833D01*
X141035666Y-68900833D02*
X140335666Y-68900833D01*
X140435666Y-68967500D01*
X140502333Y-69034166D01*
X140535666Y-69100833D01*
X140335666Y-68267500D02*
X140335666Y-68200833D01*
X140369000Y-68134166D01*
X140402333Y-68100833D01*
X140469000Y-68067500D01*
X140602333Y-68034166D01*
X140769000Y-68034166D01*
X140902333Y-68067500D01*
X140969000Y-68100833D01*
X141002333Y-68134166D01*
X141035666Y-68200833D01*
X141035666Y-68267500D01*
X141002333Y-68334166D01*
X140969000Y-68367500D01*
X140902333Y-68400833D01*
X140769000Y-68434166D01*
X140602333Y-68434166D01*
X140469000Y-68400833D01*
X140402333Y-68367500D01*
X140369000Y-68334166D01*
X140335666Y-68267500D01*
X134150000Y-67050000D02*
X134116666Y-67083333D01*
X134016666Y-67116666D01*
X133950000Y-67116666D01*
X133850000Y-67083333D01*
X133783333Y-67016666D01*
X133750000Y-66950000D01*
X133716666Y-66816666D01*
X133716666Y-66716666D01*
X133750000Y-66583333D01*
X133783333Y-66516666D01*
X133850000Y-66450000D01*
X133950000Y-66416666D01*
X134016666Y-66416666D01*
X134116666Y-66450000D01*
X134150000Y-66483333D01*
X134816666Y-67116666D02*
X134416666Y-67116666D01*
X134616666Y-67116666D02*
X134616666Y-66416666D01*
X134550000Y-66516666D01*
X134483333Y-66583333D01*
X134416666Y-66616666D01*
X135483333Y-67116666D02*
X135083333Y-67116666D01*
X135283333Y-67116666D02*
X135283333Y-66416666D01*
X135216666Y-66516666D01*
X135150000Y-66583333D01*
X135083333Y-66616666D01*
X134819000Y-69350600D02*
X134852333Y-69383933D01*
X134885666Y-69483933D01*
X134885666Y-69550600D01*
X134852333Y-69650600D01*
X134785666Y-69717266D01*
X134719000Y-69750600D01*
X134585666Y-69783933D01*
X134485666Y-69783933D01*
X134352333Y-69750600D01*
X134285666Y-69717266D01*
X134219000Y-69650600D01*
X134185666Y-69550600D01*
X134185666Y-69483933D01*
X134219000Y-69383933D01*
X134252333Y-69350600D01*
X134885666Y-68683933D02*
X134885666Y-69083933D01*
X134885666Y-68883933D02*
X134185666Y-68883933D01*
X134285666Y-68950600D01*
X134352333Y-69017266D01*
X134385666Y-69083933D01*
X134885666Y-68017266D02*
X134885666Y-68417266D01*
X134885666Y-68217266D02*
X134185666Y-68217266D01*
X134285666Y-68283933D01*
X134352333Y-68350600D01*
X134385666Y-68417266D01*
X158528380Y-113200000D02*
X158495046Y-113233333D01*
X158395046Y-113266666D01*
X158328380Y-113266666D01*
X158228380Y-113233333D01*
X158161713Y-113166666D01*
X158128380Y-113100000D01*
X158095046Y-112966666D01*
X158095046Y-112866666D01*
X158128380Y-112733333D01*
X158161713Y-112666666D01*
X158228380Y-112600000D01*
X158328380Y-112566666D01*
X158395046Y-112566666D01*
X158495046Y-112600000D01*
X158528380Y-112633333D01*
X159195046Y-113266666D02*
X158795046Y-113266666D01*
X158995046Y-113266666D02*
X158995046Y-112566666D01*
X158928380Y-112666666D01*
X158861713Y-112733333D01*
X158795046Y-112766666D01*
X159428380Y-112566666D02*
X159861713Y-112566666D01*
X159628380Y-112833333D01*
X159728380Y-112833333D01*
X159795046Y-112866666D01*
X159828380Y-112900000D01*
X159861713Y-112966666D01*
X159861713Y-113133333D01*
X159828380Y-113200000D01*
X159795046Y-113233333D01*
X159728380Y-113266666D01*
X159528380Y-113266666D01*
X159461713Y-113233333D01*
X159428380Y-113200000D01*
X158478380Y-111950000D02*
X158445046Y-111983333D01*
X158345046Y-112016666D01*
X158278380Y-112016666D01*
X158178380Y-111983333D01*
X158111713Y-111916666D01*
X158078380Y-111850000D01*
X158045046Y-111716666D01*
X158045046Y-111616666D01*
X158078380Y-111483333D01*
X158111713Y-111416666D01*
X158178380Y-111350000D01*
X158278380Y-111316666D01*
X158345046Y-111316666D01*
X158445046Y-111350000D01*
X158478380Y-111383333D01*
X159145046Y-112016666D02*
X158745046Y-112016666D01*
X158945046Y-112016666D02*
X158945046Y-111316666D01*
X158878380Y-111416666D01*
X158811713Y-111483333D01*
X158745046Y-111516666D01*
X159378380Y-111316666D02*
X159811713Y-111316666D01*
X159578380Y-111583333D01*
X159678380Y-111583333D01*
X159745046Y-111616666D01*
X159778380Y-111650000D01*
X159811713Y-111716666D01*
X159811713Y-111883333D01*
X159778380Y-111950000D01*
X159745046Y-111983333D01*
X159678380Y-112016666D01*
X159478380Y-112016666D01*
X159411713Y-111983333D01*
X159378380Y-111950000D01*
X154950760Y-105750000D02*
X154984093Y-105783333D01*
X155017426Y-105883333D01*
X155017426Y-105950000D01*
X154984093Y-106050000D01*
X154917426Y-106116666D01*
X154850760Y-106150000D01*
X154717426Y-106183333D01*
X154617426Y-106183333D01*
X154484093Y-106150000D01*
X154417426Y-106116666D01*
X154350760Y-106050000D01*
X154317426Y-105950000D01*
X154317426Y-105883333D01*
X154350760Y-105783333D01*
X154384093Y-105750000D01*
X155017426Y-105083333D02*
X155017426Y-105483333D01*
X155017426Y-105283333D02*
X154317426Y-105283333D01*
X154417426Y-105350000D01*
X154484093Y-105416666D01*
X154517426Y-105483333D01*
X154550760Y-104483333D02*
X155017426Y-104483333D01*
X154284093Y-104650000D02*
X154784093Y-104816666D01*
X154784093Y-104383333D01*
X154928380Y-103181510D02*
X154961713Y-103214843D01*
X154995046Y-103314843D01*
X154995046Y-103381510D01*
X154961713Y-103481510D01*
X154895046Y-103548176D01*
X154828380Y-103581510D01*
X154695046Y-103614843D01*
X154595046Y-103614843D01*
X154461713Y-103581510D01*
X154395046Y-103548176D01*
X154328380Y-103481510D01*
X154295046Y-103381510D01*
X154295046Y-103314843D01*
X154328380Y-103214843D01*
X154361713Y-103181510D01*
X154995046Y-102514843D02*
X154995046Y-102914843D01*
X154995046Y-102714843D02*
X154295046Y-102714843D01*
X154395046Y-102781510D01*
X154461713Y-102848176D01*
X154495046Y-102914843D01*
X154528380Y-101914843D02*
X154995046Y-101914843D01*
X154261713Y-102081510D02*
X154761713Y-102248176D01*
X154761713Y-101814843D01*
X172350000Y-101550000D02*
X172383333Y-101583333D01*
X172416666Y-101683333D01*
X172416666Y-101750000D01*
X172383333Y-101850000D01*
X172316666Y-101916666D01*
X172250000Y-101950000D01*
X172116666Y-101983333D01*
X172016666Y-101983333D01*
X171883333Y-101950000D01*
X171816666Y-101916666D01*
X171750000Y-101850000D01*
X171716666Y-101750000D01*
X171716666Y-101683333D01*
X171750000Y-101583333D01*
X171783333Y-101550000D01*
X172416666Y-100883333D02*
X172416666Y-101283333D01*
X172416666Y-101083333D02*
X171716666Y-101083333D01*
X171816666Y-101150000D01*
X171883333Y-101216666D01*
X171916666Y-101283333D01*
X171716666Y-100283333D02*
X171716666Y-100416666D01*
X171750000Y-100483333D01*
X171783333Y-100516666D01*
X171883333Y-100583333D01*
X172016666Y-100616666D01*
X172283333Y-100616666D01*
X172350000Y-100583333D01*
X172383333Y-100550000D01*
X172416666Y-100483333D01*
X172416666Y-100350000D01*
X172383333Y-100283333D01*
X172350000Y-100250000D01*
X172283333Y-100216666D01*
X172116666Y-100216666D01*
X172050000Y-100250000D01*
X172016666Y-100283333D01*
X171983333Y-100350000D01*
X171983333Y-100483333D01*
X172016666Y-100550000D01*
X172050000Y-100583333D01*
X172116666Y-100616666D01*
X173642395Y-101575000D02*
X173675728Y-101608333D01*
X173709061Y-101708333D01*
X173709061Y-101775000D01*
X173675728Y-101875000D01*
X173609061Y-101941666D01*
X173542395Y-101975000D01*
X173409061Y-102008333D01*
X173309061Y-102008333D01*
X173175728Y-101975000D01*
X173109061Y-101941666D01*
X173042395Y-101875000D01*
X173009061Y-101775000D01*
X173009061Y-101708333D01*
X173042395Y-101608333D01*
X173075728Y-101575000D01*
X173709061Y-100908333D02*
X173709061Y-101308333D01*
X173709061Y-101108333D02*
X173009061Y-101108333D01*
X173109061Y-101175000D01*
X173175728Y-101241666D01*
X173209061Y-101308333D01*
X173009061Y-100308333D02*
X173009061Y-100441666D01*
X173042395Y-100508333D01*
X173075728Y-100541666D01*
X173175728Y-100608333D01*
X173309061Y-100641666D01*
X173575728Y-100641666D01*
X173642395Y-100608333D01*
X173675728Y-100575000D01*
X173709061Y-100508333D01*
X173709061Y-100375000D01*
X173675728Y-100308333D01*
X173642395Y-100275000D01*
X173575728Y-100241666D01*
X173409061Y-100241666D01*
X173342395Y-100275000D01*
X173309061Y-100308333D01*
X173275728Y-100375000D01*
X173275728Y-100508333D01*
X173309061Y-100575000D01*
X173342395Y-100608333D01*
X173409061Y-100641666D01*
X173950000Y-107600000D02*
X173983333Y-107633333D01*
X174016666Y-107733333D01*
X174016666Y-107800000D01*
X173983333Y-107900000D01*
X173916666Y-107966666D01*
X173850000Y-108000000D01*
X173716666Y-108033333D01*
X173616666Y-108033333D01*
X173483333Y-108000000D01*
X173416666Y-107966666D01*
X173350000Y-107900000D01*
X173316666Y-107800000D01*
X173316666Y-107733333D01*
X173350000Y-107633333D01*
X173383333Y-107600000D01*
X174016666Y-106933333D02*
X174016666Y-107333333D01*
X174016666Y-107133333D02*
X173316666Y-107133333D01*
X173416666Y-107200000D01*
X173483333Y-107266666D01*
X173516666Y-107333333D01*
X173316666Y-106700000D02*
X173316666Y-106233333D01*
X174016666Y-106533333D01*
X173892395Y-104800000D02*
X173925728Y-104833333D01*
X173959061Y-104933333D01*
X173959061Y-105000000D01*
X173925728Y-105100000D01*
X173859061Y-105166666D01*
X173792395Y-105200000D01*
X173659061Y-105233333D01*
X173559061Y-105233333D01*
X173425728Y-105200000D01*
X173359061Y-105166666D01*
X173292395Y-105100000D01*
X173259061Y-105000000D01*
X173259061Y-104933333D01*
X173292395Y-104833333D01*
X173325728Y-104800000D01*
X173959061Y-104133333D02*
X173959061Y-104533333D01*
X173959061Y-104333333D02*
X173259061Y-104333333D01*
X173359061Y-104400000D01*
X173425728Y-104466666D01*
X173459061Y-104533333D01*
X173259061Y-103900000D02*
X173259061Y-103433333D01*
X173959061Y-103733333D01*
X172511466Y-67405066D02*
X171811466Y-67405066D01*
X171811466Y-67238400D01*
X171844800Y-67138400D01*
X171911466Y-67071733D01*
X171978133Y-67038400D01*
X172111466Y-67005066D01*
X172211466Y-67005066D01*
X172344800Y-67038400D01*
X172411466Y-67071733D01*
X172478133Y-67138400D01*
X172511466Y-67238400D01*
X172511466Y-67405066D01*
X171811466Y-66771733D02*
X171811466Y-66305066D01*
X172511466Y-66605066D01*
X170403266Y-67481266D02*
X169703266Y-67481266D01*
X169703266Y-67314600D01*
X169736600Y-67214600D01*
X169803266Y-67147933D01*
X169869933Y-67114600D01*
X170003266Y-67081266D01*
X170103266Y-67081266D01*
X170236600Y-67114600D01*
X170303266Y-67147933D01*
X170369933Y-67214600D01*
X170403266Y-67314600D01*
X170403266Y-67481266D01*
X169703266Y-66847933D02*
X169703266Y-66381266D01*
X170403266Y-66681266D01*
X147508776Y-107769166D02*
X147508776Y-108269166D01*
X147475443Y-108369166D01*
X147408776Y-108435833D01*
X147308776Y-108469166D01*
X147242110Y-108469166D01*
X148142110Y-108002500D02*
X148142110Y-108469166D01*
X147975443Y-107735833D02*
X147808776Y-108235833D01*
X148242110Y-108235833D01*
X158711713Y-102116666D02*
X158378380Y-102116666D01*
X158378380Y-101416666D01*
X158911713Y-101483333D02*
X158945046Y-101450000D01*
X159011713Y-101416666D01*
X159178380Y-101416666D01*
X159245046Y-101450000D01*
X159278380Y-101483333D01*
X159311713Y-101550000D01*
X159311713Y-101616666D01*
X159278380Y-101716666D01*
X158878380Y-102116666D01*
X159311713Y-102116666D01*
X169683333Y-102183333D02*
X169616666Y-102150000D01*
X169550000Y-102083333D01*
X169450000Y-101983333D01*
X169383333Y-101950000D01*
X169316666Y-101950000D01*
X169350000Y-102116666D02*
X169283333Y-102083333D01*
X169216666Y-102016666D01*
X169183333Y-101883333D01*
X169183333Y-101650000D01*
X169216666Y-101516666D01*
X169283333Y-101450000D01*
X169350000Y-101416666D01*
X169483333Y-101416666D01*
X169550000Y-101450000D01*
X169616666Y-101516666D01*
X169650000Y-101650000D01*
X169650000Y-101883333D01*
X169616666Y-102016666D01*
X169550000Y-102083333D01*
X169483333Y-102116666D01*
X169350000Y-102116666D01*
X169916666Y-101483333D02*
X169950000Y-101450000D01*
X170016666Y-101416666D01*
X170183333Y-101416666D01*
X170250000Y-101450000D01*
X170283333Y-101483333D01*
X170316666Y-101550000D01*
X170316666Y-101616666D01*
X170283333Y-101716666D01*
X169883333Y-102116666D01*
X170316666Y-102116666D01*
X170136953Y-106074676D02*
X170103620Y-106141343D01*
X170036953Y-106208010D01*
X169936953Y-106308010D01*
X169903620Y-106374676D01*
X169903620Y-106441343D01*
X170070286Y-106408010D02*
X170036953Y-106474676D01*
X169970286Y-106541343D01*
X169836953Y-106574676D01*
X169603620Y-106574676D01*
X169470286Y-106541343D01*
X169403620Y-106474676D01*
X169370286Y-106408010D01*
X169370286Y-106274676D01*
X169403620Y-106208010D01*
X169470286Y-106141343D01*
X169603620Y-106108010D01*
X169836953Y-106108010D01*
X169970286Y-106141343D01*
X170036953Y-106208010D01*
X170070286Y-106274676D01*
X170070286Y-106408010D01*
X169436953Y-105841343D02*
X169403620Y-105808010D01*
X169370286Y-105741343D01*
X169370286Y-105574676D01*
X169403620Y-105508010D01*
X169436953Y-105474676D01*
X169503620Y-105441343D01*
X169570286Y-105441343D01*
X169670286Y-105474676D01*
X170070286Y-105874676D01*
X170070286Y-105441343D01*
X170383333Y-63466666D02*
X170350000Y-63533333D01*
X170283333Y-63600000D01*
X170183333Y-63700000D01*
X170150000Y-63766666D01*
X170150000Y-63833333D01*
X170316666Y-63800000D02*
X170283333Y-63866666D01*
X170216666Y-63933333D01*
X170083333Y-63966666D01*
X169850000Y-63966666D01*
X169716666Y-63933333D01*
X169650000Y-63866666D01*
X169616666Y-63800000D01*
X169616666Y-63666666D01*
X169650000Y-63600000D01*
X169716666Y-63533333D01*
X169850000Y-63500000D01*
X170083333Y-63500000D01*
X170216666Y-63533333D01*
X170283333Y-63600000D01*
X170316666Y-63666666D01*
X170316666Y-63800000D01*
X170316666Y-62833333D02*
X170316666Y-63233333D01*
X170316666Y-63033333D02*
X169616666Y-63033333D01*
X169716666Y-63100000D01*
X169783333Y-63166666D01*
X169816666Y-63233333D01*
X168733333Y-64516666D02*
X168700000Y-64583333D01*
X168633333Y-64650000D01*
X168533333Y-64750000D01*
X168500000Y-64816666D01*
X168500000Y-64883333D01*
X168666666Y-64850000D02*
X168633333Y-64916666D01*
X168566666Y-64983333D01*
X168433333Y-65016666D01*
X168200000Y-65016666D01*
X168066666Y-64983333D01*
X168000000Y-64916666D01*
X167966666Y-64850000D01*
X167966666Y-64716666D01*
X168000000Y-64650000D01*
X168066666Y-64583333D01*
X168200000Y-64550000D01*
X168433333Y-64550000D01*
X168566666Y-64583333D01*
X168633333Y-64650000D01*
X168666666Y-64716666D01*
X168666666Y-64850000D01*
X168666666Y-63883333D02*
X168666666Y-64283333D01*
X168666666Y-64083333D02*
X167966666Y-64083333D01*
X168066666Y-64150000D01*
X168133333Y-64216666D01*
X168166666Y-64283333D01*
X173716666Y-110850000D02*
X173383333Y-111083333D01*
X173716666Y-111250000D02*
X173016666Y-111250000D01*
X173016666Y-110983333D01*
X173050000Y-110916666D01*
X173083333Y-110883333D01*
X173150000Y-110850000D01*
X173250000Y-110850000D01*
X173316666Y-110883333D01*
X173350000Y-110916666D01*
X173383333Y-110983333D01*
X173383333Y-111250000D01*
X173716666Y-110183333D02*
X173716666Y-110583333D01*
X173716666Y-110383333D02*
X173016666Y-110383333D01*
X173116666Y-110450000D01*
X173183333Y-110516666D01*
X173216666Y-110583333D01*
X173016666Y-109550000D02*
X173016666Y-109883333D01*
X173350000Y-109916666D01*
X173316666Y-109883333D01*
X173283333Y-109816666D01*
X173283333Y-109650000D01*
X173316666Y-109583333D01*
X173350000Y-109550000D01*
X173416666Y-109516666D01*
X173583333Y-109516666D01*
X173650000Y-109550000D01*
X173683333Y-109583333D01*
X173716666Y-109650000D01*
X173716666Y-109816666D01*
X173683333Y-109883333D01*
X173650000Y-109916666D01*
X170850000Y-110830676D02*
X170616666Y-110497343D01*
X170450000Y-110830676D02*
X170450000Y-110130676D01*
X170716666Y-110130676D01*
X170783333Y-110164010D01*
X170816666Y-110197343D01*
X170850000Y-110264010D01*
X170850000Y-110364010D01*
X170816666Y-110430676D01*
X170783333Y-110464010D01*
X170716666Y-110497343D01*
X170450000Y-110497343D01*
X171516666Y-110830676D02*
X171116666Y-110830676D01*
X171316666Y-110830676D02*
X171316666Y-110130676D01*
X171250000Y-110230676D01*
X171183333Y-110297343D01*
X171116666Y-110330676D01*
X172150000Y-110130676D02*
X171816666Y-110130676D01*
X171783333Y-110464010D01*
X171816666Y-110430676D01*
X171883333Y-110397343D01*
X172050000Y-110397343D01*
X172116666Y-110430676D01*
X172150000Y-110464010D01*
X172183333Y-110530676D01*
X172183333Y-110697343D01*
X172150000Y-110764010D01*
X172116666Y-110797343D01*
X172050000Y-110830676D01*
X171883333Y-110830676D01*
X171816666Y-110797343D01*
X171783333Y-110764010D01*
X166616666Y-111150000D02*
X166283333Y-111383333D01*
X166616666Y-111550000D02*
X165916666Y-111550000D01*
X165916666Y-111283333D01*
X165950000Y-111216666D01*
X165983333Y-111183333D01*
X166050000Y-111150000D01*
X166150000Y-111150000D01*
X166216666Y-111183333D01*
X166250000Y-111216666D01*
X166283333Y-111283333D01*
X166283333Y-111550000D01*
X166616666Y-110483333D02*
X166616666Y-110883333D01*
X166616666Y-110683333D02*
X165916666Y-110683333D01*
X166016666Y-110750000D01*
X166083333Y-110816666D01*
X166116666Y-110883333D01*
X165916666Y-109883333D02*
X165916666Y-110016666D01*
X165950000Y-110083333D01*
X165983333Y-110116666D01*
X166083333Y-110183333D01*
X166216666Y-110216666D01*
X166483333Y-110216666D01*
X166550000Y-110183333D01*
X166583333Y-110150000D01*
X166616666Y-110083333D01*
X166616666Y-109950000D01*
X166583333Y-109883333D01*
X166550000Y-109850000D01*
X166483333Y-109816666D01*
X166316666Y-109816666D01*
X166250000Y-109850000D01*
X166216666Y-109883333D01*
X166183333Y-109950000D01*
X166183333Y-110083333D01*
X166216666Y-110150000D01*
X166250000Y-110183333D01*
X166316666Y-110216666D01*
X167875000Y-110816666D02*
X167641666Y-110483333D01*
X167475000Y-110816666D02*
X167475000Y-110116666D01*
X167741666Y-110116666D01*
X167808333Y-110150000D01*
X167841666Y-110183333D01*
X167875000Y-110250000D01*
X167875000Y-110350000D01*
X167841666Y-110416666D01*
X167808333Y-110450000D01*
X167741666Y-110483333D01*
X167475000Y-110483333D01*
X168541666Y-110816666D02*
X168141666Y-110816666D01*
X168341666Y-110816666D02*
X168341666Y-110116666D01*
X168275000Y-110216666D01*
X168208333Y-110283333D01*
X168141666Y-110316666D01*
X169141666Y-110116666D02*
X169008333Y-110116666D01*
X168941666Y-110150000D01*
X168908333Y-110183333D01*
X168841666Y-110283333D01*
X168808333Y-110416666D01*
X168808333Y-110683333D01*
X168841666Y-110750000D01*
X168875000Y-110783333D01*
X168941666Y-110816666D01*
X169075000Y-110816666D01*
X169141666Y-110783333D01*
X169175000Y-110750000D01*
X169208333Y-110683333D01*
X169208333Y-110516666D01*
X169175000Y-110450000D01*
X169141666Y-110416666D01*
X169075000Y-110383333D01*
X168941666Y-110383333D01*
X168875000Y-110416666D01*
X168841666Y-110450000D01*
X168808333Y-110516666D01*
X166348600Y-68762066D02*
X166115266Y-68428733D01*
X165948600Y-68762066D02*
X165948600Y-68062066D01*
X166215266Y-68062066D01*
X166281933Y-68095400D01*
X166315266Y-68128733D01*
X166348600Y-68195400D01*
X166348600Y-68295400D01*
X166315266Y-68362066D01*
X166281933Y-68395400D01*
X166215266Y-68428733D01*
X165948600Y-68428733D01*
X167015266Y-68762066D02*
X166615266Y-68762066D01*
X166815266Y-68762066D02*
X166815266Y-68062066D01*
X166748600Y-68162066D01*
X166681933Y-68228733D01*
X166615266Y-68262066D01*
X167681933Y-68762066D02*
X167281933Y-68762066D01*
X167481933Y-68762066D02*
X167481933Y-68062066D01*
X167415266Y-68162066D01*
X167348600Y-68228733D01*
X167281933Y-68262066D01*
X166348600Y-67332066D02*
X166115266Y-66998733D01*
X165948600Y-67332066D02*
X165948600Y-66632066D01*
X166215266Y-66632066D01*
X166281933Y-66665400D01*
X166315266Y-66698733D01*
X166348600Y-66765400D01*
X166348600Y-66865400D01*
X166315266Y-66932066D01*
X166281933Y-66965400D01*
X166215266Y-66998733D01*
X165948600Y-66998733D01*
X167015266Y-67332066D02*
X166615266Y-67332066D01*
X166815266Y-67332066D02*
X166815266Y-66632066D01*
X166748600Y-66732066D01*
X166681933Y-66798733D01*
X166615266Y-66832066D01*
X167681933Y-67332066D02*
X167281933Y-67332066D01*
X167481933Y-67332066D02*
X167481933Y-66632066D01*
X167415266Y-66732066D01*
X167348600Y-66798733D01*
X167281933Y-66832066D01*
X165150000Y-62866666D02*
X164916666Y-62533333D01*
X164750000Y-62866666D02*
X164750000Y-62166666D01*
X165016666Y-62166666D01*
X165083333Y-62200000D01*
X165116666Y-62233333D01*
X165150000Y-62300000D01*
X165150000Y-62400000D01*
X165116666Y-62466666D01*
X165083333Y-62500000D01*
X165016666Y-62533333D01*
X164750000Y-62533333D01*
X165816666Y-62866666D02*
X165416666Y-62866666D01*
X165616666Y-62866666D02*
X165616666Y-62166666D01*
X165550000Y-62266666D01*
X165483333Y-62333333D01*
X165416666Y-62366666D01*
X166083333Y-62233333D02*
X166116666Y-62200000D01*
X166183333Y-62166666D01*
X166350000Y-62166666D01*
X166416666Y-62200000D01*
X166450000Y-62233333D01*
X166483333Y-62300000D01*
X166483333Y-62366666D01*
X166450000Y-62466666D01*
X166050000Y-62866666D01*
X166483333Y-62866666D01*
X165932866Y-65001600D02*
X165599533Y-65234933D01*
X165932866Y-65401600D02*
X165232866Y-65401600D01*
X165232866Y-65134933D01*
X165266200Y-65068266D01*
X165299533Y-65034933D01*
X165366200Y-65001600D01*
X165466200Y-65001600D01*
X165532866Y-65034933D01*
X165566200Y-65068266D01*
X165599533Y-65134933D01*
X165599533Y-65401600D01*
X165932866Y-64334933D02*
X165932866Y-64734933D01*
X165932866Y-64534933D02*
X165232866Y-64534933D01*
X165332866Y-64601600D01*
X165399533Y-64668266D01*
X165432866Y-64734933D01*
X165299533Y-64068266D02*
X165266200Y-64034933D01*
X165232866Y-63968266D01*
X165232866Y-63801600D01*
X165266200Y-63734933D01*
X165299533Y-63701600D01*
X165366200Y-63668266D01*
X165432866Y-63668266D01*
X165532866Y-63701600D01*
X165932866Y-64101600D01*
X165932866Y-63668266D01*
X172788866Y-65001600D02*
X172455533Y-65234933D01*
X172788866Y-65401600D02*
X172088866Y-65401600D01*
X172088866Y-65134933D01*
X172122200Y-65068266D01*
X172155533Y-65034933D01*
X172222200Y-65001600D01*
X172322200Y-65001600D01*
X172388866Y-65034933D01*
X172422200Y-65068266D01*
X172455533Y-65134933D01*
X172455533Y-65401600D01*
X172788866Y-64334933D02*
X172788866Y-64734933D01*
X172788866Y-64534933D02*
X172088866Y-64534933D01*
X172188866Y-64601600D01*
X172255533Y-64668266D01*
X172288866Y-64734933D01*
X172088866Y-64101600D02*
X172088866Y-63668266D01*
X172355533Y-63901600D01*
X172355533Y-63801600D01*
X172388866Y-63734933D01*
X172422200Y-63701600D01*
X172488866Y-63668266D01*
X172655533Y-63668266D01*
X172722200Y-63701600D01*
X172755533Y-63734933D01*
X172788866Y-63801600D01*
X172788866Y-64001600D01*
X172755533Y-64068266D01*
X172722200Y-64101600D01*
X171520866Y-65001600D02*
X171187533Y-65234933D01*
X171520866Y-65401600D02*
X170820866Y-65401600D01*
X170820866Y-65134933D01*
X170854200Y-65068266D01*
X170887533Y-65034933D01*
X170954200Y-65001600D01*
X171054200Y-65001600D01*
X171120866Y-65034933D01*
X171154200Y-65068266D01*
X171187533Y-65134933D01*
X171187533Y-65401600D01*
X171520866Y-64334933D02*
X171520866Y-64734933D01*
X171520866Y-64534933D02*
X170820866Y-64534933D01*
X170920866Y-64601600D01*
X170987533Y-64668266D01*
X171020866Y-64734933D01*
X170820866Y-64101600D02*
X170820866Y-63668266D01*
X171087533Y-63901600D01*
X171087533Y-63801600D01*
X171120866Y-63734933D01*
X171154200Y-63701600D01*
X171220866Y-63668266D01*
X171387533Y-63668266D01*
X171454200Y-63701600D01*
X171487533Y-63734933D01*
X171520866Y-63801600D01*
X171520866Y-64001600D01*
X171487533Y-64068266D01*
X171454200Y-64101600D01*
X138566666Y-66366666D02*
X138566666Y-66933333D01*
X138600000Y-67000000D01*
X138633333Y-67033333D01*
X138700000Y-67066666D01*
X138833333Y-67066666D01*
X138900000Y-67033333D01*
X138933333Y-67000000D01*
X138966666Y-66933333D01*
X138966666Y-66366666D01*
X139266666Y-66433333D02*
X139300000Y-66400000D01*
X139366666Y-66366666D01*
X139533333Y-66366666D01*
X139600000Y-66400000D01*
X139633333Y-66433333D01*
X139666666Y-66500000D01*
X139666666Y-66566666D01*
X139633333Y-66666666D01*
X139233333Y-67066666D01*
X139666666Y-67066666D01*
X137266666Y-69433333D02*
X137833333Y-69433333D01*
X137900000Y-69400000D01*
X137933333Y-69366666D01*
X137966666Y-69300000D01*
X137966666Y-69166666D01*
X137933333Y-69100000D01*
X137900000Y-69066666D01*
X137833333Y-69033333D01*
X137266666Y-69033333D01*
X137333333Y-68733333D02*
X137300000Y-68700000D01*
X137266666Y-68633333D01*
X137266666Y-68466666D01*
X137300000Y-68400000D01*
X137333333Y-68366666D01*
X137400000Y-68333333D01*
X137466666Y-68333333D01*
X137566666Y-68366666D01*
X137966666Y-68766666D01*
X137966666Y-68333333D01*
X168050000Y-114100000D02*
X168016666Y-114133333D01*
X167916666Y-114166666D01*
X167850000Y-114166666D01*
X167750000Y-114133333D01*
X167683333Y-114066666D01*
X167650000Y-114000000D01*
X167616666Y-113866666D01*
X167616666Y-113766666D01*
X167650000Y-113633333D01*
X167683333Y-113566666D01*
X167750000Y-113500000D01*
X167850000Y-113466666D01*
X167916666Y-113466666D01*
X168016666Y-113500000D01*
X168050000Y-113533333D01*
X168716666Y-114166666D02*
X168316666Y-114166666D01*
X168516666Y-114166666D02*
X168516666Y-113466666D01*
X168450000Y-113566666D01*
X168383333Y-113633333D01*
X168316666Y-113666666D01*
X169350000Y-113466666D02*
X169016666Y-113466666D01*
X168983333Y-113800000D01*
X169016666Y-113766666D01*
X169083333Y-113733333D01*
X169250000Y-113733333D01*
X169316666Y-113766666D01*
X169350000Y-113800000D01*
X169383333Y-113866666D01*
X169383333Y-114033333D01*
X169350000Y-114100000D01*
X169316666Y-114133333D01*
X169250000Y-114166666D01*
X169083333Y-114166666D01*
X169016666Y-114133333D01*
X168983333Y-114100000D01*
X168100000Y-112513990D02*
X168066666Y-112547323D01*
X167966666Y-112580656D01*
X167900000Y-112580656D01*
X167800000Y-112547323D01*
X167733333Y-112480656D01*
X167700000Y-112413990D01*
X167666666Y-112280656D01*
X167666666Y-112180656D01*
X167700000Y-112047323D01*
X167733333Y-111980656D01*
X167800000Y-111913990D01*
X167900000Y-111880656D01*
X167966666Y-111880656D01*
X168066666Y-111913990D01*
X168100000Y-111947323D01*
X168766666Y-112580656D02*
X168366666Y-112580656D01*
X168566666Y-112580656D02*
X168566666Y-111880656D01*
X168500000Y-111980656D01*
X168433333Y-112047323D01*
X168366666Y-112080656D01*
X169400000Y-111880656D02*
X169066666Y-111880656D01*
X169033333Y-112213990D01*
X169066666Y-112180656D01*
X169133333Y-112147323D01*
X169300000Y-112147323D01*
X169366666Y-112180656D01*
X169400000Y-112213990D01*
X169433333Y-112280656D01*
X169433333Y-112447323D01*
X169400000Y-112513990D01*
X169366666Y-112547323D01*
X169300000Y-112580656D01*
X169133333Y-112580656D01*
X169066666Y-112547323D01*
X169033333Y-112513990D01*
X146616666Y-89383333D02*
X147116666Y-89383333D01*
X147216666Y-89416666D01*
X147283333Y-89483333D01*
X147316666Y-89583333D01*
X147316666Y-89650000D01*
X146616666Y-88716666D02*
X146616666Y-89050000D01*
X146950000Y-89083333D01*
X146916666Y-89050000D01*
X146883333Y-88983333D01*
X146883333Y-88816666D01*
X146916666Y-88750000D01*
X146950000Y-88716666D01*
X147016666Y-88683333D01*
X147183333Y-88683333D01*
X147250000Y-88716666D01*
X147283333Y-88750000D01*
X147316666Y-88816666D01*
X147316666Y-88983333D01*
X147283333Y-89050000D01*
X147250000Y-89083333D01*
X181450000Y-82170000D02*
X181483333Y-82203333D01*
X181516666Y-82303333D01*
X181516666Y-82370000D01*
X181483333Y-82470000D01*
X181416666Y-82536666D01*
X181350000Y-82570000D01*
X181216666Y-82603333D01*
X181116666Y-82603333D01*
X180983333Y-82570000D01*
X180916666Y-82536666D01*
X180850000Y-82470000D01*
X180816666Y-82370000D01*
X180816666Y-82303333D01*
X180850000Y-82203333D01*
X180883333Y-82170000D01*
X180883333Y-81903333D02*
X180850000Y-81870000D01*
X180816666Y-81803333D01*
X180816666Y-81636666D01*
X180850000Y-81570000D01*
X180883333Y-81536666D01*
X180950000Y-81503333D01*
X181016666Y-81503333D01*
X181116666Y-81536666D01*
X181516666Y-81936666D01*
X181516666Y-81503333D01*
X180883333Y-81236666D02*
X180850000Y-81203333D01*
X180816666Y-81136666D01*
X180816666Y-80970000D01*
X180850000Y-80903333D01*
X180883333Y-80870000D01*
X180950000Y-80836666D01*
X181016666Y-80836666D01*
X181116666Y-80870000D01*
X181516666Y-81270000D01*
X181516666Y-80836666D01*
X180070000Y-82190000D02*
X180103333Y-82223333D01*
X180136666Y-82323333D01*
X180136666Y-82390000D01*
X180103333Y-82490000D01*
X180036666Y-82556666D01*
X179970000Y-82590000D01*
X179836666Y-82623333D01*
X179736666Y-82623333D01*
X179603333Y-82590000D01*
X179536666Y-82556666D01*
X179470000Y-82490000D01*
X179436666Y-82390000D01*
X179436666Y-82323333D01*
X179470000Y-82223333D01*
X179503333Y-82190000D01*
X179503333Y-81923333D02*
X179470000Y-81890000D01*
X179436666Y-81823333D01*
X179436666Y-81656666D01*
X179470000Y-81590000D01*
X179503333Y-81556666D01*
X179570000Y-81523333D01*
X179636666Y-81523333D01*
X179736666Y-81556666D01*
X180136666Y-81956666D01*
X180136666Y-81523333D01*
X179503333Y-81256666D02*
X179470000Y-81223333D01*
X179436666Y-81156666D01*
X179436666Y-80990000D01*
X179470000Y-80923333D01*
X179503333Y-80890000D01*
X179570000Y-80856666D01*
X179636666Y-80856666D01*
X179736666Y-80890000D01*
X180136666Y-81290000D01*
X180136666Y-80856666D01*
D13*
X154773333Y-79605142D02*
X154725714Y-79652761D01*
X154582857Y-79700380D01*
X154487619Y-79700380D01*
X154344761Y-79652761D01*
X154249523Y-79557523D01*
X154201904Y-79462285D01*
X154154285Y-79271809D01*
X154154285Y-79128952D01*
X154201904Y-78938476D01*
X154249523Y-78843238D01*
X154344761Y-78748000D01*
X154487619Y-78700380D01*
X154582857Y-78700380D01*
X154725714Y-78748000D01*
X154773333Y-78795619D01*
X155344761Y-79128952D02*
X155249523Y-79081333D01*
X155201904Y-79033714D01*
X155154285Y-78938476D01*
X155154285Y-78890857D01*
X155201904Y-78795619D01*
X155249523Y-78748000D01*
X155344761Y-78700380D01*
X155535238Y-78700380D01*
X155630476Y-78748000D01*
X155678095Y-78795619D01*
X155725714Y-78890857D01*
X155725714Y-78938476D01*
X155678095Y-79033714D01*
X155630476Y-79081333D01*
X155535238Y-79128952D01*
X155344761Y-79128952D01*
X155249523Y-79176571D01*
X155201904Y-79224190D01*
X155154285Y-79319428D01*
X155154285Y-79509904D01*
X155201904Y-79605142D01*
X155249523Y-79652761D01*
X155344761Y-79700380D01*
X155535238Y-79700380D01*
X155630476Y-79652761D01*
X155678095Y-79605142D01*
X155725714Y-79509904D01*
X155725714Y-79319428D01*
X155678095Y-79224190D01*
X155630476Y-79176571D01*
X155535238Y-79128952D01*
D16*
X192520000Y-81600000D02*
X192553333Y-81633333D01*
X192586666Y-81733333D01*
X192586666Y-81800000D01*
X192553333Y-81900000D01*
X192486666Y-81966666D01*
X192420000Y-82000000D01*
X192286666Y-82033333D01*
X192186666Y-82033333D01*
X192053333Y-82000000D01*
X191986666Y-81966666D01*
X191920000Y-81900000D01*
X191886666Y-81800000D01*
X191886666Y-81733333D01*
X191920000Y-81633333D01*
X191953333Y-81600000D01*
X191953333Y-81333333D02*
X191920000Y-81300000D01*
X191886666Y-81233333D01*
X191886666Y-81066666D01*
X191920000Y-81000000D01*
X191953333Y-80966666D01*
X192020000Y-80933333D01*
X192086666Y-80933333D01*
X192186666Y-80966666D01*
X192586666Y-81366666D01*
X192586666Y-80933333D01*
X191886666Y-80500000D02*
X191886666Y-80433333D01*
X191920000Y-80366666D01*
X191953333Y-80333333D01*
X192020000Y-80300000D01*
X192153333Y-80266666D01*
X192320000Y-80266666D01*
X192453333Y-80300000D01*
X192520000Y-80333333D01*
X192553333Y-80366666D01*
X192586666Y-80433333D01*
X192586666Y-80500000D01*
X192553333Y-80566666D01*
X192520000Y-80600000D01*
X192453333Y-80633333D01*
X192320000Y-80666666D01*
X192153333Y-80666666D01*
X192020000Y-80633333D01*
X191953333Y-80600000D01*
X191920000Y-80566666D01*
X191886666Y-80500000D01*
X189600000Y-81300000D02*
X189566666Y-81333333D01*
X189466666Y-81366666D01*
X189400000Y-81366666D01*
X189300000Y-81333333D01*
X189233333Y-81266666D01*
X189200000Y-81200000D01*
X189166666Y-81066666D01*
X189166666Y-80966666D01*
X189200000Y-80833333D01*
X189233333Y-80766666D01*
X189300000Y-80700000D01*
X189400000Y-80666666D01*
X189466666Y-80666666D01*
X189566666Y-80700000D01*
X189600000Y-80733333D01*
X189866666Y-80733333D02*
X189900000Y-80700000D01*
X189966666Y-80666666D01*
X190133333Y-80666666D01*
X190200000Y-80700000D01*
X190233333Y-80733333D01*
X190266666Y-80800000D01*
X190266666Y-80866666D01*
X190233333Y-80966666D01*
X189833333Y-81366666D01*
X190266666Y-81366666D01*
X190700000Y-80666666D02*
X190766666Y-80666666D01*
X190833333Y-80700000D01*
X190866666Y-80733333D01*
X190900000Y-80800000D01*
X190933333Y-80933333D01*
X190933333Y-81100000D01*
X190900000Y-81233333D01*
X190866666Y-81300000D01*
X190833333Y-81333333D01*
X190766666Y-81366666D01*
X190700000Y-81366666D01*
X190633333Y-81333333D01*
X190600000Y-81300000D01*
X190566666Y-81233333D01*
X190533333Y-81100000D01*
X190533333Y-80933333D01*
X190566666Y-80800000D01*
X190600000Y-80733333D01*
X190633333Y-80700000D01*
X190700000Y-80666666D01*
X113530933Y-103650000D02*
X113497600Y-103683333D01*
X113397600Y-103716666D01*
X113330933Y-103716666D01*
X113230933Y-103683333D01*
X113164266Y-103616666D01*
X113130933Y-103550000D01*
X113097600Y-103416666D01*
X113097600Y-103316666D01*
X113130933Y-103183333D01*
X113164266Y-103116666D01*
X113230933Y-103050000D01*
X113330933Y-103016666D01*
X113397600Y-103016666D01*
X113497600Y-103050000D01*
X113530933Y-103083333D01*
X113764266Y-103016666D02*
X114197600Y-103016666D01*
X113964266Y-103283333D01*
X114064266Y-103283333D01*
X114130933Y-103316666D01*
X114164266Y-103350000D01*
X114197600Y-103416666D01*
X114197600Y-103583333D01*
X114164266Y-103650000D01*
X114130933Y-103683333D01*
X114064266Y-103716666D01*
X113864266Y-103716666D01*
X113797600Y-103683333D01*
X113764266Y-103650000D01*
X113897600Y-105602466D02*
X113930933Y-105635800D01*
X113964266Y-105735800D01*
X113964266Y-105802466D01*
X113930933Y-105902466D01*
X113864266Y-105969133D01*
X113797600Y-106002466D01*
X113664266Y-106035800D01*
X113564266Y-106035800D01*
X113430933Y-106002466D01*
X113364266Y-105969133D01*
X113297600Y-105902466D01*
X113264266Y-105802466D01*
X113264266Y-105735800D01*
X113297600Y-105635800D01*
X113330933Y-105602466D01*
X113264266Y-105369133D02*
X113264266Y-104935800D01*
X113530933Y-105169133D01*
X113530933Y-105069133D01*
X113564266Y-105002466D01*
X113597600Y-104969133D01*
X113664266Y-104935800D01*
X113830933Y-104935800D01*
X113897600Y-104969133D01*
X113930933Y-105002466D01*
X113964266Y-105069133D01*
X113964266Y-105269133D01*
X113930933Y-105335800D01*
X113897600Y-105369133D01*
X177130000Y-98690000D02*
X177096666Y-98723333D01*
X176996666Y-98756666D01*
X176930000Y-98756666D01*
X176830000Y-98723333D01*
X176763333Y-98656666D01*
X176730000Y-98590000D01*
X176696666Y-98456666D01*
X176696666Y-98356666D01*
X176730000Y-98223333D01*
X176763333Y-98156666D01*
X176830000Y-98090000D01*
X176930000Y-98056666D01*
X176996666Y-98056666D01*
X177096666Y-98090000D01*
X177130000Y-98123333D01*
X177730000Y-98290000D02*
X177730000Y-98756666D01*
X177563333Y-98023333D02*
X177396666Y-98523333D01*
X177830000Y-98523333D01*
X178396666Y-98290000D02*
X178396666Y-98756666D01*
X178230000Y-98023333D02*
X178063333Y-98523333D01*
X178496666Y-98523333D01*
X174870380Y-93915490D02*
X174903713Y-93948823D01*
X174937046Y-94048823D01*
X174937046Y-94115490D01*
X174903713Y-94215490D01*
X174837046Y-94282156D01*
X174770380Y-94315490D01*
X174637046Y-94348823D01*
X174537046Y-94348823D01*
X174403713Y-94315490D01*
X174337046Y-94282156D01*
X174270380Y-94215490D01*
X174237046Y-94115490D01*
X174237046Y-94048823D01*
X174270380Y-93948823D01*
X174303713Y-93915490D01*
X174470380Y-93315490D02*
X174937046Y-93315490D01*
X174203713Y-93482156D02*
X174703713Y-93648823D01*
X174703713Y-93215490D01*
X174470380Y-92648823D02*
X174937046Y-92648823D01*
X174203713Y-92815490D02*
X174703713Y-92982156D01*
X174703713Y-92548823D01*
X186830000Y-77240000D02*
X186796666Y-77273333D01*
X186696666Y-77306666D01*
X186630000Y-77306666D01*
X186530000Y-77273333D01*
X186463333Y-77206666D01*
X186430000Y-77140000D01*
X186396666Y-77006666D01*
X186396666Y-76906666D01*
X186430000Y-76773333D01*
X186463333Y-76706666D01*
X186530000Y-76640000D01*
X186630000Y-76606666D01*
X186696666Y-76606666D01*
X186796666Y-76640000D01*
X186830000Y-76673333D01*
X187063333Y-76606666D02*
X187496666Y-76606666D01*
X187263333Y-76873333D01*
X187363333Y-76873333D01*
X187430000Y-76906666D01*
X187463333Y-76940000D01*
X187496666Y-77006666D01*
X187496666Y-77173333D01*
X187463333Y-77240000D01*
X187430000Y-77273333D01*
X187363333Y-77306666D01*
X187163333Y-77306666D01*
X187096666Y-77273333D01*
X187063333Y-77240000D01*
X188130000Y-76606666D02*
X187796666Y-76606666D01*
X187763333Y-76940000D01*
X187796666Y-76906666D01*
X187863333Y-76873333D01*
X188030000Y-76873333D01*
X188096666Y-76906666D01*
X188130000Y-76940000D01*
X188163333Y-77006666D01*
X188163333Y-77173333D01*
X188130000Y-77240000D01*
X188096666Y-77273333D01*
X188030000Y-77306666D01*
X187863333Y-77306666D01*
X187796666Y-77273333D01*
X187763333Y-77240000D01*
X187510000Y-80230000D02*
X187543333Y-80263333D01*
X187576666Y-80363333D01*
X187576666Y-80430000D01*
X187543333Y-80530000D01*
X187476666Y-80596666D01*
X187410000Y-80630000D01*
X187276666Y-80663333D01*
X187176666Y-80663333D01*
X187043333Y-80630000D01*
X186976666Y-80596666D01*
X186910000Y-80530000D01*
X186876666Y-80430000D01*
X186876666Y-80363333D01*
X186910000Y-80263333D01*
X186943333Y-80230000D01*
X186876666Y-79996666D02*
X186876666Y-79563333D01*
X187143333Y-79796666D01*
X187143333Y-79696666D01*
X187176666Y-79630000D01*
X187210000Y-79596666D01*
X187276666Y-79563333D01*
X187443333Y-79563333D01*
X187510000Y-79596666D01*
X187543333Y-79630000D01*
X187576666Y-79696666D01*
X187576666Y-79896666D01*
X187543333Y-79963333D01*
X187510000Y-79996666D01*
X186876666Y-78930000D02*
X186876666Y-79263333D01*
X187210000Y-79296666D01*
X187176666Y-79263333D01*
X187143333Y-79196666D01*
X187143333Y-79030000D01*
X187176666Y-78963333D01*
X187210000Y-78930000D01*
X187276666Y-78896666D01*
X187443333Y-78896666D01*
X187510000Y-78930000D01*
X187543333Y-78963333D01*
X187576666Y-79030000D01*
X187576666Y-79196666D01*
X187543333Y-79263333D01*
X187510000Y-79296666D01*
X192600000Y-95950000D02*
X192633333Y-95983333D01*
X192666666Y-96083333D01*
X192666666Y-96150000D01*
X192633333Y-96250000D01*
X192566666Y-96316666D01*
X192500000Y-96350000D01*
X192366666Y-96383333D01*
X192266666Y-96383333D01*
X192133333Y-96350000D01*
X192066666Y-96316666D01*
X192000000Y-96250000D01*
X191966666Y-96150000D01*
X191966666Y-96083333D01*
X192000000Y-95983333D01*
X192033333Y-95950000D01*
X191966666Y-95716666D02*
X191966666Y-95283333D01*
X192233333Y-95516666D01*
X192233333Y-95416666D01*
X192266666Y-95350000D01*
X192300000Y-95316666D01*
X192366666Y-95283333D01*
X192533333Y-95283333D01*
X192600000Y-95316666D01*
X192633333Y-95350000D01*
X192666666Y-95416666D01*
X192666666Y-95616666D01*
X192633333Y-95683333D01*
X192600000Y-95716666D01*
X191966666Y-95050000D02*
X191966666Y-94583333D01*
X192666666Y-94883333D01*
X189600000Y-95750000D02*
X189566666Y-95783333D01*
X189466666Y-95816666D01*
X189400000Y-95816666D01*
X189300000Y-95783333D01*
X189233333Y-95716666D01*
X189200000Y-95650000D01*
X189166666Y-95516666D01*
X189166666Y-95416666D01*
X189200000Y-95283333D01*
X189233333Y-95216666D01*
X189300000Y-95150000D01*
X189400000Y-95116666D01*
X189466666Y-95116666D01*
X189566666Y-95150000D01*
X189600000Y-95183333D01*
X189833333Y-95116666D02*
X190266666Y-95116666D01*
X190033333Y-95383333D01*
X190133333Y-95383333D01*
X190200000Y-95416666D01*
X190233333Y-95450000D01*
X190266666Y-95516666D01*
X190266666Y-95683333D01*
X190233333Y-95750000D01*
X190200000Y-95783333D01*
X190133333Y-95816666D01*
X189933333Y-95816666D01*
X189866666Y-95783333D01*
X189833333Y-95750000D01*
X190500000Y-95116666D02*
X190966666Y-95116666D01*
X190666666Y-95816666D01*
X193436666Y-109203333D02*
X193936666Y-109203333D01*
X194036666Y-109236666D01*
X194103333Y-109303333D01*
X194136666Y-109403333D01*
X194136666Y-109470000D01*
X193436666Y-108570000D02*
X193436666Y-108703333D01*
X193470000Y-108770000D01*
X193503333Y-108803333D01*
X193603333Y-108870000D01*
X193736666Y-108903333D01*
X194003333Y-108903333D01*
X194070000Y-108870000D01*
X194103333Y-108836666D01*
X194136666Y-108770000D01*
X194136666Y-108636666D01*
X194103333Y-108570000D01*
X194070000Y-108536666D01*
X194003333Y-108503333D01*
X193836666Y-108503333D01*
X193770000Y-108536666D01*
X193736666Y-108570000D01*
X193703333Y-108636666D01*
X193703333Y-108770000D01*
X193736666Y-108836666D01*
X193770000Y-108870000D01*
X193836666Y-108903333D01*
X149033333Y-88941666D02*
X149033333Y-88241666D01*
X149200000Y-88241666D01*
X149300000Y-88275000D01*
X149366666Y-88341666D01*
X149400000Y-88408333D01*
X149433333Y-88541666D01*
X149433333Y-88641666D01*
X149400000Y-88775000D01*
X149366666Y-88841666D01*
X149300000Y-88908333D01*
X149200000Y-88941666D01*
X149033333Y-88941666D01*
X150066666Y-88241666D02*
X149733333Y-88241666D01*
X149700000Y-88575000D01*
X149733333Y-88541666D01*
X149800000Y-88508333D01*
X149966666Y-88508333D01*
X150033333Y-88541666D01*
X150066666Y-88575000D01*
X150100000Y-88641666D01*
X150100000Y-88808333D01*
X150066666Y-88875000D01*
X150033333Y-88908333D01*
X149966666Y-88941666D01*
X149800000Y-88941666D01*
X149733333Y-88908333D01*
X149700000Y-88875000D01*
X186555000Y-104710000D02*
X186521666Y-104743333D01*
X186421666Y-104776666D01*
X186355000Y-104776666D01*
X186255000Y-104743333D01*
X186188333Y-104676666D01*
X186155000Y-104610000D01*
X186121666Y-104476666D01*
X186121666Y-104376666D01*
X186155000Y-104243333D01*
X186188333Y-104176666D01*
X186255000Y-104110000D01*
X186355000Y-104076666D01*
X186421666Y-104076666D01*
X186521666Y-104110000D01*
X186555000Y-104143333D01*
X187155000Y-104310000D02*
X187155000Y-104776666D01*
X186988333Y-104043333D02*
X186821666Y-104543333D01*
X187255000Y-104543333D01*
X187455000Y-104076666D02*
X187921666Y-104076666D01*
X187621666Y-104776666D01*
X186550000Y-105940000D02*
X186516666Y-105973333D01*
X186416666Y-106006666D01*
X186350000Y-106006666D01*
X186250000Y-105973333D01*
X186183333Y-105906666D01*
X186150000Y-105840000D01*
X186116666Y-105706666D01*
X186116666Y-105606666D01*
X186150000Y-105473333D01*
X186183333Y-105406666D01*
X186250000Y-105340000D01*
X186350000Y-105306666D01*
X186416666Y-105306666D01*
X186516666Y-105340000D01*
X186550000Y-105373333D01*
X187150000Y-105540000D02*
X187150000Y-106006666D01*
X186983333Y-105273333D02*
X186816666Y-105773333D01*
X187250000Y-105773333D01*
X187450000Y-105306666D02*
X187916666Y-105306666D01*
X187616666Y-106006666D01*
X153046666Y-92791666D02*
X152713333Y-93025000D01*
X153046666Y-93191666D02*
X152346666Y-93191666D01*
X152346666Y-92925000D01*
X152380000Y-92858333D01*
X152413333Y-92825000D01*
X152480000Y-92791666D01*
X152580000Y-92791666D01*
X152646666Y-92825000D01*
X152680000Y-92858333D01*
X152713333Y-92925000D01*
X152713333Y-93191666D01*
X152646666Y-92391666D02*
X152613333Y-92458333D01*
X152580000Y-92491666D01*
X152513333Y-92525000D01*
X152480000Y-92525000D01*
X152413333Y-92491666D01*
X152380000Y-92458333D01*
X152346666Y-92391666D01*
X152346666Y-92258333D01*
X152380000Y-92191666D01*
X152413333Y-92158333D01*
X152480000Y-92125000D01*
X152513333Y-92125000D01*
X152580000Y-92158333D01*
X152613333Y-92191666D01*
X152646666Y-92258333D01*
X152646666Y-92391666D01*
X152680000Y-92458333D01*
X152713333Y-92491666D01*
X152780000Y-92525000D01*
X152913333Y-92525000D01*
X152980000Y-92491666D01*
X153013333Y-92458333D01*
X153046666Y-92391666D01*
X153046666Y-92258333D01*
X153013333Y-92191666D01*
X152980000Y-92158333D01*
X152913333Y-92125000D01*
X152780000Y-92125000D01*
X152713333Y-92158333D01*
X152680000Y-92191666D01*
X152646666Y-92258333D01*
X151616666Y-92791666D02*
X151283333Y-93025000D01*
X151616666Y-93191666D02*
X150916666Y-93191666D01*
X150916666Y-92925000D01*
X150950000Y-92858333D01*
X150983333Y-92825000D01*
X151050000Y-92791666D01*
X151150000Y-92791666D01*
X151216666Y-92825000D01*
X151250000Y-92858333D01*
X151283333Y-92925000D01*
X151283333Y-93191666D01*
X151216666Y-92391666D02*
X151183333Y-92458333D01*
X151150000Y-92491666D01*
X151083333Y-92525000D01*
X151050000Y-92525000D01*
X150983333Y-92491666D01*
X150950000Y-92458333D01*
X150916666Y-92391666D01*
X150916666Y-92258333D01*
X150950000Y-92191666D01*
X150983333Y-92158333D01*
X151050000Y-92125000D01*
X151083333Y-92125000D01*
X151150000Y-92158333D01*
X151183333Y-92191666D01*
X151216666Y-92258333D01*
X151216666Y-92391666D01*
X151250000Y-92458333D01*
X151283333Y-92491666D01*
X151350000Y-92525000D01*
X151483333Y-92525000D01*
X151550000Y-92491666D01*
X151583333Y-92458333D01*
X151616666Y-92391666D01*
X151616666Y-92258333D01*
X151583333Y-92191666D01*
X151550000Y-92158333D01*
X151483333Y-92125000D01*
X151350000Y-92125000D01*
X151283333Y-92158333D01*
X151250000Y-92191666D01*
X151216666Y-92258333D01*
X192600000Y-98000000D02*
X192633333Y-98033333D01*
X192666666Y-98133333D01*
X192666666Y-98200000D01*
X192633333Y-98300000D01*
X192566666Y-98366666D01*
X192500000Y-98400000D01*
X192366666Y-98433333D01*
X192266666Y-98433333D01*
X192133333Y-98400000D01*
X192066666Y-98366666D01*
X192000000Y-98300000D01*
X191966666Y-98200000D01*
X191966666Y-98133333D01*
X192000000Y-98033333D01*
X192033333Y-98000000D01*
X192200000Y-97400000D02*
X192666666Y-97400000D01*
X191933333Y-97566666D02*
X192433333Y-97733333D01*
X192433333Y-97300000D01*
X191966666Y-96900000D02*
X191966666Y-96833333D01*
X192000000Y-96766666D01*
X192033333Y-96733333D01*
X192100000Y-96700000D01*
X192233333Y-96666666D01*
X192400000Y-96666666D01*
X192533333Y-96700000D01*
X192600000Y-96733333D01*
X192633333Y-96766666D01*
X192666666Y-96833333D01*
X192666666Y-96900000D01*
X192633333Y-96966666D01*
X192600000Y-97000000D01*
X192533333Y-97033333D01*
X192400000Y-97066666D01*
X192233333Y-97066666D01*
X192100000Y-97033333D01*
X192033333Y-97000000D01*
X192000000Y-96966666D01*
X191966666Y-96900000D01*
X189600000Y-97750000D02*
X189566666Y-97783333D01*
X189466666Y-97816666D01*
X189400000Y-97816666D01*
X189300000Y-97783333D01*
X189233333Y-97716666D01*
X189200000Y-97650000D01*
X189166666Y-97516666D01*
X189166666Y-97416666D01*
X189200000Y-97283333D01*
X189233333Y-97216666D01*
X189300000Y-97150000D01*
X189400000Y-97116666D01*
X189466666Y-97116666D01*
X189566666Y-97150000D01*
X189600000Y-97183333D01*
X190200000Y-97350000D02*
X190200000Y-97816666D01*
X190033333Y-97083333D02*
X189866666Y-97583333D01*
X190300000Y-97583333D01*
X190700000Y-97116666D02*
X190766666Y-97116666D01*
X190833333Y-97150000D01*
X190866666Y-97183333D01*
X190900000Y-97250000D01*
X190933333Y-97383333D01*
X190933333Y-97550000D01*
X190900000Y-97683333D01*
X190866666Y-97750000D01*
X190833333Y-97783333D01*
X190766666Y-97816666D01*
X190700000Y-97816666D01*
X190633333Y-97783333D01*
X190600000Y-97750000D01*
X190566666Y-97683333D01*
X190533333Y-97550000D01*
X190533333Y-97383333D01*
X190566666Y-97250000D01*
X190600000Y-97183333D01*
X190633333Y-97150000D01*
X190700000Y-97116666D01*
X160250000Y-81250000D02*
X160283333Y-81283333D01*
X160316666Y-81383333D01*
X160316666Y-81450000D01*
X160283333Y-81550000D01*
X160216666Y-81616666D01*
X160150000Y-81650000D01*
X160016666Y-81683333D01*
X159916666Y-81683333D01*
X159783333Y-81650000D01*
X159716666Y-81616666D01*
X159650000Y-81550000D01*
X159616666Y-81450000D01*
X159616666Y-81383333D01*
X159650000Y-81283333D01*
X159683333Y-81250000D01*
X159850000Y-80650000D02*
X160316666Y-80650000D01*
X159583333Y-80816666D02*
X160083333Y-80983333D01*
X160083333Y-80550000D01*
X159616666Y-80350000D02*
X159616666Y-79916666D01*
X159883333Y-80150000D01*
X159883333Y-80050000D01*
X159916666Y-79983333D01*
X159950000Y-79950000D01*
X160016666Y-79916666D01*
X160183333Y-79916666D01*
X160250000Y-79950000D01*
X160283333Y-79983333D01*
X160316666Y-80050000D01*
X160316666Y-80250000D01*
X160283333Y-80316666D01*
X160250000Y-80350000D01*
X164500000Y-83900000D02*
X164466666Y-83933333D01*
X164366666Y-83966666D01*
X164300000Y-83966666D01*
X164200000Y-83933333D01*
X164133333Y-83866666D01*
X164100000Y-83800000D01*
X164066666Y-83666666D01*
X164066666Y-83566666D01*
X164100000Y-83433333D01*
X164133333Y-83366666D01*
X164200000Y-83300000D01*
X164300000Y-83266666D01*
X164366666Y-83266666D01*
X164466666Y-83300000D01*
X164500000Y-83333333D01*
X165100000Y-83500000D02*
X165100000Y-83966666D01*
X164933333Y-83233333D02*
X164766666Y-83733333D01*
X165200000Y-83733333D01*
X165400000Y-83266666D02*
X165833333Y-83266666D01*
X165600000Y-83533333D01*
X165700000Y-83533333D01*
X165766666Y-83566666D01*
X165800000Y-83600000D01*
X165833333Y-83666666D01*
X165833333Y-83833333D01*
X165800000Y-83900000D01*
X165766666Y-83933333D01*
X165700000Y-83966666D01*
X165500000Y-83966666D01*
X165433333Y-83933333D01*
X165400000Y-83900000D01*
X171683333Y-113746666D02*
X171450000Y-113413333D01*
X171283333Y-113746666D02*
X171283333Y-113046666D01*
X171550000Y-113046666D01*
X171616666Y-113080000D01*
X171650000Y-113113333D01*
X171683333Y-113180000D01*
X171683333Y-113280000D01*
X171650000Y-113346666D01*
X171616666Y-113380000D01*
X171550000Y-113413333D01*
X171283333Y-113413333D01*
X172350000Y-113746666D02*
X171950000Y-113746666D01*
X172150000Y-113746666D02*
X172150000Y-113046666D01*
X172083333Y-113146666D01*
X172016666Y-113213333D01*
X171950000Y-113246666D01*
X126929600Y-103176666D02*
X126962933Y-103210000D01*
X126996266Y-103310000D01*
X126996266Y-103376666D01*
X126962933Y-103476666D01*
X126896266Y-103543333D01*
X126829600Y-103576666D01*
X126696266Y-103610000D01*
X126596266Y-103610000D01*
X126462933Y-103576666D01*
X126396266Y-103543333D01*
X126329600Y-103476666D01*
X126296266Y-103376666D01*
X126296266Y-103310000D01*
X126329600Y-103210000D01*
X126362933Y-103176666D01*
X126362933Y-102910000D02*
X126329600Y-102876666D01*
X126296266Y-102810000D01*
X126296266Y-102643333D01*
X126329600Y-102576666D01*
X126362933Y-102543333D01*
X126429600Y-102510000D01*
X126496266Y-102510000D01*
X126596266Y-102543333D01*
X126996266Y-102943333D01*
X126996266Y-102510000D01*
X124530933Y-103360800D02*
X124497600Y-103394133D01*
X124397600Y-103427466D01*
X124330933Y-103427466D01*
X124230933Y-103394133D01*
X124164266Y-103327466D01*
X124130933Y-103260800D01*
X124097600Y-103127466D01*
X124097600Y-103027466D01*
X124130933Y-102894133D01*
X124164266Y-102827466D01*
X124230933Y-102760800D01*
X124330933Y-102727466D01*
X124397600Y-102727466D01*
X124497600Y-102760800D01*
X124530933Y-102794133D01*
X124797600Y-102794133D02*
X124830933Y-102760800D01*
X124897600Y-102727466D01*
X125064266Y-102727466D01*
X125130933Y-102760800D01*
X125164266Y-102794133D01*
X125197600Y-102860800D01*
X125197600Y-102927466D01*
X125164266Y-103027466D01*
X124764266Y-103427466D01*
X125197600Y-103427466D01*
X186545000Y-113570000D02*
X186511666Y-113603333D01*
X186411666Y-113636666D01*
X186345000Y-113636666D01*
X186245000Y-113603333D01*
X186178333Y-113536666D01*
X186145000Y-113470000D01*
X186111666Y-113336666D01*
X186111666Y-113236666D01*
X186145000Y-113103333D01*
X186178333Y-113036666D01*
X186245000Y-112970000D01*
X186345000Y-112936666D01*
X186411666Y-112936666D01*
X186511666Y-112970000D01*
X186545000Y-113003333D01*
X187145000Y-113170000D02*
X187145000Y-113636666D01*
X186978333Y-112903333D02*
X186811666Y-113403333D01*
X187245000Y-113403333D01*
X187811666Y-112936666D02*
X187678333Y-112936666D01*
X187611666Y-112970000D01*
X187578333Y-113003333D01*
X187511666Y-113103333D01*
X187478333Y-113236666D01*
X187478333Y-113503333D01*
X187511666Y-113570000D01*
X187545000Y-113603333D01*
X187611666Y-113636666D01*
X187745000Y-113636666D01*
X187811666Y-113603333D01*
X187845000Y-113570000D01*
X187878333Y-113503333D01*
X187878333Y-113336666D01*
X187845000Y-113270000D01*
X187811666Y-113236666D01*
X187745000Y-113203333D01*
X187611666Y-113203333D01*
X187545000Y-113236666D01*
X187511666Y-113270000D01*
X187478333Y-113336666D01*
X186545000Y-112140000D02*
X186511666Y-112173333D01*
X186411666Y-112206666D01*
X186345000Y-112206666D01*
X186245000Y-112173333D01*
X186178333Y-112106666D01*
X186145000Y-112040000D01*
X186111666Y-111906666D01*
X186111666Y-111806666D01*
X186145000Y-111673333D01*
X186178333Y-111606666D01*
X186245000Y-111540000D01*
X186345000Y-111506666D01*
X186411666Y-111506666D01*
X186511666Y-111540000D01*
X186545000Y-111573333D01*
X187145000Y-111740000D02*
X187145000Y-112206666D01*
X186978333Y-111473333D02*
X186811666Y-111973333D01*
X187245000Y-111973333D01*
X187811666Y-111506666D02*
X187678333Y-111506666D01*
X187611666Y-111540000D01*
X187578333Y-111573333D01*
X187511666Y-111673333D01*
X187478333Y-111806666D01*
X187478333Y-112073333D01*
X187511666Y-112140000D01*
X187545000Y-112173333D01*
X187611666Y-112206666D01*
X187745000Y-112206666D01*
X187811666Y-112173333D01*
X187845000Y-112140000D01*
X187878333Y-112073333D01*
X187878333Y-111906666D01*
X187845000Y-111840000D01*
X187811666Y-111806666D01*
X187745000Y-111773333D01*
X187611666Y-111773333D01*
X187545000Y-111806666D01*
X187511666Y-111840000D01*
X187478333Y-111906666D01*
X186760000Y-72800000D02*
X186726666Y-72833333D01*
X186626666Y-72866666D01*
X186560000Y-72866666D01*
X186460000Y-72833333D01*
X186393333Y-72766666D01*
X186360000Y-72700000D01*
X186326666Y-72566666D01*
X186326666Y-72466666D01*
X186360000Y-72333333D01*
X186393333Y-72266666D01*
X186460000Y-72200000D01*
X186560000Y-72166666D01*
X186626666Y-72166666D01*
X186726666Y-72200000D01*
X186760000Y-72233333D01*
X187360000Y-72400000D02*
X187360000Y-72866666D01*
X187193333Y-72133333D02*
X187026666Y-72633333D01*
X187460000Y-72633333D01*
X187760000Y-72866666D02*
X187893333Y-72866666D01*
X187960000Y-72833333D01*
X187993333Y-72800000D01*
X188060000Y-72700000D01*
X188093333Y-72566666D01*
X188093333Y-72300000D01*
X188060000Y-72233333D01*
X188026666Y-72200000D01*
X187960000Y-72166666D01*
X187826666Y-72166666D01*
X187760000Y-72200000D01*
X187726666Y-72233333D01*
X187693333Y-72300000D01*
X187693333Y-72466666D01*
X187726666Y-72533333D01*
X187760000Y-72566666D01*
X187826666Y-72600000D01*
X187960000Y-72600000D01*
X188026666Y-72566666D01*
X188060000Y-72533333D01*
X188093333Y-72466666D01*
X186750000Y-71540000D02*
X186716666Y-71573333D01*
X186616666Y-71606666D01*
X186550000Y-71606666D01*
X186450000Y-71573333D01*
X186383333Y-71506666D01*
X186350000Y-71440000D01*
X186316666Y-71306666D01*
X186316666Y-71206666D01*
X186350000Y-71073333D01*
X186383333Y-71006666D01*
X186450000Y-70940000D01*
X186550000Y-70906666D01*
X186616666Y-70906666D01*
X186716666Y-70940000D01*
X186750000Y-70973333D01*
X187350000Y-71140000D02*
X187350000Y-71606666D01*
X187183333Y-70873333D02*
X187016666Y-71373333D01*
X187450000Y-71373333D01*
X187750000Y-71606666D02*
X187883333Y-71606666D01*
X187950000Y-71573333D01*
X187983333Y-71540000D01*
X188050000Y-71440000D01*
X188083333Y-71306666D01*
X188083333Y-71040000D01*
X188050000Y-70973333D01*
X188016666Y-70940000D01*
X187950000Y-70906666D01*
X187816666Y-70906666D01*
X187750000Y-70940000D01*
X187716666Y-70973333D01*
X187683333Y-71040000D01*
X187683333Y-71206666D01*
X187716666Y-71273333D01*
X187750000Y-71306666D01*
X187816666Y-71340000D01*
X187950000Y-71340000D01*
X188016666Y-71306666D01*
X188050000Y-71273333D01*
X188083333Y-71206666D01*
X182810000Y-108233333D02*
X182810000Y-108466666D01*
X183176666Y-108466666D02*
X182476666Y-108466666D01*
X182476666Y-108133333D01*
X182810000Y-107633333D02*
X182843333Y-107533333D01*
X182876666Y-107500000D01*
X182943333Y-107466666D01*
X183043333Y-107466666D01*
X183110000Y-107500000D01*
X183143333Y-107533333D01*
X183176666Y-107600000D01*
X183176666Y-107866666D01*
X182476666Y-107866666D01*
X182476666Y-107633333D01*
X182510000Y-107566666D01*
X182543333Y-107533333D01*
X182610000Y-107500000D01*
X182676666Y-107500000D01*
X182743333Y-107533333D01*
X182776666Y-107566666D01*
X182810000Y-107633333D01*
X182810000Y-107866666D01*
X183176666Y-106800000D02*
X183176666Y-107200000D01*
X183176666Y-107000000D02*
X182476666Y-107000000D01*
X182576666Y-107066666D01*
X182643333Y-107133333D01*
X182676666Y-107200000D01*
X185591666Y-107530000D02*
X185358333Y-107530000D01*
X185358333Y-107896666D02*
X185358333Y-107196666D01*
X185691666Y-107196666D01*
X186191666Y-107530000D02*
X186291666Y-107563333D01*
X186325000Y-107596666D01*
X186358333Y-107663333D01*
X186358333Y-107763333D01*
X186325000Y-107830000D01*
X186291666Y-107863333D01*
X186225000Y-107896666D01*
X185958333Y-107896666D01*
X185958333Y-107196666D01*
X186191666Y-107196666D01*
X186258333Y-107230000D01*
X186291666Y-107263333D01*
X186325000Y-107330000D01*
X186325000Y-107396666D01*
X186291666Y-107463333D01*
X186258333Y-107496666D01*
X186191666Y-107530000D01*
X185958333Y-107530000D01*
X187025000Y-107896666D02*
X186625000Y-107896666D01*
X186825000Y-107896666D02*
X186825000Y-107196666D01*
X186758333Y-107296666D01*
X186691666Y-107363333D01*
X186625000Y-107396666D01*
X182500000Y-77420000D02*
X182533333Y-77453333D01*
X182566666Y-77553333D01*
X182566666Y-77620000D01*
X182533333Y-77720000D01*
X182466666Y-77786666D01*
X182400000Y-77820000D01*
X182266666Y-77853333D01*
X182166666Y-77853333D01*
X182033333Y-77820000D01*
X181966666Y-77786666D01*
X181900000Y-77720000D01*
X181866666Y-77620000D01*
X181866666Y-77553333D01*
X181900000Y-77453333D01*
X181933333Y-77420000D01*
X181866666Y-77186666D02*
X181866666Y-76753333D01*
X182133333Y-76986666D01*
X182133333Y-76886666D01*
X182166666Y-76820000D01*
X182200000Y-76786666D01*
X182266666Y-76753333D01*
X182433333Y-76753333D01*
X182500000Y-76786666D01*
X182533333Y-76820000D01*
X182566666Y-76886666D01*
X182566666Y-77086666D01*
X182533333Y-77153333D01*
X182500000Y-77186666D01*
X181866666Y-76153333D02*
X181866666Y-76286666D01*
X181900000Y-76353333D01*
X181933333Y-76386666D01*
X182033333Y-76453333D01*
X182166666Y-76486666D01*
X182433333Y-76486666D01*
X182500000Y-76453333D01*
X182533333Y-76420000D01*
X182566666Y-76353333D01*
X182566666Y-76220000D01*
X182533333Y-76153333D01*
X182500000Y-76120000D01*
X182433333Y-76086666D01*
X182266666Y-76086666D01*
X182200000Y-76120000D01*
X182166666Y-76153333D01*
X182133333Y-76220000D01*
X182133333Y-76353333D01*
X182166666Y-76420000D01*
X182200000Y-76453333D01*
X182266666Y-76486666D01*
X184000000Y-77260000D02*
X183966666Y-77293333D01*
X183866666Y-77326666D01*
X183800000Y-77326666D01*
X183700000Y-77293333D01*
X183633333Y-77226666D01*
X183600000Y-77160000D01*
X183566666Y-77026666D01*
X183566666Y-76926666D01*
X183600000Y-76793333D01*
X183633333Y-76726666D01*
X183700000Y-76660000D01*
X183800000Y-76626666D01*
X183866666Y-76626666D01*
X183966666Y-76660000D01*
X184000000Y-76693333D01*
X184233333Y-76626666D02*
X184666666Y-76626666D01*
X184433333Y-76893333D01*
X184533333Y-76893333D01*
X184600000Y-76926666D01*
X184633333Y-76960000D01*
X184666666Y-77026666D01*
X184666666Y-77193333D01*
X184633333Y-77260000D01*
X184600000Y-77293333D01*
X184533333Y-77326666D01*
X184333333Y-77326666D01*
X184266666Y-77293333D01*
X184233333Y-77260000D01*
X185266666Y-76626666D02*
X185133333Y-76626666D01*
X185066666Y-76660000D01*
X185033333Y-76693333D01*
X184966666Y-76793333D01*
X184933333Y-76926666D01*
X184933333Y-77193333D01*
X184966666Y-77260000D01*
X185000000Y-77293333D01*
X185066666Y-77326666D01*
X185200000Y-77326666D01*
X185266666Y-77293333D01*
X185300000Y-77260000D01*
X185333333Y-77193333D01*
X185333333Y-77026666D01*
X185300000Y-76960000D01*
X185266666Y-76926666D01*
X185200000Y-76893333D01*
X185066666Y-76893333D01*
X185000000Y-76926666D01*
X184966666Y-76960000D01*
X184933333Y-77026666D01*
X153046666Y-89741666D02*
X152713333Y-89975000D01*
X153046666Y-90141666D02*
X152346666Y-90141666D01*
X152346666Y-89875000D01*
X152380000Y-89808333D01*
X152413333Y-89775000D01*
X152480000Y-89741666D01*
X152580000Y-89741666D01*
X152646666Y-89775000D01*
X152680000Y-89808333D01*
X152713333Y-89875000D01*
X152713333Y-90141666D01*
X152346666Y-89508333D02*
X152346666Y-89041666D01*
X153046666Y-89341666D01*
X151616666Y-89741666D02*
X151283333Y-89975000D01*
X151616666Y-90141666D02*
X150916666Y-90141666D01*
X150916666Y-89875000D01*
X150950000Y-89808333D01*
X150983333Y-89775000D01*
X151050000Y-89741666D01*
X151150000Y-89741666D01*
X151216666Y-89775000D01*
X151250000Y-89808333D01*
X151283333Y-89875000D01*
X151283333Y-90141666D01*
X150916666Y-89508333D02*
X150916666Y-89041666D01*
X151616666Y-89341666D01*
X195180000Y-95940000D02*
X195146666Y-95973333D01*
X195046666Y-96006666D01*
X194980000Y-96006666D01*
X194880000Y-95973333D01*
X194813333Y-95906666D01*
X194780000Y-95840000D01*
X194746666Y-95706666D01*
X194746666Y-95606666D01*
X194780000Y-95473333D01*
X194813333Y-95406666D01*
X194880000Y-95340000D01*
X194980000Y-95306666D01*
X195046666Y-95306666D01*
X195146666Y-95340000D01*
X195180000Y-95373333D01*
X195413333Y-95306666D02*
X195846666Y-95306666D01*
X195613333Y-95573333D01*
X195713333Y-95573333D01*
X195780000Y-95606666D01*
X195813333Y-95640000D01*
X195846666Y-95706666D01*
X195846666Y-95873333D01*
X195813333Y-95940000D01*
X195780000Y-95973333D01*
X195713333Y-96006666D01*
X195513333Y-96006666D01*
X195446666Y-95973333D01*
X195413333Y-95940000D01*
X196080000Y-95306666D02*
X196513333Y-95306666D01*
X196280000Y-95573333D01*
X196380000Y-95573333D01*
X196446666Y-95606666D01*
X196480000Y-95640000D01*
X196513333Y-95706666D01*
X196513333Y-95873333D01*
X196480000Y-95940000D01*
X196446666Y-95973333D01*
X196380000Y-96006666D01*
X196180000Y-96006666D01*
X196113333Y-95973333D01*
X196080000Y-95940000D01*
X195170000Y-94680000D02*
X195136666Y-94713333D01*
X195036666Y-94746666D01*
X194970000Y-94746666D01*
X194870000Y-94713333D01*
X194803333Y-94646666D01*
X194770000Y-94580000D01*
X194736666Y-94446666D01*
X194736666Y-94346666D01*
X194770000Y-94213333D01*
X194803333Y-94146666D01*
X194870000Y-94080000D01*
X194970000Y-94046666D01*
X195036666Y-94046666D01*
X195136666Y-94080000D01*
X195170000Y-94113333D01*
X195403333Y-94046666D02*
X195836666Y-94046666D01*
X195603333Y-94313333D01*
X195703333Y-94313333D01*
X195770000Y-94346666D01*
X195803333Y-94380000D01*
X195836666Y-94446666D01*
X195836666Y-94613333D01*
X195803333Y-94680000D01*
X195770000Y-94713333D01*
X195703333Y-94746666D01*
X195503333Y-94746666D01*
X195436666Y-94713333D01*
X195403333Y-94680000D01*
X196070000Y-94046666D02*
X196503333Y-94046666D01*
X196270000Y-94313333D01*
X196370000Y-94313333D01*
X196436666Y-94346666D01*
X196470000Y-94380000D01*
X196503333Y-94446666D01*
X196503333Y-94613333D01*
X196470000Y-94680000D01*
X196436666Y-94713333D01*
X196370000Y-94746666D01*
X196170000Y-94746666D01*
X196103333Y-94713333D01*
X196070000Y-94680000D01*
X182820000Y-110533333D02*
X182820000Y-110766666D01*
X183186666Y-110766666D02*
X182486666Y-110766666D01*
X182486666Y-110433333D01*
X182820000Y-109933333D02*
X182853333Y-109833333D01*
X182886666Y-109800000D01*
X182953333Y-109766666D01*
X183053333Y-109766666D01*
X183120000Y-109800000D01*
X183153333Y-109833333D01*
X183186666Y-109900000D01*
X183186666Y-110166666D01*
X182486666Y-110166666D01*
X182486666Y-109933333D01*
X182520000Y-109866666D01*
X182553333Y-109833333D01*
X182620000Y-109800000D01*
X182686666Y-109800000D01*
X182753333Y-109833333D01*
X182786666Y-109866666D01*
X182820000Y-109933333D01*
X182820000Y-110166666D01*
X182486666Y-109533333D02*
X182486666Y-109100000D01*
X182753333Y-109333333D01*
X182753333Y-109233333D01*
X182786666Y-109166666D01*
X182820000Y-109133333D01*
X182886666Y-109100000D01*
X183053333Y-109100000D01*
X183120000Y-109133333D01*
X183153333Y-109166666D01*
X183186666Y-109233333D01*
X183186666Y-109433333D01*
X183153333Y-109500000D01*
X183120000Y-109533333D01*
X185586666Y-109890000D02*
X185353333Y-109890000D01*
X185353333Y-110256666D02*
X185353333Y-109556666D01*
X185686666Y-109556666D01*
X186186666Y-109890000D02*
X186286666Y-109923333D01*
X186320000Y-109956666D01*
X186353333Y-110023333D01*
X186353333Y-110123333D01*
X186320000Y-110190000D01*
X186286666Y-110223333D01*
X186220000Y-110256666D01*
X185953333Y-110256666D01*
X185953333Y-109556666D01*
X186186666Y-109556666D01*
X186253333Y-109590000D01*
X186286666Y-109623333D01*
X186320000Y-109690000D01*
X186320000Y-109756666D01*
X186286666Y-109823333D01*
X186253333Y-109856666D01*
X186186666Y-109890000D01*
X185953333Y-109890000D01*
X186586666Y-109556666D02*
X187020000Y-109556666D01*
X186786666Y-109823333D01*
X186886666Y-109823333D01*
X186953333Y-109856666D01*
X186986666Y-109890000D01*
X187020000Y-109956666D01*
X187020000Y-110123333D01*
X186986666Y-110190000D01*
X186953333Y-110223333D01*
X186886666Y-110256666D01*
X186686666Y-110256666D01*
X186620000Y-110223333D01*
X186586666Y-110190000D01*
X133416666Y-73300000D02*
X133083333Y-73533333D01*
X133416666Y-73700000D02*
X132716666Y-73700000D01*
X132716666Y-73433333D01*
X132750000Y-73366666D01*
X132783333Y-73333333D01*
X132850000Y-73300000D01*
X132950000Y-73300000D01*
X133016666Y-73333333D01*
X133050000Y-73366666D01*
X133083333Y-73433333D01*
X133083333Y-73700000D01*
X133416666Y-72633333D02*
X133416666Y-73033333D01*
X133416666Y-72833333D02*
X132716666Y-72833333D01*
X132816666Y-72900000D01*
X132883333Y-72966666D01*
X132916666Y-73033333D01*
X132716666Y-72200000D02*
X132716666Y-72133333D01*
X132750000Y-72066666D01*
X132783333Y-72033333D01*
X132850000Y-72000000D01*
X132983333Y-71966666D01*
X133150000Y-71966666D01*
X133283333Y-72000000D01*
X133350000Y-72033333D01*
X133383333Y-72066666D01*
X133416666Y-72133333D01*
X133416666Y-72200000D01*
X133383333Y-72266666D01*
X133350000Y-72300000D01*
X133283333Y-72333333D01*
X133150000Y-72366666D01*
X132983333Y-72366666D01*
X132850000Y-72333333D01*
X132783333Y-72300000D01*
X132750000Y-72266666D01*
X132716666Y-72200000D01*
X134575000Y-73216666D02*
X134341666Y-72883333D01*
X134175000Y-73216666D02*
X134175000Y-72516666D01*
X134441666Y-72516666D01*
X134508333Y-72550000D01*
X134541666Y-72583333D01*
X134575000Y-72650000D01*
X134575000Y-72750000D01*
X134541666Y-72816666D01*
X134508333Y-72850000D01*
X134441666Y-72883333D01*
X134175000Y-72883333D01*
X135241666Y-73216666D02*
X134841666Y-73216666D01*
X135041666Y-73216666D02*
X135041666Y-72516666D01*
X134975000Y-72616666D01*
X134908333Y-72683333D01*
X134841666Y-72716666D01*
X135675000Y-72516666D02*
X135741666Y-72516666D01*
X135808333Y-72550000D01*
X135841666Y-72583333D01*
X135875000Y-72650000D01*
X135908333Y-72783333D01*
X135908333Y-72950000D01*
X135875000Y-73083333D01*
X135841666Y-73150000D01*
X135808333Y-73183333D01*
X135741666Y-73216666D01*
X135675000Y-73216666D01*
X135608333Y-73183333D01*
X135575000Y-73150000D01*
X135541666Y-73083333D01*
X135508333Y-72950000D01*
X135508333Y-72783333D01*
X135541666Y-72650000D01*
X135575000Y-72583333D01*
X135608333Y-72550000D01*
X135675000Y-72516666D01*
X123600000Y-101350000D02*
X123633333Y-101383333D01*
X123666666Y-101483333D01*
X123666666Y-101550000D01*
X123633333Y-101650000D01*
X123566666Y-101716666D01*
X123500000Y-101750000D01*
X123366666Y-101783333D01*
X123266666Y-101783333D01*
X123133333Y-101750000D01*
X123066666Y-101716666D01*
X123000000Y-101650000D01*
X122966666Y-101550000D01*
X122966666Y-101483333D01*
X123000000Y-101383333D01*
X123033333Y-101350000D01*
X123666666Y-100683333D02*
X123666666Y-101083333D01*
X123666666Y-100883333D02*
X122966666Y-100883333D01*
X123066666Y-100950000D01*
X123133333Y-101016666D01*
X123166666Y-101083333D01*
X123033333Y-100416666D02*
X123000000Y-100383333D01*
X122966666Y-100316666D01*
X122966666Y-100150000D01*
X123000000Y-100083333D01*
X123033333Y-100050000D01*
X123100000Y-100016666D01*
X123166666Y-100016666D01*
X123266666Y-100050000D01*
X123666666Y-100450000D01*
X123666666Y-100016666D01*
X122300000Y-101350000D02*
X122333333Y-101383333D01*
X122366666Y-101483333D01*
X122366666Y-101550000D01*
X122333333Y-101650000D01*
X122266666Y-101716666D01*
X122200000Y-101750000D01*
X122066666Y-101783333D01*
X121966666Y-101783333D01*
X121833333Y-101750000D01*
X121766666Y-101716666D01*
X121700000Y-101650000D01*
X121666666Y-101550000D01*
X121666666Y-101483333D01*
X121700000Y-101383333D01*
X121733333Y-101350000D01*
X122366666Y-100683333D02*
X122366666Y-101083333D01*
X122366666Y-100883333D02*
X121666666Y-100883333D01*
X121766666Y-100950000D01*
X121833333Y-101016666D01*
X121866666Y-101083333D01*
X121733333Y-100416666D02*
X121700000Y-100383333D01*
X121666666Y-100316666D01*
X121666666Y-100150000D01*
X121700000Y-100083333D01*
X121733333Y-100050000D01*
X121800000Y-100016666D01*
X121866666Y-100016666D01*
X121966666Y-100050000D01*
X122366666Y-100450000D01*
X122366666Y-100016666D01*
X154569333Y-63750000D02*
X154536000Y-63783333D01*
X154436000Y-63816666D01*
X154369333Y-63816666D01*
X154269333Y-63783333D01*
X154202666Y-63716666D01*
X154169333Y-63650000D01*
X154136000Y-63516666D01*
X154136000Y-63416666D01*
X154169333Y-63283333D01*
X154202666Y-63216666D01*
X154269333Y-63150000D01*
X154369333Y-63116666D01*
X154436000Y-63116666D01*
X154536000Y-63150000D01*
X154569333Y-63183333D01*
X155202666Y-63116666D02*
X154869333Y-63116666D01*
X154836000Y-63450000D01*
X154869333Y-63416666D01*
X154936000Y-63383333D01*
X155102666Y-63383333D01*
X155169333Y-63416666D01*
X155202666Y-63450000D01*
X155236000Y-63516666D01*
X155236000Y-63683333D01*
X155202666Y-63750000D01*
X155169333Y-63783333D01*
X155102666Y-63816666D01*
X154936000Y-63816666D01*
X154869333Y-63783333D01*
X154836000Y-63750000D01*
X147547156Y-102917156D02*
X147547156Y-103417156D01*
X147513823Y-103517156D01*
X147447156Y-103583823D01*
X147347156Y-103617156D01*
X147280490Y-103617156D01*
X147813823Y-102917156D02*
X148247156Y-102917156D01*
X148013823Y-103183823D01*
X148113823Y-103183823D01*
X148180490Y-103217156D01*
X148213823Y-103250490D01*
X148247156Y-103317156D01*
X148247156Y-103483823D01*
X148213823Y-103550490D01*
X148180490Y-103583823D01*
X148113823Y-103617156D01*
X147913823Y-103617156D01*
X147847156Y-103583823D01*
X147813823Y-103550490D01*
X147547156Y-114917156D02*
X147547156Y-115417156D01*
X147513823Y-115517156D01*
X147447156Y-115583823D01*
X147347156Y-115617156D01*
X147280490Y-115617156D01*
X147813823Y-114917156D02*
X148247156Y-114917156D01*
X148013823Y-115183823D01*
X148113823Y-115183823D01*
X148180490Y-115217156D01*
X148213823Y-115250490D01*
X148247156Y-115317156D01*
X148247156Y-115483823D01*
X148213823Y-115550490D01*
X148180490Y-115583823D01*
X148113823Y-115617156D01*
X147913823Y-115617156D01*
X147847156Y-115583823D01*
X147813823Y-115550490D01*
X182950000Y-69933333D02*
X182950000Y-70166666D01*
X183316666Y-70166666D02*
X182616666Y-70166666D01*
X182616666Y-69833333D01*
X182950000Y-69333333D02*
X182983333Y-69233333D01*
X183016666Y-69200000D01*
X183083333Y-69166666D01*
X183183333Y-69166666D01*
X183250000Y-69200000D01*
X183283333Y-69233333D01*
X183316666Y-69300000D01*
X183316666Y-69566666D01*
X182616666Y-69566666D01*
X182616666Y-69333333D01*
X182650000Y-69266666D01*
X182683333Y-69233333D01*
X182750000Y-69200000D01*
X182816666Y-69200000D01*
X182883333Y-69233333D01*
X182916666Y-69266666D01*
X182950000Y-69333333D01*
X182950000Y-69566666D01*
X182683333Y-68900000D02*
X182650000Y-68866666D01*
X182616666Y-68800000D01*
X182616666Y-68633333D01*
X182650000Y-68566666D01*
X182683333Y-68533333D01*
X182750000Y-68500000D01*
X182816666Y-68500000D01*
X182916666Y-68533333D01*
X183316666Y-68933333D01*
X183316666Y-68500000D01*
X185791666Y-69300000D02*
X185558333Y-69300000D01*
X185558333Y-69666666D02*
X185558333Y-68966666D01*
X185891666Y-68966666D01*
X186391666Y-69300000D02*
X186491666Y-69333333D01*
X186525000Y-69366666D01*
X186558333Y-69433333D01*
X186558333Y-69533333D01*
X186525000Y-69600000D01*
X186491666Y-69633333D01*
X186425000Y-69666666D01*
X186158333Y-69666666D01*
X186158333Y-68966666D01*
X186391666Y-68966666D01*
X186458333Y-69000000D01*
X186491666Y-69033333D01*
X186525000Y-69100000D01*
X186525000Y-69166666D01*
X186491666Y-69233333D01*
X186458333Y-69266666D01*
X186391666Y-69300000D01*
X186158333Y-69300000D01*
X186825000Y-69033333D02*
X186858333Y-69000000D01*
X186925000Y-68966666D01*
X187091666Y-68966666D01*
X187158333Y-69000000D01*
X187191666Y-69033333D01*
X187225000Y-69100000D01*
X187225000Y-69166666D01*
X187191666Y-69266666D01*
X186791666Y-69666666D01*
X187225000Y-69666666D01*
X157350000Y-90500000D02*
X157316666Y-90533333D01*
X157216666Y-90566666D01*
X157150000Y-90566666D01*
X157050000Y-90533333D01*
X156983333Y-90466666D01*
X156950000Y-90400000D01*
X156916666Y-90266666D01*
X156916666Y-90166666D01*
X156950000Y-90033333D01*
X156983333Y-89966666D01*
X157050000Y-89900000D01*
X157150000Y-89866666D01*
X157216666Y-89866666D01*
X157316666Y-89900000D01*
X157350000Y-89933333D01*
X157983333Y-89866666D02*
X157650000Y-89866666D01*
X157616666Y-90200000D01*
X157650000Y-90166666D01*
X157716666Y-90133333D01*
X157883333Y-90133333D01*
X157950000Y-90166666D01*
X157983333Y-90200000D01*
X158016666Y-90266666D01*
X158016666Y-90433333D01*
X157983333Y-90500000D01*
X157950000Y-90533333D01*
X157883333Y-90566666D01*
X157716666Y-90566666D01*
X157650000Y-90533333D01*
X157616666Y-90500000D01*
X158450000Y-89866666D02*
X158516666Y-89866666D01*
X158583333Y-89900000D01*
X158616666Y-89933333D01*
X158650000Y-90000000D01*
X158683333Y-90133333D01*
X158683333Y-90300000D01*
X158650000Y-90433333D01*
X158616666Y-90500000D01*
X158583333Y-90533333D01*
X158516666Y-90566666D01*
X158450000Y-90566666D01*
X158383333Y-90533333D01*
X158350000Y-90500000D01*
X158316666Y-90433333D01*
X158283333Y-90300000D01*
X158283333Y-90133333D01*
X158316666Y-90000000D01*
X158350000Y-89933333D01*
X158383333Y-89900000D01*
X158450000Y-89866666D01*
X157275000Y-91850000D02*
X157241666Y-91883333D01*
X157141666Y-91916666D01*
X157075000Y-91916666D01*
X156975000Y-91883333D01*
X156908333Y-91816666D01*
X156875000Y-91750000D01*
X156841666Y-91616666D01*
X156841666Y-91516666D01*
X156875000Y-91383333D01*
X156908333Y-91316666D01*
X156975000Y-91250000D01*
X157075000Y-91216666D01*
X157141666Y-91216666D01*
X157241666Y-91250000D01*
X157275000Y-91283333D01*
X157908333Y-91216666D02*
X157575000Y-91216666D01*
X157541666Y-91550000D01*
X157575000Y-91516666D01*
X157641666Y-91483333D01*
X157808333Y-91483333D01*
X157875000Y-91516666D01*
X157908333Y-91550000D01*
X157941666Y-91616666D01*
X157941666Y-91783333D01*
X157908333Y-91850000D01*
X157875000Y-91883333D01*
X157808333Y-91916666D01*
X157641666Y-91916666D01*
X157575000Y-91883333D01*
X157541666Y-91850000D01*
X158375000Y-91216666D02*
X158441666Y-91216666D01*
X158508333Y-91250000D01*
X158541666Y-91283333D01*
X158575000Y-91350000D01*
X158608333Y-91483333D01*
X158608333Y-91650000D01*
X158575000Y-91783333D01*
X158541666Y-91850000D01*
X158508333Y-91883333D01*
X158441666Y-91916666D01*
X158375000Y-91916666D01*
X158308333Y-91883333D01*
X158275000Y-91850000D01*
X158241666Y-91783333D01*
X158208333Y-91650000D01*
X158208333Y-91483333D01*
X158241666Y-91350000D01*
X158275000Y-91283333D01*
X158308333Y-91250000D01*
X158375000Y-91216666D01*
X192870000Y-88020000D02*
X192836666Y-88053333D01*
X192736666Y-88086666D01*
X192670000Y-88086666D01*
X192570000Y-88053333D01*
X192503333Y-87986666D01*
X192470000Y-87920000D01*
X192436666Y-87786666D01*
X192436666Y-87686666D01*
X192470000Y-87553333D01*
X192503333Y-87486666D01*
X192570000Y-87420000D01*
X192670000Y-87386666D01*
X192736666Y-87386666D01*
X192836666Y-87420000D01*
X192870000Y-87453333D01*
X193136666Y-87453333D02*
X193170000Y-87420000D01*
X193236666Y-87386666D01*
X193403333Y-87386666D01*
X193470000Y-87420000D01*
X193503333Y-87453333D01*
X193536666Y-87520000D01*
X193536666Y-87586666D01*
X193503333Y-87686666D01*
X193103333Y-88086666D01*
X193536666Y-88086666D01*
X193870000Y-88086666D02*
X194003333Y-88086666D01*
X194070000Y-88053333D01*
X194103333Y-88020000D01*
X194170000Y-87920000D01*
X194203333Y-87786666D01*
X194203333Y-87520000D01*
X194170000Y-87453333D01*
X194136666Y-87420000D01*
X194070000Y-87386666D01*
X193936666Y-87386666D01*
X193870000Y-87420000D01*
X193836666Y-87453333D01*
X193803333Y-87520000D01*
X193803333Y-87686666D01*
X193836666Y-87753333D01*
X193870000Y-87786666D01*
X193936666Y-87820000D01*
X194070000Y-87820000D01*
X194136666Y-87786666D01*
X194170000Y-87753333D01*
X194203333Y-87686666D01*
X195410000Y-88010000D02*
X195376666Y-88043333D01*
X195276666Y-88076666D01*
X195210000Y-88076666D01*
X195110000Y-88043333D01*
X195043333Y-87976666D01*
X195010000Y-87910000D01*
X194976666Y-87776666D01*
X194976666Y-87676666D01*
X195010000Y-87543333D01*
X195043333Y-87476666D01*
X195110000Y-87410000D01*
X195210000Y-87376666D01*
X195276666Y-87376666D01*
X195376666Y-87410000D01*
X195410000Y-87443333D01*
X195676666Y-87443333D02*
X195710000Y-87410000D01*
X195776666Y-87376666D01*
X195943333Y-87376666D01*
X196010000Y-87410000D01*
X196043333Y-87443333D01*
X196076666Y-87510000D01*
X196076666Y-87576666D01*
X196043333Y-87676666D01*
X195643333Y-88076666D01*
X196076666Y-88076666D01*
X196410000Y-88076666D02*
X196543333Y-88076666D01*
X196610000Y-88043333D01*
X196643333Y-88010000D01*
X196710000Y-87910000D01*
X196743333Y-87776666D01*
X196743333Y-87510000D01*
X196710000Y-87443333D01*
X196676666Y-87410000D01*
X196610000Y-87376666D01*
X196476666Y-87376666D01*
X196410000Y-87410000D01*
X196376666Y-87443333D01*
X196343333Y-87510000D01*
X196343333Y-87676666D01*
X196376666Y-87743333D01*
X196410000Y-87776666D01*
X196476666Y-87810000D01*
X196610000Y-87810000D01*
X196676666Y-87776666D01*
X196710000Y-87743333D01*
X196743333Y-87676666D01*
X182500000Y-81500000D02*
X182533333Y-81533333D01*
X182566666Y-81633333D01*
X182566666Y-81700000D01*
X182533333Y-81800000D01*
X182466666Y-81866666D01*
X182400000Y-81900000D01*
X182266666Y-81933333D01*
X182166666Y-81933333D01*
X182033333Y-81900000D01*
X181966666Y-81866666D01*
X181900000Y-81800000D01*
X181866666Y-81700000D01*
X181866666Y-81633333D01*
X181900000Y-81533333D01*
X181933333Y-81500000D01*
X182566666Y-80833333D02*
X182566666Y-81233333D01*
X182566666Y-81033333D02*
X181866666Y-81033333D01*
X181966666Y-81100000D01*
X182033333Y-81166666D01*
X182066666Y-81233333D01*
X182566666Y-80500000D02*
X182566666Y-80366666D01*
X182533333Y-80300000D01*
X182500000Y-80266666D01*
X182400000Y-80200000D01*
X182266666Y-80166666D01*
X182000000Y-80166666D01*
X181933333Y-80200000D01*
X181900000Y-80233333D01*
X181866666Y-80300000D01*
X181866666Y-80433333D01*
X181900000Y-80500000D01*
X181933333Y-80533333D01*
X182000000Y-80566666D01*
X182166666Y-80566666D01*
X182233333Y-80533333D01*
X182266666Y-80500000D01*
X182300000Y-80433333D01*
X182300000Y-80300000D01*
X182266666Y-80233333D01*
X182233333Y-80200000D01*
X182166666Y-80166666D01*
X184000000Y-81300000D02*
X183966666Y-81333333D01*
X183866666Y-81366666D01*
X183800000Y-81366666D01*
X183700000Y-81333333D01*
X183633333Y-81266666D01*
X183600000Y-81200000D01*
X183566666Y-81066666D01*
X183566666Y-80966666D01*
X183600000Y-80833333D01*
X183633333Y-80766666D01*
X183700000Y-80700000D01*
X183800000Y-80666666D01*
X183866666Y-80666666D01*
X183966666Y-80700000D01*
X184000000Y-80733333D01*
X184666666Y-81366666D02*
X184266666Y-81366666D01*
X184466666Y-81366666D02*
X184466666Y-80666666D01*
X184400000Y-80766666D01*
X184333333Y-80833333D01*
X184266666Y-80866666D01*
X185000000Y-81366666D02*
X185133333Y-81366666D01*
X185200000Y-81333333D01*
X185233333Y-81300000D01*
X185300000Y-81200000D01*
X185333333Y-81066666D01*
X185333333Y-80800000D01*
X185300000Y-80733333D01*
X185266666Y-80700000D01*
X185200000Y-80666666D01*
X185066666Y-80666666D01*
X185000000Y-80700000D01*
X184966666Y-80733333D01*
X184933333Y-80800000D01*
X184933333Y-80966666D01*
X184966666Y-81033333D01*
X185000000Y-81066666D01*
X185066666Y-81100000D01*
X185200000Y-81100000D01*
X185266666Y-81066666D01*
X185300000Y-81033333D01*
X185333333Y-80966666D01*
X152563333Y-76262666D02*
X152330000Y-75929333D01*
X152163333Y-76262666D02*
X152163333Y-75562666D01*
X152430000Y-75562666D01*
X152496666Y-75596000D01*
X152530000Y-75629333D01*
X152563333Y-75696000D01*
X152563333Y-75796000D01*
X152530000Y-75862666D01*
X152496666Y-75896000D01*
X152430000Y-75929333D01*
X152163333Y-75929333D01*
X153163333Y-75562666D02*
X153030000Y-75562666D01*
X152963333Y-75596000D01*
X152930000Y-75629333D01*
X152863333Y-75729333D01*
X152830000Y-75862666D01*
X152830000Y-76129333D01*
X152863333Y-76196000D01*
X152896666Y-76229333D01*
X152963333Y-76262666D01*
X153096666Y-76262666D01*
X153163333Y-76229333D01*
X153196666Y-76196000D01*
X153230000Y-76129333D01*
X153230000Y-75962666D01*
X153196666Y-75896000D01*
X153163333Y-75862666D01*
X153096666Y-75829333D01*
X152963333Y-75829333D01*
X152896666Y-75862666D01*
X152863333Y-75896000D01*
X152830000Y-75962666D01*
X118266666Y-65816666D02*
X118266666Y-65116666D01*
X118266666Y-65450000D02*
X118666666Y-65450000D01*
X118666666Y-65816666D02*
X118666666Y-65116666D01*
X119366666Y-65816666D02*
X118966666Y-65816666D01*
X119166666Y-65816666D02*
X119166666Y-65116666D01*
X119100000Y-65216666D01*
X119033333Y-65283333D01*
X118966666Y-65316666D01*
X182920000Y-67413333D02*
X182920000Y-67646666D01*
X183286666Y-67646666D02*
X182586666Y-67646666D01*
X182586666Y-67313333D01*
X182920000Y-66813333D02*
X182953333Y-66713333D01*
X182986666Y-66680000D01*
X183053333Y-66646666D01*
X183153333Y-66646666D01*
X183220000Y-66680000D01*
X183253333Y-66713333D01*
X183286666Y-66780000D01*
X183286666Y-67046666D01*
X182586666Y-67046666D01*
X182586666Y-66813333D01*
X182620000Y-66746666D01*
X182653333Y-66713333D01*
X182720000Y-66680000D01*
X182786666Y-66680000D01*
X182853333Y-66713333D01*
X182886666Y-66746666D01*
X182920000Y-66813333D01*
X182920000Y-67046666D01*
X182820000Y-66046666D02*
X183286666Y-66046666D01*
X182553333Y-66213333D02*
X183053333Y-66380000D01*
X183053333Y-65946666D01*
X185791666Y-66925000D02*
X185558333Y-66925000D01*
X185558333Y-67291666D02*
X185558333Y-66591666D01*
X185891666Y-66591666D01*
X186391666Y-66925000D02*
X186491666Y-66958333D01*
X186525000Y-66991666D01*
X186558333Y-67058333D01*
X186558333Y-67158333D01*
X186525000Y-67225000D01*
X186491666Y-67258333D01*
X186425000Y-67291666D01*
X186158333Y-67291666D01*
X186158333Y-66591666D01*
X186391666Y-66591666D01*
X186458333Y-66625000D01*
X186491666Y-66658333D01*
X186525000Y-66725000D01*
X186525000Y-66791666D01*
X186491666Y-66858333D01*
X186458333Y-66891666D01*
X186391666Y-66925000D01*
X186158333Y-66925000D01*
X187158333Y-66825000D02*
X187158333Y-67291666D01*
X186991666Y-66558333D02*
X186825000Y-67058333D01*
X187258333Y-67058333D01*
X156347333Y-76262666D02*
X156114000Y-75929333D01*
X155947333Y-76262666D02*
X155947333Y-75562666D01*
X156214000Y-75562666D01*
X156280666Y-75596000D01*
X156314000Y-75629333D01*
X156347333Y-75696000D01*
X156347333Y-75796000D01*
X156314000Y-75862666D01*
X156280666Y-75896000D01*
X156214000Y-75929333D01*
X155947333Y-75929333D01*
X156614000Y-75629333D02*
X156647333Y-75596000D01*
X156714000Y-75562666D01*
X156880666Y-75562666D01*
X156947333Y-75596000D01*
X156980666Y-75629333D01*
X157014000Y-75696000D01*
X157014000Y-75762666D01*
X156980666Y-75862666D01*
X156580666Y-76262666D01*
X157014000Y-76262666D01*
X180536666Y-88993333D02*
X181103333Y-88993333D01*
X181170000Y-88960000D01*
X181203333Y-88926666D01*
X181236666Y-88860000D01*
X181236666Y-88726666D01*
X181203333Y-88660000D01*
X181170000Y-88626666D01*
X181103333Y-88593333D01*
X180536666Y-88593333D01*
X180770000Y-87960000D02*
X181236666Y-87960000D01*
X180503333Y-88126666D02*
X181003333Y-88293333D01*
X181003333Y-87860000D01*
X186397916Y-88764583D02*
X186964583Y-88764583D01*
X187031250Y-88731250D01*
X187064583Y-88697916D01*
X187097916Y-88631250D01*
X187097916Y-88497916D01*
X187064583Y-88431250D01*
X187031250Y-88397916D01*
X186964583Y-88364583D01*
X186397916Y-88364583D01*
X186631250Y-87731250D02*
X187097916Y-87731250D01*
X186364583Y-87897916D02*
X186864583Y-88064583D01*
X186864583Y-87631250D01*
D13*
X148280380Y-67476666D02*
X148280380Y-67952857D01*
X147280380Y-67952857D01*
X148280380Y-66619523D02*
X148280380Y-67190952D01*
X148280380Y-66905238D02*
X147280380Y-66905238D01*
X147423238Y-67000476D01*
X147518476Y-67095714D01*
X147566095Y-67190952D01*
D16*
X140416666Y-71916666D02*
X139716666Y-71916666D01*
X139716666Y-71750000D01*
X139750000Y-71650000D01*
X139816666Y-71583333D01*
X139883333Y-71550000D01*
X140016666Y-71516666D01*
X140116666Y-71516666D01*
X140250000Y-71550000D01*
X140316666Y-71583333D01*
X140383333Y-71650000D01*
X140416666Y-71750000D01*
X140416666Y-71916666D01*
X139716666Y-70916666D02*
X139716666Y-71050000D01*
X139750000Y-71116666D01*
X139783333Y-71150000D01*
X139883333Y-71216666D01*
X140016666Y-71250000D01*
X140283333Y-71250000D01*
X140350000Y-71216666D01*
X140383333Y-71183333D01*
X140416666Y-71116666D01*
X140416666Y-70983333D01*
X140383333Y-70916666D01*
X140350000Y-70883333D01*
X140283333Y-70850000D01*
X140116666Y-70850000D01*
X140050000Y-70883333D01*
X140016666Y-70916666D01*
X139983333Y-70983333D01*
X139983333Y-71116666D01*
X140016666Y-71183333D01*
X140050000Y-71216666D01*
X140116666Y-71250000D01*
X137495833Y-71716666D02*
X137495833Y-71016666D01*
X137662500Y-71016666D01*
X137762500Y-71050000D01*
X137829166Y-71116666D01*
X137862500Y-71183333D01*
X137895833Y-71316666D01*
X137895833Y-71416666D01*
X137862500Y-71550000D01*
X137829166Y-71616666D01*
X137762500Y-71683333D01*
X137662500Y-71716666D01*
X137495833Y-71716666D01*
X138495833Y-71016666D02*
X138362500Y-71016666D01*
X138295833Y-71050000D01*
X138262500Y-71083333D01*
X138195833Y-71183333D01*
X138162500Y-71316666D01*
X138162500Y-71583333D01*
X138195833Y-71650000D01*
X138229166Y-71683333D01*
X138295833Y-71716666D01*
X138429166Y-71716666D01*
X138495833Y-71683333D01*
X138529166Y-71650000D01*
X138562500Y-71583333D01*
X138562500Y-71416666D01*
X138529166Y-71350000D01*
X138495833Y-71316666D01*
X138429166Y-71283333D01*
X138295833Y-71283333D01*
X138229166Y-71316666D01*
X138195833Y-71350000D01*
X138162500Y-71416666D01*
X119616666Y-101300000D02*
X119283333Y-101533333D01*
X119616666Y-101700000D02*
X118916666Y-101700000D01*
X118916666Y-101433333D01*
X118950000Y-101366666D01*
X118983333Y-101333333D01*
X119050000Y-101300000D01*
X119150000Y-101300000D01*
X119216666Y-101333333D01*
X119250000Y-101366666D01*
X119283333Y-101433333D01*
X119283333Y-101700000D01*
X119616666Y-100633333D02*
X119616666Y-101033333D01*
X119616666Y-100833333D02*
X118916666Y-100833333D01*
X119016666Y-100900000D01*
X119083333Y-100966666D01*
X119116666Y-101033333D01*
X119150000Y-100033333D02*
X119616666Y-100033333D01*
X118883333Y-100200000D02*
X119383333Y-100366666D01*
X119383333Y-99933333D01*
X120866666Y-101325000D02*
X120533333Y-101558333D01*
X120866666Y-101725000D02*
X120166666Y-101725000D01*
X120166666Y-101458333D01*
X120200000Y-101391666D01*
X120233333Y-101358333D01*
X120300000Y-101325000D01*
X120400000Y-101325000D01*
X120466666Y-101358333D01*
X120500000Y-101391666D01*
X120533333Y-101458333D01*
X120533333Y-101725000D01*
X120866666Y-100658333D02*
X120866666Y-101058333D01*
X120866666Y-100858333D02*
X120166666Y-100858333D01*
X120266666Y-100925000D01*
X120333333Y-100991666D01*
X120366666Y-101058333D01*
X120400000Y-100058333D02*
X120866666Y-100058333D01*
X120133333Y-100225000D02*
X120633333Y-100391666D01*
X120633333Y-99958333D01*
X181450000Y-85400000D02*
X181483333Y-85433333D01*
X181516666Y-85533333D01*
X181516666Y-85600000D01*
X181483333Y-85700000D01*
X181416666Y-85766666D01*
X181350000Y-85800000D01*
X181216666Y-85833333D01*
X181116666Y-85833333D01*
X180983333Y-85800000D01*
X180916666Y-85766666D01*
X180850000Y-85700000D01*
X180816666Y-85600000D01*
X180816666Y-85533333D01*
X180850000Y-85433333D01*
X180883333Y-85400000D01*
X180883333Y-85133333D02*
X180850000Y-85100000D01*
X180816666Y-85033333D01*
X180816666Y-84866666D01*
X180850000Y-84800000D01*
X180883333Y-84766666D01*
X180950000Y-84733333D01*
X181016666Y-84733333D01*
X181116666Y-84766666D01*
X181516666Y-85166666D01*
X181516666Y-84733333D01*
X180816666Y-84100000D02*
X180816666Y-84433333D01*
X181150000Y-84466666D01*
X181116666Y-84433333D01*
X181083333Y-84366666D01*
X181083333Y-84200000D01*
X181116666Y-84133333D01*
X181150000Y-84100000D01*
X181216666Y-84066666D01*
X181383333Y-84066666D01*
X181450000Y-84100000D01*
X181483333Y-84133333D01*
X181516666Y-84200000D01*
X181516666Y-84366666D01*
X181483333Y-84433333D01*
X181450000Y-84466666D01*
X180070000Y-85230000D02*
X180103333Y-85263333D01*
X180136666Y-85363333D01*
X180136666Y-85430000D01*
X180103333Y-85530000D01*
X180036666Y-85596666D01*
X179970000Y-85630000D01*
X179836666Y-85663333D01*
X179736666Y-85663333D01*
X179603333Y-85630000D01*
X179536666Y-85596666D01*
X179470000Y-85530000D01*
X179436666Y-85430000D01*
X179436666Y-85363333D01*
X179470000Y-85263333D01*
X179503333Y-85230000D01*
X179503333Y-84963333D02*
X179470000Y-84930000D01*
X179436666Y-84863333D01*
X179436666Y-84696666D01*
X179470000Y-84630000D01*
X179503333Y-84596666D01*
X179570000Y-84563333D01*
X179636666Y-84563333D01*
X179736666Y-84596666D01*
X180136666Y-84996666D01*
X180136666Y-84563333D01*
X179436666Y-83930000D02*
X179436666Y-84263333D01*
X179770000Y-84296666D01*
X179736666Y-84263333D01*
X179703333Y-84196666D01*
X179703333Y-84030000D01*
X179736666Y-83963333D01*
X179770000Y-83930000D01*
X179836666Y-83896666D01*
X180003333Y-83896666D01*
X180070000Y-83930000D01*
X180103333Y-83963333D01*
X180136666Y-84030000D01*
X180136666Y-84196666D01*
X180103333Y-84263333D01*
X180070000Y-84296666D01*
X114266666Y-109147866D02*
X113566666Y-109147866D01*
X113566666Y-108981200D01*
X113600000Y-108881200D01*
X113666666Y-108814533D01*
X113733333Y-108781200D01*
X113866666Y-108747866D01*
X113966666Y-108747866D01*
X114100000Y-108781200D01*
X114166666Y-108814533D01*
X114233333Y-108881200D01*
X114266666Y-108981200D01*
X114266666Y-109147866D01*
X113633333Y-108481200D02*
X113600000Y-108447866D01*
X113566666Y-108381200D01*
X113566666Y-108214533D01*
X113600000Y-108147866D01*
X113633333Y-108114533D01*
X113700000Y-108081200D01*
X113766666Y-108081200D01*
X113866666Y-108114533D01*
X114266666Y-108514533D01*
X114266666Y-108081200D01*
X117408533Y-106966666D02*
X117408533Y-106266666D01*
X117575200Y-106266666D01*
X117675200Y-106300000D01*
X117741866Y-106366666D01*
X117775200Y-106433333D01*
X117808533Y-106566666D01*
X117808533Y-106666666D01*
X117775200Y-106800000D01*
X117741866Y-106866666D01*
X117675200Y-106933333D01*
X117575200Y-106966666D01*
X117408533Y-106966666D01*
X118075200Y-106333333D02*
X118108533Y-106300000D01*
X118175200Y-106266666D01*
X118341866Y-106266666D01*
X118408533Y-106300000D01*
X118441866Y-106333333D01*
X118475200Y-106400000D01*
X118475200Y-106466666D01*
X118441866Y-106566666D01*
X118041866Y-106966666D01*
X118475200Y-106966666D01*
D13*
X114060914Y-105502380D02*
X113489485Y-105502380D01*
X113775200Y-105502380D02*
X113775200Y-104502380D01*
X113679961Y-104645238D01*
X113584723Y-104740476D01*
X113489485Y-104788095D01*
D16*
X197070000Y-79820000D02*
X197103333Y-79853333D01*
X197136666Y-79953333D01*
X197136666Y-80020000D01*
X197103333Y-80120000D01*
X197036666Y-80186666D01*
X196970000Y-80220000D01*
X196836666Y-80253333D01*
X196736666Y-80253333D01*
X196603333Y-80220000D01*
X196536666Y-80186666D01*
X196470000Y-80120000D01*
X196436666Y-80020000D01*
X196436666Y-79953333D01*
X196470000Y-79853333D01*
X196503333Y-79820000D01*
X196503333Y-79553333D02*
X196470000Y-79520000D01*
X196436666Y-79453333D01*
X196436666Y-79286666D01*
X196470000Y-79220000D01*
X196503333Y-79186666D01*
X196570000Y-79153333D01*
X196636666Y-79153333D01*
X196736666Y-79186666D01*
X197136666Y-79586666D01*
X197136666Y-79153333D01*
X196436666Y-78553333D02*
X196436666Y-78686666D01*
X196470000Y-78753333D01*
X196503333Y-78786666D01*
X196603333Y-78853333D01*
X196736666Y-78886666D01*
X197003333Y-78886666D01*
X197070000Y-78853333D01*
X197103333Y-78820000D01*
X197136666Y-78753333D01*
X197136666Y-78620000D01*
X197103333Y-78553333D01*
X197070000Y-78520000D01*
X197003333Y-78486666D01*
X196836666Y-78486666D01*
X196770000Y-78520000D01*
X196736666Y-78553333D01*
X196703333Y-78620000D01*
X196703333Y-78753333D01*
X196736666Y-78820000D01*
X196770000Y-78853333D01*
X196836666Y-78886666D01*
X197040000Y-82540000D02*
X197073333Y-82573333D01*
X197106666Y-82673333D01*
X197106666Y-82740000D01*
X197073333Y-82840000D01*
X197006666Y-82906666D01*
X196940000Y-82940000D01*
X196806666Y-82973333D01*
X196706666Y-82973333D01*
X196573333Y-82940000D01*
X196506666Y-82906666D01*
X196440000Y-82840000D01*
X196406666Y-82740000D01*
X196406666Y-82673333D01*
X196440000Y-82573333D01*
X196473333Y-82540000D01*
X196473333Y-82273333D02*
X196440000Y-82240000D01*
X196406666Y-82173333D01*
X196406666Y-82006666D01*
X196440000Y-81940000D01*
X196473333Y-81906666D01*
X196540000Y-81873333D01*
X196606666Y-81873333D01*
X196706666Y-81906666D01*
X197106666Y-82306666D01*
X197106666Y-81873333D01*
X196406666Y-81273333D02*
X196406666Y-81406666D01*
X196440000Y-81473333D01*
X196473333Y-81506666D01*
X196573333Y-81573333D01*
X196706666Y-81606666D01*
X196973333Y-81606666D01*
X197040000Y-81573333D01*
X197073333Y-81540000D01*
X197106666Y-81473333D01*
X197106666Y-81340000D01*
X197073333Y-81273333D01*
X197040000Y-81240000D01*
X196973333Y-81206666D01*
X196806666Y-81206666D01*
X196740000Y-81240000D01*
X196706666Y-81273333D01*
X196673333Y-81340000D01*
X196673333Y-81473333D01*
X196706666Y-81540000D01*
X196740000Y-81573333D01*
X196806666Y-81606666D01*
X158216666Y-73530666D02*
X158216666Y-74097333D01*
X158250000Y-74164000D01*
X158283333Y-74197333D01*
X158350000Y-74230666D01*
X158483333Y-74230666D01*
X158550000Y-74197333D01*
X158583333Y-74164000D01*
X158616666Y-74097333D01*
X158616666Y-73530666D01*
X159316666Y-74230666D02*
X158916666Y-74230666D01*
X159116666Y-74230666D02*
X159116666Y-73530666D01*
X159050000Y-73630666D01*
X158983333Y-73697333D01*
X158916666Y-73730666D01*
D13*
X122207976Y-109465761D02*
X122350833Y-109513380D01*
X122588928Y-109513380D01*
X122684166Y-109465761D01*
X122731785Y-109418142D01*
X122779404Y-109322904D01*
X122779404Y-109227666D01*
X122731785Y-109132428D01*
X122684166Y-109084809D01*
X122588928Y-109037190D01*
X122398452Y-108989571D01*
X122303214Y-108941952D01*
X122255595Y-108894333D01*
X122207976Y-108799095D01*
X122207976Y-108703857D01*
X122255595Y-108608619D01*
X122303214Y-108561000D01*
X122398452Y-108513380D01*
X122636547Y-108513380D01*
X122779404Y-108561000D01*
X123112738Y-108513380D02*
X123350833Y-109513380D01*
X123541309Y-108799095D01*
X123731785Y-109513380D01*
X123969880Y-108513380D01*
X124874642Y-109513380D02*
X124303214Y-109513380D01*
X124588928Y-109513380D02*
X124588928Y-108513380D01*
X124493690Y-108656238D01*
X124398452Y-108751476D01*
X124303214Y-108799095D01*
D16*
X182550000Y-97900000D02*
X182583333Y-97933333D01*
X182616666Y-98033333D01*
X182616666Y-98100000D01*
X182583333Y-98200000D01*
X182516666Y-98266666D01*
X182450000Y-98300000D01*
X182316666Y-98333333D01*
X182216666Y-98333333D01*
X182083333Y-98300000D01*
X182016666Y-98266666D01*
X181950000Y-98200000D01*
X181916666Y-98100000D01*
X181916666Y-98033333D01*
X181950000Y-97933333D01*
X181983333Y-97900000D01*
X181916666Y-97666666D02*
X181916666Y-97233333D01*
X182183333Y-97466666D01*
X182183333Y-97366666D01*
X182216666Y-97300000D01*
X182250000Y-97266666D01*
X182316666Y-97233333D01*
X182483333Y-97233333D01*
X182550000Y-97266666D01*
X182583333Y-97300000D01*
X182616666Y-97366666D01*
X182616666Y-97566666D01*
X182583333Y-97633333D01*
X182550000Y-97666666D01*
X182216666Y-96833333D02*
X182183333Y-96900000D01*
X182150000Y-96933333D01*
X182083333Y-96966666D01*
X182050000Y-96966666D01*
X181983333Y-96933333D01*
X181950000Y-96900000D01*
X181916666Y-96833333D01*
X181916666Y-96700000D01*
X181950000Y-96633333D01*
X181983333Y-96600000D01*
X182050000Y-96566666D01*
X182083333Y-96566666D01*
X182150000Y-96600000D01*
X182183333Y-96633333D01*
X182216666Y-96700000D01*
X182216666Y-96833333D01*
X182250000Y-96900000D01*
X182283333Y-96933333D01*
X182350000Y-96966666D01*
X182483333Y-96966666D01*
X182550000Y-96933333D01*
X182583333Y-96900000D01*
X182616666Y-96833333D01*
X182616666Y-96700000D01*
X182583333Y-96633333D01*
X182550000Y-96600000D01*
X182483333Y-96566666D01*
X182350000Y-96566666D01*
X182283333Y-96600000D01*
X182250000Y-96633333D01*
X182216666Y-96700000D01*
X184000000Y-97700000D02*
X183966666Y-97733333D01*
X183866666Y-97766666D01*
X183800000Y-97766666D01*
X183700000Y-97733333D01*
X183633333Y-97666666D01*
X183600000Y-97600000D01*
X183566666Y-97466666D01*
X183566666Y-97366666D01*
X183600000Y-97233333D01*
X183633333Y-97166666D01*
X183700000Y-97100000D01*
X183800000Y-97066666D01*
X183866666Y-97066666D01*
X183966666Y-97100000D01*
X184000000Y-97133333D01*
X184233333Y-97066666D02*
X184666666Y-97066666D01*
X184433333Y-97333333D01*
X184533333Y-97333333D01*
X184600000Y-97366666D01*
X184633333Y-97400000D01*
X184666666Y-97466666D01*
X184666666Y-97633333D01*
X184633333Y-97700000D01*
X184600000Y-97733333D01*
X184533333Y-97766666D01*
X184333333Y-97766666D01*
X184266666Y-97733333D01*
X184233333Y-97700000D01*
X185066666Y-97366666D02*
X185000000Y-97333333D01*
X184966666Y-97300000D01*
X184933333Y-97233333D01*
X184933333Y-97200000D01*
X184966666Y-97133333D01*
X185000000Y-97100000D01*
X185066666Y-97066666D01*
X185200000Y-97066666D01*
X185266666Y-97100000D01*
X185300000Y-97133333D01*
X185333333Y-97200000D01*
X185333333Y-97233333D01*
X185300000Y-97300000D01*
X185266666Y-97333333D01*
X185200000Y-97366666D01*
X185066666Y-97366666D01*
X185000000Y-97400000D01*
X184966666Y-97433333D01*
X184933333Y-97500000D01*
X184933333Y-97633333D01*
X184966666Y-97700000D01*
X185000000Y-97733333D01*
X185066666Y-97766666D01*
X185200000Y-97766666D01*
X185266666Y-97733333D01*
X185300000Y-97700000D01*
X185333333Y-97633333D01*
X185333333Y-97500000D01*
X185300000Y-97433333D01*
X185266666Y-97400000D01*
X185200000Y-97366666D01*
X164183333Y-110716666D02*
X164183333Y-110016666D01*
X164350000Y-110016666D01*
X164450000Y-110050000D01*
X164516666Y-110116666D01*
X164550000Y-110183333D01*
X164583333Y-110316666D01*
X164583333Y-110416666D01*
X164550000Y-110550000D01*
X164516666Y-110616666D01*
X164450000Y-110683333D01*
X164350000Y-110716666D01*
X164183333Y-110716666D01*
X164983333Y-110316666D02*
X164916666Y-110283333D01*
X164883333Y-110250000D01*
X164850000Y-110183333D01*
X164850000Y-110150000D01*
X164883333Y-110083333D01*
X164916666Y-110050000D01*
X164983333Y-110016666D01*
X165116666Y-110016666D01*
X165183333Y-110050000D01*
X165216666Y-110083333D01*
X165250000Y-110150000D01*
X165250000Y-110183333D01*
X165216666Y-110250000D01*
X165183333Y-110283333D01*
X165116666Y-110316666D01*
X164983333Y-110316666D01*
X164916666Y-110350000D01*
X164883333Y-110383333D01*
X164850000Y-110450000D01*
X164850000Y-110583333D01*
X164883333Y-110650000D01*
X164916666Y-110683333D01*
X164983333Y-110716666D01*
X165116666Y-110716666D01*
X165183333Y-110683333D01*
X165216666Y-110650000D01*
X165250000Y-110583333D01*
X165250000Y-110450000D01*
X165216666Y-110383333D01*
X165183333Y-110350000D01*
X165116666Y-110316666D01*
X182550000Y-95850000D02*
X182583333Y-95883333D01*
X182616666Y-95983333D01*
X182616666Y-96050000D01*
X182583333Y-96150000D01*
X182516666Y-96216666D01*
X182450000Y-96250000D01*
X182316666Y-96283333D01*
X182216666Y-96283333D01*
X182083333Y-96250000D01*
X182016666Y-96216666D01*
X181950000Y-96150000D01*
X181916666Y-96050000D01*
X181916666Y-95983333D01*
X181950000Y-95883333D01*
X181983333Y-95850000D01*
X182150000Y-95250000D02*
X182616666Y-95250000D01*
X181883333Y-95416666D02*
X182383333Y-95583333D01*
X182383333Y-95150000D01*
X182616666Y-94516666D02*
X182616666Y-94916666D01*
X182616666Y-94716666D02*
X181916666Y-94716666D01*
X182016666Y-94783333D01*
X182083333Y-94850000D01*
X182116666Y-94916666D01*
X184000000Y-95650000D02*
X183966666Y-95683333D01*
X183866666Y-95716666D01*
X183800000Y-95716666D01*
X183700000Y-95683333D01*
X183633333Y-95616666D01*
X183600000Y-95550000D01*
X183566666Y-95416666D01*
X183566666Y-95316666D01*
X183600000Y-95183333D01*
X183633333Y-95116666D01*
X183700000Y-95050000D01*
X183800000Y-95016666D01*
X183866666Y-95016666D01*
X183966666Y-95050000D01*
X184000000Y-95083333D01*
X184600000Y-95250000D02*
X184600000Y-95716666D01*
X184433333Y-94983333D02*
X184266666Y-95483333D01*
X184700000Y-95483333D01*
X185333333Y-95716666D02*
X184933333Y-95716666D01*
X185133333Y-95716666D02*
X185133333Y-95016666D01*
X185066666Y-95116666D01*
X185000000Y-95183333D01*
X184933333Y-95216666D01*
X186770000Y-64140000D02*
X186736666Y-64173333D01*
X186636666Y-64206666D01*
X186570000Y-64206666D01*
X186470000Y-64173333D01*
X186403333Y-64106666D01*
X186370000Y-64040000D01*
X186336666Y-63906666D01*
X186336666Y-63806666D01*
X186370000Y-63673333D01*
X186403333Y-63606666D01*
X186470000Y-63540000D01*
X186570000Y-63506666D01*
X186636666Y-63506666D01*
X186736666Y-63540000D01*
X186770000Y-63573333D01*
X187370000Y-63740000D02*
X187370000Y-64206666D01*
X187203333Y-63473333D02*
X187036666Y-63973333D01*
X187470000Y-63973333D01*
X187836666Y-63806666D02*
X187770000Y-63773333D01*
X187736666Y-63740000D01*
X187703333Y-63673333D01*
X187703333Y-63640000D01*
X187736666Y-63573333D01*
X187770000Y-63540000D01*
X187836666Y-63506666D01*
X187970000Y-63506666D01*
X188036666Y-63540000D01*
X188070000Y-63573333D01*
X188103333Y-63640000D01*
X188103333Y-63673333D01*
X188070000Y-63740000D01*
X188036666Y-63773333D01*
X187970000Y-63806666D01*
X187836666Y-63806666D01*
X187770000Y-63840000D01*
X187736666Y-63873333D01*
X187703333Y-63940000D01*
X187703333Y-64073333D01*
X187736666Y-64140000D01*
X187770000Y-64173333D01*
X187836666Y-64206666D01*
X187970000Y-64206666D01*
X188036666Y-64173333D01*
X188070000Y-64140000D01*
X188103333Y-64073333D01*
X188103333Y-63940000D01*
X188070000Y-63873333D01*
X188036666Y-63840000D01*
X187970000Y-63806666D01*
X186750000Y-65280000D02*
X186716666Y-65313333D01*
X186616666Y-65346666D01*
X186550000Y-65346666D01*
X186450000Y-65313333D01*
X186383333Y-65246666D01*
X186350000Y-65180000D01*
X186316666Y-65046666D01*
X186316666Y-64946666D01*
X186350000Y-64813333D01*
X186383333Y-64746666D01*
X186450000Y-64680000D01*
X186550000Y-64646666D01*
X186616666Y-64646666D01*
X186716666Y-64680000D01*
X186750000Y-64713333D01*
X187350000Y-64880000D02*
X187350000Y-65346666D01*
X187183333Y-64613333D02*
X187016666Y-65113333D01*
X187450000Y-65113333D01*
X187816666Y-64946666D02*
X187750000Y-64913333D01*
X187716666Y-64880000D01*
X187683333Y-64813333D01*
X187683333Y-64780000D01*
X187716666Y-64713333D01*
X187750000Y-64680000D01*
X187816666Y-64646666D01*
X187950000Y-64646666D01*
X188016666Y-64680000D01*
X188050000Y-64713333D01*
X188083333Y-64780000D01*
X188083333Y-64813333D01*
X188050000Y-64880000D01*
X188016666Y-64913333D01*
X187950000Y-64946666D01*
X187816666Y-64946666D01*
X187750000Y-64980000D01*
X187716666Y-65013333D01*
X187683333Y-65080000D01*
X187683333Y-65213333D01*
X187716666Y-65280000D01*
X187750000Y-65313333D01*
X187816666Y-65346666D01*
X187950000Y-65346666D01*
X188016666Y-65313333D01*
X188050000Y-65280000D01*
X188083333Y-65213333D01*
X188083333Y-65080000D01*
X188050000Y-65013333D01*
X188016666Y-64980000D01*
X187950000Y-64946666D01*
X133416666Y-71566666D02*
X133083333Y-71800000D01*
X133416666Y-71966666D02*
X132716666Y-71966666D01*
X132716666Y-71700000D01*
X132750000Y-71633333D01*
X132783333Y-71600000D01*
X132850000Y-71566666D01*
X132950000Y-71566666D01*
X133016666Y-71600000D01*
X133050000Y-71633333D01*
X133083333Y-71700000D01*
X133083333Y-71966666D01*
X133416666Y-71233333D02*
X133416666Y-71100000D01*
X133383333Y-71033333D01*
X133350000Y-71000000D01*
X133250000Y-70933333D01*
X133116666Y-70900000D01*
X132850000Y-70900000D01*
X132783333Y-70933333D01*
X132750000Y-70966666D01*
X132716666Y-71033333D01*
X132716666Y-71166666D01*
X132750000Y-71233333D01*
X132783333Y-71266666D01*
X132850000Y-71300000D01*
X133016666Y-71300000D01*
X133083333Y-71266666D01*
X133116666Y-71233333D01*
X133150000Y-71166666D01*
X133150000Y-71033333D01*
X133116666Y-70966666D01*
X133083333Y-70933333D01*
X133016666Y-70900000D01*
X134933333Y-71716666D02*
X134700000Y-71383333D01*
X134533333Y-71716666D02*
X134533333Y-71016666D01*
X134800000Y-71016666D01*
X134866666Y-71050000D01*
X134900000Y-71083333D01*
X134933333Y-71150000D01*
X134933333Y-71250000D01*
X134900000Y-71316666D01*
X134866666Y-71350000D01*
X134800000Y-71383333D01*
X134533333Y-71383333D01*
X135266666Y-71716666D02*
X135400000Y-71716666D01*
X135466666Y-71683333D01*
X135500000Y-71650000D01*
X135566666Y-71550000D01*
X135600000Y-71416666D01*
X135600000Y-71150000D01*
X135566666Y-71083333D01*
X135533333Y-71050000D01*
X135466666Y-71016666D01*
X135333333Y-71016666D01*
X135266666Y-71050000D01*
X135233333Y-71083333D01*
X135200000Y-71150000D01*
X135200000Y-71316666D01*
X135233333Y-71383333D01*
X135266666Y-71416666D01*
X135333333Y-71450000D01*
X135466666Y-71450000D01*
X135533333Y-71416666D01*
X135566666Y-71383333D01*
X135600000Y-71316666D01*
X180040000Y-77266666D02*
X179806666Y-76933333D01*
X179640000Y-77266666D02*
X179640000Y-76566666D01*
X179906666Y-76566666D01*
X179973333Y-76600000D01*
X180006666Y-76633333D01*
X180040000Y-76700000D01*
X180040000Y-76800000D01*
X180006666Y-76866666D01*
X179973333Y-76900000D01*
X179906666Y-76933333D01*
X179640000Y-76933333D01*
X180706666Y-77266666D02*
X180306666Y-77266666D01*
X180506666Y-77266666D02*
X180506666Y-76566666D01*
X180440000Y-76666666D01*
X180373333Y-76733333D01*
X180306666Y-76766666D01*
X180940000Y-76566666D02*
X181406666Y-76566666D01*
X181106666Y-77266666D01*
X180040000Y-78476666D02*
X179806666Y-78143333D01*
X179640000Y-78476666D02*
X179640000Y-77776666D01*
X179906666Y-77776666D01*
X179973333Y-77810000D01*
X180006666Y-77843333D01*
X180040000Y-77910000D01*
X180040000Y-78010000D01*
X180006666Y-78076666D01*
X179973333Y-78110000D01*
X179906666Y-78143333D01*
X179640000Y-78143333D01*
X180706666Y-78476666D02*
X180306666Y-78476666D01*
X180506666Y-78476666D02*
X180506666Y-77776666D01*
X180440000Y-77876666D01*
X180373333Y-77943333D01*
X180306666Y-77976666D01*
X180940000Y-77776666D02*
X181406666Y-77776666D01*
X181106666Y-78476666D01*
X160250000Y-95835000D02*
X160283333Y-95868333D01*
X160316666Y-95968333D01*
X160316666Y-96035000D01*
X160283333Y-96135000D01*
X160216666Y-96201666D01*
X160150000Y-96235000D01*
X160016666Y-96268333D01*
X159916666Y-96268333D01*
X159783333Y-96235000D01*
X159716666Y-96201666D01*
X159650000Y-96135000D01*
X159616666Y-96035000D01*
X159616666Y-95968333D01*
X159650000Y-95868333D01*
X159683333Y-95835000D01*
X159850000Y-95235000D02*
X160316666Y-95235000D01*
X159583333Y-95401666D02*
X160083333Y-95568333D01*
X160083333Y-95135000D01*
X159616666Y-94535000D02*
X159616666Y-94868333D01*
X159950000Y-94901666D01*
X159916666Y-94868333D01*
X159883333Y-94801666D01*
X159883333Y-94635000D01*
X159916666Y-94568333D01*
X159950000Y-94535000D01*
X160016666Y-94501666D01*
X160183333Y-94501666D01*
X160250000Y-94535000D01*
X160283333Y-94568333D01*
X160316666Y-94635000D01*
X160316666Y-94801666D01*
X160283333Y-94868333D01*
X160250000Y-94901666D01*
X164500000Y-92750000D02*
X164466666Y-92783333D01*
X164366666Y-92816666D01*
X164300000Y-92816666D01*
X164200000Y-92783333D01*
X164133333Y-92716666D01*
X164100000Y-92650000D01*
X164066666Y-92516666D01*
X164066666Y-92416666D01*
X164100000Y-92283333D01*
X164133333Y-92216666D01*
X164200000Y-92150000D01*
X164300000Y-92116666D01*
X164366666Y-92116666D01*
X164466666Y-92150000D01*
X164500000Y-92183333D01*
X165100000Y-92350000D02*
X165100000Y-92816666D01*
X164933333Y-92083333D02*
X164766666Y-92583333D01*
X165200000Y-92583333D01*
X165800000Y-92116666D02*
X165466666Y-92116666D01*
X165433333Y-92450000D01*
X165466666Y-92416666D01*
X165533333Y-92383333D01*
X165700000Y-92383333D01*
X165766666Y-92416666D01*
X165800000Y-92450000D01*
X165833333Y-92516666D01*
X165833333Y-92683333D01*
X165800000Y-92750000D01*
X165766666Y-92783333D01*
X165700000Y-92816666D01*
X165533333Y-92816666D01*
X165466666Y-92783333D01*
X165433333Y-92750000D01*
X171520000Y-78220000D02*
X171486666Y-78253333D01*
X171386666Y-78286666D01*
X171320000Y-78286666D01*
X171220000Y-78253333D01*
X171153333Y-78186666D01*
X171120000Y-78120000D01*
X171086666Y-77986666D01*
X171086666Y-77886666D01*
X171120000Y-77753333D01*
X171153333Y-77686666D01*
X171220000Y-77620000D01*
X171320000Y-77586666D01*
X171386666Y-77586666D01*
X171486666Y-77620000D01*
X171520000Y-77653333D01*
X172120000Y-77820000D02*
X172120000Y-78286666D01*
X171953333Y-77553333D02*
X171786666Y-78053333D01*
X172220000Y-78053333D01*
X172453333Y-77653333D02*
X172486666Y-77620000D01*
X172553333Y-77586666D01*
X172720000Y-77586666D01*
X172786666Y-77620000D01*
X172820000Y-77653333D01*
X172853333Y-77720000D01*
X172853333Y-77786666D01*
X172820000Y-77886666D01*
X172420000Y-78286666D01*
X172853333Y-78286666D01*
X174870380Y-83357990D02*
X174903713Y-83391323D01*
X174937046Y-83491323D01*
X174937046Y-83557990D01*
X174903713Y-83657990D01*
X174837046Y-83724656D01*
X174770380Y-83757990D01*
X174637046Y-83791323D01*
X174537046Y-83791323D01*
X174403713Y-83757990D01*
X174337046Y-83724656D01*
X174270380Y-83657990D01*
X174237046Y-83557990D01*
X174237046Y-83491323D01*
X174270380Y-83391323D01*
X174303713Y-83357990D01*
X174470380Y-82757990D02*
X174937046Y-82757990D01*
X174203713Y-82924656D02*
X174703713Y-83091323D01*
X174703713Y-82657990D01*
X174303713Y-82424656D02*
X174270380Y-82391323D01*
X174237046Y-82324656D01*
X174237046Y-82157990D01*
X174270380Y-82091323D01*
X174303713Y-82057990D01*
X174370380Y-82024656D01*
X174437046Y-82024656D01*
X174537046Y-82057990D01*
X174937046Y-82457990D01*
X174937046Y-82024656D01*
D13*
X135215333Y-104846380D02*
X134882000Y-104370190D01*
X134643904Y-104846380D02*
X134643904Y-103846380D01*
X135024857Y-103846380D01*
X135120095Y-103894000D01*
X135167714Y-103941619D01*
X135215333Y-104036857D01*
X135215333Y-104179714D01*
X135167714Y-104274952D01*
X135120095Y-104322571D01*
X135024857Y-104370190D01*
X134643904Y-104370190D01*
X136120095Y-103846380D02*
X135643904Y-103846380D01*
X135596285Y-104322571D01*
X135643904Y-104274952D01*
X135739142Y-104227333D01*
X135977238Y-104227333D01*
X136072476Y-104274952D01*
X136120095Y-104322571D01*
X136167714Y-104417809D01*
X136167714Y-104655904D01*
X136120095Y-104751142D01*
X136072476Y-104798761D01*
X135977238Y-104846380D01*
X135739142Y-104846380D01*
X135643904Y-104798761D01*
X135596285Y-104751142D01*
D16*
X133150000Y-105766666D02*
X133183333Y-105800000D01*
X133216666Y-105900000D01*
X133216666Y-105966666D01*
X133183333Y-106066666D01*
X133116666Y-106133333D01*
X133050000Y-106166666D01*
X132916666Y-106200000D01*
X132816666Y-106200000D01*
X132683333Y-106166666D01*
X132616666Y-106133333D01*
X132550000Y-106066666D01*
X132516666Y-105966666D01*
X132516666Y-105900000D01*
X132550000Y-105800000D01*
X132583333Y-105766666D01*
X133216666Y-105100000D02*
X133216666Y-105500000D01*
X133216666Y-105300000D02*
X132516666Y-105300000D01*
X132616666Y-105366666D01*
X132683333Y-105433333D01*
X132716666Y-105500000D01*
X131600000Y-105866666D02*
X131633333Y-105900000D01*
X131666666Y-106000000D01*
X131666666Y-106066666D01*
X131633333Y-106166666D01*
X131566666Y-106233333D01*
X131500000Y-106266666D01*
X131366666Y-106300000D01*
X131266666Y-106300000D01*
X131133333Y-106266666D01*
X131066666Y-106233333D01*
X131000000Y-106166666D01*
X130966666Y-106066666D01*
X130966666Y-106000000D01*
X131000000Y-105900000D01*
X131033333Y-105866666D01*
X131666666Y-105200000D02*
X131666666Y-105600000D01*
X131666666Y-105400000D02*
X130966666Y-105400000D01*
X131066666Y-105466666D01*
X131133333Y-105533333D01*
X131166666Y-105600000D01*
X193740000Y-92170000D02*
X193773333Y-92203333D01*
X193806666Y-92303333D01*
X193806666Y-92370000D01*
X193773333Y-92470000D01*
X193706666Y-92536666D01*
X193640000Y-92570000D01*
X193506666Y-92603333D01*
X193406666Y-92603333D01*
X193273333Y-92570000D01*
X193206666Y-92536666D01*
X193140000Y-92470000D01*
X193106666Y-92370000D01*
X193106666Y-92303333D01*
X193140000Y-92203333D01*
X193173333Y-92170000D01*
X193106666Y-91936666D02*
X193106666Y-91503333D01*
X193373333Y-91736666D01*
X193373333Y-91636666D01*
X193406666Y-91570000D01*
X193440000Y-91536666D01*
X193506666Y-91503333D01*
X193673333Y-91503333D01*
X193740000Y-91536666D01*
X193773333Y-91570000D01*
X193806666Y-91636666D01*
X193806666Y-91836666D01*
X193773333Y-91903333D01*
X193740000Y-91936666D01*
X193173333Y-91236666D02*
X193140000Y-91203333D01*
X193106666Y-91136666D01*
X193106666Y-90970000D01*
X193140000Y-90903333D01*
X193173333Y-90870000D01*
X193240000Y-90836666D01*
X193306666Y-90836666D01*
X193406666Y-90870000D01*
X193806666Y-91270000D01*
X193806666Y-90836666D01*
X195050000Y-92185000D02*
X195083333Y-92218333D01*
X195116666Y-92318333D01*
X195116666Y-92385000D01*
X195083333Y-92485000D01*
X195016666Y-92551666D01*
X194950000Y-92585000D01*
X194816666Y-92618333D01*
X194716666Y-92618333D01*
X194583333Y-92585000D01*
X194516666Y-92551666D01*
X194450000Y-92485000D01*
X194416666Y-92385000D01*
X194416666Y-92318333D01*
X194450000Y-92218333D01*
X194483333Y-92185000D01*
X194416666Y-91951666D02*
X194416666Y-91518333D01*
X194683333Y-91751666D01*
X194683333Y-91651666D01*
X194716666Y-91585000D01*
X194750000Y-91551666D01*
X194816666Y-91518333D01*
X194983333Y-91518333D01*
X195050000Y-91551666D01*
X195083333Y-91585000D01*
X195116666Y-91651666D01*
X195116666Y-91851666D01*
X195083333Y-91918333D01*
X195050000Y-91951666D01*
X194483333Y-91251666D02*
X194450000Y-91218333D01*
X194416666Y-91151666D01*
X194416666Y-90985000D01*
X194450000Y-90918333D01*
X194483333Y-90885000D01*
X194550000Y-90851666D01*
X194616666Y-90851666D01*
X194716666Y-90885000D01*
X195116666Y-91285000D01*
X195116666Y-90851666D01*
D13*
X138771333Y-104846380D02*
X138438000Y-104370190D01*
X138199904Y-104846380D02*
X138199904Y-103846380D01*
X138580857Y-103846380D01*
X138676095Y-103894000D01*
X138723714Y-103941619D01*
X138771333Y-104036857D01*
X138771333Y-104179714D01*
X138723714Y-104274952D01*
X138676095Y-104322571D01*
X138580857Y-104370190D01*
X138199904Y-104370190D01*
X139104666Y-103846380D02*
X139723714Y-103846380D01*
X139390380Y-104227333D01*
X139533238Y-104227333D01*
X139628476Y-104274952D01*
X139676095Y-104322571D01*
X139723714Y-104417809D01*
X139723714Y-104655904D01*
X139676095Y-104751142D01*
X139628476Y-104798761D01*
X139533238Y-104846380D01*
X139247523Y-104846380D01*
X139152285Y-104798761D01*
X139104666Y-104751142D01*
D16*
X197860000Y-94920000D02*
X197893333Y-94953333D01*
X197926666Y-95053333D01*
X197926666Y-95120000D01*
X197893333Y-95220000D01*
X197826666Y-95286666D01*
X197760000Y-95320000D01*
X197626666Y-95353333D01*
X197526666Y-95353333D01*
X197393333Y-95320000D01*
X197326666Y-95286666D01*
X197260000Y-95220000D01*
X197226666Y-95120000D01*
X197226666Y-95053333D01*
X197260000Y-94953333D01*
X197293333Y-94920000D01*
X197226666Y-94686666D02*
X197226666Y-94253333D01*
X197493333Y-94486666D01*
X197493333Y-94386666D01*
X197526666Y-94320000D01*
X197560000Y-94286666D01*
X197626666Y-94253333D01*
X197793333Y-94253333D01*
X197860000Y-94286666D01*
X197893333Y-94320000D01*
X197926666Y-94386666D01*
X197926666Y-94586666D01*
X197893333Y-94653333D01*
X197860000Y-94686666D01*
X197926666Y-93586666D02*
X197926666Y-93986666D01*
X197926666Y-93786666D02*
X197226666Y-93786666D01*
X197326666Y-93853333D01*
X197393333Y-93920000D01*
X197426666Y-93986666D01*
X196790000Y-92370000D02*
X196823333Y-92403333D01*
X196856666Y-92503333D01*
X196856666Y-92570000D01*
X196823333Y-92670000D01*
X196756666Y-92736666D01*
X196690000Y-92770000D01*
X196556666Y-92803333D01*
X196456666Y-92803333D01*
X196323333Y-92770000D01*
X196256666Y-92736666D01*
X196190000Y-92670000D01*
X196156666Y-92570000D01*
X196156666Y-92503333D01*
X196190000Y-92403333D01*
X196223333Y-92370000D01*
X196156666Y-92136666D02*
X196156666Y-91703333D01*
X196423333Y-91936666D01*
X196423333Y-91836666D01*
X196456666Y-91770000D01*
X196490000Y-91736666D01*
X196556666Y-91703333D01*
X196723333Y-91703333D01*
X196790000Y-91736666D01*
X196823333Y-91770000D01*
X196856666Y-91836666D01*
X196856666Y-92036666D01*
X196823333Y-92103333D01*
X196790000Y-92136666D01*
X196856666Y-91036666D02*
X196856666Y-91436666D01*
X196856666Y-91236666D02*
X196156666Y-91236666D01*
X196256666Y-91303333D01*
X196323333Y-91370000D01*
X196356666Y-91436666D01*
X193490000Y-80180000D02*
X193523333Y-80213333D01*
X193556666Y-80313333D01*
X193556666Y-80380000D01*
X193523333Y-80480000D01*
X193456666Y-80546666D01*
X193390000Y-80580000D01*
X193256666Y-80613333D01*
X193156666Y-80613333D01*
X193023333Y-80580000D01*
X192956666Y-80546666D01*
X192890000Y-80480000D01*
X192856666Y-80380000D01*
X192856666Y-80313333D01*
X192890000Y-80213333D01*
X192923333Y-80180000D01*
X192923333Y-79913333D02*
X192890000Y-79880000D01*
X192856666Y-79813333D01*
X192856666Y-79646666D01*
X192890000Y-79580000D01*
X192923333Y-79546666D01*
X192990000Y-79513333D01*
X193056666Y-79513333D01*
X193156666Y-79546666D01*
X193556666Y-79946666D01*
X193556666Y-79513333D01*
X193090000Y-78913333D02*
X193556666Y-78913333D01*
X192823333Y-79080000D02*
X193323333Y-79246666D01*
X193323333Y-78813333D01*
X193710000Y-82720000D02*
X193743333Y-82753333D01*
X193776666Y-82853333D01*
X193776666Y-82920000D01*
X193743333Y-83020000D01*
X193676666Y-83086666D01*
X193610000Y-83120000D01*
X193476666Y-83153333D01*
X193376666Y-83153333D01*
X193243333Y-83120000D01*
X193176666Y-83086666D01*
X193110000Y-83020000D01*
X193076666Y-82920000D01*
X193076666Y-82853333D01*
X193110000Y-82753333D01*
X193143333Y-82720000D01*
X193143333Y-82453333D02*
X193110000Y-82420000D01*
X193076666Y-82353333D01*
X193076666Y-82186666D01*
X193110000Y-82120000D01*
X193143333Y-82086666D01*
X193210000Y-82053333D01*
X193276666Y-82053333D01*
X193376666Y-82086666D01*
X193776666Y-82486666D01*
X193776666Y-82053333D01*
X193310000Y-81453333D02*
X193776666Y-81453333D01*
X193043333Y-81620000D02*
X193543333Y-81786666D01*
X193543333Y-81353333D01*
X165491333Y-69592000D02*
X165458000Y-69625333D01*
X165358000Y-69658666D01*
X165291333Y-69658666D01*
X165191333Y-69625333D01*
X165124666Y-69558666D01*
X165091333Y-69492000D01*
X165058000Y-69358666D01*
X165058000Y-69258666D01*
X165091333Y-69125333D01*
X165124666Y-69058666D01*
X165191333Y-68992000D01*
X165291333Y-68958666D01*
X165358000Y-68958666D01*
X165458000Y-68992000D01*
X165491333Y-69025333D01*
X165724666Y-68958666D02*
X166191333Y-68958666D01*
X165891333Y-69658666D01*
X177316666Y-65816666D02*
X177316666Y-65116666D01*
X177316666Y-65450000D02*
X177716666Y-65450000D01*
X177716666Y-65816666D02*
X177716666Y-65116666D01*
X177983333Y-65116666D02*
X178416666Y-65116666D01*
X178183333Y-65383333D01*
X178283333Y-65383333D01*
X178350000Y-65416666D01*
X178383333Y-65450000D01*
X178416666Y-65516666D01*
X178416666Y-65683333D01*
X178383333Y-65750000D01*
X178350000Y-65783333D01*
X178283333Y-65816666D01*
X178083333Y-65816666D01*
X178016666Y-65783333D01*
X177983333Y-65750000D01*
X182550000Y-79500000D02*
X182583333Y-79533333D01*
X182616666Y-79633333D01*
X182616666Y-79700000D01*
X182583333Y-79800000D01*
X182516666Y-79866666D01*
X182450000Y-79900000D01*
X182316666Y-79933333D01*
X182216666Y-79933333D01*
X182083333Y-79900000D01*
X182016666Y-79866666D01*
X181950000Y-79800000D01*
X181916666Y-79700000D01*
X181916666Y-79633333D01*
X181950000Y-79533333D01*
X181983333Y-79500000D01*
X181983333Y-79233333D02*
X181950000Y-79200000D01*
X181916666Y-79133333D01*
X181916666Y-78966666D01*
X181950000Y-78900000D01*
X181983333Y-78866666D01*
X182050000Y-78833333D01*
X182116666Y-78833333D01*
X182216666Y-78866666D01*
X182616666Y-79266666D01*
X182616666Y-78833333D01*
X182616666Y-78166666D02*
X182616666Y-78566666D01*
X182616666Y-78366666D02*
X181916666Y-78366666D01*
X182016666Y-78433333D01*
X182083333Y-78500000D01*
X182116666Y-78566666D01*
X184000000Y-79300000D02*
X183966666Y-79333333D01*
X183866666Y-79366666D01*
X183800000Y-79366666D01*
X183700000Y-79333333D01*
X183633333Y-79266666D01*
X183600000Y-79200000D01*
X183566666Y-79066666D01*
X183566666Y-78966666D01*
X183600000Y-78833333D01*
X183633333Y-78766666D01*
X183700000Y-78700000D01*
X183800000Y-78666666D01*
X183866666Y-78666666D01*
X183966666Y-78700000D01*
X184000000Y-78733333D01*
X184266666Y-78733333D02*
X184300000Y-78700000D01*
X184366666Y-78666666D01*
X184533333Y-78666666D01*
X184600000Y-78700000D01*
X184633333Y-78733333D01*
X184666666Y-78800000D01*
X184666666Y-78866666D01*
X184633333Y-78966666D01*
X184233333Y-79366666D01*
X184666666Y-79366666D01*
X185333333Y-79366666D02*
X184933333Y-79366666D01*
X185133333Y-79366666D02*
X185133333Y-78666666D01*
X185066666Y-78766666D01*
X185000000Y-78833333D01*
X184933333Y-78866666D01*
X195210000Y-80140000D02*
X195243333Y-80173333D01*
X195276666Y-80273333D01*
X195276666Y-80340000D01*
X195243333Y-80440000D01*
X195176666Y-80506666D01*
X195110000Y-80540000D01*
X194976666Y-80573333D01*
X194876666Y-80573333D01*
X194743333Y-80540000D01*
X194676666Y-80506666D01*
X194610000Y-80440000D01*
X194576666Y-80340000D01*
X194576666Y-80273333D01*
X194610000Y-80173333D01*
X194643333Y-80140000D01*
X194643333Y-79873333D02*
X194610000Y-79840000D01*
X194576666Y-79773333D01*
X194576666Y-79606666D01*
X194610000Y-79540000D01*
X194643333Y-79506666D01*
X194710000Y-79473333D01*
X194776666Y-79473333D01*
X194876666Y-79506666D01*
X195276666Y-79906666D01*
X195276666Y-79473333D01*
X194576666Y-79240000D02*
X194576666Y-78806666D01*
X194843333Y-79040000D01*
X194843333Y-78940000D01*
X194876666Y-78873333D01*
X194910000Y-78840000D01*
X194976666Y-78806666D01*
X195143333Y-78806666D01*
X195210000Y-78840000D01*
X195243333Y-78873333D01*
X195276666Y-78940000D01*
X195276666Y-79140000D01*
X195243333Y-79206666D01*
X195210000Y-79240000D01*
X195250000Y-82735000D02*
X195283333Y-82768333D01*
X195316666Y-82868333D01*
X195316666Y-82935000D01*
X195283333Y-83035000D01*
X195216666Y-83101666D01*
X195150000Y-83135000D01*
X195016666Y-83168333D01*
X194916666Y-83168333D01*
X194783333Y-83135000D01*
X194716666Y-83101666D01*
X194650000Y-83035000D01*
X194616666Y-82935000D01*
X194616666Y-82868333D01*
X194650000Y-82768333D01*
X194683333Y-82735000D01*
X194683333Y-82468333D02*
X194650000Y-82435000D01*
X194616666Y-82368333D01*
X194616666Y-82201666D01*
X194650000Y-82135000D01*
X194683333Y-82101666D01*
X194750000Y-82068333D01*
X194816666Y-82068333D01*
X194916666Y-82101666D01*
X195316666Y-82501666D01*
X195316666Y-82068333D01*
X194616666Y-81835000D02*
X194616666Y-81401666D01*
X194883333Y-81635000D01*
X194883333Y-81535000D01*
X194916666Y-81468333D01*
X194950000Y-81435000D01*
X195016666Y-81401666D01*
X195183333Y-81401666D01*
X195250000Y-81435000D01*
X195283333Y-81468333D01*
X195316666Y-81535000D01*
X195316666Y-81735000D01*
X195283333Y-81801666D01*
X195250000Y-81835000D01*
X186920000Y-99870000D02*
X186886666Y-99903333D01*
X186786666Y-99936666D01*
X186720000Y-99936666D01*
X186620000Y-99903333D01*
X186553333Y-99836666D01*
X186520000Y-99770000D01*
X186486666Y-99636666D01*
X186486666Y-99536666D01*
X186520000Y-99403333D01*
X186553333Y-99336666D01*
X186620000Y-99270000D01*
X186720000Y-99236666D01*
X186786666Y-99236666D01*
X186886666Y-99270000D01*
X186920000Y-99303333D01*
X187153333Y-99236666D02*
X187586666Y-99236666D01*
X187353333Y-99503333D01*
X187453333Y-99503333D01*
X187520000Y-99536666D01*
X187553333Y-99570000D01*
X187586666Y-99636666D01*
X187586666Y-99803333D01*
X187553333Y-99870000D01*
X187520000Y-99903333D01*
X187453333Y-99936666D01*
X187253333Y-99936666D01*
X187186666Y-99903333D01*
X187153333Y-99870000D01*
X187920000Y-99936666D02*
X188053333Y-99936666D01*
X188120000Y-99903333D01*
X188153333Y-99870000D01*
X188220000Y-99770000D01*
X188253333Y-99636666D01*
X188253333Y-99370000D01*
X188220000Y-99303333D01*
X188186666Y-99270000D01*
X188120000Y-99236666D01*
X187986666Y-99236666D01*
X187920000Y-99270000D01*
X187886666Y-99303333D01*
X187853333Y-99370000D01*
X187853333Y-99536666D01*
X187886666Y-99603333D01*
X187920000Y-99636666D01*
X187986666Y-99670000D01*
X188120000Y-99670000D01*
X188186666Y-99636666D01*
X188220000Y-99603333D01*
X188253333Y-99536666D01*
X187540000Y-97160000D02*
X187573333Y-97193333D01*
X187606666Y-97293333D01*
X187606666Y-97360000D01*
X187573333Y-97460000D01*
X187506666Y-97526666D01*
X187440000Y-97560000D01*
X187306666Y-97593333D01*
X187206666Y-97593333D01*
X187073333Y-97560000D01*
X187006666Y-97526666D01*
X186940000Y-97460000D01*
X186906666Y-97360000D01*
X186906666Y-97293333D01*
X186940000Y-97193333D01*
X186973333Y-97160000D01*
X186906666Y-96926666D02*
X186906666Y-96493333D01*
X187173333Y-96726666D01*
X187173333Y-96626666D01*
X187206666Y-96560000D01*
X187240000Y-96526666D01*
X187306666Y-96493333D01*
X187473333Y-96493333D01*
X187540000Y-96526666D01*
X187573333Y-96560000D01*
X187606666Y-96626666D01*
X187606666Y-96826666D01*
X187573333Y-96893333D01*
X187540000Y-96926666D01*
X187606666Y-96160000D02*
X187606666Y-96026666D01*
X187573333Y-95960000D01*
X187540000Y-95926666D01*
X187440000Y-95860000D01*
X187306666Y-95826666D01*
X187040000Y-95826666D01*
X186973333Y-95860000D01*
X186940000Y-95893333D01*
X186906666Y-95960000D01*
X186906666Y-96093333D01*
X186940000Y-96160000D01*
X186973333Y-96193333D01*
X187040000Y-96226666D01*
X187206666Y-96226666D01*
X187273333Y-96193333D01*
X187306666Y-96160000D01*
X187340000Y-96093333D01*
X187340000Y-95960000D01*
X187306666Y-95893333D01*
X187273333Y-95860000D01*
X187206666Y-95826666D01*
X192840000Y-84830000D02*
X192806666Y-84863333D01*
X192706666Y-84896666D01*
X192640000Y-84896666D01*
X192540000Y-84863333D01*
X192473333Y-84796666D01*
X192440000Y-84730000D01*
X192406666Y-84596666D01*
X192406666Y-84496666D01*
X192440000Y-84363333D01*
X192473333Y-84296666D01*
X192540000Y-84230000D01*
X192640000Y-84196666D01*
X192706666Y-84196666D01*
X192806666Y-84230000D01*
X192840000Y-84263333D01*
X193106666Y-84263333D02*
X193140000Y-84230000D01*
X193206666Y-84196666D01*
X193373333Y-84196666D01*
X193440000Y-84230000D01*
X193473333Y-84263333D01*
X193506666Y-84330000D01*
X193506666Y-84396666D01*
X193473333Y-84496666D01*
X193073333Y-84896666D01*
X193506666Y-84896666D01*
X193740000Y-84196666D02*
X194206666Y-84196666D01*
X193906666Y-84896666D01*
X195465000Y-84800000D02*
X195431666Y-84833333D01*
X195331666Y-84866666D01*
X195265000Y-84866666D01*
X195165000Y-84833333D01*
X195098333Y-84766666D01*
X195065000Y-84700000D01*
X195031666Y-84566666D01*
X195031666Y-84466666D01*
X195065000Y-84333333D01*
X195098333Y-84266666D01*
X195165000Y-84200000D01*
X195265000Y-84166666D01*
X195331666Y-84166666D01*
X195431666Y-84200000D01*
X195465000Y-84233333D01*
X195731666Y-84233333D02*
X195765000Y-84200000D01*
X195831666Y-84166666D01*
X195998333Y-84166666D01*
X196065000Y-84200000D01*
X196098333Y-84233333D01*
X196131666Y-84300000D01*
X196131666Y-84366666D01*
X196098333Y-84466666D01*
X195698333Y-84866666D01*
X196131666Y-84866666D01*
X196365000Y-84166666D02*
X196831666Y-84166666D01*
X196531666Y-84866666D01*
X123004266Y-109198666D02*
X122304266Y-109198666D01*
X122304266Y-109032000D01*
X122337600Y-108932000D01*
X122404266Y-108865333D01*
X122470933Y-108832000D01*
X122604266Y-108798666D01*
X122704266Y-108798666D01*
X122837600Y-108832000D01*
X122904266Y-108865333D01*
X122970933Y-108932000D01*
X123004266Y-109032000D01*
X123004266Y-109198666D01*
X123004266Y-108132000D02*
X123004266Y-108532000D01*
X123004266Y-108332000D02*
X122304266Y-108332000D01*
X122404266Y-108398666D01*
X122470933Y-108465333D01*
X122504266Y-108532000D01*
X126133333Y-106966666D02*
X126133333Y-106266666D01*
X126300000Y-106266666D01*
X126400000Y-106300000D01*
X126466666Y-106366666D01*
X126500000Y-106433333D01*
X126533333Y-106566666D01*
X126533333Y-106666666D01*
X126500000Y-106800000D01*
X126466666Y-106866666D01*
X126400000Y-106933333D01*
X126300000Y-106966666D01*
X126133333Y-106966666D01*
X127200000Y-106966666D02*
X126800000Y-106966666D01*
X127000000Y-106966666D02*
X127000000Y-106266666D01*
X126933333Y-106366666D01*
X126866666Y-106433333D01*
X126800000Y-106466666D01*
D13*
X122785714Y-105502380D02*
X122214285Y-105502380D01*
X122500000Y-105502380D02*
X122500000Y-104502380D01*
X122404761Y-104645238D01*
X122309523Y-104740476D01*
X122214285Y-104788095D01*
D16*
X141926666Y-75276666D02*
X141226666Y-75276666D01*
X141226666Y-75110000D01*
X141260000Y-75010000D01*
X141326666Y-74943333D01*
X141393333Y-74910000D01*
X141526666Y-74876666D01*
X141626666Y-74876666D01*
X141760000Y-74910000D01*
X141826666Y-74943333D01*
X141893333Y-75010000D01*
X141926666Y-75110000D01*
X141926666Y-75276666D01*
X141226666Y-74643333D02*
X141226666Y-74210000D01*
X141493333Y-74443333D01*
X141493333Y-74343333D01*
X141526666Y-74276666D01*
X141560000Y-74243333D01*
X141626666Y-74210000D01*
X141793333Y-74210000D01*
X141860000Y-74243333D01*
X141893333Y-74276666D01*
X141926666Y-74343333D01*
X141926666Y-74543333D01*
X141893333Y-74610000D01*
X141860000Y-74643333D01*
X152766666Y-86466666D02*
X152766666Y-86800000D01*
X152066666Y-86800000D01*
X152066666Y-86300000D02*
X152066666Y-85866666D01*
X152333333Y-86100000D01*
X152333333Y-86000000D01*
X152366666Y-85933333D01*
X152400000Y-85900000D01*
X152466666Y-85866666D01*
X152633333Y-85866666D01*
X152700000Y-85900000D01*
X152733333Y-85933333D01*
X152766666Y-86000000D01*
X152766666Y-86200000D01*
X152733333Y-86266666D01*
X152700000Y-86300000D01*
X157650000Y-86550000D02*
X157616666Y-86583333D01*
X157516666Y-86616666D01*
X157450000Y-86616666D01*
X157350000Y-86583333D01*
X157283333Y-86516666D01*
X157250000Y-86450000D01*
X157216666Y-86316666D01*
X157216666Y-86216666D01*
X157250000Y-86083333D01*
X157283333Y-86016666D01*
X157350000Y-85950000D01*
X157450000Y-85916666D01*
X157516666Y-85916666D01*
X157616666Y-85950000D01*
X157650000Y-85983333D01*
X158283333Y-85916666D02*
X157950000Y-85916666D01*
X157916666Y-86250000D01*
X157950000Y-86216666D01*
X158016666Y-86183333D01*
X158183333Y-86183333D01*
X158250000Y-86216666D01*
X158283333Y-86250000D01*
X158316666Y-86316666D01*
X158316666Y-86483333D01*
X158283333Y-86550000D01*
X158250000Y-86583333D01*
X158183333Y-86616666D01*
X158016666Y-86616666D01*
X157950000Y-86583333D01*
X157916666Y-86550000D01*
X158983333Y-86616666D02*
X158583333Y-86616666D01*
X158783333Y-86616666D02*
X158783333Y-85916666D01*
X158716666Y-86016666D01*
X158650000Y-86083333D01*
X158583333Y-86116666D01*
X157575000Y-85100000D02*
X157541666Y-85133333D01*
X157441666Y-85166666D01*
X157375000Y-85166666D01*
X157275000Y-85133333D01*
X157208333Y-85066666D01*
X157175000Y-85000000D01*
X157141666Y-84866666D01*
X157141666Y-84766666D01*
X157175000Y-84633333D01*
X157208333Y-84566666D01*
X157275000Y-84500000D01*
X157375000Y-84466666D01*
X157441666Y-84466666D01*
X157541666Y-84500000D01*
X157575000Y-84533333D01*
X158208333Y-84466666D02*
X157875000Y-84466666D01*
X157841666Y-84800000D01*
X157875000Y-84766666D01*
X157941666Y-84733333D01*
X158108333Y-84733333D01*
X158175000Y-84766666D01*
X158208333Y-84800000D01*
X158241666Y-84866666D01*
X158241666Y-85033333D01*
X158208333Y-85100000D01*
X158175000Y-85133333D01*
X158108333Y-85166666D01*
X157941666Y-85166666D01*
X157875000Y-85133333D01*
X157841666Y-85100000D01*
X158908333Y-85166666D02*
X158508333Y-85166666D01*
X158708333Y-85166666D02*
X158708333Y-84466666D01*
X158641666Y-84566666D01*
X158575000Y-84633333D01*
X158508333Y-84666666D01*
X119416666Y-88864583D02*
X119983333Y-88864583D01*
X120050000Y-88831250D01*
X120083333Y-88797916D01*
X120116666Y-88731250D01*
X120116666Y-88597916D01*
X120083333Y-88531250D01*
X120050000Y-88497916D01*
X119983333Y-88464583D01*
X119416666Y-88464583D01*
X119416666Y-88197916D02*
X119416666Y-87764583D01*
X119683333Y-87997916D01*
X119683333Y-87897916D01*
X119716666Y-87831250D01*
X119750000Y-87797916D01*
X119816666Y-87764583D01*
X119983333Y-87764583D01*
X120050000Y-87797916D01*
X120083333Y-87831250D01*
X120116666Y-87897916D01*
X120116666Y-88097916D01*
X120083333Y-88164583D01*
X120050000Y-88197916D01*
X163459333Y-69592000D02*
X163426000Y-69625333D01*
X163326000Y-69658666D01*
X163259333Y-69658666D01*
X163159333Y-69625333D01*
X163092666Y-69558666D01*
X163059333Y-69492000D01*
X163026000Y-69358666D01*
X163026000Y-69258666D01*
X163059333Y-69125333D01*
X163092666Y-69058666D01*
X163159333Y-68992000D01*
X163259333Y-68958666D01*
X163326000Y-68958666D01*
X163426000Y-68992000D01*
X163459333Y-69025333D01*
X164059333Y-68958666D02*
X163926000Y-68958666D01*
X163859333Y-68992000D01*
X163826000Y-69025333D01*
X163759333Y-69125333D01*
X163726000Y-69258666D01*
X163726000Y-69525333D01*
X163759333Y-69592000D01*
X163792666Y-69625333D01*
X163859333Y-69658666D01*
X163992666Y-69658666D01*
X164059333Y-69625333D01*
X164092666Y-69592000D01*
X164126000Y-69525333D01*
X164126000Y-69358666D01*
X164092666Y-69292000D01*
X164059333Y-69258666D01*
X163992666Y-69225333D01*
X163859333Y-69225333D01*
X163792666Y-69258666D01*
X163759333Y-69292000D01*
X163726000Y-69358666D01*
X192865000Y-89540000D02*
X192831666Y-89573333D01*
X192731666Y-89606666D01*
X192665000Y-89606666D01*
X192565000Y-89573333D01*
X192498333Y-89506666D01*
X192465000Y-89440000D01*
X192431666Y-89306666D01*
X192431666Y-89206666D01*
X192465000Y-89073333D01*
X192498333Y-89006666D01*
X192565000Y-88940000D01*
X192665000Y-88906666D01*
X192731666Y-88906666D01*
X192831666Y-88940000D01*
X192865000Y-88973333D01*
X193098333Y-88906666D02*
X193531666Y-88906666D01*
X193298333Y-89173333D01*
X193398333Y-89173333D01*
X193465000Y-89206666D01*
X193498333Y-89240000D01*
X193531666Y-89306666D01*
X193531666Y-89473333D01*
X193498333Y-89540000D01*
X193465000Y-89573333D01*
X193398333Y-89606666D01*
X193198333Y-89606666D01*
X193131666Y-89573333D01*
X193098333Y-89540000D01*
X193965000Y-88906666D02*
X194031666Y-88906666D01*
X194098333Y-88940000D01*
X194131666Y-88973333D01*
X194165000Y-89040000D01*
X194198333Y-89173333D01*
X194198333Y-89340000D01*
X194165000Y-89473333D01*
X194131666Y-89540000D01*
X194098333Y-89573333D01*
X194031666Y-89606666D01*
X193965000Y-89606666D01*
X193898333Y-89573333D01*
X193865000Y-89540000D01*
X193831666Y-89473333D01*
X193798333Y-89340000D01*
X193798333Y-89173333D01*
X193831666Y-89040000D01*
X193865000Y-88973333D01*
X193898333Y-88940000D01*
X193965000Y-88906666D01*
X195400000Y-89530000D02*
X195366666Y-89563333D01*
X195266666Y-89596666D01*
X195200000Y-89596666D01*
X195100000Y-89563333D01*
X195033333Y-89496666D01*
X195000000Y-89430000D01*
X194966666Y-89296666D01*
X194966666Y-89196666D01*
X195000000Y-89063333D01*
X195033333Y-88996666D01*
X195100000Y-88930000D01*
X195200000Y-88896666D01*
X195266666Y-88896666D01*
X195366666Y-88930000D01*
X195400000Y-88963333D01*
X195633333Y-88896666D02*
X196066666Y-88896666D01*
X195833333Y-89163333D01*
X195933333Y-89163333D01*
X196000000Y-89196666D01*
X196033333Y-89230000D01*
X196066666Y-89296666D01*
X196066666Y-89463333D01*
X196033333Y-89530000D01*
X196000000Y-89563333D01*
X195933333Y-89596666D01*
X195733333Y-89596666D01*
X195666666Y-89563333D01*
X195633333Y-89530000D01*
X196500000Y-88896666D02*
X196566666Y-88896666D01*
X196633333Y-88930000D01*
X196666666Y-88963333D01*
X196700000Y-89030000D01*
X196733333Y-89163333D01*
X196733333Y-89330000D01*
X196700000Y-89463333D01*
X196666666Y-89530000D01*
X196633333Y-89563333D01*
X196566666Y-89596666D01*
X196500000Y-89596666D01*
X196433333Y-89563333D01*
X196400000Y-89530000D01*
X196366666Y-89463333D01*
X196333333Y-89330000D01*
X196333333Y-89163333D01*
X196366666Y-89030000D01*
X196400000Y-88963333D01*
X196433333Y-88930000D01*
X196500000Y-88896666D01*
X182530000Y-99900000D02*
X182563333Y-99933333D01*
X182596666Y-100033333D01*
X182596666Y-100100000D01*
X182563333Y-100200000D01*
X182496666Y-100266666D01*
X182430000Y-100300000D01*
X182296666Y-100333333D01*
X182196666Y-100333333D01*
X182063333Y-100300000D01*
X181996666Y-100266666D01*
X181930000Y-100200000D01*
X181896666Y-100100000D01*
X181896666Y-100033333D01*
X181930000Y-99933333D01*
X181963333Y-99900000D01*
X181896666Y-99666666D02*
X181896666Y-99233333D01*
X182163333Y-99466666D01*
X182163333Y-99366666D01*
X182196666Y-99300000D01*
X182230000Y-99266666D01*
X182296666Y-99233333D01*
X182463333Y-99233333D01*
X182530000Y-99266666D01*
X182563333Y-99300000D01*
X182596666Y-99366666D01*
X182596666Y-99566666D01*
X182563333Y-99633333D01*
X182530000Y-99666666D01*
X182130000Y-98633333D02*
X182596666Y-98633333D01*
X181863333Y-98800000D02*
X182363333Y-98966666D01*
X182363333Y-98533333D01*
X184000000Y-99710000D02*
X183966666Y-99743333D01*
X183866666Y-99776666D01*
X183800000Y-99776666D01*
X183700000Y-99743333D01*
X183633333Y-99676666D01*
X183600000Y-99610000D01*
X183566666Y-99476666D01*
X183566666Y-99376666D01*
X183600000Y-99243333D01*
X183633333Y-99176666D01*
X183700000Y-99110000D01*
X183800000Y-99076666D01*
X183866666Y-99076666D01*
X183966666Y-99110000D01*
X184000000Y-99143333D01*
X184233333Y-99076666D02*
X184666666Y-99076666D01*
X184433333Y-99343333D01*
X184533333Y-99343333D01*
X184600000Y-99376666D01*
X184633333Y-99410000D01*
X184666666Y-99476666D01*
X184666666Y-99643333D01*
X184633333Y-99710000D01*
X184600000Y-99743333D01*
X184533333Y-99776666D01*
X184333333Y-99776666D01*
X184266666Y-99743333D01*
X184233333Y-99710000D01*
X185266666Y-99310000D02*
X185266666Y-99776666D01*
X185100000Y-99043333D02*
X184933333Y-99543333D01*
X185366666Y-99543333D01*
X193536666Y-68373333D02*
X194036666Y-68373333D01*
X194136666Y-68406666D01*
X194203333Y-68473333D01*
X194236666Y-68573333D01*
X194236666Y-68640000D01*
X193536666Y-68106666D02*
X193536666Y-67640000D01*
X194236666Y-67940000D01*
X158853333Y-63308666D02*
X158853333Y-62608666D01*
X159020000Y-62608666D01*
X159120000Y-62642000D01*
X159186666Y-62708666D01*
X159220000Y-62775333D01*
X159253333Y-62908666D01*
X159253333Y-63008666D01*
X159220000Y-63142000D01*
X159186666Y-63208666D01*
X159120000Y-63275333D01*
X159020000Y-63308666D01*
X158853333Y-63308666D01*
X159853333Y-62842000D02*
X159853333Y-63308666D01*
X159686666Y-62575333D02*
X159520000Y-63075333D01*
X159953333Y-63075333D01*
X192570000Y-79500000D02*
X192603333Y-79533333D01*
X192636666Y-79633333D01*
X192636666Y-79700000D01*
X192603333Y-79800000D01*
X192536666Y-79866666D01*
X192470000Y-79900000D01*
X192336666Y-79933333D01*
X192236666Y-79933333D01*
X192103333Y-79900000D01*
X192036666Y-79866666D01*
X191970000Y-79800000D01*
X191936666Y-79700000D01*
X191936666Y-79633333D01*
X191970000Y-79533333D01*
X192003333Y-79500000D01*
X192636666Y-78833333D02*
X192636666Y-79233333D01*
X192636666Y-79033333D02*
X191936666Y-79033333D01*
X192036666Y-79100000D01*
X192103333Y-79166666D01*
X192136666Y-79233333D01*
X192236666Y-78433333D02*
X192203333Y-78500000D01*
X192170000Y-78533333D01*
X192103333Y-78566666D01*
X192070000Y-78566666D01*
X192003333Y-78533333D01*
X191970000Y-78500000D01*
X191936666Y-78433333D01*
X191936666Y-78300000D01*
X191970000Y-78233333D01*
X192003333Y-78200000D01*
X192070000Y-78166666D01*
X192103333Y-78166666D01*
X192170000Y-78200000D01*
X192203333Y-78233333D01*
X192236666Y-78300000D01*
X192236666Y-78433333D01*
X192270000Y-78500000D01*
X192303333Y-78533333D01*
X192370000Y-78566666D01*
X192503333Y-78566666D01*
X192570000Y-78533333D01*
X192603333Y-78500000D01*
X192636666Y-78433333D01*
X192636666Y-78300000D01*
X192603333Y-78233333D01*
X192570000Y-78200000D01*
X192503333Y-78166666D01*
X192370000Y-78166666D01*
X192303333Y-78200000D01*
X192270000Y-78233333D01*
X192236666Y-78300000D01*
X189600000Y-79300000D02*
X189566666Y-79333333D01*
X189466666Y-79366666D01*
X189400000Y-79366666D01*
X189300000Y-79333333D01*
X189233333Y-79266666D01*
X189200000Y-79200000D01*
X189166666Y-79066666D01*
X189166666Y-78966666D01*
X189200000Y-78833333D01*
X189233333Y-78766666D01*
X189300000Y-78700000D01*
X189400000Y-78666666D01*
X189466666Y-78666666D01*
X189566666Y-78700000D01*
X189600000Y-78733333D01*
X190266666Y-79366666D02*
X189866666Y-79366666D01*
X190066666Y-79366666D02*
X190066666Y-78666666D01*
X190000000Y-78766666D01*
X189933333Y-78833333D01*
X189866666Y-78866666D01*
X190666666Y-78966666D02*
X190600000Y-78933333D01*
X190566666Y-78900000D01*
X190533333Y-78833333D01*
X190533333Y-78800000D01*
X190566666Y-78733333D01*
X190600000Y-78700000D01*
X190666666Y-78666666D01*
X190800000Y-78666666D01*
X190866666Y-78700000D01*
X190900000Y-78733333D01*
X190933333Y-78800000D01*
X190933333Y-78833333D01*
X190900000Y-78900000D01*
X190866666Y-78933333D01*
X190800000Y-78966666D01*
X190666666Y-78966666D01*
X190600000Y-79000000D01*
X190566666Y-79033333D01*
X190533333Y-79100000D01*
X190533333Y-79233333D01*
X190566666Y-79300000D01*
X190600000Y-79333333D01*
X190666666Y-79366666D01*
X190800000Y-79366666D01*
X190866666Y-79333333D01*
X190900000Y-79300000D01*
X190933333Y-79233333D01*
X190933333Y-79100000D01*
X190900000Y-79033333D01*
X190866666Y-79000000D01*
X190800000Y-78966666D01*
X192895000Y-86480000D02*
X192861666Y-86513333D01*
X192761666Y-86546666D01*
X192695000Y-86546666D01*
X192595000Y-86513333D01*
X192528333Y-86446666D01*
X192495000Y-86380000D01*
X192461666Y-86246666D01*
X192461666Y-86146666D01*
X192495000Y-86013333D01*
X192528333Y-85946666D01*
X192595000Y-85880000D01*
X192695000Y-85846666D01*
X192761666Y-85846666D01*
X192861666Y-85880000D01*
X192895000Y-85913333D01*
X193161666Y-85913333D02*
X193195000Y-85880000D01*
X193261666Y-85846666D01*
X193428333Y-85846666D01*
X193495000Y-85880000D01*
X193528333Y-85913333D01*
X193561666Y-85980000D01*
X193561666Y-86046666D01*
X193528333Y-86146666D01*
X193128333Y-86546666D01*
X193561666Y-86546666D01*
X193961666Y-86146666D02*
X193895000Y-86113333D01*
X193861666Y-86080000D01*
X193828333Y-86013333D01*
X193828333Y-85980000D01*
X193861666Y-85913333D01*
X193895000Y-85880000D01*
X193961666Y-85846666D01*
X194095000Y-85846666D01*
X194161666Y-85880000D01*
X194195000Y-85913333D01*
X194228333Y-85980000D01*
X194228333Y-86013333D01*
X194195000Y-86080000D01*
X194161666Y-86113333D01*
X194095000Y-86146666D01*
X193961666Y-86146666D01*
X193895000Y-86180000D01*
X193861666Y-86213333D01*
X193828333Y-86280000D01*
X193828333Y-86413333D01*
X193861666Y-86480000D01*
X193895000Y-86513333D01*
X193961666Y-86546666D01*
X194095000Y-86546666D01*
X194161666Y-86513333D01*
X194195000Y-86480000D01*
X194228333Y-86413333D01*
X194228333Y-86280000D01*
X194195000Y-86213333D01*
X194161666Y-86180000D01*
X194095000Y-86146666D01*
X195425000Y-86490000D02*
X195391666Y-86523333D01*
X195291666Y-86556666D01*
X195225000Y-86556666D01*
X195125000Y-86523333D01*
X195058333Y-86456666D01*
X195025000Y-86390000D01*
X194991666Y-86256666D01*
X194991666Y-86156666D01*
X195025000Y-86023333D01*
X195058333Y-85956666D01*
X195125000Y-85890000D01*
X195225000Y-85856666D01*
X195291666Y-85856666D01*
X195391666Y-85890000D01*
X195425000Y-85923333D01*
X195691666Y-85923333D02*
X195725000Y-85890000D01*
X195791666Y-85856666D01*
X195958333Y-85856666D01*
X196025000Y-85890000D01*
X196058333Y-85923333D01*
X196091666Y-85990000D01*
X196091666Y-86056666D01*
X196058333Y-86156666D01*
X195658333Y-86556666D01*
X196091666Y-86556666D01*
X196491666Y-86156666D02*
X196425000Y-86123333D01*
X196391666Y-86090000D01*
X196358333Y-86023333D01*
X196358333Y-85990000D01*
X196391666Y-85923333D01*
X196425000Y-85890000D01*
X196491666Y-85856666D01*
X196625000Y-85856666D01*
X196691666Y-85890000D01*
X196725000Y-85923333D01*
X196758333Y-85990000D01*
X196758333Y-86023333D01*
X196725000Y-86090000D01*
X196691666Y-86123333D01*
X196625000Y-86156666D01*
X196491666Y-86156666D01*
X196425000Y-86190000D01*
X196391666Y-86223333D01*
X196358333Y-86290000D01*
X196358333Y-86423333D01*
X196391666Y-86490000D01*
X196425000Y-86523333D01*
X196491666Y-86556666D01*
X196625000Y-86556666D01*
X196691666Y-86523333D01*
X196725000Y-86490000D01*
X196758333Y-86423333D01*
X196758333Y-86290000D01*
X196725000Y-86223333D01*
X196691666Y-86190000D01*
X196625000Y-86156666D01*
X177316666Y-109916666D02*
X177316666Y-109216666D01*
X177316666Y-109550000D02*
X177716666Y-109550000D01*
X177716666Y-109916666D02*
X177716666Y-109216666D01*
X178016666Y-109283333D02*
X178050000Y-109250000D01*
X178116666Y-109216666D01*
X178283333Y-109216666D01*
X178350000Y-109250000D01*
X178383333Y-109283333D01*
X178416666Y-109350000D01*
X178416666Y-109416666D01*
X178383333Y-109516666D01*
X177983333Y-109916666D01*
X178416666Y-109916666D01*
D17*
X139984000Y-68656248D02*
X139984000Y-69178752D01*
X141454000Y-68656248D02*
X141454000Y-69178752D01*
X135304000Y-68639348D02*
X135304000Y-69161852D01*
X133834000Y-68639348D02*
X133834000Y-69161852D01*
X158787800Y-112210000D02*
X159068960Y-112210000D01*
X158787800Y-111190000D02*
X159068960Y-111190000D01*
X155188380Y-102590930D02*
X155188380Y-102872090D01*
X154168380Y-102590930D02*
X154168380Y-102872090D01*
X173902395Y-100984420D02*
X173902395Y-101265580D01*
X172882395Y-100984420D02*
X172882395Y-101265580D01*
X174377395Y-104611252D02*
X174377395Y-104088748D01*
X172907395Y-104611252D02*
X172907395Y-104088748D01*
X168601600Y-66229600D02*
X168601600Y-67699600D01*
X170886600Y-66229600D02*
X168601600Y-66229600D01*
X168601600Y-67699600D02*
X170886600Y-67699600D01*
X152852110Y-101542500D02*
X152852110Y-107602500D01*
X146742110Y-101352500D02*
X148742110Y-101352500D01*
X152852110Y-111702500D02*
X152852110Y-114762500D01*
X142632110Y-107602500D02*
X142632110Y-101542500D01*
X152852110Y-114762500D02*
X142632110Y-114762500D01*
X142632110Y-101542500D02*
X145442110Y-101542500D01*
X142632110Y-114762500D02*
X142632110Y-111702500D01*
X150042110Y-101542500D02*
X152852110Y-101542500D01*
D18*
X158482040Y-109779910D02*
X159317960Y-109779910D01*
X162125800Y-109779910D02*
X162125800Y-102337710D01*
X159317960Y-102337710D02*
X158482040Y-102337710D01*
X161482040Y-109779910D02*
X162125800Y-109779910D01*
X162125800Y-102337710D02*
X161482040Y-102337710D01*
X156317960Y-102337710D02*
X155674200Y-102337710D01*
X155674200Y-102337710D02*
X155674200Y-109779910D01*
X155674200Y-109779910D02*
X156317960Y-109779910D01*
X157476200Y-112156210D02*
G75*
G03*
X157476200Y-112156210I-76200J0D01*
G01*
D17*
X172313620Y-106008010D02*
X172313620Y-107958010D01*
X167193620Y-106008010D02*
X167193620Y-109458010D01*
X172313620Y-106008010D02*
X172313620Y-104058010D01*
X167193620Y-106008010D02*
X167193620Y-104058010D01*
X167275000Y-66060000D02*
X169425000Y-66060000D01*
X166850000Y-62840000D02*
X169425000Y-62840000D01*
X169425000Y-65150000D02*
X169425000Y-66060000D01*
X169425000Y-62840000D02*
X169425000Y-63750000D01*
X171062742Y-111036510D02*
X171537258Y-111036510D01*
X171062742Y-109991510D02*
X171537258Y-109991510D01*
X168562258Y-111022500D02*
X168087742Y-111022500D01*
X168562258Y-109977500D02*
X168087742Y-109977500D01*
X167035858Y-66492900D02*
X166561342Y-66492900D01*
X167035858Y-67537900D02*
X166561342Y-67537900D01*
X166138700Y-64788858D02*
X166138700Y-64314342D01*
X165093700Y-64788858D02*
X165093700Y-64314342D01*
X170681700Y-64788858D02*
X170681700Y-64314342D01*
X171726700Y-64788858D02*
X171726700Y-64314342D01*
X130700000Y-71100000D02*
X130700000Y-70400000D01*
X125800000Y-69000000D02*
X125800000Y-69100000D01*
X125800000Y-71100000D02*
X125800000Y-70400000D01*
X130700000Y-69100000D02*
X130700000Y-69000000D01*
X130700000Y-72500000D02*
X130700000Y-72400000D01*
X125800000Y-72500000D02*
X125800000Y-72400000D01*
X130700000Y-69000000D02*
X125800000Y-69000000D01*
X125800000Y-72500000D02*
X130700000Y-72500000D01*
X137650000Y-67340000D02*
X138450000Y-67340000D01*
X137650000Y-67340000D02*
X136850000Y-67340000D01*
X137650000Y-70460000D02*
X136850000Y-70460000D01*
X137650000Y-70460000D02*
X139450000Y-70460000D01*
X168811252Y-111528990D02*
X168288748Y-111528990D01*
X168811252Y-112998990D02*
X168288748Y-112998990D01*
X145940000Y-94210000D02*
X148060000Y-94210000D01*
X145940000Y-84090000D02*
X147000000Y-84090000D01*
X145940000Y-86150000D02*
X148060000Y-86150000D01*
X145940000Y-86150000D02*
X145940000Y-94210000D01*
X145940000Y-85150000D02*
X145940000Y-84090000D01*
X148060000Y-86150000D02*
X148060000Y-94210000D01*
X180330000Y-81880580D02*
X180330000Y-81599420D01*
X179310000Y-81880580D02*
X179310000Y-81599420D01*
X150680000Y-82697563D02*
X151744437Y-83762000D01*
X150680000Y-76306437D02*
X150680000Y-77992000D01*
X159200000Y-83762000D02*
X159200000Y-81012000D01*
X150680000Y-76306437D02*
X151744437Y-75242000D01*
X149440000Y-76992000D02*
X150440000Y-76992000D01*
X149940000Y-76492000D02*
X149940000Y-77492000D01*
X151744437Y-75242000D02*
X159200000Y-75242000D01*
X150680000Y-82697563D02*
X150680000Y-81012000D01*
X151744437Y-83762000D02*
X159200000Y-83762000D01*
X159200000Y-75242000D02*
X159200000Y-77992000D01*
X190311252Y-81785000D02*
X189788748Y-81785000D01*
X190311252Y-80315000D02*
X189788748Y-80315000D01*
X113137600Y-105626380D02*
X113137600Y-105345220D01*
X114157600Y-105626380D02*
X114157600Y-105345220D01*
X170360380Y-89205490D02*
X173110380Y-89205490D01*
X171424817Y-97725490D02*
X170360380Y-96661053D01*
X170360380Y-96661053D02*
X170360380Y-89205490D01*
X171610380Y-98465490D02*
X172610380Y-98465490D01*
X172110380Y-98965490D02*
X172110380Y-97965490D01*
X178880380Y-96661053D02*
X178880380Y-89205490D01*
X171424817Y-97725490D02*
X173110380Y-97725490D01*
X177815943Y-97725490D02*
X178880380Y-96661053D01*
X177815943Y-97725490D02*
X176130380Y-97725490D01*
X178880380Y-89205490D02*
X176130380Y-89205490D01*
X187770000Y-79920580D02*
X187770000Y-79639420D01*
X186750000Y-79920580D02*
X186750000Y-79639420D01*
X190311252Y-94765000D02*
X189788748Y-94765000D01*
X190311252Y-96235000D02*
X189788748Y-96235000D01*
X198200000Y-115554000D02*
X198200000Y-102346000D01*
X198200000Y-102346000D02*
X189200000Y-102346000D01*
X189200000Y-115554000D02*
X198200000Y-115554000D01*
X198200000Y-102346000D02*
X189200000Y-102346000D01*
X189200000Y-102346000D02*
X189200000Y-115554000D01*
X150350000Y-89275000D02*
X150350000Y-92425000D01*
X148650000Y-89275000D02*
X148650000Y-92425000D01*
X150350000Y-89275000D02*
X148650000Y-89275000D01*
X187140580Y-106160000D02*
X186859420Y-106160000D01*
X187140580Y-105140000D02*
X186859420Y-105140000D01*
X151822500Y-92437742D02*
X151822500Y-92912258D01*
X150777500Y-92437742D02*
X150777500Y-92912258D01*
X190311252Y-98235000D02*
X189788748Y-98235000D01*
X190311252Y-96765000D02*
X189788748Y-96765000D01*
X160690000Y-79390000D02*
X160690000Y-82140000D01*
X169950000Y-86660000D02*
X169950000Y-85660000D01*
X169210000Y-80454437D02*
X168145563Y-79390000D01*
X169210000Y-86845563D02*
X169210000Y-85160000D01*
X160690000Y-87910000D02*
X160690000Y-85160000D01*
X168145563Y-87910000D02*
X160690000Y-87910000D01*
X168145563Y-79390000D02*
X160690000Y-79390000D01*
X170450000Y-86160000D02*
X169450000Y-86160000D01*
X169210000Y-80454437D02*
X169210000Y-82140000D01*
X169210000Y-86845563D02*
X168145563Y-87910000D01*
X172037258Y-111477500D02*
X171562742Y-111477500D01*
X172037258Y-112522500D02*
X171562742Y-112522500D01*
X124788180Y-102600800D02*
X124507020Y-102600800D01*
X124788180Y-103620800D02*
X124507020Y-103620800D01*
X187135580Y-112400000D02*
X186854420Y-112400000D01*
X187135580Y-111380000D02*
X186854420Y-111380000D01*
X187340580Y-70780000D02*
X187059420Y-70780000D01*
X187340580Y-71800000D02*
X187059420Y-71800000D01*
X185463748Y-108490000D02*
X186886252Y-108490000D01*
X185463748Y-106670000D02*
X186886252Y-106670000D01*
X184711252Y-77745000D02*
X184188748Y-77745000D01*
X184711252Y-76275000D02*
X184188748Y-76275000D01*
X150777500Y-89387742D02*
X150777500Y-89862258D01*
X151822500Y-89387742D02*
X151822500Y-89862258D01*
X195760580Y-94940000D02*
X195479420Y-94940000D01*
X195760580Y-93920000D02*
X195479420Y-93920000D01*
X185458748Y-109030000D02*
X186881252Y-109030000D01*
X185458748Y-110850000D02*
X186881252Y-110850000D01*
X134787742Y-72377500D02*
X135262258Y-72377500D01*
X134787742Y-73422500D02*
X135262258Y-73422500D01*
X121540000Y-101040580D02*
X121540000Y-100759420D01*
X122560000Y-101040580D02*
X122560000Y-100759420D01*
X155355000Y-65548748D02*
X155355000Y-66071252D01*
X153885000Y-65548748D02*
X153885000Y-66071252D01*
X151820490Y-109740490D02*
X151820490Y-113160490D01*
X150770490Y-119360490D02*
X144790490Y-119360490D01*
X150770490Y-113160490D02*
X150770490Y-119360490D01*
X143740490Y-113160490D02*
X143740490Y-109740490D01*
X144980490Y-119360490D02*
X144980490Y-120860490D01*
X144790490Y-119360490D02*
X144790490Y-113160490D01*
X146620490Y-120860490D02*
X146620490Y-119360490D01*
X144190490Y-104240490D02*
X144190490Y-105850490D01*
X148940490Y-120860490D02*
X150580490Y-120860490D01*
X150580490Y-120860490D02*
X150580490Y-119360490D01*
X145800490Y-104240490D02*
X144190490Y-104240490D01*
X148940490Y-119360490D02*
X148940490Y-120860490D01*
X144790490Y-113160490D02*
X143740490Y-113160490D01*
X144980490Y-120860490D02*
X146620490Y-120860490D01*
X151820490Y-113160490D02*
X150770490Y-113160490D01*
X143740490Y-109740490D02*
X151820490Y-109740490D01*
X185663748Y-68440000D02*
X187086252Y-68440000D01*
X185663748Y-70260000D02*
X187086252Y-70260000D01*
X157584420Y-91090000D02*
X157865580Y-91090000D01*
X157584420Y-92110000D02*
X157865580Y-92110000D01*
X196000580Y-87250000D02*
X195719420Y-87250000D01*
X196000580Y-88270000D02*
X195719420Y-88270000D01*
X184711252Y-81785000D02*
X184188748Y-81785000D01*
X184711252Y-80315000D02*
X184188748Y-80315000D01*
X152917258Y-74762500D02*
X152442742Y-74762500D01*
X152917258Y-73717500D02*
X152442742Y-73717500D01*
X185663748Y-66065000D02*
X187086252Y-66065000D01*
X185663748Y-67885000D02*
X187086252Y-67885000D01*
X125820000Y-66130000D02*
X125820000Y-64800000D01*
X128420000Y-66130000D02*
X128420000Y-63470000D01*
X128420000Y-66130000D02*
X141180000Y-66130000D01*
X141180000Y-66130000D02*
X141180000Y-63470000D01*
X127150000Y-66130000D02*
X125820000Y-66130000D01*
X128420000Y-63470000D02*
X141180000Y-63470000D01*
X156267258Y-73727500D02*
X155792742Y-73727500D01*
X156267258Y-74772500D02*
X155792742Y-74772500D01*
X182171250Y-92841250D02*
X182621250Y-92841250D01*
X182171250Y-92391250D02*
X182171250Y-92841250D01*
X191391250Y-84071250D02*
X191391250Y-83621250D01*
X182171250Y-84071250D02*
X182171250Y-83621250D01*
X191391250Y-92391250D02*
X191391250Y-92841250D01*
X191391250Y-92841250D02*
X190941250Y-92841250D01*
X182171250Y-83621250D02*
X182621250Y-83621250D01*
X142528000Y-72864000D02*
X142528000Y-62264000D01*
X153128000Y-62264000D02*
X153128000Y-72864000D01*
X145728000Y-72864000D02*
X142528000Y-72864000D01*
X153128000Y-72864000D02*
X149928000Y-72864000D01*
X142528000Y-62264000D02*
X145728000Y-62264000D01*
X149928000Y-62264000D02*
X153128000Y-62264000D01*
X140210000Y-110590000D02*
X139360000Y-110590000D01*
X131650000Y-109296447D02*
X131150000Y-109296447D01*
X130890000Y-110290000D02*
X130890000Y-110150000D01*
X130640000Y-110590000D02*
X130640000Y-110290000D01*
X131150000Y-109296447D02*
X131400000Y-109650000D01*
X140210000Y-111490000D02*
X140210000Y-110590000D01*
X130640000Y-110290000D02*
X130890000Y-110290000D01*
X131400000Y-109650000D02*
X131650000Y-109296447D01*
X139360000Y-110590000D02*
X139360000Y-110290000D01*
X130960000Y-113210000D02*
X139040000Y-113210000D01*
X129790000Y-110590000D02*
X130640000Y-110590000D01*
X129790000Y-111490000D02*
X129790000Y-110590000D01*
X139360000Y-110290000D02*
X139110000Y-110290000D01*
X139497500Y-70665000D02*
X137212500Y-70665000D01*
X137212500Y-72135000D02*
X139497500Y-72135000D01*
X139497500Y-72135000D02*
X139497500Y-70665000D01*
X121072500Y-100637742D02*
X121072500Y-101112258D01*
X120027500Y-100637742D02*
X120027500Y-101112258D01*
X180330000Y-84920580D02*
X180330000Y-84639420D01*
X179310000Y-84920580D02*
X179310000Y-84639420D01*
X121575200Y-109400000D02*
X121575200Y-108250000D01*
X114275200Y-103900000D02*
X121575200Y-103900000D01*
X114275200Y-109400000D02*
X121575200Y-109400000D01*
X197525000Y-82351252D02*
X197525000Y-81828748D01*
X196055000Y-82351252D02*
X196055000Y-81828748D01*
D13*
X160063000Y-73187000D02*
X160063000Y-73042000D01*
X160063000Y-68037000D02*
X160063000Y-68182000D01*
X155913000Y-68037000D02*
X160063000Y-68037000D01*
X155913000Y-68087000D02*
X154513000Y-68087000D01*
X155913000Y-73187000D02*
X160063000Y-73187000D01*
X155913000Y-73187000D02*
X155913000Y-73042000D01*
X155913000Y-68037000D02*
X155913000Y-68087000D01*
D19*
X126220000Y-110118000D02*
X126220000Y-111056000D01*
X126220000Y-113480000D02*
X126220000Y-114418000D01*
X117620000Y-113454000D02*
X117620000Y-114418000D01*
X117620000Y-110118000D02*
X126220000Y-110118000D01*
X117620000Y-110118000D02*
X117620000Y-111082000D01*
X121252000Y-118418000D02*
X121252000Y-114418000D01*
X117620000Y-114418000D02*
X126220000Y-114418000D01*
X119252000Y-114418000D02*
X119252000Y-118418000D01*
X119252000Y-118418000D02*
X121252000Y-118418000D01*
D17*
X184711252Y-98185000D02*
X184188748Y-98185000D01*
X184711252Y-96715000D02*
X184188748Y-96715000D01*
X166850000Y-109500000D02*
X166850000Y-103800000D01*
X162550000Y-109500000D02*
X162550000Y-103800000D01*
X162550000Y-109500000D02*
X166850000Y-109500000D01*
X184711252Y-94665000D02*
X184188748Y-94665000D01*
X184711252Y-96135000D02*
X184188748Y-96135000D01*
X187340580Y-64520000D02*
X187059420Y-64520000D01*
X187340580Y-65540000D02*
X187059420Y-65540000D01*
X134812742Y-71922500D02*
X135287258Y-71922500D01*
X134812742Y-70877500D02*
X135287258Y-70877500D01*
X180252742Y-78682500D02*
X180727258Y-78682500D01*
X180252742Y-77637500D02*
X180727258Y-77637500D01*
X169210000Y-95695563D02*
X168145563Y-96760000D01*
X168145563Y-88240000D02*
X160690000Y-88240000D01*
X169210000Y-95695563D02*
X169210000Y-94010000D01*
X169210000Y-89304437D02*
X168145563Y-88240000D01*
X168145563Y-96760000D02*
X160690000Y-96760000D01*
X170450000Y-95010000D02*
X169450000Y-95010000D01*
X160690000Y-88240000D02*
X160690000Y-90990000D01*
X169950000Y-95510000D02*
X169950000Y-94510000D01*
X169210000Y-89304437D02*
X169210000Y-90990000D01*
X160690000Y-96760000D02*
X160690000Y-94010000D01*
X177815943Y-78647990D02*
X178880380Y-79712427D01*
X170360380Y-79712427D02*
X170360380Y-87167990D01*
X177130380Y-77407990D02*
X177130380Y-78407990D01*
X177630380Y-77907990D02*
X176630380Y-77907990D01*
X171424817Y-78647990D02*
X173110380Y-78647990D01*
X178880380Y-87167990D02*
X176130380Y-87167990D01*
X171424817Y-78647990D02*
X170360380Y-79712427D01*
X170360380Y-87167990D02*
X173110380Y-87167990D01*
X178880380Y-79712427D02*
X178880380Y-87167990D01*
X177815943Y-78647990D02*
X176130380Y-78647990D01*
X135398742Y-103392500D02*
X135873258Y-103392500D01*
X135398742Y-102347500D02*
X135873258Y-102347500D01*
X130615000Y-105488748D02*
X130615000Y-106011252D01*
X132085000Y-105488748D02*
X132085000Y-106011252D01*
X194290000Y-91875580D02*
X194290000Y-91594420D01*
X195310000Y-91875580D02*
X195310000Y-91594420D01*
X138700742Y-102347500D02*
X139175258Y-102347500D01*
X138700742Y-103392500D02*
X139175258Y-103392500D01*
X197275000Y-91658748D02*
X197275000Y-92181252D01*
X195805000Y-91658748D02*
X195805000Y-92181252D01*
X193970000Y-82410580D02*
X193970000Y-82129420D01*
X192950000Y-82410580D02*
X192950000Y-82129420D01*
X164873000Y-71366748D02*
X164873000Y-71889252D01*
X166343000Y-71366748D02*
X166343000Y-71889252D01*
X184711252Y-78315000D02*
X184188748Y-78315000D01*
X184711252Y-79785000D02*
X184188748Y-79785000D01*
X194490000Y-82425580D02*
X194490000Y-82144420D01*
X195510000Y-82425580D02*
X195510000Y-82144420D01*
X187800000Y-96569420D02*
X187800000Y-96850580D01*
X186780000Y-96569420D02*
X186780000Y-96850580D01*
X195774420Y-84040000D02*
X196055580Y-84040000D01*
X195774420Y-85060000D02*
X196055580Y-85060000D01*
X123000000Y-109400000D02*
X130300000Y-109400000D01*
X123000000Y-103900000D02*
X130300000Y-103900000D01*
X130300000Y-109400000D02*
X130300000Y-108250000D01*
X142310000Y-75610000D02*
X144860000Y-75610000D01*
X142310000Y-73910000D02*
X144860000Y-73910000D01*
X142310000Y-73910000D02*
X142310000Y-75610000D01*
X159552000Y-90740000D02*
X159552000Y-85660000D01*
X159552000Y-85660000D02*
X158800000Y-85660000D01*
X152948000Y-90740000D02*
X159552000Y-90740000D01*
X152948000Y-85660000D02*
X152948000Y-90740000D01*
X153700000Y-85660000D02*
X152948000Y-85660000D01*
X153700000Y-85660000D02*
X158800000Y-85660000D01*
X157884420Y-85360000D02*
X158165580Y-85360000D01*
X157884420Y-84340000D02*
X158165580Y-84340000D01*
D10*
X144130000Y-79231250D02*
X144130000Y-97231250D01*
D13*
X118545000Y-97248250D02*
X112576000Y-97248250D01*
X112576000Y-79214250D02*
X112576000Y-97248250D01*
D10*
X118600000Y-79231250D02*
X144130000Y-79231250D01*
D13*
X118545000Y-79214250D02*
X112576000Y-79214250D01*
D10*
X118600000Y-97231250D02*
X118600000Y-79231250D01*
X144130000Y-97231250D02*
X118600000Y-97231250D01*
D17*
X162587000Y-71366748D02*
X162587000Y-71889252D01*
X164057000Y-71366748D02*
X164057000Y-71889252D01*
X195709420Y-88770000D02*
X195990580Y-88770000D01*
X195709420Y-89790000D02*
X195990580Y-89790000D01*
X184711252Y-100195000D02*
X184188748Y-100195000D01*
X184711252Y-98725000D02*
X184188748Y-98725000D01*
X189250000Y-74754000D02*
X198250000Y-74754000D01*
X189250000Y-61546000D02*
X189250000Y-74754000D01*
X198250000Y-61546000D02*
X189250000Y-61546000D01*
X198250000Y-74754000D02*
X198250000Y-61546000D01*
X189250000Y-74754000D02*
X198250000Y-74754000D01*
X162770000Y-67460000D02*
X162770000Y-64160000D01*
X162770000Y-64160000D02*
X157370000Y-64160000D01*
X162770000Y-67460000D02*
X157370000Y-67460000D01*
X190311252Y-78315000D02*
X189788748Y-78315000D01*
X190311252Y-79785000D02*
X189788748Y-79785000D01*
X195734420Y-85730000D02*
X196015580Y-85730000D01*
X195734420Y-86750000D02*
X196015580Y-86750000D01*
M02*
